<?xml version="1.0" encoding="UTF-8"?>
<svg version="1.1" xmlns="http://www.w3.org/2000/svg" width="1024" height="1024">
<path d="M0 0 C1.49747542 -0.00461467 2.99494538 -0.01142069 4.49240214 -0.02020609 C8.60383222 -0.0379896 12.71466078 -0.02471241 16.82606644 -0.00631597 C21.30025905 0.00818393 25.77437334 -0.00636415 30.24856329 -0.01720095 C38.08900236 -0.03217967 45.92926221 -0.02857327 53.76969719 -0.01278305 C65.42861938 0.0106328 77.08740648 0.00543716 88.74634077 -0.00549195 C109.56850543 -0.02408539 130.39058459 -0.01436033 151.21274228 0.00698569 C169.43442444 0.02553408 187.65607786 0.0339651 205.87776947 0.0324173 C207.08591157 0.03232562 208.29405366 0.03223395 209.53880612 0.03213949 C214.44290558 0.03174634 219.34700502 0.03129672 224.25110446 0.0307681 C270.26622924 0.02589571 316.28130303 0.04856787 362.29641195 0.08472433 C403.18847597 0.1167182 444.08049642 0.12876798 484.97257233 0.12264252 C487.59819442 0.12225567 490.22381651 0.12186922 492.84943861 0.12148315 C494.79651427 0.12119613 494.79651427 0.12119613 496.7829248 0.12090331 C503.31698363 0.11994899 509.85104247 0.11903462 516.38510132 0.11816406 C517.67413888 0.11799027 518.96317643 0.11781647 520.29127574 0.11763741 C554.44869945 0.11328332 588.60611846 0.12329422 622.76353884 0.13800192 C624.58590901 0.13878213 624.58590901 0.13878213 626.44509474 0.13957811 C627.65780491 0.14009745 628.87051508 0.14061679 630.11997405 0.14115188 C631.33048019 0.14166962 632.54098633 0.14218736 633.78817447 0.14272078 C636.22604642 0.14376888 638.66391838 0.14482909 641.10179032 0.1459015 C658.1059414 0.1532857 675.11008582 0.15536966 692.11423831 0.1539075 C714.02612244 0.15206273 735.93796553 0.16011204 757.84983623 0.18554896 C769.44107859 0.19872455 781.03225541 0.20371865 792.62350365 0.19691042 C800.36232152 0.19320373 808.10107948 0.20038662 815.83988133 0.21650281 C820.25159296 0.22539202 824.66316958 0.22955353 829.07488412 0.22057563 C833.08962323 0.21251001 837.10409773 0.21827388 841.11880796 0.23499252 C842.56085487 0.23859508 844.0029253 0.23720406 845.44495947 0.23015337 C854.61777817 0.18876602 862.83078298 0.6610039 870.9759903 5.18611908 C878.31209403 13.36063467 878.8850935 21.87903902 878.78710938 32.46012878 C878.79172405 33.9576042 878.79853006 35.45507417 878.80731547 36.95253092 C878.82509897 41.06396101 878.81182179 45.17478957 878.79342534 49.28619523 C878.77892545 53.76038784 878.79347352 58.23450212 878.80431032 62.70869207 C878.81928905 70.54913115 878.81568264 78.38939099 878.79989243 86.22982597 C878.77647657 97.88874816 878.78167222 109.54753526 878.79260132 121.20646955 C878.81119477 142.02863422 878.8014697 162.85071338 878.78012369 183.67287107 C878.7615753 201.89455322 878.75314427 220.11620665 878.75469208 238.33789825 C878.75482959 240.1501114 878.75482959 240.1501114 878.75496988 241.99893491 C878.75536303 246.90303436 878.75581265 251.80713381 878.75634127 256.71123325 C878.76121367 302.72635802 878.73854151 348.74143181 878.70238505 394.75654074 C878.67039117 435.64860475 878.65834139 476.54062521 878.66446686 517.43270111 C878.6648537 520.0583232 878.66524016 522.6839453 878.66562623 525.30956739 C878.66581757 526.60761783 878.66600892 527.90566828 878.66620606 529.24305358 C878.66716039 535.77711242 878.66807476 542.31117126 878.66894531 548.8452301 C878.669206 550.77878644 878.669206 550.77878644 878.66947196 552.75140452 C878.67382605 586.90882823 878.66381515 621.06624724 878.64910746 655.22366762 C878.64858731 656.43858107 878.64806717 657.65349452 878.64753127 658.90522352 C878.64675225 660.72428878 878.64675225 660.72428878 878.6459575 662.58010283 C878.64543976 663.79060897 878.64492202 665.00111511 878.64438859 666.24830325 C878.6433405 668.68617521 878.64228029 671.12404716 878.64120787 673.5619191 C878.63382368 690.56607018 878.63173972 707.57021461 878.63320187 724.57436709 C878.63504664 746.48625123 878.62699733 768.39809431 878.60156041 790.30996501 C878.58838482 801.90120737 878.58339072 813.49238419 878.59019895 825.08363244 C878.59390564 832.8224503 878.58672276 840.56120826 878.57060657 848.30001012 C878.56171735 852.71172174 878.55755585 857.12329836 878.56653374 861.5350129 C878.57459936 865.54975201 878.5688355 869.56422651 878.55211686 873.57893675 C878.5485143 875.02098365 878.54990531 876.46305409 878.55695601 877.90508825 C878.59834335 887.07790696 878.12610547 895.29091176 873.6009903 903.43611908 C865.4264747 910.77222282 856.90807036 911.34522229 846.32698059 911.24723816 C844.82950518 911.25185283 843.33203521 911.25865884 841.83457845 911.26744425 C837.72314837 911.28522776 833.61231981 911.27195057 829.50091415 911.25355413 C825.02672154 911.23905423 820.55260725 911.25360231 816.0784173 911.26443911 C808.23797823 911.27941783 800.39771839 911.27581143 792.5572834 911.26002121 C780.89836121 911.23660536 769.23957411 911.241801 757.58063982 911.25273011 C736.75847516 911.27132355 715.936396 911.26159848 695.11423831 911.24025247 C676.89255615 911.22170408 658.67090273 911.21327306 640.44921112 911.21482086 C639.24106903 911.21491254 638.03292693 911.21500421 636.78817447 911.21509867 C631.88407501 911.21549182 626.97997557 911.21594144 622.07587613 911.21647006 C576.06075135 911.22134245 530.04567756 911.19867029 484.03056864 911.16251383 C443.13850463 911.13051996 402.24648417 911.11847018 361.35440826 911.12459564 C358.72878617 911.12498249 356.10316408 911.12536894 353.47754198 911.12575501 C351.53046632 911.12604203 351.53046632 911.12604203 349.5440558 911.12633485 C343.00999696 911.12728917 336.47593812 911.12820354 329.94187927 911.1290741 C328.65284171 911.12924789 327.36380416 911.12942168 326.03570485 911.12960074 C291.87828114 911.13395483 257.72086213 911.12394394 223.56344175 911.10923624 C222.34852831 911.1087161 221.13361486 911.10819596 219.88188585 911.10766005 C218.66917568 911.10714071 217.45646551 911.10662137 216.20700654 911.10608628 C214.9965004 911.10556854 213.78599427 911.1050508 212.53880612 911.10451737 C210.10093417 911.10346928 207.66306222 911.10240907 205.22519027 911.10133665 C188.22103919 911.09395246 171.21689477 911.0918685 154.21274228 911.09333066 C132.30085815 911.09517542 110.38901506 911.08712612 88.47714436 911.0616892 C76.885902 911.04851361 65.29472518 911.0435195 53.70347694 911.05032774 C45.96465907 911.05403443 38.22590111 911.04685154 30.48709926 911.03073535 C26.07538764 911.02184614 21.66381101 911.01768463 17.25209647 911.02666253 C13.23735736 911.03472814 9.22288286 911.02896428 5.20817263 911.01224564 C3.76612572 911.00864308 2.32405529 911.0100341 0.88202112 911.01708479 C-8.29079758 911.05847213 -16.50380239 910.58623426 -24.6490097 906.06111908 C-31.98511344 897.88660349 -32.55811291 889.36819914 -32.46012878 878.78710938 C-32.46474345 877.28963396 -32.47154947 875.79216399 -32.48033488 874.29470724 C-32.49811838 870.18327715 -32.4848412 866.07244859 -32.46644475 861.96104293 C-32.45194485 857.48685032 -32.46649293 853.01273604 -32.47732973 848.53854609 C-32.49230846 840.69810701 -32.48870205 832.85784717 -32.47291183 825.01741219 C-32.44949598 813.35849 -32.45469163 801.69970289 -32.46562073 790.04076861 C-32.48421418 769.21860394 -32.47448911 748.39652478 -32.4531431 727.57436709 C-32.43459471 709.35268494 -32.42616368 691.13103151 -32.42771149 672.9093399 C-32.42780316 671.70119781 -32.42789484 670.49305571 -32.42798929 669.24830325 C-32.42838244 664.3442038 -32.42883206 659.44010435 -32.42936068 654.53600491 C-32.43423308 608.52088014 -32.41156092 562.50580635 -32.37540445 516.49069742 C-32.34341058 475.59863341 -32.3313608 434.70661295 -32.33748627 393.81453705 C-32.33787311 391.18891495 -32.33825957 388.56329286 -32.33864564 385.93767077 C-32.33883698 384.63962033 -32.33902833 383.34156988 -32.33922547 382.00418458 C-32.3401798 375.47012574 -32.34109416 368.9360669 -32.34196472 362.40200806 C-32.34213852 361.1129705 -32.34231231 359.82393294 -32.34249137 358.49583364 C-32.34684546 324.33840992 -32.33683456 290.18099092 -32.32212687 256.02357054 C-32.32160672 254.80865709 -32.32108658 253.59374364 -32.32055068 252.34201463 C-32.32003133 251.12930446 -32.31951199 249.91659429 -32.31897691 248.66713533 C-32.3182003 246.85137612 -32.3182003 246.85137612 -32.317408 244.99893491 C-32.31635991 242.56106295 -32.3152997 240.123191 -32.31422728 237.68531905 C-32.30684309 220.68116797 -32.30475912 203.67702355 -32.30622128 186.67287107 C-32.30806605 164.76098693 -32.30001674 142.84914385 -32.27457982 120.93727314 C-32.26140423 109.34603079 -32.25641013 97.75485397 -32.26321836 86.16360572 C-32.26692505 78.42478786 -32.25974216 70.6860299 -32.24362598 62.94722804 C-32.23473676 58.53551642 -32.23057525 54.1239398 -32.23955315 49.71222526 C-32.24761877 45.69748615 -32.2418549 41.68301164 -32.22513627 37.66830141 C-32.22153371 36.22625451 -32.22292472 34.78418407 -32.22997542 33.34214991 C-32.27136276 24.1693312 -31.79912488 15.9563264 -27.2740097 7.81111908 C-19.09949411 0.47501534 -10.58108977 -0.09798413 0 0 Z " fill="#000000" transform="translate(88.83650970458984,56.376380920410156)"/>
<path d="M0 0 C1.49747542 -0.00461467 2.99494538 -0.01142069 4.49240214 -0.02020609 C8.60383222 -0.0379896 12.71466078 -0.02471241 16.82606644 -0.00631597 C21.30025905 0.00818393 25.77437334 -0.00636415 30.24856329 -0.01720095 C38.08900236 -0.03217967 45.92926221 -0.02857327 53.76969719 -0.01278305 C65.42861938 0.0106328 77.08740648 0.00543716 88.74634077 -0.00549195 C109.56850543 -0.02408539 130.39058459 -0.01436033 151.21274228 0.00698569 C169.43442444 0.02553408 187.65607786 0.0339651 205.87776947 0.0324173 C207.08591157 0.03232562 208.29405366 0.03223395 209.53880612 0.03213949 C214.44290558 0.03174634 219.34700502 0.03129672 224.25110446 0.0307681 C270.26622924 0.02589571 316.28130303 0.04856787 362.29641195 0.08472433 C403.18847597 0.1167182 444.08049642 0.12876798 484.97257233 0.12264252 C487.59819442 0.12225567 490.22381651 0.12186922 492.84943861 0.12148315 C494.79651427 0.12119613 494.79651427 0.12119613 496.7829248 0.12090331 C503.31698363 0.11994899 509.85104247 0.11903462 516.38510132 0.11816406 C517.67413888 0.11799027 518.96317643 0.11781647 520.29127574 0.11763741 C554.44869945 0.11328332 588.60611846 0.12329422 622.76353884 0.13800192 C624.58590901 0.13878213 624.58590901 0.13878213 626.44509474 0.13957811 C627.65780491 0.14009745 628.87051508 0.14061679 630.11997405 0.14115188 C631.33048019 0.14166962 632.54098633 0.14218736 633.78817447 0.14272078 C636.22604642 0.14376888 638.66391838 0.14482909 641.10179032 0.1459015 C658.1059414 0.1532857 675.11008582 0.15536966 692.11423831 0.1539075 C714.02612244 0.15206273 735.93796553 0.16011204 757.84983623 0.18554896 C769.44107859 0.19872455 781.03225541 0.20371865 792.62350365 0.19691042 C800.36232152 0.19320373 808.10107948 0.20038662 815.83988133 0.21650281 C820.25159296 0.22539202 824.66316958 0.22955353 829.07488412 0.22057563 C833.08962323 0.21251001 837.10409773 0.21827388 841.11880796 0.23499252 C842.56085487 0.23859508 844.0029253 0.23720406 845.44495947 0.23015337 C854.61777817 0.18876602 862.83078298 0.6610039 870.9759903 5.18611908 C878.31209403 13.36063467 878.8850935 21.87903902 878.78710938 32.46012878 C878.79172405 33.9576042 878.79853006 35.45507417 878.80731547 36.95253092 C878.82509897 41.06396101 878.81182179 45.17478957 878.79342534 49.28619523 C878.77892545 53.76038784 878.79347352 58.23450212 878.80431032 62.70869207 C878.81928905 70.54913115 878.81568264 78.38939099 878.79989243 86.22982597 C878.77647657 97.88874816 878.78167222 109.54753526 878.79260132 121.20646955 C878.81119477 142.02863422 878.8014697 162.85071338 878.78012369 183.67287107 C878.7615753 201.89455322 878.75314427 220.11620665 878.75469208 238.33789825 C878.75482959 240.1501114 878.75482959 240.1501114 878.75496988 241.99893491 C878.75536303 246.90303436 878.75581265 251.80713381 878.75634127 256.71123325 C878.76121367 302.72635802 878.73854151 348.74143181 878.70238505 394.75654074 C878.67039117 435.64860475 878.65834139 476.54062521 878.66446686 517.43270111 C878.6648537 520.0583232 878.66524016 522.6839453 878.66562623 525.30956739 C878.66581757 526.60761783 878.66600892 527.90566828 878.66620606 529.24305358 C878.66716039 535.77711242 878.66807476 542.31117126 878.66894531 548.8452301 C878.669206 550.77878644 878.669206 550.77878644 878.66947196 552.75140452 C878.67382605 586.90882823 878.66381515 621.06624724 878.64910746 655.22366762 C878.64858731 656.43858107 878.64806717 657.65349452 878.64753127 658.90522352 C878.64675225 660.72428878 878.64675225 660.72428878 878.6459575 662.58010283 C878.64543976 663.79060897 878.64492202 665.00111511 878.64438859 666.24830325 C878.6433405 668.68617521 878.64228029 671.12404716 878.64120787 673.5619191 C878.63382368 690.56607018 878.63173972 707.57021461 878.63320187 724.57436709 C878.63504664 746.48625123 878.62699733 768.39809431 878.60156041 790.30996501 C878.58838482 801.90120737 878.58339072 813.49238419 878.59019895 825.08363244 C878.59390564 832.8224503 878.58672276 840.56120826 878.57060657 848.30001012 C878.56171735 852.71172174 878.55755585 857.12329836 878.56653374 861.5350129 C878.57459936 865.54975201 878.5688355 869.56422651 878.55211686 873.57893675 C878.5485143 875.02098365 878.54990531 876.46305409 878.55695601 877.90508825 C878.59834335 887.07790696 878.12610547 895.29091176 873.6009903 903.43611908 C865.4264747 910.77222282 856.90807036 911.34522229 846.32698059 911.24723816 C844.82950518 911.25185283 843.33203521 911.25865884 841.83457845 911.26744425 C837.72314837 911.28522776 833.61231981 911.27195057 829.50091415 911.25355413 C825.02672154 911.23905423 820.55260725 911.25360231 816.0784173 911.26443911 C808.23797823 911.27941783 800.39771839 911.27581143 792.5572834 911.26002121 C780.89836121 911.23660536 769.23957411 911.241801 757.58063982 911.25273011 C736.75847516 911.27132355 715.936396 911.26159848 695.11423831 911.24025247 C676.89255615 911.22170408 658.67090273 911.21327306 640.44921112 911.21482086 C639.24106903 911.21491254 638.03292693 911.21500421 636.78817447 911.21509867 C631.88407501 911.21549182 626.97997557 911.21594144 622.07587613 911.21647006 C576.06075135 911.22134245 530.04567756 911.19867029 484.03056864 911.16251383 C443.13850463 911.13051996 402.24648417 911.11847018 361.35440826 911.12459564 C358.72878617 911.12498249 356.10316408 911.12536894 353.47754198 911.12575501 C351.53046632 911.12604203 351.53046632 911.12604203 349.5440558 911.12633485 C343.00999696 911.12728917 336.47593812 911.12820354 329.94187927 911.1290741 C328.65284171 911.12924789 327.36380416 911.12942168 326.03570485 911.12960074 C291.87828114 911.13395483 257.72086213 911.12394394 223.56344175 911.10923624 C222.34852831 911.1087161 221.13361486 911.10819596 219.88188585 911.10766005 C218.66917568 911.10714071 217.45646551 911.10662137 216.20700654 911.10608628 C214.9965004 911.10556854 213.78599427 911.1050508 212.53880612 911.10451737 C210.10093417 911.10346928 207.66306222 911.10240907 205.22519027 911.10133665 C188.22103919 911.09395246 171.21689477 911.0918685 154.21274228 911.09333066 C132.30085815 911.09517542 110.38901506 911.08712612 88.47714436 911.0616892 C76.885902 911.04851361 65.29472518 911.0435195 53.70347694 911.05032774 C45.96465907 911.05403443 38.22590111 911.04685154 30.48709926 911.03073535 C26.07538764 911.02184614 21.66381101 911.01768463 17.25209647 911.02666253 C13.23735736 911.03472814 9.22288286 911.02896428 5.20817263 911.01224564 C3.76612572 911.00864308 2.32405529 911.0100341 0.88202112 911.01708479 C-8.29079758 911.05847213 -16.50380239 910.58623426 -24.6490097 906.06111908 C-31.98511344 897.88660349 -32.55811291 889.36819914 -32.46012878 878.78710938 C-32.46474345 877.28963396 -32.47154947 875.79216399 -32.48033488 874.29470724 C-32.49811838 870.18327715 -32.4848412 866.07244859 -32.46644475 861.96104293 C-32.45194485 857.48685032 -32.46649293 853.01273604 -32.47732973 848.53854609 C-32.49230846 840.69810701 -32.48870205 832.85784717 -32.47291183 825.01741219 C-32.44949598 813.35849 -32.45469163 801.69970289 -32.46562073 790.04076861 C-32.48421418 769.21860394 -32.47448911 748.39652478 -32.4531431 727.57436709 C-32.43459471 709.35268494 -32.42616368 691.13103151 -32.42771149 672.9093399 C-32.42780316 671.70119781 -32.42789484 670.49305571 -32.42798929 669.24830325 C-32.42838244 664.3442038 -32.42883206 659.44010435 -32.42936068 654.53600491 C-32.43423308 608.52088014 -32.41156092 562.50580635 -32.37540445 516.49069742 C-32.34341058 475.59863341 -32.3313608 434.70661295 -32.33748627 393.81453705 C-32.33787311 391.18891495 -32.33825957 388.56329286 -32.33864564 385.93767077 C-32.33883698 384.63962033 -32.33902833 383.34156988 -32.33922547 382.00418458 C-32.3401798 375.47012574 -32.34109416 368.9360669 -32.34196472 362.40200806 C-32.34213852 361.1129705 -32.34231231 359.82393294 -32.34249137 358.49583364 C-32.34684546 324.33840992 -32.33683456 290.18099092 -32.32212687 256.02357054 C-32.32160672 254.80865709 -32.32108658 253.59374364 -32.32055068 252.34201463 C-32.32003133 251.12930446 -32.31951199 249.91659429 -32.31897691 248.66713533 C-32.3182003 246.85137612 -32.3182003 246.85137612 -32.317408 244.99893491 C-32.31635991 242.56106295 -32.3152997 240.123191 -32.31422728 237.68531905 C-32.30684309 220.68116797 -32.30475912 203.67702355 -32.30622128 186.67287107 C-32.30806605 164.76098693 -32.30001674 142.84914385 -32.27457982 120.93727314 C-32.26140423 109.34603079 -32.25641013 97.75485397 -32.26321836 86.16360572 C-32.26692505 78.42478786 -32.25974216 70.6860299 -32.24362598 62.94722804 C-32.23473676 58.53551642 -32.23057525 54.1239398 -32.23955315 49.71222526 C-32.24761877 45.69748615 -32.2418549 41.68301164 -32.22513627 37.66830141 C-32.22153371 36.22625451 -32.22292472 34.78418407 -32.22997542 33.34214991 C-32.27136276 24.1693312 -31.79912488 15.9563264 -27.2740097 7.81111908 C-19.09949411 0.47501534 -10.58108977 -0.09798413 0 0 Z M9.1634903 41.62361908 C9.1634903 314.86361908 9.1634903 588.10361908 9.1634903 869.62361908 C282.4034903 869.62361908 555.6434903 869.62361908 837.1634903 869.62361908 C837.1634903 596.38361908 837.1634903 323.14361908 837.1634903 41.62361908 C563.9234903 41.62361908 290.6834903 41.62361908 9.1634903 41.62361908 Z " fill="#A50B15" transform="translate(88.83650970458984,56.376380920410156)"/>
</svg>
