<svg xmlns="http://www.w3.org/2000/svg" width="1024" height="1024"><path d="M88.837 56.376q2.245-.006 4.492-.02c4.111-.018 8.222-.004 12.334.014 4.474.015 8.948 0 13.422-.01q11.76-.022 23.521.004c11.66.023 23.318.018 34.977.007 20.822-.019 41.644-.009 62.466.012q27.333.028 54.665.026h3.661l14.713-.002c46.015-.005 92.03.018 138.045.054a131599 131599 0 0 0 130.553.037h3.933q9.802-.003 19.603-.003l3.906-.001a183623 183623 0 0 1 109.828.024l3.669.001 7.313.003q25.507.011 51.013.008 32.868-.005 65.735.032 17.388.02 34.774.011 11.609-.004 23.216.02c4.412.009 8.824.013 13.235.004q6.023-.011 12.044.014 2.163.006 4.326-.004c9.173-.042 17.386.43 25.532 4.956 7.336 8.174 7.909 16.692 7.81 27.274q.008 2.245.02 4.492c.019 4.111.005 8.222-.013 12.334-.015 4.474 0 8.948.01 13.422.016 7.84.012 15.68-.004 23.521-.023 11.66-.018 23.318-.007 34.977.019 20.822.009 41.644-.012 62.466a49566 49566 0 0 0-.026 58.326l.002 14.713c.005 46.015-.018 92.03-.054 138.045a131599 131599 0 0 0-.037 130.553v3.933q.003 9.802.003 19.603l.001 3.906a183623 183623 0 0 1-.022 106.154l-.002 3.674-.004 10.982q-.012 25.506-.008 51.013c.002 21.912-.006 43.823-.032 65.735q-.02 17.388-.011 34.774.004 11.609-.02 23.216-.016 6.618-.004 13.235.011 6.023-.014 12.044a586 586 0 0 0 .004 4.326c.042 9.173-.43 17.386-4.955 25.532-8.175 7.336-16.693 7.909-27.275 7.81q-2.245.008-4.492.02c-4.111.019-8.222.005-12.334-.013-4.474-.015-8.948 0-13.422.01-7.84.016-15.68.012-23.521-.004-11.66-.023-23.318-.018-34.977-.007a32566 32566 0 0 1-62.466-.012q-27.333-.028-54.665-.026h-3.661l-14.713.002c-46.015.005-92.03-.018-138.045-.054a131599 131599 0 0 0-130.553-.037h-3.933l-23.509.004c-34.157.004-68.315-.006-102.472-.02l-3.682-.002-3.674-.002-10.982-.004q-25.507-.011-51.013-.008c-21.912.002-43.823-.006-65.735-.032q-17.388-.02-34.774-.011-11.609.004-23.216-.02-6.618-.015-13.235-.004-6.023.011-12.044-.014a586 586 0 0 0-4.326.004c-9.173.042-17.386-.43-25.531-4.955-7.337-8.175-7.91-16.693-7.812-27.275q-.006-2.245-.02-4.492c-.018-4.111-.004-8.222.014-12.334.015-4.474 0-8.948-.01-13.422q-.022-11.76.004-23.521c.023-11.66.018-23.318.007-34.977-.019-20.822-.009-41.644.012-62.466q.028-27.333.026-54.665v-3.661l-.002-14.713c-.005-46.015.018-92.03.054-138.045a131599 131599 0 0 0 .037-130.553v-3.933q-.003-9.802-.003-19.603l-.001-3.906a183623 183623 0 0 1 .022-106.154l.002-3.674.001-3.669.003-7.313q.011-25.507.008-51.013-.005-32.868.032-65.735.02-17.388.011-34.774-.004-11.609.02-23.216c.009-4.412.013-8.824.004-13.235q-.011-6.023.014-12.044a586 586 0 0 0-.004-4.326c-.042-9.173.43-17.386 4.956-25.531 8.174-7.337 16.692-7.91 27.274-7.812"/><path fill="#a50b15" d="M88.837 56.376q2.245-.006 4.492-.02c4.111-.018 8.222-.004 12.334.014 4.474.015 8.948 0 13.422-.01q11.76-.022 23.521.004c11.66.023 23.318.018 34.977.007 20.822-.019 41.644-.009 62.466.012q27.333.028 54.665.026h3.661l14.713-.002c46.015-.005 92.03.018 138.045.054a131599 131599 0 0 0 130.553.037h3.933q9.802-.003 19.603-.003l3.906-.001a183623 183623 0 0 1 109.828.024l3.669.001 7.313.003q25.507.011 51.013.008 32.868-.005 65.735.032 17.388.02 34.774.011 11.609-.004 23.216.02c4.412.009 8.824.013 13.235.004q6.023-.011 12.044.014 2.163.006 4.326-.004c9.173-.042 17.386.43 25.532 4.956 7.336 8.174 7.909 16.692 7.81 27.274q.008 2.245.02 4.492c.019 4.111.005 8.222-.013 12.334-.015 4.474 0 8.948.01 13.422.016 7.84.012 15.68-.004 23.521-.023 11.66-.018 23.318-.007 34.977.019 20.822.009 41.644-.012 62.466a49566 49566 0 0 0-.026 58.326l.002 14.713c.005 46.015-.018 92.03-.054 138.045a131599 131599 0 0 0-.037 130.553v3.933q.003 9.802.003 19.603l.001 3.906a183623 183623 0 0 1-.022 106.154l-.002 3.674-.004 10.982q-.012 25.506-.008 51.013c.002 21.912-.006 43.823-.032 65.735q-.02 17.388-.011 34.774.004 11.609-.02 23.216-.016 6.618-.004 13.235.011 6.023-.014 12.044a586 586 0 0 0 .004 4.326c.042 9.173-.43 17.386-4.955 25.532-8.175 7.336-16.693 7.909-27.275 7.81q-2.245.008-4.492.02c-4.111.019-8.222.005-12.334-.013-4.474-.015-8.948 0-13.422.01-7.84.016-15.68.012-23.521-.004-11.66-.023-23.318-.018-34.977-.007a32566 32566 0 0 1-62.466-.012q-27.333-.028-54.665-.026h-3.661l-14.713.002c-46.015.005-92.03-.018-138.045-.054a131599 131599 0 0 0-130.553-.037h-3.933l-23.509.004c-34.157.004-68.315-.006-102.472-.02l-3.682-.002-3.674-.002-10.982-.004q-25.507-.011-51.013-.008c-21.912.002-43.823-.006-65.735-.032q-17.388-.02-34.774-.011-11.609.004-23.216-.02-6.618-.015-13.235-.004-6.023.011-12.044-.014a586 586 0 0 0-4.326.004c-9.173.042-17.386-.43-25.531-4.955-7.337-8.175-7.91-16.693-7.812-27.275q-.006-2.245-.02-4.492c-.018-4.111-.004-8.222.014-12.334.015-4.474 0-8.948-.01-13.422q-.022-11.76.004-23.521c.023-11.66.018-23.318.007-34.977-.019-20.822-.009-41.644.012-62.466q.028-27.333.026-54.665v-3.661l-.002-14.713c-.005-46.015.018-92.03.054-138.045a131599 131599 0 0 0 .037-130.553v-3.933q-.003-9.802-.003-19.603l-.001-3.906a183623 183623 0 0 1 .022-106.154l.002-3.674.001-3.669.003-7.313q.011-25.507.008-51.013-.005-32.868.032-65.735.02-17.388.011-34.774-.004-11.609.02-23.216c.009-4.412.013-8.824.004-13.235q-.011-6.023.014-12.044a586 586 0 0 0-.004-4.326c-.042-9.173.43-17.386 4.956-25.531 8.174-7.337 16.692-7.91 27.274-7.812M98 98v828h828V98z"/><path fill="#a30a14" d="M660 120c4 2.667 4.132 5.552 5.063 10l.486 2.176c.854 3.864 1.634 7.741 2.396 11.625 1.157 5.826 2.512 11.603 3.867 17.387 2.01 8.63 3.957 17.271 5.813 25.937 1.369 6.386 2.802 12.74 4.438 19.063 1.73 6.747 3.107 13.531 4.433 20.369 1.3 6.623 2.861 13.143 4.574 19.67.908 3.682 1.674 7.366 2.403 11.086.933 4.757 1.919 9.503 2.902 14.25l.653 3.153c1.482 7.095 3.063 14.158 4.804 21.194.68 2.787 1.168 5.207 1.168 8.09 5.86-2.777 11.37-6.118 16.938-9.437q2.887-1.718 5.777-3.434l2.776-1.65q3.06-1.805 6.15-3.557c3.284-1.88 6.525-3.818 9.762-5.777 9.815-5.938 19.719-11.71 29.663-17.426 8.471-4.871 16.918-9.782 25.355-14.713a4776 4776 0 0 1 21.314-12.368 676 676 0 0 0 12.077-7.138c9.92-5.948 9.92-5.948 16.188-5.5l1 2a117 117 0 0 1-3.812 7.563l-1.237 2.292c-4.443 8.17-9.17 16.17-13.951 24.145l-2.352 3.945c-5.901 9.888-11.867 19.738-18.086 29.43-2.662 4.162-5.224 8.378-7.75 12.625-4.028 6.767-8.213 13.429-12.43 20.079a1163 1163 0 0 0-10.5 16.855 542 542 0 0 1-4.077 6.539l-1.105 1.756q-1.514 2.402-3.036 4.798c-1.647 2.942-2.712 5.747-3.664 8.973 2.432 1.216 4.561 1.47 7.254 1.883 6.942 1.119 13.804 2.538 20.683 3.992 14.463 3.022 28.955 5.816 43.485 8.492 13.414 2.477 26.801 5.029 40.14 7.883l3.493.746c5.376 1.166 10.681 2.403 15.945 4.004v4c-13.483 6.432-27.482 11.734-41.481 16.922-4.875 1.814-9.674 3.772-14.464 5.797-9.18 3.85-18.46 7.454-27.758 11.004-3.531 1.368-7.038 2.79-10.547 4.214-5.387 2.182-10.82 4.167-16.312 6.063-7.65 2.641-15.05 5.698-22.438 9 5.022 10.87 11.246 21.026 17.382 31.29 2.325 3.895 4.63 7.8 6.93 11.71l1.234 2.095c3.131 5.328 6.187 10.697 9.227 16.077 1.737 3.028 3.555 6 5.391 8.969l1.669 2.715a581 581 0 0 0 3.307 5.305l1.516 2.468 1.37 2.19c1.137 2.546 1.156 4.422.974 7.181-3.324-.633-5.589-1.856-8.387-3.738l-2.568-1.718-2.732-1.856-2.835-1.908a915 915 0 0 1-19.415-13.502 421 421 0 0 0-16.244-10.982c-6.073-3.967-9.567-8.133-13.194-14.358l-1.193-2.02c-3.77-6.415-7.314-12.945-10.815-19.512-3.31-6.148-6.815-12.15-10.458-18.104-7.082-11.64-7.082-11.64-6.159-16.302 1.809-1.816 1.809-1.816 4.438-3.562l3.039-2.075 1.7-1.134c2.688-1.812 5.326-3.692 7.97-5.568q3.258-2.309 6.525-4.606c6.13-4.322 12.23-8.687 18.328-13.055-2.6-2.6-4.467-2.707-8.062-3.437l-3.82-.782c-4.174-.808-8.364-1.511-12.556-2.219-8.01-1.352-15.755-3.323-23.562-5.562-1.691-4.902.035-8.307 2.125-12.75l.98-2.16c2.057-4.478 4.318-8.784 6.79-13.047 1.584-2.928 2.74-5.977 3.93-9.082 1.81-4.56 3.813-9.032 5.801-13.516 1.235-2.794 2.407-5.545 3.374-8.445-10.986 6.44-10.986 6.44-21.937 12.938l-2.258 1.343a394 394 0 0 0-7.235 4.563l-2.43 1.54a375 375 0 0 0-4.81 3.098c-5.506 3.466-5.506 3.466-9.185 3.698-3.115-1.713-3.768-3.757-5.145-6.993-2.835-6.613-6.676-9.875-13-13.187-8.288-2.403-16.377-2.892-24.187 1.125-5.695 3.796-8.707 8.895-11.813 14.875l-1.035 1.977A155 155 0 0 0 633 362c-6.557-1.873-12.412-4.573-18.447-7.691C607.468 350.66 600.23 347.345 593 344q2.23 6.805 4.48 13.605.762 2.307 1.519 4.617 1.095 3.342 2.204 6.68l.722 2.179c1.298 3.844 2.732 7.511 4.497 11.173 1.328 2.793 1.59 3.6 1.328 6.808L607 391c-11.957 3.43-24.052 5.956-36.236 8.432-4.762.979-9.507 2.031-14.252 3.088C554 403 554 403 551 403v2l1.535.727c3.381 1.746 6.632 3.704 9.903 5.648a1165 1165 0 0 0 23.165 13.337c5.638 3.194 11.056 6.62 16.397 10.288-.548 5.014-2.244 8.965-4.562 13.375l-2.192 4.27-1.133 2.19a597 597 0 0 0-4.13 8.24c-3.579 7.234-7.33 14.353-11.221 21.425-1.9 3.776-3.344 7.521-4.762 11.5 12.569-4.294 25.08-8.68 37.434-13.56l2.488-.971 2.175-.862C618 480 618 480 621 480c-1.405 4.214-4.47 5.86-7.937 8.375l-2.159 1.59c-2.295 1.686-4.6 3.361-6.904 5.035l-4.504 3.293c-9.077 6.614-18.264 13.05-27.546 19.373a941 941 0 0 0-5.802 4.006C555.578 529.009 544.814 536.029 534 543q-4.407 2.842-8.812 5.688l-2.075 1.34C516.027 554.612 509.01 559.298 502 564c-3 2-3 2-5.187 1.625L495 565c.493-5.496 2.527-9.058 5.375-13.625q1.373-2.265 2.738-4.535l1.44-2.391c2.433-4.118 4.72-8.313 7.01-12.511l4.119-7.535c4.788-8.727 9.662-17.396 14.835-25.902 1.468-2.475 2.854-4.98 4.221-7.513 3.945-7.264 8.001-14.465 12.051-21.672A1594 1594 0 0 0 558 449c-2.367-2.367-4.167-2.924-7.312-4.062-6.224-2.332-12.334-4.874-18.438-7.5l-2.65-1.14c-4.763-2.054-9.509-4.143-14.246-6.255-5.534-2.452-11.096-4.842-16.65-7.244a754 754 0 0 1-14.54-6.467c-3.76-1.718-7.526-3.294-11.414-4.707a180 180 0 0 1-13.875-5.937c-5.876-2.799-11.813-5.415-17.812-7.938l-2.366-.997-2.287-.956-2.214-.928a81 81 0 0 0-4.505-1.629c-2.195-.724-2.195-.724-5.691-2.24-.719-2.095-.719-2.095-1-4 9.598-5.468 23.397-5.687 34.191-7.184 13.488-1.876 26.97-3.9 40.372-6.316A882 882 0 0 1 556 365c-3.596-7.618-7.796-14.709-12.312-21.812l-4.047-6.418-1.932-3.057a739 739 0 0 1-5.771-9.338c-3.449-5.63-7.006-11.188-10.563-16.75-6.109-9.56-12.035-19.222-17.914-28.926C495.789 266.042 487.999 253.453 480 241a1929 1929 0 0 1-7-11l-1.773-2.738-1.664-2.637-1.497-2.336c-1.217-2.613-1.272-4.44-1.066-7.289 7.223.253 12.373 3.762 18.438 7.438l3.226 1.92c10.44 6.24 20.75 12.668 30.958 19.28 4.902 3.172 9.813 6.234 14.948 9.018 10.457 5.783 20.492 12.255 30.464 18.826A234 234 0 0 0 579 280a676 676 0 0 1 5.813 3.563 3914 3914 0 0 0 19.007 11.668q2.148 1.313 4.298 2.622c1.593.97 3.181 1.949 4.769 2.928 2.058 1.187 3.788 1.788 6.113 2.219.13-.974.258-1.949.391-2.953.616-4.304 1.471-8.548 2.351-12.805.17-.825.338-1.65.512-2.5q.536-2.61 1.075-5.219.809-3.929 1.612-7.859c1.9-9.252 3.89-18.471 6.059-27.664q.591-2.565 1.176-5.133l.559-2.452c4.077-17.926 8.052-35.875 11.988-53.833l2.222-10.133q1.094-4.992 2.184-9.985c4.157-18.977 4.157-18.977 6.298-27.142.838-3.394 1.452-6.82 2.046-10.263C658 123 658 123 660 120M338.375 727.688l3.314-.017c38.338.34 70.229 24.858 96.05 50.83 4.271 4.37 8.242 8.896 12.027 13.698 2.636 3.305 5.399 6.485 8.171 9.676a324 324 0 0 1 13.926 17.281 198 198 0 0 0 3.867 5c1.987 2.537 3.22 4.647 4.02 7.782-1.766 7.212-8.388 11.761-14.094 16.011-3.348 2.585-6.524 5.343-9.719 8.114A2466 2466 0 0 1 449 862l-2.465 2.105c-2.986 2.413-4.93 3.765-8.723 4.582-6.778-1.657-10.12-9.06-13.5-14.625C419.186 845.79 413.806 837.81 408 830l-1.209-1.646c-13.737-18.653-31.158-38.982-54.603-44.917A74 74 0 0 0 347 783l-2.088-.152c-16.743-1.11-31.11 2.35-44.912 12.152l-2.895 2.004c-14.204 10.351-26.404 23.228-36.852 37.315a352 352 0 0 1-3.933 5.158l-1.33 1.716-1.303 1.682c-2.212 2.856-4.401 5.715-6.468 8.68-3.598 5.157-3.598 5.157-6.781 6.633-5.788-.446-10.213-5.438-14.375-9.125l-3.985-3.5-2.04-1.793a382 382 0 0 0-5.991-5.082l-1.903-1.594a454 454 0 0 0-3.575-2.959c-3.575-3.005-6.416-5.91-8.569-10.135-.18-5.697 2.856-8.73 6.5-12.687q1.662-1.867 3.32-3.735l1.654-1.846c2.049-2.326 3.974-4.741 5.901-7.17 4.286-5.288 8.896-10.237 13.578-15.173 2.828-2.985 5.59-5.994 8.246-9.135 3.275-3.859 6.933-7.002 10.801-10.254l2.617-2.312c24.13-20.926 53.657-33.863 85.758-34M401.77 505.559l2.185.452q3.429.71 6.858 1.426l6.81 1.413q2.192.455 4.384.916c4.69.982 9.387 1.868 14.117 2.629 2.366.763 3.39 1.617 4.876 3.605 1.898 8.624-1.573 18.605-3.437 27.063-5.968 27.43-9.3 58.57 5.437 83.937 8.815 13.44 21.351 21.573 37.008 24.898 4.311.838 8.643 1.492 12.992 2.102l2.062.3c6.902.986 13.75 1.697 20.723 1.903l2.997.093q2.91.078 5.82.099c3.977.097 6.91.399 10.601 1.957 2.985 4.4 1.629 8.596.797 13.648q-.47 3.389-.937 6.777a3819 3819 0 0 1-1.602 10.752c-.982 6.677-1.751 13.282-2.117 20.023C531 712 531 712 529 715.25c-7.91 4.614-19.576.642-28.187-.937l-2.286-.414C467.05 708.203 435.388 701.768 410 681l-2.531-1.977c-22.047-18.46-29.236-48.963-32.067-76.3-.567-6.84-.594-13.677-.59-20.535l.001-2.06c.023-12.137.766-24.074 2.187-36.128l.73-6.52c3.196-27.885 3.196-27.885 6.457-32.73 5.194-3.231 11.825-.398 17.583.809M278 516c3.138 3.918 3.891 8.285 4.719 13.113l.434 2.407c.462 2.595.906 5.193 1.347 7.793l.465 2.695c7.41 43.203 12.914 90.897-12.969 129.347-20.908 27.7-53.342 43.56-86.996 49.645l-3.426.625a131 131 0 0 1-19.262 1.688l-2.071.053c-4.76-.007-4.76-.007-6.91-1.61-1.655-2.184-1.774-3.48-1.92-6.201l-.183-2.73-.166-2.95c-.694-10.057-2.052-19.878-3.83-29.8l-.525-3.024-.485-2.667c-.23-2.468-.069-4.065.778-6.384 3.662-4.151 7.059-4.522 12.297-4.858l2.828-.142c19.378-1.394 38.979-4.474 53.875-18l1.89-1.648c10.824-10.023 15.571-24.187 16.271-38.69.046-3.805.086-7.608.089-11.412l.002-2.098c-.025-15.942-2.2-30.528-6.626-45.839-1.19-4.179-2.177-7.927-1.626-12.313 2.112-2.655 3.974-3.525 7.219-4.36l2.55-.682 2.731-.708c11.893-3.226 27.394-12.524 39.5-11.25"/><path fill="#a30a14" d="M687.676 390.047c9.982 8.577 15.5 18.318 16.64 31.656.097 6.074-.076 11.585-2.316 17.297l-.777 2.098c-4.815 12.047-13.358 20.106-25.16 25.34-10.708 3.498-24.223 3.336-34.352-1.7-11.073-7.1-19.216-16.965-22.711-29.738-.451-3.427-.525-6.796-.5-10.25l.017-2.806c.304-11.69 4.586-20.39 12.483-28.944 2.563-2.312 2.563-2.312 5-4l2.875-2.062c15.268-9.466 34.678-7.694 48.8 3.109"/></svg>