<?xml version="1.0" encoding="UTF-8"?>
<svg version="1.1" xmlns="http://www.w3.org/2000/svg" width="1024" height="1024">
<path d="M0 0 C1.49747542 -0.00461467 2.99494538 -0.01142069 4.49240214 -0.02020609 C8.60383222 -0.0379896 12.71466078 -0.02471241 16.82606644 -0.00631597 C21.30025905 0.00818393 25.77437334 -0.00636415 30.24856329 -0.01720095 C38.08900236 -0.03217967 45.92926221 -0.02857327 53.76969719 -0.01278305 C65.42861938 0.0106328 77.08740648 0.00543716 88.74634077 -0.00549195 C109.56850543 -0.02408539 130.39058459 -0.01436033 151.21274228 0.00698569 C169.43442444 0.02553408 187.65607786 0.0339651 205.87776947 0.0324173 C207.08591157 0.03232562 208.29405366 0.03223395 209.53880612 0.03213949 C214.44290558 0.03174634 219.34700502 0.03129672 224.25110446 0.0307681 C270.26622924 0.02589571 316.28130303 0.04856787 362.29641195 0.08472433 C403.18847597 0.1167182 444.08049642 0.12876798 484.97257233 0.12264252 C487.59819442 0.12225567 490.22381651 0.12186922 492.84943861 0.12148315 C494.79651427 0.12119613 494.79651427 0.12119613 496.7829248 0.12090331 C503.31698363 0.11994899 509.85104247 0.11903462 516.38510132 0.11816406 C517.67413888 0.11799027 518.96317643 0.11781647 520.29127574 0.11763741 C554.44869945 0.11328332 588.60611846 0.12329422 622.76353884 0.13800192 C624.58590901 0.13878213 624.58590901 0.13878213 626.44509474 0.13957811 C627.65780491 0.14009745 628.87051508 0.14061679 630.11997405 0.14115188 C631.33048019 0.14166962 632.54098633 0.14218736 633.78817447 0.14272078 C636.22604642 0.14376888 638.66391838 0.14482909 641.10179032 0.1459015 C658.1059414 0.1532857 675.11008582 0.15536966 692.11423831 0.1539075 C714.02612244 0.15206273 735.93796553 0.16011204 757.84983623 0.18554896 C769.44107859 0.19872455 781.03225541 0.20371865 792.62350365 0.19691042 C800.36232152 0.19320373 808.10107948 0.20038662 815.83988133 0.21650281 C820.25159296 0.22539202 824.66316958 0.22955353 829.07488412 0.22057563 C833.08962323 0.21251001 837.10409773 0.21827388 841.11880796 0.23499252 C842.56085487 0.23859508 844.0029253 0.23720406 845.44495947 0.23015337 C854.61777817 0.18876602 862.83078298 0.6610039 870.9759903 5.18611908 C878.31209403 13.36063467 878.8850935 21.87903902 878.78710938 32.46012878 C878.79172405 33.9576042 878.79853006 35.45507417 878.80731547 36.95253092 C878.82509897 41.06396101 878.81182179 45.17478957 878.79342534 49.28619523 C878.77892545 53.76038784 878.79347352 58.23450212 878.80431032 62.70869207 C878.81928905 70.54913115 878.81568264 78.38939099 878.79989243 86.22982597 C878.77647657 97.88874816 878.78167222 109.54753526 878.79260132 121.20646955 C878.81119477 142.02863422 878.8014697 162.85071338 878.78012369 183.67287107 C878.7615753 201.89455322 878.75314427 220.11620665 878.75469208 238.33789825 C878.75482959 240.1501114 878.75482959 240.1501114 878.75496988 241.99893491 C878.75536303 246.90303436 878.75581265 251.80713381 878.75634127 256.71123325 C878.76121367 302.72635802 878.73854151 348.74143181 878.70238505 394.75654074 C878.67039117 435.64860475 878.65834139 476.54062521 878.66446686 517.43270111 C878.6648537 520.0583232 878.66524016 522.6839453 878.66562623 525.30956739 C878.66581757 526.60761783 878.66600892 527.90566828 878.66620606 529.24305358 C878.66716039 535.77711242 878.66807476 542.31117126 878.66894531 548.8452301 C878.669206 550.77878644 878.669206 550.77878644 878.66947196 552.75140452 C878.67382605 586.90882823 878.66381515 621.06624724 878.64910746 655.22366762 C878.64858731 656.43858107 878.64806717 657.65349452 878.64753127 658.90522352 C878.64675225 660.72428878 878.64675225 660.72428878 878.6459575 662.58010283 C878.64543976 663.79060897 878.64492202 665.00111511 878.64438859 666.24830325 C878.6433405 668.68617521 878.64228029 671.12404716 878.64120787 673.5619191 C878.63382368 690.56607018 878.63173972 707.57021461 878.63320187 724.57436709 C878.63504664 746.48625123 878.62699733 768.39809431 878.60156041 790.30996501 C878.58838482 801.90120737 878.58339072 813.49238419 878.59019895 825.08363244 C878.59390564 832.8224503 878.58672276 840.56120826 878.57060657 848.30001012 C878.56171735 852.71172174 878.55755585 857.12329836 878.56653374 861.5350129 C878.57459936 865.54975201 878.5688355 869.56422651 878.55211686 873.57893675 C878.5485143 875.02098365 878.54990531 876.46305409 878.55695601 877.90508825 C878.59834335 887.07790696 878.12610547 895.29091176 873.6009903 903.43611908 C865.4264747 910.77222282 856.90807036 911.34522229 846.32698059 911.24723816 C844.82950518 911.25185283 843.33203521 911.25865884 841.83457845 911.26744425 C837.72314837 911.28522776 833.61231981 911.27195057 829.50091415 911.25355413 C825.02672154 911.23905423 820.55260725 911.25360231 816.0784173 911.26443911 C808.23797823 911.27941783 800.39771839 911.27581143 792.5572834 911.26002121 C780.89836121 911.23660536 769.23957411 911.241801 757.58063982 911.25273011 C736.75847516 911.27132355 715.936396 911.26159848 695.11423831 911.24025247 C676.89255615 911.22170408 658.67090273 911.21327306 640.44921112 911.21482086 C639.24106903 911.21491254 638.03292693 911.21500421 636.78817447 911.21509867 C631.88407501 911.21549182 626.97997557 911.21594144 622.07587613 911.21647006 C576.06075135 911.22134245 530.04567756 911.19867029 484.03056864 911.16251383 C443.13850463 911.13051996 402.24648417 911.11847018 361.35440826 911.12459564 C358.72878617 911.12498249 356.10316408 911.12536894 353.47754198 911.12575501 C351.53046632 911.12604203 351.53046632 911.12604203 349.5440558 911.12633485 C343.00999696 911.12728917 336.47593812 911.12820354 329.94187927 911.1290741 C328.65284171 911.12924789 327.36380416 911.12942168 326.03570485 911.12960074 C291.87828114 911.13395483 257.72086213 911.12394394 223.56344175 911.10923624 C222.34852831 911.1087161 221.13361486 911.10819596 219.88188585 911.10766005 C218.66917568 911.10714071 217.45646551 911.10662137 216.20700654 911.10608628 C214.9965004 911.10556854 213.78599427 911.1050508 212.53880612 911.10451737 C210.10093417 911.10346928 207.66306222 911.10240907 205.22519027 911.10133665 C188.22103919 911.09395246 171.21689477 911.0918685 154.21274228 911.09333066 C132.30085815 911.09517542 110.38901506 911.08712612 88.47714436 911.0616892 C76.885902 911.04851361 65.29472518 911.0435195 53.70347694 911.05032774 C45.96465907 911.05403443 38.22590111 911.04685154 30.48709926 911.03073535 C26.07538764 911.02184614 21.66381101 911.01768463 17.25209647 911.02666253 C13.23735736 911.03472814 9.22288286 911.02896428 5.20817263 911.01224564 C3.76612572 911.00864308 2.32405529 911.0100341 0.88202112 911.01708479 C-8.29079758 911.05847213 -16.50380239 910.58623426 -24.6490097 906.06111908 C-31.98511344 897.88660349 -32.55811291 889.36819914 -32.46012878 878.78710938 C-32.46474345 877.28963396 -32.47154947 875.79216399 -32.48033488 874.29470724 C-32.49811838 870.18327715 -32.4848412 866.07244859 -32.46644475 861.96104293 C-32.45194485 857.48685032 -32.46649293 853.01273604 -32.47732973 848.53854609 C-32.49230846 840.69810701 -32.48870205 832.85784717 -32.47291183 825.01741219 C-32.44949598 813.35849 -32.45469163 801.69970289 -32.46562073 790.04076861 C-32.48421418 769.21860394 -32.47448911 748.39652478 -32.4531431 727.57436709 C-32.43459471 709.35268494 -32.42616368 691.13103151 -32.42771149 672.9093399 C-32.42780316 671.70119781 -32.42789484 670.49305571 -32.42798929 669.24830325 C-32.42838244 664.3442038 -32.42883206 659.44010435 -32.42936068 654.53600491 C-32.43423308 608.52088014 -32.41156092 562.50580635 -32.37540445 516.49069742 C-32.34341058 475.59863341 -32.3313608 434.70661295 -32.33748627 393.81453705 C-32.33787311 391.18891495 -32.33825957 388.56329286 -32.33864564 385.93767077 C-32.33883698 384.63962033 -32.33902833 383.34156988 -32.33922547 382.00418458 C-32.3401798 375.47012574 -32.34109416 368.9360669 -32.34196472 362.40200806 C-32.34213852 361.1129705 -32.34231231 359.82393294 -32.34249137 358.49583364 C-32.34684546 324.33840992 -32.33683456 290.18099092 -32.32212687 256.02357054 C-32.32160672 254.80865709 -32.32108658 253.59374364 -32.32055068 252.34201463 C-32.32003133 251.12930446 -32.31951199 249.91659429 -32.31897691 248.66713533 C-32.3182003 246.85137612 -32.3182003 246.85137612 -32.317408 244.99893491 C-32.31635991 242.56106295 -32.3152997 240.123191 -32.31422728 237.68531905 C-32.30684309 220.68116797 -32.30475912 203.67702355 -32.30622128 186.67287107 C-32.30806605 164.76098693 -32.30001674 142.84914385 -32.27457982 120.93727314 C-32.26140423 109.34603079 -32.25641013 97.75485397 -32.26321836 86.16360572 C-32.26692505 78.42478786 -32.25974216 70.6860299 -32.24362598 62.94722804 C-32.23473676 58.53551642 -32.23057525 54.1239398 -32.23955315 49.71222526 C-32.24761877 45.69748615 -32.2418549 41.68301164 -32.22513627 37.66830141 C-32.22153371 36.22625451 -32.22292472 34.78418407 -32.22997542 33.34214991 C-32.27136276 24.1693312 -31.79912488 15.9563264 -27.2740097 7.81111908 C-19.09949411 0.47501534 -10.58108977 -0.09798413 0 0 Z " fill="#000000" transform="translate(88.83650970458984,56.376380920410156)"/>
<path d="M0 0 C1.49747542 -0.00461467 2.99494538 -0.01142069 4.49240214 -0.02020609 C8.60383222 -0.0379896 12.71466078 -0.02471241 16.82606644 -0.00631597 C21.30025905 0.00818393 25.77437334 -0.00636415 30.24856329 -0.01720095 C38.08900236 -0.03217967 45.92926221 -0.02857327 53.76969719 -0.01278305 C65.42861938 0.0106328 77.08740648 0.00543716 88.74634077 -0.00549195 C109.56850543 -0.02408539 130.39058459 -0.01436033 151.21274228 0.00698569 C169.43442444 0.02553408 187.65607786 0.0339651 205.87776947 0.0324173 C207.08591157 0.03232562 208.29405366 0.03223395 209.53880612 0.03213949 C214.44290558 0.03174634 219.34700502 0.03129672 224.25110446 0.0307681 C270.26622924 0.02589571 316.28130303 0.04856787 362.29641195 0.08472433 C403.18847597 0.1167182 444.08049642 0.12876798 484.97257233 0.12264252 C487.59819442 0.12225567 490.22381651 0.12186922 492.84943861 0.12148315 C494.79651427 0.12119613 494.79651427 0.12119613 496.7829248 0.12090331 C503.31698363 0.11994899 509.85104247 0.11903462 516.38510132 0.11816406 C517.67413888 0.11799027 518.96317643 0.11781647 520.29127574 0.11763741 C554.44869945 0.11328332 588.60611846 0.12329422 622.76353884 0.13800192 C624.58590901 0.13878213 624.58590901 0.13878213 626.44509474 0.13957811 C627.65780491 0.14009745 628.87051508 0.14061679 630.11997405 0.14115188 C631.33048019 0.14166962 632.54098633 0.14218736 633.78817447 0.14272078 C636.22604642 0.14376888 638.66391838 0.14482909 641.10179032 0.1459015 C658.1059414 0.1532857 675.11008582 0.15536966 692.11423831 0.1539075 C714.02612244 0.15206273 735.93796553 0.16011204 757.84983623 0.18554896 C769.44107859 0.19872455 781.03225541 0.20371865 792.62350365 0.19691042 C800.36232152 0.19320373 808.10107948 0.20038662 815.83988133 0.21650281 C820.25159296 0.22539202 824.66316958 0.22955353 829.07488412 0.22057563 C833.08962323 0.21251001 837.10409773 0.21827388 841.11880796 0.23499252 C842.56085487 0.23859508 844.0029253 0.23720406 845.44495947 0.23015337 C854.61777817 0.18876602 862.83078298 0.6610039 870.9759903 5.18611908 C878.31209403 13.36063467 878.8850935 21.87903902 878.78710938 32.46012878 C878.79172405 33.9576042 878.79853006 35.45507417 878.80731547 36.95253092 C878.82509897 41.06396101 878.81182179 45.17478957 878.79342534 49.28619523 C878.77892545 53.76038784 878.79347352 58.23450212 878.80431032 62.70869207 C878.81928905 70.54913115 878.81568264 78.38939099 878.79989243 86.22982597 C878.77647657 97.88874816 878.78167222 109.54753526 878.79260132 121.20646955 C878.81119477 142.02863422 878.8014697 162.85071338 878.78012369 183.67287107 C878.7615753 201.89455322 878.75314427 220.11620665 878.75469208 238.33789825 C878.75482959 240.1501114 878.75482959 240.1501114 878.75496988 241.99893491 C878.75536303 246.90303436 878.75581265 251.80713381 878.75634127 256.71123325 C878.76121367 302.72635802 878.73854151 348.74143181 878.70238505 394.75654074 C878.67039117 435.64860475 878.65834139 476.54062521 878.66446686 517.43270111 C878.6648537 520.0583232 878.66524016 522.6839453 878.66562623 525.30956739 C878.66581757 526.60761783 878.66600892 527.90566828 878.66620606 529.24305358 C878.66716039 535.77711242 878.66807476 542.31117126 878.66894531 548.8452301 C878.669206 550.77878644 878.669206 550.77878644 878.66947196 552.75140452 C878.67382605 586.90882823 878.66381515 621.06624724 878.64910746 655.22366762 C878.64858731 656.43858107 878.64806717 657.65349452 878.64753127 658.90522352 C878.64675225 660.72428878 878.64675225 660.72428878 878.6459575 662.58010283 C878.64543976 663.79060897 878.64492202 665.00111511 878.64438859 666.24830325 C878.6433405 668.68617521 878.64228029 671.12404716 878.64120787 673.5619191 C878.63382368 690.56607018 878.63173972 707.57021461 878.63320187 724.57436709 C878.63504664 746.48625123 878.62699733 768.39809431 878.60156041 790.30996501 C878.58838482 801.90120737 878.58339072 813.49238419 878.59019895 825.08363244 C878.59390564 832.8224503 878.58672276 840.56120826 878.57060657 848.30001012 C878.56171735 852.71172174 878.55755585 857.12329836 878.56653374 861.5350129 C878.57459936 865.54975201 878.5688355 869.56422651 878.55211686 873.57893675 C878.5485143 875.02098365 878.54990531 876.46305409 878.55695601 877.90508825 C878.59834335 887.07790696 878.12610547 895.29091176 873.6009903 903.43611908 C865.4264747 910.77222282 856.90807036 911.34522229 846.32698059 911.24723816 C844.82950518 911.25185283 843.33203521 911.25865884 841.83457845 911.26744425 C837.72314837 911.28522776 833.61231981 911.27195057 829.50091415 911.25355413 C825.02672154 911.23905423 820.55260725 911.25360231 816.0784173 911.26443911 C808.23797823 911.27941783 800.39771839 911.27581143 792.5572834 911.26002121 C780.89836121 911.23660536 769.23957411 911.241801 757.58063982 911.25273011 C736.75847516 911.27132355 715.936396 911.26159848 695.11423831 911.24025247 C676.89255615 911.22170408 658.67090273 911.21327306 640.44921112 911.21482086 C639.24106903 911.21491254 638.03292693 911.21500421 636.78817447 911.21509867 C631.88407501 911.21549182 626.97997557 911.21594144 622.07587613 911.21647006 C576.06075135 911.22134245 530.04567756 911.19867029 484.03056864 911.16251383 C443.13850463 911.13051996 402.24648417 911.11847018 361.35440826 911.12459564 C358.72878617 911.12498249 356.10316408 911.12536894 353.47754198 911.12575501 C351.53046632 911.12604203 351.53046632 911.12604203 349.5440558 911.12633485 C343.00999696 911.12728917 336.47593812 911.12820354 329.94187927 911.1290741 C328.65284171 911.12924789 327.36380416 911.12942168 326.03570485 911.12960074 C291.87828114 911.13395483 257.72086213 911.12394394 223.56344175 911.10923624 C222.34852831 911.1087161 221.13361486 911.10819596 219.88188585 911.10766005 C218.66917568 911.10714071 217.45646551 911.10662137 216.20700654 911.10608628 C214.9965004 911.10556854 213.78599427 911.1050508 212.53880612 911.10451737 C210.10093417 911.10346928 207.66306222 911.10240907 205.22519027 911.10133665 C188.22103919 911.09395246 171.21689477 911.0918685 154.21274228 911.09333066 C132.30085815 911.09517542 110.38901506 911.08712612 88.47714436 911.0616892 C76.885902 911.04851361 65.29472518 911.0435195 53.70347694 911.05032774 C45.96465907 911.05403443 38.22590111 911.04685154 30.48709926 911.03073535 C26.07538764 911.02184614 21.66381101 911.01768463 17.25209647 911.02666253 C13.23735736 911.03472814 9.22288286 911.02896428 5.20817263 911.01224564 C3.76612572 911.00864308 2.32405529 911.0100341 0.88202112 911.01708479 C-8.29079758 911.05847213 -16.50380239 910.58623426 -24.6490097 906.06111908 C-31.98511344 897.88660349 -32.55811291 889.36819914 -32.46012878 878.78710938 C-32.46474345 877.28963396 -32.47154947 875.79216399 -32.48033488 874.29470724 C-32.49811838 870.18327715 -32.4848412 866.07244859 -32.46644475 861.96104293 C-32.45194485 857.48685032 -32.46649293 853.01273604 -32.47732973 848.53854609 C-32.49230846 840.69810701 -32.48870205 832.85784717 -32.47291183 825.01741219 C-32.44949598 813.35849 -32.45469163 801.69970289 -32.46562073 790.04076861 C-32.48421418 769.21860394 -32.47448911 748.39652478 -32.4531431 727.57436709 C-32.43459471 709.35268494 -32.42616368 691.13103151 -32.42771149 672.9093399 C-32.42780316 671.70119781 -32.42789484 670.49305571 -32.42798929 669.24830325 C-32.42838244 664.3442038 -32.42883206 659.44010435 -32.42936068 654.53600491 C-32.43423308 608.52088014 -32.41156092 562.50580635 -32.37540445 516.49069742 C-32.34341058 475.59863341 -32.3313608 434.70661295 -32.33748627 393.81453705 C-32.33787311 391.18891495 -32.33825957 388.56329286 -32.33864564 385.93767077 C-32.33883698 384.63962033 -32.33902833 383.34156988 -32.33922547 382.00418458 C-32.3401798 375.47012574 -32.34109416 368.9360669 -32.34196472 362.40200806 C-32.34213852 361.1129705 -32.34231231 359.82393294 -32.34249137 358.49583364 C-32.34684546 324.33840992 -32.33683456 290.18099092 -32.32212687 256.02357054 C-32.32160672 254.80865709 -32.32108658 253.59374364 -32.32055068 252.34201463 C-32.32003133 251.12930446 -32.31951199 249.91659429 -32.31897691 248.66713533 C-32.3182003 246.85137612 -32.3182003 246.85137612 -32.317408 244.99893491 C-32.31635991 242.56106295 -32.3152997 240.123191 -32.31422728 237.68531905 C-32.30684309 220.68116797 -32.30475912 203.67702355 -32.30622128 186.67287107 C-32.30806605 164.76098693 -32.30001674 142.84914385 -32.27457982 120.93727314 C-32.26140423 109.34603079 -32.25641013 97.75485397 -32.26321836 86.16360572 C-32.26692505 78.42478786 -32.25974216 70.6860299 -32.24362598 62.94722804 C-32.23473676 58.53551642 -32.23057525 54.1239398 -32.23955315 49.71222526 C-32.24761877 45.69748615 -32.2418549 41.68301164 -32.22513627 37.66830141 C-32.22153371 36.22625451 -32.22292472 34.78418407 -32.22997542 33.34214991 C-32.27136276 24.1693312 -31.79912488 15.9563264 -27.2740097 7.81111908 C-19.09949411 0.47501534 -10.58108977 -0.09798413 0 0 Z M9.1634903 41.62361908 C9.1634903 314.86361908 9.1634903 588.10361908 9.1634903 869.62361908 C282.4034903 869.62361908 555.6434903 869.62361908 837.1634903 869.62361908 C837.1634903 596.38361908 837.1634903 323.14361908 837.1634903 41.62361908 C563.9234903 41.62361908 290.6834903 41.62361908 9.1634903 41.62361908 Z " fill="#A50B15" transform="translate(88.83650970458984,56.376380920410156)"/>
<path d="M0 0 C4.00079403 2.66719602 4.13240319 5.55237657 5.0625 10 C5.30323242 11.07701172 5.30323242 11.07701172 5.54882812 12.17578125 C6.40337773 16.04013005 7.1829467 19.9173467 7.9453125 23.80078125 C9.10245176 29.62746309 10.45733239 35.40422831 11.8125 41.1875 C13.8227054 49.81868847 15.76891469 58.4593835 17.625 67.125 C18.9935053 73.51135806 20.42737925 79.86406844 22.0625 86.1875 C23.79291615 92.93542803 25.16984147 99.71922687 26.49584961 106.55688477 C27.79557037 113.17951503 29.35717943 119.69966709 31.0703125 126.2265625 C31.97756037 129.90892152 32.74439455 133.5928305 33.47314453 137.31347656 C34.4059854 142.07018691 35.3915272 146.81604088 36.375 151.5625 C36.59051514 152.60301514 36.80603027 153.64353027 37.02807617 154.71557617 C38.51034884 161.81051767 40.09073463 168.87429216 41.83154297 175.91040039 C42.51207309 178.69731641 43 181.11652295 43 184 C48.8608437 181.22277052 54.37078749 177.88175896 59.9375 174.5625 C61.86300353 173.41750158 63.78877874 172.27295991 65.71484375 171.12890625 C66.63096436 170.58468018 67.54708496 170.0404541 68.4909668 169.47973633 C70.53175343 168.27615476 72.57957277 167.0901894 74.640625 165.921875 C77.92531193 164.04272853 81.16588913 162.10385435 84.40332031 160.14501953 C94.217819 154.20738707 104.1217972 148.4358994 114.06591797 142.71850586 C122.53739771 137.84774675 130.98439331 132.93655605 139.42138672 128.00634766 C146.51409683 123.8629173 153.62087631 119.74446619 160.73486328 115.63769531 C164.78444701 113.29612933 168.81214579 110.92517759 172.8125 108.5 C182.73118428 102.55222745 182.73118428 102.55222745 189 103 C189.33 103.66 189.66 104.32 190 105 C188.80988975 107.59743858 187.55790449 110.06134577 186.1875 112.5625 C185.77951172 113.31901855 185.37152344 114.07553711 184.95117188 114.85498047 C180.50827939 123.02564233 175.78099327 131.02407089 171 139 C170.21591615 140.31496724 169.43205709 141.63006854 168.6484375 142.9453125 C162.74695803 152.83312181 156.78101903 162.68268757 150.5625 172.375 C147.89952641 176.53739566 145.3382712 180.75348428 142.8125 185 C138.7840702 191.76720134 134.59944931 198.4285152 130.38110352 205.07861328 C126.83548204 210.66967649 123.33253511 216.2826883 119.8828125 221.93359375 C118.53789332 224.12397043 117.18044422 226.30189751 115.8046875 228.47265625 C115.44020508 229.05225098 115.07572266 229.6318457 114.70019531 230.22900391 C113.69207071 231.83092396 112.67826632 233.42926562 111.6640625 235.02734375 C110.01726941 237.96915019 108.95206516 240.77355695 108 244 C110.43244716 245.21622358 112.56107351 245.46949922 115.25390625 245.8828125 C122.19648426 247.00181584 129.05843797 248.4212418 135.9375 249.875 C150.40014865 252.89690981 164.89182058 255.69098496 179.421875 258.3671875 C192.83568692 260.84427828 206.22296151 263.39600852 219.5625 266.25 C220.71500244 266.4960498 221.86750488 266.74209961 223.05493164 266.99560547 C228.43079396 268.16180421 233.73644063 269.39903216 239 271 C239 272.32 239 273.64 239 275 C225.51706037 281.43222808 211.51814357 286.73364768 197.51904297 291.92163086 C192.64430097 293.73587728 187.84487764 295.69362897 183.0546875 297.71875 C173.87528788 301.56893296 164.59586437 305.17316397 155.296875 308.72265625 C151.76565269 310.0907957 148.25866387 311.51256794 144.75 312.9375 C139.36344595 315.11925369 133.9308566 317.10439202 128.4375 319 C120.7871952 321.64114539 113.38886754 324.69784367 106 328 C111.02231172 338.87020893 117.24557359 349.02615485 123.38232422 359.29052734 C125.70741591 363.18486293 128.01281291 367.09062237 130.3125 371 C130.71968262 371.6914209 131.12686523 372.3828418 131.54638672 373.09521484 C134.67735744 378.42308973 137.73305301 383.79177076 140.7734375 389.171875 C142.51042059 392.19970388 144.32791812 395.17195631 146.1640625 398.140625 C146.71465332 399.03676514 147.26524414 399.93290527 147.83251953 400.85620117 C148.92568882 402.63040051 150.02793831 404.3990441 151.14013672 406.16137695 C151.6404541 406.97566162 152.14077148 407.78994629 152.65625 408.62890625 C153.10806641 409.35150635 153.55988281 410.07410645 154.02539062 410.81860352 C155.1630999 413.3650545 155.18151132 415.24072544 155 418 C151.67587154 417.36658636 149.41141683 416.1438606 146.61328125 414.26171875 C145.76588379 413.69485352 144.91848633 413.12798828 144.04541016 412.54394531 C143.1435498 411.93131836 142.24168945 411.31869141 141.3125 410.6875 C140.37712402 410.05811523 139.44174805 409.42873047 138.47802734 408.78027344 C131.9440988 404.3665675 125.48048797 399.85907376 119.06298828 395.27807617 C113.73484459 391.48294 108.31775348 387.83922265 102.81884766 384.29589844 C96.74629413 380.32910864 93.25203364 376.16334524 89.625 369.9375 C89.23143311 369.27137695 88.83786621 368.60525391 88.43237305 367.91894531 C84.66226228 361.50258832 81.11789257 354.97254426 77.6171875 348.40625 C74.30794889 342.25793783 70.80180354 336.25678689 67.15893555 330.30175781 C60.07687759 318.66215605 60.07687759 318.66215605 61 314 C62.80859375 312.18359375 62.80859375 312.18359375 65.4375 310.4375 C66.44039062 309.75300781 67.44328125 309.06851562 68.4765625 308.36328125 C69.03762695 307.98896973 69.59869141 307.6146582 70.17675781 307.22900391 C72.86477769 305.41707407 75.50321014 303.53705625 78.14697266 301.66137695 C80.31843644 300.12078827 82.49465186 298.58712325 84.671875 297.0546875 C90.80278696 292.73330346 96.90223508 288.36797107 103 284 C100.39991702 281.39991702 98.53273125 281.29310382 94.9375 280.5625 C93.67679688 280.3046875 92.41609375 280.046875 91.1171875 279.78125 C86.94373195 278.97258043 82.75402172 278.270035 78.5625 277.5625 C70.552928 276.21047252 62.80704623 274.23870176 55 272 C53.30884419 267.09754834 55.03481818 263.69339775 57.125 259.25 C57.60996948 258.18048096 57.60996948 258.18048096 58.10473633 257.08935547 C60.16170957 252.61244369 62.42330818 248.30562861 64.89453125 244.04296875 C66.47890425 241.11495787 67.6340713 238.06609586 68.82421875 234.9609375 C70.63464099 230.40180109 72.63813064 225.92890158 74.62646484 221.44506836 C75.86093731 218.65099348 77.03335337 215.89993988 78 213 C67.01385576 219.43933509 67.01385576 219.43933509 56.0625 225.9375 C55.31742188 226.3809375 54.57234375 226.824375 53.8046875 227.28125 C51.37160758 228.77227391 48.97029141 230.30040663 46.5703125 231.84375 C45.76843506 232.35172119 44.96655762 232.85969238 44.14038086 233.38305664 C42.52931371 234.40402454 40.92563153 235.4367586 39.33032227 236.48217773 C33.82423833 239.94813275 33.82423833 239.94813275 30.14453125 240.1796875 C27.03022748 238.46653679 26.37712615 236.42296399 25 233.1875 C22.16468969 226.5744609 18.32365673 223.31239162 12 220 C3.71174699 217.59675832 -4.37656791 217.10794921 -12.1875 221.125 C-17.88211854 224.92141236 -20.89366254 230.01957461 -24 236 C-24.34160156 236.65226563 -24.68320312 237.30453125 -25.03515625 237.9765625 C-25.71269874 239.30643659 -26.36107071 240.65114927 -27 242 C-33.5572055 240.12651271 -39.41192291 237.42653071 -45.44726562 234.30859375 C-52.53154474 230.66109825 -59.76956484 227.34512531 -67 224 C-65.51264325 228.53689857 -64.01907685 233.07169031 -62.52001953 237.60473633 C-62.01217274 239.14325125 -61.50595085 240.68230362 -61.00146484 242.22192383 C-60.27099664 244.45021346 -59.53567957 246.67680481 -58.796875 248.90234375 C-58.55859985 249.62118744 -58.32032471 250.34003113 -58.0748291 251.08065796 C-56.77717854 254.92544723 -55.3425273 258.59224003 -53.578125 262.25390625 C-52.24966296 265.04686539 -51.98802391 265.85329287 -52.25 269.0625 C-52.4975 269.701875 -52.745 270.34125 -53 271 C-64.95672265 274.4298932 -77.05184923 276.95629284 -89.23632812 279.43164062 C-93.9979669 280.41088931 -98.7432057 281.46312452 -103.48828125 282.51953125 C-106 283 -106 283 -109 283 C-109 283.66 -109 284.32 -109 285 C-108.49339844 285.23976563 -107.98679687 285.47953125 -107.46484375 285.7265625 C-104.08360463 287.47344674 -100.8325375 289.43085815 -97.5625 291.375 C-89.8945348 295.91710603 -82.16691709 300.34745537 -74.39672852 304.71240234 C-68.75885177 307.90550709 -63.34142322 311.33260978 -58 315 C-58.5477038 320.01418968 -60.24356497 323.96476552 -62.5625 328.375 C-63.29325784 329.79802866 -64.02371827 331.22121009 -64.75390625 332.64453125 C-65.12789551 333.36721191 -65.50188477 334.08989258 -65.88720703 334.83447266 C-67.29167789 337.56761361 -68.6545113 340.32027277 -70.01660156 343.07470703 C-73.59559934 350.30911615 -77.34735624 357.42846084 -81.23828125 364.5 C-83.13879592 368.27574534 -84.58217088 372.02135336 -86 376 C-73.43104288 371.70622473 -60.92059635 367.32074311 -48.56567383 362.43945312 C-47.74478271 362.11912109 -46.9238916 361.79878906 -46.078125 361.46875 C-45.00159668 361.04239258 -45.00159668 361.04239258 -43.90332031 360.60742188 C-42 360 -42 360 -39 360 C-40.4046192 364.21385759 -43.46917252 365.85981002 -46.9375 368.375 C-47.64970703 368.89956787 -48.36191406 369.42413574 -49.09570312 369.96459961 C-51.3913565 371.65112564 -53.69511023 373.32612499 -56 375 C-57.50135672 376.09758152 -59.0026593 377.1952371 -60.50390625 378.29296875 C-69.58075994 384.90688063 -78.76849444 391.34309417 -88.04980469 397.66601562 C-89.98966101 398.99292786 -91.92170396 400.33047155 -93.8515625 401.671875 C-104.42170584 409.00940814 -115.18564438 416.02878034 -126 423 C-128.93805406 424.89497637 -131.87567273 426.79062286 -134.8125 428.6875 C-135.83935913 429.35060181 -135.83935913 429.35060181 -136.88696289 430.02709961 C-143.97281944 434.61266227 -150.99024672 439.2992337 -158 444 C-161 446 -161 446 -163.1875 445.625 C-163.785625 445.41875 -164.38375 445.2125 -165 445 C-164.50655081 439.50399698 -162.47266098 435.94192215 -159.625 431.375 C-158.70965768 429.86484319 -157.79700341 428.35305457 -156.88671875 426.83984375 C-156.41153809 426.05077637 -155.93635742 425.26170898 -155.44677734 424.44873047 C-153.01405294 420.33124384 -150.72632814 416.13617643 -148.4375 411.9375 C-147.51577998 410.25121736 -146.5939064 408.56501865 -145.671875 406.87890625 C-145.22521484 406.06180176 -144.77855469 405.24469727 -144.31835938 404.40283203 C-139.53000386 395.67561073 -134.65564541 387.00733911 -129.4831543 378.50146484 C-128.01521333 376.02565857 -126.62938253 373.52071758 -125.26171875 370.98828125 C-121.31668887 363.72386766 -117.26066346 356.52279633 -113.2109375 349.31640625 C-109.42513373 342.57033741 -105.68723988 335.80045891 -102 329 C-104.36650491 326.63349509 -106.16652666 326.07592615 -109.3125 324.9375 C-115.53551428 322.60647124 -121.64623406 320.0644713 -127.75 317.4375 C-128.62438721 317.06165771 -129.49877441 316.68581543 -130.3996582 316.29858398 C-135.16257132 314.24396755 -139.90903359 312.15527287 -144.64648438 310.04272461 C-150.18028231 307.59097658 -155.74159882 305.2014108 -161.296875 302.79882812 C-166.16487142 300.6878404 -171.01349135 298.5453181 -175.8359375 296.33203125 C-179.59666144 294.61415726 -183.36211234 293.03781164 -187.25 291.625 C-191.97719184 289.83978991 -196.56536076 287.86014472 -201.125 285.6875 C-207.00133089 282.8892472 -212.9377251 280.27299126 -218.9375 277.75 C-220.10853271 277.25632935 -220.10853271 277.25632935 -221.30322266 276.75268555 C-222.05780762 276.43726807 -222.81239258 276.12185059 -223.58984375 275.796875 C-224.32058105 275.49072266 -225.05131836 275.18457031 -225.80419922 274.86914062 C-227.28890118 274.28146673 -228.7923001 273.73930663 -230.30908203 273.24023438 C-232.50390625 272.515625 -232.50390625 272.515625 -236 271 C-236.71850586 268.90527344 -236.71850586 268.90527344 -237 267 C-227.40194493 261.53215934 -213.60349436 261.31256695 -202.80859375 259.81640625 C-189.32102388 257.94009718 -175.83968136 255.9162427 -162.4375 253.5 C-143.03285166 250.00850618 -123.59487057 247.18756883 -104 245 C-107.59625938 237.3824783 -111.79566808 230.29096156 -116.3125 223.1875 C-117.66178973 221.04838608 -119.01075171 218.90906539 -120.359375 216.76953125 C-120.99681641 215.76100098 -121.63425781 214.7524707 -122.29101562 213.71337891 C-124.24173314 210.61619684 -126.15804247 207.50079442 -128.0625 204.375 C-131.51067974 198.74471084 -135.06794522 193.18700164 -138.625 187.625 C-144.73362834 178.0642749 -150.66036287 168.40250494 -156.5390625 158.69921875 C-164.21096339 146.04210018 -172.00142186 133.45348242 -180 121 C-182.34689934 117.34175114 -184.67789064 113.67402234 -187 110 C-187.58523438 109.09636719 -188.17046875 108.19273437 -188.7734375 107.26171875 C-189.32257813 106.39160156 -189.87171875 105.52148438 -190.4375 104.625 C-190.93121094 103.85414063 -191.42492187 103.08328125 -191.93359375 102.2890625 C-193.15115296 99.67554713 -193.20643667 97.84983305 -193 95 C-185.77712394 95.25325652 -180.62714378 98.76156767 -174.5625 102.4375 C-173.49789551 103.07131592 -172.43329102 103.70513184 -171.33642578 104.3581543 C-160.89593018 110.59767974 -150.58585701 117.02615024 -140.37768555 123.63745117 C-135.47649061 126.81020857 -130.56476813 129.87239677 -125.4296875 132.65625 C-114.97346583 138.43911215 -104.93831032 144.91142664 -94.96557617 151.48242188 C-90.38731229 154.49082474 -85.77619661 157.3180258 -81 160 C-79.0564937 161.17764417 -77.11902974 162.36531356 -75.1875 163.5625 C-69.6339532 166.99395981 -64.07065139 170.40887211 -58.5 173.8125 C-57.35180786 174.51451538 -57.35180786 174.51451538 -56.18041992 175.23071289 C-54.74814274 176.1058265 -53.3152395 176.97991664 -51.8815918 177.8527832 C-50.28900538 178.82379184 -48.70066298 179.801756 -47.11328125 180.78125 C-45.05531492 181.96809935 -43.32548159 182.56935526 -41 183 C-40.87093262 182.02562988 -40.74186523 181.05125977 -40.60888672 180.04736328 C-39.99256875 175.74284969 -39.13770394 171.49946124 -38.2578125 167.2421875 C-38.08877411 166.41727814 -37.91973572 165.59236877 -37.74557495 164.74246216 C-37.38852378 163.00257938 -37.03044278 161.26290764 -36.67138672 159.5234375 C-36.13102517 156.90420511 -35.59455313 154.28419878 -35.05859375 151.6640625 C-33.15972269 142.41240268 -31.16969823 133.1925851 -29 124 C-28.60636138 122.28945547 -28.21435646 120.57853391 -27.82421875 118.8671875 C-27.63972168 118.05797852 -27.45522461 117.24876953 -27.26513672 116.41503906 C-23.18842186 98.48852115 -19.21258805 80.54007778 -15.27734375 62.58203125 C-14.53654088 59.20445413 -13.79564482 55.82689745 -13.05474854 52.44934082 C-12.32535204 49.1211432 -11.59795058 45.79251362 -10.87060547 42.46386719 C-6.71413694 23.48739154 -6.71413694 23.48739154 -4.57324219 15.32226562 C-3.735477 11.92838895 -3.12109446 8.50234785 -2.52734375 5.05859375 C-2 3 -2 3 0 0 Z " fill="#A30A14" transform="translate(660,120)"/>
<path d="M0 0 C1.64029175 -0.00833862 1.64029175 -0.00833862 3.3137207 -0.0168457 C41.65209386 0.32434161 73.54304881 24.84129317 99.36450195 50.81323242 C103.63528875 55.18369144 107.60609809 59.70992239 111.390625 64.51171875 C114.02728533 67.81676326 116.78971502 70.99679054 119.5625 74.1875 C124.41005755 79.79778514 129.03603005 85.54007604 133.48828125 91.46875 C134.75396319 93.15324077 136.03669497 94.82549238 137.35546875 96.46875 C139.34179849 99.00591068 140.57477119 101.11577048 141.375 104.25 C139.60858895 111.4628451 132.98733374 116.01146802 127.28125 120.26171875 C123.93335723 122.8464889 120.7568734 125.60442617 117.5625 128.375 C115.25409418 130.35898287 112.9407366 132.33708159 110.625 134.3125 C109.40490234 135.35470703 109.40490234 135.35470703 108.16015625 136.41796875 C105.17411628 138.83087245 103.2296503 140.18208523 99.4375 141 C92.65861712 139.34293974 89.3165462 131.94029241 85.9375 126.375 C80.81004467 118.10118756 75.43040676 110.12260094 69.625 102.3125 C69.22603516 101.76932129 68.82707031 101.22614258 68.41601562 100.66650391 C54.67947141 82.01378103 37.25811234 61.68402224 13.8125 55.75 C12.09041525 55.53620376 10.35790041 55.40382853 8.625 55.3125 C7.93599609 55.2623877 7.24699219 55.21227539 6.53710938 55.16064453 C-10.20604847 54.05111652 -24.57240589 57.5106578 -38.375 67.3125 C-39.33019531 67.97378906 -40.28539062 68.63507813 -41.26953125 69.31640625 C-55.47405015 79.66766478 -67.67417171 92.54487415 -78.12207031 106.63183594 C-79.41464312 108.36567678 -80.73042911 110.07932122 -82.0546875 111.7890625 C-82.49345215 112.35560547 -82.9322168 112.92214844 -83.38427734 113.50585938 C-83.81434082 114.06080078 -84.2444043 114.61574219 -84.6875 115.1875 C-86.89978997 118.04350549 -89.08938811 120.90287242 -91.15625 123.8671875 C-94.75351898 129.0244966 -94.75351898 129.0244966 -97.9375 130.5 C-103.72525228 130.05478829 -108.15045889 125.06212278 -112.3125 121.375 C-113.64005331 120.20768285 -114.96819294 119.04103221 -116.296875 117.875 C-116.97041016 117.28332031 -117.64394531 116.69164062 -118.33789062 116.08203125 C-120.31570643 114.36400525 -122.31540795 112.67692909 -124.328125 111 C-125.26990601 110.2109729 -125.26990601 110.2109729 -126.23071289 109.40600586 C-127.41769214 108.41392977 -128.60932716 107.42738717 -129.80639648 106.44750977 C-133.38057034 103.44273915 -136.22205704 100.53662858 -138.375 96.3125 C-138.55562791 90.61519461 -135.5185766 87.58302225 -131.875 83.625 C-130.76707247 82.38123774 -129.66031054 81.13643625 -128.5546875 79.890625 C-127.73629395 78.97700195 -127.73629395 78.97700195 -126.90136719 78.04492188 C-124.85201587 75.71891468 -122.92654898 73.30317872 -121 70.875 C-116.71422655 65.5863399 -112.10417432 60.63771554 -107.42236328 55.70141602 C-104.59433918 52.71601113 -101.83114551 49.70723533 -99.17578125 46.56640625 C-95.90100946 42.70795296 -92.24286101 39.56412553 -88.375 36.3125 C-87.51132813 35.549375 -86.64765625 34.78625 -85.7578125 34 C-61.62838017 13.07474703 -32.10087194 0.13769448 0 0 Z " fill="#A30A14" transform="translate(338.375,727.6875)"/>
<path d="M0 0 C0.72104416 0.14921402 1.44208832 0.29842804 2.1849823 0.4521637 C4.47140126 0.92572995 6.75720039 1.40221072 9.04296875 1.87890625 C11.31276892 2.35027978 13.58269209 2.82105046 15.85275269 3.29116821 C17.31480486 3.59474863 18.77650279 3.90004065 20.23782349 4.2071228 C24.92698545 5.18937232 29.6240487 6.07577745 34.35424805 6.83618164 C36.72001519 7.5993224 37.74507039 8.45324887 39.23046875 10.44140625 C41.12822408 19.06583653 37.65709921 29.04683166 35.79296875 37.50390625 C29.82553909 64.93412274 26.49420752 96.07408625 41.23046875 121.44140625 C50.04582048 134.88065945 62.58166706 143.01421448 78.23828125 146.33984375 C82.5497855 147.17725799 86.88175738 147.83107798 91.23046875 148.44140625 C92.25116455 148.59005127 92.25116455 148.59005127 93.29248047 148.74169922 C100.19416691 149.72717961 107.04318066 150.43861821 114.015625 150.64453125 C115.00473877 150.67530762 115.99385254 150.70608398 117.01293945 150.73779297 C118.95247899 150.78917361 120.89259147 150.82280821 122.83276367 150.83642578 C126.80943225 150.9337077 129.74235434 151.23544578 133.43359375 152.79296875 C136.41867376 157.19271711 135.06219384 161.38976256 134.23046875 166.44140625 C133.917188 168.7004127 133.60471725 170.95953159 133.29296875 173.21875 C132.76536584 176.80369367 132.22921243 180.38727715 131.69140625 183.97070312 C130.70988728 190.64722956 129.94039768 197.25285505 129.57421875 203.9934082 C129.23046875 206.44140625 129.23046875 206.44140625 127.23046875 209.69140625 C119.3204682 214.30557324 107.65420785 210.33306251 99.04296875 208.75390625 C98.28891754 208.61757782 97.53486633 208.48124939 96.75796509 208.34078979 C65.27921777 202.64454028 33.61868813 196.20894417 8.23046875 175.44140625 C7.39515625 174.78914062 6.55984375 174.136875 5.69921875 173.46484375 C-16.34770534 155.00491921 -23.53642264 124.50123517 -26.3671875 97.1640625 C-26.93457019 90.32509641 -26.96170416 83.48788726 -26.95703125 76.62890625 C-26.95675934 75.94955017 -26.95648743 75.27019409 -26.95620728 74.57025146 C-26.93401479 62.43255961 -26.19073376 50.49530906 -24.76953125 38.44140625 C-24.52577332 36.26825925 -24.28229621 34.09508074 -24.0390625 31.921875 C-20.84334861 4.03679204 -20.84334861 4.03679204 -17.58203125 -0.80859375 C-12.38896607 -4.03983431 -5.75750233 -1.20632688 0 0 Z " fill="#A30A14" transform="translate(401.76953125,505.55859375)"/>
<path d="M0 0 C3.13836249 3.91773515 3.89111074 8.28466464 4.71875 13.11328125 C4.93361305 14.30454872 4.93361305 14.30454872 5.15281677 15.5198822 C5.61507178 18.11530732 6.05926521 20.71333903 6.5 23.3125 C6.65340851 24.20215454 6.80681702 25.09180908 6.96487427 26.00842285 C14.37432498 69.21109346 19.87927718 116.90539448 -6.00390625 155.35546875 C-26.91185748 183.05543545 -59.34644096 198.91574074 -93 205 C-94.13050781 205.20625 -95.26101562 205.4125 -96.42578125 205.625 C-102.84839149 206.6724019 -109.18866418 207.21617193 -115.6875 207.3125 C-116.37118652 207.33014404 -117.05487305 207.34778809 -117.75927734 207.3659668 C-122.51805576 207.35937901 -122.51805576 207.35937901 -124.66943359 205.75512695 C-126.32449826 203.57196 -126.44277683 202.27639853 -126.58984375 199.5546875 C-126.65002686 198.65403564 -126.71020996 197.75338379 -126.7722168 196.82543945 C-126.85403198 195.36497192 -126.85403198 195.36497192 -126.9375 193.875 C-127.63153517 183.8175356 -128.99000575 173.99729106 -130.76733398 164.07568359 C-130.94079346 163.07746582 -131.11425293 162.07924805 -131.29296875 161.05078125 C-131.4530542 160.17075439 -131.61313965 159.29072754 -131.77807617 158.3840332 C-132.00785881 155.91557613 -131.84664132 154.31916915 -131 152 C-127.3378284 147.84855041 -123.94097777 147.47760751 -118.703125 147.14160156 C-117.76984375 147.09487305 -116.8365625 147.04814453 -115.875 147 C-96.49685528 145.6057502 -76.89604126 142.52560546 -62 129 C-61.37609375 128.45601562 -60.7521875 127.91203125 -60.109375 127.3515625 C-49.28641526 117.32856065 -44.53880839 103.16476288 -43.83886719 88.66113281 C-43.79267554 84.8573045 -43.75332585 81.05409625 -43.75 77.25 C-43.74932526 76.55781372 -43.74865051 75.86562744 -43.74795532 75.15246582 C-43.77259894 59.21011677 -45.94783739 44.62399206 -50.3737793 29.31347656 C-51.56437958 25.13430098 -52.5507323 21.38642081 -52 17 C-49.88807417 14.34501924 -48.02616597 13.47507217 -44.78125 12.640625 C-43.93989502 12.41528076 -43.09854004 12.18993652 -42.23168945 11.95776367 C-40.87950317 11.60742065 -40.87950317 11.60742065 -39.5 11.25 C-27.60679318 8.02428478 -12.10645152 -1.27436332 0 0 Z " fill="#A30A14" transform="translate(278,516)"/>
<path d="M0 0 C9.98221798 8.57731323 15.50094505 18.31777355 16.640625 31.65625 C16.73755237 37.73036533 16.56428318 43.2409607 14.32421875 48.953125 C14.06769531 49.64535156 13.81117188 50.33757812 13.546875 51.05078125 C8.73203866 63.09820436 0.1889087 71.15740589 -11.61328125 76.390625 C-22.32032357 79.88866439 -35.83580836 79.7275513 -45.96484375 74.69140625 C-57.0376827 67.59138704 -65.18082484 57.72635854 -68.67578125 44.953125 C-69.12727948 41.52603182 -69.20055982 38.15706914 -69.17578125 34.703125 C-69.17006104 33.77725586 -69.16434082 32.85138672 -69.15844727 31.89746094 C-68.85439239 20.20619274 -64.57236287 11.50623535 -56.67578125 2.953125 C-54.11328125 0.640625 -54.11328125 0.640625 -51.67578125 -1.046875 C-50.72703125 -1.7275 -49.77828125 -2.408125 -48.80078125 -3.109375 C-33.53314751 -12.57530792 -14.12267519 -10.8033311 0 0 Z " fill="#A30A14" transform="translate(687.67578125,390.046875)"/>
</svg>
