<?xml version="1.0" encoding="UTF-8"?>
<svg version="1.1" xmlns="http://www.w3.org/2000/svg" width="1024" height="1024">
<path d="M0 0 C1.49747542 -0.00461467 2.99494538 -0.01142069 4.49240214 -0.02020609 C8.60383222 -0.0379896 12.71466078 -0.02471241 16.82606644 -0.00631597 C21.30025905 0.00818393 25.77437334 -0.00636415 30.24856329 -0.01720095 C38.08900236 -0.03217967 45.92926221 -0.02857327 53.76969719 -0.01278305 C65.42861938 0.0106328 77.08740648 0.00543716 88.74634077 -0.00549195 C109.56850543 -0.02408539 130.39058459 -0.01436033 151.21274228 0.00698569 C169.43442444 0.02553408 187.65607786 0.0339651 205.87776947 0.0324173 C207.08591157 0.03232562 208.29405366 0.03223395 209.53880612 0.03213949 C214.44290558 0.03174634 219.34700502 0.03129672 224.25110446 0.0307681 C270.26622924 0.02589571 316.28130303 0.04856787 362.29641195 0.08472433 C403.18847597 0.1167182 444.08049642 0.12876798 484.97257233 0.12264252 C487.59819442 0.12225567 490.22381651 0.12186922 492.84943861 0.12148315 C494.79651427 0.12119613 494.79651427 0.12119613 496.7829248 0.12090331 C503.31698363 0.11994899 509.85104247 0.11903462 516.38510132 0.11816406 C517.67413888 0.11799027 518.96317643 0.11781647 520.29127574 0.11763741 C554.44869945 0.11328332 588.60611846 0.12329422 622.76353884 0.13800192 C624.58590901 0.13878213 624.58590901 0.13878213 626.44509474 0.13957811 C627.65780491 0.14009745 628.87051508 0.14061679 630.11997405 0.14115188 C631.33048019 0.14166962 632.54098633 0.14218736 633.78817447 0.14272078 C636.22604642 0.14376888 638.66391838 0.14482909 641.10179032 0.1459015 C658.1059414 0.1532857 675.11008582 0.15536966 692.11423831 0.1539075 C714.02612244 0.15206273 735.93796553 0.16011204 757.84983623 0.18554896 C769.44107859 0.19872455 781.03225541 0.20371865 792.62350365 0.19691042 C800.36232152 0.19320373 808.10107948 0.20038662 815.83988133 0.21650281 C820.25159296 0.22539202 824.66316958 0.22955353 829.07488412 0.22057563 C833.08962323 0.21251001 837.10409773 0.21827388 841.11880796 0.23499252 C842.56085487 0.23859508 844.0029253 0.23720406 845.44495947 0.23015337 C854.61777817 0.18876602 862.83078298 0.6610039 870.9759903 5.18611908 C878.31209403 13.36063467 878.8850935 21.87903902 878.78710938 32.46012878 C878.79172405 33.9576042 878.79853006 35.45507417 878.80731547 36.95253092 C878.82509897 41.06396101 878.81182179 45.17478957 878.79342534 49.28619523 C878.77892545 53.76038784 878.79347352 58.23450212 878.80431032 62.70869207 C878.81928905 70.54913115 878.81568264 78.38939099 878.79989243 86.22982597 C878.77647657 97.88874816 878.78167222 109.54753526 878.79260132 121.20646955 C878.81119477 142.02863422 878.8014697 162.85071338 878.78012369 183.67287107 C878.7615753 201.89455322 878.75314427 220.11620665 878.75469208 238.33789825 C878.75482959 240.1501114 878.75482959 240.1501114 878.75496988 241.99893491 C878.75536303 246.90303436 878.75581265 251.80713381 878.75634127 256.71123325 C878.76121367 302.72635802 878.73854151 348.74143181 878.70238505 394.75654074 C878.67039117 435.64860475 878.65834139 476.54062521 878.66446686 517.43270111 C878.6648537 520.0583232 878.66524016 522.6839453 878.66562623 525.30956739 C878.66581757 526.60761783 878.66600892 527.90566828 878.66620606 529.24305358 C878.66716039 535.77711242 878.66807476 542.31117126 878.66894531 548.8452301 C878.669206 550.77878644 878.669206 550.77878644 878.66947196 552.75140452 C878.67382605 586.90882823 878.66381515 621.06624724 878.64910746 655.22366762 C878.64858731 656.43858107 878.64806717 657.65349452 878.64753127 658.90522352 C878.64675225 660.72428878 878.64675225 660.72428878 878.6459575 662.58010283 C878.64543976 663.79060897 878.64492202 665.00111511 878.64438859 666.24830325 C878.6433405 668.68617521 878.64228029 671.12404716 878.64120787 673.5619191 C878.63382368 690.56607018 878.63173972 707.57021461 878.63320187 724.57436709 C878.63504664 746.48625123 878.62699733 768.39809431 878.60156041 790.30996501 C878.58838482 801.90120737 878.58339072 813.49238419 878.59019895 825.08363244 C878.59390564 832.8224503 878.58672276 840.56120826 878.57060657 848.30001012 C878.56171735 852.71172174 878.55755585 857.12329836 878.56653374 861.5350129 C878.57459936 865.54975201 878.5688355 869.56422651 878.55211686 873.57893675 C878.5485143 875.02098365 878.54990531 876.46305409 878.55695601 877.90508825 C878.59834335 887.07790696 878.12610547 895.29091176 873.6009903 903.43611908 C865.4264747 910.77222282 856.90807036 911.34522229 846.32698059 911.24723816 C844.82950518 911.25185283 843.33203521 911.25865884 841.83457845 911.26744425 C837.72314837 911.28522776 833.61231981 911.27195057 829.50091415 911.25355413 C825.02672154 911.23905423 820.55260725 911.25360231 816.0784173 911.26443911 C808.23797823 911.27941783 800.39771839 911.27581143 792.5572834 911.26002121 C780.89836121 911.23660536 769.23957411 911.241801 757.58063982 911.25273011 C736.75847516 911.27132355 715.936396 911.26159848 695.11423831 911.24025247 C676.89255615 911.22170408 658.67090273 911.21327306 640.44921112 911.21482086 C639.24106903 911.21491254 638.03292693 911.21500421 636.78817447 911.21509867 C631.88407501 911.21549182 626.97997557 911.21594144 622.07587613 911.21647006 C576.06075135 911.22134245 530.04567756 911.19867029 484.03056864 911.16251383 C443.13850463 911.13051996 402.24648417 911.11847018 361.35440826 911.12459564 C358.72878617 911.12498249 356.10316408 911.12536894 353.47754198 911.12575501 C351.53046632 911.12604203 351.53046632 911.12604203 349.5440558 911.12633485 C343.00999696 911.12728917 336.47593812 911.12820354 329.94187927 911.1290741 C328.65284171 911.12924789 327.36380416 911.12942168 326.03570485 911.12960074 C291.87828114 911.13395483 257.72086213 911.12394394 223.56344175 911.10923624 C222.34852831 911.1087161 221.13361486 911.10819596 219.88188585 911.10766005 C218.66917568 911.10714071 217.45646551 911.10662137 216.20700654 911.10608628 C214.9965004 911.10556854 213.78599427 911.1050508 212.53880612 911.10451737 C210.10093417 911.10346928 207.66306222 911.10240907 205.22519027 911.10133665 C188.22103919 911.09395246 171.21689477 911.0918685 154.21274228 911.09333066 C132.30085815 911.09517542 110.38901506 911.08712612 88.47714436 911.0616892 C76.885902 911.04851361 65.29472518 911.0435195 53.70347694 911.05032774 C45.96465907 911.05403443 38.22590111 911.04685154 30.48709926 911.03073535 C26.07538764 911.02184614 21.66381101 911.01768463 17.25209647 911.02666253 C13.23735736 911.03472814 9.22288286 911.02896428 5.20817263 911.01224564 C3.76612572 911.00864308 2.32405529 911.0100341 0.88202112 911.01708479 C-8.29079758 911.05847213 -16.50380239 910.58623426 -24.6490097 906.06111908 C-31.98511344 897.88660349 -32.55811291 889.36819914 -32.46012878 878.78710938 C-32.46474345 877.28963396 -32.47154947 875.79216399 -32.48033488 874.29470724 C-32.49811838 870.18327715 -32.4848412 866.07244859 -32.46644475 861.96104293 C-32.45194485 857.48685032 -32.46649293 853.01273604 -32.47732973 848.53854609 C-32.49230846 840.69810701 -32.48870205 832.85784717 -32.47291183 825.01741219 C-32.44949598 813.35849 -32.45469163 801.69970289 -32.46562073 790.04076861 C-32.48421418 769.21860394 -32.47448911 748.39652478 -32.4531431 727.57436709 C-32.43459471 709.35268494 -32.42616368 691.13103151 -32.42771149 672.9093399 C-32.42780316 671.70119781 -32.42789484 670.49305571 -32.42798929 669.24830325 C-32.42838244 664.3442038 -32.42883206 659.44010435 -32.42936068 654.53600491 C-32.43423308 608.52088014 -32.41156092 562.50580635 -32.37540445 516.49069742 C-32.34341058 475.59863341 -32.3313608 434.70661295 -32.33748627 393.81453705 C-32.33787311 391.18891495 -32.33825957 388.56329286 -32.33864564 385.93767077 C-32.33883698 384.63962033 -32.33902833 383.34156988 -32.33922547 382.00418458 C-32.3401798 375.47012574 -32.34109416 368.9360669 -32.34196472 362.40200806 C-32.34213852 361.1129705 -32.34231231 359.82393294 -32.34249137 358.49583364 C-32.34684546 324.33840992 -32.33683456 290.18099092 -32.32212687 256.02357054 C-32.32160672 254.80865709 -32.32108658 253.59374364 -32.32055068 252.34201463 C-32.32003133 251.12930446 -32.31951199 249.91659429 -32.31897691 248.66713533 C-32.3182003 246.85137612 -32.3182003 246.85137612 -32.317408 244.99893491 C-32.31635991 242.56106295 -32.3152997 240.123191 -32.31422728 237.68531905 C-32.30684309 220.68116797 -32.30475912 203.67702355 -32.30622128 186.67287107 C-32.30806605 164.76098693 -32.30001674 142.84914385 -32.27457982 120.93727314 C-32.26140423 109.34603079 -32.25641013 97.75485397 -32.26321836 86.16360572 C-32.26692505 78.42478786 -32.25974216 70.6860299 -32.24362598 62.94722804 C-32.23473676 58.53551642 -32.23057525 54.1239398 -32.23955315 49.71222526 C-32.24761877 45.69748615 -32.2418549 41.68301164 -32.22513627 37.66830141 C-32.22153371 36.22625451 -32.22292472 34.78418407 -32.22997542 33.34214991 C-32.27136276 24.1693312 -31.79912488 15.9563264 -27.2740097 7.81111908 C-19.09949411 0.47501534 -10.58108977 -0.09798413 0 0 Z " fill="#000000" transform="translate(88.83650970458984,56.376380920410156)"/>
<path d="M0 0 C1.49747542 -0.00461467 2.99494538 -0.01142069 4.49240214 -0.02020609 C8.60383222 -0.0379896 12.71466078 -0.02471241 16.82606644 -0.00631597 C21.30025905 0.00818393 25.77437334 -0.00636415 30.24856329 -0.01720095 C38.08900236 -0.03217967 45.92926221 -0.02857327 53.76969719 -0.01278305 C65.42861938 0.0106328 77.08740648 0.00543716 88.74634077 -0.00549195 C109.56850543 -0.02408539 130.39058459 -0.01436033 151.21274228 0.00698569 C169.43442444 0.02553408 187.65607786 0.0339651 205.87776947 0.0324173 C207.08591157 0.03232562 208.29405366 0.03223395 209.53880612 0.03213949 C214.44290558 0.03174634 219.34700502 0.03129672 224.25110446 0.0307681 C270.26622924 0.02589571 316.28130303 0.04856787 362.29641195 0.08472433 C403.18847597 0.1167182 444.08049642 0.12876798 484.97257233 0.12264252 C487.59819442 0.12225567 490.22381651 0.12186922 492.84943861 0.12148315 C494.79651427 0.12119613 494.79651427 0.12119613 496.7829248 0.12090331 C503.31698363 0.11994899 509.85104247 0.11903462 516.38510132 0.11816406 C517.67413888 0.11799027 518.96317643 0.11781647 520.29127574 0.11763741 C554.44869945 0.11328332 588.60611846 0.12329422 622.76353884 0.13800192 C624.58590901 0.13878213 624.58590901 0.13878213 626.44509474 0.13957811 C627.65780491 0.14009745 628.87051508 0.14061679 630.11997405 0.14115188 C631.33048019 0.14166962 632.54098633 0.14218736 633.78817447 0.14272078 C636.22604642 0.14376888 638.66391838 0.14482909 641.10179032 0.1459015 C658.1059414 0.1532857 675.11008582 0.15536966 692.11423831 0.1539075 C714.02612244 0.15206273 735.93796553 0.16011204 757.84983623 0.18554896 C769.44107859 0.19872455 781.03225541 0.20371865 792.62350365 0.19691042 C800.36232152 0.19320373 808.10107948 0.20038662 815.83988133 0.21650281 C820.25159296 0.22539202 824.66316958 0.22955353 829.07488412 0.22057563 C833.08962323 0.21251001 837.10409773 0.21827388 841.11880796 0.23499252 C842.56085487 0.23859508 844.0029253 0.23720406 845.44495947 0.23015337 C854.61777817 0.18876602 862.83078298 0.6610039 870.9759903 5.18611908 C878.31209403 13.36063467 878.8850935 21.87903902 878.78710938 32.46012878 C878.79172405 33.9576042 878.79853006 35.45507417 878.80731547 36.95253092 C878.82509897 41.06396101 878.81182179 45.17478957 878.79342534 49.28619523 C878.77892545 53.76038784 878.79347352 58.23450212 878.80431032 62.70869207 C878.81928905 70.54913115 878.81568264 78.38939099 878.79989243 86.22982597 C878.77647657 97.88874816 878.78167222 109.54753526 878.79260132 121.20646955 C878.81119477 142.02863422 878.8014697 162.85071338 878.78012369 183.67287107 C878.7615753 201.89455322 878.75314427 220.11620665 878.75469208 238.33789825 C878.75482959 240.1501114 878.75482959 240.1501114 878.75496988 241.99893491 C878.75536303 246.90303436 878.75581265 251.80713381 878.75634127 256.71123325 C878.76121367 302.72635802 878.73854151 348.74143181 878.70238505 394.75654074 C878.67039117 435.64860475 878.65834139 476.54062521 878.66446686 517.43270111 C878.6648537 520.0583232 878.66524016 522.6839453 878.66562623 525.30956739 C878.66581757 526.60761783 878.66600892 527.90566828 878.66620606 529.24305358 C878.66716039 535.77711242 878.66807476 542.31117126 878.66894531 548.8452301 C878.669206 550.77878644 878.669206 550.77878644 878.66947196 552.75140452 C878.67382605 586.90882823 878.66381515 621.06624724 878.64910746 655.22366762 C878.64858731 656.43858107 878.64806717 657.65349452 878.64753127 658.90522352 C878.64675225 660.72428878 878.64675225 660.72428878 878.6459575 662.58010283 C878.64543976 663.79060897 878.64492202 665.00111511 878.64438859 666.24830325 C878.6433405 668.68617521 878.64228029 671.12404716 878.64120787 673.5619191 C878.63382368 690.56607018 878.63173972 707.57021461 878.63320187 724.57436709 C878.63504664 746.48625123 878.62699733 768.39809431 878.60156041 790.30996501 C878.58838482 801.90120737 878.58339072 813.49238419 878.59019895 825.08363244 C878.59390564 832.8224503 878.58672276 840.56120826 878.57060657 848.30001012 C878.56171735 852.71172174 878.55755585 857.12329836 878.56653374 861.5350129 C878.57459936 865.54975201 878.5688355 869.56422651 878.55211686 873.57893675 C878.5485143 875.02098365 878.54990531 876.46305409 878.55695601 877.90508825 C878.59834335 887.07790696 878.12610547 895.29091176 873.6009903 903.43611908 C865.4264747 910.77222282 856.90807036 911.34522229 846.32698059 911.24723816 C844.82950518 911.25185283 843.33203521 911.25865884 841.83457845 911.26744425 C837.72314837 911.28522776 833.61231981 911.27195057 829.50091415 911.25355413 C825.02672154 911.23905423 820.55260725 911.25360231 816.0784173 911.26443911 C808.23797823 911.27941783 800.39771839 911.27581143 792.5572834 911.26002121 C780.89836121 911.23660536 769.23957411 911.241801 757.58063982 911.25273011 C736.75847516 911.27132355 715.936396 911.26159848 695.11423831 911.24025247 C676.89255615 911.22170408 658.67090273 911.21327306 640.44921112 911.21482086 C639.24106903 911.21491254 638.03292693 911.21500421 636.78817447 911.21509867 C631.88407501 911.21549182 626.97997557 911.21594144 622.07587613 911.21647006 C576.06075135 911.22134245 530.04567756 911.19867029 484.03056864 911.16251383 C443.13850463 911.13051996 402.24648417 911.11847018 361.35440826 911.12459564 C358.72878617 911.12498249 356.10316408 911.12536894 353.47754198 911.12575501 C351.53046632 911.12604203 351.53046632 911.12604203 349.5440558 911.12633485 C343.00999696 911.12728917 336.47593812 911.12820354 329.94187927 911.1290741 C328.65284171 911.12924789 327.36380416 911.12942168 326.03570485 911.12960074 C291.87828114 911.13395483 257.72086213 911.12394394 223.56344175 911.10923624 C222.34852831 911.1087161 221.13361486 911.10819596 219.88188585 911.10766005 C218.66917568 911.10714071 217.45646551 911.10662137 216.20700654 911.10608628 C214.9965004 911.10556854 213.78599427 911.1050508 212.53880612 911.10451737 C210.10093417 911.10346928 207.66306222 911.10240907 205.22519027 911.10133665 C188.22103919 911.09395246 171.21689477 911.0918685 154.21274228 911.09333066 C132.30085815 911.09517542 110.38901506 911.08712612 88.47714436 911.0616892 C76.885902 911.04851361 65.29472518 911.0435195 53.70347694 911.05032774 C45.96465907 911.05403443 38.22590111 911.04685154 30.48709926 911.03073535 C26.07538764 911.02184614 21.66381101 911.01768463 17.25209647 911.02666253 C13.23735736 911.03472814 9.22288286 911.02896428 5.20817263 911.01224564 C3.76612572 911.00864308 2.32405529 911.0100341 0.88202112 911.01708479 C-8.29079758 911.05847213 -16.50380239 910.58623426 -24.6490097 906.06111908 C-31.98511344 897.88660349 -32.55811291 889.36819914 -32.46012878 878.78710938 C-32.46474345 877.28963396 -32.47154947 875.79216399 -32.48033488 874.29470724 C-32.49811838 870.18327715 -32.4848412 866.07244859 -32.46644475 861.96104293 C-32.45194485 857.48685032 -32.46649293 853.01273604 -32.47732973 848.53854609 C-32.49230846 840.69810701 -32.48870205 832.85784717 -32.47291183 825.01741219 C-32.44949598 813.35849 -32.45469163 801.69970289 -32.46562073 790.04076861 C-32.48421418 769.21860394 -32.47448911 748.39652478 -32.4531431 727.57436709 C-32.43459471 709.35268494 -32.42616368 691.13103151 -32.42771149 672.9093399 C-32.42780316 671.70119781 -32.42789484 670.49305571 -32.42798929 669.24830325 C-32.42838244 664.3442038 -32.42883206 659.44010435 -32.42936068 654.53600491 C-32.43423308 608.52088014 -32.41156092 562.50580635 -32.37540445 516.49069742 C-32.34341058 475.59863341 -32.3313608 434.70661295 -32.33748627 393.81453705 C-32.33787311 391.18891495 -32.33825957 388.56329286 -32.33864564 385.93767077 C-32.33883698 384.63962033 -32.33902833 383.34156988 -32.33922547 382.00418458 C-32.3401798 375.47012574 -32.34109416 368.9360669 -32.34196472 362.40200806 C-32.34213852 361.1129705 -32.34231231 359.82393294 -32.34249137 358.49583364 C-32.34684546 324.33840992 -32.33683456 290.18099092 -32.32212687 256.02357054 C-32.32160672 254.80865709 -32.32108658 253.59374364 -32.32055068 252.34201463 C-32.32003133 251.12930446 -32.31951199 249.91659429 -32.31897691 248.66713533 C-32.3182003 246.85137612 -32.3182003 246.85137612 -32.317408 244.99893491 C-32.31635991 242.56106295 -32.3152997 240.123191 -32.31422728 237.68531905 C-32.30684309 220.68116797 -32.30475912 203.67702355 -32.30622128 186.67287107 C-32.30806605 164.76098693 -32.30001674 142.84914385 -32.27457982 120.93727314 C-32.26140423 109.34603079 -32.25641013 97.75485397 -32.26321836 86.16360572 C-32.26692505 78.42478786 -32.25974216 70.6860299 -32.24362598 62.94722804 C-32.23473676 58.53551642 -32.23057525 54.1239398 -32.23955315 49.71222526 C-32.24761877 45.69748615 -32.2418549 41.68301164 -32.22513627 37.66830141 C-32.22153371 36.22625451 -32.22292472 34.78418407 -32.22997542 33.34214991 C-32.27136276 24.1693312 -31.79912488 15.9563264 -27.2740097 7.81111908 C-19.09949411 0.47501534 -10.58108977 -0.09798413 0 0 Z M9.1634903 41.62361908 C9.1634903 314.86361908 9.1634903 588.10361908 9.1634903 869.62361908 C282.4034903 869.62361908 555.6434903 869.62361908 837.1634903 869.62361908 C837.1634903 596.38361908 837.1634903 323.14361908 837.1634903 41.62361908 C563.9234903 41.62361908 290.6834903 41.62361908 9.1634903 41.62361908 Z " fill="#A50B15" transform="translate(88.83650970458984,56.376380920410156)"/>
<path d="M0 0 C1.7427711 0.51881837 3.47048592 1.08892981 5.1875 1.6875 C6.321875 2.06261719 7.45625 2.43773438 8.625 2.82421875 C53.94133318 18.44065429 91.51833814 51.79835439 117.1875 91.6875 C117.81011719 92.59886719 118.43273437 93.51023437 119.07421875 94.44921875 C134.16630202 117.37816473 142.65319834 144.81270802 147.1875 171.6875 C147.3549472 172.63889359 147.52239441 173.59028717 147.69491577 174.57051086 C148.95815658 182.13494774 149.49490386 189.43931497 149.48828125 197.1015625 C149.49256638 198.23669281 149.4968515 199.37182312 149.50126648 200.54135132 C149.50696589 202.92616108 149.5075428 205.31098821 149.50317383 207.69580078 C149.50002572 211.28319038 149.52348931 214.8697438 149.54882812 218.45703125 C149.58585841 231.84081878 148.85773309 244.56582712 146.1875 257.6875 C145.90531616 259.13938721 145.90531616 259.13938721 145.61743164 260.62060547 C145.152314 262.86924155 144.6326408 265.08841179 144.0625 267.3125 C143.85713623 268.11623047 143.65177246 268.91996094 143.44018555 269.74804688 C134.37161127 303.73826339 117.95554275 336.178282 93.77734375 361.9140625 C91.68726431 364.15230745 89.67137548 366.41882737 87.6875 368.75 C79.06505501 378.61587086 69.6666146 386.88093042 59.1875 394.6875 C58.3227002 395.33549561 58.3227002 395.33549561 57.44042969 395.99658203 C38.30614468 410.2527588 17.61218317 420.54703282 -4.8125 428.6875 C-5.71585083 429.04545654 -5.71585083 429.04545654 -6.63745117 429.41064453 C-11.48405702 431.31078496 -16.28470544 432.61895235 -21.375 433.6875 C-22.15149902 433.85483643 -22.92799805 434.02217285 -23.72802734 434.19458008 C-26.08796501 434.69993706 -28.44980543 435.19520962 -30.8125 435.6875 C-31.88201904 435.91252197 -31.88201904 435.91252197 -32.97314453 436.14208984 C-75.14298828 444.9794831 -124.3148952 440.97079017 -163.8125 423.6875 C-164.53775879 423.37087402 -165.26301758 423.05424805 -166.01025391 422.72802734 C-190.2725025 411.9771214 -221.68290706 396.38188941 -236.8125 373.6875 C-237.30081151 369.97733933 -237.21883249 368.2836386 -235.08984375 365.16015625 C-234.31769531 364.36480469 -233.54554688 363.56945312 -232.75 362.75 C-231.93273437 361.89664062 -231.11546875 361.04328125 -230.2734375 360.1640625 C-229.46132813 359.34679687 -228.64921875 358.52953125 -227.8125 357.6875 C-227.12414062 356.97335937 -226.43578125 356.25921875 -225.7265625 355.5234375 C-220.31358303 349.97342058 -220.31358303 349.97342058 -216.1875 349.1875 C-211.02014601 349.95303392 -208.47006892 353.12567896 -204.8125 356.6875 C-168.49833805 391.63914038 -119.12486908 406.0009781 -69.58546448 405.09950256 C-59.14317776 404.84373505 -49.02548748 403.94049195 -38.8125 401.6875 C-37.49958984 401.41413818 -37.49958984 401.41413818 -36.16015625 401.13525391 C-25.5671988 398.91229281 -15.65421147 396.2671764 -5.8125 391.6875 C-3.92700895 390.90888427 -2.04150558 390.13029816 -0.15576172 389.35229492 C21.62319941 380.21183408 40.82118176 366.54116725 57.66088867 350.11376953 C59.1875 348.6875 59.1875 348.6875 61.81640625 346.6484375 C66.26648061 342.96814536 69.44777342 338.08897895 72.86572266 333.46972656 C74.11088354 331.79080627 75.37263757 330.12562575 76.63671875 328.4609375 C81.76906545 321.59608764 86.23249048 314.432283 90.5 307 C90.99161621 306.14535156 91.48323242 305.29070312 91.98974609 304.41015625 C100.25247619 289.75582092 106.01261171 274.31102139 109.69042969 257.89941406 C110.02813837 256.39664362 110.37549849 254.89601625 110.73144531 253.39746094 C116.09593255 230.55846185 116.42232117 206.87397452 113.1875 183.6875 C113.06777832 182.80078613 112.94805664 181.91407227 112.82470703 181.00048828 C107.36496369 142.32324912 89.82461388 108.87540476 63.1875 80.6875 C62.3934375 79.82898438 61.599375 78.97046875 60.78125 78.0859375 C43.88552556 60.42685201 22.10544564 46.1844929 -0.8125 37.6875 C-1.4725 37.6875 -2.1325 37.6875 -2.8125 37.6875 C-4.38340902 41.63680174 -5.94987167 45.58782854 -7.51220703 49.54052734 C-8.0445106 50.88541391 -8.57803404 52.22981832 -9.11279297 53.57373047 C-9.88048081 55.50363217 -10.6437893 57.43521573 -11.40625 59.3671875 C-11.86708984 60.52976074 -12.32792969 61.69233398 -12.80273438 62.89013672 C-13.92567582 65.50536 -13.92567582 65.50536 -13.8125 67.6875 C-13.26537354 67.95788086 -12.71824707 68.22826172 -12.15454102 68.50683594 C5.66864436 77.38772146 21.5217392 87.31779293 35.76464844 101.30419922 C37.08132498 102.58427631 38.43385947 103.82718907 39.7890625 105.06640625 C51.94931351 116.47387981 60.31167624 130.65080776 67.1875 145.6875 C67.59484375 146.54988281 68.0021875 147.41226563 68.421875 148.30078125 C72.83955536 157.86675834 75.83814854 167.54665673 77.875 177.875 C78.19307617 179.41704102 78.19307617 179.41704102 78.51757812 180.99023438 C82.80904597 202.14974305 82.9498213 224.5820862 78.1875 245.6875 C77.96199463 246.74493408 77.96199463 246.74493408 77.73193359 247.82373047 C71.81637641 274.76009416 58.02605627 300.60147695 39.1875 320.6875 C38.63223633 321.2851416 38.07697266 321.8827832 37.50488281 322.49853516 C12.91400807 348.7166479 -18.37197659 365.3668971 -53.8125 371.6875 C-54.70864014 371.86112061 -55.60478027 372.03474121 -56.52807617 372.21362305 C-60.37404541 372.76851982 -64.16545013 372.88601575 -68.04296875 372.92578125 C-69.21843513 372.94060799 -69.21843513 372.94060799 -70.41764832 372.95573425 C-102.21079471 373.27429261 -102.21079471 373.27429261 -116.8125 368.6875 C-117.70936523 368.4296875 -118.60623047 368.171875 -119.53027344 367.90625 C-144.37258615 360.75404801 -176.75344695 347.27607957 -191.8125 324.6875 C-192.2890625 322.40625 -192.2890625 322.40625 -191.8125 319.6875 C-190.00289997 317.32155044 -188.25755002 315.29669991 -186.1875 313.1875 C-185.66542969 312.63191406 -185.14335938 312.07632812 -184.60546875 311.50390625 C-175.72692414 302.18691499 -175.72692414 302.18691499 -170.9375 300.9375 C-166.97085564 301.88949465 -165.25776111 303.67104528 -162.32421875 306.42578125 C-140.32004629 326.23980279 -110.31037261 338.16352031 -80.6875 338 C-79.60073975 337.99436035 -78.51397949 337.9887207 -77.39428711 337.98291016 C-44.81580886 337.49784694 -15.88007596 324.23895766 8.1875 302.6875 C8.91839844 302.04167969 9.64929688 301.39585937 10.40234375 300.73046875 C19.88448056 291.83005812 27.51946031 280.32189725 33.1875 268.6875 C33.61417969 267.84316406 34.04085938 266.99882812 34.48046875 266.12890625 C48.38770313 237.3302332 50.45134679 204.02584906 40.31933594 173.75097656 C35.0738765 159.1064801 27.71123052 144.22132072 17.1875 132.6875 C16.713125 132.08550781 16.23875 131.48351562 15.75 130.86328125 C4.99379958 117.26524379 -11.98538012 107.25321921 -27.8125 100.6875 C-28.01552734 101.47447266 -28.01552734 101.47447266 -28.22265625 102.27734375 C-30.1057545 109.05424225 -32.6931148 115.43699036 -35.47485352 121.88452148 C-37.29952655 126.13375288 -37.29952655 126.13375288 -37.8125 130.6875 C-35.89253739 132.16904933 -35.89253739 132.16904933 -33.3125 133.5625 C-9.9469514 147.90182246 3.98806133 167.23578526 10.75610352 193.93017578 C12.2708499 200.65923604 12.5210275 207.1823024 12.5 214.0625 C12.51611328 215.10921875 12.53222656 216.1559375 12.54882812 217.234375 C12.56325121 240.59977098 1.11978923 261.37473819 -14.8125 277.6875 C-15.40804687 278.34492188 -16.00359375 279.00234375 -16.6171875 279.6796875 C-29.34982233 293.4258654 -50.01774836 303.82109906 -68.75 304.84863281 C-93.97824092 305.19455576 -115.21325462 302.37786088 -135.8125 286.6875 C-136.71484375 286.02621094 -137.6171875 285.36492187 -138.546875 284.68359375 C-144.64056072 279.8483866 -144.64056072 279.8483866 -145.37890625 274.86328125 C-145.13708249 269.96436335 -142.76617933 267.32240492 -139.5 263.875 C-139.00048828 263.31619141 -138.50097656 262.75738281 -137.98632812 262.18164062 C-136.61876037 260.66191963 -135.2169268 259.17322502 -133.8125 257.6875 C-133.28527344 257.07777344 -132.75804687 256.46804688 -132.21484375 255.83984375 C-129.73582105 253.80276382 -127.34654478 254.04032061 -124.25 254.14453125 C-120.49983614 254.97990429 -118.33103822 257.19173628 -115.4765625 259.66796875 C-112.19482483 262.15573763 -108.79151202 263.84610684 -105.0625 265.5625 C-104.10512939 266.00928101 -104.10512939 266.00928101 -103.12841797 266.46508789 C-90.39631082 272.2037139 -71.56503168 271.93447414 -58.55859375 267.01171875 C-53.64628979 264.64291215 -49.19218456 261.93543121 -44.8125 258.6875 C-44.03132812 258.11386719 -43.25015625 257.54023438 -42.4453125 256.94921875 C-31.59878898 248.18567812 -24.68179034 235.42272035 -22.8125 221.6875 C-21.85355327 204.19411488 -24.20426743 189.89374831 -35.6796875 175.87109375 C-39.86392644 171.58723007 -44.63275998 167.70144229 -49.8125 164.6875 C-50.8025 165.0175 -51.7925 165.3475 -52.8125 165.6875 C-53.85254769 168.2217007 -54.71228397 170.63935202 -55.5 173.25 C-55.72494141 173.96091797 -55.94988281 174.67183594 -56.18164062 175.40429688 C-56.73608017 177.16198819 -57.27570189 178.92434098 -57.8125 180.6875 C-56.2965625 181.80125 -56.2965625 181.80125 -54.75 182.9375 C-47.76351934 188.90156885 -42.51009206 198.51462145 -41.4765625 207.66015625 C-41.31736551 220.2526383 -44.34506173 231.14648059 -52.8125 240.6875 C-59.8804575 247.49096013 -68.03954996 250.86950813 -77.8125 251.1875 C-89.09193998 250.82088765 -99.26325472 245.73976993 -107.0625 237.5625 C-113.92264605 228.86788592 -116.48899137 218.22820355 -115.625 207.3203125 C-113.88888274 197.15679271 -107.80948959 188.0253011 -99.8125 181.6875 C-93.64591433 177.89267805 -88.36051154 176.537174 -81.125 176.625 C-80.42310547 176.62951172 -79.72121094 176.63402344 -78.99804688 176.63867188 C-77.26949462 176.65043073 -75.54098635 176.66836546 -73.8125 176.6875 C-73.69273804 175.75309082 -73.69273804 175.75309082 -73.57055664 174.79980469 C-72.28644338 166.38164398 -69.40398208 158.79140351 -66.25 150.9375 C-65.70933033 149.5697949 -65.16962847 148.20170685 -64.63085938 146.83325195 C-63.54781976 144.08619682 -62.45962085 141.34128267 -61.36669922 138.59814453 C-59.53835454 134.00553525 -57.74349875 129.40004828 -55.94946289 124.79394531 C-53.66524076 118.92962069 -51.37097547 113.06976511 -49.0234375 107.23046875 C-45.77077296 99.11382212 -42.61380859 90.95923699 -39.4375 82.8125 C-38.72723899 80.99193343 -38.01695215 79.17137694 -37.30664062 77.35083008 C-33.53125596 67.67229938 -29.76247269 57.99123447 -26.00404358 48.30610657 C-23.69894247 42.3667407 -21.38553294 36.43064414 -19.06919861 30.49565125 C-17.47206121 26.39800833 -15.89867531 22.29210146 -14.33984375 18.1796875 C-13.64340499 16.369724 -12.94680774 14.55982148 -12.25 12.75 C-11.96382812 11.97551514 -11.67765625 11.20103027 -11.3828125 10.40307617 C-9.11006845 4.56301259 -6.80347167 -0.55766161 0 0 Z " fill="#A30A14" transform="translate(730.8125,124.3125)"/>
<path d="M0 0 C1.64029175 -0.00833862 1.64029175 -0.00833862 3.3137207 -0.0168457 C41.65209386 0.32434161 73.54304881 24.84129317 99.36450195 50.81323242 C103.63528875 55.18369144 107.60609809 59.70992239 111.390625 64.51171875 C114.02728533 67.81676326 116.78971502 70.99679054 119.5625 74.1875 C124.41005755 79.79778514 129.03603005 85.54007604 133.48828125 91.46875 C134.75396319 93.15324077 136.03669497 94.82549238 137.35546875 96.46875 C139.34179849 99.00591068 140.57477119 101.11577048 141.375 104.25 C139.60858895 111.4628451 132.98733374 116.01146802 127.28125 120.26171875 C123.93335723 122.8464889 120.7568734 125.60442617 117.5625 128.375 C115.25409418 130.35898287 112.9407366 132.33708159 110.625 134.3125 C109.40490234 135.35470703 109.40490234 135.35470703 108.16015625 136.41796875 C105.17411628 138.83087245 103.2296503 140.18208523 99.4375 141 C92.65861712 139.34293974 89.3165462 131.94029241 85.9375 126.375 C80.81004467 118.10118756 75.43040676 110.12260094 69.625 102.3125 C69.22603516 101.76932129 68.82707031 101.22614258 68.41601562 100.66650391 C54.67947141 82.01378103 37.25811234 61.68402224 13.8125 55.75 C12.09041525 55.53620376 10.35790041 55.40382853 8.625 55.3125 C7.93599609 55.2623877 7.24699219 55.21227539 6.53710938 55.16064453 C-10.20604847 54.05111652 -24.57240589 57.5106578 -38.375 67.3125 C-39.33019531 67.97378906 -40.28539062 68.63507813 -41.26953125 69.31640625 C-55.47405015 79.66766478 -67.67417171 92.54487415 -78.12207031 106.63183594 C-79.41464312 108.36567678 -80.73042911 110.07932122 -82.0546875 111.7890625 C-82.49345215 112.35560547 -82.9322168 112.92214844 -83.38427734 113.50585938 C-83.81434082 114.06080078 -84.2444043 114.61574219 -84.6875 115.1875 C-86.89978997 118.04350549 -89.08938811 120.90287242 -91.15625 123.8671875 C-94.75351898 129.0244966 -94.75351898 129.0244966 -97.9375 130.5 C-103.72525228 130.05478829 -108.15045889 125.06212278 -112.3125 121.375 C-113.64005331 120.20768285 -114.96819294 119.04103221 -116.296875 117.875 C-116.97041016 117.28332031 -117.64394531 116.69164062 -118.33789062 116.08203125 C-120.31570643 114.36400525 -122.31540795 112.67692909 -124.328125 111 C-125.26990601 110.2109729 -125.26990601 110.2109729 -126.23071289 109.40600586 C-127.41769214 108.41392977 -128.60932716 107.42738717 -129.80639648 106.44750977 C-133.38057034 103.44273915 -136.22205704 100.53662858 -138.375 96.3125 C-138.55562791 90.61519461 -135.5185766 87.58302225 -131.875 83.625 C-130.76707247 82.38123774 -129.66031054 81.13643625 -128.5546875 79.890625 C-127.73629395 78.97700195 -127.73629395 78.97700195 -126.90136719 78.04492188 C-124.85201587 75.71891468 -122.92654898 73.30317872 -121 70.875 C-116.71422655 65.5863399 -112.10417432 60.63771554 -107.42236328 55.70141602 C-104.59433918 52.71601113 -101.83114551 49.70723533 -99.17578125 46.56640625 C-95.90100946 42.70795296 -92.24286101 39.56412553 -88.375 36.3125 C-87.51132813 35.549375 -86.64765625 34.78625 -85.7578125 34 C-61.62838017 13.07474703 -32.10087194 0.13769448 0 0 Z " fill="#A30A14" transform="translate(338.375,727.6875)"/>
<path d="M0 0 C0.72104416 0.14921402 1.44208832 0.29842804 2.1849823 0.4521637 C4.47140126 0.92572995 6.75720039 1.40221072 9.04296875 1.87890625 C11.31276892 2.35027978 13.58269209 2.82105046 15.85275269 3.29116821 C17.31480486 3.59474863 18.77650279 3.90004065 20.23782349 4.2071228 C24.92698545 5.18937232 29.6240487 6.07577745 34.35424805 6.83618164 C36.72001519 7.5993224 37.74507039 8.45324887 39.23046875 10.44140625 C41.12822408 19.06583653 37.65709921 29.04683166 35.79296875 37.50390625 C29.82553909 64.93412274 26.49420752 96.07408625 41.23046875 121.44140625 C50.04582048 134.88065945 62.58166706 143.01421448 78.23828125 146.33984375 C82.5497855 147.17725799 86.88175738 147.83107798 91.23046875 148.44140625 C92.25116455 148.59005127 92.25116455 148.59005127 93.29248047 148.74169922 C100.19416691 149.72717961 107.04318066 150.43861821 114.015625 150.64453125 C115.00473877 150.67530762 115.99385254 150.70608398 117.01293945 150.73779297 C118.95247899 150.78917361 120.89259147 150.82280821 122.83276367 150.83642578 C126.80943225 150.9337077 129.74235434 151.23544578 133.43359375 152.79296875 C136.41867376 157.19271711 135.06219384 161.38976256 134.23046875 166.44140625 C133.917188 168.7004127 133.60471725 170.95953159 133.29296875 173.21875 C132.76536584 176.80369367 132.22921243 180.38727715 131.69140625 183.97070312 C130.70988728 190.64722956 129.94039768 197.25285505 129.57421875 203.9934082 C129.23046875 206.44140625 129.23046875 206.44140625 127.23046875 209.69140625 C119.3204682 214.30557324 107.65420785 210.33306251 99.04296875 208.75390625 C98.28891754 208.61757782 97.53486633 208.48124939 96.75796509 208.34078979 C65.27921777 202.64454028 33.61868813 196.20894417 8.23046875 175.44140625 C7.39515625 174.78914062 6.55984375 174.136875 5.69921875 173.46484375 C-16.34770534 155.00491921 -23.53642264 124.50123517 -26.3671875 97.1640625 C-26.93457019 90.32509641 -26.96170416 83.48788726 -26.95703125 76.62890625 C-26.95675934 75.94955017 -26.95648743 75.27019409 -26.95620728 74.57025146 C-26.93401479 62.43255961 -26.19073376 50.49530906 -24.76953125 38.44140625 C-24.52577332 36.26825925 -24.28229621 34.09508074 -24.0390625 31.921875 C-20.84334861 4.03679204 -20.84334861 4.03679204 -17.58203125 -0.80859375 C-12.38896607 -4.03983431 -5.75750233 -1.20632688 0 0 Z " fill="#A30A14" transform="translate(401.76953125,505.55859375)"/>
<path d="M0 0 C3.13836249 3.91773515 3.89111074 8.28466464 4.71875 13.11328125 C4.93361305 14.30454872 4.93361305 14.30454872 5.15281677 15.5198822 C5.61507178 18.11530732 6.05926521 20.71333903 6.5 23.3125 C6.65340851 24.20215454 6.80681702 25.09180908 6.96487427 26.00842285 C14.37432498 69.21109346 19.87927718 116.90539448 -6.00390625 155.35546875 C-26.91185748 183.05543545 -59.34644096 198.91574074 -93 205 C-94.13050781 205.20625 -95.26101562 205.4125 -96.42578125 205.625 C-102.84839149 206.6724019 -109.18866418 207.21617193 -115.6875 207.3125 C-116.37118652 207.33014404 -117.05487305 207.34778809 -117.75927734 207.3659668 C-122.51805576 207.35937901 -122.51805576 207.35937901 -124.66943359 205.75512695 C-126.32449826 203.57196 -126.44277683 202.27639853 -126.58984375 199.5546875 C-126.65002686 198.65403564 -126.71020996 197.75338379 -126.7722168 196.82543945 C-126.85403198 195.36497192 -126.85403198 195.36497192 -126.9375 193.875 C-127.63153517 183.8175356 -128.99000575 173.99729106 -130.76733398 164.07568359 C-130.94079346 163.07746582 -131.11425293 162.07924805 -131.29296875 161.05078125 C-131.4530542 160.17075439 -131.61313965 159.29072754 -131.77807617 158.3840332 C-132.00785881 155.91557613 -131.84664132 154.31916915 -131 152 C-127.3378284 147.84855041 -123.94097777 147.47760751 -118.703125 147.14160156 C-117.76984375 147.09487305 -116.8365625 147.04814453 -115.875 147 C-96.49685528 145.6057502 -76.89604126 142.52560546 -62 129 C-61.37609375 128.45601562 -60.7521875 127.91203125 -60.109375 127.3515625 C-49.28641526 117.32856065 -44.53880839 103.16476288 -43.83886719 88.66113281 C-43.79267554 84.8573045 -43.75332585 81.05409625 -43.75 77.25 C-43.74932526 76.55781372 -43.74865051 75.86562744 -43.74795532 75.15246582 C-43.77259894 59.21011677 -45.94783739 44.62399206 -50.3737793 29.31347656 C-51.56437958 25.13430098 -52.5507323 21.38642081 -52 17 C-49.88807417 14.34501924 -48.02616597 13.47507217 -44.78125 12.640625 C-43.93989502 12.41528076 -43.09854004 12.18993652 -42.23168945 11.95776367 C-40.87950317 11.60742065 -40.87950317 11.60742065 -39.5 11.25 C-27.60679318 8.02428478 -12.10645152 -1.27436332 0 0 Z " fill="#A30A14" transform="translate(278,516)"/>
</svg>
