<svg xmlns="http://www.w3.org/2000/svg" width="1024" height="1024"><path d="M88.837 56.376q2.245-.006 4.492-.02c4.111-.018 8.222-.004 12.334.014 4.474.015 8.948 0 13.422-.01q11.76-.022 23.521.004c11.66.023 23.318.018 34.977.007 20.822-.019 41.644-.009 62.466.012q27.333.028 54.665.026h3.661l14.713-.002c46.015-.005 92.03.018 138.045.054a131599 131599 0 0 0 130.553.037h3.933q9.802-.003 19.603-.003l3.906-.001a183623 183623 0 0 1 109.828.024l3.669.001 7.313.003q25.507.011 51.013.008 32.868-.005 65.735.032 17.388.02 34.774.011 11.609-.004 23.216.02c4.412.009 8.824.013 13.235.004q6.023-.011 12.044.014 2.163.006 4.326-.004c9.173-.042 17.386.43 25.532 4.956 7.336 8.174 7.909 16.692 7.81 27.274q.008 2.245.02 4.492c.019 4.111.005 8.222-.013 12.334-.015 4.474 0 8.948.01 13.422.016 7.84.012 15.68-.004 23.521-.023 11.66-.018 23.318-.007 34.977.019 20.822.009 41.644-.012 62.466a49566 49566 0 0 0-.026 58.326l.002 14.713c.005 46.015-.018 92.03-.054 138.045a131599 131599 0 0 0-.037 130.553v3.933q.003 9.802.003 19.603l.001 3.906a183623 183623 0 0 1-.022 106.154l-.002 3.674-.004 10.982q-.012 25.506-.008 51.013c.002 21.912-.006 43.823-.032 65.735q-.02 17.388-.011 34.774.004 11.609-.02 23.216-.016 6.618-.004 13.235.011 6.023-.014 12.044a586 586 0 0 0 .004 4.326c.042 9.173-.43 17.386-4.955 25.532-8.175 7.336-16.693 7.909-27.275 7.81q-2.245.008-4.492.02c-4.111.019-8.222.005-12.334-.013-4.474-.015-8.948 0-13.422.01-7.84.016-15.68.012-23.521-.004-11.66-.023-23.318-.018-34.977-.007a32566 32566 0 0 1-62.466-.012q-27.333-.028-54.665-.026h-3.661l-14.713.002c-46.015.005-92.03-.018-138.045-.054a131599 131599 0 0 0-130.553-.037h-3.933l-23.509.004c-34.157.004-68.315-.006-102.472-.02l-3.682-.002-3.674-.002-10.982-.004q-25.507-.011-51.013-.008c-21.912.002-43.823-.006-65.735-.032q-17.388-.02-34.774-.011-11.609.004-23.216-.02-6.618-.015-13.235-.004-6.023.011-12.044-.014a586 586 0 0 0-4.326.004c-9.173.042-17.386-.43-25.531-4.955-7.337-8.175-7.91-16.693-7.812-27.275q-.006-2.245-.02-4.492c-.018-4.111-.004-8.222.014-12.334.015-4.474 0-8.948-.01-13.422q-.022-11.76.004-23.521c.023-11.66.018-23.318.007-34.977-.019-20.822-.009-41.644.012-62.466q.028-27.333.026-54.665v-3.661l-.002-14.713c-.005-46.015.018-92.03.054-138.045a131599 131599 0 0 0 .037-130.553v-3.933q-.003-9.802-.003-19.603l-.001-3.906a183623 183623 0 0 1 .022-106.154l.002-3.674.001-3.669.003-7.313q.011-25.507.008-51.013-.005-32.868.032-65.735.02-17.388.011-34.774-.004-11.609.02-23.216c.009-4.412.013-8.824.004-13.235q-.011-6.023.014-12.044a586 586 0 0 0-.004-4.326c-.042-9.173.43-17.386 4.956-25.531 8.174-7.337 16.692-7.91 27.274-7.812"/><path fill="#a50b15" d="M88.837 56.376q2.245-.006 4.492-.02c4.111-.018 8.222-.004 12.334.014 4.474.015 8.948 0 13.422-.01q11.76-.022 23.521.004c11.66.023 23.318.018 34.977.007 20.822-.019 41.644-.009 62.466.012q27.333.028 54.665.026h3.661l14.713-.002c46.015-.005 92.03.018 138.045.054a131599 131599 0 0 0 130.553.037h3.933q9.802-.003 19.603-.003l3.906-.001a183623 183623 0 0 1 109.828.024l3.669.001 7.313.003q25.507.011 51.013.008 32.868-.005 65.735.032 17.388.02 34.774.011 11.609-.004 23.216.02c4.412.009 8.824.013 13.235.004q6.023-.011 12.044.014 2.163.006 4.326-.004c9.173-.042 17.386.43 25.532 4.956 7.336 8.174 7.909 16.692 7.81 27.274q.008 2.245.02 4.492c.019 4.111.005 8.222-.013 12.334-.015 4.474 0 8.948.01 13.422.016 7.84.012 15.68-.004 23.521-.023 11.66-.018 23.318-.007 34.977.019 20.822.009 41.644-.012 62.466a49566 49566 0 0 0-.026 58.326l.002 14.713c.005 46.015-.018 92.03-.054 138.045a131599 131599 0 0 0-.037 130.553v3.933q.003 9.802.003 19.603l.001 3.906a183623 183623 0 0 1-.022 106.154l-.002 3.674-.004 10.982q-.012 25.506-.008 51.013c.002 21.912-.006 43.823-.032 65.735q-.02 17.388-.011 34.774.004 11.609-.02 23.216-.016 6.618-.004 13.235.011 6.023-.014 12.044a586 586 0 0 0 .004 4.326c.042 9.173-.43 17.386-4.955 25.532-8.175 7.336-16.693 7.909-27.275 7.81q-2.245.008-4.492.02c-4.111.019-8.222.005-12.334-.013-4.474-.015-8.948 0-13.422.01-7.84.016-15.68.012-23.521-.004-11.66-.023-23.318-.018-34.977-.007a32566 32566 0 0 1-62.466-.012q-27.333-.028-54.665-.026h-3.661l-14.713.002c-46.015.005-92.03-.018-138.045-.054a131599 131599 0 0 0-130.553-.037h-3.933l-23.509.004c-34.157.004-68.315-.006-102.472-.02l-3.682-.002-3.674-.002-10.982-.004q-25.507-.011-51.013-.008c-21.912.002-43.823-.006-65.735-.032q-17.388-.02-34.774-.011-11.609.004-23.216-.02-6.618-.015-13.235-.004-6.023.011-12.044-.014a586 586 0 0 0-4.326.004c-9.173.042-17.386-.43-25.531-4.955-7.337-8.175-7.91-16.693-7.812-27.275q-.006-2.245-.02-4.492c-.018-4.111-.004-8.222.014-12.334.015-4.474 0-8.948-.01-13.422q-.022-11.76.004-23.521c.023-11.66.018-23.318.007-34.977-.019-20.822-.009-41.644.012-62.466q.028-27.333.026-54.665v-3.661l-.002-14.713c-.005-46.015.018-92.03.054-138.045a131599 131599 0 0 0 .037-130.553v-3.933q-.003-9.802-.003-19.603l-.001-3.906a183623 183623 0 0 1 .022-106.154l.002-3.674.001-3.669.003-7.313q.011-25.507.008-51.013-.005-32.868.032-65.735.02-17.388.011-34.774-.004-11.609.02-23.216c.009-4.412.013-8.824.004-13.235q-.011-6.023.014-12.044a586 586 0 0 0-.004-4.326c-.042-9.173.43-17.386 4.956-25.531 8.174-7.337 16.692-7.91 27.274-7.812M98 98v828h828V98z"/><path fill="#a30a14" d="M730.813 124.313c1.742.518 3.47 1.088 5.187 1.687l3.438 1.137C784.754 142.753 822.33 176.11 848 216l1.887 2.762C864.979 241.69 873.466 269.125 878 296l.507 2.883c1.264 7.564 1.8 14.869 1.794 22.531l.013 3.44q.008 3.578.002 7.154c-.003 3.588.02 7.174.045 10.762.037 13.383-.69 26.108-3.361 39.23l-.57 2.933a146 146 0 0 1-1.555 6.692l-.622 2.436c-9.069 33.99-25.485 66.43-49.663 92.166a198 198 0 0 0-6.09 6.836c-8.622 9.865-18.02 18.13-28.5 25.937l-1.747 1.31C769.119 534.564 748.425 544.86 726 553l-1.825.723c-4.847 1.9-9.647 3.208-14.737 4.277l-2.354.507q-3.54.755-7.084 1.493l-2.16.455C655.67 569.292 606.497 565.283 567 548l-2.198-.96C540.54 536.29 509.13 520.695 494 498c-.488-3.71-.406-5.404 1.723-8.527l2.34-2.41 2.476-2.586L503 482l2.086-2.164c5.413-5.55 5.413-5.55 9.539-6.336 5.167.766 7.717 3.938 11.375 7.5 36.314 34.952 85.688 49.313 135.227 48.412 10.442-.256 20.56-1.159 30.773-3.412l2.652-.552c10.593-2.223 20.506-4.868 30.348-9.448l5.657-2.335c21.779-9.14 40.977-22.811 57.816-39.239C790 473 790 473 792.63 470.961c4.45-3.68 7.631-8.56 11.05-13.179a553 553 0 0 1 3.77-5.009c5.133-6.864 9.596-14.028 13.864-21.46l1.49-2.59c8.262-14.655 14.022-30.1 17.7-46.511q.507-2.254 1.04-4.502c5.365-22.839 5.692-46.524 2.457-69.71l-.363-2.687c-5.46-38.677-23-72.125-49.637-100.313l-2.406-2.602C774.698 184.74 752.918 170.497 730 162h-2q-2.355 5.924-4.7 11.853l-1.6 4.033q-1.15 2.896-2.294 5.794l-1.396 3.523c-1.123 2.615-1.123 2.615-1.01 4.797l1.658.82c17.823 8.88 33.676 18.81 47.92 32.797 1.316 1.28 2.668 2.523 4.024 3.762C782.762 240.786 791.124 254.963 798 270l1.234 2.613c4.418 9.566 7.417 19.246 9.453 29.575l.643 3.115c4.292 21.16 4.432 43.592-.33 64.697l-.456 2.136C802.63 399.073 788.84 424.914 770 445l-1.683 1.811C743.727 473.029 712.441 489.679 677 496l-2.716.526c-3.846.555-7.637.673-11.514.712l-2.375.03c-31.793.319-31.793.319-46.395-4.268l-2.718-.781C586.44 485.067 554.06 471.589 539 449c-.477-2.281-.477-2.281 0-5a68 68 0 0 1 5.625-6.5l1.582-1.684c8.879-9.317 8.879-9.317 13.668-10.566 3.967.952 5.68 2.734 8.613 5.488 22.004 19.814 52.014 31.738 81.637 31.575l3.293-.018C685.997 461.81 714.932 448.551 739 427l2.215-1.957c9.482-8.9 17.117-20.409 22.785-32.043l1.293-2.559c13.907-28.798 15.97-62.103 5.839-92.378C765.886 283.42 758.524 268.533 748 257l-1.437-1.824C735.806 241.578 718.827 231.566 703 225l-.41 1.59c-1.883 6.777-4.47 13.16-7.252 19.607-1.825 4.25-1.825 4.25-2.338 8.803 1.92 1.482 1.92 1.482 4.5 2.875 23.366 14.34 37.3 33.673 44.069 60.368 1.514 6.729 1.765 13.252 1.744 20.132l.048 3.172c.015 23.365-11.429 44.14-27.361 60.453l-1.805 1.992c-12.732 13.746-33.4 24.142-52.133 25.17C636.835 429.506 615.6 426.69 595 411l-2.734-2.004c-6.094-4.835-6.094-4.835-6.832-9.82.241-4.9 2.612-7.541 5.879-10.988l1.513-1.694c1.368-1.52 2.77-3.008 4.174-4.494l1.598-1.848c2.479-2.037 4.868-1.8 7.965-1.695 3.75.835 5.918 3.047 8.773 5.523 3.282 2.488 6.685 4.179 10.414 5.895l1.934.903c12.732 5.738 31.563 5.469 44.57.546A84 84 0 0 0 686 383l2.367-1.738C699.214 372.498 706.131 359.735 708 346c.959-17.493-1.392-31.794-12.867-45.816-4.184-4.284-8.953-8.17-14.133-11.184l-3 1a82 82 0 0 0-2.687 7.563l-.682 2.154A552 552 0 0 0 673 305l3.063 2.25c6.986 5.964 12.24 15.577 13.273 24.723.16 12.592-2.869 23.486-11.336 33.027-7.068 6.803-15.227 10.182-25 10.5-11.28-.367-21.45-5.448-29.25-13.625-6.86-8.695-9.426-19.334-8.562-30.242 1.736-10.164 7.815-19.295 15.812-25.633 6.167-3.795 11.452-5.15 18.688-5.062l2.126.013q2.594.02 5.186.049l.242-1.888c1.284-8.418 4.167-16.008 7.32-23.862l1.62-4.104q1.624-4.12 3.264-8.235c1.828-4.593 3.623-9.198 5.417-13.805a1745 1745 0 0 1 6.926-17.563c3.253-8.117 6.41-16.271 9.586-24.418l2.13-5.462q5.665-14.518 11.303-29.044 3.46-8.91 6.935-17.81c1.597-4.098 3.17-8.204 4.73-12.317l2.09-5.43.867-2.346c2.272-5.84 4.579-10.961 11.383-10.404M338.375 727.688l3.314-.017c38.338.34 70.229 24.858 96.05 50.83 4.271 4.37 8.242 8.896 12.027 13.698 2.636 3.305 5.399 6.485 8.171 9.676a324 324 0 0 1 13.926 17.281 198 198 0 0 0 3.867 5c1.987 2.537 3.22 4.647 4.02 7.782-1.766 7.212-8.388 11.761-14.094 16.011-3.348 2.585-6.524 5.343-9.719 8.114A2466 2466 0 0 1 449 862l-2.465 2.105c-2.986 2.413-4.93 3.765-8.723 4.582-6.778-1.657-10.12-9.06-13.5-14.625C419.186 845.79 413.806 837.81 408 830l-1.209-1.646c-13.737-18.653-31.158-38.982-54.603-44.917A74 74 0 0 0 347 783l-2.088-.152c-16.743-1.11-31.11 2.35-44.912 12.152l-2.895 2.004c-14.204 10.351-26.404 23.228-36.852 37.315a352 352 0 0 1-3.933 5.158l-1.33 1.716-1.303 1.682c-2.212 2.856-4.401 5.715-6.468 8.68-3.598 5.157-3.598 5.157-6.781 6.633-5.788-.446-10.213-5.438-14.375-9.125l-3.985-3.5-2.04-1.793a382 382 0 0 0-5.991-5.082l-1.903-1.594a454 454 0 0 0-3.575-2.959c-3.575-3.005-6.416-5.91-8.569-10.135-.18-5.697 2.856-8.73 6.5-12.687q1.662-1.867 3.32-3.735l1.654-1.846c2.049-2.326 3.974-4.741 5.901-7.17 4.286-5.288 8.896-10.237 13.578-15.173 2.828-2.985 5.59-5.994 8.246-9.135 3.275-3.859 6.933-7.002 10.801-10.254l2.617-2.312c24.13-20.926 53.657-33.863 85.758-34M401.77 505.559l2.185.452q3.429.71 6.858 1.426l6.81 1.413q2.192.455 4.384.916c4.69.982 9.387 1.868 14.117 2.629 2.366.763 3.39 1.617 4.876 3.605 1.898 8.624-1.573 18.605-3.437 27.063-5.968 27.43-9.3 58.57 5.437 83.937 8.815 13.44 21.351 21.573 37.008 24.898 4.311.838 8.643 1.492 12.992 2.102l2.062.3c6.902.986 13.75 1.697 20.723 1.903l2.997.093q2.91.078 5.82.099c3.977.097 6.91.399 10.601 1.957 2.985 4.4 1.629 8.596.797 13.648q-.47 3.389-.937 6.777a3819 3819 0 0 1-1.602 10.752c-.982 6.677-1.751 13.282-2.117 20.023C531 712 531 712 529 715.25c-7.91 4.614-19.576.642-28.187-.937l-2.286-.414C467.05 708.203 435.388 701.768 410 681l-2.531-1.977c-22.047-18.46-29.236-48.963-32.067-76.3-.567-6.84-.594-13.677-.59-20.535l.001-2.06c.023-12.137.766-24.074 2.187-36.128l.73-6.52c3.196-27.885 3.196-27.885 6.457-32.73 5.194-3.231 11.825-.398 17.583.809M278 516c3.138 3.918 3.891 8.285 4.719 13.113l.434 2.407c.462 2.595.906 5.193 1.347 7.793l.465 2.695c7.41 43.203 12.914 90.897-12.969 129.347-20.908 27.7-53.342 43.56-86.996 49.645l-3.426.625a131 131 0 0 1-19.262 1.688l-2.071.053c-4.76-.007-4.76-.007-6.91-1.61-1.655-2.184-1.774-3.48-1.92-6.201l-.183-2.73-.166-2.95c-.694-10.057-2.052-19.878-3.83-29.8l-.525-3.024-.485-2.667c-.23-2.468-.069-4.065.778-6.384 3.662-4.151 7.059-4.522 12.297-4.858l2.828-.142c19.378-1.394 38.979-4.474 53.875-18l1.89-1.648c10.824-10.023 15.571-24.187 16.271-38.69.046-3.805.086-7.608.089-11.412l.002-2.098c-.025-15.942-2.2-30.528-6.626-45.839-1.19-4.179-2.177-7.927-1.626-12.313 2.112-2.655 3.974-3.525 7.219-4.36l2.55-.682 2.731-.708c11.893-3.226 27.394-12.524 39.5-11.25"/></svg>