<?xml version="1.0" encoding="UTF-8"?>
<svg version="1.1" xmlns="http://www.w3.org/2000/svg" width="1024" height="1024">
<path d="M0 0 C1.49747542 -0.00461467 2.99494538 -0.01142069 4.49240214 -0.02020609 C8.60383222 -0.0379896 12.71466078 -0.02471241 16.82606644 -0.00631597 C21.30025905 0.00818393 25.77437334 -0.00636415 30.24856329 -0.01720095 C38.08900236 -0.03217967 45.92926221 -0.02857327 53.76969719 -0.01278305 C65.42861938 0.0106328 77.08740648 0.00543716 88.74634077 -0.00549195 C109.56850543 -0.02408539 130.39058459 -0.01436033 151.21274228 0.00698569 C169.43442444 0.02553408 187.65607786 0.0339651 205.87776947 0.0324173 C207.08591157 0.03232562 208.29405366 0.03223395 209.53880612 0.03213949 C214.44290558 0.03174634 219.34700502 0.03129672 224.25110446 0.0307681 C270.26622924 0.02589571 316.28130303 0.04856787 362.29641195 0.08472433 C403.18847597 0.1167182 444.08049642 0.12876798 484.97257233 0.12264252 C487.59819442 0.12225567 490.22381651 0.12186922 492.84943861 0.12148315 C494.79651427 0.12119613 494.79651427 0.12119613 496.7829248 0.12090331 C503.31698363 0.11994899 509.85104247 0.11903462 516.38510132 0.11816406 C517.67413888 0.11799027 518.96317643 0.11781647 520.29127574 0.11763741 C554.44869945 0.11328332 588.60611846 0.12329422 622.76353884 0.13800192 C624.58590901 0.13878213 624.58590901 0.13878213 626.44509474 0.13957811 C627.65780491 0.14009745 628.87051508 0.14061679 630.11997405 0.14115188 C631.33048019 0.14166962 632.54098633 0.14218736 633.78817447 0.14272078 C636.22604642 0.14376888 638.66391838 0.14482909 641.10179032 0.1459015 C658.1059414 0.1532857 675.11008582 0.15536966 692.11423831 0.1539075 C714.02612244 0.15206273 735.93796553 0.16011204 757.84983623 0.18554896 C769.44107859 0.19872455 781.03225541 0.20371865 792.62350365 0.19691042 C800.36232152 0.19320373 808.10107948 0.20038662 815.83988133 0.21650281 C820.25159296 0.22539202 824.66316958 0.22955353 829.07488412 0.22057563 C833.08962323 0.21251001 837.10409773 0.21827388 841.11880796 0.23499252 C842.56085487 0.23859508 844.0029253 0.23720406 845.44495947 0.23015337 C854.61777817 0.18876602 862.83078298 0.6610039 870.9759903 5.18611908 C878.31209403 13.36063467 878.8850935 21.87903902 878.78710938 32.46012878 C878.79172405 33.9576042 878.79853006 35.45507417 878.80731547 36.95253092 C878.82509897 41.06396101 878.81182179 45.17478957 878.79342534 49.28619523 C878.77892545 53.76038784 878.79347352 58.23450212 878.80431032 62.70869207 C878.81928905 70.54913115 878.81568264 78.38939099 878.79989243 86.22982597 C878.77647657 97.88874816 878.78167222 109.54753526 878.79260132 121.20646955 C878.81119477 142.02863422 878.8014697 162.85071338 878.78012369 183.67287107 C878.7615753 201.89455322 878.75314427 220.11620665 878.75469208 238.33789825 C878.75482959 240.1501114 878.75482959 240.1501114 878.75496988 241.99893491 C878.75536303 246.90303436 878.75581265 251.80713381 878.75634127 256.71123325 C878.76121367 302.72635802 878.73854151 348.74143181 878.70238505 394.75654074 C878.67039117 435.64860475 878.65834139 476.54062521 878.66446686 517.43270111 C878.6648537 520.0583232 878.66524016 522.6839453 878.66562623 525.30956739 C878.66581757 526.60761783 878.66600892 527.90566828 878.66620606 529.24305358 C878.66716039 535.77711242 878.66807476 542.31117126 878.66894531 548.8452301 C878.669206 550.77878644 878.669206 550.77878644 878.66947196 552.75140452 C878.67382605 586.90882823 878.66381515 621.06624724 878.64910746 655.22366762 C878.64858731 656.43858107 878.64806717 657.65349452 878.64753127 658.90522352 C878.64675225 660.72428878 878.64675225 660.72428878 878.6459575 662.58010283 C878.64543976 663.79060897 878.64492202 665.00111511 878.64438859 666.24830325 C878.6433405 668.68617521 878.64228029 671.12404716 878.64120787 673.5619191 C878.63382368 690.56607018 878.63173972 707.57021461 878.63320187 724.57436709 C878.63504664 746.48625123 878.62699733 768.39809431 878.60156041 790.30996501 C878.58838482 801.90120737 878.58339072 813.49238419 878.59019895 825.08363244 C878.59390564 832.8224503 878.58672276 840.56120826 878.57060657 848.30001012 C878.56171735 852.71172174 878.55755585 857.12329836 878.56653374 861.5350129 C878.57459936 865.54975201 878.5688355 869.56422651 878.55211686 873.57893675 C878.5485143 875.02098365 878.54990531 876.46305409 878.55695601 877.90508825 C878.59834335 887.07790696 878.12610547 895.29091176 873.6009903 903.43611908 C865.4264747 910.77222282 856.90807036 911.34522229 846.32698059 911.24723816 C844.82950518 911.25185283 843.33203521 911.25865884 841.83457845 911.26744425 C837.72314837 911.28522776 833.61231981 911.27195057 829.50091415 911.25355413 C825.02672154 911.23905423 820.55260725 911.25360231 816.0784173 911.26443911 C808.23797823 911.27941783 800.39771839 911.27581143 792.5572834 911.26002121 C780.89836121 911.23660536 769.23957411 911.241801 757.58063982 911.25273011 C736.75847516 911.27132355 715.936396 911.26159848 695.11423831 911.24025247 C676.89255615 911.22170408 658.67090273 911.21327306 640.44921112 911.21482086 C639.24106903 911.21491254 638.03292693 911.21500421 636.78817447 911.21509867 C631.88407501 911.21549182 626.97997557 911.21594144 622.07587613 911.21647006 C576.06075135 911.22134245 530.04567756 911.19867029 484.03056864 911.16251383 C443.13850463 911.13051996 402.24648417 911.11847018 361.35440826 911.12459564 C358.72878617 911.12498249 356.10316408 911.12536894 353.47754198 911.12575501 C351.53046632 911.12604203 351.53046632 911.12604203 349.5440558 911.12633485 C343.00999696 911.12728917 336.47593812 911.12820354 329.94187927 911.1290741 C328.65284171 911.12924789 327.36380416 911.12942168 326.03570485 911.12960074 C291.87828114 911.13395483 257.72086213 911.12394394 223.56344175 911.10923624 C222.34852831 911.1087161 221.13361486 911.10819596 219.88188585 911.10766005 C218.66917568 911.10714071 217.45646551 911.10662137 216.20700654 911.10608628 C214.9965004 911.10556854 213.78599427 911.1050508 212.53880612 911.10451737 C210.10093417 911.10346928 207.66306222 911.10240907 205.22519027 911.10133665 C188.22103919 911.09395246 171.21689477 911.0918685 154.21274228 911.09333066 C132.30085815 911.09517542 110.38901506 911.08712612 88.47714436 911.0616892 C76.885902 911.04851361 65.29472518 911.0435195 53.70347694 911.05032774 C45.96465907 911.05403443 38.22590111 911.04685154 30.48709926 911.03073535 C26.07538764 911.02184614 21.66381101 911.01768463 17.25209647 911.02666253 C13.23735736 911.03472814 9.22288286 911.02896428 5.20817263 911.01224564 C3.76612572 911.00864308 2.32405529 911.0100341 0.88202112 911.01708479 C-8.29079758 911.05847213 -16.50380239 910.58623426 -24.6490097 906.06111908 C-31.98511344 897.88660349 -32.55811291 889.36819914 -32.46012878 878.78710938 C-32.46474345 877.28963396 -32.47154947 875.79216399 -32.48033488 874.29470724 C-32.49811838 870.18327715 -32.4848412 866.07244859 -32.46644475 861.96104293 C-32.45194485 857.48685032 -32.46649293 853.01273604 -32.47732973 848.53854609 C-32.49230846 840.69810701 -32.48870205 832.85784717 -32.47291183 825.01741219 C-32.44949598 813.35849 -32.45469163 801.69970289 -32.46562073 790.04076861 C-32.48421418 769.21860394 -32.47448911 748.39652478 -32.4531431 727.57436709 C-32.43459471 709.35268494 -32.42616368 691.13103151 -32.42771149 672.9093399 C-32.42780316 671.70119781 -32.42789484 670.49305571 -32.42798929 669.24830325 C-32.42838244 664.3442038 -32.42883206 659.44010435 -32.42936068 654.53600491 C-32.43423308 608.52088014 -32.41156092 562.50580635 -32.37540445 516.49069742 C-32.34341058 475.59863341 -32.3313608 434.70661295 -32.33748627 393.81453705 C-32.33787311 391.18891495 -32.33825957 388.56329286 -32.33864564 385.93767077 C-32.33883698 384.63962033 -32.33902833 383.34156988 -32.33922547 382.00418458 C-32.3401798 375.47012574 -32.34109416 368.9360669 -32.34196472 362.40200806 C-32.34213852 361.1129705 -32.34231231 359.82393294 -32.34249137 358.49583364 C-32.34684546 324.33840992 -32.33683456 290.18099092 -32.32212687 256.02357054 C-32.32160672 254.80865709 -32.32108658 253.59374364 -32.32055068 252.34201463 C-32.32003133 251.12930446 -32.31951199 249.91659429 -32.31897691 248.66713533 C-32.3182003 246.85137612 -32.3182003 246.85137612 -32.317408 244.99893491 C-32.31635991 242.56106295 -32.3152997 240.123191 -32.31422728 237.68531905 C-32.30684309 220.68116797 -32.30475912 203.67702355 -32.30622128 186.67287107 C-32.30806605 164.76098693 -32.30001674 142.84914385 -32.27457982 120.93727314 C-32.26140423 109.34603079 -32.25641013 97.75485397 -32.26321836 86.16360572 C-32.26692505 78.42478786 -32.25974216 70.6860299 -32.24362598 62.94722804 C-32.23473676 58.53551642 -32.23057525 54.1239398 -32.23955315 49.71222526 C-32.24761877 45.69748615 -32.2418549 41.68301164 -32.22513627 37.66830141 C-32.22153371 36.22625451 -32.22292472 34.78418407 -32.22997542 33.34214991 C-32.27136276 24.1693312 -31.79912488 15.9563264 -27.2740097 7.81111908 C-19.09949411 0.47501534 -10.58108977 -0.09798413 0 0 Z " fill="#000000" transform="translate(88.83650970458984,56.376380920410156)"/>
<path d="M0 0 C0.77472656 0.20238281 1.54945313 0.40476563 2.34765625 0.61328125 C24.18137519 6.80699867 45.38473982 16.66595878 65 28 C65.89589844 28.50917969 66.79179688 29.01835937 67.71484375 29.54296875 C84.23641754 39.03039023 99.49204496 49.88397483 114.39550781 61.73193359 C115.7833738 62.82879543 117.18356807 63.91002439 118.5859375 64.98828125 C135.41534437 78.0436517 151.89850331 93.74987296 165.0234375 110.5234375 C167.11845679 113.14842215 169.34384061 115.59823751 171.625 118.0625 C175.28973983 122.07961866 178.45401294 126.26754577 181.4921875 130.7734375 C182.50799663 132.27346653 183.57810415 133.73794862 184.6953125 135.1640625 C186 137 186 137 186 139 C186.66 139 187.32 139 188 139 C189.50655272 141.11821312 190.89078179 143.227222 192.25 145.4375 C193.06181304 146.73220183 193.87431321 148.02647307 194.6875 149.3203125 C195.08324219 149.95356445 195.47898437 150.58681641 195.88671875 151.23925781 C197.29320726 153.46373043 198.76532333 155.63961383 200.25 157.8125 C205.24135193 165.28589032 209.18980885 173.2750401 213.14599609 181.32836914 C214.95383436 184.99190285 216.8736792 188.50764171 219 192 C220.04287159 194.32275946 221.03322586 196.64592664 222 199 C222.35964844 199.85464844 222.71929688 200.70929688 223.08984375 201.58984375 C223.94377901 203.62237337 224.79089606 205.65777507 225.6328125 207.6953125 C226.51180186 209.81995536 227.40156463 211.94019024 228.3046875 214.0546875 C239.87668395 241.84055469 247.77825093 270.50522317 251.4140625 300.3984375 C251.83463936 303.8499256 252.39819126 307.22269241 253.125 310.625 C256.39487185 328.03021734 255.15888045 346.55027152 255.13037109 364.20556641 C255.1245867 367.82546198 255.12802453 371.4452848 255.13394356 375.06517792 C255.13755216 377.88072259 255.1364107 380.69624986 255.13381577 383.51179504 C255.13283166 385.49268645 255.13584937 387.47357855 255.13894653 389.45446777 C255.13579437 390.65091919 255.13264221 391.84737061 255.12939453 393.08007812 C255.12820114 394.65505066 255.12820114 394.65505066 255.12698364 396.26184082 C255.01403486 398.69736504 254.64668565 400.66693453 254 403 C253.79125278 404.97793157 253.58559307 406.95630845 253.4050293 408.93701172 C250.8442409 436.90162573 244.23291163 463.51232111 235.04296875 489.984375 C234.15677061 492.54671569 233.29074878 495.11406518 232.4375 497.6875 C229.67584132 505.9173782 226.43520274 513.90313438 223 521.875 C222.596604 522.8144043 222.19320801 523.75380859 221.77758789 524.72167969 C218.86715477 531.35772449 215.52800449 537.67488271 212 544 C211.01805778 545.83184823 210.03856422 547.66501305 209.0625 549.5 C206.51634989 554.1690441 203.74409023 558.64572149 200.85546875 563.109375 C198.83674405 566.25433559 196.88469803 569.43530418 194.9375 572.625 C191.73772873 577.83307301 188.48124524 582.97543193 185 588 C184.39542969 588.87269531 183.79085937 589.74539063 183.16796875 590.64453125 C179.18753731 596.2579602 174.94558413 601.41696532 170.28125 606.47265625 C167.94592574 609.05990762 165.74896278 611.72366855 163.5625 614.4375 C159.6605376 619.25877291 155.56461784 623.85620613 151.359375 628.4140625 C148.67715601 631.35384557 146.10702311 634.37568313 143.5703125 637.44140625 C142 639 142 639 139.9296875 639.96484375 C137.48540638 641.27604719 137.12006928 642.51147788 136 645 C131.3053621 650.62535329 125.34045975 655.10939506 119.64990234 659.66650391 C117.86407058 661.10986187 116.09732037 662.57456708 114.33203125 664.04296875 C105.45464738 671.3972775 96.31097222 678.20146684 86.81835938 684.73974609 C84.48211555 686.35893119 82.18151912 688.02634798 79.875 689.6875 C70.06746266 696.53773903 59.54705004 702.38161231 49 708 C47.81473138 708.64384546 46.62985958 709.28842177 45.4453125 709.93359375 C34.15228669 716.06067646 22.73637157 721.46648734 10.66479492 725.88891602 C7.17517582 727.16958383 3.74846792 728.50117377 0.375 730.0625 C-8.25209992 734.01384347 -17.31346637 736.98452346 -26.5 739.32421875 C-28.30892819 739.81319465 -30.09711335 740.38114973 -31.8671875 740.99609375 C-35.27296597 742.08747164 -38.60382509 742.75015685 -42.125 743.375 C-47.42323534 744.32582247 -52.69759712 745.34451589 -57.96386719 746.45922852 C-80.61025334 751.17190658 -102.60031056 752.48985443 -125.66064453 752.39111328 C-129.69096756 752.37402228 -133.72069583 752.3841702 -137.7509985 752.40145779 C-154.60575273 752.46251126 -170.99159679 752.06223816 -187.67100525 749.3404541 C-190.86160275 748.8740503 -194.05626518 748.60291791 -197.27041626 748.35655212 C-210.92538102 747.29134142 -224.52498914 743.9582692 -237.4609375 739.49609375 C-240.87223329 738.32077015 -244.28723181 737.41515407 -247.796875 736.578125 C-254.10840659 735.03921451 -260.15384569 732.98279108 -266.25 730.75 C-267.34046631 730.35304932 -268.43093262 729.95609863 -269.55444336 729.54711914 C-283.86182788 724.28065566 -297.42978838 717.92050704 -311 711 C-312.99909666 709.99819535 -314.99876999 708.99753619 -317 708 C-317 707.34 -317 706.68 -317 706 C-317.70382812 705.90332031 -318.40765625 705.80664062 -319.1328125 705.70703125 C-322.49803805 704.8771868 -324.9141659 703.48322665 -327.875 701.6875 C-328.86242187 701.09324219 -329.84984375 700.49898437 -330.8671875 699.88671875 C-331.90101563 699.26410156 -332.93484375 698.64148438 -334 698 C-335.14597656 697.34773437 -336.29195313 696.69546875 -337.47265625 696.0234375 C-348.17819434 689.92804528 -357.90292727 682.92655895 -367.47265625 675.20996094 C-369.56114507 673.55546116 -371.71487598 671.99674445 -373.875 670.4375 C-374.90625 669.633125 -375.9375 668.82875 -377 668 C-377 667.34 -377 666.68 -377 666 C-377.55558594 665.7525 -378.11117187 665.505 -378.68359375 665.25 C-387.9334029 660.25853469 -401.35519612 649.53791489 -406 640 C-407.0637888 635.78764089 -407.01182723 632.22616727 -406 628 C-403.40964128 624.06116236 -400.23348691 620.93645846 -396.81542969 617.73339844 C-394.78199281 615.79184359 -392.83247808 613.78340386 -390.8828125 611.7578125 C-389.46445767 610.29598568 -388.04519252 608.83504153 -386.625 607.375 C-385.94759766 606.67536133 -385.27019531 605.97572266 -384.57226562 605.25488281 C-380.35146962 601.01107949 -377.22841 598.50219711 -371.1875 597.5625 C-363.45738675 598.62349594 -358.00164569 604.6833712 -352.875 610.125 C-346.54153285 616.64711007 -339.92096999 622.35715152 -332.63476562 627.77978516 C-331.07284303 628.94562881 -329.52812258 630.1344133 -327.984375 631.32421875 C-301.57998044 651.55111458 -271.17861166 668.17568909 -239 677 C-236.68739434 677.66630006 -234.37489334 678.33296346 -232.0625 679 C-230.91523438 679.32097656 -229.76796875 679.64195312 -228.5859375 679.97265625 C-226.12356102 680.67810833 -223.67059132 681.41698844 -221.2265625 682.18359375 C-205.68967297 687.04638634 -189.27490088 691.1521615 -172.95483398 691.79516602 C-170.19520307 691.9864682 -167.679595 692.43383459 -164.9765625 693 C-155.61619267 694.59944323 -146.15440619 694.35002704 -136.6875 694.3125 C-135.69134674 694.31001251 -134.69519348 694.30752502 -133.66885376 694.30496216 C-103.07933882 694.18714186 -71.93942559 691.85229899 -42.84277344 681.62988281 C-40.36907577 680.78434227 -37.86156034 680.19807342 -35.3125 679.625 C-25.15984257 677.15158473 -15.4583585 673.40712045 -6 669 C-5.19820312 668.64421875 -4.39640625 668.2884375 -3.5703125 667.921875 C12.23575294 660.92026735 12.23575294 660.92026735 27.12890625 652.203125 C29.39614073 650.74527903 31.74056963 649.43648797 34.08422852 648.10644531 C39.49998982 644.97859642 44.76246515 641.5856985 50.04443359 638.23876953 C51.74156818 637.16370575 53.44269776 636.09495358 55.14453125 635.02734375 C67.67759496 626.95200448 79.10762528 617.15043036 90 607 C90.60875977 606.43490723 91.21751953 605.86981445 91.84472656 605.28759766 C96.00119241 601.42688417 100.13720474 597.5455501 104.25585938 593.64453125 C105.64450643 592.33519102 107.04657256 591.04008632 108.453125 589.75 C112.93617427 585.52208361 116.42859975 580.76231061 119.92358398 575.71484375 C123.87450447 570.04590231 128.19763874 564.72263297 132.62182617 559.41796875 C134.8901639 556.68136268 136.93897777 554.10315339 138.75390625 551.03515625 C139.16511719 550.36355469 139.57632813 549.69195313 140 549 C140.66 549 141.32 549 142 549 C142.11069824 548.44352783 142.22139648 547.88705566 142.33544922 547.3137207 C144.5724386 539.52534877 149.99458199 532.24533348 154.09985352 525.31201172 C165.29488899 506.39546574 173.71755024 488.13187647 180 467 C180.40607922 465.65619838 180.81233763 464.3124509 181.21875 462.96875 C183.71360153 454.6646907 186.0073463 446.33764651 188.03125 437.90625 C188.6329981 435.41608915 189.29999258 432.99093407 190.03125 430.53125 C195.92811909 409.98155468 196.40947941 387.2685831 197 366 C197.04125 364.85273438 197.0825 363.70546875 197.125 362.5234375 C197.27900121 354.61162551 196.7043275 346.76216968 196.125 338.875 C196.04660889 337.79001221 195.96821777 336.70502441 195.88745117 335.5871582 C195.38451435 329.2273943 194.57101601 323.00572307 193.46386719 316.72363281 C192.85294971 313.13658262 192.45528639 309.55487558 192.0625 305.9375 C191.40666868 300.2970819 190.34788849 294.95694756 188.71875 289.515625 C187.99426037 286.97991128 187.47718314 284.46769504 187 281.875 C186.23483353 277.83874689 185.08357308 274.09192969 183.71875 270.22265625 C182.98478428 267.95294703 182.47446018 265.71171641 182 263.375 C181.15033311 259.31626063 179.69368197 255.79384761 178 252 C177.54808635 250.67148275 177.11174222 249.33761077 176.6875 248 C168.25161988 222.07076848 155.06416516 197.78897567 139.03564453 175.82177734 C136.94182154 172.92321586 135.15933849 170.40208907 133.8359375 167.0625 C133.42214844 166.0415625 133.42214844 166.0415625 133 165 C132.01 164.67 131.02 164.34 130 164 C128.23828125 161.84765625 128.23828125 161.84765625 126.3125 159.0625 C116.41911571 145.14377852 105.09791454 132.9679733 92 122 C91.07316406 121.195625 90.14632813 120.39125 89.19140625 119.5625 C76.27820614 108.39208656 62.64853578 98.42702911 48.1796875 89.36767578 C45.97639688 87.98518989 43.78522061 86.58472171 41.59375 85.18359375 C31.75705792 78.9630632 21.68594014 73.71848417 11.078125 68.93847656 C9.2121647 68.0958131 7.35543462 67.23278088 5.5 66.3671875 C-0.09549435 63.74684837 -0.09549435 63.74684837 -6 62 C-6.37125 63.134375 -6.7425 64.26875 -7.125 65.4375 C-14.19406639 86.54466521 -14.19406639 86.54466521 -18.76171875 96.23046875 C-20.27041386 99.60480576 -21.60045319 103.03225398 -22.875 106.5 C-23.52082031 108.24796875 -23.52082031 108.24796875 -24.1796875 110.03125 C-25.30270123 113.02101911 -25.30270123 113.02101911 -24 116 C-22.41333292 117.08446537 -22.41333292 117.08446537 -20.4296875 117.90234375 C-19.6975 118.23556641 -18.9653125 118.56878906 -18.2109375 118.91210938 C-17.05464844 119.41967773 -17.05464844 119.41967773 -15.875 119.9375 C-10.40243444 122.38600131 -5.16015354 124.94121019 0 128 C0.81984375 128.48082031 1.6396875 128.96164062 2.484375 129.45703125 C4.996614 130.9600432 7.50021586 132.47635635 10 134 C11.52753906 134.92619141 11.52753906 134.92619141 13.0859375 135.87109375 C14.08882812 136.49113281 15.09171875 137.11117187 16.125 137.75 C17.05570313 138.32234375 17.98640625 138.8946875 18.9453125 139.484375 C19.62335938 139.98453125 20.30140625 140.4846875 21 141 C21 141.66 21 142.32 21 143 C21.69351562 143.24234375 22.38703125 143.4846875 23.1015625 143.734375 C26.48260479 145.21073309 29.38863148 147.11391107 32.375 149.25 C32.97715332 149.67966064 33.57930664 150.10932129 34.19970703 150.55200195 C41.1313777 155.63683539 47.24608938 161.5639937 53.43164062 167.51269531 C55.27616686 169.26189423 57.1830851 170.92247944 59.125 172.5625 C81.50588531 191.92025919 100.67021193 217.59772187 112 245 C112.84912836 246.8564794 113.70342522 248.71060226 114.5625 250.5625 C119.0561117 260.48764236 122.72971934 270.61164037 126 281 C126.36013184 282.13477783 126.36013184 282.13477783 126.72753906 283.29248047 C134.79825334 309.05668374 137.82786305 333.9063059 137.57647705 360.74682617 C137.55775121 363.68179492 137.57286458 366.6162261 137.58709145 369.55118942 C137.64958472 385.46500846 136.85538497 400.48264346 133 416 C132.64086897 418.12079254 132.30104352 420.24518571 132 422.375 C127.35337488 451.01583588 113.35282355 480.59934076 98 505 C97.24003614 506.23515494 96.48099874 507.47088018 95.72265625 508.70703125 C88.65026637 520.1929137 81.59647159 531.60683012 72.3359375 541.48828125 C70.42123177 543.54707018 68.57780005 545.63738992 66.7421875 547.765625 C57.13811645 558.77752173 46.60995635 569.12179809 35 578 C33.49953125 579.19109375 33.49953125 579.19109375 31.96875 580.40625 C23.95152298 586.74068232 15.59641848 592.48236915 7 598 C5.70835937 598.83144531 5.70835937 598.83144531 4.390625 599.6796875 C-1.34037274 603.23752167 -7.32477727 606.23953675 -13.38061523 609.19775391 C-16.21189446 610.58323644 -18.96022083 611.97608583 -21.6640625 613.6015625 C-24.07320221 615.0438234 -26.46009515 616.13768908 -29.0625 617.1875 C-29.89910156 617.53167969 -30.73570312 617.87585938 -31.59765625 618.23046875 C-34 619 -34 619 -38 619 C-38 619.66 -38 620.32 -38 621 C-69.18896948 631.43934243 -69.18896948 631.43934243 -83 634 C-83.71599365 634.15178711 -84.4319873 634.30357422 -85.16967773 634.45996094 C-146.49490404 647.36794683 -216.32895119 636.01791625 -269.5234375 602.45703125 C-271.56221741 601.25755979 -273.57353654 600.23334258 -275.703125 599.21484375 C-280.55565368 596.81687734 -284.93525927 593.83192338 -289.375 590.75 C-290.21281006 590.1722583 -291.05062012 589.5945166 -291.91381836 588.99926758 C-297.81500851 584.89900434 -303.48315301 580.60553834 -309 576 C-310.74745801 574.60098564 -312.49749401 573.2051857 -314.25 571.8125 C-315.47589844 570.82830078 -315.47589844 570.82830078 -316.7265625 569.82421875 C-318.13307211 568.6956277 -319.54373273 567.57216249 -320.9609375 566.45703125 C-322.34444828 565.34957309 -323.67931009 564.18166992 -325 563 C-325 562.34 -325 561.68 -325 561 C-325.66 561 -326.32 561 -327 561 C-329.54864479 557.17703281 -329.85147565 554.69018 -329.73828125 550.14453125 C-328.16025856 543.42332348 -322.70449324 538.77644282 -318 534 C-316.99670654 532.95779297 -316.99670654 532.95779297 -315.97314453 531.89453125 C-312.51877724 528.30763941 -309.03802924 524.74669995 -305.50390625 521.23828125 C-304.63487671 520.3726355 -304.63487671 520.3726355 -303.74829102 519.48950195 C-300.81829661 516.99321709 -298.58114288 516.06705495 -294.75 515.625 C-286.09374583 516.49062542 -281.61228055 521.18878136 -275.76171875 527.28125 C-270.91735494 532.05024181 -265.50341204 536.0278128 -260 540 C-259.03191406 540.70125 -258.06382812 541.4025 -257.06640625 542.125 C-249.12594058 547.64130722 -240.73307302 551.9115049 -232 556 C-231.27474121 556.34063477 -230.54948242 556.68126953 -229.80224609 557.03222656 C-219.69338179 561.74216421 -209.47657914 565.86428889 -198.88867188 569.36816406 C-197.21477713 569.9281485 -195.55173834 570.52035532 -193.890625 571.1171875 C-178.45026788 576.38651572 -161.27274065 578.58408331 -145 579 C-143.96093506 579.03867188 -143.96093506 579.03867188 -142.90087891 579.078125 C-129.38146561 579.55280267 -116.34557555 578.07954961 -103 576 C-102.16533203 575.87189941 -101.33066406 575.74379883 -100.47070312 575.61181641 C-89.62495107 573.94309448 -89.62495107 573.94309448 -79.15234375 570.74609375 C-77 570 -77 570 -73.6015625 569.24609375 C-67.31407338 567.70785899 -61.40831159 565.08452131 -55.4375 562.625 C-54.24447266 562.14289062 -53.05144531 561.66078125 -51.82226562 561.1640625 C-45.95778705 558.76480945 -40.40909133 556.29770973 -35 553 C-33.23113467 552.05879206 -31.46042301 551.12104216 -29.6875 550.1875 C-24.15168086 547.17070483 -19.07123758 543.73670138 -14 540 C-12.54400391 538.92878906 -12.54400391 538.92878906 -11.05859375 537.8359375 C-8.02173192 535.57865323 -4.99270823 533.31537376 -2 531 C-1.25532471 530.42668945 -0.51064941 529.85337891 0.2565918 529.26269531 C15.66083605 517.19871453 28.88261517 503.11920068 39.74560547 486.86523438 C41.39723877 484.40932187 43.13868096 482.02150188 44.875 479.625 C55.37457702 464.40189689 64.46867252 446.97235371 69 429 C69.48500717 427.19252844 69.97075657 425.38525597 70.45703125 423.578125 C75.31456463 405.19834938 78.44864136 387.01268369 79 368 C79.04125 366.69804687 79.0825 365.39609375 79.125 364.0546875 C79.49035267 341.08313839 75.2937654 318.71606528 68 297 C67.69449219 295.9790625 67.38898438 294.958125 67.07421875 293.90625 C64.38448184 285.09054842 60.27004892 277.13018869 56 269 C55.65356445 268.33468262 55.30712891 267.66936523 54.95019531 266.98388672 C46.06915956 249.94585818 36.38132734 233.90767305 23 220 C22.47841309 219.44199707 21.95682617 218.88399414 21.41943359 218.30908203 C12.66076893 208.95871649 3.48955914 201.24805923 -7.19970703 194.18945312 C-8.69563141 193.20109625 -10.17609117 192.18938046 -11.65234375 191.171875 C-20.04840862 185.40242717 -28.85742021 180.41360793 -38.0625 176.0625 C-38.70590332 175.75578369 -39.34930664 175.44906738 -40.01220703 175.13305664 C-42.86495958 173.81520487 -44.81830729 173 -48 173 C-51.48118724 181.34115932 -54.9502532 189.6615446 -57.96875 198.18359375 C-59.50175899 202.37033422 -61.17915748 206.49688758 -62.84643555 210.6315918 C-64.63243117 215.06469833 -66.35206971 219.51396753 -68 224 C-67.1234375 224.26039063 -66.246875 224.52078125 -65.34375 224.7890625 C-62.0195195 225.99293102 -59.44558331 227.43667075 -56.5 229.375 C-55.55511719 229.99503906 -54.61023438 230.61507812 -53.63671875 231.25390625 C-52.76660156 231.83011719 -51.89648438 232.40632812 -51 233 C-50.32582031 233.42152344 -49.65164063 233.84304688 -48.95703125 234.27734375 C-47.60204202 235.13024671 -46.29333341 236.05621616 -45 237 C-45 237.66 -45 238.32 -45 239 C-44.28199219 239.24621094 -43.56398438 239.49242187 -42.82421875 239.74609375 C-37.51284414 242.10425592 -33.38372154 246.24843238 -29 250 C-28.14664062 250.70511719 -27.29328125 251.41023437 -26.4140625 252.13671875 C-20.11148026 257.51478971 -15.14977597 263.44593389 -10.32983398 270.15112305 C-9.35453558 271.50708684 -8.36190818 272.85063081 -7.35961914 274.18676758 C-2.59441344 280.69538922 0.8736248 287.47371005 4.1875 294.8125 C4.69474609 295.89853516 5.20199219 296.98457031 5.72460938 298.10351562 C9.14546575 305.57970627 11.7401497 313.10148037 14 321 C14.37125 322.175625 14.7425 323.35125 15.125 324.5625 C25.97156736 367.17401464 18.72279593 409.72819289 -3.24560547 447.12011719 C-5.83037679 451.36401188 -8.64841218 455.20643988 -11.875 459 C-12.31134766 459.5141748 -12.74769531 460.02834961 -13.19726562 460.55810547 C-14.46012897 462.04276036 -15.72988798 463.52154153 -17 465 C-17.61101562 465.72445313 -18.22203125 466.44890625 -18.8515625 467.1953125 C-20.53357318 469.16430131 -22.25203073 471.08934095 -24 473 C-24.67804688 473.74378906 -25.35609375 474.48757813 -26.0546875 475.25390625 C-33.59910638 483.16665535 -42.19825852 489.56138882 -51 496 C-52.00933594 496.75539063 -53.01867187 497.51078125 -54.05859375 498.2890625 C-65.42840476 506.38501304 -78.75454122 511.77924795 -92 516 C-92.76449463 516.25974609 -93.52898926 516.51949219 -94.31665039 516.78710938 C-125.89970569 527.40326242 -163.49130088 524.22651019 -194 512 C-194.81339844 511.67950684 -195.62679687 511.35901367 -196.46484375 511.02880859 C-199.024963 510.01421034 -201.57638342 508.98063174 -204.125 507.9375 C-204.90697754 507.62135742 -205.68895508 507.30521484 -206.49462891 506.97949219 C-210.90832298 505.12259824 -214.66096092 502.99829455 -218.48535156 500.11791992 C-220.33180918 498.75510086 -222.26447021 497.71748003 -224.3125 496.6875 C-232.65671893 492.14767919 -245.70424938 483.59150124 -250 475 C-251.20644516 469.82802205 -250.74771776 466.21539675 -247.9453125 461.66015625 C-245.85726429 458.86162205 -243.64001638 456.18111678 -241.34228516 453.55273438 C-239.94689149 451.93856491 -238.62379399 450.27693861 -237.29296875 448.609375 C-236.53628906 447.74828125 -235.77960938 446.8871875 -235 446 C-234.34 446 -233.68 446 -233 446 C-232.62875 445.13375 -232.62875 445.13375 -232.25 444.25 C-230.81700012 441.67060021 -229.21575324 439.93878408 -227 438 C-226.34 438 -225.68 438 -225 438 C-225 437.34 -225 436.68 -225 436 C-219.62612974 434.27090748 -215.34817774 433.35649379 -210.0703125 435.6953125 C-207.56121946 437.27651453 -205.58356068 439.14059724 -203.4375 441.1875 C-197.34893426 446.96552065 -190.44801777 450.30961648 -183 454 C-182.27039063 454.41121094 -181.54078125 454.82242187 -180.7890625 455.24609375 C-169.78054891 461.42336011 -157.51258098 462.62631972 -145.16601562 462.41162109 C-143.00081965 462.37501386 -140.83734967 462.37060471 -138.671875 462.37109375 C-112.83396551 462.24377376 -92.87176384 455.73368989 -73.54492188 438.37304688 C-71.59126391 436.63673644 -69.57409257 434.98103027 -67.5625 433.3125 C-63.42102443 429.67435942 -60.25601508 425.42326576 -57 421 C-56.4740625 420.34 -55.948125 419.68 -55.40625 419 C-38.91071126 398.12809384 -38.19915593 371.9107384 -40.20214844 346.42822266 C-42.58431207 326.55738222 -54.26669896 306.46960307 -69.63671875 293.83203125 C-71.19945587 292.64219216 -72.77947736 291.47438367 -74.3828125 290.33984375 C-74.91648437 289.89769531 -75.45015625 289.45554687 -76 289 C-76 288.34 -76 287.68 -76 287 C-76.721875 286.7525 -77.44375 286.505 -78.1875 286.25 C-81.25614204 284.88615909 -83.38693577 283.09045139 -86 281 C-88.6794645 279.75983331 -88.6794645 279.75983331 -91 279 C-91.10441406 279.83402344 -91.20882813 280.66804688 -91.31640625 281.52734375 C-92.0833045 285.42318684 -93.4130842 288.91779365 -94.9375 292.5625 C-95.20240234 293.20896484 -95.46730469 293.85542969 -95.74023438 294.52148438 C-96.86259654 297.25915686 -97.98905535 299.97684917 -99.25390625 302.65234375 C-100.22550649 305.709578 -100.1814222 306.99646125 -99 310 C-97.0953845 312.29901322 -94.93955617 314.28811459 -92.75 316.3125 C-88.02830445 320.86465303 -83.89780945 325.04210377 -81 331 C-80.57460938 331.82757813 -80.14921875 332.65515625 -79.7109375 333.5078125 C-71.88145104 349.57886366 -70.35365919 367.23059299 -75.609375 384.3671875 C-79.50550189 394.54527179 -84.63059943 404.7504488 -93 412 C-93.66 412 -94.32 412 -95 412 C-95.39058594 412.89912109 -95.39058594 412.89912109 -95.7890625 413.81640625 C-100.23432453 421.83221746 -111.2387452 425.23784124 -119.46484375 427.75390625 C-137.07168955 431.94322231 -152.67187622 427.62902852 -168 419 C-170.0147446 417.68905302 -172.01661205 416.35792121 -174 415 C-174.66644531 414.5771875 -175.33289063 414.154375 -176.01953125 413.71875 C-187.7266911 405.760942 -194.7191335 392.51181348 -198 379 C-200.89972819 361.47089164 -198.82278756 344.04696657 -189 329 C-176.76513782 313.12316388 -176.76513782 313.12316388 -169 311 C-169 310.34 -169 309.68 -169 309 C-156.47550151 301.53859664 -142.24031471 300.31002513 -128 301 C-127.814375 299.741875 -127.62875 298.48375 -127.4375 297.1875 C-125.17243846 285.84612803 -120.23732144 274.98097524 -115.875 264.3125 C-113.77803138 259.16185558 -112.02468385 254.00886736 -110.4375 248.6875 C-108.83079699 243.31392843 -106.89283909 238.41593755 -104.24609375 233.46875 C-102.29261002 229.59852518 -100.84117242 225.55562645 -99.3203125 221.5 C-97.90606127 217.75097899 -96.43160576 214.03019495 -94.9375 210.3125 C-94.68250732 209.67642822 -94.42751465 209.04035645 -94.16479492 208.38500977 C-93.07150434 205.65974158 -91.97413232 202.93618113 -90.87109375 200.21484375 C-89.21042911 196.10551282 -87.62005452 191.98517266 -86.125 187.8125 C-84.27739865 182.6697671 -82.25545007 177.60422399 -80.20703125 172.53930664 C-78.76811216 168.96686462 -77.40021795 165.38380689 -76.125 161.75 C-73.38614654 154.07430564 -70.07894814 146.62095156 -66.89697266 139.12158203 C-64.32377195 133.03526897 -61.9519689 126.94965993 -59.90625 120.66796875 C-56.71692746 111.27871318 -53.07670767 102.05216031 -49.21484375 92.921875 C-47.0270342 87.65987647 -45.0251107 82.32623158 -43 77 C-40.4010706 70.18930076 -37.77257891 63.39231914 -35.0625 56.625 C-34.68448242 55.6800769 -34.68448242 55.6800769 -34.29882812 54.71606445 C-33.05469917 51.6116778 -31.80006759 48.51239889 -30.53125 45.41796875 C-27.60547395 38.23581105 -24.94745541 31.02345828 -22.4375 23.6875 C-13.04852146 -3.46565009 -13.04852146 -3.46565009 0 0 Z " fill="#A40A14" transform="translate(588,137)"/>
<path d="M0 0 C1.49747542 -0.00461467 2.99494538 -0.01142069 4.49240214 -0.02020609 C8.60383222 -0.0379896 12.71466078 -0.02471241 16.82606644 -0.00631597 C21.30025905 0.00818393 25.77437334 -0.00636415 30.24856329 -0.01720095 C38.08900236 -0.03217967 45.92926221 -0.02857327 53.76969719 -0.01278305 C65.42861938 0.0106328 77.08740648 0.00543716 88.74634077 -0.00549195 C109.56850543 -0.02408539 130.39058459 -0.01436033 151.21274228 0.00698569 C169.43442444 0.02553408 187.65607786 0.0339651 205.87776947 0.0324173 C207.08591157 0.03232562 208.29405366 0.03223395 209.53880612 0.03213949 C214.44290558 0.03174634 219.34700502 0.03129672 224.25110446 0.0307681 C270.26622924 0.02589571 316.28130303 0.04856787 362.29641195 0.08472433 C403.18847597 0.1167182 444.08049642 0.12876798 484.97257233 0.12264252 C487.59819442 0.12225567 490.22381651 0.12186922 492.84943861 0.12148315 C494.79651427 0.12119613 494.79651427 0.12119613 496.7829248 0.12090331 C503.31698363 0.11994899 509.85104247 0.11903462 516.38510132 0.11816406 C517.67413888 0.11799027 518.96317643 0.11781647 520.29127574 0.11763741 C554.44869945 0.11328332 588.60611846 0.12329422 622.76353884 0.13800192 C624.58590901 0.13878213 624.58590901 0.13878213 626.44509474 0.13957811 C627.65780491 0.14009745 628.87051508 0.14061679 630.11997405 0.14115188 C631.33048019 0.14166962 632.54098633 0.14218736 633.78817447 0.14272078 C636.22604642 0.14376888 638.66391838 0.14482909 641.10179032 0.1459015 C658.1059414 0.1532857 675.11008582 0.15536966 692.11423831 0.1539075 C714.02612244 0.15206273 735.93796553 0.16011204 757.84983623 0.18554896 C769.44107859 0.19872455 781.03225541 0.20371865 792.62350365 0.19691042 C800.36232152 0.19320373 808.10107948 0.20038662 815.83988133 0.21650281 C820.25159296 0.22539202 824.66316958 0.22955353 829.07488412 0.22057563 C833.08962323 0.21251001 837.10409773 0.21827388 841.11880796 0.23499252 C842.56085487 0.23859508 844.0029253 0.23720406 845.44495947 0.23015337 C854.61777817 0.18876602 862.83078298 0.6610039 870.9759903 5.18611908 C878.31209403 13.36063467 878.8850935 21.87903902 878.78710938 32.46012878 C878.79172405 33.9576042 878.79853006 35.45507417 878.80731547 36.95253092 C878.82509897 41.06396101 878.81182179 45.17478957 878.79342534 49.28619523 C878.77892545 53.76038784 878.79347352 58.23450212 878.80431032 62.70869207 C878.81928905 70.54913115 878.81568264 78.38939099 878.79989243 86.22982597 C878.77647657 97.88874816 878.78167222 109.54753526 878.79260132 121.20646955 C878.81119477 142.02863422 878.8014697 162.85071338 878.78012369 183.67287107 C878.7615753 201.89455322 878.75314427 220.11620665 878.75469208 238.33789825 C878.75482959 240.1501114 878.75482959 240.1501114 878.75496988 241.99893491 C878.75536303 246.90303436 878.75581265 251.80713381 878.75634127 256.71123325 C878.76121367 302.72635802 878.73854151 348.74143181 878.70238505 394.75654074 C878.67039117 435.64860475 878.65834139 476.54062521 878.66446686 517.43270111 C878.6648537 520.0583232 878.66524016 522.6839453 878.66562623 525.30956739 C878.66581757 526.60761783 878.66600892 527.90566828 878.66620606 529.24305358 C878.66716039 535.77711242 878.66807476 542.31117126 878.66894531 548.8452301 C878.669206 550.77878644 878.669206 550.77878644 878.66947196 552.75140452 C878.67382605 586.90882823 878.66381515 621.06624724 878.64910746 655.22366762 C878.64858731 656.43858107 878.64806717 657.65349452 878.64753127 658.90522352 C878.64675225 660.72428878 878.64675225 660.72428878 878.6459575 662.58010283 C878.64543976 663.79060897 878.64492202 665.00111511 878.64438859 666.24830325 C878.6433405 668.68617521 878.64228029 671.12404716 878.64120787 673.5619191 C878.63382368 690.56607018 878.63173972 707.57021461 878.63320187 724.57436709 C878.63504664 746.48625123 878.62699733 768.39809431 878.60156041 790.30996501 C878.58838482 801.90120737 878.58339072 813.49238419 878.59019895 825.08363244 C878.59390564 832.8224503 878.58672276 840.56120826 878.57060657 848.30001012 C878.56171735 852.71172174 878.55755585 857.12329836 878.56653374 861.5350129 C878.57459936 865.54975201 878.5688355 869.56422651 878.55211686 873.57893675 C878.5485143 875.02098365 878.54990531 876.46305409 878.55695601 877.90508825 C878.59834335 887.07790696 878.12610547 895.29091176 873.6009903 903.43611908 C865.4264747 910.77222282 856.90807036 911.34522229 846.32698059 911.24723816 C844.82950518 911.25185283 843.33203521 911.25865884 841.83457845 911.26744425 C837.72314837 911.28522776 833.61231981 911.27195057 829.50091415 911.25355413 C825.02672154 911.23905423 820.55260725 911.25360231 816.0784173 911.26443911 C808.23797823 911.27941783 800.39771839 911.27581143 792.5572834 911.26002121 C780.89836121 911.23660536 769.23957411 911.241801 757.58063982 911.25273011 C736.75847516 911.27132355 715.936396 911.26159848 695.11423831 911.24025247 C676.89255615 911.22170408 658.67090273 911.21327306 640.44921112 911.21482086 C639.24106903 911.21491254 638.03292693 911.21500421 636.78817447 911.21509867 C631.88407501 911.21549182 626.97997557 911.21594144 622.07587613 911.21647006 C576.06075135 911.22134245 530.04567756 911.19867029 484.03056864 911.16251383 C443.13850463 911.13051996 402.24648417 911.11847018 361.35440826 911.12459564 C358.72878617 911.12498249 356.10316408 911.12536894 353.47754198 911.12575501 C351.53046632 911.12604203 351.53046632 911.12604203 349.5440558 911.12633485 C343.00999696 911.12728917 336.47593812 911.12820354 329.94187927 911.1290741 C328.65284171 911.12924789 327.36380416 911.12942168 326.03570485 911.12960074 C291.87828114 911.13395483 257.72086213 911.12394394 223.56344175 911.10923624 C222.34852831 911.1087161 221.13361486 911.10819596 219.88188585 911.10766005 C218.66917568 911.10714071 217.45646551 911.10662137 216.20700654 911.10608628 C214.9965004 911.10556854 213.78599427 911.1050508 212.53880612 911.10451737 C210.10093417 911.10346928 207.66306222 911.10240907 205.22519027 911.10133665 C188.22103919 911.09395246 171.21689477 911.0918685 154.21274228 911.09333066 C132.30085815 911.09517542 110.38901506 911.08712612 88.47714436 911.0616892 C76.885902 911.04851361 65.29472518 911.0435195 53.70347694 911.05032774 C45.96465907 911.05403443 38.22590111 911.04685154 30.48709926 911.03073535 C26.07538764 911.02184614 21.66381101 911.01768463 17.25209647 911.02666253 C13.23735736 911.03472814 9.22288286 911.02896428 5.20817263 911.01224564 C3.76612572 911.00864308 2.32405529 911.0100341 0.88202112 911.01708479 C-8.29079758 911.05847213 -16.50380239 910.58623426 -24.6490097 906.06111908 C-31.98511344 897.88660349 -32.55811291 889.36819914 -32.46012878 878.78710938 C-32.46474345 877.28963396 -32.47154947 875.79216399 -32.48033488 874.29470724 C-32.49811838 870.18327715 -32.4848412 866.07244859 -32.46644475 861.96104293 C-32.45194485 857.48685032 -32.46649293 853.01273604 -32.47732973 848.53854609 C-32.49230846 840.69810701 -32.48870205 832.85784717 -32.47291183 825.01741219 C-32.44949598 813.35849 -32.45469163 801.69970289 -32.46562073 790.04076861 C-32.48421418 769.21860394 -32.47448911 748.39652478 -32.4531431 727.57436709 C-32.43459471 709.35268494 -32.42616368 691.13103151 -32.42771149 672.9093399 C-32.42780316 671.70119781 -32.42789484 670.49305571 -32.42798929 669.24830325 C-32.42838244 664.3442038 -32.42883206 659.44010435 -32.42936068 654.53600491 C-32.43423308 608.52088014 -32.41156092 562.50580635 -32.37540445 516.49069742 C-32.34341058 475.59863341 -32.3313608 434.70661295 -32.33748627 393.81453705 C-32.33787311 391.18891495 -32.33825957 388.56329286 -32.33864564 385.93767077 C-32.33883698 384.63962033 -32.33902833 383.34156988 -32.33922547 382.00418458 C-32.3401798 375.47012574 -32.34109416 368.9360669 -32.34196472 362.40200806 C-32.34213852 361.1129705 -32.34231231 359.82393294 -32.34249137 358.49583364 C-32.34684546 324.33840992 -32.33683456 290.18099092 -32.32212687 256.02357054 C-32.32160672 254.80865709 -32.32108658 253.59374364 -32.32055068 252.34201463 C-32.32003133 251.12930446 -32.31951199 249.91659429 -32.31897691 248.66713533 C-32.3182003 246.85137612 -32.3182003 246.85137612 -32.317408 244.99893491 C-32.31635991 242.56106295 -32.3152997 240.123191 -32.31422728 237.68531905 C-32.30684309 220.68116797 -32.30475912 203.67702355 -32.30622128 186.67287107 C-32.30806605 164.76098693 -32.30001674 142.84914385 -32.27457982 120.93727314 C-32.26140423 109.34603079 -32.25641013 97.75485397 -32.26321836 86.16360572 C-32.26692505 78.42478786 -32.25974216 70.6860299 -32.24362598 62.94722804 C-32.23473676 58.53551642 -32.23057525 54.1239398 -32.23955315 49.71222526 C-32.24761877 45.69748615 -32.2418549 41.68301164 -32.22513627 37.66830141 C-32.22153371 36.22625451 -32.22292472 34.78418407 -32.22997542 33.34214991 C-32.27136276 24.1693312 -31.79912488 15.9563264 -27.2740097 7.81111908 C-19.09949411 0.47501534 -10.58108977 -0.09798413 0 0 Z M9.1634903 41.62361908 C9.1634903 314.86361908 9.1634903 588.10361908 9.1634903 869.62361908 C282.4034903 869.62361908 555.6434903 869.62361908 837.1634903 869.62361908 C837.1634903 596.38361908 837.1634903 323.14361908 837.1634903 41.62361908 C563.9234903 41.62361908 290.6834903 41.62361908 9.1634903 41.62361908 Z " fill="#A50B15" transform="translate(88.83650970458984,56.376380920410156)"/>
</svg>
