<svg xmlns="http://www.w3.org/2000/svg" width="1024" height="1024"><path d="M88.837 56.376q2.245-.006 4.492-.02c4.111-.018 8.222-.004 12.334.014 4.474.015 8.948 0 13.422-.01q11.76-.022 23.521.004c11.66.023 23.318.018 34.977.007 20.822-.019 41.644-.009 62.466.012q27.333.028 54.665.026h3.661l14.713-.002c46.015-.005 92.03.018 138.045.054a131599 131599 0 0 0 130.553.037h3.933q9.802-.003 19.603-.003l3.906-.001a183623 183623 0 0 1 109.828.024l3.669.001 7.313.003q25.507.011 51.013.008 32.868-.005 65.735.032 17.388.02 34.774.011 11.609-.004 23.216.02c4.412.009 8.824.013 13.235.004q6.023-.011 12.044.014 2.163.006 4.326-.004c9.173-.042 17.386.43 25.532 4.956 7.336 8.174 7.909 16.692 7.81 27.274q.008 2.245.02 4.492c.019 4.111.005 8.222-.013 12.334-.015 4.474 0 8.948.01 13.422.016 7.84.012 15.68-.004 23.521-.023 11.66-.018 23.318-.007 34.977.019 20.822.009 41.644-.012 62.466a49566 49566 0 0 0-.026 58.326l.002 14.713c.005 46.015-.018 92.03-.054 138.045a131599 131599 0 0 0-.037 130.553v3.933q.003 9.802.003 19.603l.001 3.906a183623 183623 0 0 1-.022 106.154l-.002 3.674-.004 10.982q-.012 25.506-.008 51.013c.002 21.912-.006 43.823-.032 65.735q-.02 17.388-.011 34.774.004 11.609-.02 23.216-.016 6.618-.004 13.235.011 6.023-.014 12.044a586 586 0 0 0 .004 4.326c.042 9.173-.43 17.386-4.955 25.532-8.175 7.336-16.693 7.909-27.275 7.81q-2.245.008-4.492.02c-4.111.019-8.222.005-12.334-.013-4.474-.015-8.948 0-13.422.01-7.84.016-15.68.012-23.521-.004-11.66-.023-23.318-.018-34.977-.007a32566 32566 0 0 1-62.466-.012q-27.333-.028-54.665-.026h-3.661l-14.713.002c-46.015.005-92.03-.018-138.045-.054a131599 131599 0 0 0-130.553-.037h-3.933l-23.509.004c-34.157.004-68.315-.006-102.472-.02l-3.682-.002-3.674-.002-10.982-.004q-25.507-.011-51.013-.008c-21.912.002-43.823-.006-65.735-.032q-17.388-.02-34.774-.011-11.609.004-23.216-.02-6.618-.015-13.235-.004-6.023.011-12.044-.014a586 586 0 0 0-4.326.004c-9.173.042-17.386-.43-25.531-4.955-7.337-8.175-7.91-16.693-7.812-27.275q-.006-2.245-.02-4.492c-.018-4.111-.004-8.222.014-12.334.015-4.474 0-8.948-.01-13.422q-.022-11.76.004-23.521c.023-11.66.018-23.318.007-34.977-.019-20.822-.009-41.644.012-62.466q.028-27.333.026-54.665v-3.661l-.002-14.713c-.005-46.015.018-92.03.054-138.045a131599 131599 0 0 0 .037-130.553v-3.933q-.003-9.802-.003-19.603l-.001-3.906a183623 183623 0 0 1 .022-106.154l.002-3.674.001-3.669.003-7.313q.011-25.507.008-51.013-.005-32.868.032-65.735.02-17.388.011-34.774-.004-11.609.02-23.216c.009-4.412.013-8.824.004-13.235q-.011-6.023.014-12.044a586 586 0 0 0-.004-4.326c-.042-9.173.43-17.386 4.956-25.531 8.174-7.337 16.692-7.91 27.274-7.812"/><path fill="#a40a14" d="m588 137 2.348.613C612.18 143.807 633.385 153.666 653 165l2.715 1.543c16.521 9.487 31.777 20.341 46.68 32.189a398 398 0 0 0 4.19 3.256c16.83 13.056 33.314 28.762 46.438 45.535 2.095 2.625 4.32 5.075 6.602 7.54 3.665 4.017 6.829 8.205 9.867 12.71a79 79 0 0 0 3.203 4.391C774 274 774 274 774 276h2a114 114 0 0 1 4.25 6.438q1.218 1.941 2.438 3.882l1.199 1.92c1.406 2.224 2.878 4.4 4.363 6.572 4.991 7.474 8.94 15.463 12.896 23.516A137 137 0 0 0 807 329a235 235 0 0 1 3 7l1.09 2.59q1.28 3.049 2.543 6.105a606 606 0 0 0 2.672 6.36c11.572 27.786 19.473 56.45 23.11 86.343.42 3.452.983 6.825 1.71 10.227 3.27 17.405 2.034 35.925 2.005 53.58q-.006 5.43.004 10.86.005 4.224 0 8.447 0 2.971.005 5.942l-.01 3.626-.002 3.182c-.113 2.435-.48 4.405-1.127 6.738a419 419 0 0 0-.595 5.937c-2.56 27.965-9.172 54.575-18.362 81.047a634 634 0 0 0-2.606 7.703c-2.761 8.23-6.002 16.216-9.437 24.188l-1.222 2.847c-2.91 6.636-6.25 12.953-9.778 19.278q-1.473 2.748-2.937 5.5c-2.547 4.669-5.319 9.146-8.208 13.61-2.018 3.144-3.97 6.325-5.918 9.515-3.2 5.208-6.456 10.35-9.937 15.375-.605.873-1.21 1.745-1.832 2.645-3.98 5.613-8.222 10.772-12.887 15.828-2.335 2.587-4.532 5.25-6.718 7.965-3.902 4.82-7.998 9.418-12.204 13.976-2.682 2.94-5.252 5.962-7.789 9.027C730 776 730 776 727.93 776.965c-2.445 1.311-2.81 2.546-3.93 5.035-4.695 5.625-10.66 10.11-16.35 14.667a488 488 0 0 0-5.318 4.376c-8.877 7.354-18.021 14.158-27.514 20.697-2.336 1.619-4.636 3.286-6.943 4.947-9.808 6.85-20.328 12.695-30.875 18.313q-1.778.966-3.555 1.934c-11.293 6.127-22.709 11.532-34.78 15.955-3.49 1.28-6.917 2.612-10.29 4.173-8.627 3.952-17.688 6.923-26.875 9.262a80 80 0 0 0-5.367 1.672c-3.406 1.091-6.737 1.754-10.258 2.379-5.298.95-10.573 1.97-15.839 3.084-22.646 4.713-44.636 6.03-67.697 5.932-4.03-.017-8.06-.007-12.09.01-16.855.062-33.24-.339-49.92-3.06-3.19-.467-6.385-.738-9.6-.984-13.654-1.066-27.254-4.399-40.19-8.86-3.411-1.176-6.826-2.082-10.336-2.919-6.311-1.539-12.357-3.595-18.453-5.828l-3.304-1.203C304.138 861.281 290.57 854.921 277 848q-3-1.503-6-3v-2l-2.133-.293c-3.365-.83-5.781-2.224-8.742-4.02l-2.992-1.8L254 835l-3.473-1.977c-10.705-6.095-20.43-13.096-30-20.813-2.088-1.655-4.242-3.213-6.402-4.773L211 805v-2l-1.684-.75c-9.25-4.991-22.671-15.712-27.316-25.25-1.064-4.212-1.012-7.774 0-12 2.59-3.939 5.767-7.064 9.185-10.267 2.033-1.941 3.983-3.95 5.932-5.975q2.128-2.193 4.258-4.383l2.053-2.12c4.22-4.244 7.344-6.753 13.385-7.692 7.73 1.06 13.185 7.12 18.312 12.562 6.333 6.522 12.954 12.232 20.24 17.655a379 379 0 0 1 4.65 3.544C286.42 788.551 316.822 805.176 349 814l6.938 2 3.476.973q3.693 1.06 7.36 2.21c15.536 4.863 31.951 8.97 48.271 9.612 2.76.191 5.275.639 7.978 1.205 9.36 1.6 18.823 1.35 28.29 1.313l3.018-.008c30.59-.118 61.73-2.453 90.826-12.675 2.474-.846 4.981-1.432 7.53-2.005C562.84 814.152 572.543 810.407 582 806l2.43-1.078c15.806-7.002 15.806-7.002 30.699-15.719 2.267-1.458 4.612-2.767 6.955-4.097 5.416-3.127 10.678-6.52 15.96-9.867q2.548-1.611 5.1-3.212C655.679 763.952 667.109 754.15 678 744l1.845-1.712q6.234-5.791 12.41-11.643c1.39-1.31 2.792-2.605 4.198-3.895 4.483-4.228 7.976-8.988 11.47-14.035 3.952-5.67 8.275-10.992 12.699-16.297 2.268-2.737 4.317-5.315 6.132-8.383L728 686h2l.335-1.686c2.237-7.789 7.66-15.069 11.765-22.002 11.195-18.917 19.618-37.18 25.9-58.312l1.219-4.031c2.495-8.304 4.788-16.631 6.812-25.063.602-2.49 1.269-4.915 2-7.375 5.897-20.55 6.378-43.262 6.969-64.531l.125-3.477c.154-7.911-.42-15.76-1-23.648l-.238-3.288a198 198 0 0 0-2.423-18.863c-.611-3.587-1.009-7.17-1.402-10.786-.655-5.64-1.714-10.981-3.343-16.422-.725-2.536-1.242-5.048-1.719-7.641-.765-4.036-1.916-7.783-3.281-11.652-.734-2.27-1.245-4.511-1.719-6.848-.85-4.059-2.306-7.581-4-11.375a203 203 0 0 1-1.312-4c-8.436-25.93-21.624-50.211-37.652-72.178-2.094-2.899-3.877-5.42-5.2-8.76L721 302l-3-1c-1.762-2.152-1.762-2.152-3.687-4.937-9.894-13.92-21.215-26.095-34.313-37.063l-2.809-2.437c-12.913-11.17-26.542-21.136-41.011-30.195a919 919 0 0 1-6.586-4.184c-9.837-6.22-19.908-11.466-30.516-16.246a498 498 0 0 1-5.578-2.57c-5.595-2.621-5.595-2.621-11.5-4.368l-1.125 3.438c-7.07 21.107-7.07 21.107-11.637 30.792-1.508 3.375-2.838 6.802-4.113 10.27l-1.305 3.531c-1.123 2.99-1.123 2.99.18 5.969 1.587 1.084 1.587 1.084 3.57 1.902l2.22 1.01 2.335 1.025c5.473 2.449 10.715 5.004 15.875 8.063l2.484 1.457q3.768 2.256 7.516 4.543l3.086 1.871 3.039 1.879 2.82 1.734L609 278v2l2.102.734c3.38 1.477 6.287 3.38 9.273 5.516l1.825 1.302c6.931 5.085 13.046 11.012 19.232 16.96 1.844 1.75 3.751 3.41 5.693 5.05C669.505 328.92 688.67 354.599 700 382q1.274 2.784 2.563 5.563c4.493 9.925 8.167 20.049 11.437 30.437l.728 2.292c8.07 25.765 11.1 50.614 10.848 77.455-.018 2.935-.003 5.87.011 8.804.063 15.914-.732 30.932-4.587 46.449-.36 2.12-.699 4.245-1 6.375-4.647 28.64-18.647 58.224-34 82.625q-1.14 1.852-2.277 3.707c-7.073 11.486-14.127 22.9-23.387 32.781a224 224 0 0 0-5.594 6.278C645.138 695.778 634.61 706.122 623 715l-3.031 2.406C611.952 723.741 603.596 729.482 595 735l-2.61 1.68c-5.73 3.558-11.715 6.56-17.77 9.518-2.832 1.385-5.58 2.778-8.284 4.404-2.41 1.442-4.796 2.536-7.399 3.586l-2.535 1.042C554 756 554 756 550 756v2c-31.189 10.44-31.189 10.44-45 13l-2.17.46c-61.325 12.908-131.159 1.558-184.353-32.003-2.04-1.2-4.05-2.224-6.18-3.242-4.853-2.398-9.232-5.383-13.672-8.465l-2.539-1.75A242 242 0 0 1 279 713a1857 1857 0 0 0-5.25-4.187l-2.477-1.989a568 568 0 0 0-4.234-3.367c-1.383-1.107-2.718-2.275-4.039-3.457v-2h-2c-2.549-3.823-2.851-6.31-2.738-10.855 1.578-6.722 7.034-11.369 11.738-16.145l2.027-2.105a665 665 0 0 1 10.47-10.657l1.755-1.748c2.93-2.497 5.167-3.423 8.998-3.865 8.656.866 13.138 5.564 18.988 11.656 4.845 4.77 10.259 8.747 15.762 12.719l2.934 2.125c7.94 5.516 16.333 9.787 25.066 13.875l2.198 1.032c10.109 4.71 20.325 8.832 30.913 12.336 1.674.56 3.337 1.152 4.998 1.75 15.44 5.269 32.618 7.466 48.891 7.882l2.1.078c13.519.475 26.554-.998 39.9-3.078l2.53-.388c10.845-1.669 10.845-1.669 21.318-4.866 2.152-.746 2.152-.746 5.55-1.5 6.288-1.538 12.194-4.161 18.164-6.621l3.616-1.46c5.864-2.4 11.413-4.867 16.822-8.165q2.653-1.412 5.313-2.812c5.535-3.017 10.616-6.451 15.687-10.188l2.941-2.164c3.037-2.257 6.066-4.52 9.059-6.836l2.257-1.737c15.404-12.064 28.626-26.144 39.489-42.398 1.651-2.456 3.393-4.843 5.129-7.24 10.5-15.223 19.594-32.653 24.125-50.625q.727-2.711 1.457-5.422c4.858-18.38 7.992-36.565 8.543-55.578l.125-3.945c.365-22.972-3.831-45.339-11.125-67.055l-.926-3.094C652.384 422.091 648.27 414.13 644 406l-1.05-2.016C634.07 386.946 624.381 370.908 611 357l-1.58-1.69c-8.76-9.351-17.93-17.062-28.62-24.12-1.496-.989-2.976-2-4.452-3.018-8.396-5.77-17.205-10.758-26.41-15.11l-1.95-.929C545.135 310.815 543.182 310 540 310c-3.481 8.341-6.95 16.662-9.969 25.184-1.533 4.186-3.21 8.313-4.877 12.448A463 463 0 0 0 520 361c.877.26 1.753.52 2.656.79 3.324 1.203 5.898 2.647 8.844 4.585l2.863 1.879L537 370l2.043 1.277c1.355.853 2.664 1.78 3.957 2.723v2l2.176.746c5.311 2.358 9.44 6.502 13.824 10.254l2.586 2.137c6.303 5.378 11.264 11.309 16.084 18.014.975 1.356 1.968 2.7 2.97 4.036 4.766 6.508 8.234 13.287 11.548 20.625l1.537 3.292C597.145 442.58 599.74 450.1 602 458l1.125 3.563c10.847 42.611 3.598 85.165-18.37 122.557-2.585 4.244-5.403 8.086-8.63 11.88l-1.322 1.558A1195 1195 0 0 1 571 602l-1.852 2.195A228 228 0 0 1 564 610l-2.055 2.254C554.401 620.167 545.802 626.56 537 633c-1.01.755-2.019 1.51-3.059 2.29-11.37 8.095-24.696 13.49-37.941 17.71l-2.317.787C462.1 664.403 424.51 661.227 394 649l-2.465-.971a739 739 0 0 1-7.66-3.091l-2.37-.959c-4.413-1.856-8.166-3.98-11.99-6.861-1.847-1.363-3.78-2.4-5.827-3.43-8.345-4.54-21.392-13.096-25.688-21.688-1.206-5.172-.748-8.785 2.055-13.34 2.088-2.798 4.305-5.479 6.603-8.107 1.395-1.614 2.718-3.276 4.049-4.944L353 583h2l.75-1.75c1.433-2.58 3.034-4.311 5.25-6.25h2v-2c5.374-1.73 9.652-2.644 14.93-.305 2.509 1.582 4.486 3.446 6.632 5.492 6.09 5.779 12.99 9.123 20.438 12.813.73.411 1.46.822 2.21 1.246 11.01 6.177 23.277 7.38 35.624 7.166a379 379 0 0 1 6.494-.04c25.838-.128 45.8-6.638 65.127-23.999 1.954-1.736 3.97-3.392 5.982-5.06 4.142-3.639 7.307-7.89 10.563-12.313l1.594-2c16.495-20.872 17.207-47.09 15.204-72.572-2.382-19.87-14.065-39.958-29.435-52.596a169 169 0 0 0-4.746-3.492L512 426v-2l-2.187-.75c-3.07-1.364-5.2-3.16-7.813-5.25-2.68-1.24-2.68-1.24-5-2l-.316 2.527c-.767 3.896-2.097 7.39-3.622 11.036l-.802 1.958c-1.123 2.738-2.25 5.456-3.514 8.131-.972 3.058-.927 4.344.254 7.348 1.905 2.299 4.06 4.288 6.25 6.313 4.722 4.552 8.852 8.73 11.75 14.687.425.828.85 1.655 1.29 2.508 7.829 16.07 9.356 33.723 4.1 50.86-3.896 10.177-9.02 20.382-17.39 27.632h-2c-.39.9-.39.9-.79 1.816-4.444 8.016-15.449 11.422-23.675 13.938-17.607 4.19-33.207-.125-48.535-8.754a307 307 0 0 1-6-4l-2.02-1.281C400.273 542.76 393.28 529.512 390 516c-2.9-17.53-.823-34.953 9-50 12.235-15.877 12.235-15.877 20-18v-2c12.524-7.461 26.76-8.69 41-8l.563-3.812c2.265-11.342 7.2-22.207 11.562-32.875 2.097-5.151 3.85-10.304 5.438-15.625 1.606-5.374 3.544-10.272 6.19-15.22 1.954-3.87 3.406-7.912 4.927-11.968a561 561 0 0 1 4.382-11.187l.773-1.928q1.639-4.088 3.294-8.17a332 332 0 0 0 4.746-12.402c1.848-5.143 3.87-10.209 5.918-15.274a254 254 0 0 0 4.082-10.789c2.739-7.676 6.046-15.129 9.228-22.628 2.573-6.087 4.945-12.172 6.99-18.454 3.19-9.39 6.83-18.616 10.692-27.746 2.188-5.262 4.19-10.596 6.215-15.922 2.599-6.81 5.227-13.608 7.938-20.375l.763-1.909q1.865-4.656 3.768-9.298c2.926-7.182 5.584-14.395 8.093-21.73 9.39-27.154 9.39-27.154 22.438-23.688"/><path fill="#a50b15" d="M88.837 56.376q2.245-.006 4.492-.02c4.111-.018 8.222-.004 12.334.014 4.474.015 8.948 0 13.422-.01q11.76-.022 23.521.004c11.66.023 23.318.018 34.977.007 20.822-.019 41.644-.009 62.466.012q27.333.028 54.665.026h3.661l14.713-.002c46.015-.005 92.03.018 138.045.054a131599 131599 0 0 0 130.553.037h3.933q9.802-.003 19.603-.003l3.906-.001a183623 183623 0 0 1 109.828.024l3.669.001 7.313.003q25.507.011 51.013.008 32.868-.005 65.735.032 17.388.02 34.774.011 11.609-.004 23.216.02c4.412.009 8.824.013 13.235.004q6.023-.011 12.044.014 2.163.006 4.326-.004c9.173-.042 17.386.43 25.532 4.956 7.336 8.174 7.909 16.692 7.81 27.274q.008 2.245.02 4.492c.019 4.111.005 8.222-.013 12.334-.015 4.474 0 8.948.01 13.422.016 7.84.012 15.68-.004 23.521-.023 11.66-.018 23.318-.007 34.977.019 20.822.009 41.644-.012 62.466a49566 49566 0 0 0-.026 58.326l.002 14.713c.005 46.015-.018 92.03-.054 138.045a131599 131599 0 0 0-.037 130.553v3.933q.003 9.802.003 19.603l.001 3.906a183623 183623 0 0 1-.022 106.154l-.002 3.674-.004 10.982q-.012 25.506-.008 51.013c.002 21.912-.006 43.823-.032 65.735q-.02 17.388-.011 34.774.004 11.609-.02 23.216-.016 6.618-.004 13.235.011 6.023-.014 12.044a586 586 0 0 0 .004 4.326c.042 9.173-.43 17.386-4.955 25.532-8.175 7.336-16.693 7.909-27.275 7.81q-2.245.008-4.492.02c-4.111.019-8.222.005-12.334-.013-4.474-.015-8.948 0-13.422.01-7.84.016-15.68.012-23.521-.004-11.66-.023-23.318-.018-34.977-.007a32566 32566 0 0 1-62.466-.012q-27.333-.028-54.665-.026h-3.661l-14.713.002c-46.015.005-92.03-.018-138.045-.054a131599 131599 0 0 0-130.553-.037h-3.933l-23.509.004c-34.157.004-68.315-.006-102.472-.02l-3.682-.002-3.674-.002-10.982-.004q-25.507-.011-51.013-.008c-21.912.002-43.823-.006-65.735-.032q-17.388-.02-34.774-.011-11.609.004-23.216-.02-6.618-.015-13.235-.004-6.023.011-12.044-.014a586 586 0 0 0-4.326.004c-9.173.042-17.386-.43-25.531-4.955-7.337-8.175-7.91-16.693-7.812-27.275q-.006-2.245-.02-4.492c-.018-4.111-.004-8.222.014-12.334.015-4.474 0-8.948-.01-13.422q-.022-11.76.004-23.521c.023-11.66.018-23.318.007-34.977-.019-20.822-.009-41.644.012-62.466q.028-27.333.026-54.665v-3.661l-.002-14.713c-.005-46.015.018-92.03.054-138.045a131599 131599 0 0 0 .037-130.553v-3.933q-.003-9.802-.003-19.603l-.001-3.906a183623 183623 0 0 1 .022-106.154l.002-3.674.001-3.669.003-7.313q.011-25.507.008-51.013-.005-32.868.032-65.735.02-17.388.011-34.774-.004-11.609.02-23.216c.009-4.412.013-8.824.004-13.235q-.011-6.023.014-12.044a586 586 0 0 0-.004-4.326c-.042-9.173.43-17.386 4.956-25.531 8.174-7.337 16.692-7.91 27.274-7.812M98 98v828h828V98z"/></svg>