<svg xmlns="http://www.w3.org/2000/svg" width="1024" height="1024"><path d="M88.837 56.376q2.245-.006 4.492-.02c4.111-.018 8.222-.004 12.334.014 4.474.015 8.948 0 13.422-.01q11.76-.022 23.521.004c11.66.023 23.318.018 34.977.007 20.822-.019 41.644-.009 62.466.012q27.333.028 54.665.026h3.661l14.713-.002c46.015-.005 92.03.018 138.045.054a131599 131599 0 0 0 130.553.037h3.933q9.802-.003 19.603-.003l3.906-.001a183623 183623 0 0 1 109.828.024l3.669.001 7.313.003q25.507.011 51.013.008 32.868-.005 65.735.032 17.388.02 34.774.011 11.609-.004 23.216.02c4.412.009 8.824.013 13.235.004q6.023-.011 12.044.014 2.163.006 4.326-.004c9.173-.042 17.386.43 25.532 4.956 7.336 8.174 7.909 16.692 7.81 27.274q.008 2.245.02 4.492c.019 4.111.005 8.222-.013 12.334-.015 4.474 0 8.948.01 13.422.016 7.84.012 15.68-.004 23.521-.023 11.66-.018 23.318-.007 34.977.019 20.822.009 41.644-.012 62.466a49566 49566 0 0 0-.026 58.326l.002 14.713c.005 46.015-.018 92.03-.054 138.045a131599 131599 0 0 0-.037 130.553v3.933q.003 9.802.003 19.603l.001 3.906a183623 183623 0 0 1-.022 106.154l-.002 3.674-.004 10.982q-.012 25.506-.008 51.013c.002 21.912-.006 43.823-.032 65.735q-.02 17.388-.011 34.774.004 11.609-.02 23.216-.016 6.618-.004 13.235.011 6.023-.014 12.044a586 586 0 0 0 .004 4.326c.042 9.173-.43 17.386-4.955 25.532-8.175 7.336-16.693 7.909-27.275 7.81q-2.245.008-4.492.02c-4.111.019-8.222.005-12.334-.013-4.474-.015-8.948 0-13.422.01-7.84.016-15.68.012-23.521-.004-11.66-.023-23.318-.018-34.977-.007a32566 32566 0 0 1-62.466-.012q-27.333-.028-54.665-.026h-3.661l-14.713.002c-46.015.005-92.03-.018-138.045-.054a131599 131599 0 0 0-130.553-.037h-3.933l-23.509.004c-34.157.004-68.315-.006-102.472-.02l-3.682-.002-3.674-.002-10.982-.004q-25.507-.011-51.013-.008c-21.912.002-43.823-.006-65.735-.032q-17.388-.02-34.774-.011-11.609.004-23.216-.02-6.618-.015-13.235-.004-6.023.011-12.044-.014a586 586 0 0 0-4.326.004c-9.173.042-17.386-.43-25.531-4.955-7.337-8.175-7.91-16.693-7.812-27.275q-.006-2.245-.02-4.492c-.018-4.111-.004-8.222.014-12.334.015-4.474 0-8.948-.01-13.422q-.022-11.76.004-23.521c.023-11.66.018-23.318.007-34.977-.019-20.822-.009-41.644.012-62.466q.028-27.333.026-54.665v-3.661l-.002-14.713c-.005-46.015.018-92.03.054-138.045a131599 131599 0 0 0 .037-130.553v-3.933q-.003-9.802-.003-19.603l-.001-3.906a183623 183623 0 0 1 .022-106.154l.002-3.674.001-3.669.003-7.313q.011-25.507.008-51.013-.005-32.868.032-65.735.02-17.388.011-34.774-.004-11.609.02-23.216c.009-4.412.013-8.824.004-13.235q-.011-6.023.014-12.044a586 586 0 0 0-.004-4.326c-.042-9.173.43-17.386 4.956-25.531 8.174-7.337 16.692-7.91 27.274-7.812"/><path fill="#a40a14" d="m497.391 129.628 2.528-.02 2.686.029 2.79-.002q2.908.004 5.817.029c2.976.024 5.95.02 8.927.014q2.827.007 5.654.021l2.705-.003 2.499.03 2.202.013C535 130 535 130 537 132c.262 2.354.262 2.354.278 5.366l.034 3.45.007 3.804.03 3.99c.028 3.618.043 7.236.056 10.853.015 3.779.042 7.557.068 11.335.047 7.158.083 14.315.116 21.473.039 8.147.088 16.295.138 24.442q.155 25.144.273 50.287l3.959.405 5.19.536 2.604.266c5.936.617 11.747 1.415 17.56 2.793l2.683.628C596.695 278.191 621.756 288.29 645 303l2.871 1.73c7.269 4.442 13.869 9.601 20.482 14.947 1.46 1.173 2.939 2.322 4.42 3.468C685.234 332.93 696.281 344.519 706 357a977 977 0 0 0 2.855 3.48c27.51 33.5 47.504 77.129 51.262 120.614l.264 2.905q.316 3.5.619 7.001l1.76-.008q21.168-.1 42.336-.147c6.825-.016 13.65-.037 20.474-.071 6.581-.033 13.162-.05 19.744-.059q3.774-.008 7.547-.032c3.513-.022 7.026-.025 10.539-.024l3.18-.032 2.89.012 2.52-.008L874 491c2.622 3.933 2.324 7.335 2.336 11.902l.02 2.65q.015 2.772.015 5.544c.004 2.828.04 5.653.078 8.48q.009 2.695.012 5.389l.043 2.56-.018 2.397.008 2.099c-.792 3.174-1.756 4.136-4.494 5.979-3.546.585-7.057.504-10.644.454l-3.282.002a1349 1349 0 0 1-10.746-.065q-3.725-.012-7.449-.018c-5.868-.013-11.736-.045-17.605-.085-7.337-.049-14.675-.07-22.012-.093Q780.63 538.13 761 538l-.168 1.735q-.382 3.934-.769 7.868l-.263 2.729c-.647 6.55-1.533 12.98-2.925 19.418l-.646 3.01C749.033 604.763 735.163 635.44 716 662l-2.281 3.184C700.459 683.272 684.94 700.462 667 714l-1.596 1.238c-34.396 26.651-76.53 44.654-119.825 49.468-2.25.256-4.494.53-6.74.812L535 766l.011 1.972q.133 23.749.196 47.497.028 11.484.095 22.969.06 10.01.074 20.018c.006 3.534.018 7.068.047 10.601.032 3.944.033 7.887.031 11.83l.044 3.556-.017 3.255.011 2.826c-.642 3.233-1.968 4.43-4.492 6.476-2.024.494-2.024.494-4.186.486l-2.467.018-2.636-.043-2.726-.003a577 577 0 0 1-5.694-.046 686 686 0 0 0-8.736-.04q-2.766-.015-5.532-.036l-2.648-.007c-6.143-.097-6.143-.097-8.375-2.329-.262-2.26-.262-2.26-.278-5.138l-.034-3.297-.007-3.634-.03-3.813c-.028-3.457-.043-6.913-.056-10.37-.015-3.61-.042-7.22-.068-10.83-.047-6.839-.083-13.678-.116-20.516-.039-7.785-.088-15.57-.138-23.354Q487.119 790.024 487 766l-3.118-.507q-5.81-.948-11.617-1.905-2.499-.41-4.998-.817C430.481 756.789 396.126 743.242 366 721l-3.293-2.371a186 186 0 0 1-16.465-13.574 145 145 0 0 0-5.93-5.118c-3.07-2.616-5.648-5.495-8.253-8.57-1.996-2.295-4.071-4.499-6.168-6.702-7.626-8.062-14.408-16.663-20.891-25.665l-1.417-1.965C283.36 628.505 269.222 593.357 263 559l-.73-3.758c-.949-5.18-1.296-9.967-1.27-15.242l-1.694.03q-20.392.353-40.786.62c-6.575.087-13.15.183-19.724.3-6.34.113-12.682.201-19.024.272q-3.635.048-7.268.121c-3.386.068-6.771.104-10.158.133l-3.055.083c-2.528.004-4.819-.035-7.291-.559-2.774-2.94-3.376-5.494-3.372-9.467l-.02-2.579.029-2.743-.002-2.85q.004-2.972.029-5.945c.023-3.037.02-6.074.014-9.111q.007-2.89.021-5.782l-.003-2.755.03-2.56.013-2.248C149 493 149 493 151 490c2.763-.281 5.3-.368 8.064-.325l2.529.004c2.778.007 5.555.035 8.333.063q2.913.012 5.826.02c5.14.017 10.279.052 15.418.09 8.157.06 16.314.094 24.471.126q4.23.022 8.462.058c12.33.08 24.587-.334 36.897-1.036l.405-2.324c4.262-24.41 9.192-47.338 19.397-70.012a436 436 0 0 0 3.093-7.07C294.712 384.914 310.26 362.299 329 343l1.825-1.903c8.551-8.892 17.179-16.866 27.175-24.097q1.652-1.274 3.297-2.559c26.182-20.216 57.197-34.948 89.328-42.629l2.974-.721c7.407-1.682 14.829-2.723 22.36-3.678l3.223-.415q3.909-.501 7.818-.998l.002-2.069q.022-24.9.13-49.799c.035-8.027.06-16.054.064-24.082q.003-10.493.065-20.986c.02-3.706.033-7.41.025-11.116-.009-4.133.021-8.265.055-12.398l-.027-3.736.047-3.404.008-2.964c.631-2.446.631-2.446 3.035-4.26 2.592-1.184 4.17-1.56 6.987-1.558"/><path fill="#a50b15" d="M88.837 56.376q2.245-.006 4.492-.02c4.111-.018 8.222-.004 12.334.014 4.474.015 8.948 0 13.422-.01q11.76-.022 23.521.004c11.66.023 23.318.018 34.977.007 20.822-.019 41.644-.009 62.466.012q27.333.028 54.665.026h3.661l14.713-.002c46.015-.005 92.03.018 138.045.054a131599 131599 0 0 0 130.553.037h3.933q9.802-.003 19.603-.003l3.906-.001a183623 183623 0 0 1 109.828.024l3.669.001 7.313.003q25.507.011 51.013.008 32.868-.005 65.735.032 17.388.02 34.774.011 11.609-.004 23.216.02c4.412.009 8.824.013 13.235.004q6.023-.011 12.044.014 2.163.006 4.326-.004c9.173-.042 17.386.43 25.532 4.956 7.336 8.174 7.909 16.692 7.81 27.274q.008 2.245.02 4.492c.019 4.111.005 8.222-.013 12.334-.015 4.474 0 8.948.01 13.422.016 7.84.012 15.68-.004 23.521-.023 11.66-.018 23.318-.007 34.977.019 20.822.009 41.644-.012 62.466a49566 49566 0 0 0-.026 58.326l.002 14.713c.005 46.015-.018 92.03-.054 138.045a131599 131599 0 0 0-.037 130.553v3.933q.003 9.802.003 19.603l.001 3.906a183623 183623 0 0 1-.022 106.154l-.002 3.674-.004 10.982q-.012 25.506-.008 51.013c.002 21.912-.006 43.823-.032 65.735q-.02 17.388-.011 34.774.004 11.609-.02 23.216-.016 6.618-.004 13.235.011 6.023-.014 12.044a586 586 0 0 0 .004 4.326c.042 9.173-.43 17.386-4.955 25.532-8.175 7.336-16.693 7.909-27.275 7.81q-2.245.008-4.492.02c-4.111.019-8.222.005-12.334-.013-4.474-.015-8.948 0-13.422.01-7.84.016-15.68.012-23.521-.004-11.66-.023-23.318-.018-34.977-.007a32566 32566 0 0 1-62.466-.012q-27.333-.028-54.665-.026h-3.661l-14.713.002c-46.015.005-92.03-.018-138.045-.054a131599 131599 0 0 0-130.553-.037h-3.933l-23.509.004c-34.157.004-68.315-.006-102.472-.02l-3.682-.002-3.674-.002-10.982-.004q-25.507-.011-51.013-.008c-21.912.002-43.823-.006-65.735-.032q-17.388-.02-34.774-.011-11.609.004-23.216-.02-6.618-.015-13.235-.004-6.023.011-12.044-.014a586 586 0 0 0-4.326.004c-9.173.042-17.386-.43-25.531-4.955-7.337-8.175-7.91-16.693-7.812-27.275q-.006-2.245-.02-4.492c-.018-4.111-.004-8.222.014-12.334.015-4.474 0-8.948-.01-13.422q-.022-11.76.004-23.521c.023-11.66.018-23.318.007-34.977-.019-20.822-.009-41.644.012-62.466q.028-27.333.026-54.665v-3.661l-.002-14.713c-.005-46.015.018-92.03.054-138.045a131599 131599 0 0 0 .037-130.553v-3.933q-.003-9.802-.003-19.603l-.001-3.906a183623 183623 0 0 1 .022-106.154l.002-3.674.001-3.669.003-7.313q.011-25.507.008-51.013-.005-32.868.032-65.735.02-17.388.011-34.774-.004-11.609.02-23.216c.009-4.412.013-8.824.004-13.235q-.011-6.023.014-12.044a586 586 0 0 0-.004-4.326c-.042-9.173.43-17.386 4.956-25.531 8.174-7.337 16.692-7.91 27.274-7.812M98 98v828h828V98z"/><path d="M558.188 449.188C575.934 463.29 588.912 481.063 592 504c1.442 16.386-.025 33.326-8 48l-1.422 2.781C576.416 566.166 567.763 575.76 557 583l-2.664 1.8c-17.759 11.178-40.424 14.374-60.924 10.174C480.898 591.87 468.545 585.7 459 577l-2.445-2.168c-15.258-14.301-24.511-34.345-25.758-55.234-.31-23.35 7.167-43.935 23.527-61.04 27.944-26.72 71.78-32.493 103.863-9.37M490 313q.07 15.007.104 30.015.014 6.967.047 13.936.032 6.72.039 13.441.004 2.568.021 5.136c.015 2.393.017 4.784.016 7.177l.022 2.16c-.02 4.907-.02 4.907-2.249 7.135-1.853.727-1.853.727-4.121 1.41l-2.556.796-2.76.856c-18.069 5.864-36.976 13.86-50.415 27.797C426 425 426 425 424 425l-.723 1.71c-1.55 2.78-3.472 4.655-5.714 6.915C403.193 449.199 393.13 470.343 389 491h-79c0-16.465 0-16.465 1.5-23.5l.524-2.519c3.607-16.167 10.064-31.48 17.976-45.981l.952-1.777C337.896 404.305 345.954 391.727 356 381l2.04-2.344c5.576-6.384 11.606-12.054 17.96-17.656l1.95-1.797C389.1 349.044 401.634 340.906 415 334l2.202-1.148c15.1-7.782 56.122-28.19 72.798-19.852M320.452 537.886h2.22c2.407 0 4.815.008 7.223.016l5.023.005q6.596.006 13.192.024 6.738.014 13.474.02 13.207.016 26.416.049c1.046 3.658 2.09 7.316 3.113 10.98 5.76 20.375 14.654 36.423 28.887 52.02l1.417 1.57C439.222 622.076 463.686 633.672 489 640v81c-31.217-4.929-31.217-4.929-45.976-11.148a531 531 0 0 0-4.52-1.875C420.815 700.71 403.467 692.737 389 680q-1.629-1.36-3.262-2.715C370.756 664.738 356.16 651.122 345 635l-1.227-1.747C329.128 612.325 318.22 589.542 311 565l-.703-2.309c-2.028-7.661-1.953-15.813-2.297-23.691 4.169-1.01 8.188-1.136 12.452-1.114M637 538h79c0 10.139 0 10.139-.883 13.84l-.589 2.502-.653 2.596-.685 2.771c-7.898 31.185-21.425 60.58-42.19 85.291l-2.555 3.113C636.265 687.093 590.258 712.873 540 719h-5v-79l20-6c31.824-12.87 57.856-35.274 72-67a283 283 0 0 0 10-29M555.313 316.625l2.322.54c32.471 7.757 64.93 22.42 89.365 45.835v2l1.8.82C678.1 381.53 699.71 429.151 709 459c3.152 10.73 5 20.747 5 32h-78c-3.335-8.893-3.335-8.893-4.184-12.2-4.748-17.278-13.008-33.14-25.816-45.8a368 368 0 0 1-3.562-4.187c-16.31-18.483-40.078-28.493-62.852-36.5C536 391 536 391 535 390a67 67 0 0 1-.115-4.416l.002-2.858.02-3.132.01-3.247c.06-12.285.314-24.565.583-36.847l.145-6.898q.173-8.301.355-16.602c5.656-2.828 13.425-.776 19.313.625"/></svg>