<svg xmlns="http://www.w3.org/2000/svg" width="1024" height="1024"><path d="M88.837 56.376q2.245-.006 4.492-.02c4.111-.018 8.222-.004 12.334.014 4.474.015 8.948 0 13.422-.01q11.76-.022 23.521.004c11.66.023 23.318.018 34.977.007 20.822-.019 41.644-.009 62.466.012q27.333.028 54.665.026h3.661l14.713-.002c46.015-.005 92.03.018 138.045.054a131599 131599 0 0 0 130.553.037h3.933q9.802-.003 19.603-.003l3.906-.001a183623 183623 0 0 1 109.828.024l3.669.001 7.313.003q25.507.011 51.013.008 32.868-.005 65.735.032 17.388.02 34.774.011 11.609-.004 23.216.02c4.412.009 8.824.013 13.235.004q6.023-.011 12.044.014 2.163.006 4.326-.004c9.173-.042 17.386.43 25.532 4.956 7.336 8.174 7.909 16.692 7.81 27.274q.008 2.245.02 4.492c.019 4.111.005 8.222-.013 12.334-.015 4.474 0 8.948.01 13.422.016 7.84.012 15.68-.004 23.521-.023 11.66-.018 23.318-.007 34.977.019 20.822.009 41.644-.012 62.466a49566 49566 0 0 0-.026 58.326l.002 14.713c.005 46.015-.018 92.03-.054 138.045a131599 131599 0 0 0-.037 130.553v3.933q.003 9.802.003 19.603l.001 3.906a183623 183623 0 0 1-.022 106.154l-.002 3.674-.004 10.982q-.012 25.506-.008 51.013c.002 21.912-.006 43.823-.032 65.735q-.02 17.388-.011 34.774.004 11.609-.02 23.216-.016 6.618-.004 13.235.011 6.023-.014 12.044a586 586 0 0 0 .004 4.326c.042 9.173-.43 17.386-4.955 25.532-8.175 7.336-16.693 7.909-27.275 7.81q-2.245.008-4.492.02c-4.111.019-8.222.005-12.334-.013-4.474-.015-8.948 0-13.422.01-7.84.016-15.68.012-23.521-.004-11.66-.023-23.318-.018-34.977-.007a32566 32566 0 0 1-62.466-.012q-27.333-.028-54.665-.026h-3.661l-14.713.002c-46.015.005-92.03-.018-138.045-.054a131599 131599 0 0 0-130.553-.037h-3.933l-23.509.004c-34.157.004-68.315-.006-102.472-.02l-3.682-.002-3.674-.002-10.982-.004q-25.507-.011-51.013-.008c-21.912.002-43.823-.006-65.735-.032q-17.388-.02-34.774-.011-11.609.004-23.216-.02-6.618-.015-13.235-.004-6.023.011-12.044-.014a586 586 0 0 0-4.326.004c-9.173.042-17.386-.43-25.531-4.955-7.337-8.175-7.91-16.693-7.812-27.275q-.006-2.245-.02-4.492c-.018-4.111-.004-8.222.014-12.334.015-4.474 0-8.948-.01-13.422q-.022-11.76.004-23.521c.023-11.66.018-23.318.007-34.977-.019-20.822-.009-41.644.012-62.466q.028-27.333.026-54.665v-3.661l-.002-14.713c-.005-46.015.018-92.03.054-138.045a131599 131599 0 0 0 .037-130.553v-3.933q-.003-9.802-.003-19.603l-.001-3.906a183623 183623 0 0 1 .022-106.154l.002-3.674.001-3.669.003-7.313q.011-25.507.008-51.013-.005-32.868.032-65.735.02-17.388.011-34.774-.004-11.609.02-23.216c.009-4.412.013-8.824.004-13.235q-.011-6.023.014-12.044a586 586 0 0 0-.004-4.326c-.042-9.173.43-17.386 4.956-25.531 8.174-7.337 16.692-7.91 27.274-7.812"/><path fill="#a50b15" d="M88.837 56.376q2.245-.006 4.492-.02c4.111-.018 8.222-.004 12.334.014 4.474.015 8.948 0 13.422-.01q11.76-.022 23.521.004c11.66.023 23.318.018 34.977.007 20.822-.019 41.644-.009 62.466.012q27.333.028 54.665.026h3.661l14.713-.002c46.015-.005 92.03.018 138.045.054a131599 131599 0 0 0 130.553.037h3.933q9.802-.003 19.603-.003l3.906-.001a183623 183623 0 0 1 109.828.024l3.669.001 7.313.003q25.507.011 51.013.008 32.868-.005 65.735.032 17.388.02 34.774.011 11.609-.004 23.216.02c4.412.009 8.824.013 13.235.004q6.023-.011 12.044.014 2.163.006 4.326-.004c9.173-.042 17.386.43 25.532 4.956 7.336 8.174 7.909 16.692 7.81 27.274q.008 2.245.02 4.492c.019 4.111.005 8.222-.013 12.334-.015 4.474 0 8.948.01 13.422.016 7.84.012 15.68-.004 23.521-.023 11.66-.018 23.318-.007 34.977.019 20.822.009 41.644-.012 62.466a49566 49566 0 0 0-.026 58.326l.002 14.713c.005 46.015-.018 92.03-.054 138.045a131599 131599 0 0 0-.037 130.553v3.933q.003 9.802.003 19.603l.001 3.906a183623 183623 0 0 1-.022 106.154l-.002 3.674-.004 10.982q-.012 25.506-.008 51.013c.002 21.912-.006 43.823-.032 65.735q-.02 17.388-.011 34.774.004 11.609-.02 23.216-.016 6.618-.004 13.235.011 6.023-.014 12.044a586 586 0 0 0 .004 4.326c.042 9.173-.43 17.386-4.955 25.532-8.175 7.336-16.693 7.909-27.275 7.81q-2.245.008-4.492.02c-4.111.019-8.222.005-12.334-.013-4.474-.015-8.948 0-13.422.01-7.84.016-15.68.012-23.521-.004-11.66-.023-23.318-.018-34.977-.007a32566 32566 0 0 1-62.466-.012q-27.333-.028-54.665-.026h-3.661l-14.713.002c-46.015.005-92.03-.018-138.045-.054a131599 131599 0 0 0-130.553-.037h-3.933l-23.509.004c-34.157.004-68.315-.006-102.472-.02l-3.682-.002-3.674-.002-10.982-.004q-25.507-.011-51.013-.008c-21.912.002-43.823-.006-65.735-.032q-17.388-.02-34.774-.011-11.609.004-23.216-.02-6.618-.015-13.235-.004-6.023.011-12.044-.014a586 586 0 0 0-4.326.004c-9.173.042-17.386-.43-25.531-4.955-7.337-8.175-7.91-16.693-7.812-27.275q-.006-2.245-.02-4.492c-.018-4.111-.004-8.222.014-12.334.015-4.474 0-8.948-.01-13.422q-.022-11.76.004-23.521c.023-11.66.018-23.318.007-34.977-.019-20.822-.009-41.644.012-62.466q.028-27.333.026-54.665v-3.661l-.002-14.713c-.005-46.015.018-92.03.054-138.045a131599 131599 0 0 0 .037-130.553v-3.933q-.003-9.802-.003-19.603l-.001-3.906a183623 183623 0 0 1 .022-106.154l.002-3.674.001-3.669.003-7.313q.011-25.507.008-51.013-.005-32.868.032-65.735.02-17.388.011-34.774-.004-11.609.02-23.216c.009-4.412.013-8.824.004-13.235q-.011-6.023.014-12.044a586 586 0 0 0-.004-4.326c-.042-9.173.43-17.386 4.956-25.531 8.174-7.337 16.692-7.91 27.274-7.812M98 98v828h828V98z"/><path fill="#a30a14" d="m643.188 129.867 3.804-.004 1.991.007c2.009.005 4.017 0 6.025-.007l3.804.004 3.52.004C665 130 665 130 666 131c.125 2.585.186 5.146.205 7.733l.03 2.453q.047 4.035.081 8.068l.063 5.578q.083 7.356.153 14.712.077 7.5.161 15 .162 14.73.307 29.456l2.138.416q4.874.954 9.745 1.916l3.362.654c37.393 7.4 69.513 27.992 92.517 58.379a441 441 0 0 0 3.144 4.092c9.01 12.135 15.557 26.186 20.094 40.543q.81 2.344 1.625 4.688.697 2.153 1.375 4.312l.813 2.5c1.605 5.312 2.427 10.318 2.773 15.863.08 1.247.16 2.494.244 3.779L805 354l2.65-.007q12.34-.03 24.679-.045 6.345-.007 12.688-.023 6.118-.016 12.235-.02 2.34-.003 4.679-.01 3.264-.01 6.53-.009l3.761-.006C875 354 875 354 876 355c.253 4.306.185 8.624.188 12.938l.037 3.693.005 3.521.013 3.25C876 381 876 381 874 383c-2.86.24-2.86.24-6.561.227h-2.04c-2.23 0-4.459-.016-6.688-.032l-4.632-.008c-4.068-.008-8.135-.028-12.202-.05-4.15-.02-8.298-.03-12.447-.04-8.144-.02-16.287-.055-24.43-.097l-.19 2.452-.258 3.24-.251 3.202C801.695 418.798 788.612 445.1 772 466l-2.254 2.875C753.04 489.795 731.586 503.94 707 514l-2.844 1.215c-9.306 3.902-18.584 5.93-28.539 7.375l-2.807.414q-3.405.501-6.81.996l-.025 2.986q-.116 13.905-.263 27.811-.076 7.15-.134 14.3-.056 6.896-.136 13.79a1328 1328 0 0 0-.045 5.271c-.017 2.455-.046 4.909-.078 7.363l-.007 2.217c-.084 5.034-.084 5.034-2.312 7.262-2.598.243-2.598.243-5.848.23l-3.521-.005-3.693-.038-3.706-.001c-9.092-.046-9.092-.046-10.232-1.186a176 176 0 0 1-.205-7.457l-.03-2.365q-.047-3.888-.081-7.776l-.063-5.376a9399 9399 0 0 1-.153-14.18q-.077-7.228-.161-14.457-.162-14.195-.307-28.389l-3.656-.595-4.844-.796-2.398-.389c-33.464-5.52-65.232-20.81-87.336-47.15a111 111 0 0 0-3.844-4.265C512.538 449.209 495 414.135 495 384l-2.575.007q-11.985.03-23.971.045-6.163.007-12.326.023-5.942.016-11.885.02-2.272.003-4.544.01-3.171.01-6.343.009l-3.654.006C427 384 427 384 426 383c-.1-2.134-.13-4.27-.133-6.406l-.004-3.942.007-2.063q.005-3.12-.007-6.241l.004-3.942.004-3.646C426 354 426 354 427 353c2.116-.124 4.236-.178 6.356-.205l2.01-.03q3.303-.047 6.607-.081l4.57-.063a6801 6801 0 0 1 12.048-.153q6.142-.077 12.286-.161 12.06-.162 24.123-.307l.324-1.872c.495-2.85 1-5.698 1.504-8.546l.508-2.943C502.37 310.403 516.586 283.963 536 263l2.535-2.781c15.603-16.38 34.543-28.424 55.569-36.468 1.81-.717 3.587-1.515 5.36-2.317 3.997-1.62 7.893-2.602 12.098-3.496l2.15-.487c4.842-1.056 9.697-1.821 14.604-2.511l3.8-.536L635 214l.031-3.144q.147-14.635.308-29.27.084-7.524.158-15.05.072-7.254.156-14.51.031-2.775.056-5.549.037-3.873.086-7.744l.017-2.341c.094-6.74.788-6.518 7.375-6.525M338.375 727.688l3.314-.017c38.338.34 70.229 24.858 96.05 50.83 4.271 4.37 8.242 8.896 12.027 13.698 2.636 3.305 5.399 6.485 8.171 9.676a324 324 0 0 1 13.926 17.281 198 198 0 0 0 3.867 5c1.987 2.537 3.22 4.647 4.02 7.782-1.766 7.212-8.388 11.761-14.094 16.011-3.348 2.585-6.524 5.343-9.719 8.114A2466 2466 0 0 1 449 862l-2.465 2.105c-2.986 2.413-4.93 3.765-8.723 4.582-6.778-1.657-10.12-9.06-13.5-14.625C419.186 845.79 413.806 837.81 408 830l-1.209-1.646c-13.737-18.653-31.158-38.982-54.603-44.917A74 74 0 0 0 347 783l-2.088-.152c-16.743-1.11-31.11 2.35-44.912 12.152l-2.895 2.004c-14.204 10.351-26.404 23.228-36.852 37.315a352 352 0 0 1-3.933 5.158l-1.33 1.716-1.303 1.682c-2.212 2.856-4.401 5.715-6.468 8.68-3.598 5.157-3.598 5.157-6.781 6.633-5.788-.446-10.213-5.438-14.375-9.125l-3.985-3.5-2.04-1.793a382 382 0 0 0-5.991-5.082l-1.903-1.594a454 454 0 0 0-3.575-2.959c-3.575-3.005-6.416-5.91-8.569-10.135-.18-5.697 2.856-8.73 6.5-12.687q1.662-1.867 3.32-3.735l1.654-1.846c2.049-2.326 3.974-4.741 5.901-7.17 4.286-5.288 8.896-10.237 13.578-15.173 2.828-2.985 5.59-5.994 8.246-9.135 3.275-3.859 6.933-7.002 10.801-10.254l2.617-2.312c24.13-20.926 53.657-33.863 85.758-34M401.77 505.559l2.185.452q3.429.71 6.858 1.426l6.81 1.413q2.192.455 4.384.916c4.69.982 9.387 1.868 14.117 2.629 2.366.763 3.39 1.617 4.876 3.605 1.898 8.624-1.573 18.605-3.437 27.063-5.968 27.43-9.3 58.57 5.437 83.937 8.815 13.44 21.351 21.573 37.008 24.898 4.311.838 8.643 1.492 12.992 2.102l2.062.3c6.902.986 13.75 1.697 20.723 1.903l2.997.093q2.91.078 5.82.099c3.977.097 6.91.399 10.601 1.957 2.985 4.4 1.629 8.596.797 13.648q-.47 3.389-.937 6.777a3819 3819 0 0 1-1.602 10.752c-.982 6.677-1.751 13.282-2.117 20.023C531 712 531 712 529 715.25c-7.91 4.614-19.576.642-28.187-.937l-2.286-.414C467.05 708.203 435.388 701.768 410 681l-2.531-1.977c-22.047-18.46-29.236-48.963-32.067-76.3-.567-6.84-.594-13.677-.59-20.535l.001-2.06c.023-12.137.766-24.074 2.187-36.128l.73-6.52c3.196-27.885 3.196-27.885 6.457-32.73 5.194-3.231 11.825-.398 17.583.809M278 516c3.138 3.918 3.891 8.285 4.719 13.113l.434 2.407c.462 2.595.906 5.193 1.347 7.793l.465 2.695c7.41 43.203 12.914 90.897-12.969 129.347-20.908 27.7-53.342 43.56-86.996 49.645l-3.426.625a131 131 0 0 1-19.262 1.688l-2.071.053c-4.76-.007-4.76-.007-6.91-1.61-1.655-2.184-1.774-3.48-1.92-6.201l-.183-2.73-.166-2.95c-.694-10.057-2.052-19.878-3.83-29.8l-.525-3.024-.485-2.667c-.23-2.468-.069-4.065.778-6.384 3.662-4.151 7.059-4.522 12.297-4.858l2.828-.142c19.378-1.394 38.979-4.474 53.875-18l1.89-1.648c10.824-10.023 15.571-24.187 16.271-38.69.046-3.805.086-7.608.089-11.412l.002-2.098c-.025-15.942-2.2-30.528-6.626-45.839-1.19-4.179-2.177-7.927-1.626-12.313 2.112-2.655 3.974-3.525 7.219-4.36l2.55-.682 2.731-.708c11.893-3.226 27.394-12.524 39.5-11.25"/><path d="M678.813 327.25A162 162 0 0 1 683 331l2.336 2.027c8.564 7.867 14.392 18.583 15 30.356.327 17.02-3.342 29.25-15.149 41.867-9.958 9.498-21.4 13.343-35 13.25l-2.91-.015c-11.443-.28-20.686-3.768-29.277-11.485l-1.828-1.586c-7.947-7.36-14.611-18.44-15.298-29.434-.564-16.672 1.825-29.512 13.368-42.324 17.277-16.278 44.63-21.231 64.57-6.406"/><path fill="#010000" d="M637 243v48c-12 5-12 5-17.937 7.25-19.5 8.167-32.905 24.103-41.137 43.2-1.378 3.795-2.16 7.589-2.926 11.55-1 1-1 1-2.98 1.12l-2.632-.006h-2.972l-3.232-.016-3.292-.005c-3.485-.005-6.97-.018-10.455-.03q-3.534-.009-7.068-.014-8.685-.017-17.369-.049a903 903 0 0 1-.037-4.252l-.021-2.392c.571-23.22 16.067-49.48 32.058-65.356l2.172-2.281c9.544-9.882 19.779-17.3 31.828-23.719l2.586-1.434C606.638 247.606 622.245 243 637 243"/><path d="M524 383h50l5 16c9.021 21.265 25.972 35.318 47.113 43.957 3.243 1.172 6.572 2.096 9.887 3.043v50c-14.978-2.643-26.316-5.609-39.687-11.875l-2.666-1.244c-9.279-4.46-17.042-9.986-24.647-16.881a2429 2429 0 0 0-4.062-3.5A891 891 0 0 1 561 459l-1.672-1.469C540.598 440.05 527.244 413.21 524 388zM728 383h49c-.982 10.806-2.317 20.046-6.98 29.809-1.051 2.258-1.908 4.542-2.77 6.878-11.403 28.486-36.116 52.71-63.797 65.489-2.463 1.016-4.941 1.935-7.453 2.824l-2.727 1.023C684.465 492.181 674.431 495 665 495v-49c8-3 8-3 11.273-4.176 17.318-6.347 34.4-18.65 42.696-35.687 3.45-7.555 6.19-15.326 9.031-23.137"/><path fill="#010000" d="M665 245c7.59 0 12.89.028 19.813 2.125l2.337.687C706.289 253.61 722.36 263.549 737 277l2.64 2.39c14.766 14.023 25.831 32.235 32.423 51.423l.87 2.492c2.305 7.191 2.454 12.728 3.067 20.695h-49l-4-14c-11.211-26.793-32.248-38.27-58-49z"/></svg>