<?xml version="1.0" encoding="UTF-8"?>
<svg version="1.1" xmlns="http://www.w3.org/2000/svg" width="1024" height="1024">
<path d="M0 0 C1.49747542 -0.00461467 2.99494538 -0.01142069 4.49240214 -0.02020609 C8.60383222 -0.0379896 12.71466078 -0.02471241 16.82606644 -0.00631597 C21.30025905 0.00818393 25.77437334 -0.00636415 30.24856329 -0.01720095 C38.08900236 -0.03217967 45.92926221 -0.02857327 53.76969719 -0.01278305 C65.42861938 0.0106328 77.08740648 0.00543716 88.74634077 -0.00549195 C109.56850543 -0.02408539 130.39058459 -0.01436033 151.21274228 0.00698569 C169.43442444 0.02553408 187.65607786 0.0339651 205.87776947 0.0324173 C207.08591157 0.03232562 208.29405366 0.03223395 209.53880612 0.03213949 C214.44290558 0.03174634 219.34700502 0.03129672 224.25110446 0.0307681 C270.26622924 0.02589571 316.28130303 0.04856787 362.29641195 0.08472433 C403.18847597 0.1167182 444.08049642 0.12876798 484.97257233 0.12264252 C487.59819442 0.12225567 490.22381651 0.12186922 492.84943861 0.12148315 C494.79651427 0.12119613 494.79651427 0.12119613 496.7829248 0.12090331 C503.31698363 0.11994899 509.85104247 0.11903462 516.38510132 0.11816406 C517.67413888 0.11799027 518.96317643 0.11781647 520.29127574 0.11763741 C554.44869945 0.11328332 588.60611846 0.12329422 622.76353884 0.13800192 C624.58590901 0.13878213 624.58590901 0.13878213 626.44509474 0.13957811 C627.65780491 0.14009745 628.87051508 0.14061679 630.11997405 0.14115188 C631.33048019 0.14166962 632.54098633 0.14218736 633.78817447 0.14272078 C636.22604642 0.14376888 638.66391838 0.14482909 641.10179032 0.1459015 C658.1059414 0.1532857 675.11008582 0.15536966 692.11423831 0.1539075 C714.02612244 0.15206273 735.93796553 0.16011204 757.84983623 0.18554896 C769.44107859 0.19872455 781.03225541 0.20371865 792.62350365 0.19691042 C800.36232152 0.19320373 808.10107948 0.20038662 815.83988133 0.21650281 C820.25159296 0.22539202 824.66316958 0.22955353 829.07488412 0.22057563 C833.08962323 0.21251001 837.10409773 0.21827388 841.11880796 0.23499252 C842.56085487 0.23859508 844.0029253 0.23720406 845.44495947 0.23015337 C854.61777817 0.18876602 862.83078298 0.6610039 870.9759903 5.18611908 C878.31209403 13.36063467 878.8850935 21.87903902 878.78710938 32.46012878 C878.79172405 33.9576042 878.79853006 35.45507417 878.80731547 36.95253092 C878.82509897 41.06396101 878.81182179 45.17478957 878.79342534 49.28619523 C878.77892545 53.76038784 878.79347352 58.23450212 878.80431032 62.70869207 C878.81928905 70.54913115 878.81568264 78.38939099 878.79989243 86.22982597 C878.77647657 97.88874816 878.78167222 109.54753526 878.79260132 121.20646955 C878.81119477 142.02863422 878.8014697 162.85071338 878.78012369 183.67287107 C878.7615753 201.89455322 878.75314427 220.11620665 878.75469208 238.33789825 C878.75482959 240.1501114 878.75482959 240.1501114 878.75496988 241.99893491 C878.75536303 246.90303436 878.75581265 251.80713381 878.75634127 256.71123325 C878.76121367 302.72635802 878.73854151 348.74143181 878.70238505 394.75654074 C878.67039117 435.64860475 878.65834139 476.54062521 878.66446686 517.43270111 C878.6648537 520.0583232 878.66524016 522.6839453 878.66562623 525.30956739 C878.66581757 526.60761783 878.66600892 527.90566828 878.66620606 529.24305358 C878.66716039 535.77711242 878.66807476 542.31117126 878.66894531 548.8452301 C878.669206 550.77878644 878.669206 550.77878644 878.66947196 552.75140452 C878.67382605 586.90882823 878.66381515 621.06624724 878.64910746 655.22366762 C878.64858731 656.43858107 878.64806717 657.65349452 878.64753127 658.90522352 C878.64675225 660.72428878 878.64675225 660.72428878 878.6459575 662.58010283 C878.64543976 663.79060897 878.64492202 665.00111511 878.64438859 666.24830325 C878.6433405 668.68617521 878.64228029 671.12404716 878.64120787 673.5619191 C878.63382368 690.56607018 878.63173972 707.57021461 878.63320187 724.57436709 C878.63504664 746.48625123 878.62699733 768.39809431 878.60156041 790.30996501 C878.58838482 801.90120737 878.58339072 813.49238419 878.59019895 825.08363244 C878.59390564 832.8224503 878.58672276 840.56120826 878.57060657 848.30001012 C878.56171735 852.71172174 878.55755585 857.12329836 878.56653374 861.5350129 C878.57459936 865.54975201 878.5688355 869.56422651 878.55211686 873.57893675 C878.5485143 875.02098365 878.54990531 876.46305409 878.55695601 877.90508825 C878.59834335 887.07790696 878.12610547 895.29091176 873.6009903 903.43611908 C865.4264747 910.77222282 856.90807036 911.34522229 846.32698059 911.24723816 C844.82950518 911.25185283 843.33203521 911.25865884 841.83457845 911.26744425 C837.72314837 911.28522776 833.61231981 911.27195057 829.50091415 911.25355413 C825.02672154 911.23905423 820.55260725 911.25360231 816.0784173 911.26443911 C808.23797823 911.27941783 800.39771839 911.27581143 792.5572834 911.26002121 C780.89836121 911.23660536 769.23957411 911.241801 757.58063982 911.25273011 C736.75847516 911.27132355 715.936396 911.26159848 695.11423831 911.24025247 C676.89255615 911.22170408 658.67090273 911.21327306 640.44921112 911.21482086 C639.24106903 911.21491254 638.03292693 911.21500421 636.78817447 911.21509867 C631.88407501 911.21549182 626.97997557 911.21594144 622.07587613 911.21647006 C576.06075135 911.22134245 530.04567756 911.19867029 484.03056864 911.16251383 C443.13850463 911.13051996 402.24648417 911.11847018 361.35440826 911.12459564 C358.72878617 911.12498249 356.10316408 911.12536894 353.47754198 911.12575501 C351.53046632 911.12604203 351.53046632 911.12604203 349.5440558 911.12633485 C343.00999696 911.12728917 336.47593812 911.12820354 329.94187927 911.1290741 C328.65284171 911.12924789 327.36380416 911.12942168 326.03570485 911.12960074 C291.87828114 911.13395483 257.72086213 911.12394394 223.56344175 911.10923624 C222.34852831 911.1087161 221.13361486 911.10819596 219.88188585 911.10766005 C218.66917568 911.10714071 217.45646551 911.10662137 216.20700654 911.10608628 C214.9965004 911.10556854 213.78599427 911.1050508 212.53880612 911.10451737 C210.10093417 911.10346928 207.66306222 911.10240907 205.22519027 911.10133665 C188.22103919 911.09395246 171.21689477 911.0918685 154.21274228 911.09333066 C132.30085815 911.09517542 110.38901506 911.08712612 88.47714436 911.0616892 C76.885902 911.04851361 65.29472518 911.0435195 53.70347694 911.05032774 C45.96465907 911.05403443 38.22590111 911.04685154 30.48709926 911.03073535 C26.07538764 911.02184614 21.66381101 911.01768463 17.25209647 911.02666253 C13.23735736 911.03472814 9.22288286 911.02896428 5.20817263 911.01224564 C3.76612572 911.00864308 2.32405529 911.0100341 0.88202112 911.01708479 C-8.29079758 911.05847213 -16.50380239 910.58623426 -24.6490097 906.06111908 C-31.98511344 897.88660349 -32.55811291 889.36819914 -32.46012878 878.78710938 C-32.46474345 877.28963396 -32.47154947 875.79216399 -32.48033488 874.29470724 C-32.49811838 870.18327715 -32.4848412 866.07244859 -32.46644475 861.96104293 C-32.45194485 857.48685032 -32.46649293 853.01273604 -32.47732973 848.53854609 C-32.49230846 840.69810701 -32.48870205 832.85784717 -32.47291183 825.01741219 C-32.44949598 813.35849 -32.45469163 801.69970289 -32.46562073 790.04076861 C-32.48421418 769.21860394 -32.47448911 748.39652478 -32.4531431 727.57436709 C-32.43459471 709.35268494 -32.42616368 691.13103151 -32.42771149 672.9093399 C-32.42780316 671.70119781 -32.42789484 670.49305571 -32.42798929 669.24830325 C-32.42838244 664.3442038 -32.42883206 659.44010435 -32.42936068 654.53600491 C-32.43423308 608.52088014 -32.41156092 562.50580635 -32.37540445 516.49069742 C-32.34341058 475.59863341 -32.3313608 434.70661295 -32.33748627 393.81453705 C-32.33787311 391.18891495 -32.33825957 388.56329286 -32.33864564 385.93767077 C-32.33883698 384.63962033 -32.33902833 383.34156988 -32.33922547 382.00418458 C-32.3401798 375.47012574 -32.34109416 368.9360669 -32.34196472 362.40200806 C-32.34213852 361.1129705 -32.34231231 359.82393294 -32.34249137 358.49583364 C-32.34684546 324.33840992 -32.33683456 290.18099092 -32.32212687 256.02357054 C-32.32160672 254.80865709 -32.32108658 253.59374364 -32.32055068 252.34201463 C-32.32003133 251.12930446 -32.31951199 249.91659429 -32.31897691 248.66713533 C-32.3182003 246.85137612 -32.3182003 246.85137612 -32.317408 244.99893491 C-32.31635991 242.56106295 -32.3152997 240.123191 -32.31422728 237.68531905 C-32.30684309 220.68116797 -32.30475912 203.67702355 -32.30622128 186.67287107 C-32.30806605 164.76098693 -32.30001674 142.84914385 -32.27457982 120.93727314 C-32.26140423 109.34603079 -32.25641013 97.75485397 -32.26321836 86.16360572 C-32.26692505 78.42478786 -32.25974216 70.6860299 -32.24362598 62.94722804 C-32.23473676 58.53551642 -32.23057525 54.1239398 -32.23955315 49.71222526 C-32.24761877 45.69748615 -32.2418549 41.68301164 -32.22513627 37.66830141 C-32.22153371 36.22625451 -32.22292472 34.78418407 -32.22997542 33.34214991 C-32.27136276 24.1693312 -31.79912488 15.9563264 -27.2740097 7.81111908 C-19.09949411 0.47501534 -10.58108977 -0.09798413 0 0 Z " fill="#000000" transform="translate(88.83650970458984,56.376380920410156)"/>
<path d="M0 0 C0.83403854 -0.00622879 1.66807709 -0.01245758 2.52738953 -0.01887512 C3.85731682 -0.0050605 3.85731682 -0.0050605 5.21411133 0.0090332 C6.59473503 0.00828545 6.59473503 0.00828545 8.00325012 0.00752258 C9.94229296 0.00985718 11.88133917 0.01954938 13.8203125 0.03613281 C16.7962532 0.05981533 19.77130289 0.05667801 22.74731445 0.05004883 C24.63208544 0.05562285 26.51685265 0.06273099 28.40161133 0.0715332 C29.29430222 0.0706218 30.1869931 0.06971039 31.10673523 0.06877136 C31.93131729 0.07830338 32.75589935 0.08783539 33.60546875 0.09765625 C34.33207199 0.10226364 35.05867523 0.10687103 35.80729675 0.11161804 C37.60864258 0.37231445 37.60864258 0.37231445 39.60864258 2.37231445 C39.87035561 4.72675514 39.87035561 4.72675514 39.88711548 7.73794556 C39.9038607 9.44593575 39.9038607 9.44593575 39.92094421 11.18843079 C39.9231044 12.44358994 39.92526459 13.69874908 39.92749023 14.99194336 C39.93753586 16.30896744 39.94758148 17.62599152 39.95793152 18.98292542 C39.98529894 22.60044775 40.00040077 26.21793101 40.01335955 29.8355298 C40.02896072 33.61389953 40.05576047 37.39218909 40.08139038 41.17050171 C40.12823172 48.32797202 40.16494982 55.48545732 40.19806325 62.64300287 C40.2362469 70.79046482 40.28566684 78.93784636 40.33604741 87.0852406 C40.43944687 103.84754086 40.5286811 120.60988566 40.60864258 137.37231445 C41.91508224 137.50581299 43.22152191 137.63931152 44.56755066 137.77685547 C46.29764746 137.95571851 48.02773421 138.13467871 49.7578125 138.3137207 C50.61699028 138.4012561 51.47616806 138.4887915 52.36138153 138.57897949 C58.29740542 139.19592204 64.10823852 139.99457088 69.92114258 141.37231445 C70.80664795 141.57961182 71.69215332 141.78690918 72.60449219 142.00048828 C99.30339763 148.5631061 124.36533617 158.66171171 147.60864258 173.37231445 C148.55610352 173.94336914 149.50356445 174.51442383 150.47973633 175.1027832 C157.74822792 179.5440531 164.34842987 184.70366892 170.96118164 190.04956055 C172.42152115 191.2220738 173.90052895 192.37125194 175.38208008 193.5168457 C187.84313323 203.30232738 198.88969097 214.8913162 208.60864258 227.37231445 C209.55769249 228.53474022 210.50971217 229.69474537 211.46411133 230.8527832 C238.97361335 264.35179606 258.96780501 307.98088866 262.72583008 351.46606445 C262.81276123 352.42480469 262.89969238 353.38354492 262.98925781 354.37133789 C263.20018559 356.7046355 263.4065733 359.03823592 263.60864258 361.37231445 C264.18917074 361.36954907 264.76969891 361.3667837 265.36781883 361.36393452 C279.48022278 361.29773957 293.59260351 361.24806558 307.70512962 361.21687794 C314.52979475 361.20139571 321.35435638 361.18028053 328.17895508 361.14599609 C334.76007487 361.11295052 341.34111508 361.09548124 347.92232132 361.08768272 C350.43824587 361.08212231 352.95416426 361.07126486 355.47004318 361.05512428 C358.98300862 361.03347506 362.49552395 361.03034231 366.00854492 361.03173828 C367.58270927 361.01555954 367.58270927 361.01555954 369.18867493 360.99905396 C370.14222366 361.00317795 371.0957724 361.00730194 372.07821655 361.0115509 C372.90967382 361.00878552 373.7411311 361.00602015 374.59778404 361.00317097 C375.26136736 361.12498832 375.92495068 361.24680567 376.60864258 361.37231445 C379.23057326 365.30521047 378.93257814 368.70759321 378.94458008 373.2746582 C378.95123688 374.14876846 378.95789368 375.02287872 378.9647522 375.92347717 C378.97487546 377.77188004 378.97956932 379.62031944 378.97924805 381.46875 C378.98362112 384.29594132 379.0199426 387.12157127 379.05786133 389.94848633 C379.06372959 391.74470495 379.06769892 393.54093098 379.06958008 395.3371582 C379.09113663 396.6045005 379.09113663 396.6045005 379.11312866 397.89744568 C379.1069754 398.68829056 379.10082214 399.47913544 379.09448242 400.29394531 C379.09733246 400.98660995 379.1001825 401.6792746 379.1031189 402.39292908 C378.31018205 405.56704995 377.34682466 406.52928472 374.60864258 408.37231445 C371.06234826 408.95723489 367.55153226 408.87680631 363.96508789 408.82641602 C362.88185745 408.82700012 361.79862701 408.82758423 360.68257141 408.82818604 C357.10031141 408.8253982 353.51888232 408.79427172 349.93676758 408.76293945 C347.4538417 408.75547959 344.97090994 408.74978546 342.48797607 408.74578857 C336.61953922 408.73207394 330.75140939 408.70054535 324.88309836 408.66039062 C317.54556751 408.61127372 310.20801908 408.58980654 302.87036133 408.56762695 C289.78297014 408.52472102 276.69582525 408.45721353 263.60864258 408.37231445 C263.52568027 409.2311492 263.52568027 409.2311492 263.44104195 410.10733414 C263.18655633 412.73003751 262.9291164 415.35244303 262.67163086 417.97485352 C262.5846846 418.87547516 262.49773834 419.7760968 262.40815735 420.70401001 C261.76195793 427.255032 260.87607285 433.68393741 259.48364258 440.12231445 C259.27046387 441.11561768 259.05728516 442.1089209 258.83764648 443.13232422 C251.64193066 475.13538366 237.77136983 505.81158741 218.60864258 532.37231445 C217.85583008 533.42290039 217.10301758 534.47348633 216.32739258 535.5559082 C203.06759432 553.64400257 187.54960585 570.83435204 169.60864258 584.37231445 C169.08189941 584.78078613 168.55515625 585.18925781 168.01245117 585.61010742 C133.61685676 612.26152045 91.4824559 630.2643681 48.18725586 635.07861328 C45.93843828 635.33475109 43.69319007 635.60891031 41.44747925 635.89067078 C40.18066315 636.04961319 38.91384705 636.2085556 37.60864258 636.37231445 C37.61232975 637.02315128 37.61601692 637.67398811 37.61981583 638.34454727 C37.70813174 654.17676404 37.77433494 670.0088952 37.81589127 685.84129715 C37.83652148 693.4977223 37.86465065 701.15398308 37.91040039 708.81030273 C37.95025435 715.48312799 37.97607206 722.15583421 37.98499656 728.82877517 C37.99021384 732.36250399 38.00248523 735.89589228 38.03156281 739.42951202 C38.06375089 743.37307647 38.0646029 747.31630698 38.06274414 751.26000977 C38.07712524 752.43317245 38.09150635 753.60633514 38.10632324 754.81504822 C38.10082458 755.88914444 38.09532593 756.96324066 38.08966064 758.06988525 C38.09334782 759.00273975 38.09703499 759.93559425 38.10083389 760.89671707 C37.45820319 764.12898639 36.13304096 765.32588341 33.60864258 767.37231445 C31.58456421 767.86679077 31.58456421 767.86679077 29.42260742 767.8581543 C28.6085141 767.86430756 27.79442078 767.87046082 26.95565796 767.87680054 C26.08575226 767.8624295 25.21584656 767.84805847 24.31958008 767.83325195 C22.97012802 767.83187729 22.97012802 767.83187729 21.59341431 767.83047485 C19.6954418 767.82444157 17.79747869 767.80870371 15.8996582 767.78393555 C12.98719421 767.74735906 10.07600006 767.7429167 7.16333008 767.7434082 C5.31956903 767.73357956 3.47581663 767.72192366 1.63208008 767.70825195 C0.75812592 767.70602631 -0.11582825 767.70380066 -1.01626587 767.70150757 C-7.15919706 767.60447482 -7.15919706 767.60447482 -9.39135742 765.37231445 C-9.65307045 763.11157799 -9.65307045 763.11157799 -9.66983032 760.23446655 C-9.68657555 758.60220375 -9.68657555 758.60220375 -9.70365906 756.93696594 C-9.70581924 755.73791122 -9.70797943 754.53885651 -9.71020508 753.3034668 C-9.7202507 752.04496414 -9.73029633 750.78646149 -9.74064636 749.48982239 C-9.76801063 746.03345251 -9.78311466 742.57712353 -9.79607439 739.12067366 C-9.81167695 735.51046511 -9.83847626 731.90034044 -9.86410522 728.29019165 C-9.9109441 721.45146644 -9.94766339 714.61272554 -9.9807781 707.77392161 C-10.01896348 699.98920742 -10.06838296 692.20457737 -10.11876225 684.41993403 C-10.22215805 668.40412121 -10.31139347 652.38826177 -10.39135742 636.37231445 C-11.4203717 636.20495789 -12.44938599 636.03760132 -13.50958252 635.86517334 C-17.38265171 635.23415561 -21.25482515 634.59777697 -25.12677002 633.9598999 C-26.7923074 633.68625438 -28.4580741 633.41400041 -30.12408447 633.14324951 C-66.91011097 627.16099552 -101.26579809 613.61454985 -131.39135742 591.37231445 C-132.48849768 590.58123375 -133.5861368 589.79084436 -134.68432617 589.0012207 C-140.46862751 584.77112961 -145.88489274 580.28762849 -151.14916992 575.42700195 C-153.08242055 573.65541688 -155.05425076 571.97449104 -157.07885742 570.30981445 C-160.15006155 567.69360353 -162.72784801 564.81434672 -165.33276367 561.73950195 C-167.32870922 559.44435394 -169.40336781 557.24026678 -171.50024414 555.03759766 C-179.1267198 546.97514794 -185.90842895 538.37410082 -192.39135742 529.37231445 C-192.85896484 528.72375488 -193.32657227 528.07519531 -193.80834961 527.40698242 C-214.03124596 498.87799365 -228.16933142 463.72905579 -234.39135742 429.37231445 C-234.63241211 428.13223633 -234.8734668 426.8921582 -235.12182617 425.61450195 C-236.06990401 420.43507 -236.41717746 415.64692425 -236.39135742 410.37231445 C-236.95034886 410.38207715 -237.50934031 410.39183985 -238.08527088 410.40189838 C-251.68029948 410.63760302 -265.27550645 410.84522993 -278.87142658 411.02252674 C-285.44631617 411.10911851 -292.0207936 411.20508723 -298.59521484 411.32226562 C-304.93627045 411.43494332 -311.27723513 411.52327714 -317.61888695 411.59451866 C-320.04199363 411.62606055 -322.46500115 411.6664726 -324.88781166 411.71576881 C-328.27368391 411.78316602 -331.65853232 411.81941425 -335.04492188 411.84814453 C-336.05336655 411.87547165 -337.06181122 411.90279877 -338.10081482 411.93095398 C-340.628306 411.93518125 -342.91934809 411.89668776 -345.39135742 411.37231445 C-348.1655513 408.43199748 -348.76703411 405.8778941 -348.76367188 401.9050293 C-348.76990067 401.05419769 -348.77612946 400.20336609 -348.782547 399.32675171 C-348.77333725 398.42139679 -348.7641275 397.51604187 -348.75463867 396.58325195 C-348.75513718 395.64301178 -348.75563568 394.70277161 -348.75614929 393.73403931 C-348.75381418 391.75211466 -348.74411892 389.77018675 -348.72753906 387.78833008 C-348.70388575 384.75095214 -348.70698999 381.71444898 -348.71362305 378.67700195 C-348.70804799 376.74991338 -348.70093919 374.8228285 -348.69213867 372.89575195 C-348.69305008 371.98634857 -348.69396149 371.07694519 -348.69490051 370.13998413 C-348.6853685 369.29545685 -348.67583649 368.45092957 -348.66601562 367.58081055 C-348.66140823 366.83866302 -348.65680084 366.0965155 -348.65205383 365.33187866 C-348.39135742 363.37231445 -348.39135742 363.37231445 -346.39135742 360.37231445 C-343.6283924 360.09106376 -341.09107883 360.0044937 -338.32763672 360.04760742 C-337.49300903 360.04877563 -336.65838135 360.04994385 -335.79846191 360.05114746 C-333.02058654 360.0583697 -330.24331502 360.0866522 -327.46557617 360.11450195 C-325.52334643 360.12264544 -323.58110996 360.12930604 -321.63887024 360.134552 C-316.49947582 360.15172419 -311.3603419 360.18594875 -306.22106934 360.22460938 C-298.06416682 360.28354974 -289.90714569 360.31820488 -281.75010109 360.35037613 C-278.9295761 360.36406986 -276.10920502 360.3857291 -273.28874207 360.40866089 C-260.95862169 360.48769536 -248.70121504 360.07449933 -236.39135742 359.37231445 C-236.25783371 358.60541794 -236.12431 357.83852142 -235.98674011 357.04838562 C-231.72435659 332.63818482 -226.79475621 309.71043929 -216.58911133 287.03637695 C-215.53381372 284.68916793 -214.51034757 282.33149528 -213.49682617 279.96606445 C-202.67979535 255.28574255 -187.13095784 232.67113204 -168.39135742 213.37231445 C-167.7892041 212.74437988 -167.18705078 212.11644531 -166.56665039 211.46948242 C-158.01511255 202.577161 -149.38739517 194.60374756 -139.39135742 187.37231445 C-138.28967893 186.52296652 -137.19078021 185.67000253 -136.09448242 184.8137207 C-109.91241053 164.59760607 -78.89710779 149.86515997 -46.76635742 142.18481445 C-45.78489746 141.94657959 -44.8034375 141.70834473 -43.79223633 141.46289062 C-36.38547543 139.78082313 -28.96360948 138.74075846 -21.43286133 137.78515625 C-20.36896683 137.64836205 -19.30507233 137.51156784 -18.2089386 137.37062836 C-15.60332393 137.03588719 -12.99746802 136.70316855 -10.39135742 136.37231445 C-10.39081265 135.68963344 -10.39026789 135.00695242 -10.38970661 134.3035841 C-10.37474895 117.70376648 -10.33234369 101.10427015 -10.25926685 84.50461102 C-10.22459168 76.4771641 -10.19925805 68.44988935 -10.19580078 60.42236328 C-10.19276437 53.42675491 -10.17231785 46.43145295 -10.13083285 39.43596298 C-10.10947126 35.73070485 -10.09691809 32.02588267 -10.10520363 28.32056236 C-10.1141204 24.18723513 -10.08417302 20.05507687 -10.05078125 15.921875 C-10.06371971 14.07258141 -10.06371971 14.07258141 -10.07691956 12.18592834 C-10.06163208 11.06272186 -10.0463446 9.93951538 -10.03059387 8.78227234 C-10.02782849 7.80424998 -10.02506311 6.82622763 -10.02221394 5.81856823 C-9.39135742 3.37231445 -9.39135742 3.37231445 -6.98779869 1.55758095 C-4.39562765 0.3742638 -2.81781201 -0.00243296 0 0 Z " fill="#A40A14" transform="translate(497.391357421875,129.627685546875)"/>
<path d="M0 0 C1.49747542 -0.00461467 2.99494538 -0.01142069 4.49240214 -0.02020609 C8.60383222 -0.0379896 12.71466078 -0.02471241 16.82606644 -0.00631597 C21.30025905 0.00818393 25.77437334 -0.00636415 30.24856329 -0.01720095 C38.08900236 -0.03217967 45.92926221 -0.02857327 53.76969719 -0.01278305 C65.42861938 0.0106328 77.08740648 0.00543716 88.74634077 -0.00549195 C109.56850543 -0.02408539 130.39058459 -0.01436033 151.21274228 0.00698569 C169.43442444 0.02553408 187.65607786 0.0339651 205.87776947 0.0324173 C207.08591157 0.03232562 208.29405366 0.03223395 209.53880612 0.03213949 C214.44290558 0.03174634 219.34700502 0.03129672 224.25110446 0.0307681 C270.26622924 0.02589571 316.28130303 0.04856787 362.29641195 0.08472433 C403.18847597 0.1167182 444.08049642 0.12876798 484.97257233 0.12264252 C487.59819442 0.12225567 490.22381651 0.12186922 492.84943861 0.12148315 C494.79651427 0.12119613 494.79651427 0.12119613 496.7829248 0.12090331 C503.31698363 0.11994899 509.85104247 0.11903462 516.38510132 0.11816406 C517.67413888 0.11799027 518.96317643 0.11781647 520.29127574 0.11763741 C554.44869945 0.11328332 588.60611846 0.12329422 622.76353884 0.13800192 C624.58590901 0.13878213 624.58590901 0.13878213 626.44509474 0.13957811 C627.65780491 0.14009745 628.87051508 0.14061679 630.11997405 0.14115188 C631.33048019 0.14166962 632.54098633 0.14218736 633.78817447 0.14272078 C636.22604642 0.14376888 638.66391838 0.14482909 641.10179032 0.1459015 C658.1059414 0.1532857 675.11008582 0.15536966 692.11423831 0.1539075 C714.02612244 0.15206273 735.93796553 0.16011204 757.84983623 0.18554896 C769.44107859 0.19872455 781.03225541 0.20371865 792.62350365 0.19691042 C800.36232152 0.19320373 808.10107948 0.20038662 815.83988133 0.21650281 C820.25159296 0.22539202 824.66316958 0.22955353 829.07488412 0.22057563 C833.08962323 0.21251001 837.10409773 0.21827388 841.11880796 0.23499252 C842.56085487 0.23859508 844.0029253 0.23720406 845.44495947 0.23015337 C854.61777817 0.18876602 862.83078298 0.6610039 870.9759903 5.18611908 C878.31209403 13.36063467 878.8850935 21.87903902 878.78710938 32.46012878 C878.79172405 33.9576042 878.79853006 35.45507417 878.80731547 36.95253092 C878.82509897 41.06396101 878.81182179 45.17478957 878.79342534 49.28619523 C878.77892545 53.76038784 878.79347352 58.23450212 878.80431032 62.70869207 C878.81928905 70.54913115 878.81568264 78.38939099 878.79989243 86.22982597 C878.77647657 97.88874816 878.78167222 109.54753526 878.79260132 121.20646955 C878.81119477 142.02863422 878.8014697 162.85071338 878.78012369 183.67287107 C878.7615753 201.89455322 878.75314427 220.11620665 878.75469208 238.33789825 C878.75482959 240.1501114 878.75482959 240.1501114 878.75496988 241.99893491 C878.75536303 246.90303436 878.75581265 251.80713381 878.75634127 256.71123325 C878.76121367 302.72635802 878.73854151 348.74143181 878.70238505 394.75654074 C878.67039117 435.64860475 878.65834139 476.54062521 878.66446686 517.43270111 C878.6648537 520.0583232 878.66524016 522.6839453 878.66562623 525.30956739 C878.66581757 526.60761783 878.66600892 527.90566828 878.66620606 529.24305358 C878.66716039 535.77711242 878.66807476 542.31117126 878.66894531 548.8452301 C878.669206 550.77878644 878.669206 550.77878644 878.66947196 552.75140452 C878.67382605 586.90882823 878.66381515 621.06624724 878.64910746 655.22366762 C878.64858731 656.43858107 878.64806717 657.65349452 878.64753127 658.90522352 C878.64675225 660.72428878 878.64675225 660.72428878 878.6459575 662.58010283 C878.64543976 663.79060897 878.64492202 665.00111511 878.64438859 666.24830325 C878.6433405 668.68617521 878.64228029 671.12404716 878.64120787 673.5619191 C878.63382368 690.56607018 878.63173972 707.57021461 878.63320187 724.57436709 C878.63504664 746.48625123 878.62699733 768.39809431 878.60156041 790.30996501 C878.58838482 801.90120737 878.58339072 813.49238419 878.59019895 825.08363244 C878.59390564 832.8224503 878.58672276 840.56120826 878.57060657 848.30001012 C878.56171735 852.71172174 878.55755585 857.12329836 878.56653374 861.5350129 C878.57459936 865.54975201 878.5688355 869.56422651 878.55211686 873.57893675 C878.5485143 875.02098365 878.54990531 876.46305409 878.55695601 877.90508825 C878.59834335 887.07790696 878.12610547 895.29091176 873.6009903 903.43611908 C865.4264747 910.77222282 856.90807036 911.34522229 846.32698059 911.24723816 C844.82950518 911.25185283 843.33203521 911.25865884 841.83457845 911.26744425 C837.72314837 911.28522776 833.61231981 911.27195057 829.50091415 911.25355413 C825.02672154 911.23905423 820.55260725 911.25360231 816.0784173 911.26443911 C808.23797823 911.27941783 800.39771839 911.27581143 792.5572834 911.26002121 C780.89836121 911.23660536 769.23957411 911.241801 757.58063982 911.25273011 C736.75847516 911.27132355 715.936396 911.26159848 695.11423831 911.24025247 C676.89255615 911.22170408 658.67090273 911.21327306 640.44921112 911.21482086 C639.24106903 911.21491254 638.03292693 911.21500421 636.78817447 911.21509867 C631.88407501 911.21549182 626.97997557 911.21594144 622.07587613 911.21647006 C576.06075135 911.22134245 530.04567756 911.19867029 484.03056864 911.16251383 C443.13850463 911.13051996 402.24648417 911.11847018 361.35440826 911.12459564 C358.72878617 911.12498249 356.10316408 911.12536894 353.47754198 911.12575501 C351.53046632 911.12604203 351.53046632 911.12604203 349.5440558 911.12633485 C343.00999696 911.12728917 336.47593812 911.12820354 329.94187927 911.1290741 C328.65284171 911.12924789 327.36380416 911.12942168 326.03570485 911.12960074 C291.87828114 911.13395483 257.72086213 911.12394394 223.56344175 911.10923624 C222.34852831 911.1087161 221.13361486 911.10819596 219.88188585 911.10766005 C218.66917568 911.10714071 217.45646551 911.10662137 216.20700654 911.10608628 C214.9965004 911.10556854 213.78599427 911.1050508 212.53880612 911.10451737 C210.10093417 911.10346928 207.66306222 911.10240907 205.22519027 911.10133665 C188.22103919 911.09395246 171.21689477 911.0918685 154.21274228 911.09333066 C132.30085815 911.09517542 110.38901506 911.08712612 88.47714436 911.0616892 C76.885902 911.04851361 65.29472518 911.0435195 53.70347694 911.05032774 C45.96465907 911.05403443 38.22590111 911.04685154 30.48709926 911.03073535 C26.07538764 911.02184614 21.66381101 911.01768463 17.25209647 911.02666253 C13.23735736 911.03472814 9.22288286 911.02896428 5.20817263 911.01224564 C3.76612572 911.00864308 2.32405529 911.0100341 0.88202112 911.01708479 C-8.29079758 911.05847213 -16.50380239 910.58623426 -24.6490097 906.06111908 C-31.98511344 897.88660349 -32.55811291 889.36819914 -32.46012878 878.78710938 C-32.46474345 877.28963396 -32.47154947 875.79216399 -32.48033488 874.29470724 C-32.49811838 870.18327715 -32.4848412 866.07244859 -32.46644475 861.96104293 C-32.45194485 857.48685032 -32.46649293 853.01273604 -32.47732973 848.53854609 C-32.49230846 840.69810701 -32.48870205 832.85784717 -32.47291183 825.01741219 C-32.44949598 813.35849 -32.45469163 801.69970289 -32.46562073 790.04076861 C-32.48421418 769.21860394 -32.47448911 748.39652478 -32.4531431 727.57436709 C-32.43459471 709.35268494 -32.42616368 691.13103151 -32.42771149 672.9093399 C-32.42780316 671.70119781 -32.42789484 670.49305571 -32.42798929 669.24830325 C-32.42838244 664.3442038 -32.42883206 659.44010435 -32.42936068 654.53600491 C-32.43423308 608.52088014 -32.41156092 562.50580635 -32.37540445 516.49069742 C-32.34341058 475.59863341 -32.3313608 434.70661295 -32.33748627 393.81453705 C-32.33787311 391.18891495 -32.33825957 388.56329286 -32.33864564 385.93767077 C-32.33883698 384.63962033 -32.33902833 383.34156988 -32.33922547 382.00418458 C-32.3401798 375.47012574 -32.34109416 368.9360669 -32.34196472 362.40200806 C-32.34213852 361.1129705 -32.34231231 359.82393294 -32.34249137 358.49583364 C-32.34684546 324.33840992 -32.33683456 290.18099092 -32.32212687 256.02357054 C-32.32160672 254.80865709 -32.32108658 253.59374364 -32.32055068 252.34201463 C-32.32003133 251.12930446 -32.31951199 249.91659429 -32.31897691 248.66713533 C-32.3182003 246.85137612 -32.3182003 246.85137612 -32.317408 244.99893491 C-32.31635991 242.56106295 -32.3152997 240.123191 -32.31422728 237.68531905 C-32.30684309 220.68116797 -32.30475912 203.67702355 -32.30622128 186.67287107 C-32.30806605 164.76098693 -32.30001674 142.84914385 -32.27457982 120.93727314 C-32.26140423 109.34603079 -32.25641013 97.75485397 -32.26321836 86.16360572 C-32.26692505 78.42478786 -32.25974216 70.6860299 -32.24362598 62.94722804 C-32.23473676 58.53551642 -32.23057525 54.1239398 -32.23955315 49.71222526 C-32.24761877 45.69748615 -32.2418549 41.68301164 -32.22513627 37.66830141 C-32.22153371 36.22625451 -32.22292472 34.78418407 -32.22997542 33.34214991 C-32.27136276 24.1693312 -31.79912488 15.9563264 -27.2740097 7.81111908 C-19.09949411 0.47501534 -10.58108977 -0.09798413 0 0 Z M9.1634903 41.62361908 C9.1634903 314.86361908 9.1634903 588.10361908 9.1634903 869.62361908 C282.4034903 869.62361908 555.6434903 869.62361908 837.1634903 869.62361908 C837.1634903 596.38361908 837.1634903 323.14361908 837.1634903 41.62361908 C563.9234903 41.62361908 290.6834903 41.62361908 9.1634903 41.62361908 Z " fill="#A50B15" transform="translate(88.83650970458984,56.376380920410156)"/>
<path d="M0 0 C17.7463479 14.10243113 30.72402127 31.87501312 33.8125 54.8125 C35.25428957 71.19815997 33.78745039 88.13859128 25.8125 102.8125 C25.34328125 103.7303125 24.8740625 104.648125 24.390625 105.59375 C18.22896349 116.97815317 9.57576772 126.57143118 -1.1875 133.8125 C-2.06664062 134.40675781 -2.94578125 135.00101563 -3.8515625 135.61328125 C-21.61031714 146.79028721 -44.27524519 149.98614485 -64.77587891 145.78662109 C-77.28955065 142.68297479 -89.64238442 136.51116194 -99.1875 127.8125 C-100.39792969 126.73935547 -100.39792969 126.73935547 -101.6328125 125.64453125 C-116.89044616 111.34341591 -126.14352893 91.29901545 -127.390625 70.41015625 C-127.70024033 47.06000013 -120.22306743 26.47563499 -103.86328125 9.37109375 C-75.91942558 -17.34894342 -32.08285483 -23.12277826 0 0 Z " fill="#000000" transform="translate(558.1875,449.1875)"/>
<path d="M0 0 C0.0462752 10.00499195 0.08184462 20.00995858 0.10362434 30.01503563 C0.11407582 34.66045274 0.12825979 39.30579681 0.15087891 43.95117188 C0.1725588 48.43153225 0.18455834 52.91182222 0.18975449 57.39223099 C0.19345899 59.10431655 0.20069266 60.81639812 0.21146011 62.52845383 C0.22591068 64.92058486 0.22798067 67.31242242 0.22705078 69.70458984 C0.23424133 70.41740616 0.24143188 71.13022247 0.24884033 71.86463928 C0.22810432 76.77189568 0.22810432 76.77189568 -2 79 C-3.85327148 79.72680664 -3.85327148 79.72680664 -6.12109375 80.41015625 C-6.96446289 80.67272217 -7.80783203 80.93528809 -8.67675781 81.20581055 C-9.58780273 81.48851807 -10.49884766 81.77122559 -11.4375 82.0625 C-29.50593981 87.92592227 -48.41344288 95.92136909 -61.8515625 109.859375 C-64 112 -64 112 -66 112 C-66.23847656 112.56460938 -66.47695313 113.12921875 -66.72265625 113.7109375 C-68.27349823 116.49012221 -70.19507413 118.36463472 -72.4375 120.625 C-86.80738926 136.19930194 -96.86861709 157.34308545 -101 178 C-127.07 178 -153.14 178 -180 178 C-180 161.53521127 -180 161.53521127 -178.5 154.5 C-178.32694336 153.66887695 -178.15388672 152.83775391 -177.97558594 151.98144531 C-174.36868077 135.81359828 -167.9122906 120.50129855 -160 106 C-159.68595215 105.41347656 -159.3719043 104.82695312 -159.04833984 104.22265625 C-152.10425665 91.30543883 -144.04564413 78.72747518 -134 68 C-132.99066406 66.83984375 -132.99066406 66.83984375 -131.9609375 65.65625 C-126.38433909 59.27173451 -120.3541359 53.60154709 -114 48 C-113.35675781 47.40703125 -112.71351563 46.8140625 -112.05078125 46.203125 C-100.90012288 36.04417377 -88.36534168 27.90614082 -75 21 C-74.27329102 20.62101562 -73.54658203 20.24203125 -72.79785156 19.8515625 C-57.69883978 12.07031648 -16.67588153 -8.33794077 0 0 Z " fill="#000000" transform="translate(490,313)"/>
<path d="M0 0 C1.09837189 -0.00021904 1.09837189 -0.00021904 2.21893311 -0.0004425 C4.62669897 0.00025126 7.0343864 0.00801847 9.44213867 0.01586914 C11.1165106 0.01773522 12.79088307 0.01915823 14.46525574 0.02015686 C18.86287963 0.02396704 23.26047026 0.03378449 27.65808105 0.04486084 C32.14924673 0.05510723 36.64041779 0.05966139 41.1315918 0.06469727 C49.93694556 0.07540813 58.74227235 0.09246651 67.54760742 0.11352539 C68.59353753 3.771469 69.63843464 7.42942034 70.66088867 11.09399414 C76.4210206 31.46841739 85.31412409 47.51618127 99.54760742 63.11352539 C100.01537598 63.63188965 100.48314453 64.15025391 100.96508789 64.68432617 C118.7699032 84.18833086 143.2333926 95.78497169 168.54760742 102.11352539 C168.54760742 128.84352539 168.54760742 155.57352539 168.54760742 183.11352539 C137.33031099 178.18447859 137.33031099 178.18447859 122.5715332 171.96508789 C121.06789433 171.33243501 119.56043432 170.70884813 118.05102539 170.09008789 C100.36358904 162.82342376 83.0154391 154.84977406 68.54760742 142.11352539 C67.46210273 141.20649716 66.37471251 140.30172277 65.28588867 139.39868164 C50.30347988 126.85139663 35.70756548 113.23567909 24.54760742 97.11352539 C24.1428418 96.53715332 23.73807617 95.96078125 23.32104492 95.36694336 C8.6758778 74.43805614 -2.23237634 51.65524725 -9.45239258 27.11352539 C-9.68442383 26.35168945 -9.91645508 25.58985352 -10.15551758 24.80493164 C-12.18320157 17.14318284 -12.10868083 8.99176056 -12.45239258 1.11352539 C-8.28346703 0.10337048 -4.26442915 -0.02243692 0 0 Z " fill="#000000" transform="translate(320.452392578125,537.886474609375)"/>
<path d="M0 0 C26.07 0 52.14 0 79 0 C79 10.13875823 79 10.13875823 78.1171875 13.83984375 C77.92286133 14.66548828 77.72853516 15.49113281 77.52832031 16.34179688 C77.31272461 17.19837891 77.09712891 18.05496094 76.875 18.9375 C76.6490918 19.85208984 76.42318359 20.76667969 76.19042969 21.70898438 C68.29163893 52.89353995 54.76549823 82.28829085 34 107 C33.14793133 108.03734485 32.29639996 109.07513121 31.4453125 110.11328125 C-0.73429969 149.09367979 -46.74183917 174.87226702 -97 181 C-98.65 181 -100.3 181 -102 181 C-102 154.93 -102 128.86 -102 102 C-95.4 100.02 -88.8 98.04 -82 96 C-50.17591093 83.12996398 -24.14355168 60.72641637 -10 29 C-6.13340922 19.50415666 -2.81582733 9.85539566 0 0 Z " fill="#000000" transform="translate(637,538)"/>
<path d="M0 0 C0.76634766 0.17821289 1.53269531 0.35642578 2.32226562 0.54003906 C34.793745 8.29696886 67.25252335 22.96064891 91.6875 46.375 C91.6875 47.035 91.6875 47.695 91.6875 48.375 C92.28119385 48.64562256 92.8748877 48.91624512 93.48657227 49.19506836 C122.78852034 64.90403287 144.39761656 112.52610113 153.6875 142.375 C156.83907668 153.10516093 158.6875 163.12230942 158.6875 174.375 C132.9475 174.375 107.2075 174.375 80.6875 174.375 C77.35279436 165.48245163 77.35279436 165.48245163 76.50390625 162.17578125 C71.75595581 144.8973954 63.49562915 129.03419742 50.6875 116.375 C49.48979448 114.98791369 48.30186269 113.59231357 47.125 112.1875 C30.81455067 93.70477864 7.04769818 83.69464471 -15.7265625 75.6875 C-19.3125 74.375 -19.3125 74.375 -20.3125 73.375 C-20.40663166 71.90550553 -20.4313723 70.43148617 -20.42773438 68.95898438 C-20.426828 67.54450012 -20.426828 67.54450012 -20.42590332 66.10144043 C-20.41941772 65.06765259 -20.41293213 64.03386475 -20.40625 62.96875 C-20.40266479 61.89725708 -20.39907959 60.82576416 -20.39538574 59.72180176 C-20.3353174 47.43715909 -20.08105679 35.1565165 -19.8125 22.875 C-19.76409343 20.57552565 -19.71591544 18.27604648 -19.66796875 15.9765625 C-19.55209769 10.44265029 -19.43346807 4.90880302 -19.3125 -0.625 C-13.65694462 -3.45277769 -5.8876213 -1.40066242 0 0 Z " fill="#000000" transform="translate(555.3125,316.625)"/>
</svg>
