<?xml version="1.0" encoding="UTF-8"?>
<svg version="1.1" xmlns="http://www.w3.org/2000/svg" width="1024" height="1024">
<path d="M0 0 C1.49747542 -0.00461467 2.99494538 -0.01142069 4.49240214 -0.02020609 C8.60383222 -0.0379896 12.71466078 -0.02471241 16.82606644 -0.00631597 C21.30025905 0.00818393 25.77437334 -0.00636415 30.24856329 -0.01720095 C38.08900236 -0.03217967 45.92926221 -0.02857327 53.76969719 -0.01278305 C65.42861938 0.0106328 77.08740648 0.00543716 88.74634077 -0.00549195 C109.56850543 -0.02408539 130.39058459 -0.01436033 151.21274228 0.00698569 C169.43442444 0.02553408 187.65607786 0.0339651 205.87776947 0.0324173 C207.08591157 0.03232562 208.29405366 0.03223395 209.53880612 0.03213949 C214.44290558 0.03174634 219.34700502 0.03129672 224.25110446 0.0307681 C270.26622924 0.02589571 316.28130303 0.04856787 362.29641195 0.08472433 C403.18847597 0.1167182 444.08049642 0.12876798 484.97257233 0.12264252 C487.59819442 0.12225567 490.22381651 0.12186922 492.84943861 0.12148315 C494.79651427 0.12119613 494.79651427 0.12119613 496.7829248 0.12090331 C503.31698363 0.11994899 509.85104247 0.11903462 516.38510132 0.11816406 C517.67413888 0.11799027 518.96317643 0.11781647 520.29127574 0.11763741 C554.44869945 0.11328332 588.60611846 0.12329422 622.76353884 0.13800192 C624.58590901 0.13878213 624.58590901 0.13878213 626.44509474 0.13957811 C627.65780491 0.14009745 628.87051508 0.14061679 630.11997405 0.14115188 C631.33048019 0.14166962 632.54098633 0.14218736 633.78817447 0.14272078 C636.22604642 0.14376888 638.66391838 0.14482909 641.10179032 0.1459015 C658.1059414 0.1532857 675.11008582 0.15536966 692.11423831 0.1539075 C714.02612244 0.15206273 735.93796553 0.16011204 757.84983623 0.18554896 C769.44107859 0.19872455 781.03225541 0.20371865 792.62350365 0.19691042 C800.36232152 0.19320373 808.10107948 0.20038662 815.83988133 0.21650281 C820.25159296 0.22539202 824.66316958 0.22955353 829.07488412 0.22057563 C833.08962323 0.21251001 837.10409773 0.21827388 841.11880796 0.23499252 C842.56085487 0.23859508 844.0029253 0.23720406 845.44495947 0.23015337 C854.61777817 0.18876602 862.83078298 0.6610039 870.9759903 5.18611908 C878.31209403 13.36063467 878.8850935 21.87903902 878.78710938 32.46012878 C878.79172405 33.9576042 878.79853006 35.45507417 878.80731547 36.95253092 C878.82509897 41.06396101 878.81182179 45.17478957 878.79342534 49.28619523 C878.77892545 53.76038784 878.79347352 58.23450212 878.80431032 62.70869207 C878.81928905 70.54913115 878.81568264 78.38939099 878.79989243 86.22982597 C878.77647657 97.88874816 878.78167222 109.54753526 878.79260132 121.20646955 C878.81119477 142.02863422 878.8014697 162.85071338 878.78012369 183.67287107 C878.7615753 201.89455322 878.75314427 220.11620665 878.75469208 238.33789825 C878.75482959 240.1501114 878.75482959 240.1501114 878.75496988 241.99893491 C878.75536303 246.90303436 878.75581265 251.80713381 878.75634127 256.71123325 C878.76121367 302.72635802 878.73854151 348.74143181 878.70238505 394.75654074 C878.67039117 435.64860475 878.65834139 476.54062521 878.66446686 517.43270111 C878.6648537 520.0583232 878.66524016 522.6839453 878.66562623 525.30956739 C878.66581757 526.60761783 878.66600892 527.90566828 878.66620606 529.24305358 C878.66716039 535.77711242 878.66807476 542.31117126 878.66894531 548.8452301 C878.669206 550.77878644 878.669206 550.77878644 878.66947196 552.75140452 C878.67382605 586.90882823 878.66381515 621.06624724 878.64910746 655.22366762 C878.64858731 656.43858107 878.64806717 657.65349452 878.64753127 658.90522352 C878.64675225 660.72428878 878.64675225 660.72428878 878.6459575 662.58010283 C878.64543976 663.79060897 878.64492202 665.00111511 878.64438859 666.24830325 C878.6433405 668.68617521 878.64228029 671.12404716 878.64120787 673.5619191 C878.63382368 690.56607018 878.63173972 707.57021461 878.63320187 724.57436709 C878.63504664 746.48625123 878.62699733 768.39809431 878.60156041 790.30996501 C878.58838482 801.90120737 878.58339072 813.49238419 878.59019895 825.08363244 C878.59390564 832.8224503 878.58672276 840.56120826 878.57060657 848.30001012 C878.56171735 852.71172174 878.55755585 857.12329836 878.56653374 861.5350129 C878.57459936 865.54975201 878.5688355 869.56422651 878.55211686 873.57893675 C878.5485143 875.02098365 878.54990531 876.46305409 878.55695601 877.90508825 C878.59834335 887.07790696 878.12610547 895.29091176 873.6009903 903.43611908 C865.4264747 910.77222282 856.90807036 911.34522229 846.32698059 911.24723816 C844.82950518 911.25185283 843.33203521 911.25865884 841.83457845 911.26744425 C837.72314837 911.28522776 833.61231981 911.27195057 829.50091415 911.25355413 C825.02672154 911.23905423 820.55260725 911.25360231 816.0784173 911.26443911 C808.23797823 911.27941783 800.39771839 911.27581143 792.5572834 911.26002121 C780.89836121 911.23660536 769.23957411 911.241801 757.58063982 911.25273011 C736.75847516 911.27132355 715.936396 911.26159848 695.11423831 911.24025247 C676.89255615 911.22170408 658.67090273 911.21327306 640.44921112 911.21482086 C639.24106903 911.21491254 638.03292693 911.21500421 636.78817447 911.21509867 C631.88407501 911.21549182 626.97997557 911.21594144 622.07587613 911.21647006 C576.06075135 911.22134245 530.04567756 911.19867029 484.03056864 911.16251383 C443.13850463 911.13051996 402.24648417 911.11847018 361.35440826 911.12459564 C358.72878617 911.12498249 356.10316408 911.12536894 353.47754198 911.12575501 C351.53046632 911.12604203 351.53046632 911.12604203 349.5440558 911.12633485 C343.00999696 911.12728917 336.47593812 911.12820354 329.94187927 911.1290741 C328.65284171 911.12924789 327.36380416 911.12942168 326.03570485 911.12960074 C291.87828114 911.13395483 257.72086213 911.12394394 223.56344175 911.10923624 C222.34852831 911.1087161 221.13361486 911.10819596 219.88188585 911.10766005 C218.66917568 911.10714071 217.45646551 911.10662137 216.20700654 911.10608628 C214.9965004 911.10556854 213.78599427 911.1050508 212.53880612 911.10451737 C210.10093417 911.10346928 207.66306222 911.10240907 205.22519027 911.10133665 C188.22103919 911.09395246 171.21689477 911.0918685 154.21274228 911.09333066 C132.30085815 911.09517542 110.38901506 911.08712612 88.47714436 911.0616892 C76.885902 911.04851361 65.29472518 911.0435195 53.70347694 911.05032774 C45.96465907 911.05403443 38.22590111 911.04685154 30.48709926 911.03073535 C26.07538764 911.02184614 21.66381101 911.01768463 17.25209647 911.02666253 C13.23735736 911.03472814 9.22288286 911.02896428 5.20817263 911.01224564 C3.76612572 911.00864308 2.32405529 911.0100341 0.88202112 911.01708479 C-8.29079758 911.05847213 -16.50380239 910.58623426 -24.6490097 906.06111908 C-31.98511344 897.88660349 -32.55811291 889.36819914 -32.46012878 878.78710938 C-32.46474345 877.28963396 -32.47154947 875.79216399 -32.48033488 874.29470724 C-32.49811838 870.18327715 -32.4848412 866.07244859 -32.46644475 861.96104293 C-32.45194485 857.48685032 -32.46649293 853.01273604 -32.47732973 848.53854609 C-32.49230846 840.69810701 -32.48870205 832.85784717 -32.47291183 825.01741219 C-32.44949598 813.35849 -32.45469163 801.69970289 -32.46562073 790.04076861 C-32.48421418 769.21860394 -32.47448911 748.39652478 -32.4531431 727.57436709 C-32.43459471 709.35268494 -32.42616368 691.13103151 -32.42771149 672.9093399 C-32.42780316 671.70119781 -32.42789484 670.49305571 -32.42798929 669.24830325 C-32.42838244 664.3442038 -32.42883206 659.44010435 -32.42936068 654.53600491 C-32.43423308 608.52088014 -32.41156092 562.50580635 -32.37540445 516.49069742 C-32.34341058 475.59863341 -32.3313608 434.70661295 -32.33748627 393.81453705 C-32.33787311 391.18891495 -32.33825957 388.56329286 -32.33864564 385.93767077 C-32.33883698 384.63962033 -32.33902833 383.34156988 -32.33922547 382.00418458 C-32.3401798 375.47012574 -32.34109416 368.9360669 -32.34196472 362.40200806 C-32.34213852 361.1129705 -32.34231231 359.82393294 -32.34249137 358.49583364 C-32.34684546 324.33840992 -32.33683456 290.18099092 -32.32212687 256.02357054 C-32.32160672 254.80865709 -32.32108658 253.59374364 -32.32055068 252.34201463 C-32.32003133 251.12930446 -32.31951199 249.91659429 -32.31897691 248.66713533 C-32.3182003 246.85137612 -32.3182003 246.85137612 -32.317408 244.99893491 C-32.31635991 242.56106295 -32.3152997 240.123191 -32.31422728 237.68531905 C-32.30684309 220.68116797 -32.30475912 203.67702355 -32.30622128 186.67287107 C-32.30806605 164.76098693 -32.30001674 142.84914385 -32.27457982 120.93727314 C-32.26140423 109.34603079 -32.25641013 97.75485397 -32.26321836 86.16360572 C-32.26692505 78.42478786 -32.25974216 70.6860299 -32.24362598 62.94722804 C-32.23473676 58.53551642 -32.23057525 54.1239398 -32.23955315 49.71222526 C-32.24761877 45.69748615 -32.2418549 41.68301164 -32.22513627 37.66830141 C-32.22153371 36.22625451 -32.22292472 34.78418407 -32.22997542 33.34214991 C-32.27136276 24.1693312 -31.79912488 15.9563264 -27.2740097 7.81111908 C-19.09949411 0.47501534 -10.58108977 -0.09798413 0 0 Z " fill="#000000" transform="translate(88.83650970458984,56.376380920410156)"/>
<path d="M0 0 C1.49747542 -0.00461467 2.99494538 -0.01142069 4.49240214 -0.02020609 C8.60383222 -0.0379896 12.71466078 -0.02471241 16.82606644 -0.00631597 C21.30025905 0.00818393 25.77437334 -0.00636415 30.24856329 -0.01720095 C38.08900236 -0.03217967 45.92926221 -0.02857327 53.76969719 -0.01278305 C65.42861938 0.0106328 77.08740648 0.00543716 88.74634077 -0.00549195 C109.56850543 -0.02408539 130.39058459 -0.01436033 151.21274228 0.00698569 C169.43442444 0.02553408 187.65607786 0.0339651 205.87776947 0.0324173 C207.08591157 0.03232562 208.29405366 0.03223395 209.53880612 0.03213949 C214.44290558 0.03174634 219.34700502 0.03129672 224.25110446 0.0307681 C270.26622924 0.02589571 316.28130303 0.04856787 362.29641195 0.08472433 C403.18847597 0.1167182 444.08049642 0.12876798 484.97257233 0.12264252 C487.59819442 0.12225567 490.22381651 0.12186922 492.84943861 0.12148315 C494.79651427 0.12119613 494.79651427 0.12119613 496.7829248 0.12090331 C503.31698363 0.11994899 509.85104247 0.11903462 516.38510132 0.11816406 C517.67413888 0.11799027 518.96317643 0.11781647 520.29127574 0.11763741 C554.44869945 0.11328332 588.60611846 0.12329422 622.76353884 0.13800192 C624.58590901 0.13878213 624.58590901 0.13878213 626.44509474 0.13957811 C627.65780491 0.14009745 628.87051508 0.14061679 630.11997405 0.14115188 C631.33048019 0.14166962 632.54098633 0.14218736 633.78817447 0.14272078 C636.22604642 0.14376888 638.66391838 0.14482909 641.10179032 0.1459015 C658.1059414 0.1532857 675.11008582 0.15536966 692.11423831 0.1539075 C714.02612244 0.15206273 735.93796553 0.16011204 757.84983623 0.18554896 C769.44107859 0.19872455 781.03225541 0.20371865 792.62350365 0.19691042 C800.36232152 0.19320373 808.10107948 0.20038662 815.83988133 0.21650281 C820.25159296 0.22539202 824.66316958 0.22955353 829.07488412 0.22057563 C833.08962323 0.21251001 837.10409773 0.21827388 841.11880796 0.23499252 C842.56085487 0.23859508 844.0029253 0.23720406 845.44495947 0.23015337 C854.61777817 0.18876602 862.83078298 0.6610039 870.9759903 5.18611908 C878.31209403 13.36063467 878.8850935 21.87903902 878.78710938 32.46012878 C878.79172405 33.9576042 878.79853006 35.45507417 878.80731547 36.95253092 C878.82509897 41.06396101 878.81182179 45.17478957 878.79342534 49.28619523 C878.77892545 53.76038784 878.79347352 58.23450212 878.80431032 62.70869207 C878.81928905 70.54913115 878.81568264 78.38939099 878.79989243 86.22982597 C878.77647657 97.88874816 878.78167222 109.54753526 878.79260132 121.20646955 C878.81119477 142.02863422 878.8014697 162.85071338 878.78012369 183.67287107 C878.7615753 201.89455322 878.75314427 220.11620665 878.75469208 238.33789825 C878.75482959 240.1501114 878.75482959 240.1501114 878.75496988 241.99893491 C878.75536303 246.90303436 878.75581265 251.80713381 878.75634127 256.71123325 C878.76121367 302.72635802 878.73854151 348.74143181 878.70238505 394.75654074 C878.67039117 435.64860475 878.65834139 476.54062521 878.66446686 517.43270111 C878.6648537 520.0583232 878.66524016 522.6839453 878.66562623 525.30956739 C878.66581757 526.60761783 878.66600892 527.90566828 878.66620606 529.24305358 C878.66716039 535.77711242 878.66807476 542.31117126 878.66894531 548.8452301 C878.669206 550.77878644 878.669206 550.77878644 878.66947196 552.75140452 C878.67382605 586.90882823 878.66381515 621.06624724 878.64910746 655.22366762 C878.64858731 656.43858107 878.64806717 657.65349452 878.64753127 658.90522352 C878.64675225 660.72428878 878.64675225 660.72428878 878.6459575 662.58010283 C878.64543976 663.79060897 878.64492202 665.00111511 878.64438859 666.24830325 C878.6433405 668.68617521 878.64228029 671.12404716 878.64120787 673.5619191 C878.63382368 690.56607018 878.63173972 707.57021461 878.63320187 724.57436709 C878.63504664 746.48625123 878.62699733 768.39809431 878.60156041 790.30996501 C878.58838482 801.90120737 878.58339072 813.49238419 878.59019895 825.08363244 C878.59390564 832.8224503 878.58672276 840.56120826 878.57060657 848.30001012 C878.56171735 852.71172174 878.55755585 857.12329836 878.56653374 861.5350129 C878.57459936 865.54975201 878.5688355 869.56422651 878.55211686 873.57893675 C878.5485143 875.02098365 878.54990531 876.46305409 878.55695601 877.90508825 C878.59834335 887.07790696 878.12610547 895.29091176 873.6009903 903.43611908 C865.4264747 910.77222282 856.90807036 911.34522229 846.32698059 911.24723816 C844.82950518 911.25185283 843.33203521 911.25865884 841.83457845 911.26744425 C837.72314837 911.28522776 833.61231981 911.27195057 829.50091415 911.25355413 C825.02672154 911.23905423 820.55260725 911.25360231 816.0784173 911.26443911 C808.23797823 911.27941783 800.39771839 911.27581143 792.5572834 911.26002121 C780.89836121 911.23660536 769.23957411 911.241801 757.58063982 911.25273011 C736.75847516 911.27132355 715.936396 911.26159848 695.11423831 911.24025247 C676.89255615 911.22170408 658.67090273 911.21327306 640.44921112 911.21482086 C639.24106903 911.21491254 638.03292693 911.21500421 636.78817447 911.21509867 C631.88407501 911.21549182 626.97997557 911.21594144 622.07587613 911.21647006 C576.06075135 911.22134245 530.04567756 911.19867029 484.03056864 911.16251383 C443.13850463 911.13051996 402.24648417 911.11847018 361.35440826 911.12459564 C358.72878617 911.12498249 356.10316408 911.12536894 353.47754198 911.12575501 C351.53046632 911.12604203 351.53046632 911.12604203 349.5440558 911.12633485 C343.00999696 911.12728917 336.47593812 911.12820354 329.94187927 911.1290741 C328.65284171 911.12924789 327.36380416 911.12942168 326.03570485 911.12960074 C291.87828114 911.13395483 257.72086213 911.12394394 223.56344175 911.10923624 C222.34852831 911.1087161 221.13361486 911.10819596 219.88188585 911.10766005 C218.66917568 911.10714071 217.45646551 911.10662137 216.20700654 911.10608628 C214.9965004 911.10556854 213.78599427 911.1050508 212.53880612 911.10451737 C210.10093417 911.10346928 207.66306222 911.10240907 205.22519027 911.10133665 C188.22103919 911.09395246 171.21689477 911.0918685 154.21274228 911.09333066 C132.30085815 911.09517542 110.38901506 911.08712612 88.47714436 911.0616892 C76.885902 911.04851361 65.29472518 911.0435195 53.70347694 911.05032774 C45.96465907 911.05403443 38.22590111 911.04685154 30.48709926 911.03073535 C26.07538764 911.02184614 21.66381101 911.01768463 17.25209647 911.02666253 C13.23735736 911.03472814 9.22288286 911.02896428 5.20817263 911.01224564 C3.76612572 911.00864308 2.32405529 911.0100341 0.88202112 911.01708479 C-8.29079758 911.05847213 -16.50380239 910.58623426 -24.6490097 906.06111908 C-31.98511344 897.88660349 -32.55811291 889.36819914 -32.46012878 878.78710938 C-32.46474345 877.28963396 -32.47154947 875.79216399 -32.48033488 874.29470724 C-32.49811838 870.18327715 -32.4848412 866.07244859 -32.46644475 861.96104293 C-32.45194485 857.48685032 -32.46649293 853.01273604 -32.47732973 848.53854609 C-32.49230846 840.69810701 -32.48870205 832.85784717 -32.47291183 825.01741219 C-32.44949598 813.35849 -32.45469163 801.69970289 -32.46562073 790.04076861 C-32.48421418 769.21860394 -32.47448911 748.39652478 -32.4531431 727.57436709 C-32.43459471 709.35268494 -32.42616368 691.13103151 -32.42771149 672.9093399 C-32.42780316 671.70119781 -32.42789484 670.49305571 -32.42798929 669.24830325 C-32.42838244 664.3442038 -32.42883206 659.44010435 -32.42936068 654.53600491 C-32.43423308 608.52088014 -32.41156092 562.50580635 -32.37540445 516.49069742 C-32.34341058 475.59863341 -32.3313608 434.70661295 -32.33748627 393.81453705 C-32.33787311 391.18891495 -32.33825957 388.56329286 -32.33864564 385.93767077 C-32.33883698 384.63962033 -32.33902833 383.34156988 -32.33922547 382.00418458 C-32.3401798 375.47012574 -32.34109416 368.9360669 -32.34196472 362.40200806 C-32.34213852 361.1129705 -32.34231231 359.82393294 -32.34249137 358.49583364 C-32.34684546 324.33840992 -32.33683456 290.18099092 -32.32212687 256.02357054 C-32.32160672 254.80865709 -32.32108658 253.59374364 -32.32055068 252.34201463 C-32.32003133 251.12930446 -32.31951199 249.91659429 -32.31897691 248.66713533 C-32.3182003 246.85137612 -32.3182003 246.85137612 -32.317408 244.99893491 C-32.31635991 242.56106295 -32.3152997 240.123191 -32.31422728 237.68531905 C-32.30684309 220.68116797 -32.30475912 203.67702355 -32.30622128 186.67287107 C-32.30806605 164.76098693 -32.30001674 142.84914385 -32.27457982 120.93727314 C-32.26140423 109.34603079 -32.25641013 97.75485397 -32.26321836 86.16360572 C-32.26692505 78.42478786 -32.25974216 70.6860299 -32.24362598 62.94722804 C-32.23473676 58.53551642 -32.23057525 54.1239398 -32.23955315 49.71222526 C-32.24761877 45.69748615 -32.2418549 41.68301164 -32.22513627 37.66830141 C-32.22153371 36.22625451 -32.22292472 34.78418407 -32.22997542 33.34214991 C-32.27136276 24.1693312 -31.79912488 15.9563264 -27.2740097 7.81111908 C-19.09949411 0.47501534 -10.58108977 -0.09798413 0 0 Z M9.1634903 41.62361908 C9.1634903 314.86361908 9.1634903 588.10361908 9.1634903 869.62361908 C282.4034903 869.62361908 555.6434903 869.62361908 837.1634903 869.62361908 C837.1634903 596.38361908 837.1634903 323.14361908 837.1634903 41.62361908 C563.9234903 41.62361908 290.6834903 41.62361908 9.1634903 41.62361908 Z " fill="#A50B15" transform="translate(88.83650970458984,56.376380920410156)"/>
<path d="M0 0 C1.25554687 -0.00128906 2.51109375 -0.00257813 3.8046875 -0.00390625 C4.46178711 -0.00181152 5.11888672 0.0002832 5.79589844 0.00244141 C7.80411335 0.00779016 9.81210459 0.00249559 11.8203125 -0.00390625 C13.70363281 -0.00197266 13.70363281 -0.00197266 15.625 0 C16.78644531 0.00112793 17.94789063 0.00225586 19.14453125 0.00341797 C21.8125 0.1328125 21.8125 0.1328125 22.8125 1.1328125 C22.93755085 3.71831022 22.998548 6.27842661 23.01782227 8.86547852 C23.02772186 9.6751709 23.03762146 10.48486328 23.04782104 11.3190918 C23.07952987 14.00827055 23.10423035 16.697467 23.12890625 19.38671875 C23.14946769 21.24617484 23.17046394 23.10562618 23.19187927 24.96507263 C23.24718366 29.86905065 23.2965559 34.77307143 23.34472656 39.67712402 C23.39488066 44.67736638 23.45059845 49.67754632 23.50585938 54.67773438 C23.61354321 64.49604049 23.71496532 74.31440069 23.8125 84.1328125 C24.51811066 84.2702034 25.22372131 84.4075943 25.95071411 84.54914856 C29.19965736 85.18397184 32.44747808 85.82437272 35.6953125 86.46484375 C36.80495361 86.680802 37.91459473 86.89676025 39.05786133 87.1192627 C76.45002535 94.51936572 108.5708868 115.11095259 131.57421875 145.49755859 C132.61274311 146.86901682 133.66423462 148.23064258 134.71875 149.58984375 C143.72940978 161.72448227 150.27576446 175.77581813 154.8125 190.1328125 C155.35319678 191.69564839 155.89475129 193.25818803 156.4375 194.8203125 C156.90193907 196.25585144 157.3601218 197.69342733 157.8125 199.1328125 C158.080625 199.9578125 158.34875 200.7828125 158.625 201.6328125 C160.23081334 206.94434892 161.05244663 211.95044767 161.3984375 217.49609375 C161.47884277 218.74302002 161.55924805 219.98994629 161.64208984 221.2746582 C161.6983252 222.21784912 161.75456055 223.16104004 161.8125 224.1328125 C163.12461708 224.12948158 163.12461708 224.12948158 164.46324158 224.12608337 C172.68925346 224.10608272 180.91525723 224.09083952 189.1412878 224.08100033 C193.37081371 224.07577194 197.6003196 224.0686751 201.82983398 224.05737305 C205.90818543 224.04654259 209.98651757 224.04053533 214.06488228 224.03793526 C215.62427639 224.03608129 217.1836694 224.03246123 218.74305534 224.02708244 C220.91979162 224.01986988 223.09644714 224.01882165 225.27319336 224.01928711 C227.13517616 224.01595619 227.13517616 224.01595619 229.03477478 224.01255798 C231.8125 224.1328125 231.8125 224.1328125 232.8125 225.1328125 C233.06592236 229.43928886 232.99772638 233.75726304 233 238.0703125 C233.01224609 239.28912109 233.02449219 240.50792969 233.03710938 241.76367188 C233.03904297 242.92576172 233.04097656 244.08785156 233.04296875 245.28515625 C233.04707764 246.35757568 233.05118652 247.42999512 233.05541992 248.53491211 C232.8125 251.1328125 232.8125 251.1328125 230.8125 253.1328125 C227.95248413 253.37332153 227.95248413 253.37332153 224.25146484 253.35986328 C223.57817642 253.36015533 222.904888 253.36044739 222.2111969 253.36074829 C219.98181346 253.35935297 217.75276268 253.34378266 215.5234375 253.328125 C213.97930077 253.32439558 212.43516167 253.32154827 210.89102173 253.31954956 C206.82374557 253.31190749 202.75661189 253.29225418 198.68939209 253.2701416 C194.5403435 253.24969546 190.39127193 253.24055049 186.2421875 253.23046875 C178.09889289 253.20900875 169.95571416 253.17486599 161.8125 253.1328125 C161.750056 253.94196106 161.687612 254.75110962 161.62327576 255.58477783 C161.49542442 257.18878448 161.49542442 257.18878448 161.36499023 258.82519531 C161.28192123 259.88184387 161.19885223 260.93849243 161.11326599 262.02716064 C158.50779589 288.93074443 145.42473929 315.23262769 128.8125 336.1328125 C128.06871094 337.0815625 127.32492187 338.0303125 126.55859375 339.0078125 C109.85139571 359.92813005 88.39810012 374.07267912 63.8125 384.1328125 C62.8740625 384.53371094 61.935625 384.93460938 60.96875 385.34765625 C51.66240707 389.24984118 42.38497108 391.27730512 32.4296875 392.72265625 C31.50341553 392.85925659 30.57714355 392.99585693 29.62280273 393.13659668 C27.35303195 393.47098909 25.08293943 393.80299605 22.8125 394.1328125 C22.80036972 395.61072769 22.80036972 395.61072769 22.78799438 397.11849976 C22.71061835 406.38916415 22.62290102 415.65968023 22.52497292 424.93015099 C22.47495785 429.69656826 22.42862845 434.46296281 22.390625 439.22949219 C22.35383779 443.82667056 22.30749612 448.42366111 22.25443649 453.02067947 C22.23585752 454.77737774 22.2207626 456.53411631 22.20915604 458.29087448 C22.19235319 460.74538288 22.16333353 463.19945782 22.13134766 465.65380859 C22.12810738 466.75108528 22.12810738 466.75108528 22.12480164 467.87052917 C22.04060432 472.90470818 22.04060432 472.90470818 19.8125 475.1328125 C17.21459961 475.37573242 17.21459961 475.37573242 13.96484375 475.36328125 C12.80275391 475.36134766 11.64066406 475.35941406 10.44335938 475.35742188 C9.22455078 475.34517578 8.00574219 475.33292969 6.75 475.3203125 C4.91598633 475.3193457 4.91598633 475.3193457 3.04492188 475.31835938 C-6.04738944 475.27292306 -6.04738944 475.27292306 -7.1875 474.1328125 C-7.31247615 471.63882185 -7.3735288 469.17112921 -7.39282227 466.67553711 C-7.40272186 465.89510544 -7.41262146 465.11467377 -7.42282104 464.31059265 C-7.45452775 461.71881187 -7.4792295 459.12701273 -7.50390625 456.53515625 C-7.52446787 454.74296072 -7.54546413 452.95077013 -7.56687927 451.15858459 C-7.62218176 446.4321593 -7.67155483 441.70568965 -7.71972656 436.97918701 C-7.76988205 432.15991245 -7.82559911 427.34070262 -7.88085938 422.52148438 C-7.98854089 413.05864899 -8.08996351 403.59575751 -8.1875 394.1328125 C-9.3940625 393.93655273 -10.600625 393.74029297 -11.84375 393.53808594 C-13.4583515 393.27289703 -15.07293381 393.00759131 -16.6875 392.7421875 C-17.87472656 392.54955322 -17.87472656 392.54955322 -19.0859375 392.35302734 C-52.54914354 386.83296979 -84.31768751 371.54222691 -106.421875 345.203125 C-107.66385406 343.74682212 -108.9498425 342.32748076 -110.265625 340.9375 C-130.64923534 319.34227646 -148.1875 284.26831634 -148.1875 254.1328125 C-149.03718857 254.13503311 -149.88687714 254.13725372 -150.76231384 254.13954163 C-158.75286725 254.15954264 -166.7434123 254.17478566 -174.73398495 254.18462467 C-178.84244285 254.18985296 -182.95088014 254.19694963 -187.05932617 254.20825195 C-191.02096828 254.21908275 -194.98259052 254.22508974 -198.94424629 254.22768974 C-200.45898311 254.22954364 -201.97371879 254.2331636 -203.48844719 254.23854256 C-205.60291813 254.24575557 -207.71730594 254.24680333 -209.83178711 254.24633789 C-211.03757919 254.2485585 -212.24337128 254.25077911 -213.48570251 254.25306702 C-216.1875 254.1328125 -216.1875 254.1328125 -217.1875 253.1328125 C-217.28753289 250.99928076 -217.31831048 248.86243708 -217.3203125 246.7265625 C-217.32160156 245.42589844 -217.32289063 244.12523437 -217.32421875 242.78515625 C-217.32212402 242.10437012 -217.3200293 241.42358398 -217.31787109 240.72216797 C-217.3125224 238.64152735 -217.3178168 236.56110261 -217.32421875 234.48046875 C-217.32292969 233.17980469 -217.32164062 231.87914062 -217.3203125 230.5390625 C-217.31918457 229.33572266 -217.31805664 228.13238281 -217.31689453 226.89257812 C-217.1875 224.1328125 -217.1875 224.1328125 -216.1875 223.1328125 C-214.07144904 223.00889568 -211.95128717 222.95481344 -209.83178711 222.92749023 C-209.16839828 222.91759064 -208.50500946 222.90769104 -207.82151794 222.89749146 C-205.61933005 222.86579513 -203.41712055 222.84108716 -201.21484375 222.81640625 C-199.69169032 222.79584372 -198.16854269 222.77484745 -196.645401 222.75343323 C-192.62918786 222.69814003 -188.61292262 222.64876287 -184.59661865 222.60058594 C-180.50121401 222.55042368 -176.40588539 222.49471014 -172.31054688 222.43945312 C-164.26959545 222.33178296 -156.22858059 222.23035783 -148.1875 222.1328125 C-148.08072937 221.51513504 -147.97395874 220.89745758 -147.86395264 220.26106262 C-147.36804314 217.41131345 -146.86375813 214.56310487 -146.359375 211.71484375 C-146.19163574 210.74357544 -146.02389648 209.77230713 -145.85107422 208.77160645 C-140.81722654 180.5359749 -126.60117222 154.09619731 -107.1875 133.1328125 C-106.35089844 132.215 -105.51429688 131.2971875 -104.65234375 130.3515625 C-89.04981342 113.97243564 -70.10986406 101.92820994 -49.08374023 93.88354492 C-47.27363544 93.16691402 -45.49659991 92.36838078 -43.72265625 91.56640625 C-39.72696697 89.94605491 -35.83074481 88.96444722 -31.625 88.0703125 C-30.56055664 87.82958008 -30.56055664 87.82958008 -29.47460938 87.58398438 C-24.63319736 86.52744486 -19.77838014 85.76240295 -14.87133789 85.07250977 C-13.6176088 84.89559097 -12.3638797 84.71867218 -11.07215881 84.53639221 C-9.6442527 84.33662025 -9.6442527 84.33662025 -8.1875 84.1328125 C-8.17719254 83.09520279 -8.16688507 82.05759308 -8.15626526 80.98854065 C-8.05870396 71.23198777 -7.95598673 61.47550113 -7.84816074 51.71905613 C-7.79288761 46.70261952 -7.73946074 41.68617713 -7.69018555 36.66967773 C-7.64260657 31.83266384 -7.59026637 26.99572319 -7.53455925 22.15879631 C-7.51410629 20.3091507 -7.49539819 18.45948498 -7.47842598 16.60980415 C-7.4544468 14.02828796 -7.42438382 11.44691153 -7.39282227 8.86547852 C-7.3870668 8.09296249 -7.38131134 7.32044647 -7.37538147 6.52452087 C-7.28108981 -0.21587799 -6.58781762 0.00639771 0 0 Z " fill="#A30A14" transform="translate(643.1875,129.8671875)"/>
<path d="M0 0 C1.64029175 -0.00833862 1.64029175 -0.00833862 3.3137207 -0.0168457 C41.65209386 0.32434161 73.54304881 24.84129317 99.36450195 50.81323242 C103.63528875 55.18369144 107.60609809 59.70992239 111.390625 64.51171875 C114.02728533 67.81676326 116.78971502 70.99679054 119.5625 74.1875 C124.41005755 79.79778514 129.03603005 85.54007604 133.48828125 91.46875 C134.75396319 93.15324077 136.03669497 94.82549238 137.35546875 96.46875 C139.34179849 99.00591068 140.57477119 101.11577048 141.375 104.25 C139.60858895 111.4628451 132.98733374 116.01146802 127.28125 120.26171875 C123.93335723 122.8464889 120.7568734 125.60442617 117.5625 128.375 C115.25409418 130.35898287 112.9407366 132.33708159 110.625 134.3125 C109.40490234 135.35470703 109.40490234 135.35470703 108.16015625 136.41796875 C105.17411628 138.83087245 103.2296503 140.18208523 99.4375 141 C92.65861712 139.34293974 89.3165462 131.94029241 85.9375 126.375 C80.81004467 118.10118756 75.43040676 110.12260094 69.625 102.3125 C69.22603516 101.76932129 68.82707031 101.22614258 68.41601562 100.66650391 C54.67947141 82.01378103 37.25811234 61.68402224 13.8125 55.75 C12.09041525 55.53620376 10.35790041 55.40382853 8.625 55.3125 C7.93599609 55.2623877 7.24699219 55.21227539 6.53710938 55.16064453 C-10.20604847 54.05111652 -24.57240589 57.5106578 -38.375 67.3125 C-39.33019531 67.97378906 -40.28539062 68.63507813 -41.26953125 69.31640625 C-55.47405015 79.66766478 -67.67417171 92.54487415 -78.12207031 106.63183594 C-79.41464312 108.36567678 -80.73042911 110.07932122 -82.0546875 111.7890625 C-82.49345215 112.35560547 -82.9322168 112.92214844 -83.38427734 113.50585938 C-83.81434082 114.06080078 -84.2444043 114.61574219 -84.6875 115.1875 C-86.89978997 118.04350549 -89.08938811 120.90287242 -91.15625 123.8671875 C-94.75351898 129.0244966 -94.75351898 129.0244966 -97.9375 130.5 C-103.72525228 130.05478829 -108.15045889 125.06212278 -112.3125 121.375 C-113.64005331 120.20768285 -114.96819294 119.04103221 -116.296875 117.875 C-116.97041016 117.28332031 -117.64394531 116.69164062 -118.33789062 116.08203125 C-120.31570643 114.36400525 -122.31540795 112.67692909 -124.328125 111 C-125.26990601 110.2109729 -125.26990601 110.2109729 -126.23071289 109.40600586 C-127.41769214 108.41392977 -128.60932716 107.42738717 -129.80639648 106.44750977 C-133.38057034 103.44273915 -136.22205704 100.53662858 -138.375 96.3125 C-138.55562791 90.61519461 -135.5185766 87.58302225 -131.875 83.625 C-130.76707247 82.38123774 -129.66031054 81.13643625 -128.5546875 79.890625 C-127.73629395 78.97700195 -127.73629395 78.97700195 -126.90136719 78.04492188 C-124.85201587 75.71891468 -122.92654898 73.30317872 -121 70.875 C-116.71422655 65.5863399 -112.10417432 60.63771554 -107.42236328 55.70141602 C-104.59433918 52.71601113 -101.83114551 49.70723533 -99.17578125 46.56640625 C-95.90100946 42.70795296 -92.24286101 39.56412553 -88.375 36.3125 C-87.51132813 35.549375 -86.64765625 34.78625 -85.7578125 34 C-61.62838017 13.07474703 -32.10087194 0.13769448 0 0 Z " fill="#A30A14" transform="translate(338.375,727.6875)"/>
<path d="M0 0 C0.72104416 0.14921402 1.44208832 0.29842804 2.1849823 0.4521637 C4.47140126 0.92572995 6.75720039 1.40221072 9.04296875 1.87890625 C11.31276892 2.35027978 13.58269209 2.82105046 15.85275269 3.29116821 C17.31480486 3.59474863 18.77650279 3.90004065 20.23782349 4.2071228 C24.92698545 5.18937232 29.6240487 6.07577745 34.35424805 6.83618164 C36.72001519 7.5993224 37.74507039 8.45324887 39.23046875 10.44140625 C41.12822408 19.06583653 37.65709921 29.04683166 35.79296875 37.50390625 C29.82553909 64.93412274 26.49420752 96.07408625 41.23046875 121.44140625 C50.04582048 134.88065945 62.58166706 143.01421448 78.23828125 146.33984375 C82.5497855 147.17725799 86.88175738 147.83107798 91.23046875 148.44140625 C92.25116455 148.59005127 92.25116455 148.59005127 93.29248047 148.74169922 C100.19416691 149.72717961 107.04318066 150.43861821 114.015625 150.64453125 C115.00473877 150.67530762 115.99385254 150.70608398 117.01293945 150.73779297 C118.95247899 150.78917361 120.89259147 150.82280821 122.83276367 150.83642578 C126.80943225 150.9337077 129.74235434 151.23544578 133.43359375 152.79296875 C136.41867376 157.19271711 135.06219384 161.38976256 134.23046875 166.44140625 C133.917188 168.7004127 133.60471725 170.95953159 133.29296875 173.21875 C132.76536584 176.80369367 132.22921243 180.38727715 131.69140625 183.97070312 C130.70988728 190.64722956 129.94039768 197.25285505 129.57421875 203.9934082 C129.23046875 206.44140625 129.23046875 206.44140625 127.23046875 209.69140625 C119.3204682 214.30557324 107.65420785 210.33306251 99.04296875 208.75390625 C98.28891754 208.61757782 97.53486633 208.48124939 96.75796509 208.34078979 C65.27921777 202.64454028 33.61868813 196.20894417 8.23046875 175.44140625 C7.39515625 174.78914062 6.55984375 174.136875 5.69921875 173.46484375 C-16.34770534 155.00491921 -23.53642264 124.50123517 -26.3671875 97.1640625 C-26.93457019 90.32509641 -26.96170416 83.48788726 -26.95703125 76.62890625 C-26.95675934 75.94955017 -26.95648743 75.27019409 -26.95620728 74.57025146 C-26.93401479 62.43255961 -26.19073376 50.49530906 -24.76953125 38.44140625 C-24.52577332 36.26825925 -24.28229621 34.09508074 -24.0390625 31.921875 C-20.84334861 4.03679204 -20.84334861 4.03679204 -17.58203125 -0.80859375 C-12.38896607 -4.03983431 -5.75750233 -1.20632688 0 0 Z " fill="#A30A14" transform="translate(401.76953125,505.55859375)"/>
<path d="M0 0 C3.13836249 3.91773515 3.89111074 8.28466464 4.71875 13.11328125 C4.93361305 14.30454872 4.93361305 14.30454872 5.15281677 15.5198822 C5.61507178 18.11530732 6.05926521 20.71333903 6.5 23.3125 C6.65340851 24.20215454 6.80681702 25.09180908 6.96487427 26.00842285 C14.37432498 69.21109346 19.87927718 116.90539448 -6.00390625 155.35546875 C-26.91185748 183.05543545 -59.34644096 198.91574074 -93 205 C-94.13050781 205.20625 -95.26101562 205.4125 -96.42578125 205.625 C-102.84839149 206.6724019 -109.18866418 207.21617193 -115.6875 207.3125 C-116.37118652 207.33014404 -117.05487305 207.34778809 -117.75927734 207.3659668 C-122.51805576 207.35937901 -122.51805576 207.35937901 -124.66943359 205.75512695 C-126.32449826 203.57196 -126.44277683 202.27639853 -126.58984375 199.5546875 C-126.65002686 198.65403564 -126.71020996 197.75338379 -126.7722168 196.82543945 C-126.85403198 195.36497192 -126.85403198 195.36497192 -126.9375 193.875 C-127.63153517 183.8175356 -128.99000575 173.99729106 -130.76733398 164.07568359 C-130.94079346 163.07746582 -131.11425293 162.07924805 -131.29296875 161.05078125 C-131.4530542 160.17075439 -131.61313965 159.29072754 -131.77807617 158.3840332 C-132.00785881 155.91557613 -131.84664132 154.31916915 -131 152 C-127.3378284 147.84855041 -123.94097777 147.47760751 -118.703125 147.14160156 C-117.76984375 147.09487305 -116.8365625 147.04814453 -115.875 147 C-96.49685528 145.6057502 -76.89604126 142.52560546 -62 129 C-61.37609375 128.45601562 -60.7521875 127.91203125 -60.109375 127.3515625 C-49.28641526 117.32856065 -44.53880839 103.16476288 -43.83886719 88.66113281 C-43.79267554 84.8573045 -43.75332585 81.05409625 -43.75 77.25 C-43.74932526 76.55781372 -43.74865051 75.86562744 -43.74795532 75.15246582 C-43.77259894 59.21011677 -45.94783739 44.62399206 -50.3737793 29.31347656 C-51.56437958 25.13430098 -52.5507323 21.38642081 -52 17 C-49.88807417 14.34501924 -48.02616597 13.47507217 -44.78125 12.640625 C-43.93989502 12.41528076 -43.09854004 12.18993652 -42.23168945 11.95776367 C-40.87950317 11.60742065 -40.87950317 11.60742065 -39.5 11.25 C-27.60679318 8.02428478 -12.10645152 -1.27436332 0 0 Z " fill="#A30A14" transform="translate(278,516)"/>
<path d="M0 0 C1.41760518 1.22525355 2.81334616 2.47620571 4.1875 3.75 C4.95835937 4.41902344 5.72921875 5.08804687 6.5234375 5.77734375 C15.08725519 13.64410651 20.91581423 24.35995236 21.5234375 36.1328125 C21.85001145 53.15213342 18.18181557 65.38221124 6.375 78 C-3.58396867 87.49843833 -15.02605663 91.34348824 -28.625 91.25 C-29.5855127 91.24500488 -30.54602539 91.24000977 -31.53564453 91.23486328 C-42.97880916 90.95529144 -52.22132235 87.46685426 -60.8125 79.75 C-61.71742188 78.96496094 -61.71742188 78.96496094 -62.640625 78.1640625 C-70.58791841 70.80417774 -77.25181108 59.72427631 -77.9387207 48.72973633 C-78.50285009 32.05836983 -76.11330168 19.21836364 -64.5703125 6.40625 C-47.29394069 -9.87193144 -19.93971246 -14.82519349 0 0 Z " fill="#000000" transform="translate(678.8125,327.25)"/>
<path d="M0 0 C0 15.84 0 31.68 0 48 C-12 53 -12 53 -17.9375 55.25 C-37.43719775 63.41741267 -50.84180699 79.35341827 -59.07421875 98.44921875 C-60.45185622 102.24498782 -61.23331416 106.0387898 -62 110 C-63 111 -63 111 -64.98048401 111.12025452 C-65.84874313 111.11803391 -66.71700226 111.11581329 -67.61157227 111.11352539 C-68.59251358 111.11344986 -69.5734549 111.11337433 -70.5841217 111.11329651 C-71.6507756 111.10813522 -72.7174295 111.10297394 -73.81640625 111.09765625 C-75.44569313 111.09553383 -75.44569313 111.09553383 -77.1078949 111.09336853 C-80.59279075 111.08775048 -84.07762342 111.07519492 -87.5625 111.0625 C-89.91861887 111.05748733 -92.27473874 111.05292402 -94.63085938 111.04882812 C-100.42059464 111.03777519 -106.21029281 111.02101951 -112 111 C-112.01617287 109.5826392 -112.02761128 108.16522398 -112.03710938 106.74780273 C-112.0439978 105.95848862 -112.05088623 105.1691745 -112.0579834 104.35594177 C-111.48651601 81.13646996 -95.9908208 54.87577892 -80 39 C-79.28328125 38.2471875 -78.5665625 37.494375 -77.828125 36.71875 C-68.28439041 26.83658511 -58.04922622 19.41966971 -46 13 C-45.14664063 12.52691406 -44.29328125 12.05382812 -43.4140625 11.56640625 C-30.36185047 4.60667193 -14.7551453 0 0 0 Z " fill="#010000" transform="translate(637,243)"/>
<path d="M0 0 C16.5 0 33 0 50 0 C51.65 5.28 53.3 10.56 55 16 C64.02144864 37.26484323 80.97210408 51.31774964 102.11328125 59.95703125 C105.35624562 61.12871121 108.68453327 62.05272379 112 63 C112 79.5 112 96 112 113 C97.02174881 110.3567792 85.68417544 107.39137518 72.3125 101.125 C71.43303711 100.71435303 70.55357422 100.30370605 69.64746094 99.88061523 C60.36818335 95.42157163 52.60461553 89.89545495 45 83 C43.64712069 81.83184075 42.29295482 80.66516982 40.9375 79.5 C39.62162876 78.33713705 38.30897113 77.17062459 37 76 C36.44828125 75.5153125 35.8965625 75.030625 35.328125 74.53125 C16.59745411 57.04929051 3.24372934 30.2100368 0 5 C0 3.35 0 1.7 0 0 Z " fill="#000000" transform="translate(524,383)"/>
<path d="M0 0 C16.17 0 32.34 0 49 0 C48.01766192 10.80571883 46.6826604 20.04571286 42.01953125 29.80859375 C40.96867949 32.0673211 40.11243002 34.35096052 39.25 36.6875 C27.84714649 65.17262055 3.13387115 89.39678648 -24.546875 102.17578125 C-27.01016749 103.19169328 -29.48820056 104.11120943 -32 105 C-33.34964844 105.50660156 -33.34964844 105.50660156 -34.7265625 106.0234375 C-43.53493378 109.18115551 -53.56872292 112 -63 112 C-63 95.83 -63 79.66 -63 63 C-55 60 -55 60 -51.7265625 58.82421875 C-34.4088821 52.47731069 -17.32664883 40.17310259 -9.03125 23.13671875 C-5.58130397 15.58244982 -2.84022501 7.81061878 0 0 Z " fill="#000000" transform="translate(728,383)"/>
<path d="M0 0 C7.59008962 0 12.88907903 0.02791945 19.8125 2.125 C20.96951416 2.46494995 20.96951416 2.46494995 22.14990234 2.81176758 C41.28852913 8.6103323 57.36025418 18.54886683 72 32 C72.87140625 32.78890625 73.7428125 33.5778125 74.640625 34.390625 C89.40608101 48.41316498 100.4713914 66.6248195 107.0625 85.8125 C107.34963867 86.63508301 107.63677734 87.45766602 107.93261719 88.30517578 C110.23804839 95.49646828 110.38715993 101.03307915 111 109 C94.83 109 78.66 109 62 109 C60.02 102.07 60.02 102.07 58 95 C46.78850111 68.20726434 25.75187558 56.72994816 0 46 C0 30.82 0 15.64 0 0 Z " fill="#010000" transform="translate(665,245)"/>
</svg>
