<svg xmlns="http://www.w3.org/2000/svg" width="1024" height="1024"><path fill="#fefefe" d="M516 33c7.287 3.223 13.578 8.053 19.803 12.961 4.36 3.435 8.837 6.67 13.385 9.852a1409 1409 0 0 1 17.75 12.624l2.26 1.636 4.536 3.286c3.752 2.717 7.51 5.429 11.266 8.141l4.5 3.25 2.25 1.625 27 19.5 4.498 3.248q5.647 4.077 11.287 8.162c7.27 5.264 14.556 10.497 21.903 15.653 6.902 4.846 13.697 9.828 20.474 14.849 5.859 4.331 11.782 8.56 17.746 12.746 7.41 5.204 14.744 10.513 22.076 15.826 3.752 2.717 7.51 5.429 11.266 8.141l4.5 3.25 2.25 1.625 63.001 45.5q2.245 1.623 4.49 3.243 5.7 4.117 11.4 8.237A3748 3748 0 0 0 834 261c7.587 5.408 15.136 10.867 22.686 16.327q5.656 4.089 11.314 8.173l4.5 3.25 2.25 1.625 27.001 19.5q2.245 1.623 4.49 3.243 5.7 4.117 11.4 8.237A3748 3748 0 0 0 938 336c7.587 5.408 15.136 10.867 22.686 16.327a18675 18675 0 0 0 13.543 9.784q5.788 4.183 11.587 8.35a2176 2176 0 0 1 11.308 8.185 298 298 0 0 0 4.794 3.374c6.602 4.721 11.56 10.933 13.27 19.043.12 4.326-.96 8.152-2.211 12.25l-.669 2.226c-2.857 9.418-5.953 18.76-9.035 28.105q-2.84 8.62-5.664 17.247l-1.17 3.568c-3.89 11.892-7.702 23.808-11.501 35.729a6826 6826 0 0 1-17.204 53.16 3271 3271 0 0 0-12.984 40.465 1799 1799 0 0 1-11.5 35.437c-4.778 14.209-9.387 28.467-13.937 42.75a6382 6382 0 0 1-16.813 52 6894 6894 0 0 0-17.557 54.307A6187 6187 0 0 1 880 824.5c-5.4 16.48-10.73 32.979-16 49.5a7757 7757 0 0 1-21.253 65.601 1728 1728 0 0 0-5.212 16.13c-.984 3.092-1.98 6.18-2.978 9.268a495 495 0 0 0-1.32 4.178c-2.737 8.793-5.131 15.76-13.362 20.698-3.854 1.508-7.084 2.25-11.223 2.253l-2.636.009-2.888-.006-3.086.007q-5.162.006-10.323.002l-7.443.01q-9.181.01-18.363.01-10.995.002-21.99.014c-17.716.016-35.433.022-53.149.027q-12.568.003-25.137.01a262743 262743 0 0 1-107.701.03h-2.72c-29.116.003-58.232.02-87.347.042a121461 121461 0 0 1-102.452.04h-2.52q-20.087.005-40.175.027-20.182.022-40.366.01-11.996-.007-23.99.015c-5.967.011-11.934.006-17.901-.005q-3.626-.002-7.252.01c-3.28.011-6.559.004-9.838-.008l-2.86.023c-7.778-.062-15.008-1.751-20.882-7.198-2.124-2.858-3.164-5.688-4.383-9.037l-.77-2.109c-3.506-9.733-6.668-19.585-9.855-29.426l-2.105-6.473c-5.225-16.076-10.38-32.174-15.517-48.278A6272 6272 0 0 0 150 843.5a7043 7043 0 0 1-17-52.635 6277 6277 0 0 0-15-46.365 6996 6996 0 0 1-16.996-52.623 6610 6610 0 0 0-16.267-50.219 3562 3562 0 0 1-13.855-43.216c-3.117-9.93-6.31-19.828-9.632-29.692-4.364-12.958-8.537-25.972-12.687-39a6468 6468 0 0 0-17.144-52.999l-3.662-11.168a8969 8969 0 0 0-9.53-28.956 3941 3941 0 0 1-3.147-9.551q-.69-2.096-1.392-4.189C7.162 403.402 7.162 403.402 12 393c3.777-6.128 8.351-10.173 14.25-14.187l4.828-3.387 2.479-1.72c3.849-2.687 7.644-5.448 11.443-8.206l4.5-3.25 2.25-1.625 78.75-56.875 2.25-1.625 4.498-3.248q5.647-4.077 11.287-8.162c7.27-5.264 14.556-10.497 21.903-15.652 6.083-4.272 12.09-8.638 18.062-13.063a968 968 0 0 1 20.158-14.533c7.41-5.204 14.744-10.513 22.076-15.826 3.752-2.717 7.51-5.429 11.266-8.141l4.5-3.25 63-45.5 2.251-1.626 4.49-3.242q5.7-4.117 11.4-8.237a4057 4057 0 0 1 22.04-15.844c7.025-5.01 14.013-10.072 21.005-15.128q6.776-4.897 13.554-9.79 5.702-4.118 11.4-8.238A4057 4057 0 0 1 417.683 96.8c7.024-5.01 14.012-10.072 21.004-15.128Q444.342 77.584 450 73.5l4.5-3.25 9-6.5 6.735-4.862q5.767-4.159 11.511-8.349C507.906 31.482 507.906 31.482 516 33"/><path fill="#a50b15" d="M516 33c7.287 3.223 13.578 8.053 19.803 12.961 4.36 3.435 8.837 6.67 13.385 9.852a1409 1409 0 0 1 17.75 12.624l2.26 1.636 4.536 3.286c3.752 2.717 7.51 5.429 11.266 8.141l4.5 3.25 2.25 1.625 27 19.5 4.498 3.248q5.647 4.077 11.287 8.162c7.27 5.264 14.556 10.497 21.903 15.653 6.902 4.846 13.697 9.828 20.474 14.849 5.859 4.331 11.782 8.56 17.746 12.746 7.41 5.204 14.744 10.513 22.076 15.826 3.752 2.717 7.51 5.429 11.266 8.141l4.5 3.25 2.25 1.625 63.001 45.5q2.245 1.623 4.49 3.243 5.7 4.117 11.4 8.237A3748 3748 0 0 0 834 261c7.587 5.408 15.136 10.867 22.686 16.327q5.656 4.089 11.314 8.173l4.5 3.25 2.25 1.625 27.001 19.5q2.245 1.623 4.49 3.243 5.7 4.117 11.4 8.237A3748 3748 0 0 0 938 336c7.587 5.408 15.136 10.867 22.686 16.327a18675 18675 0 0 0 13.543 9.784q5.788 4.183 11.587 8.35a2176 2176 0 0 1 11.308 8.185 298 298 0 0 0 4.794 3.374c6.602 4.721 11.56 10.933 13.27 19.043.12 4.326-.96 8.152-2.211 12.25l-.669 2.226c-2.857 9.418-5.953 18.76-9.035 28.105q-2.84 8.62-5.664 17.247l-1.17 3.568c-3.89 11.892-7.702 23.808-11.501 35.729a6826 6826 0 0 1-17.204 53.16 3271 3271 0 0 0-12.984 40.465 1799 1799 0 0 1-11.5 35.437c-4.778 14.209-9.387 28.467-13.937 42.75a6382 6382 0 0 1-16.813 52 6894 6894 0 0 0-17.557 54.307A6187 6187 0 0 1 880 824.5c-5.4 16.48-10.73 32.979-16 49.5a7757 7757 0 0 1-21.253 65.601 1728 1728 0 0 0-5.212 16.13c-.984 3.092-1.98 6.18-2.978 9.268a495 495 0 0 0-1.32 4.178c-2.737 8.793-5.131 15.76-13.362 20.698-3.854 1.508-7.084 2.25-11.223 2.253l-2.636.009-2.888-.006-3.086.007q-5.162.006-10.323.002l-7.443.01q-9.181.01-18.363.01-10.995.002-21.99.014c-17.716.016-35.433.022-53.149.027q-12.568.003-25.137.01a262743 262743 0 0 1-107.701.03h-2.72c-29.116.003-58.232.02-87.347.042a121461 121461 0 0 1-102.452.04h-2.52q-20.087.005-40.175.027-20.182.022-40.366.01-11.996-.007-23.99.015c-5.967.011-11.934.006-17.901-.005q-3.626-.002-7.252.01c-3.28.011-6.559.004-9.838-.008l-2.86.023c-7.778-.062-15.008-1.751-20.882-7.198-2.124-2.858-3.164-5.688-4.383-9.037l-.77-2.109c-3.506-9.733-6.668-19.585-9.855-29.426l-2.105-6.473c-5.225-16.076-10.38-32.174-15.517-48.278A6272 6272 0 0 0 150 843.5a7043 7043 0 0 1-17-52.635 6277 6277 0 0 0-15-46.365 6996 6996 0 0 1-16.996-52.623 6610 6610 0 0 0-16.267-50.219 3562 3562 0 0 1-13.855-43.216c-3.117-9.93-6.31-19.828-9.632-29.692-4.364-12.958-8.537-25.972-12.687-39a6468 6468 0 0 0-17.144-52.999l-3.662-11.168a8969 8969 0 0 0-9.53-28.956 3941 3941 0 0 1-3.147-9.551q-.69-2.096-1.392-4.189C7.162 403.402 7.162 403.402 12 393c3.777-6.128 8.351-10.173 14.25-14.187l4.828-3.387 2.479-1.72c3.849-2.687 7.644-5.448 11.443-8.206l4.5-3.25 2.25-1.625 78.75-56.875 2.25-1.625 4.498-3.248q5.647-4.077 11.287-8.162c7.27-5.264 14.556-10.497 21.903-15.652 6.083-4.272 12.09-8.638 18.062-13.063a968 968 0 0 1 20.158-14.533c7.41-5.204 14.744-10.513 22.076-15.826 3.752-2.717 7.51-5.429 11.266-8.141l4.5-3.25 63-45.5 2.251-1.626 4.49-3.242q5.7-4.117 11.4-8.237a4057 4057 0 0 1 22.04-15.844c7.025-5.01 14.013-10.072 21.005-15.128q6.776-4.897 13.554-9.79 5.702-4.118 11.4-8.238A4057 4057 0 0 1 417.683 96.8c7.024-5.01 14.012-10.072 21.004-15.128Q444.342 77.584 450 73.5l4.5-3.25 9-6.5 6.735-4.862q5.767-4.159 11.511-8.349C507.906 31.482 507.906 31.482 516 33m-13.125 53.188a2567 2567 0 0 1-4.312 3.316l-2.266 1.746c-3.757 2.862-7.587 5.62-11.422 8.375l-2.301 1.657a4444 4444 0 0 1-15.255 10.916c-7.025 5.011-14.013 10.073-21.005 15.129q-6.776 4.897-13.554 9.79-5.702 4.118-11.4 8.238a4057 4057 0 0 1-22.042 15.844c-7.024 5.01-14.012 10.072-21.004 15.128q-6.776 4.897-13.554 9.79-5.702 4.118-11.4 8.238a4057 4057 0 0 1-22.042 15.844c-7.024 5.01-14.012 10.072-21.004 15.128q-6.776 4.897-13.554 9.79-5.701 4.118-11.4 8.238a4057 4057 0 0 1-22.042 15.844c-7.024 5.01-14.012 10.072-21.004 15.128q-5.656 4.089-11.314 8.173l-4.5 3.25-27 19.5-2.251 1.626-4.49 3.242q-5.7 4.117-11.4 8.237a4057 4057 0 0 1-22.04 15.844c-7.025 5.01-14.013 10.072-21.005 15.128q-6.775 4.897-13.554 9.79-5.702 4.118-11.4 8.238a3978 3978 0 0 1-22.033 15.837c-5.556 3.963-11.085 7.964-16.616 11.963A3649 3649 0 0 1 54 410c1.937 8.27 4.313 16.28 7.063 24.313q1.21 3.585 2.417 7.171l1.26 3.74c2.09 6.265 4.115 12.551 6.135 18.839l1.254 3.898q1.282 3.982 2.562 7.966a16310 16310 0 0 0 7.432 23.07 3203 3203 0 0 0 12.174 36.856 776 776 0 0 1 6.772 21.13c1.399 4.532 2.912 9.024 4.431 13.517 2.255 6.717 4.444 13.443 6.504 20.223 4.59 15.102 9.565 30.072 14.594 45.033 2.545 7.585 5.036 15.18 7.405 22.821 2.783 8.98 5.65 17.931 8.508 26.887l2.962 9.292c3.066 9.616 6.16 19.22 9.373 28.789 1.85 5.54 3.64 11.1 5.432 16.658q1.775 5.505 3.554 11.008l.764 2.365c2.86 8.844 5.742 17.682 8.623 26.52a10131 10131 0 0 1 15.745 48.672 22665 22665 0 0 0 6.524 20.32c3.435 10.684 6.889 21.362 10.346 32.038a11259 11259 0 0 1 8.783 27.22l1.258 3.91c2.948 9.163 5.947 18.308 9.058 27.417.39 1.156.39 1.156.79 2.335l.68 1.989c.684 2.294 1.127 4.655 1.597 7.003h568l5-17a1337 1337 0 0 1 3.938-12.437c.345-1.076.69-2.152 1.047-3.26q3.2-9.93 6.526-19.818c3.87-11.559 7.577-23.172 11.32-34.772q2.376-7.359 4.763-14.713c4.184-12.902 8.35-25.81 12.48-38.73l1.075-3.361q2.644-8.27 5.281-16.54c3.088-9.672 6.199-19.332 9.43-28.958 2.026-6.06 3.988-12.142 5.952-18.223l.68-2.1c3.214-9.933 6.4-19.875 9.57-29.822l2.13-6.677a10830 10830 0 0 0 4.15-13.04c3.091-9.71 6.211-19.398 9.696-28.977 1.681-4.642 3.111-9.326 4.462-14.072a260 260 0 0 1 5.5-17 250 250 0 0 0 5.438-16.812c2.044-7.188 4.46-14.204 6.974-21.24 2.134-6.021 3.999-12.08 5.744-18.225 1.433-4.98 3.08-9.851 4.844-14.723a256 256 0 0 0 5.438-16.75 413 413 0 0 1 5.687-18.187c3.132-9.29 6.175-18.608 9.188-27.938l.713-2.208a29459 29459 0 0 0 6.252-19.381l.619-1.918 1.831-5.678q1.206-3.74 2.407-7.482c2.085-6.483 4.191-12.959 6.334-19.424 1.134-3.421 2.26-6.845 3.388-10.27q.825-2.5 1.663-5c.776-2.32 1.541-4.643 2.304-6.967l.715-2.107c1.335-4.055 1.335-4.055.461-8.19-1.68-1.452-1.68-1.452-3.797-2.785l-2.385-1.592-2.568-1.685c-6.862-4.593-13.466-9.329-19.965-14.422-4.434-3.439-9.045-6.628-13.64-9.847a1256 1256 0 0 1-15.582-11.106l-2.261-1.636-4.536-3.286c-3.752-2.717-7.51-5.429-11.266-8.141l-4.5-3.25-2.25-1.625-27.001-19.5q-2.245-1.623-4.49-3.243-5.7-4.117-11.4-8.237A3748 3748 0 0 0 823 304c-7.587-5.408-15.136-10.867-22.686-16.327q-5.656-4.089-11.314-8.173l-4.5-3.25-2.25-1.625-9.001-6.5q-2.245-1.623-4.49-3.243-5.7-4.117-11.4-8.237A3748 3748 0 0 0 737 242c-7.587-5.408-15.136-10.867-22.686-16.327q-5.656-4.089-11.314-8.173-6.822-4.925-13.64-9.855A3748 3748 0 0 0 669 193c-7.587-5.408-15.136-10.867-22.686-16.327q-5.656-4.089-11.314-8.173l-4.5-3.25-2.25-1.625-9.001-6.5q-2.245-1.623-4.49-3.243-5.7-4.117-11.4-8.237A3748 3748 0 0 0 583 131c-7.587-5.408-15.136-10.867-22.686-16.327a19316 19316 0 0 0-13.541-9.782 11374 11374 0 0 0-14.046-10.133l-4.54-3.27-2.101-1.515-2.044-1.469q-2.13-1.57-4.201-3.215l-2.114-1.668-1.88-1.522c-5.298-3.154-8.945.903-12.972 4.088"/></svg>