<?xml version="1.0" encoding="UTF-8"?>
<svg version="1.1" xmlns="http://www.w3.org/2000/svg" width="1024" height="1024">
<path d="M0 0 C7.28741767 3.22268114 13.57806549 8.05276303 19.80273438 12.96118164 C24.16360267 16.39606838 28.63966433 19.63005573 33.1875 22.8125 C39.13529976 26.97891092 45.05474072 31.17964283 50.9375 35.4375 C51.68346436 35.97737549 52.42942871 36.51725098 53.19799805 37.07348633 C54.71013427 38.16838044 56.22209699 39.26351422 57.73388672 40.35888672 C61.486448 43.07648173 65.24343419 45.78794473 69 48.5 C70.50002146 49.58330362 72.00002146 50.66663696 73.5 51.75 C74.2425 52.28625 74.985 52.8225 75.75 53.375 C100.5 71.25 100.5 71.25 102.75024414 72.87524414 C104.2493445 73.95788254 105.74853062 75.0404022 107.24780273 76.12280273 C111.01228168 78.84079823 114.77521904 81.56088068 118.53515625 84.28515625 C125.80432269 89.54881928 133.09124885 94.78186072 140.4375 99.9375 C147.34034679 104.78387201 154.13476019 109.76606348 160.91162109 114.78662109 C166.77094885 119.1181551 172.6943357 123.34780111 178.65844727 127.53344727 C186.06851717 132.7374724 193.40152023 138.0461951 200.73388672 143.35888672 C204.486448 146.07648173 208.24343419 148.78794473 212 151.5 C213.50002146 152.58330362 215.00002146 153.66663696 216.5 154.75 C217.2425 155.28625 217.985 155.8225 218.75 156.375 C279.49999999 200.24999999 279.49999999 200.24999999 281.75097656 201.87573242 C283.24768701 202.95667191 284.74443168 204.03756401 286.24121094 205.1184082 C290.04182637 207.8629754 293.84180298 210.60841966 297.640625 213.35546875 C304.41540742 218.25345334 311.19258102 223.14744088 318 228 C325.58659358 233.40798119 333.13590141 238.86727127 340.68554688 244.32666016 C344.45593019 247.05263139 348.22803694 249.77621534 352 252.5 C353.50000859 253.58332144 355.00000858 254.66665479 356.5 255.75 C357.2425 256.28625 357.985 256.8225 358.75 257.375 C383.5 275.25 383.5 275.25 385.75097656 276.87573242 C387.24768701 277.95667191 388.74443168 279.03756401 390.24121094 280.1184082 C394.04182637 282.8629754 397.84180298 285.60841966 401.640625 288.35546875 C408.41540742 293.25345334 415.19258102 298.14744088 422 303 C429.58659358 308.40798119 437.13590141 313.86727127 444.68554688 319.32666016 C447.70988581 321.51324445 450.73533712 323.69828591 453.76098633 325.88305664 C455.25059568 326.9588044 456.74001707 328.03481247 458.22924805 329.11108398 C462.0879883 331.89947366 465.94973864 334.68354891 469.81640625 337.4609375 C473.59542511 340.17571003 477.3620169 342.9070437 481.12353516 345.64599609 C482.70819037 346.78943844 484.31115009 347.90744926 485.91796875 349.01953125 C492.51976881 353.74142174 497.4778405 359.95338109 499.1875 368.0625 C499.30756996 372.38946574 498.22814474 376.21510923 496.9765625 380.3125 C496.64577446 381.41477684 496.64577446 381.41477684 496.30830383 382.5393219 C493.45147144 391.95653952 490.35528792 401.29829212 487.27340698 410.64364624 C485.37881 416.3904786 483.49367388 422.14040913 481.609375 427.890625 C481.03043739 429.65716682 481.03043739 429.65716682 480.43980408 431.45939636 C476.54843426 443.35053442 472.73683574 455.26669928 468.9375 467.1875 C463.2803847 484.933616 457.5363939 502.64937755 451.73422241 520.34857178 C447.32269236 533.81112552 442.98627895 547.29380696 438.75 560.8125 C435.03516866 572.66658243 431.20944924 584.47537605 427.25 596.25 C422.47219217 610.45871789 417.86308044 624.71695158 413.3125 639 C407.78182713 656.35789613 402.17909984 673.69009459 396.5 691 C390.57000861 709.07790186 384.72298687 727.18028837 378.94287109 745.30664062 C374.02483835 760.72533788 369.0388725 776.12038595 364 791.5 C358.60088272 807.97935717 353.27006597 824.47892378 348 841 C341.01226608 862.89895755 333.92944888 884.76544969 326.74731445 906.60144043 C324.98429849 911.96991788 323.2448448 917.34500686 321.53456116 922.73051453 C320.55088139 925.82298123 319.55494955 928.91141683 318.55679321 931.99923706 C318.11078984 933.38983088 317.67058396 934.78230086 317.23690796 936.17678833 C314.50013842 944.96984046 312.10561765 951.93662941 303.875 956.875 C300.0208818 958.38313321 296.79075892 959.12480289 292.65236974 959.1276505 C291.78251321 959.13066647 290.91265668 959.13368244 290.01644087 959.1367898 C289.06341975 959.13502033 288.11039863 959.13325086 287.12849808 959.13142776 C285.60056873 959.13450672 285.60056873 959.13450672 284.04177213 959.13764787 C280.60069176 959.14333894 277.15965116 959.14185802 273.71856689 959.14044189 C271.23768592 959.14302432 268.75680537 959.14603713 266.2759254 959.1494453 C260.1548543 959.15668361 254.03379578 959.15921862 247.91272091 959.15977435 C240.58292413 959.16068747 233.25313544 959.16735346 225.92334214 959.17412117 C208.20688963 959.19018846 190.49043798 959.19608515 172.77397949 959.20086992 C164.39507395 959.203205 156.01616911 959.20680754 147.6372641 959.2105653 C118.96244756 959.22340106 90.2876314 959.23412054 61.61281204 959.2375679 C59.81245952 959.23778954 58.012107 959.23801132 56.21175449 959.23823325 C54.40702457 959.23845389 52.60229466 959.23867438 50.79756474 959.2388947 C47.17689212 959.23933726 43.5562195 959.23978437 39.93554688 959.24023438 C39.03782919 959.24034377 38.14011151 959.24045316 37.21519026 959.24056586 C8.09973994 959.24419735 -21.01568549 959.26012073 -50.13112628 959.28342474 C-80.90479702 959.30801102 -111.67845353 959.32174017 -142.45213437 959.32293582 C-145.82914559 959.32310728 -149.20615681 959.32332271 -152.58316803 959.32357025 C-153.41469923 959.32362602 -154.24623044 959.32368179 -155.10295956 959.32373925 C-168.49448756 959.3248907 -181.88599007 959.33592066 -195.27750945 959.35045731 C-208.73310073 959.36481114 -222.18865925 959.36806558 -235.64425609 959.36001733 C-243.64106011 959.35555591 -251.63775853 959.35944212 -259.63454871 959.37525584 C-265.60145217 959.38613253 -271.5682344 959.38138102 -277.53514233 959.37048396 C-279.952378 959.3685167 -282.36962416 959.3716525 -284.78684506 959.38032833 C-288.06645942 959.39135681 -291.34553452 959.3839776 -294.62513351 959.3719368 C-295.56878997 959.37953199 -296.51244643 959.38712718 -297.48469853 959.39495254 C-305.26255638 959.33309086 -312.49337138 957.64363601 -318.3671875 952.19702148 C-320.4914685 949.33870739 -321.53058665 946.50853465 -322.75 943.16015625 C-323.00383453 942.46421356 -323.25766907 941.76827087 -323.51919556 941.05123901 C-327.0262114 931.31830578 -330.18798361 921.46602131 -333.375 911.625 C-334.07664322 909.46738947 -334.77847017 907.30983869 -335.48046875 905.15234375 C-340.70493672 889.07630726 -345.85964241 872.97805336 -350.99725342 856.87408447 C-355.93567605 841.39529795 -360.94145344 825.93992899 -366 810.5 C-371.74064721 792.97813198 -377.39714071 775.43113256 -383 757.86474609 C-387.93755165 742.38908983 -392.94246446 726.93684311 -398 711.5 C-403.73932358 693.98217202 -409.39529012 676.43945364 -414.99597168 658.87683105 C-420.34359577 642.11245914 -425.78216586 625.37938298 -431.26348877 608.65829468 C-435.97451917 594.2811939 -440.59093499 579.87801303 -445.1184082 565.44213867 C-448.23469388 555.51163019 -451.4276101 545.61401126 -454.75 535.75 C-459.11364214 522.79213848 -463.28700347 509.77750404 -467.4375 496.75 C-473.07533025 479.05827333 -478.79140033 461.39384665 -484.58139038 443.75131226 C-485.80300457 440.02893353 -487.02334895 436.30614059 -488.2434082 432.58325195 C-491.40884791 422.92731241 -494.57493497 413.27168895 -497.7731781 403.6265564 C-498.82697131 400.44460123 -499.87434362 397.2605605 -500.92001343 394.07592773 C-501.38064737 392.67869205 -501.84440267 391.28248049 -502.31167603 389.88745117 C-508.83761601 370.40217837 -508.83761601 370.40217837 -504 360 C-500.22294036 353.87207651 -495.64869945 349.82732162 -489.75 345.8125 C-488.14039281 344.68392484 -486.53102447 343.55500895 -484.921875 342.42578125 C-484.10396484 341.85811035 -483.28605469 341.29043945 -482.44335938 340.70556641 C-478.59397124 338.01853348 -474.79903947 335.25751537 -471 332.5 C-469.50028363 331.41627406 -468.0002829 330.33294152 -466.5 329.25 C-465.38625 328.445625 -465.38625 328.445625 -464.25 327.625 C-438 308.66666667 -411.75 289.70833333 -385.5 270.75 C-384.75741943 270.21366943 -384.01483887 269.67733887 -383.24975586 269.12475586 C-381.7506555 268.04211746 -380.25146938 266.9595978 -378.75219727 265.87719727 C-374.98771832 263.15920177 -371.22478096 260.43911932 -367.46484375 257.71484375 C-360.19567731 252.45118072 -352.90875115 247.21813928 -345.5625 242.0625 C-339.47874537 237.79119875 -333.47286072 233.42492354 -327.5 229 C-320.84058446 224.0664504 -314.12530093 219.22742435 -307.34155273 214.46655273 C-299.93148283 209.2625276 -292.59847977 203.9538049 -285.26611328 198.64111328 C-281.513552 195.92351827 -277.75656581 193.21205527 -274 190.5 C-272.49997854 189.41669638 -270.99997854 188.33336304 -269.5 187.25 C-248.5 172.08333333 -227.5 156.91666667 -206.5 141.75 C-205.75717773 141.2135083 -205.01435547 140.6770166 -204.24902344 140.12426758 C-202.75231299 139.04332809 -201.25556832 137.96243599 -199.75878906 136.8815918 C-195.95817363 134.1370246 -192.15819702 131.39158034 -188.359375 128.64453125 C-181.02666167 123.34317769 -173.68638156 118.05344563 -166.31835938 112.80126953 C-159.29435105 107.7901413 -152.30621493 102.72930529 -145.31445312 97.67333984 C-140.79764229 94.40770467 -136.278495 91.14530382 -131.75976562 87.88232422 C-127.95884225 85.13748856 -124.15852668 82.39181873 -120.359375 79.64453125 C-113.02666167 74.34317769 -105.68638156 69.05344563 -98.31835938 63.80126953 C-91.29435105 58.7901413 -84.30621493 53.72930529 -77.31445312 48.67333984 C-73.54406981 45.94736861 -69.77196306 43.22378466 -66 40.5 C-64.49999141 39.41667856 -62.99999142 38.33334521 -61.5 37.25 C-58.5 35.08333333 -55.5 32.91666667 -52.5 30.75 C-51.75693604 30.2132666 -51.01387207 29.6765332 -50.24829102 29.12353516 C-48.75427963 28.04468015 -47.25997804 26.96622692 -45.76538086 25.88818359 C-41.92122767 23.11462308 -38.08298597 20.33340423 -34.25390625 17.5390625 C-8.09435394 -1.51849565 -8.09435394 -1.51849565 0 0 Z " fill="#FEFEFE" transform="translate(516,33)"/>
<path d="M0 0 C7.28741767 3.22268114 13.57806549 8.05276303 19.80273438 12.96118164 C24.16360267 16.39606838 28.63966433 19.63005573 33.1875 22.8125 C39.13529976 26.97891092 45.05474072 31.17964283 50.9375 35.4375 C51.68346436 35.97737549 52.42942871 36.51725098 53.19799805 37.07348633 C54.71013427 38.16838044 56.22209699 39.26351422 57.73388672 40.35888672 C61.486448 43.07648173 65.24343419 45.78794473 69 48.5 C70.50002146 49.58330362 72.00002146 50.66663696 73.5 51.75 C74.2425 52.28625 74.985 52.8225 75.75 53.375 C100.5 71.25 100.5 71.25 102.75024414 72.87524414 C104.2493445 73.95788254 105.74853062 75.0404022 107.24780273 76.12280273 C111.01228168 78.84079823 114.77521904 81.56088068 118.53515625 84.28515625 C125.80432269 89.54881928 133.09124885 94.78186072 140.4375 99.9375 C147.34034679 104.78387201 154.13476019 109.76606348 160.91162109 114.78662109 C166.77094885 119.1181551 172.6943357 123.34780111 178.65844727 127.53344727 C186.06851717 132.7374724 193.40152023 138.0461951 200.73388672 143.35888672 C204.486448 146.07648173 208.24343419 148.78794473 212 151.5 C213.50002146 152.58330362 215.00002146 153.66663696 216.5 154.75 C217.2425 155.28625 217.985 155.8225 218.75 156.375 C279.49999999 200.24999999 279.49999999 200.24999999 281.75097656 201.87573242 C283.24768701 202.95667191 284.74443168 204.03756401 286.24121094 205.1184082 C290.04182637 207.8629754 293.84180298 210.60841966 297.640625 213.35546875 C304.41540742 218.25345334 311.19258102 223.14744088 318 228 C325.58659358 233.40798119 333.13590141 238.86727127 340.68554688 244.32666016 C344.45593019 247.05263139 348.22803694 249.77621534 352 252.5 C353.50000859 253.58332144 355.00000858 254.66665479 356.5 255.75 C357.2425 256.28625 357.985 256.8225 358.75 257.375 C383.5 275.25 383.5 275.25 385.75097656 276.87573242 C387.24768701 277.95667191 388.74443168 279.03756401 390.24121094 280.1184082 C394.04182637 282.8629754 397.84180298 285.60841966 401.640625 288.35546875 C408.41540742 293.25345334 415.19258102 298.14744088 422 303 C429.58659358 308.40798119 437.13590141 313.86727127 444.68554688 319.32666016 C447.70988581 321.51324445 450.73533712 323.69828591 453.76098633 325.88305664 C455.25059568 326.9588044 456.74001707 328.03481247 458.22924805 329.11108398 C462.0879883 331.89947366 465.94973864 334.68354891 469.81640625 337.4609375 C473.59542511 340.17571003 477.3620169 342.9070437 481.12353516 345.64599609 C482.70819037 346.78943844 484.31115009 347.90744926 485.91796875 349.01953125 C492.51976881 353.74142174 497.4778405 359.95338109 499.1875 368.0625 C499.30756996 372.38946574 498.22814474 376.21510923 496.9765625 380.3125 C496.64577446 381.41477684 496.64577446 381.41477684 496.30830383 382.5393219 C493.45147144 391.95653952 490.35528792 401.29829212 487.27340698 410.64364624 C485.37881 416.3904786 483.49367388 422.14040913 481.609375 427.890625 C481.03043739 429.65716682 481.03043739 429.65716682 480.43980408 431.45939636 C476.54843426 443.35053442 472.73683574 455.26669928 468.9375 467.1875 C463.2803847 484.933616 457.5363939 502.64937755 451.73422241 520.34857178 C447.32269236 533.81112552 442.98627895 547.29380696 438.75 560.8125 C435.03516866 572.66658243 431.20944924 584.47537605 427.25 596.25 C422.47219217 610.45871789 417.86308044 624.71695158 413.3125 639 C407.78182713 656.35789613 402.17909984 673.69009459 396.5 691 C390.57000861 709.07790186 384.72298687 727.18028837 378.94287109 745.30664062 C374.02483835 760.72533788 369.0388725 776.12038595 364 791.5 C358.60088272 807.97935717 353.27006597 824.47892378 348 841 C341.01226608 862.89895755 333.92944888 884.76544969 326.74731445 906.60144043 C324.98429849 911.96991788 323.2448448 917.34500686 321.53456116 922.73051453 C320.55088139 925.82298123 319.55494955 928.91141683 318.55679321 931.99923706 C318.11078984 933.38983088 317.67058396 934.78230086 317.23690796 936.17678833 C314.50013842 944.96984046 312.10561765 951.93662941 303.875 956.875 C300.0208818 958.38313321 296.79075892 959.12480289 292.65236974 959.1276505 C291.78251321 959.13066647 290.91265668 959.13368244 290.01644087 959.1367898 C289.06341975 959.13502033 288.11039863 959.13325086 287.12849808 959.13142776 C285.60056873 959.13450672 285.60056873 959.13450672 284.04177213 959.13764787 C280.60069176 959.14333894 277.15965116 959.14185802 273.71856689 959.14044189 C271.23768592 959.14302432 268.75680537 959.14603713 266.2759254 959.1494453 C260.1548543 959.15668361 254.03379578 959.15921862 247.91272091 959.15977435 C240.58292413 959.16068747 233.25313544 959.16735346 225.92334214 959.17412117 C208.20688963 959.19018846 190.49043798 959.19608515 172.77397949 959.20086992 C164.39507395 959.203205 156.01616911 959.20680754 147.6372641 959.2105653 C118.96244756 959.22340106 90.2876314 959.23412054 61.61281204 959.2375679 C59.81245952 959.23778954 58.012107 959.23801132 56.21175449 959.23823325 C54.40702457 959.23845389 52.60229466 959.23867438 50.79756474 959.2388947 C47.17689212 959.23933726 43.5562195 959.23978437 39.93554688 959.24023438 C39.03782919 959.24034377 38.14011151 959.24045316 37.21519026 959.24056586 C8.09973994 959.24419735 -21.01568549 959.26012073 -50.13112628 959.28342474 C-80.90479702 959.30801102 -111.67845353 959.32174017 -142.45213437 959.32293582 C-145.82914559 959.32310728 -149.20615681 959.32332271 -152.58316803 959.32357025 C-153.41469923 959.32362602 -154.24623044 959.32368179 -155.10295956 959.32373925 C-168.49448756 959.3248907 -181.88599007 959.33592066 -195.27750945 959.35045731 C-208.73310073 959.36481114 -222.18865925 959.36806558 -235.64425609 959.36001733 C-243.64106011 959.35555591 -251.63775853 959.35944212 -259.63454871 959.37525584 C-265.60145217 959.38613253 -271.5682344 959.38138102 -277.53514233 959.37048396 C-279.952378 959.3685167 -282.36962416 959.3716525 -284.78684506 959.38032833 C-288.06645942 959.39135681 -291.34553452 959.3839776 -294.62513351 959.3719368 C-295.56878997 959.37953199 -296.51244643 959.38712718 -297.48469853 959.39495254 C-305.26255638 959.33309086 -312.49337138 957.64363601 -318.3671875 952.19702148 C-320.4914685 949.33870739 -321.53058665 946.50853465 -322.75 943.16015625 C-323.00383453 942.46421356 -323.25766907 941.76827087 -323.51919556 941.05123901 C-327.0262114 931.31830578 -330.18798361 921.46602131 -333.375 911.625 C-334.07664322 909.46738947 -334.77847017 907.30983869 -335.48046875 905.15234375 C-340.70493672 889.07630726 -345.85964241 872.97805336 -350.99725342 856.87408447 C-355.93567605 841.39529795 -360.94145344 825.93992899 -366 810.5 C-371.74064721 792.97813198 -377.39714071 775.43113256 -383 757.86474609 C-387.93755165 742.38908983 -392.94246446 726.93684311 -398 711.5 C-403.73932358 693.98217202 -409.39529012 676.43945364 -414.99597168 658.87683105 C-420.34359577 642.11245914 -425.78216586 625.37938298 -431.26348877 608.65829468 C-435.97451917 594.2811939 -440.59093499 579.87801303 -445.1184082 565.44213867 C-448.23469388 555.51163019 -451.4276101 545.61401126 -454.75 535.75 C-459.11364214 522.79213848 -463.28700347 509.77750404 -467.4375 496.75 C-473.07533025 479.05827333 -478.79140033 461.39384665 -484.58139038 443.75131226 C-485.80300457 440.02893353 -487.02334895 436.30614059 -488.2434082 432.58325195 C-491.40884791 422.92731241 -494.57493497 413.27168895 -497.7731781 403.6265564 C-498.82697131 400.44460123 -499.87434362 397.2605605 -500.92001343 394.07592773 C-501.38064737 392.67869205 -501.84440267 391.28248049 -502.31167603 389.88745117 C-508.83761601 370.40217837 -508.83761601 370.40217837 -504 360 C-500.22294036 353.87207651 -495.64869945 349.82732162 -489.75 345.8125 C-488.14039281 344.68392484 -486.53102447 343.55500895 -484.921875 342.42578125 C-484.10396484 341.85811035 -483.28605469 341.29043945 -482.44335938 340.70556641 C-478.59397124 338.01853348 -474.79903947 335.25751537 -471 332.5 C-469.50028363 331.41627406 -468.0002829 330.33294152 -466.5 329.25 C-465.38625 328.445625 -465.38625 328.445625 -464.25 327.625 C-438 308.66666667 -411.75 289.70833333 -385.5 270.75 C-384.75741943 270.21366943 -384.01483887 269.67733887 -383.24975586 269.12475586 C-381.7506555 268.04211746 -380.25146938 266.9595978 -378.75219727 265.87719727 C-374.98771832 263.15920177 -371.22478096 260.43911932 -367.46484375 257.71484375 C-360.19567731 252.45118072 -352.90875115 247.21813928 -345.5625 242.0625 C-339.47874537 237.79119875 -333.47286072 233.42492354 -327.5 229 C-320.84058446 224.0664504 -314.12530093 219.22742435 -307.34155273 214.46655273 C-299.93148283 209.2625276 -292.59847977 203.9538049 -285.26611328 198.64111328 C-281.513552 195.92351827 -277.75656581 193.21205527 -274 190.5 C-272.49997854 189.41669638 -270.99997854 188.33336304 -269.5 187.25 C-248.5 172.08333333 -227.5 156.91666667 -206.5 141.75 C-205.75717773 141.2135083 -205.01435547 140.6770166 -204.24902344 140.12426758 C-202.75231299 139.04332809 -201.25556832 137.96243599 -199.75878906 136.8815918 C-195.95817363 134.1370246 -192.15819702 131.39158034 -188.359375 128.64453125 C-181.02666167 123.34317769 -173.68638156 118.05344563 -166.31835938 112.80126953 C-159.29435105 107.7901413 -152.30621493 102.72930529 -145.31445312 97.67333984 C-140.79764229 94.40770467 -136.278495 91.14530382 -131.75976562 87.88232422 C-127.95884225 85.13748856 -124.15852668 82.39181873 -120.359375 79.64453125 C-113.02666167 74.34317769 -105.68638156 69.05344563 -98.31835938 63.80126953 C-91.29435105 58.7901413 -84.30621493 53.72930529 -77.31445312 48.67333984 C-73.54406981 45.94736861 -69.77196306 43.22378466 -66 40.5 C-64.49999141 39.41667856 -62.99999142 38.33334521 -61.5 37.25 C-58.5 35.08333333 -55.5 32.91666667 -52.5 30.75 C-51.75693604 30.2132666 -51.01387207 29.6765332 -50.24829102 29.12353516 C-48.75427963 28.04468015 -47.25997804 26.96622692 -45.76538086 25.88818359 C-41.92122767 23.11462308 -38.08298597 20.33340423 -34.25390625 17.5390625 C-8.09435394 -1.51849565 -8.09435394 -1.51849565 0 0 Z M-13.125 53.1875 C-14.56130527 54.29452059 -15.99885219 55.39993167 -17.4375 56.50390625 C-18.18515625 57.08027832 -18.9328125 57.65665039 -19.703125 58.25048828 C-23.45993219 61.11201893 -27.29001178 63.86960241 -31.125 66.625 C-31.88441895 67.1718042 -32.64383789 67.7186084 -33.42626953 68.28198242 C-38.50241447 71.93315833 -43.58964597 75.56877317 -48.68115234 79.19848633 C-55.70550852 84.2094345 -62.69364103 89.27059054 -69.68554688 94.32666016 C-74.20235771 97.59229533 -78.721505 100.85469618 -83.24023438 104.11767578 C-87.04115775 106.86251144 -90.84147332 109.60818127 -94.640625 112.35546875 C-101.97333833 117.65682231 -109.31361844 122.94655437 -116.68164062 128.19873047 C-123.70564895 133.2098587 -130.69378507 138.27069471 -137.68554688 143.32666016 C-142.20235771 146.59229533 -146.721505 149.85469618 -151.24023438 153.11767578 C-155.04115775 155.86251144 -158.84147332 158.60818127 -162.640625 161.35546875 C-169.97333833 166.65682231 -177.31361844 171.94655437 -184.68164062 177.19873047 C-191.70564895 182.2098587 -198.69378507 187.27069471 -205.68554688 192.32666016 C-210.20235771 195.59229533 -214.721505 198.85469618 -219.24023438 202.11767578 C-223.04115775 204.86251144 -226.84147332 207.60818127 -230.640625 210.35546875 C-237.97333833 215.65682231 -245.31361844 220.94655437 -252.68164062 226.19873047 C-259.70564895 231.2098587 -266.69378507 236.27069471 -273.68554688 241.32666016 C-277.45593019 244.05263139 -281.22803694 246.77621534 -285 249.5 C-286.50000859 250.58332144 -288.00000858 251.66665479 -289.5 252.75 C-298.5 259.25 -307.5 265.75 -316.5 272.25 C-317.6142334 273.05473755 -317.6142334 273.05473755 -318.75097656 273.87573242 C-320.24768701 274.95667191 -321.74443168 276.03756401 -323.24121094 277.1184082 C-327.04182637 279.8629754 -330.84180298 282.60841966 -334.640625 285.35546875 C-341.97333833 290.65682231 -349.31361844 295.94655437 -356.68164062 301.19873047 C-363.70564895 306.2098587 -370.69378507 311.27069471 -377.68554688 316.32666016 C-382.20235771 319.59229533 -386.721505 322.85469618 -391.24023438 326.11767578 C-395.04115775 328.86251144 -398.84147332 331.60818127 -402.640625 334.35546875 C-409.97036718 339.65467424 -417.30713176 344.94304209 -424.67285156 350.19213867 C-430.22911192 354.1553175 -435.75830513 358.15570199 -441.28857422 362.1550293 C-448.17278504 367.13091493 -455.08122773 372.07232136 -462 377 C-460.06322581 385.26927983 -457.687478 393.28011605 -454.9375 401.3125 C-454.130193 403.70268043 -453.32425633 406.09332405 -452.51953125 408.484375 C-452.10396973 409.71865234 -451.6884082 410.95292969 -451.26025391 412.22460938 C-449.16913979 418.48903956 -447.14547041 424.77500611 -445.125 431.0625 C-444.70690576 432.36190978 -444.28877394 433.66130747 -443.87060547 434.96069336 C-443.0163127 437.61606594 -442.16252103 440.271599 -441.30908203 442.92724609 C-439.06449874 449.91121182 -436.81650504 456.89406893 -434.5625 463.875 C-434.33636017 464.57556519 -434.11022034 465.27613037 -433.87722778 465.9979248 C-429.89980095 478.30997743 -425.82967067 490.59009453 -421.70336914 502.85302734 C-419.34711416 509.8681973 -417.08615615 516.90338447 -414.93139648 523.9831543 C-413.53216783 528.51533478 -412.01931465 533.00695463 -410.5 537.5 C-408.24541668 544.21666772 -406.05636858 550.94341169 -403.99609375 557.72265625 C-399.40591262 572.82525221 -394.43082438 587.79504315 -389.40234375 602.75610352 C-386.85709744 610.34066306 -384.366006 617.93535157 -381.99742126 625.57717896 C-379.21407316 634.5560505 -376.34691424 643.50833936 -373.48876953 652.46362305 C-372.50057421 655.56070038 -371.51393092 658.65826944 -370.52734375 661.75585938 C-367.46106571 671.37245291 -364.36614423 680.97577923 -361.15380859 690.54467773 C-359.30388193 696.08467181 -357.51414487 701.64406697 -355.72235107 707.20306396 C-354.53933213 710.87292859 -353.35376114 714.54196823 -352.16796875 718.2109375 C-351.91577576 718.9912735 -351.66358276 719.7716095 -351.40374756 720.57559204 C-348.54352855 729.42005784 -345.66192881 738.25754795 -342.78106689 747.0953064 C-337.49636472 763.30807492 -332.23842488 779.52878659 -327.03564453 795.76806641 C-325.23481315 801.38791689 -323.43022052 807.00655808 -321.625 812.625 C-321.25777832 813.76791504 -320.89055664 814.91083008 -320.51220703 816.08837891 C-317.07723333 826.77216829 -313.62317572 837.44975309 -310.16552734 848.1262207 C-307.87927635 855.18645193 -305.59650494 862.24776045 -303.32421875 869.3125 C-302.67711211 871.32371576 -302.0299561 873.33491562 -301.38275146 875.34609985 C-300.96341581 876.64926822 -300.5441844 877.95247013 -300.12506104 879.25570679 C-297.17679685 888.41895857 -294.17807989 897.56357119 -291.06738281 906.6730957 C-290.67631348 907.82878052 -290.67631348 907.82878052 -290.27734375 909.0078125 C-290.05296631 909.66410645 -289.82858887 910.32040039 -289.59741211 910.99658203 C-288.91317581 913.29116441 -288.46958605 915.65206973 -288 918 C-100.56 918 86.88 918 280 918 C281.65 912.39 283.3 906.78 285 901 C286.2959562 896.84744669 287.60124858 892.70178608 288.9375 888.5625 C289.28321045 887.48669678 289.6289209 886.41089355 289.98510742 885.30249023 C292.11813873 878.68203934 294.29519112 872.07782022 296.51074219 865.48461914 C300.38166131 853.92625703 304.08799389 842.31297249 307.83187866 830.71299744 C309.41538805 825.80743417 311.00296515 820.90320839 312.59375 816 C316.77827937 803.09759357 320.94367805 790.18934174 325.07421875 777.26953125 C325.42882675 776.16044403 325.78343475 775.05135681 326.14878845 773.90866089 C327.91095742 768.39600484 329.67165502 762.88288363 331.43041992 757.36914062 C334.51800268 747.69719977 337.62855185 738.03653758 340.859375 728.41137695 C342.88589122 722.35047988 344.84757068 716.26857839 346.8125 710.1875 C347.03666595 709.49488068 347.26083191 708.80226135 347.49179077 708.08865356 C350.7064648 698.15540668 353.89223691 688.21313209 357.0625 678.265625 C357.77237106 676.04011773 358.48225065 673.81461318 359.19213867 671.58911133 C360.57812986 667.24354688 361.96056526 662.89687235 363.34106445 658.54956055 C366.43297504 648.83843447 369.55334914 639.15074085 373.03840637 629.57225037 C374.71927955 624.92961264 376.14946767 620.24605352 377.5 615.5 C379.14493837 609.75456762 380.96503437 604.11955144 383 598.5 C385.01216541 592.94219672 386.82210905 587.37325106 388.4375 581.6875 C390.48160049 574.49974796 392.89767067 567.4842907 395.41162109 560.44873047 C397.54606576 554.42650581 399.41053291 548.36712101 401.15625 542.22265625 C402.58851824 537.24248172 404.236391 532.37195593 406 527.5 C408.00294955 521.96180015 409.81887762 516.41252268 411.4375 510.75 C413.1902886 504.63485545 415.09214738 498.59034995 417.125 492.5625 C420.25681793 483.27208202 423.29983561 473.95456652 426.3125 464.625 C426.54786469 463.89641785 426.78322937 463.16783569 427.02572632 462.41717529 C428.68548078 457.2786529 430.34307159 452.13943425 432 447 C432.42609973 445.67854591 432.85220627 444.35709401 433.27832031 443.03564453 C433.48238495 442.40275513 433.68644958 441.76986572 433.896698 441.11779785 C434.50701238 439.22513752 435.11751974 437.33253942 435.72802734 435.43994141 C436.53169381 432.9465313 437.33411119 430.45271824 438.13525391 427.95849609 C440.22048828 421.47488941 442.32596538 414.99898214 444.46910095 408.53425598 C445.60272688 405.11255702 446.72987112 401.68873689 447.85671997 398.26480103 C448.40772995 396.59687399 448.96195864 394.93000662 449.51950073 393.26425171 C450.29576115 390.94435772 451.06107974 388.62111236 451.82421875 386.296875 C452.06009705 385.60151138 452.29597534 384.90614777 452.53900146 384.18971252 C453.87426903 380.1346426 453.87426903 380.1346426 453 376 C451.31916036 374.54763649 451.31916036 374.54763649 449.203125 373.21484375 C448.41599121 372.68947021 447.62885742 372.16409668 446.81787109 371.62280273 C445.5467749 370.78857788 445.5467749 370.78857788 444.25 369.9375 C437.38773381 365.34543323 430.78366116 360.60926981 424.28515625 355.515625 C419.85082663 352.07714636 415.24026059 348.88843694 410.64575195 345.66943359 C405.42117384 342.00798224 400.2306688 338.30314679 395.0625 334.5625 C394.31653564 334.02262451 393.57057129 333.48274902 392.80200195 332.92651367 C391.28986573 331.83161956 389.77790301 330.73648578 388.26611328 329.64111328 C384.513552 326.92351827 380.75656581 324.21205527 377 321.5 C375.49997854 320.41669638 373.99997854 319.33336304 372.5 318.25 C371.7575 317.71375 371.015 317.1775 370.25 316.625 C345.5 298.75 345.5 298.75 343.24902344 297.12426758 C341.75231299 296.04332809 340.25556832 294.96243599 338.75878906 293.8815918 C334.95817363 291.1370246 331.15819702 288.39158034 327.359375 285.64453125 C320.58459258 280.74654666 313.80741898 275.85255912 307 271 C299.41340642 265.59201881 291.86409859 260.13272873 284.31445312 254.67333984 C280.54406981 251.94736861 276.77196306 249.22378466 273 246.5 C271.49999141 245.41667856 269.99999142 244.33334521 268.5 243.25 C267.7575 242.71375 267.015 242.1775 266.25 241.625 C259.49999999 236.75 259.49999999 236.75 257.24902344 235.12426758 C255.75231299 234.04332809 254.25556832 232.96243599 252.75878906 231.8815918 C248.95817363 229.1370246 245.15819702 226.39158034 241.359375 223.64453125 C234.58459258 218.74654666 227.80741898 213.85255912 221 209 C213.41340642 203.59201881 205.86409859 198.13272873 198.31445312 192.67333984 C194.54406983 189.94736863 190.77198481 187.22375451 187 184.5 C182.45224422 181.2160604 177.90490626 177.93154955 173.359375 174.64453125 C166.58459258 169.74654666 159.80741898 164.85255912 153 160 C145.41340642 154.59201881 137.86409859 149.13272873 130.31445312 143.67333984 C126.54406981 140.94736861 122.77196306 138.22378466 119 135.5 C117.49999141 134.41667856 115.99999142 133.33334521 114.5 132.25 C113.7575 131.71375 113.015 131.1775 112.25 130.625 C105.49999999 125.75 105.49999999 125.75 103.24902344 124.12426758 C101.75231299 123.04332809 100.25556832 121.96243599 98.75878906 120.8815918 C94.95817363 118.1370246 91.15819702 115.39158034 87.359375 112.64453125 C80.58459258 107.74654666 73.80741898 102.85255912 67 98 C59.41340642 92.59201881 51.86409859 87.13272873 44.31445312 81.67333984 C41.29002213 79.486689 38.26446744 77.30159654 35.23876953 75.11669922 C33.75005991 74.04164632 32.2614526 72.96645172 30.77294922 71.89111328 C26.89975054 69.09309762 23.02515948 66.29703867 19.1484375 63.50390625 C18.34921875 62.92769531 17.55 62.35148437 16.7265625 61.7578125 C15.21398684 60.66735098 13.70099941 59.57746029 12.1875 58.48828125 C11.49398438 57.988125 10.80046875 57.48796875 10.0859375 56.97265625 C9.07418457 56.2458667 9.07418457 56.2458667 8.04199219 55.50439453 C6.62214984 54.45835573 5.22288674 53.38403845 3.84082031 52.28857422 C3.14311523 51.73830566 2.44541016 51.18803711 1.7265625 50.62109375 C1.10604004 50.11892334 0.48551758 49.61675293 -0.15380859 49.09936523 C-5.45139493 45.94477237 -9.09756795 50.00194386 -13.125 53.1875 Z " fill="#A50B15" transform="translate(516,33)"/>
</svg>
