<svg xmlns="http://www.w3.org/2000/svg" width="1024" height="1024"><path fill="#fefefe" d="M516 33c7.287 3.223 13.578 8.053 19.803 12.961 4.36 3.435 8.837 6.67 13.385 9.852a1409 1409 0 0 1 17.75 12.624l2.26 1.636 4.536 3.286c3.752 2.717 7.51 5.429 11.266 8.141l4.5 3.25 2.25 1.625 27 19.5 4.498 3.248q5.647 4.077 11.287 8.162c7.27 5.264 14.556 10.497 21.903 15.653 6.902 4.846 13.697 9.828 20.474 14.849 5.859 4.331 11.782 8.56 17.746 12.746 7.41 5.204 14.744 10.513 22.076 15.826 3.752 2.717 7.51 5.429 11.266 8.141l4.5 3.25 2.25 1.625 63.001 45.5q2.245 1.623 4.49 3.243 5.7 4.117 11.4 8.237A3748 3748 0 0 0 834 261c7.587 5.408 15.136 10.867 22.686 16.327q5.656 4.089 11.314 8.173l4.5 3.25 2.25 1.625 27.001 19.5q2.245 1.623 4.49 3.243 5.7 4.117 11.4 8.237A3748 3748 0 0 0 938 336c7.587 5.408 15.136 10.867 22.686 16.327a18675 18675 0 0 0 13.543 9.784q5.788 4.183 11.587 8.35a2176 2176 0 0 1 11.308 8.185 298 298 0 0 0 4.794 3.374c6.602 4.721 11.56 10.933 13.27 19.043.12 4.326-.96 8.152-2.211 12.25l-.669 2.226c-2.857 9.418-5.953 18.76-9.035 28.105q-2.84 8.62-5.664 17.247l-1.17 3.568c-3.89 11.892-7.702 23.808-11.501 35.729a6826 6826 0 0 1-17.204 53.16 3271 3271 0 0 0-12.984 40.465 1799 1799 0 0 1-11.5 35.437c-4.778 14.209-9.387 28.467-13.937 42.75a6382 6382 0 0 1-16.813 52 6894 6894 0 0 0-17.557 54.307A6187 6187 0 0 1 880 824.5c-5.4 16.48-10.73 32.979-16 49.5a7757 7757 0 0 1-21.253 65.601 1728 1728 0 0 0-5.212 16.13c-.984 3.092-1.98 6.18-2.978 9.268a495 495 0 0 0-1.32 4.178c-2.737 8.793-5.131 15.76-13.362 20.698-3.854 1.508-7.084 2.25-11.223 2.253l-2.636.009-2.888-.006-3.086.007q-5.162.006-10.323.002l-7.443.01q-9.181.01-18.363.01-10.995.002-21.99.014c-17.716.016-35.433.022-53.149.027q-12.568.003-25.137.01a262743 262743 0 0 1-107.701.03h-2.72c-29.116.003-58.232.02-87.347.042a121461 121461 0 0 1-102.452.04h-2.52q-20.087.005-40.175.027-20.182.022-40.366.01-11.996-.007-23.99.015c-5.967.011-11.934.006-17.901-.005q-3.626-.002-7.252.01c-3.28.011-6.559.004-9.838-.008l-2.86.023c-7.778-.062-15.008-1.751-20.882-7.198-2.124-2.858-3.164-5.688-4.383-9.037l-.77-2.109c-3.506-9.733-6.668-19.585-9.855-29.426l-2.105-6.473c-5.225-16.076-10.38-32.174-15.517-48.278A6272 6272 0 0 0 150 843.5a7043 7043 0 0 1-17-52.635 6277 6277 0 0 0-15-46.365 6996 6996 0 0 1-16.996-52.623 6610 6610 0 0 0-16.267-50.219 3562 3562 0 0 1-13.855-43.216c-3.117-9.93-6.31-19.828-9.632-29.692-4.364-12.958-8.537-25.972-12.687-39a6468 6468 0 0 0-17.144-52.999l-3.662-11.168a8969 8969 0 0 0-9.53-28.956 3941 3941 0 0 1-3.147-9.551q-.69-2.096-1.392-4.189C7.162 403.402 7.162 403.402 12 393c3.777-6.128 8.351-10.173 14.25-14.187l4.828-3.387 2.479-1.72c3.849-2.687 7.644-5.448 11.443-8.206l4.5-3.25 2.25-1.625 78.75-56.875 2.25-1.625 4.498-3.248q5.647-4.077 11.287-8.162c7.27-5.264 14.556-10.497 21.903-15.652 6.083-4.272 12.09-8.638 18.062-13.063a968 968 0 0 1 20.158-14.533c7.41-5.204 14.744-10.513 22.076-15.826 3.752-2.717 7.51-5.429 11.266-8.141l4.5-3.25 63-45.5 2.251-1.626 4.49-3.242q5.7-4.117 11.4-8.237a4057 4057 0 0 1 22.04-15.844c7.025-5.01 14.013-10.072 21.005-15.128q6.776-4.897 13.554-9.79 5.702-4.118 11.4-8.238A4057 4057 0 0 1 417.683 96.8c7.024-5.01 14.012-10.072 21.004-15.128Q444.342 77.584 450 73.5l4.5-3.25 9-6.5 6.735-4.862q5.767-4.159 11.511-8.349C507.906 31.482 507.906 31.482 516 33"/><path fill="#a50b15" d="M516 33c7.287 3.223 13.578 8.053 19.803 12.961 4.36 3.435 8.837 6.67 13.385 9.852a1409 1409 0 0 1 17.75 12.624l2.26 1.636 4.536 3.286c3.752 2.717 7.51 5.429 11.266 8.141l4.5 3.25 2.25 1.625 27 19.5 4.498 3.248q5.647 4.077 11.287 8.162c7.27 5.264 14.556 10.497 21.903 15.653 6.902 4.846 13.697 9.828 20.474 14.849 5.859 4.331 11.782 8.56 17.746 12.746 7.41 5.204 14.744 10.513 22.076 15.826 3.752 2.717 7.51 5.429 11.266 8.141l4.5 3.25 2.25 1.625 63.001 45.5q2.245 1.623 4.49 3.243 5.7 4.117 11.4 8.237A3748 3748 0 0 0 834 261c7.587 5.408 15.136 10.867 22.686 16.327q5.656 4.089 11.314 8.173l4.5 3.25 2.25 1.625 27.001 19.5q2.245 1.623 4.49 3.243 5.7 4.117 11.4 8.237A3748 3748 0 0 0 938 336c7.587 5.408 15.136 10.867 22.686 16.327a18675 18675 0 0 0 13.543 9.784q5.788 4.183 11.587 8.35a2176 2176 0 0 1 11.308 8.185 298 298 0 0 0 4.794 3.374c6.602 4.721 11.56 10.933 13.27 19.043.12 4.326-.96 8.152-2.211 12.25l-.669 2.226c-2.857 9.418-5.953 18.76-9.035 28.105q-2.84 8.62-5.664 17.247l-1.17 3.568c-3.89 11.892-7.702 23.808-11.501 35.729a6826 6826 0 0 1-17.204 53.16 3271 3271 0 0 0-12.984 40.465 1799 1799 0 0 1-11.5 35.437c-4.778 14.209-9.387 28.467-13.937 42.75a6382 6382 0 0 1-16.813 52 6894 6894 0 0 0-17.557 54.307A6187 6187 0 0 1 880 824.5c-5.4 16.48-10.73 32.979-16 49.5a7757 7757 0 0 1-21.253 65.601 1728 1728 0 0 0-5.212 16.13c-.984 3.092-1.98 6.18-2.978 9.268a495 495 0 0 0-1.32 4.178c-2.737 8.793-5.131 15.76-13.362 20.698-3.854 1.508-7.084 2.25-11.223 2.253l-2.636.009-2.888-.006-3.086.007q-5.162.006-10.323.002l-7.443.01q-9.181.01-18.363.01-10.995.002-21.99.014c-17.716.016-35.433.022-53.149.027q-12.568.003-25.137.01a262743 262743 0 0 1-107.701.03h-2.72c-29.116.003-58.232.02-87.347.042a121461 121461 0 0 1-102.452.04h-2.52q-20.087.005-40.175.027-20.182.022-40.366.01-11.996-.007-23.99.015c-5.967.011-11.934.006-17.901-.005q-3.626-.002-7.252.01c-3.28.011-6.559.004-9.838-.008l-2.86.023c-7.778-.062-15.008-1.751-20.882-7.198-2.124-2.858-3.164-5.688-4.383-9.037l-.77-2.109c-3.506-9.733-6.668-19.585-9.855-29.426l-2.105-6.473c-5.225-16.076-10.38-32.174-15.517-48.278A6272 6272 0 0 0 150 843.5a7043 7043 0 0 1-17-52.635 6277 6277 0 0 0-15-46.365 6996 6996 0 0 1-16.996-52.623 6610 6610 0 0 0-16.267-50.219 3562 3562 0 0 1-13.855-43.216c-3.117-9.93-6.31-19.828-9.632-29.692-4.364-12.958-8.537-25.972-12.687-39a6468 6468 0 0 0-17.144-52.999l-3.662-11.168a8969 8969 0 0 0-9.53-28.956 3941 3941 0 0 1-3.147-9.551q-.69-2.096-1.392-4.189C7.162 403.402 7.162 403.402 12 393c3.777-6.128 8.351-10.173 14.25-14.187l4.828-3.387 2.479-1.72c3.849-2.687 7.644-5.448 11.443-8.206l4.5-3.25 2.25-1.625 78.75-56.875 2.25-1.625 4.498-3.248q5.647-4.077 11.287-8.162c7.27-5.264 14.556-10.497 21.903-15.652 6.083-4.272 12.09-8.638 18.062-13.063a968 968 0 0 1 20.158-14.533c7.41-5.204 14.744-10.513 22.076-15.826 3.752-2.717 7.51-5.429 11.266-8.141l4.5-3.25 63-45.5 2.251-1.626 4.49-3.242q5.7-4.117 11.4-8.237a4057 4057 0 0 1 22.04-15.844c7.025-5.01 14.013-10.072 21.005-15.128q6.776-4.897 13.554-9.79 5.702-4.118 11.4-8.238A4057 4057 0 0 1 417.683 96.8c7.024-5.01 14.012-10.072 21.004-15.128Q444.342 77.584 450 73.5l4.5-3.25 9-6.5 6.735-4.862q5.767-4.159 11.511-8.349C507.906 31.482 507.906 31.482 516 33m-13.125 53.188a2567 2567 0 0 1-4.312 3.316l-2.266 1.746c-3.757 2.862-7.587 5.62-11.422 8.375l-2.301 1.657a4444 4444 0 0 1-15.255 10.916c-7.025 5.011-14.013 10.073-21.005 15.129q-6.776 4.897-13.554 9.79-5.702 4.118-11.4 8.238a4057 4057 0 0 1-22.042 15.844c-7.024 5.01-14.012 10.072-21.004 15.128q-6.776 4.897-13.554 9.79-5.702 4.118-11.4 8.238a4057 4057 0 0 1-22.042 15.844c-7.024 5.01-14.012 10.072-21.004 15.128q-6.776 4.897-13.554 9.79-5.701 4.118-11.4 8.238a4057 4057 0 0 1-22.042 15.844c-7.024 5.01-14.012 10.072-21.004 15.128q-5.656 4.089-11.314 8.173l-4.5 3.25-27 19.5-2.251 1.626-4.49 3.242q-5.7 4.117-11.4 8.237a4057 4057 0 0 1-22.04 15.844c-7.025 5.01-14.013 10.072-21.005 15.128q-6.775 4.897-13.554 9.79-5.702 4.118-11.4 8.238a3978 3978 0 0 1-22.033 15.837c-5.556 3.963-11.085 7.964-16.616 11.963A3649 3649 0 0 1 54 410c1.937 8.27 4.313 16.28 7.063 24.313q1.21 3.585 2.417 7.171l1.26 3.74c2.09 6.265 4.115 12.551 6.135 18.839l1.254 3.898q1.282 3.982 2.562 7.966a16310 16310 0 0 0 7.432 23.07 3203 3203 0 0 0 12.174 36.856 776 776 0 0 1 6.772 21.13c1.399 4.532 2.912 9.024 4.431 13.517 2.255 6.717 4.444 13.443 6.504 20.223 4.59 15.102 9.565 30.072 14.594 45.033 2.545 7.585 5.036 15.18 7.405 22.821 2.783 8.98 5.65 17.931 8.508 26.887l2.962 9.292c3.066 9.616 6.16 19.22 9.373 28.789 1.85 5.54 3.64 11.1 5.432 16.658q1.775 5.505 3.554 11.008l.764 2.365c2.86 8.844 5.742 17.682 8.623 26.52a10131 10131 0 0 1 15.745 48.672 22665 22665 0 0 0 6.524 20.32c3.435 10.684 6.889 21.362 10.346 32.038a11259 11259 0 0 1 8.783 27.22l1.258 3.91c2.948 9.163 5.947 18.308 9.058 27.417.39 1.156.39 1.156.79 2.335l.68 1.989c.684 2.294 1.127 4.655 1.597 7.003h568l5-17a1337 1337 0 0 1 3.938-12.437c.345-1.076.69-2.152 1.047-3.26q3.2-9.93 6.526-19.818c3.87-11.559 7.577-23.172 11.32-34.772q2.376-7.359 4.763-14.713c4.184-12.902 8.35-25.81 12.48-38.73l1.075-3.361q2.644-8.27 5.281-16.54c3.088-9.672 6.199-19.332 9.43-28.958 2.026-6.06 3.988-12.142 5.952-18.223l.68-2.1c3.214-9.933 6.4-19.875 9.57-29.822l2.13-6.677a10830 10830 0 0 0 4.15-13.04c3.091-9.71 6.211-19.398 9.696-28.977 1.681-4.642 3.111-9.326 4.462-14.072a260 260 0 0 1 5.5-17 250 250 0 0 0 5.438-16.812c2.044-7.188 4.46-14.204 6.974-21.24 2.134-6.021 3.999-12.08 5.744-18.225 1.433-4.98 3.08-9.851 4.844-14.723a256 256 0 0 0 5.438-16.75 413 413 0 0 1 5.687-18.187c3.132-9.29 6.175-18.608 9.188-27.938l.713-2.208a29459 29459 0 0 0 6.252-19.381l.619-1.918 1.831-5.678q1.206-3.74 2.407-7.482c2.085-6.483 4.191-12.959 6.334-19.424 1.134-3.421 2.26-6.845 3.388-10.27q.825-2.5 1.663-5c.776-2.32 1.541-4.643 2.304-6.967l.715-2.107c1.335-4.055 1.335-4.055.461-8.19-1.68-1.452-1.68-1.452-3.797-2.785l-2.385-1.592-2.568-1.685c-6.862-4.593-13.466-9.329-19.965-14.422-4.434-3.439-9.045-6.628-13.64-9.847a1256 1256 0 0 1-15.582-11.106l-2.261-1.636-4.536-3.286c-3.752-2.717-7.51-5.429-11.266-8.141l-4.5-3.25-2.25-1.625-27.001-19.5q-2.245-1.623-4.49-3.243-5.7-4.117-11.4-8.237A3748 3748 0 0 0 823 304c-7.587-5.408-15.136-10.867-22.686-16.327q-5.656-4.089-11.314-8.173l-4.5-3.25-2.25-1.625-9.001-6.5q-2.245-1.623-4.49-3.243-5.7-4.117-11.4-8.237A3748 3748 0 0 0 737 242c-7.587-5.408-15.136-10.867-22.686-16.327q-5.656-4.089-11.314-8.173-6.822-4.925-13.64-9.855A3748 3748 0 0 0 669 193c-7.587-5.408-15.136-10.867-22.686-16.327q-5.656-4.089-11.314-8.173l-4.5-3.25-2.25-1.625-9.001-6.5q-2.245-1.623-4.49-3.243-5.7-4.117-11.4-8.237A3748 3748 0 0 0 583 131c-7.587-5.408-15.136-10.867-22.686-16.327a19316 19316 0 0 0-13.541-9.782 11374 11374 0 0 0-14.046-10.133l-4.54-3.27-2.101-1.515-2.044-1.469q-2.13-1.57-4.201-3.215l-2.114-1.668-1.88-1.522c-5.298-3.154-8.945.903-12.972 4.088"/><path fill="#a50d17" d="M703 285c3.695 2.463 3.627 3.414 4.543 7.64l.803 3.628.841 3.982q.45 2.067.904 4.132c2.598 11.906 5.063 23.842 7.548 35.772 2.228 10.698 4.61 21.325 7.353 31.905 1.189 4.586 2.175 9.206 3.14 13.843 1.17 5.587 2.435 11.153 3.68 16.723 3.148 14.107 6.181 28.237 9.188 42.375 3.922-.856 6.667-2.521 10.063-4.687 4.902-3.121 9.896-5.946 15.008-8.709 4.908-2.688 9.728-5.523 14.554-8.354l3.175-1.857a7403 7403 0 0 0 20.054-11.784c5.833-3.434 11.69-6.827 17.552-10.212q6.885-3.978 13.746-7.995l3.193-1.868q3.062-1.791 6.12-3.588c2.838-1.66 5.685-3.305 8.535-4.946l2.988-1.751 2.918-1.667 2.604-1.505c2.707-1.171 4.572-1.293 7.49-1.077-.535 4.294-1.506 7.415-3.66 11.16l-1.642 2.883-1.76 3.02-1.805 3.14c-3.538 6.13-7.137 12.215-10.899 18.211a651 651 0 0 0-5.656 9.234l-1.875 3.1q-1.85 3.06-3.693 6.121c-2.43 4.011-4.84 7.986-7.623 11.764-2.326 3.166-4.163 6.508-6.034 9.957-2.484 4.425-5.287 8.65-8.04 12.91-4.476 6.983-8.897 13.99-13.125 21.125l-1.255 2.096c-1.803 3.073-3.18 5.802-3.933 9.279 25.962 5.366 25.962 5.366 51.954 10.591 1.984.397 3.966.803 5.948 1.21 7.552 1.545 15.116 2.894 22.721 4.14C894.56 517.56 894.56 517.56 896 519c2.685.563 5.363 1.08 8.063 1.563l2.298.42q2.82.512 5.639 1.017l1 4c-5.58 3.032-11.264 5.555-17.227 7.734-8.304 3.076-16.561 6.264-24.812 9.48q-3.532 1.377-7.066 2.75c-6.92 2.694-13.836 5.398-20.726 8.168-3.712 1.485-7.44 2.925-11.169 4.368a1112 1112 0 0 0-16.348 6.465 303 303 0 0 1-6.773 2.539l-2.216.81a543 543 0 0 1-4.396 1.58c-3.846 1.164-3.846 1.164-6.267 4.106.754 1.834.754 1.834 1.992 3.824l1.373 2.343 1.51 2.52 1.54 2.613q2.281 3.857 4.585 7.7l1.183 1.977q2.088 3.484 4.187 6.96c4.259 7.063 8.383 14.204 12.519 21.339 3.768 6.483 7.639 12.87 11.756 19.138 1.511 2.884 1.992 5.367 2.355 8.586-4.775-.514-8.088-2.766-11.937-5.437l-1.99-1.354c-4.982-3.405-9.894-6.908-14.781-10.446-4.974-3.585-10.068-6.972-15.231-10.277-6.01-3.916-10.147-8.14-13.624-14.486l-2.07-3.723-1.134-2.055c-2.353-4.24-4.766-8.448-7.17-12.66-.509-.895-1.017-1.791-1.54-2.714-2.372-4.165-4.774-8.296-7.328-12.352l-1.289-2.063a208 208 0 0 0-2.404-3.728c-1.58-2.512-2.488-4.34-2.604-7.33 1.559-3.36 4.03-4.912 7.04-6.875q1.9-1.295 3.796-2.594l2.069-1.398c4.018-2.757 7.944-5.642 11.885-8.508q2.286-1.658 4.574-3.312l1.967-1.426A186 186 0 0 1 792 535v-2c-6.811-1.62-13.62-3.135-20.5-4.437-7.006-1.371-13.73-3.314-20.5-5.563-.538-5.704 1.245-9.308 3.75-14.25q1.226-2.5 2.45-5.004l1.348-2.746c2.754-5.69 5.376-11.443 8.014-17.187q1.564-3.398 3.13-6.793L772 472a462 462 0 0 0-21.062 12c-4.973 3-4.973 3-7.43 4.469a183 183 0 0 0-5.215 3.312l-2.664 1.719-2.4 1.594c-2.229.906-2.229.906-4.437.202-2.392-1.73-3.072-3.472-4.23-6.171-2.824-5.93-5.683-8.545-11.812-10.875-7.5-2.247-13.694-2.028-20.75 1.5-6.324 3.953-8.97 10.725-12 17.25-4.845-.57-8.561-2.015-12.93-4.16l-1.925-.938c-2.01-.98-4.015-1.972-6.02-2.964l-4.11-2.01Q650.003 484.475 645 482c.657 5.212 1.811 9.217 4 14 1.039 2.59 2.021 5.2 3 7.813l.79 2.103c1.966 5.298 3.716 10.632 5.21 16.084-4.876 1.742-9.762 2.914-14.812 4l-2.292.5-4.578.996q-3.572.776-7.142 1.563l-2.14.47c-2.025.468-4.03.99-6.036 1.534-4.287 1.097-8.6 1.55-13 1.937 7.634 8.687 18.914 13.786 29.027 19.056a684 684 0 0 1 6.598 3.506l2.157 1.104c2.882 1.562 4.897 2.69 6.386 5.674-.234 3.706-1.728 6.468-3.48 9.66q-1.121 2.13-2.235 4.266l-1.209 2.302c-2.22 4.338-4.245 8.767-6.307 13.182-3.609 7.671-7.438 15.054-11.937 22.25 6.691-1.54 13.09-3.66 19.563-5.937l3.037-1.053c4.187-1.464 8.324-2.93 12.365-4.764C665 601 665 601 669 601v2a104 104 0 0 1-5.875 4.313l-3.879 2.714-2.094 1.46c-3.684 2.59-7.32 5.243-10.965 7.888-12.58 9.1-25.222 18.078-38.187 26.625l-3.367 2.254a1637 1637 0 0 1-24.668 16.192A326 326 0 0 0 566 674c-3.353 2.108-3.353 2.108-6.25 1.625L558 675c.548-4.78 2.77-8.306 5.25-12.312 4.96-8.2 9.534-16.58 14.019-25.049a216 216 0 0 1 10.153-17.104c1.625-2.611 2.994-5.266 4.328-8.035 5.805-11.937 12.676-23.473 20.105-34.469 1.39-2.078 1.39-2.078 1.145-5.031l-1.753-.747q-4.03-1.718-8.06-3.44l-2.755-1.174a604 604 0 0 1-13.752-6.057c-6.543-2.99-13.14-5.852-19.742-8.707l-1.962-.85a3966 3966 0 0 0-37.052-15.794q-4.207-1.772-8.412-3.551l-2.566-1.084a2622 2622 0 0 1-4.772-2.022c-4.797-2.029-9.623-3.917-14.557-5.59C496 523 496 523 495.4 520.938L495 519c6.882-2.639 13.584-3.826 20.875-4.75 12.622-1.7 25.184-3.68 37.75-5.75l11.102-1.82 2.694-.442c7.522-1.232 15.047-2.441 22.579-3.613l2.975-.47c6.325-.976 12.646-1.644 19.025-2.155-2.88-5.35-5.894-10.485-9.375-15.469-1.424-2.217-2.7-4.448-3.965-6.758-2.567-4.667-5.355-9.16-8.222-13.648l-1.58-2.488a4552 4552 0 0 0-6.34-9.96 1118 1118 0 0 1-17.893-28.99c-4.864-8.159-9.82-16.246-14.937-24.25l-1.737-2.72c-2.672-4.183-5.364-8.351-8.084-12.502l-2.804-4.34-1.308-1.955c-2.81-4.377-2.81-4.377-2.509-7.35L534 368c4.748.575 8.435 2.7 12.5 5.063l2.15 1.23c8.126 4.683 16.085 9.624 23.995 14.664 7.535 4.796 15.017 9.532 22.918 13.711 4.63 2.53 9.007 5.47 13.437 8.332 12.132 7.755 24.376 15.314 36.691 22.773a796 796 0 0 1 9.586 5.891l1.85 1.155q2.324 1.458 4.643 2.923c2.094 1.422 2.094 1.422 4.23 1.258 1.857-5.013 2.755-9.942 3.625-15.187 1.74-9.997 3.902-19.869 6.188-29.75l.525-2.274a9086 9086 0 0 1 2.124-9.154c1.689-7.268 3.337-14.544 4.976-21.822l.842-3.739 1.758-7.802 2.637-11.694 3.535-15.67c1.84-8.146 3.673-16.29 5.403-24.459l.695-3.273q.608-2.883 1.196-5.77l.523-2.488.43-2.1C701 288 701 288 703 285"/><path fill="#a50c16" d="m415 793 2.351.644c6.063 1.689 11.431 3.992 16.962 6.981l2.494 1.336C449.005 808.608 459.572 816.895 470 826l2.207 1.867c11.33 9.646 21.066 20.72 30.48 32.196l1.815 2.208c4.043 4.932 8.066 9.882 12.06 14.854l1.443 1.79c8.807 11.013 8.807 11.013 9.62 15.648-1.237 6.8-6.913 10.694-12.187 14.625-4.84 3.693-9.435 7.522-13.875 11.687-10.284 9.555-10.284 9.555-16.063 11-8.226-2.056-12.376-12.789-16.593-19.643-6.565-10.63-13.984-20.576-21.907-30.232l-2.25-2.812c-13.12-16.311-30.563-32.269-52.281-35.016L390 844l-2.469-.172c-25.288-.8-45.174 14.023-62.785 30.52-3.497 3.378-6.658 6.902-9.746 10.652l-2.328 2.738c-7.282 8.611-14.174 17.446-20.36 26.887-2.105 3.02-3.192 4.305-6.437 6.188-5.87.382-10.06-4.52-14.25-8.188l-1.816-1.576q-1.913-1.661-3.823-3.326a843 843 0 0 0-6.095-5.227l-4.016-3.433-1.9-1.61c-4.038-3.47-7.912-6.862-9.975-11.89 0-5.712 5.698-10.741 9.313-14.938l1.476-1.728q2.1-2.453 4.211-4.897l1.957-2.27c3.898-4.482 7.88-8.89 11.863-13.296 1.882-2.101 3.723-4.228 5.555-6.371 8.219-9.367 17.052-17.354 26.99-24.826a240 240 0 0 0 4.303-3.354C323.152 803.472 338.669 796.544 355 792l3.477-1.027c18.18-4.535 38.73-3.573 56.523 2.027M436.227 560.766c3.695.23 6.621.895 10.148 1.984 8.16 2.39 16.47 3.593 24.88 4.767 13.19 1.928 13.19 1.928 17.745 6.483 1.157 7.614-.947 15.008-2.875 22.313-3.43 13.222-5.487 25.745-5.375 39.437l.025 3.71c.233 18.958 2.053 37.133 14.225 52.54l1.36 1.848C509.353 710.456 530.55 712.406 550 715c.781.105 1.563.21 2.368.32 4.055.5 8.063.754 12.148.856l2.851.072q2.906.064 5.813.094c4.316.128 7.151.294 10.992 2.385C586 721 586 721 586.375 723.347l-.375 2.716-.41 3.226c-1.763 11.09-1.763 11.09-2.436 15.055-.735 4.455-1.289 8.867-1.619 13.37l-.215 2.862a245 245 0 0 0-.322 5.482c-.279 3.961-.799 6.57-2.693 10.106-5.575 3.097-11.193 1.75-17.305.836l-2.205-.328c-4.838-.742-9.655-1.582-14.47-2.464-2.49-.454-4.982-.892-7.475-1.33-14.749-2.632-29.56-5.865-43.6-11.19l-2.352-.884C478.93 756.175 468.028 750.047 458 742l-2.582-2.047c-22.36-18.823-30.301-48.49-32.98-76.41-.638-8.152-.68-16.308-.688-24.48l-.004-2.516c.005-15.68 1.198-30.993 3.254-46.547q.382-3.12.762-6.242.364-2.848.738-5.696l.322-2.547c.874-6.153 2.12-14.22 9.405-14.75M323 574c2.662 2.87 3.537 5.358 4.246 9.164l.593 3.112.599 3.349.641 3.48c6.555 36.091 6.555 36.091 6.865 51.235q.067 3.053.166 6.105c1.058 35.166-4.777 67.356-29.546 93.975-24.786 25.041-64.553 39.276-99.314 39.955l-2.246.113c-3.563.058-5.595-.175-8.453-2.363-2.212-4.457-2.358-8.58-2.613-13.5q-.208-3.089-.43-6.176l-.23-3.21c-.538-6.264-1.466-12.483-2.401-18.7-1.337-9.4-1.337-9.4.123-13.539 4.164-3.89 9.357-3.53 14.75-3.812C223.7 721.86 242.194 718.805 257 708l2.555-1.797c11.814-9.309 17.312-24.76 19.445-39.203.326-4.566.381-9.111.375-13.687l-.005-3.847c-.206-16.119-3.26-31.527-7.636-46.993-.87-4.118-1.137-7.273-.734-11.473 2.571-2.415 5.056-3.534 8.414-4.5l2.559-.75 2.652-.75 2.582-.75q2.587-.752 5.176-1.497c8.92-2.455 8.92-2.455 17.492-5.878 4.297-2.045 8.309-3.492 13.125-2.875M727 522l2.531 1.86c2.66 2.305 4.299 4.534 6.157 7.515l1.761 2.773c4.953 9.108 4.88 20.124 2.899 30.157-3.726 11.288-10.97 18.263-21.348 23.695-8.56 4.112-17.764 4.35-26.75 1.375-10.033-4.131-18.852-11.908-23.75-21.687-3.429-9.87-3.42-22.991 1.063-32.438 1.675-2.773 1.675-2.773 3.437-5.25l1.605-2.29c5.582-7.078 13.268-11.935 22.184-13.468 11.627-1.273 20.886.527 30.211 7.758"/></svg>