<?xml version="1.0" encoding="UTF-8"?>
<svg version="1.1" xmlns="http://www.w3.org/2000/svg" width="1024" height="1024">
<path d="M0 0 C7.28741767 3.22268114 13.57806549 8.05276303 19.80273438 12.96118164 C24.16360267 16.39606838 28.63966433 19.63005573 33.1875 22.8125 C39.13529976 26.97891092 45.05474072 31.17964283 50.9375 35.4375 C51.68346436 35.97737549 52.42942871 36.51725098 53.19799805 37.07348633 C54.71013427 38.16838044 56.22209699 39.26351422 57.73388672 40.35888672 C61.486448 43.07648173 65.24343419 45.78794473 69 48.5 C70.50002146 49.58330362 72.00002146 50.66663696 73.5 51.75 C74.2425 52.28625 74.985 52.8225 75.75 53.375 C100.5 71.25 100.5 71.25 102.75024414 72.87524414 C104.2493445 73.95788254 105.74853062 75.0404022 107.24780273 76.12280273 C111.01228168 78.84079823 114.77521904 81.56088068 118.53515625 84.28515625 C125.80432269 89.54881928 133.09124885 94.78186072 140.4375 99.9375 C147.34034679 104.78387201 154.13476019 109.76606348 160.91162109 114.78662109 C166.77094885 119.1181551 172.6943357 123.34780111 178.65844727 127.53344727 C186.06851717 132.7374724 193.40152023 138.0461951 200.73388672 143.35888672 C204.486448 146.07648173 208.24343419 148.78794473 212 151.5 C213.50002146 152.58330362 215.00002146 153.66663696 216.5 154.75 C217.2425 155.28625 217.985 155.8225 218.75 156.375 C279.49999999 200.24999999 279.49999999 200.24999999 281.75097656 201.87573242 C283.24768701 202.95667191 284.74443168 204.03756401 286.24121094 205.1184082 C290.04182637 207.8629754 293.84180298 210.60841966 297.640625 213.35546875 C304.41540742 218.25345334 311.19258102 223.14744088 318 228 C325.58659358 233.40798119 333.13590141 238.86727127 340.68554688 244.32666016 C344.45593019 247.05263139 348.22803694 249.77621534 352 252.5 C353.50000859 253.58332144 355.00000858 254.66665479 356.5 255.75 C357.2425 256.28625 357.985 256.8225 358.75 257.375 C383.5 275.25 383.5 275.25 385.75097656 276.87573242 C387.24768701 277.95667191 388.74443168 279.03756401 390.24121094 280.1184082 C394.04182637 282.8629754 397.84180298 285.60841966 401.640625 288.35546875 C408.41540742 293.25345334 415.19258102 298.14744088 422 303 C429.58659358 308.40798119 437.13590141 313.86727127 444.68554688 319.32666016 C447.70988581 321.51324445 450.73533712 323.69828591 453.76098633 325.88305664 C455.25059568 326.9588044 456.74001707 328.03481247 458.22924805 329.11108398 C462.0879883 331.89947366 465.94973864 334.68354891 469.81640625 337.4609375 C473.59542511 340.17571003 477.3620169 342.9070437 481.12353516 345.64599609 C482.70819037 346.78943844 484.31115009 347.90744926 485.91796875 349.01953125 C492.51976881 353.74142174 497.4778405 359.95338109 499.1875 368.0625 C499.30756996 372.38946574 498.22814474 376.21510923 496.9765625 380.3125 C496.64577446 381.41477684 496.64577446 381.41477684 496.30830383 382.5393219 C493.45147144 391.95653952 490.35528792 401.29829212 487.27340698 410.64364624 C485.37881 416.3904786 483.49367388 422.14040913 481.609375 427.890625 C481.03043739 429.65716682 481.03043739 429.65716682 480.43980408 431.45939636 C476.54843426 443.35053442 472.73683574 455.26669928 468.9375 467.1875 C463.2803847 484.933616 457.5363939 502.64937755 451.73422241 520.34857178 C447.32269236 533.81112552 442.98627895 547.29380696 438.75 560.8125 C435.03516866 572.66658243 431.20944924 584.47537605 427.25 596.25 C422.47219217 610.45871789 417.86308044 624.71695158 413.3125 639 C407.78182713 656.35789613 402.17909984 673.69009459 396.5 691 C390.57000861 709.07790186 384.72298687 727.18028837 378.94287109 745.30664062 C374.02483835 760.72533788 369.0388725 776.12038595 364 791.5 C358.60088272 807.97935717 353.27006597 824.47892378 348 841 C341.01226608 862.89895755 333.92944888 884.76544969 326.74731445 906.60144043 C324.98429849 911.96991788 323.2448448 917.34500686 321.53456116 922.73051453 C320.55088139 925.82298123 319.55494955 928.91141683 318.55679321 931.99923706 C318.11078984 933.38983088 317.67058396 934.78230086 317.23690796 936.17678833 C314.50013842 944.96984046 312.10561765 951.93662941 303.875 956.875 C300.0208818 958.38313321 296.79075892 959.12480289 292.65236974 959.1276505 C291.78251321 959.13066647 290.91265668 959.13368244 290.01644087 959.1367898 C289.06341975 959.13502033 288.11039863 959.13325086 287.12849808 959.13142776 C285.60056873 959.13450672 285.60056873 959.13450672 284.04177213 959.13764787 C280.60069176 959.14333894 277.15965116 959.14185802 273.71856689 959.14044189 C271.23768592 959.14302432 268.75680537 959.14603713 266.2759254 959.1494453 C260.1548543 959.15668361 254.03379578 959.15921862 247.91272091 959.15977435 C240.58292413 959.16068747 233.25313544 959.16735346 225.92334214 959.17412117 C208.20688963 959.19018846 190.49043798 959.19608515 172.77397949 959.20086992 C164.39507395 959.203205 156.01616911 959.20680754 147.6372641 959.2105653 C118.96244756 959.22340106 90.2876314 959.23412054 61.61281204 959.2375679 C59.81245952 959.23778954 58.012107 959.23801132 56.21175449 959.23823325 C54.40702457 959.23845389 52.60229466 959.23867438 50.79756474 959.2388947 C47.17689212 959.23933726 43.5562195 959.23978437 39.93554688 959.24023438 C39.03782919 959.24034377 38.14011151 959.24045316 37.21519026 959.24056586 C8.09973994 959.24419735 -21.01568549 959.26012073 -50.13112628 959.28342474 C-80.90479702 959.30801102 -111.67845353 959.32174017 -142.45213437 959.32293582 C-145.82914559 959.32310728 -149.20615681 959.32332271 -152.58316803 959.32357025 C-153.41469923 959.32362602 -154.24623044 959.32368179 -155.10295956 959.32373925 C-168.49448756 959.3248907 -181.88599007 959.33592066 -195.27750945 959.35045731 C-208.73310073 959.36481114 -222.18865925 959.36806558 -235.64425609 959.36001733 C-243.64106011 959.35555591 -251.63775853 959.35944212 -259.63454871 959.37525584 C-265.60145217 959.38613253 -271.5682344 959.38138102 -277.53514233 959.37048396 C-279.952378 959.3685167 -282.36962416 959.3716525 -284.78684506 959.38032833 C-288.06645942 959.39135681 -291.34553452 959.3839776 -294.62513351 959.3719368 C-295.56878997 959.37953199 -296.51244643 959.38712718 -297.48469853 959.39495254 C-305.26255638 959.33309086 -312.49337138 957.64363601 -318.3671875 952.19702148 C-320.4914685 949.33870739 -321.53058665 946.50853465 -322.75 943.16015625 C-323.00383453 942.46421356 -323.25766907 941.76827087 -323.51919556 941.05123901 C-327.0262114 931.31830578 -330.18798361 921.46602131 -333.375 911.625 C-334.07664322 909.46738947 -334.77847017 907.30983869 -335.48046875 905.15234375 C-340.70493672 889.07630726 -345.85964241 872.97805336 -350.99725342 856.87408447 C-355.93567605 841.39529795 -360.94145344 825.93992899 -366 810.5 C-371.74064721 792.97813198 -377.39714071 775.43113256 -383 757.86474609 C-387.93755165 742.38908983 -392.94246446 726.93684311 -398 711.5 C-403.73932358 693.98217202 -409.39529012 676.43945364 -414.99597168 658.87683105 C-420.34359577 642.11245914 -425.78216586 625.37938298 -431.26348877 608.65829468 C-435.97451917 594.2811939 -440.59093499 579.87801303 -445.1184082 565.44213867 C-448.23469388 555.51163019 -451.4276101 545.61401126 -454.75 535.75 C-459.11364214 522.79213848 -463.28700347 509.77750404 -467.4375 496.75 C-473.07533025 479.05827333 -478.79140033 461.39384665 -484.58139038 443.75131226 C-485.80300457 440.02893353 -487.02334895 436.30614059 -488.2434082 432.58325195 C-491.40884791 422.92731241 -494.57493497 413.27168895 -497.7731781 403.6265564 C-498.82697131 400.44460123 -499.87434362 397.2605605 -500.92001343 394.07592773 C-501.38064737 392.67869205 -501.84440267 391.28248049 -502.31167603 389.88745117 C-508.83761601 370.40217837 -508.83761601 370.40217837 -504 360 C-500.22294036 353.87207651 -495.64869945 349.82732162 -489.75 345.8125 C-488.14039281 344.68392484 -486.53102447 343.55500895 -484.921875 342.42578125 C-484.10396484 341.85811035 -483.28605469 341.29043945 -482.44335938 340.70556641 C-478.59397124 338.01853348 -474.79903947 335.25751537 -471 332.5 C-469.50028363 331.41627406 -468.0002829 330.33294152 -466.5 329.25 C-465.38625 328.445625 -465.38625 328.445625 -464.25 327.625 C-438 308.66666667 -411.75 289.70833333 -385.5 270.75 C-384.75741943 270.21366943 -384.01483887 269.67733887 -383.24975586 269.12475586 C-381.7506555 268.04211746 -380.25146938 266.9595978 -378.75219727 265.87719727 C-374.98771832 263.15920177 -371.22478096 260.43911932 -367.46484375 257.71484375 C-360.19567731 252.45118072 -352.90875115 247.21813928 -345.5625 242.0625 C-339.47874537 237.79119875 -333.47286072 233.42492354 -327.5 229 C-320.84058446 224.0664504 -314.12530093 219.22742435 -307.34155273 214.46655273 C-299.93148283 209.2625276 -292.59847977 203.9538049 -285.26611328 198.64111328 C-281.513552 195.92351827 -277.75656581 193.21205527 -274 190.5 C-272.49997854 189.41669638 -270.99997854 188.33336304 -269.5 187.25 C-248.5 172.08333333 -227.5 156.91666667 -206.5 141.75 C-205.75717773 141.2135083 -205.01435547 140.6770166 -204.24902344 140.12426758 C-202.75231299 139.04332809 -201.25556832 137.96243599 -199.75878906 136.8815918 C-195.95817363 134.1370246 -192.15819702 131.39158034 -188.359375 128.64453125 C-181.02666167 123.34317769 -173.68638156 118.05344563 -166.31835938 112.80126953 C-159.29435105 107.7901413 -152.30621493 102.72930529 -145.31445312 97.67333984 C-140.79764229 94.40770467 -136.278495 91.14530382 -131.75976562 87.88232422 C-127.95884225 85.13748856 -124.15852668 82.39181873 -120.359375 79.64453125 C-113.02666167 74.34317769 -105.68638156 69.05344563 -98.31835938 63.80126953 C-91.29435105 58.7901413 -84.30621493 53.72930529 -77.31445312 48.67333984 C-73.54406981 45.94736861 -69.77196306 43.22378466 -66 40.5 C-64.49999141 39.41667856 -62.99999142 38.33334521 -61.5 37.25 C-58.5 35.08333333 -55.5 32.91666667 -52.5 30.75 C-51.75693604 30.2132666 -51.01387207 29.6765332 -50.24829102 29.12353516 C-48.75427963 28.04468015 -47.25997804 26.96622692 -45.76538086 25.88818359 C-41.92122767 23.11462308 -38.08298597 20.33340423 -34.25390625 17.5390625 C-8.09435394 -1.51849565 -8.09435394 -1.51849565 0 0 Z " fill="#FEFEFE" transform="translate(516,33)"/>
<path d="M0 0 C7.28741767 3.22268114 13.57806549 8.05276303 19.80273438 12.96118164 C24.16360267 16.39606838 28.63966433 19.63005573 33.1875 22.8125 C39.13529976 26.97891092 45.05474072 31.17964283 50.9375 35.4375 C51.68346436 35.97737549 52.42942871 36.51725098 53.19799805 37.07348633 C54.71013427 38.16838044 56.22209699 39.26351422 57.73388672 40.35888672 C61.486448 43.07648173 65.24343419 45.78794473 69 48.5 C70.50002146 49.58330362 72.00002146 50.66663696 73.5 51.75 C74.2425 52.28625 74.985 52.8225 75.75 53.375 C100.5 71.25 100.5 71.25 102.75024414 72.87524414 C104.2493445 73.95788254 105.74853062 75.0404022 107.24780273 76.12280273 C111.01228168 78.84079823 114.77521904 81.56088068 118.53515625 84.28515625 C125.80432269 89.54881928 133.09124885 94.78186072 140.4375 99.9375 C147.34034679 104.78387201 154.13476019 109.76606348 160.91162109 114.78662109 C166.77094885 119.1181551 172.6943357 123.34780111 178.65844727 127.53344727 C186.06851717 132.7374724 193.40152023 138.0461951 200.73388672 143.35888672 C204.486448 146.07648173 208.24343419 148.78794473 212 151.5 C213.50002146 152.58330362 215.00002146 153.66663696 216.5 154.75 C217.2425 155.28625 217.985 155.8225 218.75 156.375 C279.49999999 200.24999999 279.49999999 200.24999999 281.75097656 201.87573242 C283.24768701 202.95667191 284.74443168 204.03756401 286.24121094 205.1184082 C290.04182637 207.8629754 293.84180298 210.60841966 297.640625 213.35546875 C304.41540742 218.25345334 311.19258102 223.14744088 318 228 C325.58659358 233.40798119 333.13590141 238.86727127 340.68554688 244.32666016 C344.45593019 247.05263139 348.22803694 249.77621534 352 252.5 C353.50000859 253.58332144 355.00000858 254.66665479 356.5 255.75 C357.2425 256.28625 357.985 256.8225 358.75 257.375 C383.5 275.25 383.5 275.25 385.75097656 276.87573242 C387.24768701 277.95667191 388.74443168 279.03756401 390.24121094 280.1184082 C394.04182637 282.8629754 397.84180298 285.60841966 401.640625 288.35546875 C408.41540742 293.25345334 415.19258102 298.14744088 422 303 C429.58659358 308.40798119 437.13590141 313.86727127 444.68554688 319.32666016 C447.70988581 321.51324445 450.73533712 323.69828591 453.76098633 325.88305664 C455.25059568 326.9588044 456.74001707 328.03481247 458.22924805 329.11108398 C462.0879883 331.89947366 465.94973864 334.68354891 469.81640625 337.4609375 C473.59542511 340.17571003 477.3620169 342.9070437 481.12353516 345.64599609 C482.70819037 346.78943844 484.31115009 347.90744926 485.91796875 349.01953125 C492.51976881 353.74142174 497.4778405 359.95338109 499.1875 368.0625 C499.30756996 372.38946574 498.22814474 376.21510923 496.9765625 380.3125 C496.64577446 381.41477684 496.64577446 381.41477684 496.30830383 382.5393219 C493.45147144 391.95653952 490.35528792 401.29829212 487.27340698 410.64364624 C485.37881 416.3904786 483.49367388 422.14040913 481.609375 427.890625 C481.03043739 429.65716682 481.03043739 429.65716682 480.43980408 431.45939636 C476.54843426 443.35053442 472.73683574 455.26669928 468.9375 467.1875 C463.2803847 484.933616 457.5363939 502.64937755 451.73422241 520.34857178 C447.32269236 533.81112552 442.98627895 547.29380696 438.75 560.8125 C435.03516866 572.66658243 431.20944924 584.47537605 427.25 596.25 C422.47219217 610.45871789 417.86308044 624.71695158 413.3125 639 C407.78182713 656.35789613 402.17909984 673.69009459 396.5 691 C390.57000861 709.07790186 384.72298687 727.18028837 378.94287109 745.30664062 C374.02483835 760.72533788 369.0388725 776.12038595 364 791.5 C358.60088272 807.97935717 353.27006597 824.47892378 348 841 C341.01226608 862.89895755 333.92944888 884.76544969 326.74731445 906.60144043 C324.98429849 911.96991788 323.2448448 917.34500686 321.53456116 922.73051453 C320.55088139 925.82298123 319.55494955 928.91141683 318.55679321 931.99923706 C318.11078984 933.38983088 317.67058396 934.78230086 317.23690796 936.17678833 C314.50013842 944.96984046 312.10561765 951.93662941 303.875 956.875 C300.0208818 958.38313321 296.79075892 959.12480289 292.65236974 959.1276505 C291.78251321 959.13066647 290.91265668 959.13368244 290.01644087 959.1367898 C289.06341975 959.13502033 288.11039863 959.13325086 287.12849808 959.13142776 C285.60056873 959.13450672 285.60056873 959.13450672 284.04177213 959.13764787 C280.60069176 959.14333894 277.15965116 959.14185802 273.71856689 959.14044189 C271.23768592 959.14302432 268.75680537 959.14603713 266.2759254 959.1494453 C260.1548543 959.15668361 254.03379578 959.15921862 247.91272091 959.15977435 C240.58292413 959.16068747 233.25313544 959.16735346 225.92334214 959.17412117 C208.20688963 959.19018846 190.49043798 959.19608515 172.77397949 959.20086992 C164.39507395 959.203205 156.01616911 959.20680754 147.6372641 959.2105653 C118.96244756 959.22340106 90.2876314 959.23412054 61.61281204 959.2375679 C59.81245952 959.23778954 58.012107 959.23801132 56.21175449 959.23823325 C54.40702457 959.23845389 52.60229466 959.23867438 50.79756474 959.2388947 C47.17689212 959.23933726 43.5562195 959.23978437 39.93554688 959.24023438 C39.03782919 959.24034377 38.14011151 959.24045316 37.21519026 959.24056586 C8.09973994 959.24419735 -21.01568549 959.26012073 -50.13112628 959.28342474 C-80.90479702 959.30801102 -111.67845353 959.32174017 -142.45213437 959.32293582 C-145.82914559 959.32310728 -149.20615681 959.32332271 -152.58316803 959.32357025 C-153.41469923 959.32362602 -154.24623044 959.32368179 -155.10295956 959.32373925 C-168.49448756 959.3248907 -181.88599007 959.33592066 -195.27750945 959.35045731 C-208.73310073 959.36481114 -222.18865925 959.36806558 -235.64425609 959.36001733 C-243.64106011 959.35555591 -251.63775853 959.35944212 -259.63454871 959.37525584 C-265.60145217 959.38613253 -271.5682344 959.38138102 -277.53514233 959.37048396 C-279.952378 959.3685167 -282.36962416 959.3716525 -284.78684506 959.38032833 C-288.06645942 959.39135681 -291.34553452 959.3839776 -294.62513351 959.3719368 C-295.56878997 959.37953199 -296.51244643 959.38712718 -297.48469853 959.39495254 C-305.26255638 959.33309086 -312.49337138 957.64363601 -318.3671875 952.19702148 C-320.4914685 949.33870739 -321.53058665 946.50853465 -322.75 943.16015625 C-323.00383453 942.46421356 -323.25766907 941.76827087 -323.51919556 941.05123901 C-327.0262114 931.31830578 -330.18798361 921.46602131 -333.375 911.625 C-334.07664322 909.46738947 -334.77847017 907.30983869 -335.48046875 905.15234375 C-340.70493672 889.07630726 -345.85964241 872.97805336 -350.99725342 856.87408447 C-355.93567605 841.39529795 -360.94145344 825.93992899 -366 810.5 C-371.74064721 792.97813198 -377.39714071 775.43113256 -383 757.86474609 C-387.93755165 742.38908983 -392.94246446 726.93684311 -398 711.5 C-403.73932358 693.98217202 -409.39529012 676.43945364 -414.99597168 658.87683105 C-420.34359577 642.11245914 -425.78216586 625.37938298 -431.26348877 608.65829468 C-435.97451917 594.2811939 -440.59093499 579.87801303 -445.1184082 565.44213867 C-448.23469388 555.51163019 -451.4276101 545.61401126 -454.75 535.75 C-459.11364214 522.79213848 -463.28700347 509.77750404 -467.4375 496.75 C-473.07533025 479.05827333 -478.79140033 461.39384665 -484.58139038 443.75131226 C-485.80300457 440.02893353 -487.02334895 436.30614059 -488.2434082 432.58325195 C-491.40884791 422.92731241 -494.57493497 413.27168895 -497.7731781 403.6265564 C-498.82697131 400.44460123 -499.87434362 397.2605605 -500.92001343 394.07592773 C-501.38064737 392.67869205 -501.84440267 391.28248049 -502.31167603 389.88745117 C-508.83761601 370.40217837 -508.83761601 370.40217837 -504 360 C-500.22294036 353.87207651 -495.64869945 349.82732162 -489.75 345.8125 C-488.14039281 344.68392484 -486.53102447 343.55500895 -484.921875 342.42578125 C-484.10396484 341.85811035 -483.28605469 341.29043945 -482.44335938 340.70556641 C-478.59397124 338.01853348 -474.79903947 335.25751537 -471 332.5 C-469.50028363 331.41627406 -468.0002829 330.33294152 -466.5 329.25 C-465.38625 328.445625 -465.38625 328.445625 -464.25 327.625 C-438 308.66666667 -411.75 289.70833333 -385.5 270.75 C-384.75741943 270.21366943 -384.01483887 269.67733887 -383.24975586 269.12475586 C-381.7506555 268.04211746 -380.25146938 266.9595978 -378.75219727 265.87719727 C-374.98771832 263.15920177 -371.22478096 260.43911932 -367.46484375 257.71484375 C-360.19567731 252.45118072 -352.90875115 247.21813928 -345.5625 242.0625 C-339.47874537 237.79119875 -333.47286072 233.42492354 -327.5 229 C-320.84058446 224.0664504 -314.12530093 219.22742435 -307.34155273 214.46655273 C-299.93148283 209.2625276 -292.59847977 203.9538049 -285.26611328 198.64111328 C-281.513552 195.92351827 -277.75656581 193.21205527 -274 190.5 C-272.49997854 189.41669638 -270.99997854 188.33336304 -269.5 187.25 C-248.5 172.08333333 -227.5 156.91666667 -206.5 141.75 C-205.75717773 141.2135083 -205.01435547 140.6770166 -204.24902344 140.12426758 C-202.75231299 139.04332809 -201.25556832 137.96243599 -199.75878906 136.8815918 C-195.95817363 134.1370246 -192.15819702 131.39158034 -188.359375 128.64453125 C-181.02666167 123.34317769 -173.68638156 118.05344563 -166.31835938 112.80126953 C-159.29435105 107.7901413 -152.30621493 102.72930529 -145.31445312 97.67333984 C-140.79764229 94.40770467 -136.278495 91.14530382 -131.75976562 87.88232422 C-127.95884225 85.13748856 -124.15852668 82.39181873 -120.359375 79.64453125 C-113.02666167 74.34317769 -105.68638156 69.05344563 -98.31835938 63.80126953 C-91.29435105 58.7901413 -84.30621493 53.72930529 -77.31445312 48.67333984 C-73.54406981 45.94736861 -69.77196306 43.22378466 -66 40.5 C-64.49999141 39.41667856 -62.99999142 38.33334521 -61.5 37.25 C-58.5 35.08333333 -55.5 32.91666667 -52.5 30.75 C-51.75693604 30.2132666 -51.01387207 29.6765332 -50.24829102 29.12353516 C-48.75427963 28.04468015 -47.25997804 26.96622692 -45.76538086 25.88818359 C-41.92122767 23.11462308 -38.08298597 20.33340423 -34.25390625 17.5390625 C-8.09435394 -1.51849565 -8.09435394 -1.51849565 0 0 Z M-13.125 53.1875 C-14.56130527 54.29452059 -15.99885219 55.39993167 -17.4375 56.50390625 C-18.18515625 57.08027832 -18.9328125 57.65665039 -19.703125 58.25048828 C-23.45993219 61.11201893 -27.29001178 63.86960241 -31.125 66.625 C-31.88441895 67.1718042 -32.64383789 67.7186084 -33.42626953 68.28198242 C-38.50241447 71.93315833 -43.58964597 75.56877317 -48.68115234 79.19848633 C-55.70550852 84.2094345 -62.69364103 89.27059054 -69.68554688 94.32666016 C-74.20235771 97.59229533 -78.721505 100.85469618 -83.24023438 104.11767578 C-87.04115775 106.86251144 -90.84147332 109.60818127 -94.640625 112.35546875 C-101.97333833 117.65682231 -109.31361844 122.94655437 -116.68164062 128.19873047 C-123.70564895 133.2098587 -130.69378507 138.27069471 -137.68554688 143.32666016 C-142.20235771 146.59229533 -146.721505 149.85469618 -151.24023438 153.11767578 C-155.04115775 155.86251144 -158.84147332 158.60818127 -162.640625 161.35546875 C-169.97333833 166.65682231 -177.31361844 171.94655437 -184.68164062 177.19873047 C-191.70564895 182.2098587 -198.69378507 187.27069471 -205.68554688 192.32666016 C-210.20235771 195.59229533 -214.721505 198.85469618 -219.24023438 202.11767578 C-223.04115775 204.86251144 -226.84147332 207.60818127 -230.640625 210.35546875 C-237.97333833 215.65682231 -245.31361844 220.94655437 -252.68164062 226.19873047 C-259.70564895 231.2098587 -266.69378507 236.27069471 -273.68554688 241.32666016 C-277.45593019 244.05263139 -281.22803694 246.77621534 -285 249.5 C-286.50000859 250.58332144 -288.00000858 251.66665479 -289.5 252.75 C-298.5 259.25 -307.5 265.75 -316.5 272.25 C-317.6142334 273.05473755 -317.6142334 273.05473755 -318.75097656 273.87573242 C-320.24768701 274.95667191 -321.74443168 276.03756401 -323.24121094 277.1184082 C-327.04182637 279.8629754 -330.84180298 282.60841966 -334.640625 285.35546875 C-341.97333833 290.65682231 -349.31361844 295.94655437 -356.68164062 301.19873047 C-363.70564895 306.2098587 -370.69378507 311.27069471 -377.68554688 316.32666016 C-382.20235771 319.59229533 -386.721505 322.85469618 -391.24023438 326.11767578 C-395.04115775 328.86251144 -398.84147332 331.60818127 -402.640625 334.35546875 C-409.97036718 339.65467424 -417.30713176 344.94304209 -424.67285156 350.19213867 C-430.22911192 354.1553175 -435.75830513 358.15570199 -441.28857422 362.1550293 C-448.17278504 367.13091493 -455.08122773 372.07232136 -462 377 C-460.06322581 385.26927983 -457.687478 393.28011605 -454.9375 401.3125 C-454.130193 403.70268043 -453.32425633 406.09332405 -452.51953125 408.484375 C-452.10396973 409.71865234 -451.6884082 410.95292969 -451.26025391 412.22460938 C-449.16913979 418.48903956 -447.14547041 424.77500611 -445.125 431.0625 C-444.70690576 432.36190978 -444.28877394 433.66130747 -443.87060547 434.96069336 C-443.0163127 437.61606594 -442.16252103 440.271599 -441.30908203 442.92724609 C-439.06449874 449.91121182 -436.81650504 456.89406893 -434.5625 463.875 C-434.33636017 464.57556519 -434.11022034 465.27613037 -433.87722778 465.9979248 C-429.89980095 478.30997743 -425.82967067 490.59009453 -421.70336914 502.85302734 C-419.34711416 509.8681973 -417.08615615 516.90338447 -414.93139648 523.9831543 C-413.53216783 528.51533478 -412.01931465 533.00695463 -410.5 537.5 C-408.24541668 544.21666772 -406.05636858 550.94341169 -403.99609375 557.72265625 C-399.40591262 572.82525221 -394.43082438 587.79504315 -389.40234375 602.75610352 C-386.85709744 610.34066306 -384.366006 617.93535157 -381.99742126 625.57717896 C-379.21407316 634.5560505 -376.34691424 643.50833936 -373.48876953 652.46362305 C-372.50057421 655.56070038 -371.51393092 658.65826944 -370.52734375 661.75585938 C-367.46106571 671.37245291 -364.36614423 680.97577923 -361.15380859 690.54467773 C-359.30388193 696.08467181 -357.51414487 701.64406697 -355.72235107 707.20306396 C-354.53933213 710.87292859 -353.35376114 714.54196823 -352.16796875 718.2109375 C-351.91577576 718.9912735 -351.66358276 719.7716095 -351.40374756 720.57559204 C-348.54352855 729.42005784 -345.66192881 738.25754795 -342.78106689 747.0953064 C-337.49636472 763.30807492 -332.23842488 779.52878659 -327.03564453 795.76806641 C-325.23481315 801.38791689 -323.43022052 807.00655808 -321.625 812.625 C-321.25777832 813.76791504 -320.89055664 814.91083008 -320.51220703 816.08837891 C-317.07723333 826.77216829 -313.62317572 837.44975309 -310.16552734 848.1262207 C-307.87927635 855.18645193 -305.59650494 862.24776045 -303.32421875 869.3125 C-302.67711211 871.32371576 -302.0299561 873.33491562 -301.38275146 875.34609985 C-300.96341581 876.64926822 -300.5441844 877.95247013 -300.12506104 879.25570679 C-297.17679685 888.41895857 -294.17807989 897.56357119 -291.06738281 906.6730957 C-290.67631348 907.82878052 -290.67631348 907.82878052 -290.27734375 909.0078125 C-290.05296631 909.66410645 -289.82858887 910.32040039 -289.59741211 910.99658203 C-288.91317581 913.29116441 -288.46958605 915.65206973 -288 918 C-100.56 918 86.88 918 280 918 C281.65 912.39 283.3 906.78 285 901 C286.2959562 896.84744669 287.60124858 892.70178608 288.9375 888.5625 C289.28321045 887.48669678 289.6289209 886.41089355 289.98510742 885.30249023 C292.11813873 878.68203934 294.29519112 872.07782022 296.51074219 865.48461914 C300.38166131 853.92625703 304.08799389 842.31297249 307.83187866 830.71299744 C309.41538805 825.80743417 311.00296515 820.90320839 312.59375 816 C316.77827937 803.09759357 320.94367805 790.18934174 325.07421875 777.26953125 C325.42882675 776.16044403 325.78343475 775.05135681 326.14878845 773.90866089 C327.91095742 768.39600484 329.67165502 762.88288363 331.43041992 757.36914062 C334.51800268 747.69719977 337.62855185 738.03653758 340.859375 728.41137695 C342.88589122 722.35047988 344.84757068 716.26857839 346.8125 710.1875 C347.03666595 709.49488068 347.26083191 708.80226135 347.49179077 708.08865356 C350.7064648 698.15540668 353.89223691 688.21313209 357.0625 678.265625 C357.77237106 676.04011773 358.48225065 673.81461318 359.19213867 671.58911133 C360.57812986 667.24354688 361.96056526 662.89687235 363.34106445 658.54956055 C366.43297504 648.83843447 369.55334914 639.15074085 373.03840637 629.57225037 C374.71927955 624.92961264 376.14946767 620.24605352 377.5 615.5 C379.14493837 609.75456762 380.96503437 604.11955144 383 598.5 C385.01216541 592.94219672 386.82210905 587.37325106 388.4375 581.6875 C390.48160049 574.49974796 392.89767067 567.4842907 395.41162109 560.44873047 C397.54606576 554.42650581 399.41053291 548.36712101 401.15625 542.22265625 C402.58851824 537.24248172 404.236391 532.37195593 406 527.5 C408.00294955 521.96180015 409.81887762 516.41252268 411.4375 510.75 C413.1902886 504.63485545 415.09214738 498.59034995 417.125 492.5625 C420.25681793 483.27208202 423.29983561 473.95456652 426.3125 464.625 C426.54786469 463.89641785 426.78322937 463.16783569 427.02572632 462.41717529 C428.68548078 457.2786529 430.34307159 452.13943425 432 447 C432.42609973 445.67854591 432.85220627 444.35709401 433.27832031 443.03564453 C433.48238495 442.40275513 433.68644958 441.76986572 433.896698 441.11779785 C434.50701238 439.22513752 435.11751974 437.33253942 435.72802734 435.43994141 C436.53169381 432.9465313 437.33411119 430.45271824 438.13525391 427.95849609 C440.22048828 421.47488941 442.32596538 414.99898214 444.46910095 408.53425598 C445.60272688 405.11255702 446.72987112 401.68873689 447.85671997 398.26480103 C448.40772995 396.59687399 448.96195864 394.93000662 449.51950073 393.26425171 C450.29576115 390.94435772 451.06107974 388.62111236 451.82421875 386.296875 C452.06009705 385.60151138 452.29597534 384.90614777 452.53900146 384.18971252 C453.87426903 380.1346426 453.87426903 380.1346426 453 376 C451.31916036 374.54763649 451.31916036 374.54763649 449.203125 373.21484375 C448.41599121 372.68947021 447.62885742 372.16409668 446.81787109 371.62280273 C445.5467749 370.78857788 445.5467749 370.78857788 444.25 369.9375 C437.38773381 365.34543323 430.78366116 360.60926981 424.28515625 355.515625 C419.85082663 352.07714636 415.24026059 348.88843694 410.64575195 345.66943359 C405.42117384 342.00798224 400.2306688 338.30314679 395.0625 334.5625 C394.31653564 334.02262451 393.57057129 333.48274902 392.80200195 332.92651367 C391.28986573 331.83161956 389.77790301 330.73648578 388.26611328 329.64111328 C384.513552 326.92351827 380.75656581 324.21205527 377 321.5 C375.49997854 320.41669638 373.99997854 319.33336304 372.5 318.25 C371.7575 317.71375 371.015 317.1775 370.25 316.625 C345.5 298.75 345.5 298.75 343.24902344 297.12426758 C341.75231299 296.04332809 340.25556832 294.96243599 338.75878906 293.8815918 C334.95817363 291.1370246 331.15819702 288.39158034 327.359375 285.64453125 C320.58459258 280.74654666 313.80741898 275.85255912 307 271 C299.41340642 265.59201881 291.86409859 260.13272873 284.31445312 254.67333984 C280.54406981 251.94736861 276.77196306 249.22378466 273 246.5 C271.49999141 245.41667856 269.99999142 244.33334521 268.5 243.25 C267.7575 242.71375 267.015 242.1775 266.25 241.625 C259.49999999 236.75 259.49999999 236.75 257.24902344 235.12426758 C255.75231299 234.04332809 254.25556832 232.96243599 252.75878906 231.8815918 C248.95817363 229.1370246 245.15819702 226.39158034 241.359375 223.64453125 C234.58459258 218.74654666 227.80741898 213.85255912 221 209 C213.41340642 203.59201881 205.86409859 198.13272873 198.31445312 192.67333984 C194.54406983 189.94736863 190.77198481 187.22375451 187 184.5 C182.45224422 181.2160604 177.90490626 177.93154955 173.359375 174.64453125 C166.58459258 169.74654666 159.80741898 164.85255912 153 160 C145.41340642 154.59201881 137.86409859 149.13272873 130.31445312 143.67333984 C126.54406981 140.94736861 122.77196306 138.22378466 119 135.5 C117.49999141 134.41667856 115.99999142 133.33334521 114.5 132.25 C113.7575 131.71375 113.015 131.1775 112.25 130.625 C105.49999999 125.75 105.49999999 125.75 103.24902344 124.12426758 C101.75231299 123.04332809 100.25556832 121.96243599 98.75878906 120.8815918 C94.95817363 118.1370246 91.15819702 115.39158034 87.359375 112.64453125 C80.58459258 107.74654666 73.80741898 102.85255912 67 98 C59.41340642 92.59201881 51.86409859 87.13272873 44.31445312 81.67333984 C41.29002213 79.486689 38.26446744 77.30159654 35.23876953 75.11669922 C33.75005991 74.04164632 32.2614526 72.96645172 30.77294922 71.89111328 C26.89975054 69.09309762 23.02515948 66.29703867 19.1484375 63.50390625 C18.34921875 62.92769531 17.55 62.35148437 16.7265625 61.7578125 C15.21398684 60.66735098 13.70099941 59.57746029 12.1875 58.48828125 C11.49398438 57.988125 10.80046875 57.48796875 10.0859375 56.97265625 C9.07418457 56.2458667 9.07418457 56.2458667 8.04199219 55.50439453 C6.62214984 54.45835573 5.22288674 53.38403845 3.84082031 52.28857422 C3.14311523 51.73830566 2.44541016 51.18803711 1.7265625 50.62109375 C1.10604004 50.11892334 0.48551758 49.61675293 -0.15380859 49.09936523 C-5.45139493 45.94477237 -9.09756795 50.00194386 -13.125 53.1875 Z " fill="#A50B15" transform="translate(516,33)"/>
<path d="M0 0 C3 1 3 1 4.07397461 2.97021484 C5.33256756 7.08810004 6.0676953 11.24024723 6.81640625 15.4765625 C8.67770576 25.60952541 10.90944747 35.62383781 13.28967285 45.64596558 C14.40483256 50.34368352 15.50435942 55.04506638 16.60546875 59.74609375 C16.81861725 60.65470657 17.03176575 61.5633194 17.25137329 62.49946594 C19.86089845 73.6418371 22.27595553 84.82268784 24.63671875 96.02001953 C28.67639048 115.1646777 33.0152074 134.22920544 37.44224548 153.28721619 C38.95327912 159.79277361 40.4531549 166.30079536 41.9375 172.8125 C42.12449463 173.6276709 42.31148926 174.4428418 42.50415039 175.28271484 C43.76786246 180.83644341 44.90438119 186.4108595 46 192 C48.67395449 205.57946676 51.54501202 219.11782211 54.5625 232.625 C54.85894409 233.97416504 54.85894409 233.97416504 55.16137695 235.35058594 C56.44348677 241.03265153 58.04784161 246.51190388 60 252 C64.27454004 250.48426254 67.90423018 248.26379166 71.6875 245.8125 C79.02463579 241.13926024 86.51670324 236.76427531 94.0625 232.4375 C104.32948683 226.55075243 104.32948683 226.55075243 114.5 220.5 C122.36675269 215.73854442 130.34266059 211.16964915 138.31323242 206.5847168 C144.49852502 203.0251674 150.67057375 199.44634213 156.8125 195.8125 C162.90357038 192.21008608 169.03643221 188.68640733 175.1875 185.1875 C182.39413533 181.08651558 189.55725022 176.91985632 196.6875 172.6875 C208.06290134 165.9396401 219.50088756 159.30446539 230.98095703 152.73632812 C233.79782176 151.11627783 236.60131773 149.47535644 239.40234375 147.828125 C240.99704676 146.90564629 242.59207445 145.98372851 244.1875 145.0625 C244.88713867 144.64331299 245.58677734 144.22412598 246.30761719 143.79223633 C250.70350712 141.28562767 253.80982 140.56243619 259 141 C260.18717431 144.50929692 260.01895446 144.95645597 258.41015625 148.65234375 C257.64115065 150.08806762 256.85768004 151.51610583 256.0625 152.9375 C255.44604614 154.06986084 255.44604614 154.06986084 254.81713867 155.22509766 C251.73577137 160.82876813 248.46419465 166.29130335 245.01953125 171.6796875 C243.31999687 174.47389296 241.74395333 177.28363437 240.19140625 180.16015625 C236.99702655 186.06146 233.5919551 191.81805415 230.125 197.5625 C229.15759888 199.16955811 229.15759888 199.16955811 228.1706543 200.80908203 C218.28461704 217.19805668 208.25854202 233.50095296 198.00830078 249.66479492 C194.72870183 254.83681565 191.50327707 260.03912541 188.3046875 265.26171875 C185.17135511 270.36024256 181.98708857 275.42711346 178.8125 280.5 C176.84782932 283.6430323 174.8835556 286.7863123 172.91943359 289.9296875 C171.67851482 291.91465246 170.43671326 293.89906594 169.19384766 295.8828125 C163.58158626 304.84475929 157.99718937 313.81795293 152.75 323 C152.37891113 323.64066406 152.00782227 324.28132813 151.62548828 324.94140625 C149.73447587 328.30724478 148.65803475 331.21589795 148 335 C151.52034543 335.77307208 155.04136986 336.54301069 158.5625 337.3125 C159.53380859 337.52583984 160.50511719 337.73917969 161.50585938 337.95898438 C177.32924017 341.41229549 193.24476404 344.40909556 209.14755249 347.46981812 C215.5193253 348.69663778 221.89048937 349.92661184 228.26171875 351.15625 C238.65325631 353.16175462 238.65325631 353.16175462 249.04541016 355.1640625 C267.78645171 358.77328505 286.50604645 362.4678222 305.1875 366.375 C306.00326508 366.5446225 306.81903015 366.714245 307.65951538 366.88900757 C309.95486418 367.36731139 312.249078 367.85069507 314.54296875 368.3359375 C315.21283813 368.47517136 315.88270752 368.61440521 316.57287598 368.75785828 C320.48287672 369.59313853 324.28030234 370.52166312 328 372 C328.875 374.125 328.875 374.125 329 376 C326.0798528 378.37660684 323.3289163 379.8240842 319.8203125 381.171875 C318.76585937 381.58115234 317.71140625 381.99042969 316.625 382.41210938 C315.47 382.85361328 314.315 383.29511719 313.125 383.75 C311.24886378 384.47685404 309.37273968 385.20373994 307.49700928 385.93164062 C306.15212995 386.45323477 304.80694727 386.97404734 303.46148682 387.49414062 C295.77203651 390.46761811 288.10667663 393.50167805 280.44055176 396.53466797 C276.36995 398.14474743 272.29827393 399.75210426 268.2265625 401.359375 C267.43584351 401.67152954 266.64512451 401.98368408 265.83044434 402.30529785 C255.32673788 406.45099502 244.81551979 410.57753401 234.30371094 414.70263672 C230.97525045 416.00971912 227.64766205 417.31899861 224.3203125 418.62890625 C214.14096152 422.63491674 203.95821434 426.63158315 193.76171875 430.59375 C192.96802887 430.90217331 192.17433899 431.21059662 191.3565979 431.52836609 C187.47003784 433.03827878 183.58300157 434.54695176 179.6953125 436.05395508 C162.25900815 442.80870053 162.25900815 442.80870053 145 450 C146.26047809 454.11494597 147.78787332 457.67675049 149.94921875 461.39453125 C150.5421875 462.41933594 151.13515625 463.44414063 151.74609375 464.5 C152.38675781 465.593125 153.02742188 466.68625 153.6875 467.8125 C154.36227014 468.97248704 155.03674409 470.13264641 155.7109375 471.29296875 C160.84501975 480.10898241 166.09286534 488.85592981 171.36523438 497.58984375 C175.89702114 505.11289331 180.31562191 512.69554535 184.6875 520.3125 C189.18352394 528.14531664 193.7199153 535.94802789 198.375 543.6875 C198.85694824 544.49171387 199.33889648 545.29592773 199.83544922 546.12451172 C202.10891742 549.9068428 204.41160672 553.66524003 206.77734375 557.390625 C207.42147217 558.41990112 207.42147217 558.41990112 208.07861328 559.4699707 C208.87309672 560.73683696 209.6792364 561.99650523 210.49951172 563.24682617 C212.24224845 566.04305656 213.03912256 567.57758978 212.73046875 570.91015625 C212.48941406 571.59980469 212.24835937 572.28945313 212 573 C207.85253638 572.43267807 205.20790407 571.08751959 201.75390625 568.75390625 C200.75931396 568.08681641 199.76472168 567.41972656 198.73999023 566.73242188 C197.69141846 566.01634766 196.64284668 565.30027344 195.5625 564.5625 C194.47718994 563.82966797 193.39187988 563.09683594 192.27368164 562.34179688 C185.69382807 557.88341363 179.18087771 553.34728558 172.7421875 548.6875 C167.72451484 545.06504033 162.64052453 541.53706451 157.5625 538 C156.57056641 537.30640381 155.57863281 536.61280762 154.55664062 535.89819336 C150.21713994 532.87552893 145.87489345 529.88333199 141.3984375 527.06640625 C140.71966553 526.63521484 140.04089355 526.20402344 139.34155273 525.75976562 C137.59041775 524.65865446 135.82511645 523.58015765 134.05859375 522.50390625 C126.66529981 516.45141402 122.63588119 506.94258134 118.125 498.6875 C116.80226136 496.2836173 115.47572796 493.88184068 114.1484375 491.48046875 C113.80921265 490.86626068 113.46998779 490.25205261 113.1204834 489.61923218 C109.72147819 483.47563944 106.25445509 477.37165559 102.76727295 471.277771 C101.75587671 469.51027006 100.74630645 467.74173469 99.73681641 465.97314453 C96.7134131 460.6879929 93.66798148 455.41953147 90.546875 450.19140625 C90.02770508 449.31613281 89.50853516 448.44085937 88.97363281 447.5390625 C88.0242152 445.94348725 87.06588108 444.35316721 86.09667969 442.76953125 C82.06568484 435.98313306 82.06568484 435.98313306 83 432 C84.51953125 430.21875 84.51953125 430.21875 86.8125 428.5 C87.72 427.81679688 88.6275 427.13359375 89.5625 426.4296875 C94.58764156 422.83725882 99.71116578 419.38328587 104.82861328 415.92431641 C110.64075456 411.98235659 116.19465944 407.83964178 121.7109375 403.4921875 C126.29254786 399.94781476 131.1368848 396.76117209 135.97338867 393.57763672 C137.68250648 392.43373731 139.3463547 391.22272105 141 390 C141 389.34 141 388.68 141 388 C134.21199556 385.85641965 127.37695179 384.50364995 120.375 383.3125 C110.20870665 381.55881666 100.20767438 379.24655757 90.1875 376.8125 C89.44046814 376.63224274 88.69343628 376.45198547 87.92376709 376.26626587 C85.79563162 375.75129423 83.6690201 375.23053365 81.54296875 374.70703125 C80.30571045 374.4025708 79.06845215 374.09811035 77.79370117 373.78442383 C75 373 75 373 74 372 C74.0647549 364.48843109 77.33863953 358.39009378 80.57391357 351.77355957 C82.28680785 348.26739814 83.95967933 344.74216458 85.63671875 341.21875 C85.98933777 340.48005676 86.34195679 339.74136353 86.70526123 338.98028564 C90.535444 330.92981488 94.18780572 322.80159663 97.80685425 314.65441895 C98.51680469 313.0563053 99.22832333 311.45888737 99.94143677 309.86218262 C100.94114848 307.62325501 101.93625354 305.38234401 102.9296875 303.140625 C103.22692215 302.4753479 103.5241568 301.8100708 103.83039856 301.12463379 C105.15357212 298.12089699 106.35987104 295.22803544 107 292 C86.95403294 303.70342507 86.95403294 303.70342507 67 315.5625 C66.20424561 316.03953369 65.40849121 316.51656738 64.58862305 317.00805664 C61.0594738 319.1310634 57.54679132 321.27441506 54.06640625 323.4765625 C53.46763672 323.85353271 52.86886719 324.23050293 52.25195312 324.61889648 C50.70622451 325.59659217 49.1672047 326.58487368 47.62890625 327.57421875 C45.02471808 328.9865942 42.91910178 329.6026631 40 330 C39.43152344 328.85402344 38.86304688 327.70804688 38.27734375 326.52734375 C32.42625747 314.95635574 27.16738085 305.47073482 14.2421875 301.05859375 C7.46661027 299.12642787 1.90447065 298.71465373 -5 300 C-5.77214844 300.11472656 -6.54429687 300.22945312 -7.33984375 300.34765625 C-16.43098966 301.94831955 -22.64612608 306.60587327 -28 314 C-29.96843994 317.62069277 -31.51497226 321.40995346 -33.09765625 325.2109375 C-33.41863281 325.943125 -33.73960937 326.6753125 -34.0703125 327.4296875 C-34.34633301 328.09210449 -34.62235352 328.75452148 -34.90673828 329.43701172 C-36 331 -36 331 -37.68676758 331.91601562 C-41.20707633 332.0438242 -43.88143182 330.47332831 -46.94140625 328.9140625 C-47.61776123 328.58139374 -48.29411621 328.24872498 -48.9909668 327.90597534 C-51.1869883 326.8230682 -53.3745547 325.72411918 -55.5625 324.625 C-57.05983387 323.88348882 -58.55780124 323.1432555 -60.05639648 322.40429688 C-63.01500057 320.94470357 -65.97118144 319.48037548 -68.92578125 318.01269531 C-74.10798704 315.44480262 -79.3281956 312.9597119 -84.5625 310.5 C-85.33988525 310.13342285 -86.11727051 309.7668457 -86.91821289 309.38916016 C-88.61141019 308.59121888 -90.30556205 307.79530334 -92 307 C-91.42343845 312.13603682 -90.23371675 316.70966636 -88.4375 321.5625 C-88.17646484 322.28356934 -87.91542969 323.00463867 -87.64648438 323.74755859 C-87.07559587 325.32215959 -86.50174381 326.89568854 -85.92529297 328.46826172 C-84.95148957 331.1327317 -83.99223013 333.80213408 -83.03515625 336.47265625 C-82.35732543 338.35697043 -81.67893688 340.24108406 -81 342.125 C-80.66492432 343.05562256 -80.32984863 343.98624512 -79.98461914 344.94506836 C-78.43773389 349.20134429 -76.85343728 353.4236986 -75.0859375 357.59375 C-74.79589844 358.28194824 -74.50585938 358.97014648 -74.20703125 359.67919922 C-73.43142789 361.49303689 -72.63449556 363.29771308 -71.8359375 365.1015625 C-71 368 -71 368 -71.45996094 370.04248047 C-73.87104892 373.10717664 -77.15830652 373.43147477 -80.8046875 374.21875 C-81.59152924 374.40214432 -82.37837097 374.58553864 -83.1890564 374.77449036 C-85.7475764 375.36615734 -88.31081102 375.93345501 -90.875 376.5 C-92.63014968 376.90011698 -94.38503306 377.30140386 -96.13964844 377.70385742 C-106.28933139 380.01707483 -116.46060569 382.21413875 -126.6875 384.16015625 C-134.16338046 385.58784175 -141.57876748 387.31498585 -149 389 C-145.69626911 392.49594796 -142.49745927 395.15587532 -138.375 397.625 C-137.81562744 397.96144531 -137.25625488 398.29789063 -136.67993164 398.64453125 C-134.79262268 399.77350322 -132.89759524 400.88841042 -131 402 C-130.33758301 402.38897461 -129.67516602 402.77794922 -128.99267578 403.17871094 C-120.9297909 407.90112276 -112.81792944 412.53758729 -104.6953125 417.15625 C-103.42128657 417.88147745 -102.14727945 418.60673794 -100.87329102 419.33203125 C-98.36523045 420.75983261 -95.85500601 422.18372812 -93.34350586 423.60546875 C-92.17815267 424.26810611 -91.01286643 424.9308612 -89.84765625 425.59375 C-88.81648682 426.17833984 -87.78531738 426.76292969 -86.72290039 427.36523438 C-85.82434326 427.90470703 -84.92578613 428.44417969 -84 429 C-83.21939209 429.44150391 -82.43878418 429.88300781 -81.63452148 430.33789062 C-80 432 -80 432 -79.44384766 434.53637695 C-80.26770244 439.66720568 -82.53496948 443.82429212 -84.8984375 448.41796875 C-85.40742584 449.42982742 -85.91641418 450.4416861 -86.44082642 451.48420715 C-88.07438465 454.72442385 -89.72456192 457.95585444 -91.375 461.1875 C-92.44767819 463.3113121 -93.51930325 465.43565644 -94.58984375 467.56054688 C-99.49931505 477.28300611 -104.47469181 486.97056908 -109.5390625 496.61328125 C-109.93378754 497.36522263 -110.32851257 498.117164 -110.73519897 498.89189148 C-111.10827179 499.59828262 -111.4813446 500.30467377 -111.86572266 501.0324707 C-112.39350311 502.0324559 -112.39350311 502.0324559 -112.9319458 503.05264282 C-114.01093916 505.01994511 -115.17197042 506.92208431 -116.34130859 508.83666992 C-116.88867676 509.88056885 -117.43604492 510.92446777 -118 512 C-117.67 512.99 -117.34 513.98 -117 515 C-111.37238593 513.15370934 -105.74757811 511.29907119 -100.125 509.4375 C-99.29866058 509.16399719 -98.47232117 508.89049438 -97.62094116 508.60870361 C-82.85484428 503.71170951 -82.85484428 503.71170951 -68.36572266 498.05639648 C-63.665596 496.10970695 -58.97216531 494.97727055 -54 494 C-54 494.99 -54 495.98 -54 497 C-55.55029297 498.51123047 -55.55029297 498.51123047 -57.7421875 500.1171875 C-58.55196045 500.71748779 -59.3617334 501.31778809 -60.19604492 501.9362793 C-61.0801001 502.57605713 -61.96415527 503.21583496 -62.875 503.875 C-63.78032471 504.54120361 -64.68564941 505.20740723 -65.6184082 505.89379883 C-68.40485207 507.93958856 -71.20123621 509.97110817 -74 512 C-75.57954619 513.15218048 -77.15898061 514.30451421 -78.73828125 515.45703125 C-88.0030671 522.19679979 -97.35078616 528.82029353 -106.72705078 535.40380859 C-108.31716413 536.52047466 -109.90662927 537.63806407 -111.49560547 538.75634766 C-121.25419611 545.6239122 -131.036018 552.43254519 -141 559 C-143.93948319 560.95536111 -146.87580064 562.91546135 -149.8125 564.875 C-151.36976617 565.91279867 -152.92705771 566.95055929 -154.484375 567.98828125 C-157.28856818 569.8575455 -160.090865 571.72957176 -162.890625 573.60546875 C-170.69901019 578.83339604 -178.5599312 583.97354972 -186.45703125 589.06640625 C-190.56546967 591.71639879 -194.66435564 594.38086951 -198.76098633 597.04907227 C-201.31485751 598.71086554 -203.87217925 600.36724932 -206.4296875 602.0234375 C-209.16144855 603.79487516 -211.87752945 605.58397025 -214.5703125 607.4140625 C-215.53710938 608.06117188 -216.50390625 608.70828125 -217.5 609.375 C-218.2940625 609.91898438 -219.088125 610.46296875 -219.90625 611.0234375 C-222 612 -222 612 -224.21875 611.8515625 C-225.10046875 611.43003906 -225.10046875 611.43003906 -226 611 C-227 608 -227 608 -225.98828125 605.3828125 C-225.43527344 604.30773437 -224.88226563 603.23265625 -224.3125 602.125 C-223.99925781 601.51551514 -223.68601562 600.90603027 -223.36328125 600.27807617 C-220.0759884 593.97509681 -216.52284297 587.82055003 -212.97241211 581.66333008 C-208.70002484 574.25309057 -204.52207463 566.7935281 -200.375 559.3125 C-200.05397308 558.73366058 -199.73294617 558.15482117 -199.40219116 557.55844116 C-196.78307355 552.83577117 -194.16737664 548.11121308 -191.55419922 543.38525391 C-186.35423882 533.98107021 -181.08490717 524.6215136 -175.73706055 515.30053711 C-171.81644309 508.45699535 -167.96432253 501.57690646 -164.125 494.6875 C-147.07056332 464.11526098 -147.07056332 464.11526098 -141.25854492 455.38378906 C-140.8432251 454.59713867 -140.42790527 453.81048828 -140 453 C-140.74165818 449.61748096 -140.74165818 449.61748096 -144.51220703 448.16577148 C-146.08926664 447.47315766 -147.67159632 446.79247229 -149.2578125 446.12109375 C-150.10404678 445.75292542 -150.95028107 445.38475708 -151.82215881 445.00543213 C-154.58551098 443.80598844 -157.35510124 442.62173703 -160.125 441.4375 C-162.02818299 440.61468744 -163.93093331 439.79087339 -165.83325195 438.96606445 C-169.56465603 437.34999416 -173.29838361 435.73952037 -177.03466797 434.13476562 C-181.89005701 432.04914055 -186.73571666 429.94225079 -191.578125 427.82666016 C-194.21809261 426.67414436 -196.86059382 425.52763421 -199.50390625 424.3828125 C-203.49364789 422.65472517 -207.47988292 420.91877036 -211.46484375 419.1796875 C-227.84976119 412.04078923 -244.29830033 405.06122873 -260.77200317 398.12976074 C-272.87788885 393.03469059 -284.95754262 387.89965196 -296.94067383 382.52050781 C-301.55265215 380.46237104 -306.17605812 378.52045079 -310.90234375 376.73828125 C-311.84650146 376.37951904 -312.79065918 376.02075684 -313.76342773 375.65112305 C-315.52818994 374.98939626 -317.29957497 374.34494813 -319.07836914 373.72192383 C-321.18495062 372.93430317 -323.10038191 372.20396649 -325 371 C-326.03125 368.2734375 -326.03125 368.2734375 -326 366 C-322.50637649 364.49221341 -319.22675616 363.54537898 -315.4831543 362.88232422 C-314.3971846 362.68833038 -313.3112149 362.49433655 -312.19233704 362.29446411 C-310.43230598 361.99014969 -310.43230598 361.99014969 -308.63671875 361.6796875 C-306.78272713 361.3542244 -306.78272713 361.3542244 -304.89128113 361.02218628 C-291.91336891 358.76843839 -278.89996115 356.74506002 -265.88018799 354.74914551 C-258.86008274 353.67285122 -251.84183335 352.58459275 -244.82421875 351.4921875 C-243.78580338 351.33059647 -243.78580338 351.33059647 -242.72640991 351.16574097 C-230.83782775 349.31290459 -218.97633124 347.32672021 -207.125 345.25 C-192.99125361 342.7764276 -178.83049249 340.58452392 -164.625 338.5625 C-163.7001178 338.43049194 -162.7752356 338.29848389 -161.82232666 338.16247559 C-159.22836269 337.79376609 -156.63389428 337.42895347 -154.0390625 337.06640625 C-153.26622925 336.95742508 -152.493396 336.84844391 -151.69714355 336.73616028 C-148.77017714 336.33288667 -145.95875387 336 -143 336 C-144.98489301 329.38368997 -148.38693394 324.06594223 -152.1640625 318.3359375 C-155.57555813 313.156064 -158.84582385 307.88925188 -162.125 302.625 C-163.42967515 300.53384646 -164.73436284 298.44270074 -166.0390625 296.3515625 C-167.02374512 294.7722998 -167.02374512 294.7722998 -168.02832031 293.16113281 C-171.18187952 288.10512927 -174.3411731 283.05271341 -177.5 278 C-178.74089987 276.01433195 -179.98178524 274.02865484 -181.22265625 272.04296875 C-183.81257172 267.89896886 -186.40390854 263.75586171 -188.99609375 259.61328125 C-189.65609375 258.55818359 -190.31609375 257.50308594 -190.99609375 256.41601562 C-192.23919994 254.42879657 -193.48265666 252.44179673 -194.7265625 250.45507812 C-202.44735818 238.11048009 -210.02779655 225.68193432 -217.57275391 213.22949219 C-224.95903716 201.04128356 -232.38881305 188.88523258 -240.0625 176.875 C-241.22005208 175.05989583 -242.37760417 173.24479167 -243.53515625 171.4296875 C-245.28444181 168.68801879 -247.0341169 165.94660369 -248.78515625 163.20605469 C-252.53146356 157.33396445 -256.23468603 151.43838927 -259.875 145.5 C-260.3596875 144.71625 -260.844375 143.9325 -261.34375 143.125 C-261.80523437 142.3721875 -262.26671875 141.619375 -262.7421875 140.84375 C-263.1532373 140.17537109 -263.56428711 139.50699219 -263.98779297 138.81835938 C-265 137 -265 137 -266 134 C-265.0625 131.8125 -265.0625 131.8125 -264 130 C-243.96657448 132.47471727 -221.75039169 151.70517217 -204.85009766 162.22851562 C-191.85258209 170.3071496 -178.82642313 178.34064313 -165.6875 186.1875 C-151.30403663 194.77955878 -137.09941697 203.65455598 -122.94848633 212.62329102 C-116.97237929 216.4037376 -110.95358332 220.10935309 -104.91162109 223.78344727 C-99.96528523 226.79269251 -95.03977886 229.83354456 -90.1237793 232.89208984 C-82.55825444 237.59656327 -74.97391395 242.26546855 -67.3125 246.8125 C-66.59956787 247.23926025 -65.88663574 247.66602051 -65.15209961 248.10571289 C-61.80387123 250.26418377 -61.80387123 250.26418377 -58 251 C-55.84449101 245.12133913 -54.53181577 239.56593989 -53.5859375 233.38671875 C-52.94001822 229.6533053 -52.08647829 225.9907356 -51.1875 222.3125 C-49.13265339 213.8614156 -47.42475704 205.35142082 -45.75073242 196.81762695 C-44.75849089 191.763912 -43.74285774 186.72175426 -42.60742188 181.69824219 C-41.94912187 178.77399314 -41.3050938 175.84670959 -40.66235352 172.91900635 C-39.97582083 169.79364722 -39.28589834 166.66903961 -38.59594727 163.54443359 C-38.24115159 161.93526876 -37.88730581 160.32589418 -37.53442383 158.71630859 C-35.76552512 150.6513158 -33.95840592 142.63622387 -31.71704102 134.68701172 C-30.24591827 129.17418335 -29.11583032 123.58124746 -27.9375 118 C-27.68162109 116.80632812 -27.42574219 115.61265625 -27.16210938 114.3828125 C-26.00693839 108.95439976 -24.89537494 103.52731293 -23.92578125 98.0625 C-23.20040809 93.98762053 -22.30666565 90.00420667 -21.25 86 C-17.14174305 70.01882102 -13.77202673 53.84478566 -10.4375 37.6875 C-9.62929907 33.79075906 -8.81695691 29.89491474 -8 26 C-7.78456543 24.97277832 -7.56913086 23.94555664 -7.34716797 22.88720703 C-6.70157003 19.83878762 -6.04068192 16.79408955 -5.375 13.75 C-5.18091553 12.82662842 -4.98683105 11.90325684 -4.78686523 10.9519043 C-4.59680908 10.09636963 -4.40675293 9.24083496 -4.2109375 8.359375 C-3.96802979 7.23740723 -3.96802979 7.23740723 -3.72021484 6.09277344 C-2.8798124 3.65076337 -1.6345312 1.98250647 0 0 Z " fill="#A50B15" transform="translate(515,249)"/>
<path d="M0 0 C10.26300626 7.70802009 17.11978414 18.85299601 20.98046875 31.03515625 C21.33367187 32.08960938 21.686875 33.1440625 22.05078125 34.23046875 C25.80158468 49.5803954 22.8308163 65.73802267 15.23046875 79.41015625 C5.2272094 94.59367491 -8.38117459 103.78854029 -26.01953125 108.03515625 C-43.5608653 110.02054328 -58.91234056 105.80968241 -72.828125 94.81640625 C-84.08108702 85.16664777 -91.45947945 72.75511129 -94.01953125 58.03515625 C-94.87775301 46.4142418 -95.16977388 34.70697561 -90.01953125 24.03515625 C-89.41818359 22.67970703 -89.41818359 22.67970703 -88.8046875 21.296875 C-81.0996259 5.50708209 -68.14384681 -4.01700186 -51.96484375 -10.01953125 C-33.57791802 -15.92090529 -15.64551464 -10.18071651 0 0 Z " fill="#A50B15" transform="translate(552.01953125,618.96484375)"/>
</svg>
