<svg xmlns="http://www.w3.org/2000/svg" width="1024" height="1024"><path fill="#fefefe" d="M516 33c7.287 3.223 13.578 8.053 19.803 12.961 4.36 3.435 8.837 6.67 13.385 9.852a1409 1409 0 0 1 17.75 12.624l2.26 1.636 4.536 3.286c3.752 2.717 7.51 5.429 11.266 8.141l4.5 3.25 2.25 1.625 27 19.5 4.498 3.248q5.647 4.077 11.287 8.162c7.27 5.264 14.556 10.497 21.903 15.653 6.902 4.846 13.697 9.828 20.474 14.849 5.859 4.331 11.782 8.56 17.746 12.746 7.41 5.204 14.744 10.513 22.076 15.826 3.752 2.717 7.51 5.429 11.266 8.141l4.5 3.25 2.25 1.625 63.001 45.5q2.245 1.623 4.49 3.243 5.7 4.117 11.4 8.237A3748 3748 0 0 0 834 261c7.587 5.408 15.136 10.867 22.686 16.327q5.656 4.089 11.314 8.173l4.5 3.25 2.25 1.625 27.001 19.5q2.245 1.623 4.49 3.243 5.7 4.117 11.4 8.237A3748 3748 0 0 0 938 336c7.587 5.408 15.136 10.867 22.686 16.327a18675 18675 0 0 0 13.543 9.784q5.788 4.183 11.587 8.35a2176 2176 0 0 1 11.308 8.185 298 298 0 0 0 4.794 3.374c6.602 4.721 11.56 10.933 13.27 19.043.12 4.326-.96 8.152-2.211 12.25l-.669 2.226c-2.857 9.418-5.953 18.76-9.035 28.105q-2.84 8.62-5.664 17.247l-1.17 3.568c-3.89 11.892-7.702 23.808-11.501 35.729a6826 6826 0 0 1-17.204 53.16 3271 3271 0 0 0-12.984 40.465 1799 1799 0 0 1-11.5 35.437c-4.778 14.209-9.387 28.467-13.937 42.75a6382 6382 0 0 1-16.813 52 6894 6894 0 0 0-17.557 54.307A6187 6187 0 0 1 880 824.5c-5.4 16.48-10.73 32.979-16 49.5a7757 7757 0 0 1-21.253 65.601 1728 1728 0 0 0-5.212 16.13c-.984 3.092-1.98 6.18-2.978 9.268a495 495 0 0 0-1.32 4.178c-2.737 8.793-5.131 15.76-13.362 20.698-3.854 1.508-7.084 2.25-11.223 2.253l-2.636.009-2.888-.006-3.086.007q-5.162.006-10.323.002l-7.443.01q-9.181.01-18.363.01-10.995.002-21.99.014c-17.716.016-35.433.022-53.149.027q-12.568.003-25.137.01a262743 262743 0 0 1-107.701.03h-2.72c-29.116.003-58.232.02-87.347.042a121461 121461 0 0 1-102.452.04h-2.52q-20.087.005-40.175.027-20.182.022-40.366.01-11.996-.007-23.99.015c-5.967.011-11.934.006-17.901-.005q-3.626-.002-7.252.01c-3.28.011-6.559.004-9.838-.008l-2.86.023c-7.778-.062-15.008-1.751-20.882-7.198-2.124-2.858-3.164-5.688-4.383-9.037l-.77-2.109c-3.506-9.733-6.668-19.585-9.855-29.426l-2.105-6.473c-5.225-16.076-10.38-32.174-15.517-48.278A6272 6272 0 0 0 150 843.5a7043 7043 0 0 1-17-52.635 6277 6277 0 0 0-15-46.365 6996 6996 0 0 1-16.996-52.623 6610 6610 0 0 0-16.267-50.219 3562 3562 0 0 1-13.855-43.216c-3.117-9.93-6.31-19.828-9.632-29.692-4.364-12.958-8.537-25.972-12.687-39a6468 6468 0 0 0-17.144-52.999l-3.662-11.168a8969 8969 0 0 0-9.53-28.956 3941 3941 0 0 1-3.147-9.551q-.69-2.096-1.392-4.189C7.162 403.402 7.162 403.402 12 393c3.777-6.128 8.351-10.173 14.25-14.187l4.828-3.387 2.479-1.72c3.849-2.687 7.644-5.448 11.443-8.206l4.5-3.25 2.25-1.625 78.75-56.875 2.25-1.625 4.498-3.248q5.647-4.077 11.287-8.162c7.27-5.264 14.556-10.497 21.903-15.652 6.083-4.272 12.09-8.638 18.062-13.063a968 968 0 0 1 20.158-14.533c7.41-5.204 14.744-10.513 22.076-15.826 3.752-2.717 7.51-5.429 11.266-8.141l4.5-3.25 63-45.5 2.251-1.626 4.49-3.242q5.7-4.117 11.4-8.237a4057 4057 0 0 1 22.04-15.844c7.025-5.01 14.013-10.072 21.005-15.128q6.776-4.897 13.554-9.79 5.702-4.118 11.4-8.238A4057 4057 0 0 1 417.683 96.8c7.024-5.01 14.012-10.072 21.004-15.128Q444.342 77.584 450 73.5l4.5-3.25 9-6.5 6.735-4.862q5.767-4.159 11.511-8.349C507.906 31.482 507.906 31.482 516 33"/><path fill="#a50b15" d="M516 33c7.287 3.223 13.578 8.053 19.803 12.961 4.36 3.435 8.837 6.67 13.385 9.852a1409 1409 0 0 1 17.75 12.624l2.26 1.636 4.536 3.286c3.752 2.717 7.51 5.429 11.266 8.141l4.5 3.25 2.25 1.625 27 19.5 4.498 3.248q5.647 4.077 11.287 8.162c7.27 5.264 14.556 10.497 21.903 15.653 6.902 4.846 13.697 9.828 20.474 14.849 5.859 4.331 11.782 8.56 17.746 12.746 7.41 5.204 14.744 10.513 22.076 15.826 3.752 2.717 7.51 5.429 11.266 8.141l4.5 3.25 2.25 1.625 63.001 45.5q2.245 1.623 4.49 3.243 5.7 4.117 11.4 8.237A3748 3748 0 0 0 834 261c7.587 5.408 15.136 10.867 22.686 16.327q5.656 4.089 11.314 8.173l4.5 3.25 2.25 1.625 27.001 19.5q2.245 1.623 4.49 3.243 5.7 4.117 11.4 8.237A3748 3748 0 0 0 938 336c7.587 5.408 15.136 10.867 22.686 16.327a18675 18675 0 0 0 13.543 9.784q5.788 4.183 11.587 8.35a2176 2176 0 0 1 11.308 8.185 298 298 0 0 0 4.794 3.374c6.602 4.721 11.56 10.933 13.27 19.043.12 4.326-.96 8.152-2.211 12.25l-.669 2.226c-2.857 9.418-5.953 18.76-9.035 28.105q-2.84 8.62-5.664 17.247l-1.17 3.568c-3.89 11.892-7.702 23.808-11.501 35.729a6826 6826 0 0 1-17.204 53.16 3271 3271 0 0 0-12.984 40.465 1799 1799 0 0 1-11.5 35.437c-4.778 14.209-9.387 28.467-13.937 42.75a6382 6382 0 0 1-16.813 52 6894 6894 0 0 0-17.557 54.307A6187 6187 0 0 1 880 824.5c-5.4 16.48-10.73 32.979-16 49.5a7757 7757 0 0 1-21.253 65.601 1728 1728 0 0 0-5.212 16.13c-.984 3.092-1.98 6.18-2.978 9.268a495 495 0 0 0-1.32 4.178c-2.737 8.793-5.131 15.76-13.362 20.698-3.854 1.508-7.084 2.25-11.223 2.253l-2.636.009-2.888-.006-3.086.007q-5.162.006-10.323.002l-7.443.01q-9.181.01-18.363.01-10.995.002-21.99.014c-17.716.016-35.433.022-53.149.027q-12.568.003-25.137.01a262743 262743 0 0 1-107.701.03h-2.72c-29.116.003-58.232.02-87.347.042a121461 121461 0 0 1-102.452.04h-2.52q-20.087.005-40.175.027-20.182.022-40.366.01-11.996-.007-23.99.015c-5.967.011-11.934.006-17.901-.005q-3.626-.002-7.252.01c-3.28.011-6.559.004-9.838-.008l-2.86.023c-7.778-.062-15.008-1.751-20.882-7.198-2.124-2.858-3.164-5.688-4.383-9.037l-.77-2.109c-3.506-9.733-6.668-19.585-9.855-29.426l-2.105-6.473c-5.225-16.076-10.38-32.174-15.517-48.278A6272 6272 0 0 0 150 843.5a7043 7043 0 0 1-17-52.635 6277 6277 0 0 0-15-46.365 6996 6996 0 0 1-16.996-52.623 6610 6610 0 0 0-16.267-50.219 3562 3562 0 0 1-13.855-43.216c-3.117-9.93-6.31-19.828-9.632-29.692-4.364-12.958-8.537-25.972-12.687-39a6468 6468 0 0 0-17.144-52.999l-3.662-11.168a8969 8969 0 0 0-9.53-28.956 3941 3941 0 0 1-3.147-9.551q-.69-2.096-1.392-4.189C7.162 403.402 7.162 403.402 12 393c3.777-6.128 8.351-10.173 14.25-14.187l4.828-3.387 2.479-1.72c3.849-2.687 7.644-5.448 11.443-8.206l4.5-3.25 2.25-1.625 78.75-56.875 2.25-1.625 4.498-3.248q5.647-4.077 11.287-8.162c7.27-5.264 14.556-10.497 21.903-15.652 6.083-4.272 12.09-8.638 18.062-13.063a968 968 0 0 1 20.158-14.533c7.41-5.204 14.744-10.513 22.076-15.826 3.752-2.717 7.51-5.429 11.266-8.141l4.5-3.25 63-45.5 2.251-1.626 4.49-3.242q5.7-4.117 11.4-8.237a4057 4057 0 0 1 22.04-15.844c7.025-5.01 14.013-10.072 21.005-15.128q6.776-4.897 13.554-9.79 5.702-4.118 11.4-8.238A4057 4057 0 0 1 417.683 96.8c7.024-5.01 14.012-10.072 21.004-15.128Q444.342 77.584 450 73.5l4.5-3.25 9-6.5 6.735-4.862q5.767-4.159 11.511-8.349C507.906 31.482 507.906 31.482 516 33m-13.125 53.188a2567 2567 0 0 1-4.312 3.316l-2.266 1.746c-3.757 2.862-7.587 5.62-11.422 8.375l-2.301 1.657a4444 4444 0 0 1-15.255 10.916c-7.025 5.011-14.013 10.073-21.005 15.129q-6.776 4.897-13.554 9.79-5.702 4.118-11.4 8.238a4057 4057 0 0 1-22.042 15.844c-7.024 5.01-14.012 10.072-21.004 15.128q-6.776 4.897-13.554 9.79-5.702 4.118-11.4 8.238a4057 4057 0 0 1-22.042 15.844c-7.024 5.01-14.012 10.072-21.004 15.128q-6.776 4.897-13.554 9.79-5.701 4.118-11.4 8.238a4057 4057 0 0 1-22.042 15.844c-7.024 5.01-14.012 10.072-21.004 15.128q-5.656 4.089-11.314 8.173l-4.5 3.25-27 19.5-2.251 1.626-4.49 3.242q-5.7 4.117-11.4 8.237a4057 4057 0 0 1-22.04 15.844c-7.025 5.01-14.013 10.072-21.005 15.128q-6.775 4.897-13.554 9.79-5.702 4.118-11.4 8.238a3978 3978 0 0 1-22.033 15.837c-5.556 3.963-11.085 7.964-16.616 11.963A3649 3649 0 0 1 54 410c1.937 8.27 4.313 16.28 7.063 24.313q1.21 3.585 2.417 7.171l1.26 3.74c2.09 6.265 4.115 12.551 6.135 18.839l1.254 3.898q1.282 3.982 2.562 7.966a16310 16310 0 0 0 7.432 23.07 3203 3203 0 0 0 12.174 36.856 776 776 0 0 1 6.772 21.13c1.399 4.532 2.912 9.024 4.431 13.517 2.255 6.717 4.444 13.443 6.504 20.223 4.59 15.102 9.565 30.072 14.594 45.033 2.545 7.585 5.036 15.18 7.405 22.821 2.783 8.98 5.65 17.931 8.508 26.887l2.962 9.292c3.066 9.616 6.16 19.22 9.373 28.789 1.85 5.54 3.64 11.1 5.432 16.658q1.775 5.505 3.554 11.008l.764 2.365c2.86 8.844 5.742 17.682 8.623 26.52a10131 10131 0 0 1 15.745 48.672 22665 22665 0 0 0 6.524 20.32c3.435 10.684 6.889 21.362 10.346 32.038a11259 11259 0 0 1 8.783 27.22l1.258 3.91c2.948 9.163 5.947 18.308 9.058 27.417.39 1.156.39 1.156.79 2.335l.68 1.989c.684 2.294 1.127 4.655 1.597 7.003h568l5-17a1337 1337 0 0 1 3.938-12.437c.345-1.076.69-2.152 1.047-3.26q3.2-9.93 6.526-19.818c3.87-11.559 7.577-23.172 11.32-34.772q2.376-7.359 4.763-14.713c4.184-12.902 8.35-25.81 12.48-38.73l1.075-3.361q2.644-8.27 5.281-16.54c3.088-9.672 6.199-19.332 9.43-28.958 2.026-6.06 3.988-12.142 5.952-18.223l.68-2.1c3.214-9.933 6.4-19.875 9.57-29.822l2.13-6.677a10830 10830 0 0 0 4.15-13.04c3.091-9.71 6.211-19.398 9.696-28.977 1.681-4.642 3.111-9.326 4.462-14.072a260 260 0 0 1 5.5-17 250 250 0 0 0 5.438-16.812c2.044-7.188 4.46-14.204 6.974-21.24 2.134-6.021 3.999-12.08 5.744-18.225 1.433-4.98 3.08-9.851 4.844-14.723a256 256 0 0 0 5.438-16.75 413 413 0 0 1 5.687-18.187c3.132-9.29 6.175-18.608 9.188-27.938l.713-2.208a29459 29459 0 0 0 6.252-19.381l.619-1.918 1.831-5.678q1.206-3.74 2.407-7.482c2.085-6.483 4.191-12.959 6.334-19.424 1.134-3.421 2.26-6.845 3.388-10.27q.825-2.5 1.663-5c.776-2.32 1.541-4.643 2.304-6.967l.715-2.107c1.335-4.055 1.335-4.055.461-8.19-1.68-1.452-1.68-1.452-3.797-2.785l-2.385-1.592-2.568-1.685c-6.862-4.593-13.466-9.329-19.965-14.422-4.434-3.439-9.045-6.628-13.64-9.847a1256 1256 0 0 1-15.582-11.106l-2.261-1.636-4.536-3.286c-3.752-2.717-7.51-5.429-11.266-8.141l-4.5-3.25-2.25-1.625-27.001-19.5q-2.245-1.623-4.49-3.243-5.7-4.117-11.4-8.237A3748 3748 0 0 0 823 304c-7.587-5.408-15.136-10.867-22.686-16.327q-5.656-4.089-11.314-8.173l-4.5-3.25-2.25-1.625-9.001-6.5q-2.245-1.623-4.49-3.243-5.7-4.117-11.4-8.237A3748 3748 0 0 0 737 242c-7.587-5.408-15.136-10.867-22.686-16.327q-5.656-4.089-11.314-8.173-6.822-4.925-13.64-9.855A3748 3748 0 0 0 669 193c-7.587-5.408-15.136-10.867-22.686-16.327q-5.656-4.089-11.314-8.173l-4.5-3.25-2.25-1.625-9.001-6.5q-2.245-1.623-4.49-3.243-5.7-4.117-11.4-8.237A3748 3748 0 0 0 583 131c-7.587-5.408-15.136-10.867-22.686-16.327a19316 19316 0 0 0-13.541-9.782 11374 11374 0 0 0-14.046-10.133l-4.54-3.27-2.101-1.515-2.044-1.469q-2.13-1.57-4.201-3.215l-2.114-1.668-1.88-1.522c-5.298-3.154-8.945.903-12.972 4.088"/><path fill="#a50b15" d="M515 249c3 1 3 1 4.074 2.97 1.259 4.118 1.994 8.27 2.742 12.507 1.862 10.133 4.093 20.147 6.474 30.169 1.115 4.698 2.214 9.4 3.315 14.1l.646 2.753c2.61 11.143 5.025 22.324 7.386 33.521 4.04 19.145 8.378 38.21 12.805 57.267a4886 4886 0 0 1 4.495 19.526l.567 2.47c1.264 5.553 2.4 11.128 3.496 16.717a1637 1637 0 0 0 8.563 40.625l.598 2.726A144 144 0 0 0 575 501c4.275-1.516 7.904-3.736 11.688-6.187 7.337-4.674 14.829-9.049 22.375-13.375 10.266-5.887 10.266-5.887 20.437-11.938 7.867-4.761 15.843-9.33 23.813-13.915 6.186-3.56 12.358-7.139 18.5-10.772 6.09-3.603 12.223-7.127 18.375-10.625q10.807-6.152 21.5-12.5a2523 2523 0 0 1 34.293-19.952c2.817-1.62 5.62-3.26 8.421-4.908l4.785-2.765 2.12-1.27c4.397-2.507 7.503-3.23 12.693-2.793 1.187 3.51 1.019 3.956-.59 7.652a267 267 0 0 1-2.347 4.286l-1.246 2.287a290 290 0 0 1-9.797 16.455c-1.7 2.794-3.276 5.604-4.829 8.48-3.194 5.901-6.599 11.658-10.066 17.402l-1.954 3.247c-9.886 16.39-19.912 32.692-30.163 48.856a1178 1178 0 0 0-9.703 15.597c-3.134 5.098-6.318 10.165-9.492 15.238l-5.894 9.43q-1.86 2.978-3.725 5.953c-5.612 8.962-11.197 17.935-16.444 27.117l-1.125 1.941c-1.89 3.366-2.967 6.275-3.625 10.059q5.28 1.159 10.563 2.313l2.943.646c15.823 3.453 31.739 6.45 47.642 9.51l19.114 3.687c10.391 2.006 10.391 2.006 20.783 4.008 18.741 3.61 37.461 7.304 56.143 11.211l2.472.514q3.443.718 6.883 1.447l2.03.422c3.91.835 7.707 1.764 11.427 3.242.875 2.125.875 2.125 1 4-2.92 2.377-5.671 3.824-9.18 5.172l-3.195 1.24-3.5 1.338-5.628 2.182-4.036 1.562c-7.689 2.974-15.354 6.008-23.02 9.04q-6.107 2.415-12.214 4.825l-2.397.946a17285 17285 0 0 1-31.526 12.398 12636 12636 0 0 0-9.984 3.926 7626 7626 0 0 1-32.963 12.9q-5.83 2.265-11.662 4.525C677.26 691.809 677.26 691.809 660 699c1.26 4.115 2.788 7.677 4.95 11.395l1.796 3.105 1.942 3.313 2.023 3.48c5.134 8.816 10.382 17.563 15.654 26.297 4.532 7.523 8.95 15.106 13.322 22.722 4.497 7.833 9.033 15.636 13.688 23.375l1.46 2.438a538 538 0 0 0 6.942 11.266l1.302 2.079q1.19 1.901 2.42 3.777c1.743 2.796 2.54 4.33 2.231 7.663L727 822c-4.147-.567-6.792-1.912-10.246-4.246l-3.014-2.022-3.178-2.17-3.288-2.22a770 770 0 0 1-19.532-13.654c-5.017-3.623-10.101-7.15-15.18-10.688l-3.005-2.102c-4.34-3.022-8.682-6.015-13.159-8.832l-2.056-1.306a439 439 0 0 0-5.283-3.256c-7.394-6.053-11.423-15.561-15.934-23.817q-1.986-3.604-3.977-7.207l-1.028-1.86c-3.399-6.144-6.866-12.248-10.353-18.342l-3.03-5.305c-3.024-5.285-6.069-10.553-9.19-15.782l-1.573-2.652a448 448 0 0 0-2.877-4.77c-4.031-6.786-4.031-6.786-3.097-10.769 1.52-1.781 1.52-1.781 3.813-3.5l2.75-2.07c5.025-3.593 10.148-7.047 15.266-10.506 5.812-3.942 11.366-8.084 16.882-12.432 4.582-3.544 9.426-6.73 14.262-9.914 1.71-1.144 3.373-2.355 5.027-3.578v-2c-6.788-2.144-13.623-3.496-20.625-4.687-10.166-1.754-20.167-4.066-30.187-6.5l-2.264-.547q-3.192-.773-6.381-1.559l-3.75-.923C590 622 590 622 589 621c.065-7.512 3.339-13.61 6.574-20.226 1.713-3.507 3.386-7.032 5.063-10.555l1.068-2.239c3.83-8.05 7.483-16.178 11.102-24.326q1.065-2.397 2.134-4.792 1.499-3.359 2.989-6.721l.9-2.016c1.324-3.004 2.53-5.897 3.17-9.125-20.046 11.703-20.046 11.703-40 23.563l-2.411 1.445a547 547 0 0 0-10.523 6.469l-1.814 1.142a726 726 0 0 0-4.623 2.955c-2.604 1.413-4.71 2.029-7.629 2.426l-1.723-3.473c-5.85-11.57-11.11-21.056-24.035-25.468-6.775-1.933-12.338-2.344-19.242-1.059l-2.34.348c-9.091 1.6-15.306 6.258-20.66 13.652-1.968 3.62-3.515 7.41-5.098 11.21l-.972 2.22-.837 2.007C479 580 479 580 477.313 580.916c-3.52.128-6.194-1.443-9.254-3.002l-2.05-1.008c-2.196-1.083-4.384-2.182-6.572-3.281q-2.246-1.113-4.493-2.22-4.438-2.19-8.87-4.392c-5.182-2.568-10.402-5.053-15.637-7.513l-2.355-1.11A3606 3606 0 0 0 423 556c.577 5.136 1.766 9.71 3.563 14.563l.79 2.185q.856 2.361 1.722 4.72a1357 1357 0 0 1 2.89 8.005l2.035 5.652 1.015 2.82c1.547 4.256 3.132 8.479 4.9 12.649l.878 2.085a466 466 0 0 0 2.371 5.423c.836 2.898.836 2.898.376 4.94-2.411 3.065-5.698 3.39-9.345 4.177l-2.384.555a803 803 0 0 1-7.686 1.726q-2.632.6-5.265 1.204c-10.15 2.313-20.32 4.51-30.548 6.456-7.475 1.428-14.89 3.155-22.312 4.84 3.304 3.496 6.503 6.156 10.625 8.625l1.695 1.02A718 718 0 0 0 384 651l2.007 1.179c8.063 4.722 16.175 9.359 24.298 13.977l3.822 2.176a3586 3586 0 0 0 7.53 4.273l3.495 1.989 3.125 1.771L431 678l2.365 1.338C435 681 435 681 435.556 683.536c-.824 5.131-3.091 9.288-5.454 13.882l-1.543 3.066c-1.633 3.24-3.284 6.472-4.934 9.703l-3.215 6.374a2043 2043 0 0 1-14.95 29.052l-1.195 2.279-1.13 2.14-1.067 2.02c-1.079 1.968-2.24 3.87-3.41 5.785L397 761l1 3q8.441-2.769 16.875-5.562l2.504-.83c14.766-4.896 14.766-4.896 29.255-10.552 4.7-1.946 9.394-3.079 14.366-4.056v3c-1.55 1.511-1.55 1.511-3.742 3.117-.81.6-1.62 1.2-2.454 1.82l-2.679 1.938-2.743 2.019A1714 1714 0 0 1 441 761l-4.738 3.457c-9.265 6.74-18.613 13.363-27.99 19.947q-2.385 1.674-4.768 3.352c-9.758 6.868-19.54 13.677-29.504 20.244q-4.409 2.934-8.812 5.875l-4.672 3.113q-4.207 2.805-8.407 5.617a1639 1639 0 0 1-23.566 15.461c-4.108 2.65-8.207 5.315-12.304 7.983a4168 4168 0 0 1-7.669 4.974 451 451 0 0 0-8.14 5.391l-2.93 1.961-2.406 1.648c-2.094.977-2.094.977-4.313.829L289 860c-1-3-1-3 .012-5.617l2.625-5.105c3.287-6.303 6.84-12.457 10.39-18.615 4.273-7.41 8.45-14.87 12.598-22.35l.973-1.755q3.928-7.083 7.848-14.173a2041 2041 0 0 1 15.817-28.084c3.92-6.844 7.773-13.724 11.612-20.614 17.054-30.572 17.054-30.572 22.866-39.303L375 702c-.742-3.383-.742-3.383-4.512-4.834a385 385 0 0 0-4.746-2.045l-2.564-1.116a1644 1644 0 0 0-8.303-3.567l-5.708-2.472a4025 4025 0 0 0-11.202-4.831 2565 2565 0 0 1-14.543-6.308q-3.96-1.729-7.926-3.444-5.985-2.593-11.96-5.203c-16.386-7.14-32.834-14.119-49.308-21.05-12.106-5.095-24.186-10.23-36.169-15.61-4.612-2.058-9.235-4-13.961-5.782l-2.861-1.087a259 259 0 0 0-5.315-1.93c-2.107-.787-4.022-1.517-5.922-2.721-1.031-2.727-1.031-2.727-1-5 3.494-1.508 6.773-2.455 10.517-3.118l3.29-.588 3.556-.614 3.746-.658c12.978-2.254 25.991-4.277 39.01-6.273q10.53-1.616 21.057-3.257l2.098-.326a1913 1913 0 0 0 35.601-5.916c14.134-2.474 28.295-4.665 42.5-6.687l2.803-.4q3.89-.554 7.783-1.097l2.342-.33c2.927-.403 5.738-.736 8.697-.736-1.985-6.616-5.387-11.934-9.164-17.664-3.412-5.18-6.682-10.447-9.961-15.711l-3.914-6.273-1.99-3.19Q342.24 534.576 337.5 527q-1.86-2.979-3.723-5.957-3.884-6.216-7.773-12.43l-2-3.197-3.73-5.96c-7.721-12.346-15.302-24.774-22.847-37.227-7.386-12.188-14.816-24.344-22.49-36.354l-3.472-5.445-5.25-8.224a1164 1164 0 0 1-11.09-17.706l-1.469-2.375-1.398-2.281-1.246-2.026C250 386 250 386 249 383c.938-2.187.938-2.187 2-4 20.033 2.475 42.25 21.705 59.15 32.229 12.997 8.078 26.024 16.112 39.163 23.959 14.383 8.592 28.588 17.467 42.739 26.435 5.976 3.78 11.994 7.486 18.036 11.16 4.947 3.01 9.872 6.05 14.788 9.11 7.566 4.704 15.15 9.372 22.812 13.92l2.16 1.293c3.348 2.158 3.348 2.158 7.152 2.894 2.156-5.879 3.468-11.434 4.414-17.613.646-3.734 1.5-7.396 2.399-11.074 2.054-8.452 3.762-16.962 5.436-25.495.993-5.054 2.008-10.096 3.144-15.12.658-2.924 1.302-5.851 1.945-8.779q1.03-4.687 2.066-9.375.533-2.413 1.062-4.828c1.768-8.065 3.576-16.08 5.817-24.029 1.471-5.513 2.601-11.106 3.78-16.687l.775-3.617c1.155-5.429 2.267-10.856 3.236-16.32.726-4.075 1.62-8.059 2.676-12.063 4.108-15.981 7.478-32.155 10.813-48.312Q505.775 280.842 507 275l.653-3.113c.645-3.048 1.306-6.093 1.972-9.137l.588-2.798.576-2.593.49-2.266c.841-2.442 2.086-4.11 3.721-6.093"/><path fill="#a50b15" d="M552.02 618.965c10.263 7.708 17.12 18.853 20.98 31.035l1.07 3.195c3.751 15.35.78 31.508-6.82 45.18C557.247 713.559 543.638 722.753 526 727c-17.541 1.985-32.893-2.225-46.809-13.219-11.253-9.65-18.63-22.061-21.191-36.781-.858-11.62-1.15-23.328 4-34l1.215-2.738c7.705-15.79 20.66-25.314 36.84-31.317 18.387-5.901 36.319-.16 51.965 10.02"/></svg>