<?xml version="1.0" encoding="UTF-8"?>
<svg version="1.1" xmlns="http://www.w3.org/2000/svg" width="1024" height="1024">
<path d="M0 0 C7.28741767 3.22268114 13.57806549 8.05276303 19.80273438 12.96118164 C24.16360267 16.39606838 28.63966433 19.63005573 33.1875 22.8125 C39.13529976 26.97891092 45.05474072 31.17964283 50.9375 35.4375 C51.68346436 35.97737549 52.42942871 36.51725098 53.19799805 37.07348633 C54.71013427 38.16838044 56.22209699 39.26351422 57.73388672 40.35888672 C61.486448 43.07648173 65.24343419 45.78794473 69 48.5 C70.50002146 49.58330362 72.00002146 50.66663696 73.5 51.75 C74.2425 52.28625 74.985 52.8225 75.75 53.375 C100.5 71.25 100.5 71.25 102.75024414 72.87524414 C104.2493445 73.95788254 105.74853062 75.0404022 107.24780273 76.12280273 C111.01228168 78.84079823 114.77521904 81.56088068 118.53515625 84.28515625 C125.80432269 89.54881928 133.09124885 94.78186072 140.4375 99.9375 C147.34034679 104.78387201 154.13476019 109.76606348 160.91162109 114.78662109 C166.77094885 119.1181551 172.6943357 123.34780111 178.65844727 127.53344727 C186.06851717 132.7374724 193.40152023 138.0461951 200.73388672 143.35888672 C204.486448 146.07648173 208.24343419 148.78794473 212 151.5 C213.50002146 152.58330362 215.00002146 153.66663696 216.5 154.75 C217.2425 155.28625 217.985 155.8225 218.75 156.375 C279.49999999 200.24999999 279.49999999 200.24999999 281.75097656 201.87573242 C283.24768701 202.95667191 284.74443168 204.03756401 286.24121094 205.1184082 C290.04182637 207.8629754 293.84180298 210.60841966 297.640625 213.35546875 C304.41540742 218.25345334 311.19258102 223.14744088 318 228 C325.58659358 233.40798119 333.13590141 238.86727127 340.68554688 244.32666016 C344.45593019 247.05263139 348.22803694 249.77621534 352 252.5 C353.50000859 253.58332144 355.00000858 254.66665479 356.5 255.75 C357.2425 256.28625 357.985 256.8225 358.75 257.375 C383.5 275.25 383.5 275.25 385.75097656 276.87573242 C387.24768701 277.95667191 388.74443168 279.03756401 390.24121094 280.1184082 C394.04182637 282.8629754 397.84180298 285.60841966 401.640625 288.35546875 C408.41540742 293.25345334 415.19258102 298.14744088 422 303 C429.58659358 308.40798119 437.13590141 313.86727127 444.68554688 319.32666016 C447.70988581 321.51324445 450.73533712 323.69828591 453.76098633 325.88305664 C455.25059568 326.9588044 456.74001707 328.03481247 458.22924805 329.11108398 C462.0879883 331.89947366 465.94973864 334.68354891 469.81640625 337.4609375 C473.59542511 340.17571003 477.3620169 342.9070437 481.12353516 345.64599609 C482.70819037 346.78943844 484.31115009 347.90744926 485.91796875 349.01953125 C492.51976881 353.74142174 497.4778405 359.95338109 499.1875 368.0625 C499.30756996 372.38946574 498.22814474 376.21510923 496.9765625 380.3125 C496.64577446 381.41477684 496.64577446 381.41477684 496.30830383 382.5393219 C493.45147144 391.95653952 490.35528792 401.29829212 487.27340698 410.64364624 C485.37881 416.3904786 483.49367388 422.14040913 481.609375 427.890625 C481.03043739 429.65716682 481.03043739 429.65716682 480.43980408 431.45939636 C476.54843426 443.35053442 472.73683574 455.26669928 468.9375 467.1875 C463.2803847 484.933616 457.5363939 502.64937755 451.73422241 520.34857178 C447.32269236 533.81112552 442.98627895 547.29380696 438.75 560.8125 C435.03516866 572.66658243 431.20944924 584.47537605 427.25 596.25 C422.47219217 610.45871789 417.86308044 624.71695158 413.3125 639 C407.78182713 656.35789613 402.17909984 673.69009459 396.5 691 C390.57000861 709.07790186 384.72298687 727.18028837 378.94287109 745.30664062 C374.02483835 760.72533788 369.0388725 776.12038595 364 791.5 C358.60088272 807.97935717 353.27006597 824.47892378 348 841 C341.01226608 862.89895755 333.92944888 884.76544969 326.74731445 906.60144043 C324.98429849 911.96991788 323.2448448 917.34500686 321.53456116 922.73051453 C320.55088139 925.82298123 319.55494955 928.91141683 318.55679321 931.99923706 C318.11078984 933.38983088 317.67058396 934.78230086 317.23690796 936.17678833 C314.50013842 944.96984046 312.10561765 951.93662941 303.875 956.875 C300.0208818 958.38313321 296.79075892 959.12480289 292.65236974 959.1276505 C291.78251321 959.13066647 290.91265668 959.13368244 290.01644087 959.1367898 C289.06341975 959.13502033 288.11039863 959.13325086 287.12849808 959.13142776 C285.60056873 959.13450672 285.60056873 959.13450672 284.04177213 959.13764787 C280.60069176 959.14333894 277.15965116 959.14185802 273.71856689 959.14044189 C271.23768592 959.14302432 268.75680537 959.14603713 266.2759254 959.1494453 C260.1548543 959.15668361 254.03379578 959.15921862 247.91272091 959.15977435 C240.58292413 959.16068747 233.25313544 959.16735346 225.92334214 959.17412117 C208.20688963 959.19018846 190.49043798 959.19608515 172.77397949 959.20086992 C164.39507395 959.203205 156.01616911 959.20680754 147.6372641 959.2105653 C118.96244756 959.22340106 90.2876314 959.23412054 61.61281204 959.2375679 C59.81245952 959.23778954 58.012107 959.23801132 56.21175449 959.23823325 C54.40702457 959.23845389 52.60229466 959.23867438 50.79756474 959.2388947 C47.17689212 959.23933726 43.5562195 959.23978437 39.93554688 959.24023438 C39.03782919 959.24034377 38.14011151 959.24045316 37.21519026 959.24056586 C8.09973994 959.24419735 -21.01568549 959.26012073 -50.13112628 959.28342474 C-80.90479702 959.30801102 -111.67845353 959.32174017 -142.45213437 959.32293582 C-145.82914559 959.32310728 -149.20615681 959.32332271 -152.58316803 959.32357025 C-153.41469923 959.32362602 -154.24623044 959.32368179 -155.10295956 959.32373925 C-168.49448756 959.3248907 -181.88599007 959.33592066 -195.27750945 959.35045731 C-208.73310073 959.36481114 -222.18865925 959.36806558 -235.64425609 959.36001733 C-243.64106011 959.35555591 -251.63775853 959.35944212 -259.63454871 959.37525584 C-265.60145217 959.38613253 -271.5682344 959.38138102 -277.53514233 959.37048396 C-279.952378 959.3685167 -282.36962416 959.3716525 -284.78684506 959.38032833 C-288.06645942 959.39135681 -291.34553452 959.3839776 -294.62513351 959.3719368 C-295.56878997 959.37953199 -296.51244643 959.38712718 -297.48469853 959.39495254 C-305.26255638 959.33309086 -312.49337138 957.64363601 -318.3671875 952.19702148 C-320.4914685 949.33870739 -321.53058665 946.50853465 -322.75 943.16015625 C-323.00383453 942.46421356 -323.25766907 941.76827087 -323.51919556 941.05123901 C-327.0262114 931.31830578 -330.18798361 921.46602131 -333.375 911.625 C-334.07664322 909.46738947 -334.77847017 907.30983869 -335.48046875 905.15234375 C-340.70493672 889.07630726 -345.85964241 872.97805336 -350.99725342 856.87408447 C-355.93567605 841.39529795 -360.94145344 825.93992899 -366 810.5 C-371.74064721 792.97813198 -377.39714071 775.43113256 -383 757.86474609 C-387.93755165 742.38908983 -392.94246446 726.93684311 -398 711.5 C-403.73932358 693.98217202 -409.39529012 676.43945364 -414.99597168 658.87683105 C-420.34359577 642.11245914 -425.78216586 625.37938298 -431.26348877 608.65829468 C-435.97451917 594.2811939 -440.59093499 579.87801303 -445.1184082 565.44213867 C-448.23469388 555.51163019 -451.4276101 545.61401126 -454.75 535.75 C-459.11364214 522.79213848 -463.28700347 509.77750404 -467.4375 496.75 C-473.07533025 479.05827333 -478.79140033 461.39384665 -484.58139038 443.75131226 C-485.80300457 440.02893353 -487.02334895 436.30614059 -488.2434082 432.58325195 C-491.40884791 422.92731241 -494.57493497 413.27168895 -497.7731781 403.6265564 C-498.82697131 400.44460123 -499.87434362 397.2605605 -500.92001343 394.07592773 C-501.38064737 392.67869205 -501.84440267 391.28248049 -502.31167603 389.88745117 C-508.83761601 370.40217837 -508.83761601 370.40217837 -504 360 C-500.22294036 353.87207651 -495.64869945 349.82732162 -489.75 345.8125 C-488.14039281 344.68392484 -486.53102447 343.55500895 -484.921875 342.42578125 C-484.10396484 341.85811035 -483.28605469 341.29043945 -482.44335938 340.70556641 C-478.59397124 338.01853348 -474.79903947 335.25751537 -471 332.5 C-469.50028363 331.41627406 -468.0002829 330.33294152 -466.5 329.25 C-465.38625 328.445625 -465.38625 328.445625 -464.25 327.625 C-438 308.66666667 -411.75 289.70833333 -385.5 270.75 C-384.75741943 270.21366943 -384.01483887 269.67733887 -383.24975586 269.12475586 C-381.7506555 268.04211746 -380.25146938 266.9595978 -378.75219727 265.87719727 C-374.98771832 263.15920177 -371.22478096 260.43911932 -367.46484375 257.71484375 C-360.19567731 252.45118072 -352.90875115 247.21813928 -345.5625 242.0625 C-339.47874537 237.79119875 -333.47286072 233.42492354 -327.5 229 C-320.84058446 224.0664504 -314.12530093 219.22742435 -307.34155273 214.46655273 C-299.93148283 209.2625276 -292.59847977 203.9538049 -285.26611328 198.64111328 C-281.513552 195.92351827 -277.75656581 193.21205527 -274 190.5 C-272.49997854 189.41669638 -270.99997854 188.33336304 -269.5 187.25 C-248.5 172.08333333 -227.5 156.91666667 -206.5 141.75 C-205.75717773 141.2135083 -205.01435547 140.6770166 -204.24902344 140.12426758 C-202.75231299 139.04332809 -201.25556832 137.96243599 -199.75878906 136.8815918 C-195.95817363 134.1370246 -192.15819702 131.39158034 -188.359375 128.64453125 C-181.02666167 123.34317769 -173.68638156 118.05344563 -166.31835938 112.80126953 C-159.29435105 107.7901413 -152.30621493 102.72930529 -145.31445312 97.67333984 C-140.79764229 94.40770467 -136.278495 91.14530382 -131.75976562 87.88232422 C-127.95884225 85.13748856 -124.15852668 82.39181873 -120.359375 79.64453125 C-113.02666167 74.34317769 -105.68638156 69.05344563 -98.31835938 63.80126953 C-91.29435105 58.7901413 -84.30621493 53.72930529 -77.31445312 48.67333984 C-73.54406981 45.94736861 -69.77196306 43.22378466 -66 40.5 C-64.49999141 39.41667856 -62.99999142 38.33334521 -61.5 37.25 C-58.5 35.08333333 -55.5 32.91666667 -52.5 30.75 C-51.75693604 30.2132666 -51.01387207 29.6765332 -50.24829102 29.12353516 C-48.75427963 28.04468015 -47.25997804 26.96622692 -45.76538086 25.88818359 C-41.92122767 23.11462308 -38.08298597 20.33340423 -34.25390625 17.5390625 C-8.09435394 -1.51849565 -8.09435394 -1.51849565 0 0 Z " fill="#FEFEFE" transform="translate(516,33)"/>
<path d="M0 0 C7.28741767 3.22268114 13.57806549 8.05276303 19.80273438 12.96118164 C24.16360267 16.39606838 28.63966433 19.63005573 33.1875 22.8125 C39.13529976 26.97891092 45.05474072 31.17964283 50.9375 35.4375 C51.68346436 35.97737549 52.42942871 36.51725098 53.19799805 37.07348633 C54.71013427 38.16838044 56.22209699 39.26351422 57.73388672 40.35888672 C61.486448 43.07648173 65.24343419 45.78794473 69 48.5 C70.50002146 49.58330362 72.00002146 50.66663696 73.5 51.75 C74.2425 52.28625 74.985 52.8225 75.75 53.375 C100.5 71.25 100.5 71.25 102.75024414 72.87524414 C104.2493445 73.95788254 105.74853062 75.0404022 107.24780273 76.12280273 C111.01228168 78.84079823 114.77521904 81.56088068 118.53515625 84.28515625 C125.80432269 89.54881928 133.09124885 94.78186072 140.4375 99.9375 C147.34034679 104.78387201 154.13476019 109.76606348 160.91162109 114.78662109 C166.77094885 119.1181551 172.6943357 123.34780111 178.65844727 127.53344727 C186.06851717 132.7374724 193.40152023 138.0461951 200.73388672 143.35888672 C204.486448 146.07648173 208.24343419 148.78794473 212 151.5 C213.50002146 152.58330362 215.00002146 153.66663696 216.5 154.75 C217.2425 155.28625 217.985 155.8225 218.75 156.375 C279.49999999 200.24999999 279.49999999 200.24999999 281.75097656 201.87573242 C283.24768701 202.95667191 284.74443168 204.03756401 286.24121094 205.1184082 C290.04182637 207.8629754 293.84180298 210.60841966 297.640625 213.35546875 C304.41540742 218.25345334 311.19258102 223.14744088 318 228 C325.58659358 233.40798119 333.13590141 238.86727127 340.68554688 244.32666016 C344.45593019 247.05263139 348.22803694 249.77621534 352 252.5 C353.50000859 253.58332144 355.00000858 254.66665479 356.5 255.75 C357.2425 256.28625 357.985 256.8225 358.75 257.375 C383.5 275.25 383.5 275.25 385.75097656 276.87573242 C387.24768701 277.95667191 388.74443168 279.03756401 390.24121094 280.1184082 C394.04182637 282.8629754 397.84180298 285.60841966 401.640625 288.35546875 C408.41540742 293.25345334 415.19258102 298.14744088 422 303 C429.58659358 308.40798119 437.13590141 313.86727127 444.68554688 319.32666016 C447.70988581 321.51324445 450.73533712 323.69828591 453.76098633 325.88305664 C455.25059568 326.9588044 456.74001707 328.03481247 458.22924805 329.11108398 C462.0879883 331.89947366 465.94973864 334.68354891 469.81640625 337.4609375 C473.59542511 340.17571003 477.3620169 342.9070437 481.12353516 345.64599609 C482.70819037 346.78943844 484.31115009 347.90744926 485.91796875 349.01953125 C492.51976881 353.74142174 497.4778405 359.95338109 499.1875 368.0625 C499.30756996 372.38946574 498.22814474 376.21510923 496.9765625 380.3125 C496.64577446 381.41477684 496.64577446 381.41477684 496.30830383 382.5393219 C493.45147144 391.95653952 490.35528792 401.29829212 487.27340698 410.64364624 C485.37881 416.3904786 483.49367388 422.14040913 481.609375 427.890625 C481.03043739 429.65716682 481.03043739 429.65716682 480.43980408 431.45939636 C476.54843426 443.35053442 472.73683574 455.26669928 468.9375 467.1875 C463.2803847 484.933616 457.5363939 502.64937755 451.73422241 520.34857178 C447.32269236 533.81112552 442.98627895 547.29380696 438.75 560.8125 C435.03516866 572.66658243 431.20944924 584.47537605 427.25 596.25 C422.47219217 610.45871789 417.86308044 624.71695158 413.3125 639 C407.78182713 656.35789613 402.17909984 673.69009459 396.5 691 C390.57000861 709.07790186 384.72298687 727.18028837 378.94287109 745.30664062 C374.02483835 760.72533788 369.0388725 776.12038595 364 791.5 C358.60088272 807.97935717 353.27006597 824.47892378 348 841 C341.01226608 862.89895755 333.92944888 884.76544969 326.74731445 906.60144043 C324.98429849 911.96991788 323.2448448 917.34500686 321.53456116 922.73051453 C320.55088139 925.82298123 319.55494955 928.91141683 318.55679321 931.99923706 C318.11078984 933.38983088 317.67058396 934.78230086 317.23690796 936.17678833 C314.50013842 944.96984046 312.10561765 951.93662941 303.875 956.875 C300.0208818 958.38313321 296.79075892 959.12480289 292.65236974 959.1276505 C291.78251321 959.13066647 290.91265668 959.13368244 290.01644087 959.1367898 C289.06341975 959.13502033 288.11039863 959.13325086 287.12849808 959.13142776 C285.60056873 959.13450672 285.60056873 959.13450672 284.04177213 959.13764787 C280.60069176 959.14333894 277.15965116 959.14185802 273.71856689 959.14044189 C271.23768592 959.14302432 268.75680537 959.14603713 266.2759254 959.1494453 C260.1548543 959.15668361 254.03379578 959.15921862 247.91272091 959.15977435 C240.58292413 959.16068747 233.25313544 959.16735346 225.92334214 959.17412117 C208.20688963 959.19018846 190.49043798 959.19608515 172.77397949 959.20086992 C164.39507395 959.203205 156.01616911 959.20680754 147.6372641 959.2105653 C118.96244756 959.22340106 90.2876314 959.23412054 61.61281204 959.2375679 C59.81245952 959.23778954 58.012107 959.23801132 56.21175449 959.23823325 C54.40702457 959.23845389 52.60229466 959.23867438 50.79756474 959.2388947 C47.17689212 959.23933726 43.5562195 959.23978437 39.93554688 959.24023438 C39.03782919 959.24034377 38.14011151 959.24045316 37.21519026 959.24056586 C8.09973994 959.24419735 -21.01568549 959.26012073 -50.13112628 959.28342474 C-80.90479702 959.30801102 -111.67845353 959.32174017 -142.45213437 959.32293582 C-145.82914559 959.32310728 -149.20615681 959.32332271 -152.58316803 959.32357025 C-153.41469923 959.32362602 -154.24623044 959.32368179 -155.10295956 959.32373925 C-168.49448756 959.3248907 -181.88599007 959.33592066 -195.27750945 959.35045731 C-208.73310073 959.36481114 -222.18865925 959.36806558 -235.64425609 959.36001733 C-243.64106011 959.35555591 -251.63775853 959.35944212 -259.63454871 959.37525584 C-265.60145217 959.38613253 -271.5682344 959.38138102 -277.53514233 959.37048396 C-279.952378 959.3685167 -282.36962416 959.3716525 -284.78684506 959.38032833 C-288.06645942 959.39135681 -291.34553452 959.3839776 -294.62513351 959.3719368 C-295.56878997 959.37953199 -296.51244643 959.38712718 -297.48469853 959.39495254 C-305.26255638 959.33309086 -312.49337138 957.64363601 -318.3671875 952.19702148 C-320.4914685 949.33870739 -321.53058665 946.50853465 -322.75 943.16015625 C-323.00383453 942.46421356 -323.25766907 941.76827087 -323.51919556 941.05123901 C-327.0262114 931.31830578 -330.18798361 921.46602131 -333.375 911.625 C-334.07664322 909.46738947 -334.77847017 907.30983869 -335.48046875 905.15234375 C-340.70493672 889.07630726 -345.85964241 872.97805336 -350.99725342 856.87408447 C-355.93567605 841.39529795 -360.94145344 825.93992899 -366 810.5 C-371.74064721 792.97813198 -377.39714071 775.43113256 -383 757.86474609 C-387.93755165 742.38908983 -392.94246446 726.93684311 -398 711.5 C-403.73932358 693.98217202 -409.39529012 676.43945364 -414.99597168 658.87683105 C-420.34359577 642.11245914 -425.78216586 625.37938298 -431.26348877 608.65829468 C-435.97451917 594.2811939 -440.59093499 579.87801303 -445.1184082 565.44213867 C-448.23469388 555.51163019 -451.4276101 545.61401126 -454.75 535.75 C-459.11364214 522.79213848 -463.28700347 509.77750404 -467.4375 496.75 C-473.07533025 479.05827333 -478.79140033 461.39384665 -484.58139038 443.75131226 C-485.80300457 440.02893353 -487.02334895 436.30614059 -488.2434082 432.58325195 C-491.40884791 422.92731241 -494.57493497 413.27168895 -497.7731781 403.6265564 C-498.82697131 400.44460123 -499.87434362 397.2605605 -500.92001343 394.07592773 C-501.38064737 392.67869205 -501.84440267 391.28248049 -502.31167603 389.88745117 C-508.83761601 370.40217837 -508.83761601 370.40217837 -504 360 C-500.22294036 353.87207651 -495.64869945 349.82732162 -489.75 345.8125 C-488.14039281 344.68392484 -486.53102447 343.55500895 -484.921875 342.42578125 C-484.10396484 341.85811035 -483.28605469 341.29043945 -482.44335938 340.70556641 C-478.59397124 338.01853348 -474.79903947 335.25751537 -471 332.5 C-469.50028363 331.41627406 -468.0002829 330.33294152 -466.5 329.25 C-465.38625 328.445625 -465.38625 328.445625 -464.25 327.625 C-438 308.66666667 -411.75 289.70833333 -385.5 270.75 C-384.75741943 270.21366943 -384.01483887 269.67733887 -383.24975586 269.12475586 C-381.7506555 268.04211746 -380.25146938 266.9595978 -378.75219727 265.87719727 C-374.98771832 263.15920177 -371.22478096 260.43911932 -367.46484375 257.71484375 C-360.19567731 252.45118072 -352.90875115 247.21813928 -345.5625 242.0625 C-339.47874537 237.79119875 -333.47286072 233.42492354 -327.5 229 C-320.84058446 224.0664504 -314.12530093 219.22742435 -307.34155273 214.46655273 C-299.93148283 209.2625276 -292.59847977 203.9538049 -285.26611328 198.64111328 C-281.513552 195.92351827 -277.75656581 193.21205527 -274 190.5 C-272.49997854 189.41669638 -270.99997854 188.33336304 -269.5 187.25 C-248.5 172.08333333 -227.5 156.91666667 -206.5 141.75 C-205.75717773 141.2135083 -205.01435547 140.6770166 -204.24902344 140.12426758 C-202.75231299 139.04332809 -201.25556832 137.96243599 -199.75878906 136.8815918 C-195.95817363 134.1370246 -192.15819702 131.39158034 -188.359375 128.64453125 C-181.02666167 123.34317769 -173.68638156 118.05344563 -166.31835938 112.80126953 C-159.29435105 107.7901413 -152.30621493 102.72930529 -145.31445312 97.67333984 C-140.79764229 94.40770467 -136.278495 91.14530382 -131.75976562 87.88232422 C-127.95884225 85.13748856 -124.15852668 82.39181873 -120.359375 79.64453125 C-113.02666167 74.34317769 -105.68638156 69.05344563 -98.31835938 63.80126953 C-91.29435105 58.7901413 -84.30621493 53.72930529 -77.31445312 48.67333984 C-73.54406981 45.94736861 -69.77196306 43.22378466 -66 40.5 C-64.49999141 39.41667856 -62.99999142 38.33334521 -61.5 37.25 C-58.5 35.08333333 -55.5 32.91666667 -52.5 30.75 C-51.75693604 30.2132666 -51.01387207 29.6765332 -50.24829102 29.12353516 C-48.75427963 28.04468015 -47.25997804 26.96622692 -45.76538086 25.88818359 C-41.92122767 23.11462308 -38.08298597 20.33340423 -34.25390625 17.5390625 C-8.09435394 -1.51849565 -8.09435394 -1.51849565 0 0 Z M-13.125 53.1875 C-14.56130527 54.29452059 -15.99885219 55.39993167 -17.4375 56.50390625 C-18.18515625 57.08027832 -18.9328125 57.65665039 -19.703125 58.25048828 C-23.45993219 61.11201893 -27.29001178 63.86960241 -31.125 66.625 C-31.88441895 67.1718042 -32.64383789 67.7186084 -33.42626953 68.28198242 C-38.50241447 71.93315833 -43.58964597 75.56877317 -48.68115234 79.19848633 C-55.70550852 84.2094345 -62.69364103 89.27059054 -69.68554688 94.32666016 C-74.20235771 97.59229533 -78.721505 100.85469618 -83.24023438 104.11767578 C-87.04115775 106.86251144 -90.84147332 109.60818127 -94.640625 112.35546875 C-101.97333833 117.65682231 -109.31361844 122.94655437 -116.68164062 128.19873047 C-123.70564895 133.2098587 -130.69378507 138.27069471 -137.68554688 143.32666016 C-142.20235771 146.59229533 -146.721505 149.85469618 -151.24023438 153.11767578 C-155.04115775 155.86251144 -158.84147332 158.60818127 -162.640625 161.35546875 C-169.97333833 166.65682231 -177.31361844 171.94655437 -184.68164062 177.19873047 C-191.70564895 182.2098587 -198.69378507 187.27069471 -205.68554688 192.32666016 C-210.20235771 195.59229533 -214.721505 198.85469618 -219.24023438 202.11767578 C-223.04115775 204.86251144 -226.84147332 207.60818127 -230.640625 210.35546875 C-237.97333833 215.65682231 -245.31361844 220.94655437 -252.68164062 226.19873047 C-259.70564895 231.2098587 -266.69378507 236.27069471 -273.68554688 241.32666016 C-277.45593019 244.05263139 -281.22803694 246.77621534 -285 249.5 C-286.50000859 250.58332144 -288.00000858 251.66665479 -289.5 252.75 C-298.5 259.25 -307.5 265.75 -316.5 272.25 C-317.6142334 273.05473755 -317.6142334 273.05473755 -318.75097656 273.87573242 C-320.24768701 274.95667191 -321.74443168 276.03756401 -323.24121094 277.1184082 C-327.04182637 279.8629754 -330.84180298 282.60841966 -334.640625 285.35546875 C-341.97333833 290.65682231 -349.31361844 295.94655437 -356.68164062 301.19873047 C-363.70564895 306.2098587 -370.69378507 311.27069471 -377.68554688 316.32666016 C-382.20235771 319.59229533 -386.721505 322.85469618 -391.24023438 326.11767578 C-395.04115775 328.86251144 -398.84147332 331.60818127 -402.640625 334.35546875 C-409.97036718 339.65467424 -417.30713176 344.94304209 -424.67285156 350.19213867 C-430.22911192 354.1553175 -435.75830513 358.15570199 -441.28857422 362.1550293 C-448.17278504 367.13091493 -455.08122773 372.07232136 -462 377 C-460.06322581 385.26927983 -457.687478 393.28011605 -454.9375 401.3125 C-454.130193 403.70268043 -453.32425633 406.09332405 -452.51953125 408.484375 C-452.10396973 409.71865234 -451.6884082 410.95292969 -451.26025391 412.22460938 C-449.16913979 418.48903956 -447.14547041 424.77500611 -445.125 431.0625 C-444.70690576 432.36190978 -444.28877394 433.66130747 -443.87060547 434.96069336 C-443.0163127 437.61606594 -442.16252103 440.271599 -441.30908203 442.92724609 C-439.06449874 449.91121182 -436.81650504 456.89406893 -434.5625 463.875 C-434.33636017 464.57556519 -434.11022034 465.27613037 -433.87722778 465.9979248 C-429.89980095 478.30997743 -425.82967067 490.59009453 -421.70336914 502.85302734 C-419.34711416 509.8681973 -417.08615615 516.90338447 -414.93139648 523.9831543 C-413.53216783 528.51533478 -412.01931465 533.00695463 -410.5 537.5 C-408.24541668 544.21666772 -406.05636858 550.94341169 -403.99609375 557.72265625 C-399.40591262 572.82525221 -394.43082438 587.79504315 -389.40234375 602.75610352 C-386.85709744 610.34066306 -384.366006 617.93535157 -381.99742126 625.57717896 C-379.21407316 634.5560505 -376.34691424 643.50833936 -373.48876953 652.46362305 C-372.50057421 655.56070038 -371.51393092 658.65826944 -370.52734375 661.75585938 C-367.46106571 671.37245291 -364.36614423 680.97577923 -361.15380859 690.54467773 C-359.30388193 696.08467181 -357.51414487 701.64406697 -355.72235107 707.20306396 C-354.53933213 710.87292859 -353.35376114 714.54196823 -352.16796875 718.2109375 C-351.91577576 718.9912735 -351.66358276 719.7716095 -351.40374756 720.57559204 C-348.54352855 729.42005784 -345.66192881 738.25754795 -342.78106689 747.0953064 C-337.49636472 763.30807492 -332.23842488 779.52878659 -327.03564453 795.76806641 C-325.23481315 801.38791689 -323.43022052 807.00655808 -321.625 812.625 C-321.25777832 813.76791504 -320.89055664 814.91083008 -320.51220703 816.08837891 C-317.07723333 826.77216829 -313.62317572 837.44975309 -310.16552734 848.1262207 C-307.87927635 855.18645193 -305.59650494 862.24776045 -303.32421875 869.3125 C-302.67711211 871.32371576 -302.0299561 873.33491562 -301.38275146 875.34609985 C-300.96341581 876.64926822 -300.5441844 877.95247013 -300.12506104 879.25570679 C-297.17679685 888.41895857 -294.17807989 897.56357119 -291.06738281 906.6730957 C-290.67631348 907.82878052 -290.67631348 907.82878052 -290.27734375 909.0078125 C-290.05296631 909.66410645 -289.82858887 910.32040039 -289.59741211 910.99658203 C-288.91317581 913.29116441 -288.46958605 915.65206973 -288 918 C-100.56 918 86.88 918 280 918 C281.65 912.39 283.3 906.78 285 901 C286.2959562 896.84744669 287.60124858 892.70178608 288.9375 888.5625 C289.28321045 887.48669678 289.6289209 886.41089355 289.98510742 885.30249023 C292.11813873 878.68203934 294.29519112 872.07782022 296.51074219 865.48461914 C300.38166131 853.92625703 304.08799389 842.31297249 307.83187866 830.71299744 C309.41538805 825.80743417 311.00296515 820.90320839 312.59375 816 C316.77827937 803.09759357 320.94367805 790.18934174 325.07421875 777.26953125 C325.42882675 776.16044403 325.78343475 775.05135681 326.14878845 773.90866089 C327.91095742 768.39600484 329.67165502 762.88288363 331.43041992 757.36914062 C334.51800268 747.69719977 337.62855185 738.03653758 340.859375 728.41137695 C342.88589122 722.35047988 344.84757068 716.26857839 346.8125 710.1875 C347.03666595 709.49488068 347.26083191 708.80226135 347.49179077 708.08865356 C350.7064648 698.15540668 353.89223691 688.21313209 357.0625 678.265625 C357.77237106 676.04011773 358.48225065 673.81461318 359.19213867 671.58911133 C360.57812986 667.24354688 361.96056526 662.89687235 363.34106445 658.54956055 C366.43297504 648.83843447 369.55334914 639.15074085 373.03840637 629.57225037 C374.71927955 624.92961264 376.14946767 620.24605352 377.5 615.5 C379.14493837 609.75456762 380.96503437 604.11955144 383 598.5 C385.01216541 592.94219672 386.82210905 587.37325106 388.4375 581.6875 C390.48160049 574.49974796 392.89767067 567.4842907 395.41162109 560.44873047 C397.54606576 554.42650581 399.41053291 548.36712101 401.15625 542.22265625 C402.58851824 537.24248172 404.236391 532.37195593 406 527.5 C408.00294955 521.96180015 409.81887762 516.41252268 411.4375 510.75 C413.1902886 504.63485545 415.09214738 498.59034995 417.125 492.5625 C420.25681793 483.27208202 423.29983561 473.95456652 426.3125 464.625 C426.54786469 463.89641785 426.78322937 463.16783569 427.02572632 462.41717529 C428.68548078 457.2786529 430.34307159 452.13943425 432 447 C432.42609973 445.67854591 432.85220627 444.35709401 433.27832031 443.03564453 C433.48238495 442.40275513 433.68644958 441.76986572 433.896698 441.11779785 C434.50701238 439.22513752 435.11751974 437.33253942 435.72802734 435.43994141 C436.53169381 432.9465313 437.33411119 430.45271824 438.13525391 427.95849609 C440.22048828 421.47488941 442.32596538 414.99898214 444.46910095 408.53425598 C445.60272688 405.11255702 446.72987112 401.68873689 447.85671997 398.26480103 C448.40772995 396.59687399 448.96195864 394.93000662 449.51950073 393.26425171 C450.29576115 390.94435772 451.06107974 388.62111236 451.82421875 386.296875 C452.06009705 385.60151138 452.29597534 384.90614777 452.53900146 384.18971252 C453.87426903 380.1346426 453.87426903 380.1346426 453 376 C451.31916036 374.54763649 451.31916036 374.54763649 449.203125 373.21484375 C448.41599121 372.68947021 447.62885742 372.16409668 446.81787109 371.62280273 C445.5467749 370.78857788 445.5467749 370.78857788 444.25 369.9375 C437.38773381 365.34543323 430.78366116 360.60926981 424.28515625 355.515625 C419.85082663 352.07714636 415.24026059 348.88843694 410.64575195 345.66943359 C405.42117384 342.00798224 400.2306688 338.30314679 395.0625 334.5625 C394.31653564 334.02262451 393.57057129 333.48274902 392.80200195 332.92651367 C391.28986573 331.83161956 389.77790301 330.73648578 388.26611328 329.64111328 C384.513552 326.92351827 380.75656581 324.21205527 377 321.5 C375.49997854 320.41669638 373.99997854 319.33336304 372.5 318.25 C371.7575 317.71375 371.015 317.1775 370.25 316.625 C345.5 298.75 345.5 298.75 343.24902344 297.12426758 C341.75231299 296.04332809 340.25556832 294.96243599 338.75878906 293.8815918 C334.95817363 291.1370246 331.15819702 288.39158034 327.359375 285.64453125 C320.58459258 280.74654666 313.80741898 275.85255912 307 271 C299.41340642 265.59201881 291.86409859 260.13272873 284.31445312 254.67333984 C280.54406981 251.94736861 276.77196306 249.22378466 273 246.5 C271.49999141 245.41667856 269.99999142 244.33334521 268.5 243.25 C267.7575 242.71375 267.015 242.1775 266.25 241.625 C259.49999999 236.75 259.49999999 236.75 257.24902344 235.12426758 C255.75231299 234.04332809 254.25556832 232.96243599 252.75878906 231.8815918 C248.95817363 229.1370246 245.15819702 226.39158034 241.359375 223.64453125 C234.58459258 218.74654666 227.80741898 213.85255912 221 209 C213.41340642 203.59201881 205.86409859 198.13272873 198.31445312 192.67333984 C194.54406983 189.94736863 190.77198481 187.22375451 187 184.5 C182.45224422 181.2160604 177.90490626 177.93154955 173.359375 174.64453125 C166.58459258 169.74654666 159.80741898 164.85255912 153 160 C145.41340642 154.59201881 137.86409859 149.13272873 130.31445312 143.67333984 C126.54406981 140.94736861 122.77196306 138.22378466 119 135.5 C117.49999141 134.41667856 115.99999142 133.33334521 114.5 132.25 C113.7575 131.71375 113.015 131.1775 112.25 130.625 C105.49999999 125.75 105.49999999 125.75 103.24902344 124.12426758 C101.75231299 123.04332809 100.25556832 121.96243599 98.75878906 120.8815918 C94.95817363 118.1370246 91.15819702 115.39158034 87.359375 112.64453125 C80.58459258 107.74654666 73.80741898 102.85255912 67 98 C59.41340642 92.59201881 51.86409859 87.13272873 44.31445312 81.67333984 C41.29002213 79.486689 38.26446744 77.30159654 35.23876953 75.11669922 C33.75005991 74.04164632 32.2614526 72.96645172 30.77294922 71.89111328 C26.89975054 69.09309762 23.02515948 66.29703867 19.1484375 63.50390625 C18.34921875 62.92769531 17.55 62.35148437 16.7265625 61.7578125 C15.21398684 60.66735098 13.70099941 59.57746029 12.1875 58.48828125 C11.49398438 57.988125 10.80046875 57.48796875 10.0859375 56.97265625 C9.07418457 56.2458667 9.07418457 56.2458667 8.04199219 55.50439453 C6.62214984 54.45835573 5.22288674 53.38403845 3.84082031 52.28857422 C3.14311523 51.73830566 2.44541016 51.18803711 1.7265625 50.62109375 C1.10604004 50.11892334 0.48551758 49.61675293 -0.15380859 49.09936523 C-5.45139493 45.94477237 -9.09756795 50.00194386 -13.125 53.1875 Z " fill="#A50B15" transform="translate(516,33)"/>
<path d="M0 0 C3.69486564 2.46324376 3.62746483 3.41362005 4.54296875 7.640625 C4.80803223 8.83776123 5.0730957 10.03489746 5.34619141 11.26831055 C5.62687034 12.59548905 5.907299 13.92272051 6.1875 15.25 C6.48780289 16.6275711 6.78909361 18.00492719 7.09130859 19.38208008 C9.68945594 31.28805218 12.15427123 43.22378643 14.63861084 55.15393066 C16.86749397 65.85203549 19.249372 76.47866042 21.9921875 87.05859375 C23.18054259 91.64459391 24.16731392 96.26469606 25.1328125 100.90234375 C26.30183502 106.4891168 27.5671021 112.05487594 28.8125 117.625 C31.96033206 131.73198795 34.99295647 145.86238323 38 160 C41.9220105 159.14391597 44.66667464 157.47873124 48.0625 155.3125 C52.96458535 152.19188942 57.95896551 149.36749888 63.07104492 146.60424805 C67.97866245 143.91624648 72.79877341 141.08077131 77.625 138.25 C78.67260498 137.63729248 79.72020996 137.02458496 80.79956055 136.39331055 C87.49140254 132.47739688 94.17426034 128.54629321 100.85375977 124.609375 C106.68695258 121.17504165 112.54363107 117.78204872 118.40551758 114.39697266 C122.99534182 111.74486763 127.57752745 109.0802677 132.15234375 106.40234375 C133.20607178 105.78584961 134.2597998 105.16935547 135.34545898 104.53417969 C137.38612601 103.33956585 139.42605314 102.14368683 141.46508789 100.94628906 C144.30323901 99.28542546 147.15012184 97.64064537 150 96 C151.47919922 95.1330249 151.47919922 95.1330249 152.98828125 94.24853516 C153.95121094 93.69858887 154.91414063 93.14864258 155.90625 92.58203125 C156.76541016 92.08550049 157.62457031 91.58896973 158.50976562 91.07739258 C161.21718463 89.90603571 163.0824927 89.78419065 166 90 C165.4647229 94.2943555 164.49364988 97.41488526 162.33984375 101.16015625 C161.79787354 102.11148438 161.25590332 103.0628125 160.69750977 104.04296875 C160.11670654 105.03941406 159.53590332 106.03585937 158.9375 107.0625 C158.34187256 108.09890625 157.74624512 109.1353125 157.13256836 110.203125 C153.59464054 116.33380248 149.99604804 122.41789138 146.234375 128.4140625 C144.31580004 131.47236674 142.44552786 134.55864282 140.578125 137.6484375 C139.95929443 138.67130859 139.34046387 139.69417969 138.70288086 140.74804688 C137.47006813 142.78729076 136.23902552 144.82760612 135.01000977 146.86914062 C132.57996187 150.88047513 130.17029606 154.85548832 127.38671875 158.6328125 C125.06106155 161.79860395 123.2241565 165.14083843 121.35302734 168.58984375 C118.86888849 173.01485615 116.06645902 177.23978628 113.3125 181.5 C108.83728529 188.48325011 104.41597385 195.48910595 100.1875 202.625 C99.77346924 203.31658203 99.35943848 204.00816406 98.93286133 204.72070312 C97.13008773 207.79418307 95.75297948 210.52274171 95 214 C120.96249508 219.36610004 120.96249508 219.36610004 146.95361328 224.59130859 C148.93790722 224.98759922 150.92016796 225.39402846 152.90234375 225.80078125 C160.45390971 227.34596001 168.01819723 228.69493913 175.62329102 229.94116211 C191.55984463 232.55984463 191.55984463 232.55984463 193 234 C195.68544346 234.56274765 198.36253387 235.08061023 201.0625 235.5625 C201.82111328 235.70107422 202.57972656 235.83964844 203.36132812 235.98242188 C205.24024975 236.32511827 207.12004701 236.6630073 209 237 C209.33 238.32 209.66 239.64 210 241 C204.41928914 244.0318285 198.73605526 246.55525668 192.7734375 248.734375 C184.46920131 251.80956455 176.2120105 254.99837845 167.96142578 258.21435547 C165.60623251 259.13231481 163.25042705 260.04868911 160.89453125 260.96484375 C153.97416452 263.65794485 147.05933046 266.36197788 140.16943359 269.13232422 C136.45746805 270.61694334 132.72832643 272.05707971 129 273.5 C123.53538437 275.61853258 118.08288373 277.76017813 112.65234375 279.96484375 C110.40360564 280.84248086 108.1477341 281.68031511 105.87890625 282.50390625 C105.14752441 282.77130615 104.41614258 283.03870605 103.66259766 283.31420898 C102.19967641 283.84727476 100.73454343 284.37431632 99.26708984 284.89477539 C95.42074154 286.05781295 95.42074154 286.05781295 93 289 C93.75437217 290.83365762 93.75437217 290.83365762 94.9921875 292.82421875 C95.44505127 293.59725342 95.89791504 294.37028809 96.36450195 295.16674805 C97.11219849 296.41452026 97.11219849 296.41452026 97.875 297.6875 C98.63719849 298.98071167 98.63719849 298.98071167 99.41479492 300.30004883 C100.93410813 302.87223823 102.46459127 305.43739206 104 308 C104.3904248 308.65226562 104.78084961 309.30453125 105.18310547 309.9765625 C106.57524894 312.29914637 107.96967891 314.62029843 109.37036133 316.93774414 C113.62895971 323.99994312 117.7532155 331.14086677 121.88867188 338.27563477 C125.65690352 344.75911875 129.52753453 351.14639584 133.64453125 357.4140625 C135.15596839 360.29755353 135.63657681 362.78110885 136 366 C131.22542899 365.48553772 127.91173362 363.23413249 124.0625 360.5625 C123.40572266 360.11583984 122.74894531 359.66917969 122.07226562 359.20898438 C117.09092556 355.80371547 112.17906003 352.3013887 107.29150391 348.76318359 C102.31843863 345.17801596 97.22415395 341.79082173 92.06054688 338.48632812 C86.0512378 334.57007522 81.91405129 330.34645605 78.4375 324 C77.74789115 322.75883925 77.05775171 321.51797321 76.3671875 320.27734375 C75.99303711 319.59913574 75.61888672 318.92092773 75.23339844 318.22216797 C72.87967525 313.98155268 70.4672867 309.77429047 68.0625 305.5625 C67.55428711 304.66660156 67.04607422 303.77070312 66.52246094 302.84765625 C64.15091501 298.68269492 61.74917147 294.55227616 59.1953125 290.49609375 C58.76984131 289.81538818 58.34437012 289.13468262 57.90600586 288.43334961 C57.1176236 287.18245818 56.31706636 285.93912303 55.50219727 284.70532227 C53.921711 282.19259463 53.01413725 280.36539358 52.8984375 277.375 C54.45654253 274.01568136 56.92791371 272.46329285 59.9375 270.5 C61.20393584 269.63660481 62.46951648 268.77195429 63.734375 267.90625 C64.75821289 267.21402344 64.75821289 267.21402344 65.80273438 266.5078125 C69.82061782 263.75065159 73.74713575 260.86629915 77.6875 258 C79.21162713 256.8949881 80.73632798 255.79076689 82.26171875 254.6875 C82.91100342 254.21699219 83.56028809 253.74648438 84.22924805 253.26171875 C85.79811759 252.14384783 87.39714477 251.06857015 89 250 C89 249.34 89 248.68 89 248 C82.18895275 246.38050984 75.37925492 244.86533496 68.5 243.5625 C61.49447156 242.19201161 54.76986498 240.24901079 48 238 C47.46188178 232.29594685 49.24513604 228.69160069 51.75 223.75 C52.56816038 222.08289097 53.38445675 220.41486629 54.19921875 218.74609375 C54.64442871 217.83972168 55.08963867 216.93334961 55.54833984 215.99951172 C58.30229241 210.30912133 60.92388571 204.55703236 63.5625 198.8125 C64.60541526 196.54815245 65.64837963 194.28382751 66.69140625 192.01953125 C67.46107484 190.34641734 68.23066205 188.67326597 69 187 C61.86836461 190.82751741 54.85869839 194.80467217 47.9375 199 C42.96484375 202 42.96484375 202 40.50732422 203.46875 C38.75006399 204.54192782 37.01343624 205.64928461 35.29345703 206.78125 C34.41415527 207.3484375 33.53485352 207.915625 32.62890625 208.5 C31.83685791 209.0259375 31.04480957 209.551875 30.22875977 210.09375 C28 211 28 211 25.79248047 210.29638672 C23.39958355 208.56575711 22.71991062 206.82428981 21.5625 204.125 C18.73793408 198.19426491 15.87873563 195.58019636 9.75 193.25 C2.25010025 191.00251349 -3.94431188 191.22215594 -11 194.75 C-17.32428922 198.70268076 -19.9697003 205.47518448 -23 212 C-27.84479455 211.42907548 -31.56145926 209.98530098 -35.9296875 207.83984375 C-36.88248093 207.37584923 -36.88248093 207.37584923 -37.85452271 206.90248108 C-39.86497898 205.92137458 -41.86997655 204.92965421 -43.875 203.9375 C-45.24444395 203.26686762 -46.61423249 202.59693841 -47.984375 201.92773438 C-51.32694095 200.29327029 -54.66470045 198.64925075 -58 197 C-57.34299066 202.21152515 -56.18898772 206.21685136 -54 211 C-52.96120643 213.58962135 -51.97884892 216.19970198 -51 218.8125 C-50.60917236 219.85374023 -50.60917236 219.85374023 -50.21044922 220.91601562 C-48.2441158 226.2136794 -46.49398461 231.54826667 -45 237 C-49.87574287 238.74189219 -54.76227582 239.91447742 -59.8125 241 C-60.56853516 241.165 -61.32457031 241.33 -62.10351562 241.5 C-63.62951783 241.83304055 -65.15572247 242.16515494 -66.68212891 242.49633789 C-69.06356158 243.01381162 -71.44431364 243.53413769 -73.82421875 244.05859375 C-74.53022217 244.21384521 -75.23622559 244.36909668 -75.96362305 244.52905273 C-77.98902854 244.99746266 -79.99345733 245.51945091 -82 246.0625 C-86.28657309 247.16007013 -90.59947982 247.61291721 -95 248 C-87.36555857 256.68746783 -76.08628384 261.78640522 -65.97314453 267.05615234 C-63.76528475 268.20960018 -61.57010602 269.38499441 -59.375 270.5625 C-58.6631958 270.92649902 -57.9513916 271.29049805 -57.21801758 271.66552734 C-54.33630473 273.22819318 -52.3212008 274.35652415 -50.83203125 277.33984375 C-51.06604116 281.04590773 -52.56023925 283.80822428 -54.3125 287 C-55.05978693 288.42056516 -55.80444501 289.84251543 -56.546875 291.265625 C-56.94583984 292.02552734 -57.34480469 292.78542969 -57.75585938 293.56835938 C-59.97529831 297.90619529 -62.00148795 302.3353509 -64.0625 306.75 C-67.67192286 314.42114913 -71.50091271 321.80443986 -76 329 C-69.30883572 327.46079296 -62.91092296 325.34010847 -56.4375 323.0625 C-54.93413086 322.54139648 -54.93413086 322.54139648 -53.40039062 322.00976562 C-49.21293658 320.54594858 -45.07621755 319.07980742 -41.03515625 317.24609375 C-38 316 -38 316 -34 316 C-34 316.66 -34 317.32 -34 318 C-35.92536129 319.52605002 -37.85168892 320.92584948 -39.875 322.3125 C-41.16848053 323.21671626 -42.46142354 324.12170179 -43.75390625 325.02734375 C-44.44500488 325.50929199 -45.13610352 325.99124023 -45.84814453 326.48779297 C-49.5320022 329.07660785 -53.16889961 331.7299926 -56.8125 334.375 C-69.39344714 343.47496774 -82.0352762 352.45276042 -95 361 C-96.12302952 361.75035454 -97.24539599 362.50170214 -98.3671875 363.25390625 C-106.53916847 368.7304929 -114.76571425 374.11757454 -123.03515625 379.44604492 C-127.78279865 382.51572342 -132.41795996 385.68846143 -137 389 C-140.35329341 391.10778443 -140.35329341 391.10778443 -143.25 390.625 C-144.11625 390.315625 -144.11625 390.315625 -145 390 C-144.45165818 385.22028713 -142.22915885 381.6940959 -139.75 377.6875 C-134.78978075 369.48726297 -130.21611553 361.10806274 -125.73144531 352.6394043 C-122.59069564 346.75863148 -119.24340078 341.10482595 -115.57788086 335.53466797 C-113.9526822 332.92398988 -112.58434763 330.26917169 -111.25 327.5 C-105.44512576 315.56343555 -98.57391672 304.02743645 -91.14453125 293.03125 C-89.75455127 290.95297595 -89.75455127 290.95297595 -90 288 C-90.86782104 287.63032104 -90.86782104 287.63032104 -91.75317383 287.25317383 C-94.44019205 286.1076288 -97.12634657 284.9600713 -99.8125 283.8125 C-100.72193359 283.42513672 -101.63136719 283.03777344 -102.56835938 282.63867188 C-107.17580296 280.66870483 -111.76318265 278.66595961 -116.3203125 276.58203125 C-122.8627565 273.59141527 -129.46013776 270.73027932 -136.0625 267.875 C-137.03336044 267.45463974 -137.03336044 267.45463974 -138.02383423 267.02578735 C-150.34540017 261.69212257 -162.70057482 256.43971038 -175.07568359 251.23144531 C-177.88098561 250.0501176 -180.68486897 248.86549164 -183.48828125 247.6796875 C-184.33511475 247.32205322 -185.18194824 246.96441895 -186.05444336 246.59594727 C-187.64575001 245.92349034 -189.23644182 245.24957599 -190.82641602 244.57397461 C-195.62256916 242.54497638 -200.44881186 240.65749632 -205.3828125 238.984375 C-207 238 -207 238 -207.60107422 235.93847656 C-207.73271973 235.2987793 -207.86436523 234.65908203 -208 234 C-201.11765911 231.36144438 -194.41559926 230.17381249 -187.125 229.25 C-174.50320584 227.5508131 -161.94092595 225.56933822 -149.375 223.5 C-145.67457334 222.89265444 -141.9740121 222.28613092 -138.2734375 221.6796875 C-137.38419586 221.53387238 -136.49495422 221.38805725 -135.57876587 221.23782349 C-128.05677512 220.00581773 -120.53161179 218.79700816 -113 217.625 C-111.52732666 217.39200195 -111.52732666 217.39200195 -110.02490234 217.15429688 C-103.69966549 216.17929996 -97.37917468 215.51051906 -91 215 C-93.8803564 209.65066376 -96.89419575 204.51512882 -100.375 199.53125 C-101.79869088 197.31357766 -103.07443466 195.08305306 -104.33984375 192.7734375 C-106.90717727 188.10642957 -109.69496192 183.61211748 -112.5625 179.125 C-113.08352295 178.30402832 -113.6045459 177.48305664 -114.14135742 176.63720703 C-116.25037003 173.31439474 -118.36479866 169.99506508 -120.48242188 166.67773438 C-126.59458552 157.09897045 -132.55718607 147.44831641 -138.375 137.6875 C-143.23943188 129.52798868 -148.19569982 121.44131177 -153.3125 113.4375 C-153.88540771 112.53942627 -154.45831543 111.64135254 -155.04858398 110.71606445 C-157.7214575 106.53432937 -160.41261732 102.36594795 -163.1328125 98.21484375 C-164.06782345 96.76830357 -165.00272632 95.32169352 -165.9375 93.875 C-166.36909424 93.22974365 -166.80068848 92.5844873 -167.24536133 91.91967773 C-170.05495271 87.54254898 -170.05495271 87.54254898 -169.75390625 84.5703125 C-169.50511719 84.05210937 -169.25632812 83.53390625 -169 83 C-164.25171848 83.57527257 -160.56493234 85.69946227 -156.5 88.0625 C-155.79077393 88.46879639 -155.08154785 88.87509277 -154.35083008 89.29370117 C-146.22360793 93.97627287 -138.26469779 98.91747997 -130.35546875 103.95703125 C-122.82035307 108.75284863 -115.33796187 113.48891346 -107.4375 117.66796875 C-102.80655104 120.19866361 -98.43028629 123.13743579 -94 126 C-81.86838263 133.7554406 -69.62417354 141.31399669 -57.30859375 148.7734375 C-54.10077065 150.71760723 -50.90267075 152.67473486 -47.72265625 154.6640625 C-47.11212402 155.04530273 -46.5015918 155.42654297 -45.87255859 155.81933594 C-44.32299408 156.79011498 -42.77657692 157.76591312 -41.23046875 158.7421875 C-39.13643156 160.16373416 -39.13643156 160.16373416 -37 160 C-35.14335755 154.98706539 -34.24481935 150.05830764 -33.375 144.8125 C-31.63562418 134.81645219 -29.47296313 124.94436374 -27.1875 115.0625 C-26.92726547 113.93690674 -26.92726547 113.93690674 -26.66177368 112.78857422 C-25.95546455 109.73692159 -25.24790171 106.68556413 -24.53843689 103.63464355 C-22.84907182 96.36745643 -21.20110524 89.09131164 -19.5625 81.8125 C-19.28446533 80.57894775 -19.00643066 79.34539551 -18.7199707 78.07446289 C-18.13387333 75.47368682 -17.54800802 72.87285939 -16.96240234 70.27197266 C-16.08448258 66.37367937 -15.20464885 62.47581954 -14.32461548 58.57800293 C-13.53776414 55.0921528 -12.75170491 51.60612435 -11.96582031 48.12005615 C-11.57398261 46.38240976 -11.1818954 44.64481961 -10.78955078 42.9072876 C-8.9508397 34.76245695 -7.11748481 26.61776675 -5.38671875 18.44921875 C-5.15742676 17.36898438 -4.92813477 16.28875 -4.69189453 15.17578125 C-4.28709875 13.25386491 -3.88787352 11.33076236 -3.49560547 9.40625 C-3.32303223 8.58511719 -3.15045898 7.76398438 -2.97265625 6.91796875 C-2.83093994 6.22469482 -2.68922363 5.5314209 -2.54321289 4.81713867 C-2 3 -2 3 0 0 Z " fill="#A50D17" transform="translate(703,285)"/>
<path d="M0 0 C0.77593506 0.21237305 1.55187012 0.42474609 2.35131836 0.64355469 C8.41449641 2.33255358 13.78206254 4.63574601 19.3125 7.625 C20.13572754 8.06593994 20.95895508 8.50687988 21.80712891 8.96118164 C34.00474669 15.60760953 44.57183674 23.89450098 55 33 C55.72832031 33.61617187 56.45664062 34.23234375 57.20703125 34.8671875 C68.53695438 44.51262104 78.27279453 55.58668267 87.6875 67.0625 C88.58553345 68.15570557 88.58553345 68.15570557 89.50170898 69.27099609 C93.54549766 74.20338292 97.56803509 79.15258207 101.5625 84.125 C102.03840576 84.71547119 102.51431152 85.30594238 103.00463867 85.91430664 C111.81186764 96.92764555 111.81186764 96.92764555 112.625 101.5625 C111.38845776 108.36348231 105.71229995 112.25691142 100.4375 116.1875 C95.59790339 119.88072477 91.00286074 123.71020867 86.5625 127.875 C76.27888065 137.43027984 76.27888065 137.43027984 70.5 138.875 C62.2744135 136.81860338 58.12430977 126.08600618 53.9074707 119.23193359 C47.34169918 108.6023446 39.92322272 98.65642769 32 89 C31.2575 88.071875 30.515 87.14375 29.75 86.1875 C16.63052262 69.87679839 -0.81304241 53.91935909 -22.53125 51.171875 C-23.3459375 51.11515625 -24.160625 51.0584375 -25 51 C-25.8146875 50.94328125 -26.629375 50.8865625 -27.46875 50.828125 C-52.75734733 50.02785293 -72.64309155 64.85141399 -90.25390625 81.34765625 C-93.75130036 84.72565141 -96.9123229 88.24970193 -100 92 C-100.76828125 92.90363281 -101.5365625 93.80726563 -102.328125 94.73828125 C-109.61023831 103.34949193 -116.5023088 112.18444502 -122.6875 121.625 C-124.79300731 124.64467677 -125.87995032 125.93037118 -129.125 127.8125 C-134.99412993 128.19526934 -139.18526205 123.29265779 -143.375 119.625 C-143.97425293 119.10478271 -144.57350586 118.58456543 -145.19091797 118.04858398 C-146.46626171 116.94136123 -147.74048512 115.83284691 -149.01367188 114.72314453 C-151.03574517 112.96899098 -153.07069356 111.23090538 -155.109375 109.49609375 C-156.44796716 108.35162156 -157.78651015 107.20709184 -159.125 106.0625 C-159.75196777 105.53156738 -160.37893555 105.00063477 -161.02490234 104.45361328 C-165.06285808 100.98231111 -168.93711627 97.59077909 -171 92.5625 C-171 86.85133839 -165.30215428 81.82158977 -161.6875 77.625 C-161.20039551 77.05483154 -160.71329102 76.48466309 -160.21142578 75.8972168 C-158.81153934 74.26138662 -157.4069324 72.62977115 -156 71 C-155.03126953 69.87658203 -155.03126953 69.87658203 -154.04296875 68.73046875 C-150.14459056 64.24779032 -146.16369467 59.84014714 -142.1796875 55.43359375 C-140.29825132 53.33299385 -138.45717306 51.20587949 -136.625 49.0625 C-128.40617727 39.69642742 -119.57293197 31.70860315 -109.63427734 24.23730469 C-108.18444365 23.13964153 -106.75649365 22.0132058 -105.33203125 20.8828125 C-91.84752444 10.47151887 -76.3305267 3.54404498 -60 -1 C-58.85273438 -1.33902344 -57.70546875 -1.67804687 -56.5234375 -2.02734375 C-38.34323586 -6.56194577 -17.79259814 -5.59998615 0 0 Z " fill="#A50C16" transform="translate(415,793)"/>
<path d="M0 0 C3.69514718 0.22951225 6.62189525 0.89541896 10.1484375 1.984375 C18.30859254 4.37477756 26.61885573 5.57784679 35.02880859 6.75097656 C48.21817641 8.67911391 48.21817641 8.67911391 52.7734375 13.234375 C53.93072511 20.84825981 51.82665103 28.24208468 49.8984375 35.546875 C46.46774801 48.76898209 44.41121119 61.29276465 44.5234375 74.984375 C44.53165527 76.20866211 44.53987305 77.43294922 44.54833984 78.69433594 C44.78124921 97.65265729 46.60122835 115.82692078 58.7734375 131.234375 C59.22203125 131.84410156 59.670625 132.45382812 60.1328125 133.08203125 C73.12741789 149.69030499 94.32410341 151.64011905 113.7734375 154.234375 C114.55477051 154.33967529 115.33610352 154.44497559 116.14111328 154.5534668 C120.19614683 155.05458472 124.20395992 155.30826584 128.2890625 155.41015625 C129.23007812 155.43400391 130.17109375 155.45785156 131.140625 155.48242188 C133.07789287 155.52573477 135.01546988 155.55679532 136.953125 155.57617188 C141.2698281 155.70400812 144.10483669 155.87043219 147.9453125 157.9609375 C149.7734375 160.234375 149.7734375 160.234375 150.1484375 162.58203125 C149.9628125 163.92587891 149.9628125 163.92587891 149.7734375 165.296875 C149.57041016 166.89402344 149.57041016 166.89402344 149.36328125 168.5234375 C147.60061277 179.61307365 147.60061277 179.61307365 146.92724609 183.57885742 C146.19251477 188.03344104 145.63840847 192.44530556 145.30859375 196.94921875 C145.23761475 197.8935376 145.16663574 198.83785645 145.09350586 199.81079102 C144.96622724 201.636817 144.85806729 203.46430553 144.77172852 205.29272461 C144.49282099 209.25367062 143.97282131 211.86225314 142.078125 215.3984375 C136.50334728 218.49553623 130.88545671 217.14795917 124.7734375 216.234375 C124.04578186 216.12617432 123.31812622 216.01797363 122.56842041 215.90649414 C117.73022025 215.16436662 112.91294479 214.3245481 108.09838867 213.44287109 C105.60846645 212.9884863 103.11609906 212.55012433 100.62304688 212.11328125 C85.87465763 209.4800358 71.06250414 206.24732151 57.0234375 200.921875 C56.24742187 200.63046631 55.47140625 200.33905762 54.671875 200.03881836 C42.7038423 195.40978932 31.80184897 189.28167609 21.7734375 181.234375 C20.49533203 180.22117187 20.49533203 180.22117187 19.19140625 179.1875 C-3.16918461 160.36475992 -11.11004008 130.6982306 -13.7890625 102.77734375 C-14.426773 94.62523487 -14.46872037 86.46969781 -14.4765625 78.296875 C-14.47790192 77.46688995 -14.47924133 76.63690491 -14.48062134 75.7817688 C-14.47517724 60.10106577 -13.28283708 44.78806441 -11.2265625 29.234375 C-10.97185025 27.15374435 -10.71791774 25.07301806 -10.46484375 22.9921875 C-10.22146621 21.09339987 -9.9755354 19.19493706 -9.7265625 17.296875 C-9.62045654 16.45632568 -9.51435059 15.61577637 -9.4050293 14.74975586 C-8.53049662 8.59613317 -7.28468508 0.52915388 0 0 Z " fill="#A50C16" transform="translate(436.2265625,560.765625)"/>
<path d="M0 0 C2.66242259 2.86925678 3.53657771 5.3580133 4.24609375 9.1640625 C4.5395166 10.70429077 4.5395166 10.70429077 4.83886719 12.27563477 C5.03641602 13.38092529 5.23396484 14.48621582 5.4375 15.625 C5.75509277 17.34771118 5.75509277 17.34771118 6.07910156 19.10522461 C12.63439738 55.19620674 12.63439738 55.19620674 12.94433594 70.34033203 C12.98692923 72.37546944 13.04517709 74.41028478 13.11035156 76.44482422 C14.16803453 111.61056083 8.33283837 143.80119068 -16.43603516 170.41992188 C-41.22199082 195.4612433 -80.98919824 209.69583691 -115.75 210.375 C-116.86181641 210.43107422 -116.86181641 210.43107422 -117.99609375 210.48828125 C-121.5592175 210.54585417 -123.59065114 210.31337712 -126.44921875 208.125 C-128.66103324 203.6679431 -128.80730976 199.54593906 -129.0625 194.625 C-129.20095236 192.56607947 -129.34433318 190.50748548 -129.4921875 188.44921875 C-129.56791992 187.39009277 -129.64365234 186.3309668 -129.72167969 185.23974609 C-130.2598829 178.97487186 -131.18846257 172.75602899 -132.12329102 166.53955078 C-133.46037409 157.13878945 -133.46037409 157.13878945 -132 153 C-127.83592308 149.11075216 -122.64268847 149.46916485 -117.25 149.1875 C-99.29915085 147.85993552 -80.8059766 144.80547596 -66 134 C-65.15695312 133.40703125 -64.31390625 132.8140625 -63.4453125 132.203125 C-51.63050023 122.89448503 -46.13285502 107.44316396 -44 93 C-43.67444178 88.43441677 -43.61890289 83.88868242 -43.625 79.3125 C-43.62661133 78.04317627 -43.62822266 76.77385254 -43.62988281 75.46606445 C-43.83594856 59.34748063 -46.89001779 43.93874482 -51.265625 28.47265625 C-52.13641261 24.35494251 -52.40296592 21.20048169 -52 17 C-49.42899853 14.58532865 -46.9444683 13.4655327 -43.5859375 12.5 C-42.74160156 12.2525 -41.89726562 12.005 -41.02734375 11.75 C-40.15207031 11.5025 -39.27679688 11.255 -38.375 11 C-37.09689453 10.62875 -37.09689453 10.62875 -35.79296875 10.25 C-34.06816603 9.7489983 -32.34273774 9.25014541 -30.61669922 8.75341797 C-21.69707385 6.29817709 -21.69707385 6.29817709 -13.125 2.875 C-8.82834231 0.82972752 -4.81632816 -0.61747797 0 0 Z " fill="#A50C16" transform="translate(323,574)"/>
<path d="M0 0 C0.8353125 0.61359375 1.670625 1.2271875 2.53125 1.859375 C5.19048364 4.16516619 6.82978728 6.39431038 8.6875 9.375 C9.26886719 10.29023437 9.85023438 11.20546875 10.44921875 12.1484375 C15.40210691 21.25576333 15.32811013 32.27196905 13.34765625 42.3046875 C9.62206526 53.59338809 2.37838225 60.56791057 -8 66 C-16.56061011 70.11201956 -25.76444113 70.349444 -34.75 67.375 C-44.7828986 63.24380646 -53.60151194 55.46722793 -58.5 45.6875 C-61.92855896 35.81881001 -61.92053569 22.69682588 -57.4375 13.25 C-55.76171875 10.4765625 -55.76171875 10.4765625 -54 8 C-53.20529297 6.86691406 -53.20529297 6.86691406 -52.39453125 5.7109375 C-46.81320284 -1.36846718 -39.12669017 -6.22492871 -30.2109375 -7.7578125 C-18.58366757 -9.03147104 -9.32471001 -7.23140776 0 0 Z " fill="#A50C16" transform="translate(727,522)"/>
</svg>
