<svg xmlns="http://www.w3.org/2000/svg" width="1024" height="1024"><path fill="#fefefe" d="M516 33c7.287 3.223 13.578 8.053 19.803 12.961 4.36 3.435 8.837 6.67 13.385 9.852a1409 1409 0 0 1 17.75 12.624l2.26 1.636 4.536 3.286c3.752 2.717 7.51 5.429 11.266 8.141l4.5 3.25 2.25 1.625 27 19.5 4.498 3.248q5.647 4.077 11.287 8.162c7.27 5.264 14.556 10.497 21.903 15.653 6.902 4.846 13.697 9.828 20.474 14.849 5.859 4.331 11.782 8.56 17.746 12.746 7.41 5.204 14.744 10.513 22.076 15.826 3.752 2.717 7.51 5.429 11.266 8.141l4.5 3.25 2.25 1.625 63.001 45.5q2.245 1.623 4.49 3.243 5.7 4.117 11.4 8.237A3748 3748 0 0 0 834 261c7.587 5.408 15.136 10.867 22.686 16.327q5.656 4.089 11.314 8.173l4.5 3.25 2.25 1.625 27.001 19.5q2.245 1.623 4.49 3.243 5.7 4.117 11.4 8.237A3748 3748 0 0 0 938 336c7.587 5.408 15.136 10.867 22.686 16.327a18675 18675 0 0 0 13.543 9.784q5.788 4.183 11.587 8.35a2176 2176 0 0 1 11.308 8.185 298 298 0 0 0 4.794 3.374c6.602 4.721 11.56 10.933 13.27 19.043.12 4.326-.96 8.152-2.211 12.25l-.669 2.226c-2.857 9.418-5.953 18.76-9.035 28.105q-2.84 8.62-5.664 17.247l-1.17 3.568c-3.89 11.892-7.702 23.808-11.501 35.729a6826 6826 0 0 1-17.204 53.16 3271 3271 0 0 0-12.984 40.465 1799 1799 0 0 1-11.5 35.437c-4.778 14.209-9.387 28.467-13.937 42.75a6382 6382 0 0 1-16.813 52 6894 6894 0 0 0-17.557 54.307A6187 6187 0 0 1 880 824.5c-5.4 16.48-10.73 32.979-16 49.5a7757 7757 0 0 1-21.253 65.601 1728 1728 0 0 0-5.212 16.13c-.984 3.092-1.98 6.18-2.978 9.268a495 495 0 0 0-1.32 4.178c-2.737 8.793-5.131 15.76-13.362 20.698-3.854 1.508-7.084 2.25-11.223 2.253l-2.636.009-2.888-.006-3.086.007q-5.162.006-10.323.002l-7.443.01q-9.181.01-18.363.01-10.995.002-21.99.014c-17.716.016-35.433.022-53.149.027q-12.568.003-25.137.01a262743 262743 0 0 1-107.701.03h-2.72c-29.116.003-58.232.02-87.347.042a121461 121461 0 0 1-102.452.04h-2.52q-20.087.005-40.175.027-20.182.022-40.366.01-11.996-.007-23.99.015c-5.967.011-11.934.006-17.901-.005q-3.626-.002-7.252.01c-3.28.011-6.559.004-9.838-.008l-2.86.023c-7.778-.062-15.008-1.751-20.882-7.198-2.124-2.858-3.164-5.688-4.383-9.037l-.77-2.109c-3.506-9.733-6.668-19.585-9.855-29.426l-2.105-6.473c-5.225-16.076-10.38-32.174-15.517-48.278A6272 6272 0 0 0 150 843.5a7043 7043 0 0 1-17-52.635 6277 6277 0 0 0-15-46.365 6996 6996 0 0 1-16.996-52.623 6610 6610 0 0 0-16.267-50.219 3562 3562 0 0 1-13.855-43.216c-3.117-9.93-6.31-19.828-9.632-29.692-4.364-12.958-8.537-25.972-12.687-39a6468 6468 0 0 0-17.144-52.999l-3.662-11.168a8969 8969 0 0 0-9.53-28.956 3941 3941 0 0 1-3.147-9.551q-.69-2.096-1.392-4.189C7.162 403.402 7.162 403.402 12 393c3.777-6.128 8.351-10.173 14.25-14.187l4.828-3.387 2.479-1.72c3.849-2.687 7.644-5.448 11.443-8.206l4.5-3.25 2.25-1.625 78.75-56.875 2.25-1.625 4.498-3.248q5.647-4.077 11.287-8.162c7.27-5.264 14.556-10.497 21.903-15.652 6.083-4.272 12.09-8.638 18.062-13.063a968 968 0 0 1 20.158-14.533c7.41-5.204 14.744-10.513 22.076-15.826 3.752-2.717 7.51-5.429 11.266-8.141l4.5-3.25 63-45.5 2.251-1.626 4.49-3.242q5.7-4.117 11.4-8.237a4057 4057 0 0 1 22.04-15.844c7.025-5.01 14.013-10.072 21.005-15.128q6.776-4.897 13.554-9.79 5.702-4.118 11.4-8.238A4057 4057 0 0 1 417.683 96.8c7.024-5.01 14.012-10.072 21.004-15.128Q444.342 77.584 450 73.5l4.5-3.25 9-6.5 6.735-4.862q5.767-4.159 11.511-8.349C507.906 31.482 507.906 31.482 516 33"/><path fill="#a50b15" d="M516 33c7.287 3.223 13.578 8.053 19.803 12.961 4.36 3.435 8.837 6.67 13.385 9.852a1409 1409 0 0 1 17.75 12.624l2.26 1.636 4.536 3.286c3.752 2.717 7.51 5.429 11.266 8.141l4.5 3.25 2.25 1.625 27 19.5 4.498 3.248q5.647 4.077 11.287 8.162c7.27 5.264 14.556 10.497 21.903 15.653 6.902 4.846 13.697 9.828 20.474 14.849 5.859 4.331 11.782 8.56 17.746 12.746 7.41 5.204 14.744 10.513 22.076 15.826 3.752 2.717 7.51 5.429 11.266 8.141l4.5 3.25 2.25 1.625 63.001 45.5q2.245 1.623 4.49 3.243 5.7 4.117 11.4 8.237A3748 3748 0 0 0 834 261c7.587 5.408 15.136 10.867 22.686 16.327q5.656 4.089 11.314 8.173l4.5 3.25 2.25 1.625 27.001 19.5q2.245 1.623 4.49 3.243 5.7 4.117 11.4 8.237A3748 3748 0 0 0 938 336c7.587 5.408 15.136 10.867 22.686 16.327a18675 18675 0 0 0 13.543 9.784q5.788 4.183 11.587 8.35a2176 2176 0 0 1 11.308 8.185 298 298 0 0 0 4.794 3.374c6.602 4.721 11.56 10.933 13.27 19.043.12 4.326-.96 8.152-2.211 12.25l-.669 2.226c-2.857 9.418-5.953 18.76-9.035 28.105q-2.84 8.62-5.664 17.247l-1.17 3.568c-3.89 11.892-7.702 23.808-11.501 35.729a6826 6826 0 0 1-17.204 53.16 3271 3271 0 0 0-12.984 40.465 1799 1799 0 0 1-11.5 35.437c-4.778 14.209-9.387 28.467-13.937 42.75a6382 6382 0 0 1-16.813 52 6894 6894 0 0 0-17.557 54.307A6187 6187 0 0 1 880 824.5c-5.4 16.48-10.73 32.979-16 49.5a7757 7757 0 0 1-21.253 65.601 1728 1728 0 0 0-5.212 16.13c-.984 3.092-1.98 6.18-2.978 9.268a495 495 0 0 0-1.32 4.178c-2.737 8.793-5.131 15.76-13.362 20.698-3.854 1.508-7.084 2.25-11.223 2.253l-2.636.009-2.888-.006-3.086.007q-5.162.006-10.323.002l-7.443.01q-9.181.01-18.363.01-10.995.002-21.99.014c-17.716.016-35.433.022-53.149.027q-12.568.003-25.137.01a262743 262743 0 0 1-107.701.03h-2.72c-29.116.003-58.232.02-87.347.042a121461 121461 0 0 1-102.452.04h-2.52q-20.087.005-40.175.027-20.182.022-40.366.01-11.996-.007-23.99.015c-5.967.011-11.934.006-17.901-.005q-3.626-.002-7.252.01c-3.28.011-6.559.004-9.838-.008l-2.86.023c-7.778-.062-15.008-1.751-20.882-7.198-2.124-2.858-3.164-5.688-4.383-9.037l-.77-2.109c-3.506-9.733-6.668-19.585-9.855-29.426l-2.105-6.473c-5.225-16.076-10.38-32.174-15.517-48.278A6272 6272 0 0 0 150 843.5a7043 7043 0 0 1-17-52.635 6277 6277 0 0 0-15-46.365 6996 6996 0 0 1-16.996-52.623 6610 6610 0 0 0-16.267-50.219 3562 3562 0 0 1-13.855-43.216c-3.117-9.93-6.31-19.828-9.632-29.692-4.364-12.958-8.537-25.972-12.687-39a6468 6468 0 0 0-17.144-52.999l-3.662-11.168a8969 8969 0 0 0-9.53-28.956 3941 3941 0 0 1-3.147-9.551q-.69-2.096-1.392-4.189C7.162 403.402 7.162 403.402 12 393c3.777-6.128 8.351-10.173 14.25-14.187l4.828-3.387 2.479-1.72c3.849-2.687 7.644-5.448 11.443-8.206l4.5-3.25 2.25-1.625 78.75-56.875 2.25-1.625 4.498-3.248q5.647-4.077 11.287-8.162c7.27-5.264 14.556-10.497 21.903-15.652 6.083-4.272 12.09-8.638 18.062-13.063a968 968 0 0 1 20.158-14.533c7.41-5.204 14.744-10.513 22.076-15.826 3.752-2.717 7.51-5.429 11.266-8.141l4.5-3.25 63-45.5 2.251-1.626 4.49-3.242q5.7-4.117 11.4-8.237a4057 4057 0 0 1 22.04-15.844c7.025-5.01 14.013-10.072 21.005-15.128q6.776-4.897 13.554-9.79 5.702-4.118 11.4-8.238A4057 4057 0 0 1 417.683 96.8c7.024-5.01 14.012-10.072 21.004-15.128Q444.342 77.584 450 73.5l4.5-3.25 9-6.5 6.735-4.862q5.767-4.159 11.511-8.349C507.906 31.482 507.906 31.482 516 33m-13.125 53.188a2567 2567 0 0 1-4.312 3.316l-2.266 1.746c-3.757 2.862-7.587 5.62-11.422 8.375l-2.301 1.657a4444 4444 0 0 1-15.255 10.916c-7.025 5.011-14.013 10.073-21.005 15.129q-6.776 4.897-13.554 9.79-5.702 4.118-11.4 8.238a4057 4057 0 0 1-22.042 15.844c-7.024 5.01-14.012 10.072-21.004 15.128q-6.776 4.897-13.554 9.79-5.702 4.118-11.4 8.238a4057 4057 0 0 1-22.042 15.844c-7.024 5.01-14.012 10.072-21.004 15.128q-6.776 4.897-13.554 9.79-5.701 4.118-11.4 8.238a4057 4057 0 0 1-22.042 15.844c-7.024 5.01-14.012 10.072-21.004 15.128q-5.656 4.089-11.314 8.173l-4.5 3.25-27 19.5-2.251 1.626-4.49 3.242q-5.7 4.117-11.4 8.237a4057 4057 0 0 1-22.04 15.844c-7.025 5.01-14.013 10.072-21.005 15.128q-6.775 4.897-13.554 9.79-5.702 4.118-11.4 8.238a3978 3978 0 0 1-22.033 15.837c-5.556 3.963-11.085 7.964-16.616 11.963A3649 3649 0 0 1 54 410c1.937 8.27 4.313 16.28 7.063 24.313q1.21 3.585 2.417 7.171l1.26 3.74c2.09 6.265 4.115 12.551 6.135 18.839l1.254 3.898q1.282 3.982 2.562 7.966a16310 16310 0 0 0 7.432 23.07 3203 3203 0 0 0 12.174 36.856 776 776 0 0 1 6.772 21.13c1.399 4.532 2.912 9.024 4.431 13.517 2.255 6.717 4.444 13.443 6.504 20.223 4.59 15.102 9.565 30.072 14.594 45.033 2.545 7.585 5.036 15.18 7.405 22.821 2.783 8.98 5.65 17.931 8.508 26.887l2.962 9.292c3.066 9.616 6.16 19.22 9.373 28.789 1.85 5.54 3.64 11.1 5.432 16.658q1.775 5.505 3.554 11.008l.764 2.365c2.86 8.844 5.742 17.682 8.623 26.52a10131 10131 0 0 1 15.745 48.672 22665 22665 0 0 0 6.524 20.32c3.435 10.684 6.889 21.362 10.346 32.038a11259 11259 0 0 1 8.783 27.22l1.258 3.91c2.948 9.163 5.947 18.308 9.058 27.417.39 1.156.39 1.156.79 2.335l.68 1.989c.684 2.294 1.127 4.655 1.597 7.003h568l5-17a1337 1337 0 0 1 3.938-12.437c.345-1.076.69-2.152 1.047-3.26q3.2-9.93 6.526-19.818c3.87-11.559 7.577-23.172 11.32-34.772q2.376-7.359 4.763-14.713c4.184-12.902 8.35-25.81 12.48-38.73l1.075-3.361q2.644-8.27 5.281-16.54c3.088-9.672 6.199-19.332 9.43-28.958 2.026-6.06 3.988-12.142 5.952-18.223l.68-2.1c3.214-9.933 6.4-19.875 9.57-29.822l2.13-6.677a10830 10830 0 0 0 4.15-13.04c3.091-9.71 6.211-19.398 9.696-28.977 1.681-4.642 3.111-9.326 4.462-14.072a260 260 0 0 1 5.5-17 250 250 0 0 0 5.438-16.812c2.044-7.188 4.46-14.204 6.974-21.24 2.134-6.021 3.999-12.08 5.744-18.225 1.433-4.98 3.08-9.851 4.844-14.723a256 256 0 0 0 5.438-16.75 413 413 0 0 1 5.687-18.187c3.132-9.29 6.175-18.608 9.188-27.938l.713-2.208a29459 29459 0 0 0 6.252-19.381l.619-1.918 1.831-5.678q1.206-3.74 2.407-7.482c2.085-6.483 4.191-12.959 6.334-19.424 1.134-3.421 2.26-6.845 3.388-10.27q.825-2.5 1.663-5c.776-2.32 1.541-4.643 2.304-6.967l.715-2.107c1.335-4.055 1.335-4.055.461-8.19-1.68-1.452-1.68-1.452-3.797-2.785l-2.385-1.592-2.568-1.685c-6.862-4.593-13.466-9.329-19.965-14.422-4.434-3.439-9.045-6.628-13.64-9.847a1256 1256 0 0 1-15.582-11.106l-2.261-1.636-4.536-3.286c-3.752-2.717-7.51-5.429-11.266-8.141l-4.5-3.25-2.25-1.625-27.001-19.5q-2.245-1.623-4.49-3.243-5.7-4.117-11.4-8.237A3748 3748 0 0 0 823 304c-7.587-5.408-15.136-10.867-22.686-16.327q-5.656-4.089-11.314-8.173l-4.5-3.25-2.25-1.625-9.001-6.5q-2.245-1.623-4.49-3.243-5.7-4.117-11.4-8.237A3748 3748 0 0 0 737 242c-7.587-5.408-15.136-10.867-22.686-16.327q-5.656-4.089-11.314-8.173-6.822-4.925-13.64-9.855A3748 3748 0 0 0 669 193c-7.587-5.408-15.136-10.867-22.686-16.327q-5.656-4.089-11.314-8.173l-4.5-3.25-2.25-1.625-9.001-6.5q-2.245-1.623-4.49-3.243-5.7-4.117-11.4-8.237A3748 3748 0 0 0 583 131c-7.587-5.408-15.136-10.867-22.686-16.327a19316 19316 0 0 0-13.541-9.782 11374 11374 0 0 0-14.046-10.133l-4.54-3.27-2.101-1.515-2.044-1.469q-2.13-1.57-4.201-3.215l-2.114-1.668-1.88-1.522c-5.298-3.154-8.945.903-12.972 4.088"/><path fill="#a50d17" d="M710 300c6.668.359 13.16 3.486 19.188 6.125l2.787 1.213C760.245 319.86 784.763 340.096 803 365l1.478 2.015C813.305 379.233 819.982 392.201 826 406l.878 1.998c8.554 19.96 11.514 43.843 11.383 65.409-.011 2.092 0 4.184.012 6.277.01 9.27-.822 18.145-2.273 27.316l-.378 2.597C832.242 531.994 824.098 553.878 812 573l-1.234 1.992C804.94 584.347 798.36 592.811 791 601l-1.642 1.845c-29.973 33.534-72.956 58.063-118.435 61.38-6.25.265-12.494.261-18.749.187-3.2-.037-6.4-.041-9.6-.04-14.269-.049-27.69-1.01-41.511-4.81l-2.377-.619C593.9 657.66 589.522 656.016 585 654q-2.81-1.007-5.625-2c-20.05-7.7-37.033-19.268-53.375-33l-1.941-1.566c-3.612-2.915-5.808-4.924-6.594-9.653.755-5.334 3.317-7.635 7.097-11.281l1.846-1.953c3.25-3.22 4.639-4.52 9.346-4.656 3.273 1.118 4.467 1.757 6.621 4.359 25.868 27.537 64.905 40.57 101.914 42.129 14.672.36 28.504-.695 42.711-4.379l2.524-.633C715.684 624.66 739.288 611.415 759 593l2.883-2.637c18.593-17.719 33.835-42.285 40.242-67.176l.764-2.904A920 920 0 0 0 805 512l.54-2.126c2.236-8.926 3.17-17.693 3.46-26.874l.099-2.323c1.625-41.184-13.05-80.672-40.544-111.286-13.543-14.63-29.675-24.954-47.305-34.016l-2.06-1.077c-1.692-.846-3.439-1.582-5.19-2.298-3.108.655-3.108.655-4.075 2.994l-.968 2.592-1.064 2.82-1.08 2.969-1.116 2.945c-2.036 5.203-2.036 5.203-2.697 10.68l3.227 1.617C721.267 366.283 733.855 375.31 746 387l1.95 1.758C768.27 407.61 780.092 439 781.123 466.28c.643 29.52.643 29.52-3.124 41.719l-.586 1.94C770.527 532.309 759.542 551.57 744 569l-1.918 2.176c-21.964 23.419-56.118 37.932-87.957 39.168q-3.562.068-7.125.093l-3.324.032c-7.896-.086-15.066-1.424-22.676-3.469l-2.623-.68C595.685 600.285 577.145 589.819 559 575l-2.375-1.922C555 571 555 571 554.422 568.137c.77-4.179 2.928-6.413 5.828-9.324l1.488-1.577c1.386-1.446 2.823-2.843 4.262-4.236l1.984-1.926C570 550 570 550 572.957 550.054c3.543 1.101 5.122 2.458 7.73 5.071 19.421 18.212 45.756 25.577 71.813 25.133 22.644-.776 45.287-9.593 62.5-24.258l2.785-2.262C735.22 538.903 744.994 518.994 750 497l.562-2.374c6.08-27.48-2.472-53.144-16.562-76.626-2.455-3.558-5.088-6.809-8-10l-1.562-1.805C716.03 397.074 704.425 389.715 693 385h-2l-.988 2.598-1.324 3.464-1.372 3.598a112 112 0 0 1-3.191 7.34c-1.276 3.402-1.302 4.612-.125 8 2.103 1.741 2.103 1.741 4.813 3.125 17.895 10.728 28.706 27.242 34.125 47.188 1.71 8.493 1.463 17.074 1.062 25.687l-.105 3.145C722.314 505.16 712.429 520.245 701 531q-1.75 1.904-3.5 3.813c-4.282 4.2-9.337 7.19-14.5 10.187l-2.437 1.445c-15.181 8.34-36.92 9.623-53.506 5.015-3.098-1.006-6.06-2.18-9.057-3.46l-2.77-1.129c-7.09-3.204-13.22-7.986-19.23-12.871l-1.848-1.46C593 531 593 531 592.547 528.66c.623-3.66 2.292-5.427 4.703-8.222l2.39-2.817L602 515l1.922-2.34C606 511 606 511 608.945 510.547c3.533.524 5.132 1.52 7.93 3.703 12.201 9.055 24.17 11.057 39.125 9.75 14.04-2.799 25.816-11.637 33.71-23.434 5.772-11.489 6.859-26.527 3.67-38.988-3.12-8.494-8.827-15.927-16.005-21.39l-2.29-1.77c-2.122-1.581-2.122-1.581-5.085-2.418a499 499 0 0 0-1.5 4.688l-.844 2.636c-.683 2.787-1.04 4.828-.656 7.676 1.592 2.228 1.592 2.228 3.75 4.25 7.197 7.784 9.052 14.282 8.773 24.95-1.233 8.958-6.23 16.855-12.836 22.925-7.676 5.356-14.42 5.765-23.687 4.875-8.222-1.735-14.616-6.671-20-13-1.797-3.239-3.02-6.435-4-10l-.562-1.98c-1.814-8.373-.316-14.858 3.792-22.286 4.055-6.265 9.377-11.747 16.77-13.734 4.357-.305 8.641-.24 13 0l.75-3.875c.728-3.253 1.616-6.256 2.895-9.332a894 894 0 0 0 5.632-14.188l.895-2.301 1.837-4.725 4.58-11.786.89-2.288c1.34-3.45 2.675-6.901 3.993-10.36l1.321-3.465 1.13-2.981c1.054-2.642 2.22-5.198 3.452-7.762 2.256-4.86 4.023-9.81 5.75-14.875C689.63 345.868 694.837 332.949 700 320l1.146-2.9 1.958-4.943c3.737-8.998 3.737-8.998 6.896-12.157"/><path fill="#a50c16" d="m415 793 2.351.644c6.063 1.689 11.431 3.992 16.962 6.981l2.494 1.336C449.005 808.608 459.572 816.895 470 826l2.207 1.867c11.33 9.646 21.066 20.72 30.48 32.196l1.815 2.208c4.043 4.932 8.066 9.882 12.06 14.854l1.443 1.79c8.807 11.013 8.807 11.013 9.62 15.648-1.237 6.8-6.913 10.694-12.187 14.625-4.84 3.693-9.435 7.522-13.875 11.687-10.284 9.555-10.284 9.555-16.063 11-8.226-2.056-12.376-12.789-16.593-19.643-6.565-10.63-13.984-20.576-21.907-30.232l-2.25-2.812c-13.12-16.311-30.563-32.269-52.281-35.016L390 844l-2.469-.172c-25.288-.8-45.174 14.023-62.785 30.52-3.497 3.378-6.658 6.902-9.746 10.652l-2.328 2.738c-7.282 8.611-14.174 17.446-20.36 26.887-2.105 3.02-3.192 4.305-6.437 6.188-5.87.382-10.06-4.52-14.25-8.188l-1.816-1.576q-1.913-1.661-3.823-3.326a843 843 0 0 0-6.095-5.227l-4.016-3.433-1.9-1.61c-4.038-3.47-7.912-6.862-9.975-11.89 0-5.712 5.698-10.741 9.313-14.938l1.476-1.728q2.1-2.453 4.211-4.897l1.957-2.27c3.898-4.482 7.88-8.89 11.863-13.296 1.882-2.101 3.723-4.228 5.555-6.371 8.219-9.367 17.052-17.354 26.99-24.826a240 240 0 0 0 4.303-3.354C323.152 803.472 338.669 796.544 355 792l3.477-1.027c18.18-4.535 38.73-3.573 56.523 2.027M436.227 560.766c3.695.23 6.621.895 10.148 1.984 8.16 2.39 16.47 3.593 24.88 4.767 13.19 1.928 13.19 1.928 17.745 6.483 1.157 7.614-.947 15.008-2.875 22.313-3.43 13.222-5.487 25.745-5.375 39.437l.025 3.71c.233 18.958 2.053 37.133 14.225 52.54l1.36 1.848C509.353 710.456 530.55 712.406 550 715c.781.105 1.563.21 2.368.32 4.055.5 8.063.754 12.148.856l2.851.072q2.906.064 5.813.094c4.316.128 7.151.294 10.992 2.385C586 721 586 721 586.375 723.347l-.375 2.716-.41 3.226c-1.763 11.09-1.763 11.09-2.436 15.055-.735 4.455-1.289 8.867-1.619 13.37l-.215 2.862a245 245 0 0 0-.322 5.482c-.279 3.961-.799 6.57-2.693 10.106-5.575 3.097-11.193 1.75-17.305.836l-2.205-.328c-4.838-.742-9.655-1.582-14.47-2.464-2.49-.454-4.982-.892-7.475-1.33-14.749-2.632-29.56-5.865-43.6-11.19l-2.352-.884C478.93 756.175 468.028 750.047 458 742l-2.582-2.047c-22.36-18.823-30.301-48.49-32.98-76.41-.638-8.152-.68-16.308-.688-24.48l-.004-2.516c.005-15.68 1.198-30.993 3.254-46.547q.382-3.12.762-6.242.364-2.848.738-5.696l.322-2.547c.874-6.153 2.12-14.22 9.405-14.75M323 574c2.662 2.87 3.537 5.358 4.246 9.164l.593 3.112.599 3.349.641 3.48c6.555 36.091 6.555 36.091 6.865 51.235q.067 3.053.166 6.105c1.058 35.166-4.777 67.356-29.546 93.975-24.786 25.041-64.553 39.276-99.314 39.955l-2.246.113c-3.563.058-5.595-.175-8.453-2.363-2.212-4.457-2.358-8.58-2.613-13.5q-.208-3.089-.43-6.176l-.23-3.21c-.538-6.264-1.466-12.483-2.401-18.7-1.337-9.4-1.337-9.4.123-13.539 4.164-3.89 9.357-3.53 14.75-3.812C223.7 721.86 242.194 718.805 257 708l2.555-1.797c11.814-9.309 17.312-24.76 19.445-39.203.326-4.566.381-9.111.375-13.687l-.005-3.847c-.206-16.119-3.26-31.527-7.636-46.993-.87-4.118-1.137-7.273-.734-11.473 2.571-2.415 5.056-3.534 8.414-4.5l2.559-.75 2.652-.75 2.582-.75q2.587-.752 5.176-1.497c8.92-2.455 8.92-2.455 17.492-5.878 4.297-2.045 8.309-3.492 13.125-2.875"/></svg>