<?xml version="1.0" encoding="UTF-8"?>
<svg version="1.1" xmlns="http://www.w3.org/2000/svg" width="1024" height="1024">
<path d="M0 0 C7.28741767 3.22268114 13.57806549 8.05276303 19.80273438 12.96118164 C24.16360267 16.39606838 28.63966433 19.63005573 33.1875 22.8125 C39.13529976 26.97891092 45.05474072 31.17964283 50.9375 35.4375 C51.68346436 35.97737549 52.42942871 36.51725098 53.19799805 37.07348633 C54.71013427 38.16838044 56.22209699 39.26351422 57.73388672 40.35888672 C61.486448 43.07648173 65.24343419 45.78794473 69 48.5 C70.50002146 49.58330362 72.00002146 50.66663696 73.5 51.75 C74.2425 52.28625 74.985 52.8225 75.75 53.375 C100.5 71.25 100.5 71.25 102.75024414 72.87524414 C104.2493445 73.95788254 105.74853062 75.0404022 107.24780273 76.12280273 C111.01228168 78.84079823 114.77521904 81.56088068 118.53515625 84.28515625 C125.80432269 89.54881928 133.09124885 94.78186072 140.4375 99.9375 C147.34034679 104.78387201 154.13476019 109.76606348 160.91162109 114.78662109 C166.77094885 119.1181551 172.6943357 123.34780111 178.65844727 127.53344727 C186.06851717 132.7374724 193.40152023 138.0461951 200.73388672 143.35888672 C204.486448 146.07648173 208.24343419 148.78794473 212 151.5 C213.50002146 152.58330362 215.00002146 153.66663696 216.5 154.75 C217.2425 155.28625 217.985 155.8225 218.75 156.375 C279.49999999 200.24999999 279.49999999 200.24999999 281.75097656 201.87573242 C283.24768701 202.95667191 284.74443168 204.03756401 286.24121094 205.1184082 C290.04182637 207.8629754 293.84180298 210.60841966 297.640625 213.35546875 C304.41540742 218.25345334 311.19258102 223.14744088 318 228 C325.58659358 233.40798119 333.13590141 238.86727127 340.68554688 244.32666016 C344.45593019 247.05263139 348.22803694 249.77621534 352 252.5 C353.50000859 253.58332144 355.00000858 254.66665479 356.5 255.75 C357.2425 256.28625 357.985 256.8225 358.75 257.375 C383.5 275.25 383.5 275.25 385.75097656 276.87573242 C387.24768701 277.95667191 388.74443168 279.03756401 390.24121094 280.1184082 C394.04182637 282.8629754 397.84180298 285.60841966 401.640625 288.35546875 C408.41540742 293.25345334 415.19258102 298.14744088 422 303 C429.58659358 308.40798119 437.13590141 313.86727127 444.68554688 319.32666016 C447.70988581 321.51324445 450.73533712 323.69828591 453.76098633 325.88305664 C455.25059568 326.9588044 456.74001707 328.03481247 458.22924805 329.11108398 C462.0879883 331.89947366 465.94973864 334.68354891 469.81640625 337.4609375 C473.59542511 340.17571003 477.3620169 342.9070437 481.12353516 345.64599609 C482.70819037 346.78943844 484.31115009 347.90744926 485.91796875 349.01953125 C492.51976881 353.74142174 497.4778405 359.95338109 499.1875 368.0625 C499.30756996 372.38946574 498.22814474 376.21510923 496.9765625 380.3125 C496.64577446 381.41477684 496.64577446 381.41477684 496.30830383 382.5393219 C493.45147144 391.95653952 490.35528792 401.29829212 487.27340698 410.64364624 C485.37881 416.3904786 483.49367388 422.14040913 481.609375 427.890625 C481.03043739 429.65716682 481.03043739 429.65716682 480.43980408 431.45939636 C476.54843426 443.35053442 472.73683574 455.26669928 468.9375 467.1875 C463.2803847 484.933616 457.5363939 502.64937755 451.73422241 520.34857178 C447.32269236 533.81112552 442.98627895 547.29380696 438.75 560.8125 C435.03516866 572.66658243 431.20944924 584.47537605 427.25 596.25 C422.47219217 610.45871789 417.86308044 624.71695158 413.3125 639 C407.78182713 656.35789613 402.17909984 673.69009459 396.5 691 C390.57000861 709.07790186 384.72298687 727.18028837 378.94287109 745.30664062 C374.02483835 760.72533788 369.0388725 776.12038595 364 791.5 C358.60088272 807.97935717 353.27006597 824.47892378 348 841 C341.01226608 862.89895755 333.92944888 884.76544969 326.74731445 906.60144043 C324.98429849 911.96991788 323.2448448 917.34500686 321.53456116 922.73051453 C320.55088139 925.82298123 319.55494955 928.91141683 318.55679321 931.99923706 C318.11078984 933.38983088 317.67058396 934.78230086 317.23690796 936.17678833 C314.50013842 944.96984046 312.10561765 951.93662941 303.875 956.875 C300.0208818 958.38313321 296.79075892 959.12480289 292.65236974 959.1276505 C291.78251321 959.13066647 290.91265668 959.13368244 290.01644087 959.1367898 C289.06341975 959.13502033 288.11039863 959.13325086 287.12849808 959.13142776 C285.60056873 959.13450672 285.60056873 959.13450672 284.04177213 959.13764787 C280.60069176 959.14333894 277.15965116 959.14185802 273.71856689 959.14044189 C271.23768592 959.14302432 268.75680537 959.14603713 266.2759254 959.1494453 C260.1548543 959.15668361 254.03379578 959.15921862 247.91272091 959.15977435 C240.58292413 959.16068747 233.25313544 959.16735346 225.92334214 959.17412117 C208.20688963 959.19018846 190.49043798 959.19608515 172.77397949 959.20086992 C164.39507395 959.203205 156.01616911 959.20680754 147.6372641 959.2105653 C118.96244756 959.22340106 90.2876314 959.23412054 61.61281204 959.2375679 C59.81245952 959.23778954 58.012107 959.23801132 56.21175449 959.23823325 C54.40702457 959.23845389 52.60229466 959.23867438 50.79756474 959.2388947 C47.17689212 959.23933726 43.5562195 959.23978437 39.93554688 959.24023438 C39.03782919 959.24034377 38.14011151 959.24045316 37.21519026 959.24056586 C8.09973994 959.24419735 -21.01568549 959.26012073 -50.13112628 959.28342474 C-80.90479702 959.30801102 -111.67845353 959.32174017 -142.45213437 959.32293582 C-145.82914559 959.32310728 -149.20615681 959.32332271 -152.58316803 959.32357025 C-153.41469923 959.32362602 -154.24623044 959.32368179 -155.10295956 959.32373925 C-168.49448756 959.3248907 -181.88599007 959.33592066 -195.27750945 959.35045731 C-208.73310073 959.36481114 -222.18865925 959.36806558 -235.64425609 959.36001733 C-243.64106011 959.35555591 -251.63775853 959.35944212 -259.63454871 959.37525584 C-265.60145217 959.38613253 -271.5682344 959.38138102 -277.53514233 959.37048396 C-279.952378 959.3685167 -282.36962416 959.3716525 -284.78684506 959.38032833 C-288.06645942 959.39135681 -291.34553452 959.3839776 -294.62513351 959.3719368 C-295.56878997 959.37953199 -296.51244643 959.38712718 -297.48469853 959.39495254 C-305.26255638 959.33309086 -312.49337138 957.64363601 -318.3671875 952.19702148 C-320.4914685 949.33870739 -321.53058665 946.50853465 -322.75 943.16015625 C-323.00383453 942.46421356 -323.25766907 941.76827087 -323.51919556 941.05123901 C-327.0262114 931.31830578 -330.18798361 921.46602131 -333.375 911.625 C-334.07664322 909.46738947 -334.77847017 907.30983869 -335.48046875 905.15234375 C-340.70493672 889.07630726 -345.85964241 872.97805336 -350.99725342 856.87408447 C-355.93567605 841.39529795 -360.94145344 825.93992899 -366 810.5 C-371.74064721 792.97813198 -377.39714071 775.43113256 -383 757.86474609 C-387.93755165 742.38908983 -392.94246446 726.93684311 -398 711.5 C-403.73932358 693.98217202 -409.39529012 676.43945364 -414.99597168 658.87683105 C-420.34359577 642.11245914 -425.78216586 625.37938298 -431.26348877 608.65829468 C-435.97451917 594.2811939 -440.59093499 579.87801303 -445.1184082 565.44213867 C-448.23469388 555.51163019 -451.4276101 545.61401126 -454.75 535.75 C-459.11364214 522.79213848 -463.28700347 509.77750404 -467.4375 496.75 C-473.07533025 479.05827333 -478.79140033 461.39384665 -484.58139038 443.75131226 C-485.80300457 440.02893353 -487.02334895 436.30614059 -488.2434082 432.58325195 C-491.40884791 422.92731241 -494.57493497 413.27168895 -497.7731781 403.6265564 C-498.82697131 400.44460123 -499.87434362 397.2605605 -500.92001343 394.07592773 C-501.38064737 392.67869205 -501.84440267 391.28248049 -502.31167603 389.88745117 C-508.83761601 370.40217837 -508.83761601 370.40217837 -504 360 C-500.22294036 353.87207651 -495.64869945 349.82732162 -489.75 345.8125 C-488.14039281 344.68392484 -486.53102447 343.55500895 -484.921875 342.42578125 C-484.10396484 341.85811035 -483.28605469 341.29043945 -482.44335938 340.70556641 C-478.59397124 338.01853348 -474.79903947 335.25751537 -471 332.5 C-469.50028363 331.41627406 -468.0002829 330.33294152 -466.5 329.25 C-465.38625 328.445625 -465.38625 328.445625 -464.25 327.625 C-438 308.66666667 -411.75 289.70833333 -385.5 270.75 C-384.75741943 270.21366943 -384.01483887 269.67733887 -383.24975586 269.12475586 C-381.7506555 268.04211746 -380.25146938 266.9595978 -378.75219727 265.87719727 C-374.98771832 263.15920177 -371.22478096 260.43911932 -367.46484375 257.71484375 C-360.19567731 252.45118072 -352.90875115 247.21813928 -345.5625 242.0625 C-339.47874537 237.79119875 -333.47286072 233.42492354 -327.5 229 C-320.84058446 224.0664504 -314.12530093 219.22742435 -307.34155273 214.46655273 C-299.93148283 209.2625276 -292.59847977 203.9538049 -285.26611328 198.64111328 C-281.513552 195.92351827 -277.75656581 193.21205527 -274 190.5 C-272.49997854 189.41669638 -270.99997854 188.33336304 -269.5 187.25 C-248.5 172.08333333 -227.5 156.91666667 -206.5 141.75 C-205.75717773 141.2135083 -205.01435547 140.6770166 -204.24902344 140.12426758 C-202.75231299 139.04332809 -201.25556832 137.96243599 -199.75878906 136.8815918 C-195.95817363 134.1370246 -192.15819702 131.39158034 -188.359375 128.64453125 C-181.02666167 123.34317769 -173.68638156 118.05344563 -166.31835938 112.80126953 C-159.29435105 107.7901413 -152.30621493 102.72930529 -145.31445312 97.67333984 C-140.79764229 94.40770467 -136.278495 91.14530382 -131.75976562 87.88232422 C-127.95884225 85.13748856 -124.15852668 82.39181873 -120.359375 79.64453125 C-113.02666167 74.34317769 -105.68638156 69.05344563 -98.31835938 63.80126953 C-91.29435105 58.7901413 -84.30621493 53.72930529 -77.31445312 48.67333984 C-73.54406981 45.94736861 -69.77196306 43.22378466 -66 40.5 C-64.49999141 39.41667856 -62.99999142 38.33334521 -61.5 37.25 C-58.5 35.08333333 -55.5 32.91666667 -52.5 30.75 C-51.75693604 30.2132666 -51.01387207 29.6765332 -50.24829102 29.12353516 C-48.75427963 28.04468015 -47.25997804 26.96622692 -45.76538086 25.88818359 C-41.92122767 23.11462308 -38.08298597 20.33340423 -34.25390625 17.5390625 C-8.09435394 -1.51849565 -8.09435394 -1.51849565 0 0 Z " fill="#FEFDFE" transform="translate(516,33)"/>
<path d="M0 0 C7.67877734 1.66436553 14.81227729 4.90742832 22 8 C23.58796955 8.65893252 25.17655955 9.31637097 26.765625 9.97265625 C70.89537687 28.33314953 109.06371826 56.09192285 142.8125 89.6875 C143.51793945 90.3882666 144.22337891 91.0890332 144.95019531 91.81103516 C149.50344196 96.37824881 153.80558357 101.10277354 158 106 C158.90078889 107.03277261 159.80181181 108.06534117 160.703125 109.09765625 C170.45334567 120.44798982 179.04379333 132.45190299 187.375 144.875 C187.95805908 145.74253906 188.54111816 146.61007812 189.1418457 147.50390625 C192.70544555 152.86959169 195.94441082 158.33159914 199 164 C199.75216797 165.3303125 199.75216797 165.3303125 200.51953125 166.6875 C204.77663134 174.30140711 208.45525181 182.15900292 212.10546875 190.07568359 C212.84597858 191.66866898 213.60774745 193.25175255 214.375 194.83203125 C218.38103147 203.19989305 221.22589234 211.99518236 224.22607422 220.75927734 C225.15777436 223.45679907 226.13394966 226.13626284 227.125 228.8125 C227.75291575 230.54061 228.37775012 232.26984179 229 234 C229.39960937 235.10859375 229.79921875 236.2171875 230.2109375 237.359375 C235.51063443 252.58395891 238.27906744 268.03621262 240.6875 283.9375 C240.79618408 284.63904205 240.90486816 285.34058411 241.0168457 286.06338501 C244.22925677 306.97795215 244.2136186 327.95581837 244.24023438 349.07006836 C244.24463602 352.06693582 244.25862477 355.06351814 244.28125 358.06030273 C244.39904383 373.97782316 244.36153066 389.35505653 241 405 C240.66722906 407.30967011 240.35152708 409.62194913 240.0625 411.9375 C236.44745869 437.62799852 228.52063863 462.14482597 219.05859375 486.21875 C217.79522011 489.5380195 216.7036347 492.89411592 215.67578125 496.29296875 C215 498 215 498 213 500 C212.45776429 501.48525433 211.96630106 502.98918455 211.5 504.5 C207.35654227 516.29411189 200.31652443 527.21389982 193.5078125 537.6328125 C192.08954692 539.85941598 190.81168071 542.1128657 189.5625 544.4375 C186.42042789 550.20655043 182.70146401 555.57974441 179 561 C178.44441406 561.8353125 177.88882813 562.670625 177.31640625 563.53125 C173.18142876 569.6395141 168.54726208 575.20776473 163.7421875 580.7890625 C161.34356871 583.5783466 159.04088063 586.43377075 156.75 589.3125 C149.10326011 598.71854418 140.58031176 607.44684112 132 616 C130.9412271 617.10274641 129.88406149 618.20703728 128.828125 619.3125 C120.47527854 627.96944925 111.69397794 635.41780519 101.99853516 642.52294922 C98.97900432 644.75458391 96.02265452 647.06554208 93.0625 649.375 C84.06592749 656.37920913 74.6168892 662.60824765 64.9375 668.625 C63.40125977 669.58792969 63.40125977 669.58792969 61.83398438 670.5703125 C45.11015145 681 45.11015145 681 41 681 C41 681.66 41 682.32 41 683 C39.73160474 683.50615298 38.46016898 684.00469099 37.1875 684.5 C36.12595703 684.91765625 36.12595703 684.91765625 35.04296875 685.34375 C33 686 33 686 30 686 C30 686.66 30 687.32 30 688 C29.19332886 688.31638428 29.19332886 688.31638428 28.37036133 688.63916016 C25.84950194 689.63050633 23.33064209 690.62677102 20.8125 691.625 C19.89428467 691.98891846 18.97606934 692.35283691 18.0300293 692.7277832 C13.03234383 694.72694517 8.14806871 696.825226 3.3125 699.1875 C-3.54960873 702.43797256 -10.66057039 704.41071773 -17.95605469 706.42529297 C-21.03000017 707.28961066 -24.07649104 708.23790698 -27.125 709.1875 C-28.16785156 709.50847656 -29.21070313 709.82945312 -30.28515625 710.16015625 C-32.37977391 710.8081315 -34.47171808 711.46475308 -36.5625 712.125 C-40.56959628 713.14498815 -44.57797517 713.79161721 -48.66015625 714.4375 C-52.1081785 715.01821954 -55.51590136 715.71795242 -58.9375 716.4375 C-61.62378567 716.96570919 -64.31106224 717.48571525 -67 718 C-67.66756821 718.13240082 -68.33513641 718.26480164 -69.02293396 718.4012146 C-85.95056692 721.65002714 -102.94022194 721.4629015 -120.10180664 721.39111328 C-124.23548571 721.37400798 -128.36858565 721.38417218 -132.50224495 721.40145683 C-148.50417657 721.45803039 -164.1863423 721.42821481 -179.95455933 718.34559631 C-183.77753977 717.69966805 -187.63848725 717.43976856 -191.5 717.125 C-201.61858377 716.15508668 -211.22134431 713.7030613 -221 711 C-222.0828125 710.70738281 -223.165625 710.41476562 -224.28125 710.11328125 C-226.02255941 709.64042568 -227.76231575 709.16178981 -229.5 708.67578125 C-232.32076428 707.91329341 -235.15778635 707.24042596 -238 706.5625 C-243.84656008 705.10459819 -249.38636515 703.17740988 -255 701 C-256.10625732 700.57267578 -256.10625732 700.57267578 -257.23486328 700.13671875 C-262.49503542 698.10416565 -267.74912686 696.05644757 -273 694 C-273 693.34 -273 692.68 -273 692 C-274.93359375 691.64421875 -274.93359375 691.64421875 -276.90625 691.28125 C-282.1992913 690.09858609 -286.70538253 687.98720781 -291.5 685.5 C-292.79550781 684.84004028 -292.79550781 684.84004028 -294.1171875 684.16674805 C-301.96886222 680.1178685 -309.57335996 675.69256024 -317.12939453 671.12109375 C-319.87453514 669.47587244 -322.65799214 667.89876691 -325.4375 666.3125 C-344.42776761 655.18999508 -378.98473443 634.03053113 -389 614 C-389.91505857 609.77559425 -390.00761706 606.21633933 -389 602 C-386.21637475 597.81312257 -382.2330338 594.60722455 -378.46972656 591.328125 C-376.56784464 589.60948087 -374.94139961 587.72629526 -373.3125 585.75 C-363.72292546 574.697609 -363.72292546 574.697609 -358.63671875 573.39453125 C-352.76885683 573.18743024 -348.39347446 574.80598174 -344.03125 578.8046875 C-341.97928463 580.8336831 -339.98805856 582.90851643 -338 585 C-314.62314378 608.95169695 -283.11546998 629.49457988 -251.73046875 640.94921875 C-249 642 -249 642 -246 644 C-243.01107992 645.06385291 -240.02495405 646.04732268 -237 647 C-235.80503906 647.38414062 -234.61007812 647.76828125 -233.37890625 648.1640625 C-224.32451492 651.05692197 -215.2282282 653.71134892 -206 656 C-204.82171631 656.29390625 -204.82171631 656.29390625 -203.61962891 656.59375 C-178.1867165 662.85777307 -153.76149075 665.61238094 -127.5625 665.3125 C-124.91211647 665.30096883 -122.26172469 665.29119558 -119.61132812 665.28320312 C-117.09634523 665.26981393 -114.58136987 665.2549008 -112.06640625 665.23828125 C-110.30895836 665.22720085 -110.30895836 665.22720085 -108.51600647 665.21589661 C-107.43894943 665.20306137 -106.3618924 665.19022614 -105.25219727 665.17700195 C-103.83427635 665.16223564 -103.83427635 665.16223564 -102.38771057 665.14717102 C-99.85219868 665.09365826 -99.85219868 665.09365826 -97 664 C-95.02857784 663.76138148 -93.0522249 663.56260451 -91.07421875 663.38671875 C-78.59319393 662.21003358 -66.90850024 661.01790862 -55 657 C-52.9637058 656.45854264 -50.92188256 655.93744191 -48.875 655.4375 C-47.95750977 655.21126953 -47.04001953 654.98503906 -46.09472656 654.75195312 C-44.14989395 654.27939992 -42.20181329 653.81983057 -40.24951172 653.37915039 C-32.59439474 651.59693311 -25.50051358 649.00998122 -18.25 646 C-16.10966484 645.12429127 -13.96904609 644.24927528 -11.828125 643.375 C-10.82273682 642.9617749 -9.81734863 642.5485498 -8.78149414 642.12280273 C-6.43327269 641.17489872 -4.07829805 640.2765062 -1.69921875 639.41015625 C2.1392128 637.94693155 5.77377063 636.28528173 9.4375 634.4375 C10.12215332 634.09307861 10.80680664 633.74865723 11.51220703 633.39379883 C18.79080989 629.67673101 25.81174728 625.55325842 32.80273438 621.32519531 C35.04405419 619.97343043 37.29479493 618.63843432 39.546875 617.3046875 C52.36516089 609.66096854 64.63087859 601.48897546 75.55859375 591.265625 C77.59987425 589.3713167 79.67103306 587.5361893 81.7734375 585.7109375 C86.00107606 582.02537977 90.10460107 578.21956703 94.1875 574.375 C94.87263672 573.73304688 95.55777344 573.09109375 96.26367188 572.4296875 C101.98274925 567.05738767 107.39091263 561.71779844 112.1875 555.5 C112.6609082 554.89124023 113.13431641 554.28248047 113.62207031 553.65527344 C114.60238271 552.3931946 115.58105675 551.1298415 116.55810547 549.86523438 C117.93131622 548.08884932 119.31058235 546.31734489 120.69140625 544.546875 C132.35484071 529.55071602 142.11740687 513.82763458 151.1796875 497.15625 C153.02681629 493.76152683 154.90561147 490.38831466 156.8203125 487.03125 C157.27100098 486.23678467 157.72168945 485.44231934 158.18603516 484.6237793 C159.03108166 483.13733275 159.88186492 481.65412517 160.73974609 480.17504883 C163.51107939 475.27678394 165.38418879 470.38369377 167 465 C167.30421875 464.03835938 167.6084375 463.07671875 167.921875 462.0859375 C168.73024983 459.43965385 169.53631582 456.79267351 170.34179688 454.14550781 C171.10934049 451.64358892 171.89083999 449.14617698 172.671875 446.6484375 C176.23958701 435.17666372 179.47548493 423.74551378 182 412 C182.26425781 410.85660156 182.52851562 409.71320313 182.80078125 408.53515625 C183.64083268 404.70538332 184.35668633 400.86663594 185 397 C185.13825195 396.18208984 185.27650391 395.36417969 185.41894531 394.52148438 C187.87422228 379.23558401 188.2937659 364.07150959 188.3125 348.625 C188.31599457 347.70272614 188.31948914 346.78045227 188.3230896 345.83023071 C188.35053094 332.77033173 187.54983603 319.96533578 186 307 C185.87439697 305.90800293 185.74879395 304.81600586 185.61938477 303.69091797 C184.45962347 294.05109866 182.9297364 284.77087234 180.01953125 275.484375 C179.07613716 272.26020821 178.36336697 269.07861635 177.70117188 265.7902832 C173.36389628 244.37381147 164.80717218 224.13838201 154.89331055 204.76049805 C154.12361538 203.24361588 153.37782493 201.71464692 152.63671875 200.18359375 C146.34937897 187.95404263 139.2873431 175.97460783 130.609375 165.29296875 C128.64415913 162.86955362 126.8449583 160.37233934 125.078125 157.80078125 C118.21228552 147.90332703 110.66120882 139.20914665 102.125 130.75 C101.63295074 130.26227112 101.14090149 129.77454224 100.63394165 129.27203369 C92.40873275 121.15578954 83.84007763 113.59338674 74.875 106.3125 C74.19824219 105.75755859 73.52148438 105.20261719 72.82421875 104.63085938 C69.0057363 101.52511107 65.14507502 98.66585217 61 96 C59.78723631 95.19740597 58.57503361 94.39396387 57.36328125 93.58984375 C27.40777856 73.08760198 27.40777856 73.08760198 -6 60 C-6.1350293 60.57041016 -6.27005859 61.14082031 -6.40917969 61.72851562 C-9.70828437 74.41234619 -14.73762483 87.22317371 -20.453125 98.9921875 C-20.92234375 99.96414063 -21.3915625 100.93609375 -21.875 101.9375 C-22.52082031 103.21947266 -22.52082031 103.21947266 -23.1796875 104.52734375 C-24.20544062 107.61925672 -24.34935387 109.01073797 -23 112 C-20.13335267 113.52918541 -20.13335267 113.52918541 -17.97460938 114.27099609 C-14.73823693 115.46582895 -11.77699477 117.16968292 -8.75 118.8125 C-8.09813721 119.1643335 -7.44627441 119.51616699 -6.7746582 119.87866211 C-5.46132867 120.58794709 -4.1485719 121.29829376 -2.83642578 122.00976562 C-1.20824785 122.88770895 0.42849279 123.74973125 2.06640625 124.609375 C8.41500938 127.96880653 14.18067328 131.80232566 20 136 C21.35019973 136.94595853 22.70188396 137.88980016 24.0546875 138.83203125 C43.66719814 152.51355848 43.66719814 152.51355848 51 160 C54.09426395 163.12229171 57.23407496 166.18716332 60.40625 169.23046875 C70.69498939 179.19279003 79.77938455 189.21435998 87.74121094 201.12597656 C89.41878805 203.62347111 91.18027416 206.05814071 92.9375 208.5 C97.69548105 215.35952107 101.84486542 222.25557875 105 230 C105.61703514 231.21241993 106.24263889 232.42050265 106.875 233.625 C109.16763034 238.13150619 110.90137597 242.8216196 112.65625 247.55859375 C113.6686475 250.15139083 114.74233334 252.63738962 115.90625 255.16015625 C127.14654346 280.25838186 131.00359009 308.26369509 131.2734375 335.55078125 C131.28587494 336.71620956 131.29831238 337.88163788 131.31112671 339.0823822 C131.55441853 367.30059693 131.5619396 394.10262739 122.87597656 421.21386719 C122.16750043 423.4672478 121.53908688 425.70164237 121 428 C120.34 428 119.68 428 119 428 C119.061875 429.07507813 119.061875 429.07507813 119.125 430.171875 C118.98535645 433.3313103 118.25728787 435.35492926 117 438.25 C116.55140625 439.28640625 116.1028125 440.3228125 115.640625 441.390625 C113.38177709 446.36009041 111.0573799 451.29816107 108.6796875 456.21191406 C108.34710937 456.90510742 108.01453125 457.59830078 107.671875 458.3125 C107.3737793 458.92738281 107.07568359 459.54226563 106.76855469 460.17578125 C105.9275687 462.01889639 105.9275687 462.01889639 105.52050781 464.16796875 C105.26285645 465.07482422 105.26285645 465.07482422 105 466 C104.34 466.33 103.68 466.66 103 467 C102.25388998 468.6797896 101.51422301 470.36301499 100.82128906 472.06542969 C96.86153318 481.39275003 90.83615282 489.94147047 84.98046875 498.16015625 C83.0256964 500.87567466 83.0256964 500.87567466 81.62890625 503.3828125 C79.30757414 507.11253075 76.53696683 510.42285957 73.75 513.8125 C73.20214844 514.48603516 72.65429688 515.15957031 72.08984375 515.85351562 C59.81041523 530.87928004 46.66941868 544.51185288 31 556 C29.26348311 557.38667845 27.53385232 558.78204127 25.8125 560.1875 C18.62058963 565.95262815 11.28857067 571.00580755 3.140625 575.32421875 C-0.73005257 577.38954298 -4.55282059 579.53409822 -8.375 581.6875 C-9.05320801 582.06825684 -9.73141602 582.44901367 -10.43017578 582.84130859 C-11.07970215 583.20691895 -11.72922852 583.5725293 -12.3984375 583.94921875 C-13.02492188 584.30153564 -13.65140625 584.65385254 -14.296875 585.0168457 C-15.70936155 585.83222462 -17.09001768 586.70245584 -18.4609375 587.5859375 C-21.91361233 589.50881179 -25.51073556 590.68683852 -29.25 591.9375 C-35.94373534 594.21544493 -35.94373534 594.21544493 -42.4375 597 C-53.04810404 601.9226584 -64.4615404 605.26045353 -76 607 C-78.60554186 607.49382521 -81.2095257 607.99305253 -83.8125 608.5 C-86.53958101 609.02874911 -89.26371002 609.52493013 -92 610 C-92.89638184 610.17354004 -93.79276367 610.34708008 -94.71630859 610.52587891 C-105.92144858 612.45006358 -117.15158774 612.3721895 -128.49169922 612.37060547 C-131.96502577 612.37495619 -135.43705515 612.41131247 -138.91015625 612.44921875 C-163.38157046 612.57108238 -185.48345068 607.37413495 -208.6875 600.0625 C-209.72108643 599.73862305 -210.75467285 599.41474609 -211.81958008 599.08105469 C-222.06329175 595.79667432 -231.89964774 591.64545692 -241.625 587.0625 C-242.34937256 586.72186523 -243.07374512 586.38123047 -243.82006836 586.03027344 C-248.59594019 583.75152319 -253.17254026 581.28607999 -257.62890625 578.421875 C-259.64465009 577.21309286 -261.63344666 576.20312964 -263.75 575.19140625 C-268.29818102 572.94616199 -272.33248388 570.15137856 -276.4375 567.1875 C-277.18829834 566.6505249 -277.93909668 566.1135498 -278.71264648 565.56030273 C-283.90946462 561.82732934 -289.02016996 558.01881021 -294 554 C-295.30585785 552.96597944 -296.61186235 551.93214409 -297.91796875 550.8984375 C-299.36247713 549.74541524 -300.80648289 548.59176303 -302.25 547.4375 C-302.93650635 546.89488525 -303.6230127 546.35227051 -304.33032227 545.79321289 C-315.33398373 536.92762081 -315.33398373 536.92762081 -316.3125 530.75 C-316.5765227 525.45194442 -314.1265687 522.70826157 -310.71484375 518.8828125 C-309.81894531 517.93148437 -308.92304688 516.98015625 -308 516 C-306.87436094 514.74913993 -305.75079391 513.49641327 -304.62890625 512.2421875 C-303.42127459 510.90963966 -302.21163391 509.57890979 -301 508.25 C-300.43144287 507.62399902 -299.86288574 506.99799805 -299.27709961 506.35302734 C-288.59909443 494.91024406 -288.59909443 494.91024406 -282 494.3125 C-275.39254895 494.893233 -270.7510962 499.10002007 -266.3125 503.6875 C-258.3351971 511.92660628 -248.87461885 518.23647098 -239.25 524.375 C-238.47035889 524.87483398 -237.69071777 525.37466797 -236.88745117 525.88964844 C-231.76251884 529.09930053 -226.57099945 531.66425871 -221 534 C-219.65639792 534.5911336 -218.31390979 535.18480687 -216.97265625 535.78125 C-213.5937244 537.2698822 -210.20853401 538.74373166 -206.81982422 540.20996094 C-205.33631371 540.85399635 -203.85697431 541.50763287 -202.37890625 542.1640625 C-194.19847836 545.65173193 -185.61956716 547.89681227 -177 550 C-176.195625 550.20189941 -175.39125 550.40379883 -174.5625 550.61181641 C-141.18849602 558.6582782 -103.70962925 555.22416312 -71 546 C-69.96230469 545.72027344 -68.92460938 545.44054687 -67.85546875 545.15234375 C-51.60699778 540.58480122 -35.25233456 531.93233871 -21 523 C-20.27425781 522.5565625 -19.54851562 522.113125 -18.80078125 521.65625 C-11.71752825 517.15229615 -5.29286399 511.74441696 1.20458984 506.45019531 C2.78404875 505.17442894 4.38461449 503.92488757 5.98828125 502.6796875 C16.96807382 494.06746236 25.70608098 484.07392229 33.2578125 472.38671875 C33.83273437 471.59910156 34.40765625 470.81148437 35 470 C35.66 470 36.32 470 37 470 C37.26296875 469.27296875 37.5259375 468.5459375 37.796875 467.796875 C39.01743691 464.95946484 40.43938855 462.74570768 42.25 460.25 C42.87132812 459.37859375 43.49265625 458.5071875 44.1328125 457.609375 C44.74898437 456.74828125 45.36515625 455.8871875 46 455 C53.54666023 444.28155503 58.12540565 433.27303981 62.32421875 420.94042969 C63.17487745 418.49785911 64.12035633 416.0960447 65.0625 413.6875 C74.66429661 387.20254435 77.7327791 357.69605069 75.125 329.75 C75.04636719 328.80898438 74.96773437 327.86796875 74.88671875 326.8984375 C74.41329024 321.69800736 73.56468452 317.00574371 72 312 C71.70318761 310.35865285 71.43087228 308.71261757 71.1875 307.0625 C69.852443 299.4868277 67.45717077 292.2695622 65 285 C64.78891602 284.36465332 64.57783203 283.72930664 64.36035156 283.07470703 C58.11250394 264.50926153 48.74215817 246.94424066 37.875 230.6875 C36.91207031 229.23923828 36.91207031 229.23923828 35.9296875 227.76171875 C34.01907806 224.95125753 34.01907806 224.95125753 31.7578125 222.26953125 C30 220 30 220 30 218 C29.01 217.67 28.02 217.34 27 217 C25.6328125 215.57421875 25.6328125 215.57421875 24.125 213.6875 C12.65535986 200.21369117 -1.61027062 189.8896964 -16.56542969 180.62866211 C-17.62358887 179.96362671 -17.62358887 179.96362671 -18.703125 179.28515625 C-19.33895508 178.89207275 -19.97478516 178.49898926 -20.62988281 178.09399414 C-21.30809082 177.55246704 -21.30809082 177.55246704 -22 177 C-22 176.34 -22 175.68 -22 175 C-22.96873047 174.87818359 -22.96873047 174.87818359 -23.95703125 174.75390625 C-28.1565243 173.71346702 -31.81561619 171.83895948 -35.6875 169.9375 C-37.21055189 169.19315133 -38.73521928 168.45209633 -40.26171875 167.71484375 C-41.26658325 167.22165649 -41.26658325 167.22165649 -42.29174805 166.71850586 C-43.99839274 165.8707635 -43.99839274 165.8707635 -46 166 C-51.21477798 178.24906453 -51.21477798 178.24906453 -55.33203125 190.89453125 C-56.21028279 193.6628212 -57.52031662 196.08462498 -58.8828125 198.640625 C-61.3706627 203.89468627 -63.11744792 209.5066513 -65 215 C-64.33355469 215.23460937 -63.66710937 215.46921875 -62.98046875 215.7109375 C-59.19042264 217.35014486 -55.80243114 219.42900956 -52.3125 221.625 C-51.59989014 222.07302979 -50.88728027 222.52105957 -50.15307617 222.98266602 C-44.43583049 226.62798549 -39.16501324 230.60527916 -34 235 C-32.953172 235.85322038 -31.90490576 236.70467818 -30.85546875 237.5546875 C-21.67526536 245.05745402 -13.47430095 252.96483353 -7 263 C-6.39800781 263.89976562 -5.79601562 264.79953125 -5.17578125 265.7265625 C5.02142215 281.58887891 11.62587222 298.70521056 16 317 C16.17789062 317.7120459 16.35578125 318.4240918 16.5390625 319.15771484 C24.62225243 352.68531118 18.40998633 387.74370623 3 418 C2.14341797 419.68996094 2.14341797 419.68996094 1.26953125 421.4140625 C-2.58113534 428.55709007 -7.0450567 434.96275918 -12 441.375 C-12.56920166 442.11210205 -13.13840332 442.8492041 -13.72485352 443.60864258 C-20.01931818 451.5648818 -27.22728806 458.50211183 -35 465 C-35.54076172 465.45455566 -36.08152344 465.90911133 -36.63867188 466.37744141 C-44.3768178 472.84741433 -51.88752653 478.57082963 -61 483 C-62.28389929 483.66145406 -63.56635157 484.32572133 -64.84765625 484.9921875 C-77.5586793 491.55816641 -90.11557292 495.70302902 -104 499 C-104.63980804 499.17850998 -105.27961609 499.35701996 -105.93881226 499.54093933 C-108.1728229 500.03849052 -110.19508017 500.14782007 -112.48291016 500.17700195 C-113.36548492 500.18983719 -114.24805969 500.20267242 -115.15737915 500.21589661 C-116.58381241 500.22697701 -116.58381241 500.22697701 -118.0390625 500.23828125 C-119.0339267 500.246353 -120.02879089 500.25442474 -121.05380249 500.26274109 C-123.16703559 500.27657431 -125.28029096 500.28729987 -127.39355469 500.29516602 C-129.52285458 500.30658792 -131.65212813 500.32688043 -133.78125 500.35668945 C-151.36399728 500.60257318 -171.84728606 499.96422451 -187.40625 490.54296875 C-190.40283095 488.76036412 -193.42105217 487.5892098 -196.6875 486.375 C-202.87443946 484.06278027 -202.87443946 484.06278027 -205 483 C-205 482.34 -205 481.68 -205 481 C-205.515625 480.9175 -206.03125 480.835 -206.5625 480.75 C-217.82704275 477.28398685 -233.44008546 465.57439224 -240 456 C-241.3266184 451.77366925 -240.75016157 448.63078602 -238.921875 444.65625 C-237.72673988 442.61156101 -236.58393395 440.76152654 -235 439 C-234.34 439 -233.68 439 -233 439 C-232.77828125 438.47277344 -232.5565625 437.94554687 -232.328125 437.40234375 C-230.51982333 434.13144514 -228.1639179 431.39383802 -225.75 428.5625 C-225.28464844 428.00240234 -224.81929687 427.44230469 -224.33984375 426.86523438 C-216.45236994 417.55453871 -216.45236994 417.55453871 -211.21875 416.37109375 C-203.99048323 416.54764624 -200.41130303 417.82512391 -195.02734375 422.8359375 C-178.90095979 437.68244972 -158.16594315 443.91065224 -136.62475586 443.48706055 C-134.04036556 443.43707186 -131.45788073 443.42552678 -128.87304688 443.41992188 C-127.1978967 443.40585036 -125.52276274 443.38965119 -123.84765625 443.37109375 C-122.71300682 443.3630497 -122.71300682 443.3630497 -121.55543518 443.35484314 C-102.79369492 442.94309717 -84.65666895 433.31443783 -71 421 C-70.18402344 420.33742188 -69.36804688 419.67484375 -68.52734375 418.9921875 C-53.77032381 406.6907731 -42.41929353 388.96392794 -39 370 C-38.81695313 369.01 -38.63390625 368.02 -38.4453125 367 C-34.94862482 341.3750722 -38.92421209 317.24753904 -54 296 C-54.59425781 295.15824219 -55.18851563 294.31648438 -55.80078125 293.44921875 C-63.86179306 282.71789247 -74.99991205 274.00004397 -87 268 C-87.309375 269.5159375 -87.309375 269.5159375 -87.625 271.0625 C-88.85603988 276.08550213 -90.85826895 280.79725244 -92.87939453 285.54321289 C-95.20438592 291.09988132 -95.20438592 291.09988132 -96 297 C-94.21391073 299.34047031 -94.21391073 299.34047031 -91.5625 301.25 C-81.98049149 309.30210799 -76.91162042 317.13178806 -73 329 C-72.52046875 330.16208984 -72.52046875 330.16208984 -72.03125 331.34765625 C-67.11090305 344.26356699 -69.04460131 360.97965665 -73.99609375 373.5234375 C-80.84255089 388.54300091 -93.35694737 402.88902452 -109 409 C-124.31061735 413.87440063 -139.22688909 413.49784844 -153.59936523 406.33422852 C-170.65265736 397.45871209 -182.3306574 385.48000772 -188.8125 367.1875 C-193.45181355 351.90505535 -191.58966797 335.91751586 -184.37695312 321.87231445 C-177.0077819 308.27763334 -165.62656727 296.13308258 -150.61328125 291.21875 C-148.41088756 290.69601782 -146.24158903 290.31099523 -144 290 C-142.94232422 289.83564453 -142.94232422 289.83564453 -141.86328125 289.66796875 C-135.58864805 288.82308995 -129.32002416 288.90375598 -123 289 C-122.89913086 288.38979004 -122.79826172 287.77958008 -122.69433594 287.15087891 C-121.55834589 280.85469625 -119.73492678 275.25603246 -117.25 269.375 C-116.52737822 267.61510329 -115.80603833 265.85467972 -115.0859375 264.09375 C-114.73112305 263.23136719 -114.37630859 262.36898438 -114.01074219 261.48046875 C-109.98150375 251.59228941 -106.41732626 241.54986469 -103.17919922 231.37646484 C-101.72366941 226.87952948 -99.99379704 222.6066642 -98.03515625 218.3059082 C-96.26169417 214.35535411 -94.66632375 210.33425726 -93.0625 206.3125 C-92.54091309 205.00865356 -92.54091309 205.00865356 -92.00878906 203.6784668 C-89.58582803 197.5800066 -87.31868989 191.45077963 -85.203125 185.23828125 C-84.25059146 182.67448157 -83.22618189 180.22675426 -82.1015625 177.73828125 C-79.90122676 172.85769482 -78.00087687 167.88758138 -76.125 162.875 C-67.58605449 140.28349218 -67.58605449 140.28349218 -63.375 131.375 C-61.08687853 126.45626753 -59.55526171 121.45128182 -58.02734375 116.25390625 C-56.70254497 112.05787056 -55.02297302 108.07021252 -53.28515625 104.03125 C-51.94876877 100.87916281 -50.71544396 97.70054209 -49.5 94.5 C-46.76227029 87.32201491 -43.82424753 80.23506982 -40.78515625 73.1796875 C-37.99174561 66.62900567 -35.56172254 60.00525481 -33.23071289 53.28076172 C-31.4325075 48.12871025 -29.42620875 43.10459099 -27.28125 38.0859375 C-25.76806927 34.44138635 -24.37715812 30.76011712 -23 27.0625 C-22.74605469 26.38646729 -22.49210937 25.71043457 -22.23046875 25.01391602 C-21.02177715 21.78725181 -19.84659565 18.5570917 -18.71875 15.30078125 C-15.15376142 5.279964 -11.77442944 -1.9083354 0 0 Z " fill="#A50C16" transform="translate(592,195)"/>
<path d="M0 0 C7.28741767 3.22268114 13.57806549 8.05276303 19.80273438 12.96118164 C24.16360267 16.39606838 28.63966433 19.63005573 33.1875 22.8125 C39.13529976 26.97891092 45.05474072 31.17964283 50.9375 35.4375 C51.68346436 35.97737549 52.42942871 36.51725098 53.19799805 37.07348633 C54.71013427 38.16838044 56.22209699 39.26351422 57.73388672 40.35888672 C61.486448 43.07648173 65.24343419 45.78794473 69 48.5 C70.50002146 49.58330362 72.00002146 50.66663696 73.5 51.75 C74.2425 52.28625 74.985 52.8225 75.75 53.375 C100.5 71.25 100.5 71.25 102.75024414 72.87524414 C104.2493445 73.95788254 105.74853062 75.0404022 107.24780273 76.12280273 C111.01228168 78.84079823 114.77521904 81.56088068 118.53515625 84.28515625 C125.80432269 89.54881928 133.09124885 94.78186072 140.4375 99.9375 C147.34034679 104.78387201 154.13476019 109.76606348 160.91162109 114.78662109 C166.77094885 119.1181551 172.6943357 123.34780111 178.65844727 127.53344727 C186.06851717 132.7374724 193.40152023 138.0461951 200.73388672 143.35888672 C204.486448 146.07648173 208.24343419 148.78794473 212 151.5 C213.50002146 152.58330362 215.00002146 153.66663696 216.5 154.75 C217.2425 155.28625 217.985 155.8225 218.75 156.375 C279.49999999 200.24999999 279.49999999 200.24999999 281.75097656 201.87573242 C283.24768701 202.95667191 284.74443168 204.03756401 286.24121094 205.1184082 C290.04182637 207.8629754 293.84180298 210.60841966 297.640625 213.35546875 C304.41540742 218.25345334 311.19258102 223.14744088 318 228 C325.58659358 233.40798119 333.13590141 238.86727127 340.68554688 244.32666016 C344.45593019 247.05263139 348.22803694 249.77621534 352 252.5 C353.50000859 253.58332144 355.00000858 254.66665479 356.5 255.75 C357.2425 256.28625 357.985 256.8225 358.75 257.375 C383.5 275.25 383.5 275.25 385.75097656 276.87573242 C387.24768701 277.95667191 388.74443168 279.03756401 390.24121094 280.1184082 C394.04182637 282.8629754 397.84180298 285.60841966 401.640625 288.35546875 C408.41540742 293.25345334 415.19258102 298.14744088 422 303 C429.58659358 308.40798119 437.13590141 313.86727127 444.68554688 319.32666016 C447.70988581 321.51324445 450.73533712 323.69828591 453.76098633 325.88305664 C455.25059568 326.9588044 456.74001707 328.03481247 458.22924805 329.11108398 C462.0879883 331.89947366 465.94973864 334.68354891 469.81640625 337.4609375 C473.59542511 340.17571003 477.3620169 342.9070437 481.12353516 345.64599609 C482.70819037 346.78943844 484.31115009 347.90744926 485.91796875 349.01953125 C492.51976881 353.74142174 497.4778405 359.95338109 499.1875 368.0625 C499.30756996 372.38946574 498.22814474 376.21510923 496.9765625 380.3125 C496.64577446 381.41477684 496.64577446 381.41477684 496.30830383 382.5393219 C493.45147144 391.95653952 490.35528792 401.29829212 487.27340698 410.64364624 C485.37881 416.3904786 483.49367388 422.14040913 481.609375 427.890625 C481.03043739 429.65716682 481.03043739 429.65716682 480.43980408 431.45939636 C476.54843426 443.35053442 472.73683574 455.26669928 468.9375 467.1875 C463.2803847 484.933616 457.5363939 502.64937755 451.73422241 520.34857178 C447.32269236 533.81112552 442.98627895 547.29380696 438.75 560.8125 C435.03516866 572.66658243 431.20944924 584.47537605 427.25 596.25 C422.47219217 610.45871789 417.86308044 624.71695158 413.3125 639 C407.78182713 656.35789613 402.17909984 673.69009459 396.5 691 C390.57000861 709.07790186 384.72298687 727.18028837 378.94287109 745.30664062 C374.02483835 760.72533788 369.0388725 776.12038595 364 791.5 C358.60088272 807.97935717 353.27006597 824.47892378 348 841 C341.01226608 862.89895755 333.92944888 884.76544969 326.74731445 906.60144043 C324.98429849 911.96991788 323.2448448 917.34500686 321.53456116 922.73051453 C320.55088139 925.82298123 319.55494955 928.91141683 318.55679321 931.99923706 C318.11078984 933.38983088 317.67058396 934.78230086 317.23690796 936.17678833 C314.50013842 944.96984046 312.10561765 951.93662941 303.875 956.875 C300.0208818 958.38313321 296.79075892 959.12480289 292.65236974 959.1276505 C291.78251321 959.13066647 290.91265668 959.13368244 290.01644087 959.1367898 C289.06341975 959.13502033 288.11039863 959.13325086 287.12849808 959.13142776 C285.60056873 959.13450672 285.60056873 959.13450672 284.04177213 959.13764787 C280.60069176 959.14333894 277.15965116 959.14185802 273.71856689 959.14044189 C271.23768592 959.14302432 268.75680537 959.14603713 266.2759254 959.1494453 C260.1548543 959.15668361 254.03379578 959.15921862 247.91272091 959.15977435 C240.58292413 959.16068747 233.25313544 959.16735346 225.92334214 959.17412117 C208.20688963 959.19018846 190.49043798 959.19608515 172.77397949 959.20086992 C164.39507395 959.203205 156.01616911 959.20680754 147.6372641 959.2105653 C118.96244756 959.22340106 90.2876314 959.23412054 61.61281204 959.2375679 C59.81245952 959.23778954 58.012107 959.23801132 56.21175449 959.23823325 C54.40702457 959.23845389 52.60229466 959.23867438 50.79756474 959.2388947 C47.17689212 959.23933726 43.5562195 959.23978437 39.93554688 959.24023438 C39.03782919 959.24034377 38.14011151 959.24045316 37.21519026 959.24056586 C8.09973994 959.24419735 -21.01568549 959.26012073 -50.13112628 959.28342474 C-80.90479702 959.30801102 -111.67845353 959.32174017 -142.45213437 959.32293582 C-145.82914559 959.32310728 -149.20615681 959.32332271 -152.58316803 959.32357025 C-153.41469923 959.32362602 -154.24623044 959.32368179 -155.10295956 959.32373925 C-168.49448756 959.3248907 -181.88599007 959.33592066 -195.27750945 959.35045731 C-208.73310073 959.36481114 -222.18865925 959.36806558 -235.64425609 959.36001733 C-243.64106011 959.35555591 -251.63775853 959.35944212 -259.63454871 959.37525584 C-265.60145217 959.38613253 -271.5682344 959.38138102 -277.53514233 959.37048396 C-279.952378 959.3685167 -282.36962416 959.3716525 -284.78684506 959.38032833 C-288.06645942 959.39135681 -291.34553452 959.3839776 -294.62513351 959.3719368 C-295.56878997 959.37953199 -296.51244643 959.38712718 -297.48469853 959.39495254 C-305.26255638 959.33309086 -312.49337138 957.64363601 -318.3671875 952.19702148 C-320.4914685 949.33870739 -321.53058665 946.50853465 -322.75 943.16015625 C-323.00383453 942.46421356 -323.25766907 941.76827087 -323.51919556 941.05123901 C-327.0262114 931.31830578 -330.18798361 921.46602131 -333.375 911.625 C-334.07664322 909.46738947 -334.77847017 907.30983869 -335.48046875 905.15234375 C-340.70493672 889.07630726 -345.85964241 872.97805336 -350.99725342 856.87408447 C-355.93567605 841.39529795 -360.94145344 825.93992899 -366 810.5 C-371.74064721 792.97813198 -377.39714071 775.43113256 -383 757.86474609 C-387.93755165 742.38908983 -392.94246446 726.93684311 -398 711.5 C-403.73932358 693.98217202 -409.39529012 676.43945364 -414.99597168 658.87683105 C-420.34359577 642.11245914 -425.78216586 625.37938298 -431.26348877 608.65829468 C-435.97451917 594.2811939 -440.59093499 579.87801303 -445.1184082 565.44213867 C-448.23469388 555.51163019 -451.4276101 545.61401126 -454.75 535.75 C-459.11364214 522.79213848 -463.28700347 509.77750404 -467.4375 496.75 C-473.07533025 479.05827333 -478.79140033 461.39384665 -484.58139038 443.75131226 C-485.80300457 440.02893353 -487.02334895 436.30614059 -488.2434082 432.58325195 C-491.40884791 422.92731241 -494.57493497 413.27168895 -497.7731781 403.6265564 C-498.82697131 400.44460123 -499.87434362 397.2605605 -500.92001343 394.07592773 C-501.38064737 392.67869205 -501.84440267 391.28248049 -502.31167603 389.88745117 C-508.83761601 370.40217837 -508.83761601 370.40217837 -504 360 C-500.22294036 353.87207651 -495.64869945 349.82732162 -489.75 345.8125 C-488.14039281 344.68392484 -486.53102447 343.55500895 -484.921875 342.42578125 C-484.10396484 341.85811035 -483.28605469 341.29043945 -482.44335938 340.70556641 C-478.59397124 338.01853348 -474.79903947 335.25751537 -471 332.5 C-469.50028363 331.41627406 -468.0002829 330.33294152 -466.5 329.25 C-465.38625 328.445625 -465.38625 328.445625 -464.25 327.625 C-438 308.66666667 -411.75 289.70833333 -385.5 270.75 C-384.75741943 270.21366943 -384.01483887 269.67733887 -383.24975586 269.12475586 C-381.7506555 268.04211746 -380.25146938 266.9595978 -378.75219727 265.87719727 C-374.98771832 263.15920177 -371.22478096 260.43911932 -367.46484375 257.71484375 C-360.19567731 252.45118072 -352.90875115 247.21813928 -345.5625 242.0625 C-339.47874537 237.79119875 -333.47286072 233.42492354 -327.5 229 C-320.84058446 224.0664504 -314.12530093 219.22742435 -307.34155273 214.46655273 C-299.93148283 209.2625276 -292.59847977 203.9538049 -285.26611328 198.64111328 C-281.513552 195.92351827 -277.75656581 193.21205527 -274 190.5 C-272.49997854 189.41669638 -270.99997854 188.33336304 -269.5 187.25 C-248.5 172.08333333 -227.5 156.91666667 -206.5 141.75 C-205.75717773 141.2135083 -205.01435547 140.6770166 -204.24902344 140.12426758 C-202.75231299 139.04332809 -201.25556832 137.96243599 -199.75878906 136.8815918 C-195.95817363 134.1370246 -192.15819702 131.39158034 -188.359375 128.64453125 C-181.02666167 123.34317769 -173.68638156 118.05344563 -166.31835938 112.80126953 C-159.29435105 107.7901413 -152.30621493 102.72930529 -145.31445312 97.67333984 C-140.79764229 94.40770467 -136.278495 91.14530382 -131.75976562 87.88232422 C-127.95884225 85.13748856 -124.15852668 82.39181873 -120.359375 79.64453125 C-113.02666167 74.34317769 -105.68638156 69.05344563 -98.31835938 63.80126953 C-91.29435105 58.7901413 -84.30621493 53.72930529 -77.31445312 48.67333984 C-73.54406981 45.94736861 -69.77196306 43.22378466 -66 40.5 C-64.49999141 39.41667856 -62.99999142 38.33334521 -61.5 37.25 C-58.5 35.08333333 -55.5 32.91666667 -52.5 30.75 C-51.75693604 30.2132666 -51.01387207 29.6765332 -50.24829102 29.12353516 C-48.75427963 28.04468015 -47.25997804 26.96622692 -45.76538086 25.88818359 C-41.92122767 23.11462308 -38.08298597 20.33340423 -34.25390625 17.5390625 C-8.09435394 -1.51849565 -8.09435394 -1.51849565 0 0 Z M-13.125 53.1875 C-14.56130527 54.29452059 -15.99885219 55.39993167 -17.4375 56.50390625 C-18.18515625 57.08027832 -18.9328125 57.65665039 -19.703125 58.25048828 C-23.45993219 61.11201893 -27.29001178 63.86960241 -31.125 66.625 C-31.88441895 67.1718042 -32.64383789 67.7186084 -33.42626953 68.28198242 C-38.50241447 71.93315833 -43.58964597 75.56877317 -48.68115234 79.19848633 C-55.70550852 84.2094345 -62.69364103 89.27059054 -69.68554688 94.32666016 C-74.20235771 97.59229533 -78.721505 100.85469618 -83.24023438 104.11767578 C-87.04115775 106.86251144 -90.84147332 109.60818127 -94.640625 112.35546875 C-101.97333833 117.65682231 -109.31361844 122.94655437 -116.68164062 128.19873047 C-123.70564895 133.2098587 -130.69378507 138.27069471 -137.68554688 143.32666016 C-142.20235771 146.59229533 -146.721505 149.85469618 -151.24023438 153.11767578 C-155.04115775 155.86251144 -158.84147332 158.60818127 -162.640625 161.35546875 C-169.97333833 166.65682231 -177.31361844 171.94655437 -184.68164062 177.19873047 C-191.70564895 182.2098587 -198.69378507 187.27069471 -205.68554688 192.32666016 C-210.20235771 195.59229533 -214.721505 198.85469618 -219.24023438 202.11767578 C-223.04115775 204.86251144 -226.84147332 207.60818127 -230.640625 210.35546875 C-237.97333833 215.65682231 -245.31361844 220.94655437 -252.68164062 226.19873047 C-259.70564895 231.2098587 -266.69378507 236.27069471 -273.68554688 241.32666016 C-277.45593019 244.05263139 -281.22803694 246.77621534 -285 249.5 C-286.50000859 250.58332144 -288.00000858 251.66665479 -289.5 252.75 C-298.5 259.25 -307.5 265.75 -316.5 272.25 C-317.6142334 273.05473755 -317.6142334 273.05473755 -318.75097656 273.87573242 C-320.24768701 274.95667191 -321.74443168 276.03756401 -323.24121094 277.1184082 C-327.04182637 279.8629754 -330.84180298 282.60841966 -334.640625 285.35546875 C-341.97333833 290.65682231 -349.31361844 295.94655437 -356.68164062 301.19873047 C-363.70564895 306.2098587 -370.69378507 311.27069471 -377.68554688 316.32666016 C-382.20235771 319.59229533 -386.721505 322.85469618 -391.24023438 326.11767578 C-395.04115775 328.86251144 -398.84147332 331.60818127 -402.640625 334.35546875 C-409.97036718 339.65467424 -417.30713176 344.94304209 -424.67285156 350.19213867 C-430.22911192 354.1553175 -435.75830513 358.15570199 -441.28857422 362.1550293 C-448.17278504 367.13091493 -455.08122773 372.07232136 -462 377 C-460.06322581 385.26927983 -457.687478 393.28011605 -454.9375 401.3125 C-454.130193 403.70268043 -453.32425633 406.09332405 -452.51953125 408.484375 C-452.10396973 409.71865234 -451.6884082 410.95292969 -451.26025391 412.22460938 C-449.16913979 418.48903956 -447.14547041 424.77500611 -445.125 431.0625 C-444.70690576 432.36190978 -444.28877394 433.66130747 -443.87060547 434.96069336 C-443.0163127 437.61606594 -442.16252103 440.271599 -441.30908203 442.92724609 C-439.06449874 449.91121182 -436.81650504 456.89406893 -434.5625 463.875 C-434.33636017 464.57556519 -434.11022034 465.27613037 -433.87722778 465.9979248 C-429.89980095 478.30997743 -425.82967067 490.59009453 -421.70336914 502.85302734 C-419.34711416 509.8681973 -417.08615615 516.90338447 -414.93139648 523.9831543 C-413.53216783 528.51533478 -412.01931465 533.00695463 -410.5 537.5 C-408.24541668 544.21666772 -406.05636858 550.94341169 -403.99609375 557.72265625 C-399.40591262 572.82525221 -394.43082438 587.79504315 -389.40234375 602.75610352 C-386.85709744 610.34066306 -384.366006 617.93535157 -381.99742126 625.57717896 C-379.21407316 634.5560505 -376.34691424 643.50833936 -373.48876953 652.46362305 C-372.50057421 655.56070038 -371.51393092 658.65826944 -370.52734375 661.75585938 C-367.46106571 671.37245291 -364.36614423 680.97577923 -361.15380859 690.54467773 C-359.30388193 696.08467181 -357.51414487 701.64406697 -355.72235107 707.20306396 C-354.53933213 710.87292859 -353.35376114 714.54196823 -352.16796875 718.2109375 C-351.91577576 718.9912735 -351.66358276 719.7716095 -351.40374756 720.57559204 C-348.54352855 729.42005784 -345.66192881 738.25754795 -342.78106689 747.0953064 C-337.49636472 763.30807492 -332.23842488 779.52878659 -327.03564453 795.76806641 C-325.23481315 801.38791689 -323.43022052 807.00655808 -321.625 812.625 C-321.25777832 813.76791504 -320.89055664 814.91083008 -320.51220703 816.08837891 C-317.07723333 826.77216829 -313.62317572 837.44975309 -310.16552734 848.1262207 C-307.87927635 855.18645193 -305.59650494 862.24776045 -303.32421875 869.3125 C-302.67711211 871.32371576 -302.0299561 873.33491562 -301.38275146 875.34609985 C-300.96341581 876.64926822 -300.5441844 877.95247013 -300.12506104 879.25570679 C-297.17679685 888.41895857 -294.17807989 897.56357119 -291.06738281 906.6730957 C-290.67631348 907.82878052 -290.67631348 907.82878052 -290.27734375 909.0078125 C-290.05296631 909.66410645 -289.82858887 910.32040039 -289.59741211 910.99658203 C-288.91317581 913.29116441 -288.46958605 915.65206973 -288 918 C-100.56 918 86.88 918 280 918 C281.65 912.39 283.3 906.78 285 901 C286.2959562 896.84744669 287.60124858 892.70178608 288.9375 888.5625 C289.28321045 887.48669678 289.6289209 886.41089355 289.98510742 885.30249023 C292.11813873 878.68203934 294.29519112 872.07782022 296.51074219 865.48461914 C300.38166131 853.92625703 304.08799389 842.31297249 307.83187866 830.71299744 C309.41538805 825.80743417 311.00296515 820.90320839 312.59375 816 C316.77827937 803.09759357 320.94367805 790.18934174 325.07421875 777.26953125 C325.42882675 776.16044403 325.78343475 775.05135681 326.14878845 773.90866089 C327.91095742 768.39600484 329.67165502 762.88288363 331.43041992 757.36914062 C334.51800268 747.69719977 337.62855185 738.03653758 340.859375 728.41137695 C342.88589122 722.35047988 344.84757068 716.26857839 346.8125 710.1875 C347.03666595 709.49488068 347.26083191 708.80226135 347.49179077 708.08865356 C350.7064648 698.15540668 353.89223691 688.21313209 357.0625 678.265625 C357.77237106 676.04011773 358.48225065 673.81461318 359.19213867 671.58911133 C360.57812986 667.24354688 361.96056526 662.89687235 363.34106445 658.54956055 C366.43297504 648.83843447 369.55334914 639.15074085 373.03840637 629.57225037 C374.71927955 624.92961264 376.14946767 620.24605352 377.5 615.5 C379.14493837 609.75456762 380.96503437 604.11955144 383 598.5 C385.01216541 592.94219672 386.82210905 587.37325106 388.4375 581.6875 C390.48160049 574.49974796 392.89767067 567.4842907 395.41162109 560.44873047 C397.54606576 554.42650581 399.41053291 548.36712101 401.15625 542.22265625 C402.58851824 537.24248172 404.236391 532.37195593 406 527.5 C408.00294955 521.96180015 409.81887762 516.41252268 411.4375 510.75 C413.1902886 504.63485545 415.09214738 498.59034995 417.125 492.5625 C420.25681793 483.27208202 423.29983561 473.95456652 426.3125 464.625 C426.54786469 463.89641785 426.78322937 463.16783569 427.02572632 462.41717529 C428.68548078 457.2786529 430.34307159 452.13943425 432 447 C432.42609973 445.67854591 432.85220627 444.35709401 433.27832031 443.03564453 C433.48238495 442.40275513 433.68644958 441.76986572 433.896698 441.11779785 C434.50701238 439.22513752 435.11751974 437.33253942 435.72802734 435.43994141 C436.53169381 432.9465313 437.33411119 430.45271824 438.13525391 427.95849609 C440.22048828 421.47488941 442.32596538 414.99898214 444.46910095 408.53425598 C445.60272688 405.11255702 446.72987112 401.68873689 447.85671997 398.26480103 C448.40772995 396.59687399 448.96195864 394.93000662 449.51950073 393.26425171 C450.29576115 390.94435772 451.06107974 388.62111236 451.82421875 386.296875 C452.06009705 385.60151138 452.29597534 384.90614777 452.53900146 384.18971252 C453.87426903 380.1346426 453.87426903 380.1346426 453 376 C451.31916036 374.54763649 451.31916036 374.54763649 449.203125 373.21484375 C448.41599121 372.68947021 447.62885742 372.16409668 446.81787109 371.62280273 C445.5467749 370.78857788 445.5467749 370.78857788 444.25 369.9375 C437.38773381 365.34543323 430.78366116 360.60926981 424.28515625 355.515625 C419.85082663 352.07714636 415.24026059 348.88843694 410.64575195 345.66943359 C405.42117384 342.00798224 400.2306688 338.30314679 395.0625 334.5625 C394.31653564 334.02262451 393.57057129 333.48274902 392.80200195 332.92651367 C391.28986573 331.83161956 389.77790301 330.73648578 388.26611328 329.64111328 C384.513552 326.92351827 380.75656581 324.21205527 377 321.5 C375.49997854 320.41669638 373.99997854 319.33336304 372.5 318.25 C371.7575 317.71375 371.015 317.1775 370.25 316.625 C345.5 298.75 345.5 298.75 343.24902344 297.12426758 C341.75231299 296.04332809 340.25556832 294.96243599 338.75878906 293.8815918 C334.95817363 291.1370246 331.15819702 288.39158034 327.359375 285.64453125 C320.58459258 280.74654666 313.80741898 275.85255912 307 271 C299.41340642 265.59201881 291.86409859 260.13272873 284.31445312 254.67333984 C280.54406981 251.94736861 276.77196306 249.22378466 273 246.5 C271.49999141 245.41667856 269.99999142 244.33334521 268.5 243.25 C267.7575 242.71375 267.015 242.1775 266.25 241.625 C259.49999999 236.75 259.49999999 236.75 257.24902344 235.12426758 C255.75231299 234.04332809 254.25556832 232.96243599 252.75878906 231.8815918 C248.95817363 229.1370246 245.15819702 226.39158034 241.359375 223.64453125 C234.58459258 218.74654666 227.80741898 213.85255912 221 209 C213.41340642 203.59201881 205.86409859 198.13272873 198.31445312 192.67333984 C194.54406983 189.94736863 190.77198481 187.22375451 187 184.5 C182.45224422 181.2160604 177.90490626 177.93154955 173.359375 174.64453125 C166.58459258 169.74654666 159.80741898 164.85255912 153 160 C145.41340642 154.59201881 137.86409859 149.13272873 130.31445312 143.67333984 C126.54406981 140.94736861 122.77196306 138.22378466 119 135.5 C117.49999141 134.41667856 115.99999142 133.33334521 114.5 132.25 C113.7575 131.71375 113.015 131.1775 112.25 130.625 C105.49999999 125.75 105.49999999 125.75 103.24902344 124.12426758 C101.75231299 123.04332809 100.25556832 121.96243599 98.75878906 120.8815918 C94.95817363 118.1370246 91.15819702 115.39158034 87.359375 112.64453125 C80.58459258 107.74654666 73.80741898 102.85255912 67 98 C59.41340642 92.59201881 51.86409859 87.13272873 44.31445312 81.67333984 C41.29002213 79.486689 38.26446744 77.30159654 35.23876953 75.11669922 C33.75005991 74.04164632 32.2614526 72.96645172 30.77294922 71.89111328 C26.89975054 69.09309762 23.02515948 66.29703867 19.1484375 63.50390625 C18.34921875 62.92769531 17.55 62.35148437 16.7265625 61.7578125 C15.21398684 60.66735098 13.70099941 59.57746029 12.1875 58.48828125 C11.49398438 57.988125 10.80046875 57.48796875 10.0859375 56.97265625 C9.07418457 56.2458667 9.07418457 56.2458667 8.04199219 55.50439453 C6.62214984 54.45835573 5.22288674 53.38403845 3.84082031 52.28857422 C3.14311523 51.73830566 2.44541016 51.18803711 1.7265625 50.62109375 C1.10604004 50.11892334 0.48551758 49.61675293 -0.15380859 49.09936523 C-5.45139493 45.94477237 -9.09756795 50.00194386 -13.125 53.1875 Z " fill="#A50B15" transform="translate(516,33)"/>
</svg>
