<svg xmlns="http://www.w3.org/2000/svg" width="1024" height="1024"><path fill="#fefdfe" d="M516 33c7.287 3.223 13.578 8.053 19.803 12.961 4.36 3.435 8.837 6.67 13.385 9.852a1409 1409 0 0 1 17.75 12.624l2.26 1.636 4.536 3.286c3.752 2.717 7.51 5.429 11.266 8.141l4.5 3.25 2.25 1.625 27 19.5 4.498 3.248q5.647 4.077 11.287 8.162c7.27 5.264 14.556 10.497 21.903 15.653 6.902 4.846 13.697 9.828 20.474 14.849 5.859 4.331 11.782 8.56 17.746 12.746 7.41 5.204 14.744 10.513 22.076 15.826 3.752 2.717 7.51 5.429 11.266 8.141l4.5 3.25 2.25 1.625 63.001 45.5q2.245 1.623 4.49 3.243 5.7 4.117 11.4 8.237A3748 3748 0 0 0 834 261c7.587 5.408 15.136 10.867 22.686 16.327q5.656 4.089 11.314 8.173l4.5 3.25 2.25 1.625 27.001 19.5q2.245 1.623 4.49 3.243 5.7 4.117 11.4 8.237A3748 3748 0 0 0 938 336c7.587 5.408 15.136 10.867 22.686 16.327a18675 18675 0 0 0 13.543 9.784q5.788 4.183 11.587 8.35a2176 2176 0 0 1 11.308 8.185 298 298 0 0 0 4.794 3.374c6.602 4.721 11.56 10.933 13.27 19.043.12 4.326-.96 8.152-2.211 12.25l-.669 2.226c-2.857 9.418-5.953 18.76-9.035 28.105q-2.84 8.62-5.664 17.247l-1.17 3.568c-3.89 11.892-7.702 23.808-11.501 35.729a6826 6826 0 0 1-17.204 53.16 3271 3271 0 0 0-12.984 40.465 1799 1799 0 0 1-11.5 35.437c-4.778 14.209-9.387 28.467-13.937 42.75a6382 6382 0 0 1-16.813 52 6894 6894 0 0 0-17.557 54.307A6187 6187 0 0 1 880 824.5c-5.4 16.48-10.73 32.979-16 49.5a7757 7757 0 0 1-21.253 65.601 1728 1728 0 0 0-5.212 16.13c-.984 3.092-1.98 6.18-2.978 9.268a495 495 0 0 0-1.32 4.178c-2.737 8.793-5.131 15.76-13.362 20.698-3.854 1.508-7.084 2.25-11.223 2.253l-2.636.009-2.888-.006-3.086.007q-5.162.006-10.323.002l-7.443.01q-9.181.01-18.363.01-10.995.002-21.99.014c-17.716.016-35.433.022-53.149.027q-12.568.003-25.137.01a262743 262743 0 0 1-107.701.03h-2.72c-29.116.003-58.232.02-87.347.042a121461 121461 0 0 1-102.452.04h-2.52q-20.087.005-40.175.027-20.182.022-40.366.01-11.996-.007-23.99.015c-5.967.011-11.934.006-17.901-.005q-3.626-.002-7.252.01c-3.28.011-6.559.004-9.838-.008l-2.86.023c-7.778-.062-15.008-1.751-20.882-7.198-2.124-2.858-3.164-5.688-4.383-9.037l-.77-2.109c-3.506-9.733-6.668-19.585-9.855-29.426l-2.105-6.473c-5.225-16.076-10.38-32.174-15.517-48.278A6272 6272 0 0 0 150 843.5a7043 7043 0 0 1-17-52.635 6277 6277 0 0 0-15-46.365 6996 6996 0 0 1-16.996-52.623 6610 6610 0 0 0-16.267-50.219 3562 3562 0 0 1-13.855-43.216c-3.117-9.93-6.31-19.828-9.632-29.692-4.364-12.958-8.537-25.972-12.687-39a6468 6468 0 0 0-17.144-52.999l-3.662-11.168a8969 8969 0 0 0-9.53-28.956 3941 3941 0 0 1-3.147-9.551q-.69-2.096-1.392-4.189C7.162 403.402 7.162 403.402 12 393c3.777-6.128 8.351-10.173 14.25-14.187l4.828-3.387 2.479-1.72c3.849-2.687 7.644-5.448 11.443-8.206l4.5-3.25 2.25-1.625 78.75-56.875 2.25-1.625 4.498-3.248q5.647-4.077 11.287-8.162c7.27-5.264 14.556-10.497 21.903-15.652 6.083-4.272 12.09-8.638 18.062-13.063a968 968 0 0 1 20.158-14.533c7.41-5.204 14.744-10.513 22.076-15.826 3.752-2.717 7.51-5.429 11.266-8.141l4.5-3.25 63-45.5 2.251-1.626 4.49-3.242q5.7-4.117 11.4-8.237a4057 4057 0 0 1 22.04-15.844c7.025-5.01 14.013-10.072 21.005-15.128q6.776-4.897 13.554-9.79 5.702-4.118 11.4-8.238A4057 4057 0 0 1 417.683 96.8c7.024-5.01 14.012-10.072 21.004-15.128Q444.342 77.584 450 73.5l4.5-3.25 9-6.5 6.735-4.862q5.767-4.159 11.511-8.349C507.906 31.482 507.906 31.482 516 33"/><path fill="#a50c16" d="M592 195c7.679 1.664 14.812 4.907 22 8q2.382.988 4.766 1.973c44.13 18.36 82.298 46.119 116.047 79.714l2.137 2.124c4.553 4.567 8.856 9.292 13.05 14.189l2.703 3.098c9.75 11.35 18.34 23.354 26.672 35.777l1.767 2.629c3.563 5.366 6.802 10.828 9.858 16.496l1.52 2.688c4.257 7.613 7.935 15.471 11.585 23.388.741 1.593 1.503 3.176 2.27 4.756 4.006 8.368 6.85 17.163 9.851 25.927a387 387 0 0 0 2.899 8.053q.942 2.593 1.875 5.188c.4 1.109.8 2.217 1.21 3.36 5.3 15.224 8.07 30.676 10.477 46.577.11.702.218 1.404.33 2.126 3.212 20.915 3.197 41.893 3.223 63.007q.008 4.496.041 8.99c.118 15.918.08 31.295-3.281 46.94-.333 2.31-.648 4.622-.937 6.938-3.616 25.69-11.542 50.207-21.004 74.28-1.264 3.32-2.355 6.676-3.383 10.075C807 693 807 693 805 695a94 94 0 0 0-1.5 4.5c-4.143 11.794-11.183 22.714-17.992 33.133-1.418 2.226-2.696 4.48-3.946 6.804-3.142 5.77-6.86 11.143-10.562 16.563l-1.684 2.531c-4.135 6.109-8.769 11.677-13.574 17.258-2.398 2.79-4.701 5.645-6.992 8.524-7.647 9.406-16.17 18.134-24.75 26.687a1785 1785 0 0 0-3.172 3.313c-8.353 8.656-17.134 16.105-26.83 23.21-3.019 2.232-5.975 4.543-8.936 6.852-8.996 7.004-18.445 13.233-28.125 19.25l-3.103 1.945C637.11 876 637.11 876 633 876v2q-1.903.758-3.812 1.5l-2.145.844C625 881 625 881 622 881v2l-1.63.64q-3.78 1.486-7.558 2.985l-2.782 1.103c-4.998 1.999-9.882 4.097-14.717 6.46-6.863 3.25-13.974 5.223-21.27 7.237-3.073.865-6.12 1.813-9.168 2.763l-3.16.972q-3.142.973-6.278 1.965c-4.007 1.02-8.015 1.667-12.097 2.313-3.448.58-6.856 1.28-10.278 2q-4.029.792-8.062 1.562l-2.023.401c-16.928 3.249-33.917 3.062-51.079 2.99a1491 1491 0 0 0-12.4.01c-16.002.057-31.684.027-47.453-3.055-3.823-.646-7.683-.906-11.545-1.221-10.119-.97-19.721-3.422-29.5-6.125l-3.281-.887a716 716 0 0 1-5.219-1.437c-2.82-.763-5.658-1.436-8.5-2.114-5.847-1.457-11.386-3.385-17-5.562l-2.235-.863q-7.89-3.05-15.765-6.137v-2l-3.906-.719c-5.293-1.182-9.8-3.294-14.594-5.781l-2.617-1.333c-7.852-4.05-15.456-8.474-23.012-13.046-2.746-1.645-5.529-3.222-8.308-4.808C247.573 850.19 213.015 829.03 203 809c-.915-4.224-1.008-7.784 0-12 2.784-4.187 6.767-7.393 10.53-10.672 1.902-1.719 3.529-3.602 5.157-5.578 9.59-11.052 9.59-11.052 14.676-12.355 5.868-.208 10.244 1.411 14.606 5.41 2.052 2.029 4.043 4.104 6.031 6.195 23.377 23.952 54.885 44.495 86.27 55.95C343 837 343 837 346 839a257 257 0 0 0 9 3l3.621 1.164c9.054 2.893 18.15 5.547 27.379 7.836l2.38.594c25.433 6.264 49.859 9.018 76.058 8.718q3.975-.016 7.95-.029 3.773-.02 7.546-.045l3.55-.022 3.264-.039 2.864-.03c2.536-.053 2.536-.053 5.388-1.147 1.971-.239 3.948-.437 5.926-.613 12.48-1.177 24.165-2.37 36.074-6.387a311 311 0 0 1 6.125-1.562l2.78-.686a367 367 0 0 1 5.845-1.373c7.656-1.782 14.75-4.369 22-7.379q3.21-1.313 6.422-2.625l3.047-1.252a220 220 0 0 1 7.082-2.713c3.838-1.463 7.473-3.125 11.136-4.972l2.075-1.044c7.279-3.717 14.3-7.84 21.29-12.069a979 979 0 0 1 6.745-4.02c12.818-7.644 25.084-15.816 36.012-26.04a251 251 0 0 1 6.214-5.554c4.228-3.686 8.332-7.491 12.414-11.336l2.077-1.945c5.719-5.373 11.127-10.712 15.923-16.93l1.435-1.845q1.471-1.893 2.936-3.79 2.061-2.663 4.133-5.318c11.664-14.996 21.426-30.72 30.489-47.39a579 579 0 0 1 5.64-10.126l1.366-2.407q1.267-2.23 2.554-4.449c2.771-4.898 4.644-9.791 6.26-15.175l.922-2.914q1.212-3.97 2.42-7.94c.767-2.502 1.549-5 2.33-7.498 3.568-11.471 6.803-22.902 9.328-34.648l.8-3.465A230 230 0 0 0 777 592l.419-2.479c2.455-15.285 2.875-30.45 2.894-45.896l.01-2.795c.028-13.06-.773-25.865-2.323-38.83l-.38-3.31c-1.16-9.639-2.69-18.92-5.6-28.206-.944-3.224-1.657-6.405-2.319-9.694-4.337-21.416-12.894-41.652-22.808-61.03a272 272 0 0 1-2.256-4.576c-6.288-12.23-13.35-24.21-22.028-34.891-1.965-2.423-3.764-4.92-5.53-7.492-6.867-9.898-14.418-18.592-22.954-27.051l-1.491-1.478c-8.225-8.116-16.794-15.679-25.759-22.96l-2.05-1.681c-3.82-3.106-7.68-5.965-11.825-8.631l-3.637-2.41C619.408 268.088 619.408 268.088 586 255l-.41 1.729c-3.298 12.683-8.328 25.494-14.043 37.263l-1.422 2.945-1.305 2.59c-1.025 3.092-1.17 4.484.18 7.473 2.867 1.53 2.867 1.53 5.025 2.271 3.237 1.195 6.198 2.899 9.225 4.541l1.975 1.067q1.97 1.064 3.939 2.13c1.628.879 3.264 1.74 4.902 2.6 6.349 3.36 12.115 7.193 17.934 11.391q2.025 1.419 4.055 2.832C635.667 347.514 635.667 347.514 643 355a522 522 0 0 0 9.406 9.23c10.289 9.963 19.373 19.984 27.335 31.896 1.678 2.497 3.44 4.932 5.197 7.374 4.757 6.86 8.907 13.756 12.062 21.5q.926 1.818 1.875 3.625c2.293 4.507 4.026 9.197 5.781 13.934a137 137 0 0 0 3.25 7.601c11.24 25.098 15.098 53.104 15.367 80.39l.038 3.532c.243 28.219.25 55.02-8.435 82.132A94 94 0 0 0 713 623h-2l.125 2.172c-.14 3.16-.868 5.183-2.125 8.078l-1.36 3.14a681 681 0 0 1-6.96 14.822l-1.008 2.1-.903 1.864c-.841 1.843-.841 1.843-1.248 3.992L697 661l-2 1a175 175 0 0 0-2.179 5.065c-3.96 9.328-9.985 17.876-15.84 26.095-1.955 2.716-1.955 2.716-3.352 5.223-2.321 3.73-5.092 7.04-7.879 10.43l-1.66 2.04C651.81 725.88 638.67 739.513 623 751a614 614 0 0 0-5.187 4.188c-7.192 5.765-14.524 10.818-22.672 15.136-3.871 2.066-7.694 4.21-11.516 6.364l-2.055 1.153-1.968 1.108-1.899 1.068a100 100 0 0 0-4.164 2.569c-3.453 1.923-7.05 3.1-10.789 4.351-6.694 2.278-6.694 2.278-13.187 5.063-10.611 4.923-22.025 8.26-33.563 10q-3.909.74-7.812 1.5A424 424 0 0 1 500 805l-2.716.526c-11.205 1.924-22.436 1.846-33.776 1.845-3.473.004-6.945.04-10.418.078-24.472.122-46.573-5.075-69.777-12.386l-3.133-.982c-10.243-3.284-20.08-7.436-29.805-12.019-.724-.34-1.449-.68-2.195-1.032-4.776-2.278-9.353-4.744-13.809-7.608-2.016-1.209-4.004-2.219-6.121-3.23-4.548-2.246-8.582-5.04-12.687-8.005l-2.276-1.627C308.091 756.827 302.98 753.02 298 749l-3.918-3.102-4.332-3.46-2.08-1.645c-11.004-8.865-11.004-8.865-11.983-15.043-.264-5.298 2.186-8.042 5.598-11.867L284 711q1.69-1.876 3.371-3.758 1.812-1.998 3.629-3.992l1.723-1.897C303.4 689.91 303.4 689.91 310 689.313c6.607.58 11.249 4.787 15.688 9.375 7.977 8.239 17.437 14.548 27.062 20.687l2.363 1.515c5.124 3.21 10.316 5.774 15.887 8.11a1113 1113 0 0 1 4.027 1.781q5.07 2.232 10.153 4.429c1.484.644 2.963 1.298 4.441 1.954 8.18 3.488 16.76 5.733 25.379 7.836l2.438.612C450.812 753.658 488.29 750.224 521 741l3.145-.848c16.248-4.567 32.603-13.22 46.855-22.152l2.2-1.344c7.082-4.504 13.507-9.912 20.005-15.206 1.579-1.276 3.18-2.525 4.783-3.77 10.98-8.613 19.718-18.606 27.27-30.293L627 665h2l.797-2.203c1.22-2.838 2.642-5.051 4.453-7.547l1.883-2.64L638 650c7.547-10.718 12.125-21.727 16.324-34.06.85-2.442 1.796-4.844 2.739-7.253 9.601-26.484 12.67-55.99 10.062-83.937l-.238-2.852c-.474-5.2-1.322-9.892-2.887-14.898a154 154 0 0 1-.812-4.937c-1.336-7.576-3.73-14.793-6.188-22.063l-.64-1.925c-6.247-18.566-15.618-36.13-26.485-52.387l-1.945-2.926c-1.91-2.81-1.91-2.81-4.172-5.492C622 415 622 415 622 413l-3-1c-1.367-1.426-1.367-1.426-2.875-3.312-11.47-13.474-25.735-23.798-40.69-33.06-1.059-.664-1.059-.664-2.138-1.343l-1.927-1.191L570 372v-2l-1.957-.246c-4.2-1.04-7.859-2.915-11.73-4.817q-2.285-1.116-4.575-2.222l-2.03-.996c-1.706-.848-1.706-.848-3.708-.719-5.215 12.25-5.215 12.25-9.332 24.895-.878 2.768-2.188 5.19-3.55 7.746-2.489 5.254-4.235 10.866-6.118 16.359.666.235 1.333.47 2.02.71 3.79 1.64 7.178 3.719 10.668 5.915l2.159 1.358c5.717 3.645 10.988 7.622 16.153 12.017q1.57 1.28 3.145 2.555c9.18 7.502 17.38 15.41 23.855 25.445l1.824 2.727C597.021 476.589 603.626 493.705 608 512l.54 2.158c8.082 33.527 1.87 68.586-13.54 98.842l-1.73 3.414c-3.851 7.143-8.315 13.549-13.27 19.961l-1.725 2.234C571.981 646.565 564.773 653.502 557 660c-.54.455-1.082.91-1.639 1.377-7.738 6.47-15.249 12.194-24.361 16.623q-1.926.992-3.848 1.992C514.442 686.558 501.884 690.703 488 694l-1.939.54c-2.234.498-4.256.608-6.544.637l-2.674.039-2.882.022-3.015.025q-3.17.02-6.34.032-3.193.018-6.387.062c-17.583.246-38.066-.393-53.625-9.814-2.997-1.783-6.015-2.954-9.281-4.168-6.187-2.312-6.187-2.312-8.313-3.375v-2l-1.562-.25C374.173 672.284 358.56 660.574 352 651c-1.327-4.226-.75-7.37 1.078-11.344 1.195-2.044 2.338-3.894 3.922-5.656h2l.672-1.598c1.808-3.27 4.164-6.008 6.578-8.84l1.41-1.697c7.888-9.31 7.888-9.31 13.121-10.494 7.229.177 10.808 1.454 16.192 6.465 16.126 14.846 36.861 21.075 58.402 20.651 2.585-.05 5.167-.061 7.752-.067q2.513-.02 5.025-.049l2.293-.016c18.761-.412 36.898-10.04 50.555-22.355l2.473-2.008C538.23 601.691 549.58 583.964 553 565l.555-3c3.496-25.625-.48-49.752-15.555-71l-1.8-2.55C528.137 477.717 517 469 505 463l-.625 3.063c-1.231 5.023-3.233 9.734-5.254 14.48C496.796 486.1 496.796 486.1 496 492c1.786 2.34 1.786 2.34 4.438 4.25 9.582 8.052 14.65 15.882 18.562 27.75l.969 2.348c4.92 12.916 2.986 29.632-1.965 42.175-6.847 15.02-19.36 29.366-35.004 35.477-15.31 4.874-30.227 4.498-44.6-2.666-17.053-8.875-28.73-20.854-35.212-39.146-4.64-15.283-2.778-31.27 4.435-45.316 7.37-13.594 18.75-25.739 33.764-30.653A70 70 0 0 1 448 485l2.137-.332c6.274-.845 12.543-.764 18.863-.668l.306-1.85c1.136-6.295 2.96-11.894 5.444-17.775q1.084-2.64 2.164-5.281l1.075-2.614c4.03-9.888 7.594-19.93 10.832-30.104 1.455-4.496 3.185-8.77 5.144-13.07 1.773-3.95 3.369-7.972 4.973-11.993l1.053-2.635a393 393 0 0 0 6.806-18.44 117 117 0 0 1 3.101-7.5c2.2-4.88 4.101-9.85 5.977-14.863 8.539-22.592 8.539-22.592 12.75-31.5 2.288-4.919 3.82-9.924 5.348-15.121 1.324-4.196 3.004-8.184 4.742-12.223 1.336-3.152 2.57-6.33 3.785-9.531 2.738-7.178 5.676-14.265 8.715-21.32 2.793-6.551 5.223-13.175 7.554-19.9 1.798-5.151 3.805-10.175 5.95-15.194 1.513-3.645 2.904-7.326 4.281-11.024l.77-2.048a413 413 0 0 0 3.511-9.713C576.846 200.28 580.226 193.09 592 195"/><path fill="#a50b15" d="M516 33c7.287 3.223 13.578 8.053 19.803 12.961 4.36 3.435 8.837 6.67 13.385 9.852a1409 1409 0 0 1 17.75 12.624l2.26 1.636 4.536 3.286c3.752 2.717 7.51 5.429 11.266 8.141l4.5 3.25 2.25 1.625 27 19.5 4.498 3.248q5.647 4.077 11.287 8.162c7.27 5.264 14.556 10.497 21.903 15.653 6.902 4.846 13.697 9.828 20.474 14.849 5.859 4.331 11.782 8.56 17.746 12.746 7.41 5.204 14.744 10.513 22.076 15.826 3.752 2.717 7.51 5.429 11.266 8.141l4.5 3.25 2.25 1.625 63.001 45.5q2.245 1.623 4.49 3.243 5.7 4.117 11.4 8.237A3748 3748 0 0 0 834 261c7.587 5.408 15.136 10.867 22.686 16.327q5.656 4.089 11.314 8.173l4.5 3.25 2.25 1.625 27.001 19.5q2.245 1.623 4.49 3.243 5.7 4.117 11.4 8.237A3748 3748 0 0 0 938 336c7.587 5.408 15.136 10.867 22.686 16.327a18675 18675 0 0 0 13.543 9.784q5.788 4.183 11.587 8.35a2176 2176 0 0 1 11.308 8.185 298 298 0 0 0 4.794 3.374c6.602 4.721 11.56 10.933 13.27 19.043.12 4.326-.96 8.152-2.211 12.25l-.669 2.226c-2.857 9.418-5.953 18.76-9.035 28.105q-2.84 8.62-5.664 17.247l-1.17 3.568c-3.89 11.892-7.702 23.808-11.501 35.729a6826 6826 0 0 1-17.204 53.16 3271 3271 0 0 0-12.984 40.465 1799 1799 0 0 1-11.5 35.437c-4.778 14.209-9.387 28.467-13.937 42.75a6382 6382 0 0 1-16.813 52 6894 6894 0 0 0-17.557 54.307A6187 6187 0 0 1 880 824.5c-5.4 16.48-10.73 32.979-16 49.5a7757 7757 0 0 1-21.253 65.601 1728 1728 0 0 0-5.212 16.13c-.984 3.092-1.98 6.18-2.978 9.268a495 495 0 0 0-1.32 4.178c-2.737 8.793-5.131 15.76-13.362 20.698-3.854 1.508-7.084 2.25-11.223 2.253l-2.636.009-2.888-.006-3.086.007q-5.162.006-10.323.002l-7.443.01q-9.181.01-18.363.01-10.995.002-21.99.014c-17.716.016-35.433.022-53.149.027q-12.568.003-25.137.01a262743 262743 0 0 1-107.701.03h-2.72c-29.116.003-58.232.02-87.347.042a121461 121461 0 0 1-102.452.04h-2.52q-20.087.005-40.175.027-20.182.022-40.366.01-11.996-.007-23.99.015c-5.967.011-11.934.006-17.901-.005q-3.626-.002-7.252.01c-3.28.011-6.559.004-9.838-.008l-2.86.023c-7.778-.062-15.008-1.751-20.882-7.198-2.124-2.858-3.164-5.688-4.383-9.037l-.77-2.109c-3.506-9.733-6.668-19.585-9.855-29.426l-2.105-6.473c-5.225-16.076-10.38-32.174-15.517-48.278A6272 6272 0 0 0 150 843.5a7043 7043 0 0 1-17-52.635 6277 6277 0 0 0-15-46.365 6996 6996 0 0 1-16.996-52.623 6610 6610 0 0 0-16.267-50.219 3562 3562 0 0 1-13.855-43.216c-3.117-9.93-6.31-19.828-9.632-29.692-4.364-12.958-8.537-25.972-12.687-39a6468 6468 0 0 0-17.144-52.999l-3.662-11.168a8969 8969 0 0 0-9.53-28.956 3941 3941 0 0 1-3.147-9.551q-.69-2.096-1.392-4.189C7.162 403.402 7.162 403.402 12 393c3.777-6.128 8.351-10.173 14.25-14.187l4.828-3.387 2.479-1.72c3.849-2.687 7.644-5.448 11.443-8.206l4.5-3.25 2.25-1.625 78.75-56.875 2.25-1.625 4.498-3.248q5.647-4.077 11.287-8.162c7.27-5.264 14.556-10.497 21.903-15.652 6.083-4.272 12.09-8.638 18.062-13.063a968 968 0 0 1 20.158-14.533c7.41-5.204 14.744-10.513 22.076-15.826 3.752-2.717 7.51-5.429 11.266-8.141l4.5-3.25 63-45.5 2.251-1.626 4.49-3.242q5.7-4.117 11.4-8.237a4057 4057 0 0 1 22.04-15.844c7.025-5.01 14.013-10.072 21.005-15.128q6.776-4.897 13.554-9.79 5.702-4.118 11.4-8.238A4057 4057 0 0 1 417.683 96.8c7.024-5.01 14.012-10.072 21.004-15.128Q444.342 77.584 450 73.5l4.5-3.25 9-6.5 6.735-4.862q5.767-4.159 11.511-8.349C507.906 31.482 507.906 31.482 516 33m-13.125 53.188a2567 2567 0 0 1-4.312 3.316l-2.266 1.746c-3.757 2.862-7.587 5.62-11.422 8.375l-2.301 1.657a4444 4444 0 0 1-15.255 10.916c-7.025 5.011-14.013 10.073-21.005 15.129q-6.776 4.897-13.554 9.79-5.702 4.118-11.4 8.238a4057 4057 0 0 1-22.042 15.844c-7.024 5.01-14.012 10.072-21.004 15.128q-6.776 4.897-13.554 9.79-5.702 4.118-11.4 8.238a4057 4057 0 0 1-22.042 15.844c-7.024 5.01-14.012 10.072-21.004 15.128q-6.776 4.897-13.554 9.79-5.701 4.118-11.4 8.238a4057 4057 0 0 1-22.042 15.844c-7.024 5.01-14.012 10.072-21.004 15.128q-5.656 4.089-11.314 8.173l-4.5 3.25-27 19.5-2.251 1.626-4.49 3.242q-5.7 4.117-11.4 8.237a4057 4057 0 0 1-22.04 15.844c-7.025 5.01-14.013 10.072-21.005 15.128q-6.775 4.897-13.554 9.79-5.702 4.118-11.4 8.238a3978 3978 0 0 1-22.033 15.837c-5.556 3.963-11.085 7.964-16.616 11.963A3649 3649 0 0 1 54 410c1.937 8.27 4.313 16.28 7.063 24.313q1.21 3.585 2.417 7.171l1.26 3.74c2.09 6.265 4.115 12.551 6.135 18.839l1.254 3.898q1.282 3.982 2.562 7.966a16310 16310 0 0 0 7.432 23.07 3203 3203 0 0 0 12.174 36.856 776 776 0 0 1 6.772 21.13c1.399 4.532 2.912 9.024 4.431 13.517 2.255 6.717 4.444 13.443 6.504 20.223 4.59 15.102 9.565 30.072 14.594 45.033 2.545 7.585 5.036 15.18 7.405 22.821 2.783 8.98 5.65 17.931 8.508 26.887l2.962 9.292c3.066 9.616 6.16 19.22 9.373 28.789 1.85 5.54 3.64 11.1 5.432 16.658q1.775 5.505 3.554 11.008l.764 2.365c2.86 8.844 5.742 17.682 8.623 26.52a10131 10131 0 0 1 15.745 48.672 22665 22665 0 0 0 6.524 20.32c3.435 10.684 6.889 21.362 10.346 32.038a11259 11259 0 0 1 8.783 27.22l1.258 3.91c2.948 9.163 5.947 18.308 9.058 27.417.39 1.156.39 1.156.79 2.335l.68 1.989c.684 2.294 1.127 4.655 1.597 7.003h568l5-17a1337 1337 0 0 1 3.938-12.437c.345-1.076.69-2.152 1.047-3.26q3.2-9.93 6.526-19.818c3.87-11.559 7.577-23.172 11.32-34.772q2.376-7.359 4.763-14.713c4.184-12.902 8.35-25.81 12.48-38.73l1.075-3.361q2.644-8.27 5.281-16.54c3.088-9.672 6.199-19.332 9.43-28.958 2.026-6.06 3.988-12.142 5.952-18.223l.68-2.1c3.214-9.933 6.4-19.875 9.57-29.822l2.13-6.677a10830 10830 0 0 0 4.15-13.04c3.091-9.71 6.211-19.398 9.696-28.977 1.681-4.642 3.111-9.326 4.462-14.072a260 260 0 0 1 5.5-17 250 250 0 0 0 5.438-16.812c2.044-7.188 4.46-14.204 6.974-21.24 2.134-6.021 3.999-12.08 5.744-18.225 1.433-4.98 3.08-9.851 4.844-14.723a256 256 0 0 0 5.438-16.75 413 413 0 0 1 5.687-18.187c3.132-9.29 6.175-18.608 9.188-27.938l.713-2.208a29459 29459 0 0 0 6.252-19.381l.619-1.918 1.831-5.678q1.206-3.74 2.407-7.482c2.085-6.483 4.191-12.959 6.334-19.424 1.134-3.421 2.26-6.845 3.388-10.27q.825-2.5 1.663-5c.776-2.32 1.541-4.643 2.304-6.967l.715-2.107c1.335-4.055 1.335-4.055.461-8.19-1.68-1.452-1.68-1.452-3.797-2.785l-2.385-1.592-2.568-1.685c-6.862-4.593-13.466-9.329-19.965-14.422-4.434-3.439-9.045-6.628-13.64-9.847a1256 1256 0 0 1-15.582-11.106l-2.261-1.636-4.536-3.286c-3.752-2.717-7.51-5.429-11.266-8.141l-4.5-3.25-2.25-1.625-27.001-19.5q-2.245-1.623-4.49-3.243-5.7-4.117-11.4-8.237A3748 3748 0 0 0 823 304c-7.587-5.408-15.136-10.867-22.686-16.327q-5.656-4.089-11.314-8.173l-4.5-3.25-2.25-1.625-9.001-6.5q-2.245-1.623-4.49-3.243-5.7-4.117-11.4-8.237A3748 3748 0 0 0 737 242c-7.587-5.408-15.136-10.867-22.686-16.327q-5.656-4.089-11.314-8.173-6.822-4.925-13.64-9.855A3748 3748 0 0 0 669 193c-7.587-5.408-15.136-10.867-22.686-16.327q-5.656-4.089-11.314-8.173l-4.5-3.25-2.25-1.625-9.001-6.5q-2.245-1.623-4.49-3.243-5.7-4.117-11.4-8.237A3748 3748 0 0 0 583 131c-7.587-5.408-15.136-10.867-22.686-16.327a19316 19316 0 0 0-13.541-9.782 11374 11374 0 0 0-14.046-10.133l-4.54-3.27-2.101-1.515-2.044-1.469q-2.13-1.57-4.201-3.215l-2.114-1.668-1.88-1.522c-5.298-3.154-8.945.903-12.972 4.088"/></svg>