<svg xmlns="http://www.w3.org/2000/svg" width="1024" height="1024"><path fill="#fefefe" d="M516 33c7.287 3.223 13.578 8.053 19.803 12.961 4.36 3.435 8.837 6.67 13.385 9.852a1409 1409 0 0 1 17.75 12.624l2.26 1.636 4.536 3.286c3.752 2.717 7.51 5.429 11.266 8.141l4.5 3.25 2.25 1.625 27 19.5 4.498 3.248q5.647 4.077 11.287 8.162c7.27 5.264 14.556 10.497 21.903 15.653 6.902 4.846 13.697 9.828 20.474 14.849 5.859 4.331 11.782 8.56 17.746 12.746 7.41 5.204 14.744 10.513 22.076 15.826 3.752 2.717 7.51 5.429 11.266 8.141l4.5 3.25 2.25 1.625 63.001 45.5q2.245 1.623 4.49 3.243 5.7 4.117 11.4 8.237A3748 3748 0 0 0 834 261c7.587 5.408 15.136 10.867 22.686 16.327q5.656 4.089 11.314 8.173l4.5 3.25 2.25 1.625 27.001 19.5q2.245 1.623 4.49 3.243 5.7 4.117 11.4 8.237A3748 3748 0 0 0 938 336c7.587 5.408 15.136 10.867 22.686 16.327a18675 18675 0 0 0 13.543 9.784q5.788 4.183 11.587 8.35a2176 2176 0 0 1 11.308 8.185 298 298 0 0 0 4.794 3.374c6.602 4.721 11.56 10.933 13.27 19.043.12 4.326-.96 8.152-2.211 12.25l-.669 2.226c-2.857 9.418-5.953 18.76-9.035 28.105q-2.84 8.62-5.664 17.247l-1.17 3.568c-3.89 11.892-7.702 23.808-11.501 35.729a6826 6826 0 0 1-17.204 53.16 3271 3271 0 0 0-12.984 40.465 1799 1799 0 0 1-11.5 35.437c-4.778 14.209-9.387 28.467-13.937 42.75a6382 6382 0 0 1-16.813 52 6894 6894 0 0 0-17.557 54.307A6187 6187 0 0 1 880 824.5c-5.4 16.48-10.73 32.979-16 49.5a7757 7757 0 0 1-21.253 65.601 1728 1728 0 0 0-5.212 16.13c-.984 3.092-1.98 6.18-2.978 9.268a495 495 0 0 0-1.32 4.178c-2.737 8.793-5.131 15.76-13.362 20.698-3.854 1.508-7.084 2.25-11.223 2.253l-2.636.009-2.888-.006-3.086.007q-5.162.006-10.323.002l-7.443.01q-9.181.01-18.363.01-10.995.002-21.99.014c-17.716.016-35.433.022-53.149.027q-12.568.003-25.137.01a262743 262743 0 0 1-107.701.03h-2.72c-29.116.003-58.232.02-87.347.042a121461 121461 0 0 1-102.452.04h-2.52q-20.087.005-40.175.027-20.182.022-40.366.01-11.996-.007-23.99.015c-5.967.011-11.934.006-17.901-.005q-3.626-.002-7.252.01c-3.28.011-6.559.004-9.838-.008l-2.86.023c-7.778-.062-15.008-1.751-20.882-7.198-2.124-2.858-3.164-5.688-4.383-9.037l-.77-2.109c-3.506-9.733-6.668-19.585-9.855-29.426l-2.105-6.473c-5.225-16.076-10.38-32.174-15.517-48.278A6272 6272 0 0 0 150 843.5a7043 7043 0 0 1-17-52.635 6277 6277 0 0 0-15-46.365 6996 6996 0 0 1-16.996-52.623 6610 6610 0 0 0-16.267-50.219 3562 3562 0 0 1-13.855-43.216c-3.117-9.93-6.31-19.828-9.632-29.692-4.364-12.958-8.537-25.972-12.687-39a6468 6468 0 0 0-17.144-52.999l-3.662-11.168a8969 8969 0 0 0-9.53-28.956 3941 3941 0 0 1-3.147-9.551q-.69-2.096-1.392-4.189C7.162 403.402 7.162 403.402 12 393c3.777-6.128 8.351-10.173 14.25-14.187l4.828-3.387 2.479-1.72c3.849-2.687 7.644-5.448 11.443-8.206l4.5-3.25 2.25-1.625 78.75-56.875 2.25-1.625 4.498-3.248q5.647-4.077 11.287-8.162c7.27-5.264 14.556-10.497 21.903-15.652 6.083-4.272 12.09-8.638 18.062-13.063a968 968 0 0 1 20.158-14.533c7.41-5.204 14.744-10.513 22.076-15.826 3.752-2.717 7.51-5.429 11.266-8.141l4.5-3.25 63-45.5 2.251-1.626 4.49-3.242q5.7-4.117 11.4-8.237a4057 4057 0 0 1 22.04-15.844c7.025-5.01 14.013-10.072 21.005-15.128q6.776-4.897 13.554-9.79 5.702-4.118 11.4-8.238A4057 4057 0 0 1 417.683 96.8c7.024-5.01 14.012-10.072 21.004-15.128Q444.342 77.584 450 73.5l4.5-3.25 9-6.5 6.735-4.862q5.767-4.159 11.511-8.349C507.906 31.482 507.906 31.482 516 33"/><path fill="#a50b15" d="m497.37 157.628 2.588-.02 2.769.029 2.86-.002q2.988.004 5.976.029c3.058.023 6.114.02 9.171.014q2.902.007 5.805.021l2.781-.003 2.57.03 2.264.013C536 158 536 158 538 160c.262 2.354.262 2.354.278 5.366l.034 3.45.007 3.804.03 3.99c.028 3.618.043 7.236.056 10.853.015 3.779.042 7.557.068 11.335.047 7.158.083 14.315.116 21.473.039 8.147.088 16.295.138 24.442q.154 25.144.273 50.287l3.959.405 5.19.536 2.604.266c5.936.617 11.747 1.415 17.56 2.793l2.683.628C597.695 306.191 622.756 316.29 646 331l2.871 1.73c7.269 4.442 13.869 9.601 20.482 14.947 1.46 1.173 2.939 2.322 4.42 3.468C686.234 360.93 697.281 372.519 707 385a977 977 0 0 0 2.855 3.48c27.256 33.19 47.73 76.941 51.262 120.086l.264 3.056q.316 3.689.619 7.378l1.76-.008q21.168-.1 42.336-.147 10.238-.022 20.474-.071c6.581-.033 13.162-.05 19.744-.059q3.774-.008 7.547-.032c3.513-.022 7.026-.025 10.539-.024l3.18-.032 2.89.012 2.52-.008L875 519c2.622 3.933 2.324 7.335 2.336 11.902l.02 2.65q.015 2.772.015 5.544c.004 2.828.04 5.653.078 8.48q.009 2.695.012 5.389l.043 2.56-.018 2.397.008 2.099c-.792 3.174-1.756 4.136-4.494 5.979-3.546.585-7.057.504-10.644.454l-3.282.002a1349 1349 0 0 1-10.746-.065q-3.725-.012-7.449-.018c-5.868-.013-11.736-.045-17.605-.085-7.337-.049-14.675-.07-22.012-.093Q781.63 566.13 762 566l-.168 1.735a6911 6911 0 0 1-.769 7.868l-.263 2.729c-.647 6.55-1.533 12.98-2.925 19.418l-.646 3.01C750.033 632.763 736.163 663.44 717 690l-2.281 3.184C701.459 711.272 685.94 728.462 668 742l-1.596 1.238C631.048 770.633 581.568 794 536 794l.011 1.972a16082 16082 0 0 1 .196 47.497c.02 7.656.049 15.313.095 22.969q.06 10.01.074 20.018c.006 3.534.018 7.068.047 10.601.032 3.944.033 7.887.031 11.83l.044 3.556-.017 3.255.011 2.826c-.642 3.233-1.968 4.43-4.492 6.476-2.024.494-2.024.494-4.186.486l-2.467.018-2.636-.043-2.726-.003a577 577 0 0 1-5.694-.046 686 686 0 0 0-8.736-.04q-2.766-.015-5.532-.036l-2.648-.007c-6.143-.097-6.143-.097-8.375-2.329-.262-2.26-.262-2.26-.278-5.138l-.034-3.297-.007-3.634-.03-3.813c-.028-3.457-.043-6.913-.056-10.37-.015-3.61-.042-7.22-.068-10.83q-.069-10.259-.116-20.516c-.039-7.785-.088-15.57-.138-23.354Q488.119 818.024 488 794l-2.355-.343q-5.328-.778-10.657-1.561l-3.704-.54c-8.196-1.205-16.254-2.554-24.284-4.619l-3.456-.882C416.148 778.707 389.8 765.833 367 749l-3.293-2.371a186 186 0 0 1-16.465-13.574 145 145 0 0 0-5.93-5.118c-3.07-2.616-5.648-5.495-8.253-8.57-1.996-2.295-4.071-4.499-6.168-6.702-7.626-8.062-14.408-16.663-20.891-25.665l-1.417-1.965C284.36 656.505 270.222 621.357 264 587l-.73-3.758c-.949-5.18-1.296-9.967-1.27-15.242l-1.694.03q-20.392.353-40.786.62c-6.575.087-13.15.183-19.724.3-6.34.113-12.682.201-19.024.272q-3.635.048-7.268.121c-3.386.068-6.771.104-10.158.133l-3.055.083c-2.528.004-4.819-.035-7.291-.559-2.774-2.94-3.376-5.494-3.372-9.467l-.02-2.579.029-2.743-.002-2.85q.004-2.972.029-5.945c.023-3.037.02-6.074.014-9.111q.007-2.89.021-5.782l-.003-2.755.03-2.56.013-2.248C150 521 150 521 152 518c2.763-.281 5.3-.368 8.064-.325l2.529.004c2.778.007 5.555.035 8.333.063q2.913.012 5.826.02c5.14.017 10.279.052 15.418.09 8.157.06 16.314.094 24.471.126q4.23.022 8.462.058c12.33.08 24.587-.334 36.897-1.036l.505-2.995c4.142-24.458 9.63-47.143 19.495-70.005l.994-2.321C294.36 415.505 310.126 391.467 330 371l1.825-1.903c8.551-8.892 17.179-16.866 27.175-24.097q1.652-1.274 3.297-2.559c26.074-20.132 56.874-34.628 88.765-42.629l2.805-.721c7.47-1.782 14.966-2.755 22.584-3.678l3.37-.415q4.089-.502 8.179-.998l.004-2.069q.055-24.9.18-49.799c.04-8.027.072-16.054.087-24.082q.019-10.493.084-20.986c.022-3.706.038-7.41.037-11.116-.001-4.133.03-8.265.062-12.398l-.015-3.736.042-3.404.011-2.964c.508-2.446.508-2.446 2.41-4.26 2.376-1.343 3.755-1.56 6.468-1.558"/><path fill="#a50b15" d="M516 33c7.287 3.223 13.578 8.053 19.803 12.961 4.36 3.435 8.837 6.67 13.385 9.852a1409 1409 0 0 1 17.75 12.624l2.26 1.636 4.536 3.286c3.752 2.717 7.51 5.429 11.266 8.141l4.5 3.25 2.25 1.625 27 19.5 4.498 3.248q5.647 4.077 11.287 8.162c7.27 5.264 14.556 10.497 21.903 15.653 6.902 4.846 13.697 9.828 20.474 14.849 5.859 4.331 11.782 8.56 17.746 12.746 7.41 5.204 14.744 10.513 22.076 15.826 3.752 2.717 7.51 5.429 11.266 8.141l4.5 3.25 2.25 1.625 63.001 45.5q2.245 1.623 4.49 3.243 5.7 4.117 11.4 8.237A3748 3748 0 0 0 834 261c7.587 5.408 15.136 10.867 22.686 16.327q5.656 4.089 11.314 8.173l4.5 3.25 2.25 1.625 27.001 19.5q2.245 1.623 4.49 3.243 5.7 4.117 11.4 8.237A3748 3748 0 0 0 938 336c7.587 5.408 15.136 10.867 22.686 16.327a18675 18675 0 0 0 13.543 9.784q5.788 4.183 11.587 8.35a2176 2176 0 0 1 11.308 8.185 298 298 0 0 0 4.794 3.374c6.602 4.721 11.56 10.933 13.27 19.043.12 4.326-.96 8.152-2.211 12.25l-.669 2.226c-2.857 9.418-5.953 18.76-9.035 28.105q-2.84 8.62-5.664 17.247l-1.17 3.568c-3.89 11.892-7.702 23.808-11.501 35.729a6826 6826 0 0 1-17.204 53.16 3271 3271 0 0 0-12.984 40.465 1799 1799 0 0 1-11.5 35.437c-4.778 14.209-9.387 28.467-13.937 42.75a6382 6382 0 0 1-16.813 52 6894 6894 0 0 0-17.557 54.307A6187 6187 0 0 1 880 824.5c-5.4 16.48-10.73 32.979-16 49.5a7757 7757 0 0 1-21.253 65.601 1728 1728 0 0 0-5.212 16.13c-.984 3.092-1.98 6.18-2.978 9.268a495 495 0 0 0-1.32 4.178c-2.737 8.793-5.131 15.76-13.362 20.698-3.854 1.508-7.084 2.25-11.223 2.253l-2.636.009-2.888-.006-3.086.007q-5.162.006-10.323.002l-7.443.01q-9.181.01-18.363.01-10.995.002-21.99.014c-17.716.016-35.433.022-53.149.027q-12.568.003-25.137.01a262743 262743 0 0 1-107.701.03h-2.72c-29.116.003-58.232.02-87.347.042a121461 121461 0 0 1-102.452.04h-2.52q-20.087.005-40.175.027-20.182.022-40.366.01-11.996-.007-23.99.015c-5.967.011-11.934.006-17.901-.005q-3.626-.002-7.252.01c-3.28.011-6.559.004-9.838-.008l-2.86.023c-7.778-.062-15.008-1.751-20.882-7.198-2.124-2.858-3.164-5.688-4.383-9.037l-.77-2.109c-3.506-9.733-6.668-19.585-9.855-29.426l-2.105-6.473c-5.225-16.076-10.38-32.174-15.517-48.278A6272 6272 0 0 0 150 843.5a7043 7043 0 0 1-17-52.635 6277 6277 0 0 0-15-46.365 6996 6996 0 0 1-16.996-52.623 6610 6610 0 0 0-16.267-50.219 3562 3562 0 0 1-13.855-43.216c-3.117-9.93-6.31-19.828-9.632-29.692-4.364-12.958-8.537-25.972-12.687-39a6468 6468 0 0 0-17.144-52.999l-3.662-11.168a8969 8969 0 0 0-9.53-28.956 3941 3941 0 0 1-3.147-9.551q-.69-2.096-1.392-4.189C7.162 403.402 7.162 403.402 12 393c3.777-6.128 8.351-10.173 14.25-14.187l4.828-3.387 2.479-1.72c3.849-2.687 7.644-5.448 11.443-8.206l4.5-3.25 2.25-1.625 78.75-56.875 2.25-1.625 4.498-3.248q5.647-4.077 11.287-8.162c7.27-5.264 14.556-10.497 21.903-15.652 6.083-4.272 12.09-8.638 18.062-13.063a968 968 0 0 1 20.158-14.533c7.41-5.204 14.744-10.513 22.076-15.826 3.752-2.717 7.51-5.429 11.266-8.141l4.5-3.25 63-45.5 2.251-1.626 4.49-3.242q5.7-4.117 11.4-8.237a4057 4057 0 0 1 22.04-15.844c7.025-5.01 14.013-10.072 21.005-15.128q6.776-4.897 13.554-9.79 5.702-4.118 11.4-8.238A4057 4057 0 0 1 417.683 96.8c7.024-5.01 14.012-10.072 21.004-15.128Q444.342 77.584 450 73.5l4.5-3.25 9-6.5 6.735-4.862q5.767-4.159 11.511-8.349C507.906 31.482 507.906 31.482 516 33m-13.125 53.188a2567 2567 0 0 1-4.312 3.316l-2.266 1.746c-3.757 2.862-7.587 5.62-11.422 8.375l-2.301 1.657a4444 4444 0 0 1-15.255 10.916c-7.025 5.011-14.013 10.073-21.005 15.129q-6.776 4.897-13.554 9.79-5.702 4.118-11.4 8.238a4057 4057 0 0 1-22.042 15.844c-7.024 5.01-14.012 10.072-21.004 15.128q-6.776 4.897-13.554 9.79-5.702 4.118-11.4 8.238a4057 4057 0 0 1-22.042 15.844c-7.024 5.01-14.012 10.072-21.004 15.128q-6.776 4.897-13.554 9.79-5.701 4.118-11.4 8.238a4057 4057 0 0 1-22.042 15.844c-7.024 5.01-14.012 10.072-21.004 15.128q-5.656 4.089-11.314 8.173l-4.5 3.25-27 19.5-2.251 1.626-4.49 3.242q-5.7 4.117-11.4 8.237a4057 4057 0 0 1-22.04 15.844c-7.025 5.01-14.013 10.072-21.005 15.128q-6.775 4.897-13.554 9.79-5.702 4.118-11.4 8.238a3978 3978 0 0 1-22.033 15.837c-5.556 3.963-11.085 7.964-16.616 11.963A3649 3649 0 0 1 54 410c1.937 8.27 4.313 16.28 7.063 24.313q1.21 3.585 2.417 7.171l1.26 3.74c2.09 6.265 4.115 12.551 6.135 18.839l1.254 3.898q1.282 3.982 2.562 7.966a16310 16310 0 0 0 7.432 23.07 3203 3203 0 0 0 12.174 36.856 776 776 0 0 1 6.772 21.13c1.399 4.532 2.912 9.024 4.431 13.517 2.255 6.717 4.444 13.443 6.504 20.223 4.59 15.102 9.565 30.072 14.594 45.033 2.545 7.585 5.036 15.18 7.405 22.821 2.783 8.98 5.65 17.931 8.508 26.887l2.962 9.292c3.066 9.616 6.16 19.22 9.373 28.789 1.85 5.54 3.64 11.1 5.432 16.658q1.775 5.505 3.554 11.008l.764 2.365c2.86 8.844 5.742 17.682 8.623 26.52a10131 10131 0 0 1 15.745 48.672 22665 22665 0 0 0 6.524 20.32c3.435 10.684 6.889 21.362 10.346 32.038a11259 11259 0 0 1 8.783 27.22l1.258 3.91c2.948 9.163 5.947 18.308 9.058 27.417.39 1.156.39 1.156.79 2.335l.68 1.989c.684 2.294 1.127 4.655 1.597 7.003h568l5-17a1337 1337 0 0 1 3.938-12.437c.345-1.076.69-2.152 1.047-3.26q3.2-9.93 6.526-19.818c3.87-11.559 7.577-23.172 11.32-34.772q2.376-7.359 4.763-14.713c4.184-12.902 8.35-25.81 12.48-38.73l1.075-3.361q2.644-8.27 5.281-16.54c3.088-9.672 6.199-19.332 9.43-28.958 2.026-6.06 3.988-12.142 5.952-18.223l.68-2.1c3.214-9.933 6.4-19.875 9.57-29.822l2.13-6.677a10830 10830 0 0 0 4.15-13.04c3.091-9.71 6.211-19.398 9.696-28.977 1.681-4.642 3.111-9.326 4.462-14.072a260 260 0 0 1 5.5-17 250 250 0 0 0 5.438-16.812c2.044-7.188 4.46-14.204 6.974-21.24 2.134-6.021 3.999-12.08 5.744-18.225 1.433-4.98 3.08-9.851 4.844-14.723a256 256 0 0 0 5.438-16.75 413 413 0 0 1 5.687-18.187c3.132-9.29 6.175-18.608 9.188-27.938l.713-2.208a29459 29459 0 0 0 6.252-19.381l.619-1.918 1.831-5.678q1.206-3.74 2.407-7.482c2.085-6.483 4.191-12.959 6.334-19.424 1.134-3.421 2.26-6.845 3.388-10.27q.825-2.5 1.663-5c.776-2.32 1.541-4.643 2.304-6.967l.715-2.107c1.335-4.055 1.335-4.055.461-8.19-1.68-1.452-1.68-1.452-3.797-2.785l-2.385-1.592-2.568-1.685c-6.862-4.593-13.466-9.329-19.965-14.422-4.434-3.439-9.045-6.628-13.64-9.847a1256 1256 0 0 1-15.582-11.106l-2.261-1.636-4.536-3.286c-3.752-2.717-7.51-5.429-11.266-8.141l-4.5-3.25-2.25-1.625-27.001-19.5q-2.245-1.623-4.49-3.243-5.7-4.117-11.4-8.237A3748 3748 0 0 0 823 304c-7.587-5.408-15.136-10.867-22.686-16.327q-5.656-4.089-11.314-8.173l-4.5-3.25-2.25-1.625-9.001-6.5q-2.245-1.623-4.49-3.243-5.7-4.117-11.4-8.237A3748 3748 0 0 0 737 242c-7.587-5.408-15.136-10.867-22.686-16.327q-5.656-4.089-11.314-8.173-6.822-4.925-13.64-9.855A3748 3748 0 0 0 669 193c-7.587-5.408-15.136-10.867-22.686-16.327q-5.656-4.089-11.314-8.173l-4.5-3.25-2.25-1.625-9.001-6.5q-2.245-1.623-4.49-3.243-5.7-4.117-11.4-8.237A3748 3748 0 0 0 583 131c-7.587-5.408-15.136-10.867-22.686-16.327a19316 19316 0 0 0-13.541-9.782 11374 11374 0 0 0-14.046-10.133l-4.54-3.27-2.101-1.515-2.044-1.469q-2.13-1.57-4.201-3.215l-2.114-1.668-1.88-1.522c-5.298-3.154-8.945.903-12.972 4.088"/><path fill="#fefefe" d="M559.188 477.188C577.408 491.667 589.92 509.636 593 533c1.44 16.044-.2 32.648-8 47l-1.422 2.781C577.416 594.166 568.763 603.76 558 611l-2.664 1.8c-17.76 11.179-40.86 14.565-61.371 10.329-21.488-5.493-39.638-19.733-50.992-38.61-11.49-19.992-13.637-42.411-7.973-64.519 6.716-20.962 21.505-38.202 40.988-48.269 26.808-13.091 58.536-12.32 83.2 5.457M491 341q.07 15.007.104 30.015.014 6.967.047 13.936.032 6.72.039 13.441.004 2.568.021 5.136c.015 2.393.017 4.784.016 7.177l.022 2.16c-.02 4.907-.02 4.907-2.249 7.135-1.853.727-1.853.727-4.121 1.41l-2.556.796-2.76.856c-18.069 5.864-36.976 13.86-50.415 27.797C427 453 427 453 425 453l-.723 1.71c-1.55 2.78-3.472 4.655-5.714 6.915C404.193 477.199 394.13 498.343 390 519h-79c0-8.937.155-16.45 2-25l.672-3.207C319.84 464.868 332.432 441.4 348 420l1.436-1.985c3.418-4.65 7.058-8.988 11.002-13.202l1.817-1.944c5.97-6.276 12.396-11.93 19.057-17.457a243 243 0 0 0 4.446-3.834C404.188 365.683 465.699 328.35 491 341M321.452 565.886h2.22c2.407 0 4.815.008 7.223.016l5.023.005q6.596.006 13.192.024 6.738.014 13.474.02 13.207.016 26.416.049c1.046 3.658 2.09 7.316 3.113 10.98 5.76 20.375 14.654 36.423 28.887 52.02l1.417 1.57C440.222 650.076 464.686 661.672 490 668v81c-35.464-5.91-72.319-16.632-100-41q-1.629-1.36-3.262-2.715C371.756 692.738 357.16 679.122 346 663l-1.227-1.747C330.128 640.325 319.22 617.542 312 593l-.703-2.309c-2.028-7.661-1.953-15.813-2.297-23.691 4.169-1.01 8.188-1.136 12.452-1.114M638 566h79c-1.179 16.503-1.179 16.503-3.375 24.625l-.774 2.9C704.688 622.678 691.49 649.806 672 673l-2.555 3.113C637.265 715.093 591.258 740.873 541 747h-5v-79l20-6c31.824-12.87 57.856-35.274 72-67a283 283 0 0 0 10-29M556.313 344.625l2.322.54c32.471 7.757 64.93 22.42 89.365 45.835v2l1.8.82C679.1 409.53 700.71 457.151 710 487c3.152 10.73 5 20.747 5 32h-78c-3.335-8.893-3.335-8.893-4.184-12.2-4.748-17.278-13.008-33.14-25.816-45.8a368 368 0 0 1-3.562-4.187c-16.31-18.483-40.078-28.493-62.852-36.5C537 419 537 419 536 418a67 67 0 0 1-.115-4.416l.002-2.858.02-3.132.01-3.247c.06-12.285.314-24.565.583-36.847l.145-6.898q.173-8.301.355-16.602c5.656-2.828 13.425-.776 19.313.625"/></svg>