<?xml version="1.0" encoding="UTF-8"?>
<svg version="1.1" xmlns="http://www.w3.org/2000/svg" width="1024" height="1024">
<path d="M0 0 C7.28741767 3.22268114 13.57806549 8.05276303 19.80273438 12.96118164 C24.16360267 16.39606838 28.63966433 19.63005573 33.1875 22.8125 C39.13529976 26.97891092 45.05474072 31.17964283 50.9375 35.4375 C51.68346436 35.97737549 52.42942871 36.51725098 53.19799805 37.07348633 C54.71013427 38.16838044 56.22209699 39.26351422 57.73388672 40.35888672 C61.486448 43.07648173 65.24343419 45.78794473 69 48.5 C70.50002146 49.58330362 72.00002146 50.66663696 73.5 51.75 C74.2425 52.28625 74.985 52.8225 75.75 53.375 C100.5 71.25 100.5 71.25 102.75024414 72.87524414 C104.2493445 73.95788254 105.74853062 75.0404022 107.24780273 76.12280273 C111.01228168 78.84079823 114.77521904 81.56088068 118.53515625 84.28515625 C125.80432269 89.54881928 133.09124885 94.78186072 140.4375 99.9375 C147.34034679 104.78387201 154.13476019 109.76606348 160.91162109 114.78662109 C166.77094885 119.1181551 172.6943357 123.34780111 178.65844727 127.53344727 C186.06851717 132.7374724 193.40152023 138.0461951 200.73388672 143.35888672 C204.486448 146.07648173 208.24343419 148.78794473 212 151.5 C213.50002146 152.58330362 215.00002146 153.66663696 216.5 154.75 C217.2425 155.28625 217.985 155.8225 218.75 156.375 C279.49999999 200.24999999 279.49999999 200.24999999 281.75097656 201.87573242 C283.24768701 202.95667191 284.74443168 204.03756401 286.24121094 205.1184082 C290.04182637 207.8629754 293.84180298 210.60841966 297.640625 213.35546875 C304.41540742 218.25345334 311.19258102 223.14744088 318 228 C325.58659358 233.40798119 333.13590141 238.86727127 340.68554688 244.32666016 C344.45593019 247.05263139 348.22803694 249.77621534 352 252.5 C353.50000859 253.58332144 355.00000858 254.66665479 356.5 255.75 C357.2425 256.28625 357.985 256.8225 358.75 257.375 C383.5 275.25 383.5 275.25 385.75097656 276.87573242 C387.24768701 277.95667191 388.74443168 279.03756401 390.24121094 280.1184082 C394.04182637 282.8629754 397.84180298 285.60841966 401.640625 288.35546875 C408.41540742 293.25345334 415.19258102 298.14744088 422 303 C429.58659358 308.40798119 437.13590141 313.86727127 444.68554688 319.32666016 C447.70988581 321.51324445 450.73533712 323.69828591 453.76098633 325.88305664 C455.25059568 326.9588044 456.74001707 328.03481247 458.22924805 329.11108398 C462.0879883 331.89947366 465.94973864 334.68354891 469.81640625 337.4609375 C473.59542511 340.17571003 477.3620169 342.9070437 481.12353516 345.64599609 C482.70819037 346.78943844 484.31115009 347.90744926 485.91796875 349.01953125 C492.51976881 353.74142174 497.4778405 359.95338109 499.1875 368.0625 C499.30756996 372.38946574 498.22814474 376.21510923 496.9765625 380.3125 C496.64577446 381.41477684 496.64577446 381.41477684 496.30830383 382.5393219 C493.45147144 391.95653952 490.35528792 401.29829212 487.27340698 410.64364624 C485.37881 416.3904786 483.49367388 422.14040913 481.609375 427.890625 C481.03043739 429.65716682 481.03043739 429.65716682 480.43980408 431.45939636 C476.54843426 443.35053442 472.73683574 455.26669928 468.9375 467.1875 C463.2803847 484.933616 457.5363939 502.64937755 451.73422241 520.34857178 C447.32269236 533.81112552 442.98627895 547.29380696 438.75 560.8125 C435.03516866 572.66658243 431.20944924 584.47537605 427.25 596.25 C422.47219217 610.45871789 417.86308044 624.71695158 413.3125 639 C407.78182713 656.35789613 402.17909984 673.69009459 396.5 691 C390.57000861 709.07790186 384.72298687 727.18028837 378.94287109 745.30664062 C374.02483835 760.72533788 369.0388725 776.12038595 364 791.5 C358.60088272 807.97935717 353.27006597 824.47892378 348 841 C341.01226608 862.89895755 333.92944888 884.76544969 326.74731445 906.60144043 C324.98429849 911.96991788 323.2448448 917.34500686 321.53456116 922.73051453 C320.55088139 925.82298123 319.55494955 928.91141683 318.55679321 931.99923706 C318.11078984 933.38983088 317.67058396 934.78230086 317.23690796 936.17678833 C314.50013842 944.96984046 312.10561765 951.93662941 303.875 956.875 C300.0208818 958.38313321 296.79075892 959.12480289 292.65236974 959.1276505 C291.78251321 959.13066647 290.91265668 959.13368244 290.01644087 959.1367898 C289.06341975 959.13502033 288.11039863 959.13325086 287.12849808 959.13142776 C285.60056873 959.13450672 285.60056873 959.13450672 284.04177213 959.13764787 C280.60069176 959.14333894 277.15965116 959.14185802 273.71856689 959.14044189 C271.23768592 959.14302432 268.75680537 959.14603713 266.2759254 959.1494453 C260.1548543 959.15668361 254.03379578 959.15921862 247.91272091 959.15977435 C240.58292413 959.16068747 233.25313544 959.16735346 225.92334214 959.17412117 C208.20688963 959.19018846 190.49043798 959.19608515 172.77397949 959.20086992 C164.39507395 959.203205 156.01616911 959.20680754 147.6372641 959.2105653 C118.96244756 959.22340106 90.2876314 959.23412054 61.61281204 959.2375679 C59.81245952 959.23778954 58.012107 959.23801132 56.21175449 959.23823325 C54.40702457 959.23845389 52.60229466 959.23867438 50.79756474 959.2388947 C47.17689212 959.23933726 43.5562195 959.23978437 39.93554688 959.24023438 C39.03782919 959.24034377 38.14011151 959.24045316 37.21519026 959.24056586 C8.09973994 959.24419735 -21.01568549 959.26012073 -50.13112628 959.28342474 C-80.90479702 959.30801102 -111.67845353 959.32174017 -142.45213437 959.32293582 C-145.82914559 959.32310728 -149.20615681 959.32332271 -152.58316803 959.32357025 C-153.41469923 959.32362602 -154.24623044 959.32368179 -155.10295956 959.32373925 C-168.49448756 959.3248907 -181.88599007 959.33592066 -195.27750945 959.35045731 C-208.73310073 959.36481114 -222.18865925 959.36806558 -235.64425609 959.36001733 C-243.64106011 959.35555591 -251.63775853 959.35944212 -259.63454871 959.37525584 C-265.60145217 959.38613253 -271.5682344 959.38138102 -277.53514233 959.37048396 C-279.952378 959.3685167 -282.36962416 959.3716525 -284.78684506 959.38032833 C-288.06645942 959.39135681 -291.34553452 959.3839776 -294.62513351 959.3719368 C-295.56878997 959.37953199 -296.51244643 959.38712718 -297.48469853 959.39495254 C-305.26255638 959.33309086 -312.49337138 957.64363601 -318.3671875 952.19702148 C-320.4914685 949.33870739 -321.53058665 946.50853465 -322.75 943.16015625 C-323.00383453 942.46421356 -323.25766907 941.76827087 -323.51919556 941.05123901 C-327.0262114 931.31830578 -330.18798361 921.46602131 -333.375 911.625 C-334.07664322 909.46738947 -334.77847017 907.30983869 -335.48046875 905.15234375 C-340.70493672 889.07630726 -345.85964241 872.97805336 -350.99725342 856.87408447 C-355.93567605 841.39529795 -360.94145344 825.93992899 -366 810.5 C-371.74064721 792.97813198 -377.39714071 775.43113256 -383 757.86474609 C-387.93755165 742.38908983 -392.94246446 726.93684311 -398 711.5 C-403.73932358 693.98217202 -409.39529012 676.43945364 -414.99597168 658.87683105 C-420.34359577 642.11245914 -425.78216586 625.37938298 -431.26348877 608.65829468 C-435.97451917 594.2811939 -440.59093499 579.87801303 -445.1184082 565.44213867 C-448.23469388 555.51163019 -451.4276101 545.61401126 -454.75 535.75 C-459.11364214 522.79213848 -463.28700347 509.77750404 -467.4375 496.75 C-473.07533025 479.05827333 -478.79140033 461.39384665 -484.58139038 443.75131226 C-485.80300457 440.02893353 -487.02334895 436.30614059 -488.2434082 432.58325195 C-491.40884791 422.92731241 -494.57493497 413.27168895 -497.7731781 403.6265564 C-498.82697131 400.44460123 -499.87434362 397.2605605 -500.92001343 394.07592773 C-501.38064737 392.67869205 -501.84440267 391.28248049 -502.31167603 389.88745117 C-508.83761601 370.40217837 -508.83761601 370.40217837 -504 360 C-500.22294036 353.87207651 -495.64869945 349.82732162 -489.75 345.8125 C-488.14039281 344.68392484 -486.53102447 343.55500895 -484.921875 342.42578125 C-484.10396484 341.85811035 -483.28605469 341.29043945 -482.44335938 340.70556641 C-478.59397124 338.01853348 -474.79903947 335.25751537 -471 332.5 C-469.50028363 331.41627406 -468.0002829 330.33294152 -466.5 329.25 C-465.38625 328.445625 -465.38625 328.445625 -464.25 327.625 C-438 308.66666667 -411.75 289.70833333 -385.5 270.75 C-384.75741943 270.21366943 -384.01483887 269.67733887 -383.24975586 269.12475586 C-381.7506555 268.04211746 -380.25146938 266.9595978 -378.75219727 265.87719727 C-374.98771832 263.15920177 -371.22478096 260.43911932 -367.46484375 257.71484375 C-360.19567731 252.45118072 -352.90875115 247.21813928 -345.5625 242.0625 C-339.47874537 237.79119875 -333.47286072 233.42492354 -327.5 229 C-320.84058446 224.0664504 -314.12530093 219.22742435 -307.34155273 214.46655273 C-299.93148283 209.2625276 -292.59847977 203.9538049 -285.26611328 198.64111328 C-281.513552 195.92351827 -277.75656581 193.21205527 -274 190.5 C-272.49997854 189.41669638 -270.99997854 188.33336304 -269.5 187.25 C-248.5 172.08333333 -227.5 156.91666667 -206.5 141.75 C-205.75717773 141.2135083 -205.01435547 140.6770166 -204.24902344 140.12426758 C-202.75231299 139.04332809 -201.25556832 137.96243599 -199.75878906 136.8815918 C-195.95817363 134.1370246 -192.15819702 131.39158034 -188.359375 128.64453125 C-181.02666167 123.34317769 -173.68638156 118.05344563 -166.31835938 112.80126953 C-159.29435105 107.7901413 -152.30621493 102.72930529 -145.31445312 97.67333984 C-140.79764229 94.40770467 -136.278495 91.14530382 -131.75976562 87.88232422 C-127.95884225 85.13748856 -124.15852668 82.39181873 -120.359375 79.64453125 C-113.02666167 74.34317769 -105.68638156 69.05344563 -98.31835938 63.80126953 C-91.29435105 58.7901413 -84.30621493 53.72930529 -77.31445312 48.67333984 C-73.54406981 45.94736861 -69.77196306 43.22378466 -66 40.5 C-64.49999141 39.41667856 -62.99999142 38.33334521 -61.5 37.25 C-58.5 35.08333333 -55.5 32.91666667 -52.5 30.75 C-51.75693604 30.2132666 -51.01387207 29.6765332 -50.24829102 29.12353516 C-48.75427963 28.04468015 -47.25997804 26.96622692 -45.76538086 25.88818359 C-41.92122767 23.11462308 -38.08298597 20.33340423 -34.25390625 17.5390625 C-8.09435394 -1.51849565 -8.09435394 -1.51849565 0 0 Z " fill="#FEFEFE" transform="translate(516,33)"/>
<path d="M0 0 C7.28741767 3.22268114 13.57806549 8.05276303 19.80273438 12.96118164 C24.16360267 16.39606838 28.63966433 19.63005573 33.1875 22.8125 C39.13529976 26.97891092 45.05474072 31.17964283 50.9375 35.4375 C51.68346436 35.97737549 52.42942871 36.51725098 53.19799805 37.07348633 C54.71013427 38.16838044 56.22209699 39.26351422 57.73388672 40.35888672 C61.486448 43.07648173 65.24343419 45.78794473 69 48.5 C70.50002146 49.58330362 72.00002146 50.66663696 73.5 51.75 C74.2425 52.28625 74.985 52.8225 75.75 53.375 C100.5 71.25 100.5 71.25 102.75024414 72.87524414 C104.2493445 73.95788254 105.74853062 75.0404022 107.24780273 76.12280273 C111.01228168 78.84079823 114.77521904 81.56088068 118.53515625 84.28515625 C125.80432269 89.54881928 133.09124885 94.78186072 140.4375 99.9375 C147.34034679 104.78387201 154.13476019 109.76606348 160.91162109 114.78662109 C166.77094885 119.1181551 172.6943357 123.34780111 178.65844727 127.53344727 C186.06851717 132.7374724 193.40152023 138.0461951 200.73388672 143.35888672 C204.486448 146.07648173 208.24343419 148.78794473 212 151.5 C213.50002146 152.58330362 215.00002146 153.66663696 216.5 154.75 C217.2425 155.28625 217.985 155.8225 218.75 156.375 C279.49999999 200.24999999 279.49999999 200.24999999 281.75097656 201.87573242 C283.24768701 202.95667191 284.74443168 204.03756401 286.24121094 205.1184082 C290.04182637 207.8629754 293.84180298 210.60841966 297.640625 213.35546875 C304.41540742 218.25345334 311.19258102 223.14744088 318 228 C325.58659358 233.40798119 333.13590141 238.86727127 340.68554688 244.32666016 C344.45593019 247.05263139 348.22803694 249.77621534 352 252.5 C353.50000859 253.58332144 355.00000858 254.66665479 356.5 255.75 C357.2425 256.28625 357.985 256.8225 358.75 257.375 C383.5 275.25 383.5 275.25 385.75097656 276.87573242 C387.24768701 277.95667191 388.74443168 279.03756401 390.24121094 280.1184082 C394.04182637 282.8629754 397.84180298 285.60841966 401.640625 288.35546875 C408.41540742 293.25345334 415.19258102 298.14744088 422 303 C429.58659358 308.40798119 437.13590141 313.86727127 444.68554688 319.32666016 C447.70988581 321.51324445 450.73533712 323.69828591 453.76098633 325.88305664 C455.25059568 326.9588044 456.74001707 328.03481247 458.22924805 329.11108398 C462.0879883 331.89947366 465.94973864 334.68354891 469.81640625 337.4609375 C473.59542511 340.17571003 477.3620169 342.9070437 481.12353516 345.64599609 C482.70819037 346.78943844 484.31115009 347.90744926 485.91796875 349.01953125 C492.51976881 353.74142174 497.4778405 359.95338109 499.1875 368.0625 C499.30756996 372.38946574 498.22814474 376.21510923 496.9765625 380.3125 C496.64577446 381.41477684 496.64577446 381.41477684 496.30830383 382.5393219 C493.45147144 391.95653952 490.35528792 401.29829212 487.27340698 410.64364624 C485.37881 416.3904786 483.49367388 422.14040913 481.609375 427.890625 C481.03043739 429.65716682 481.03043739 429.65716682 480.43980408 431.45939636 C476.54843426 443.35053442 472.73683574 455.26669928 468.9375 467.1875 C463.2803847 484.933616 457.5363939 502.64937755 451.73422241 520.34857178 C447.32269236 533.81112552 442.98627895 547.29380696 438.75 560.8125 C435.03516866 572.66658243 431.20944924 584.47537605 427.25 596.25 C422.47219217 610.45871789 417.86308044 624.71695158 413.3125 639 C407.78182713 656.35789613 402.17909984 673.69009459 396.5 691 C390.57000861 709.07790186 384.72298687 727.18028837 378.94287109 745.30664062 C374.02483835 760.72533788 369.0388725 776.12038595 364 791.5 C358.60088272 807.97935717 353.27006597 824.47892378 348 841 C341.01226608 862.89895755 333.92944888 884.76544969 326.74731445 906.60144043 C324.98429849 911.96991788 323.2448448 917.34500686 321.53456116 922.73051453 C320.55088139 925.82298123 319.55494955 928.91141683 318.55679321 931.99923706 C318.11078984 933.38983088 317.67058396 934.78230086 317.23690796 936.17678833 C314.50013842 944.96984046 312.10561765 951.93662941 303.875 956.875 C300.0208818 958.38313321 296.79075892 959.12480289 292.65236974 959.1276505 C291.78251321 959.13066647 290.91265668 959.13368244 290.01644087 959.1367898 C289.06341975 959.13502033 288.11039863 959.13325086 287.12849808 959.13142776 C285.60056873 959.13450672 285.60056873 959.13450672 284.04177213 959.13764787 C280.60069176 959.14333894 277.15965116 959.14185802 273.71856689 959.14044189 C271.23768592 959.14302432 268.75680537 959.14603713 266.2759254 959.1494453 C260.1548543 959.15668361 254.03379578 959.15921862 247.91272091 959.15977435 C240.58292413 959.16068747 233.25313544 959.16735346 225.92334214 959.17412117 C208.20688963 959.19018846 190.49043798 959.19608515 172.77397949 959.20086992 C164.39507395 959.203205 156.01616911 959.20680754 147.6372641 959.2105653 C118.96244756 959.22340106 90.2876314 959.23412054 61.61281204 959.2375679 C59.81245952 959.23778954 58.012107 959.23801132 56.21175449 959.23823325 C54.40702457 959.23845389 52.60229466 959.23867438 50.79756474 959.2388947 C47.17689212 959.23933726 43.5562195 959.23978437 39.93554688 959.24023438 C39.03782919 959.24034377 38.14011151 959.24045316 37.21519026 959.24056586 C8.09973994 959.24419735 -21.01568549 959.26012073 -50.13112628 959.28342474 C-80.90479702 959.30801102 -111.67845353 959.32174017 -142.45213437 959.32293582 C-145.82914559 959.32310728 -149.20615681 959.32332271 -152.58316803 959.32357025 C-153.41469923 959.32362602 -154.24623044 959.32368179 -155.10295956 959.32373925 C-168.49448756 959.3248907 -181.88599007 959.33592066 -195.27750945 959.35045731 C-208.73310073 959.36481114 -222.18865925 959.36806558 -235.64425609 959.36001733 C-243.64106011 959.35555591 -251.63775853 959.35944212 -259.63454871 959.37525584 C-265.60145217 959.38613253 -271.5682344 959.38138102 -277.53514233 959.37048396 C-279.952378 959.3685167 -282.36962416 959.3716525 -284.78684506 959.38032833 C-288.06645942 959.39135681 -291.34553452 959.3839776 -294.62513351 959.3719368 C-295.56878997 959.37953199 -296.51244643 959.38712718 -297.48469853 959.39495254 C-305.26255638 959.33309086 -312.49337138 957.64363601 -318.3671875 952.19702148 C-320.4914685 949.33870739 -321.53058665 946.50853465 -322.75 943.16015625 C-323.00383453 942.46421356 -323.25766907 941.76827087 -323.51919556 941.05123901 C-327.0262114 931.31830578 -330.18798361 921.46602131 -333.375 911.625 C-334.07664322 909.46738947 -334.77847017 907.30983869 -335.48046875 905.15234375 C-340.70493672 889.07630726 -345.85964241 872.97805336 -350.99725342 856.87408447 C-355.93567605 841.39529795 -360.94145344 825.93992899 -366 810.5 C-371.74064721 792.97813198 -377.39714071 775.43113256 -383 757.86474609 C-387.93755165 742.38908983 -392.94246446 726.93684311 -398 711.5 C-403.73932358 693.98217202 -409.39529012 676.43945364 -414.99597168 658.87683105 C-420.34359577 642.11245914 -425.78216586 625.37938298 -431.26348877 608.65829468 C-435.97451917 594.2811939 -440.59093499 579.87801303 -445.1184082 565.44213867 C-448.23469388 555.51163019 -451.4276101 545.61401126 -454.75 535.75 C-459.11364214 522.79213848 -463.28700347 509.77750404 -467.4375 496.75 C-473.07533025 479.05827333 -478.79140033 461.39384665 -484.58139038 443.75131226 C-485.80300457 440.02893353 -487.02334895 436.30614059 -488.2434082 432.58325195 C-491.40884791 422.92731241 -494.57493497 413.27168895 -497.7731781 403.6265564 C-498.82697131 400.44460123 -499.87434362 397.2605605 -500.92001343 394.07592773 C-501.38064737 392.67869205 -501.84440267 391.28248049 -502.31167603 389.88745117 C-508.83761601 370.40217837 -508.83761601 370.40217837 -504 360 C-500.22294036 353.87207651 -495.64869945 349.82732162 -489.75 345.8125 C-488.14039281 344.68392484 -486.53102447 343.55500895 -484.921875 342.42578125 C-484.10396484 341.85811035 -483.28605469 341.29043945 -482.44335938 340.70556641 C-478.59397124 338.01853348 -474.79903947 335.25751537 -471 332.5 C-469.50028363 331.41627406 -468.0002829 330.33294152 -466.5 329.25 C-465.38625 328.445625 -465.38625 328.445625 -464.25 327.625 C-438 308.66666667 -411.75 289.70833333 -385.5 270.75 C-384.75741943 270.21366943 -384.01483887 269.67733887 -383.24975586 269.12475586 C-381.7506555 268.04211746 -380.25146938 266.9595978 -378.75219727 265.87719727 C-374.98771832 263.15920177 -371.22478096 260.43911932 -367.46484375 257.71484375 C-360.19567731 252.45118072 -352.90875115 247.21813928 -345.5625 242.0625 C-339.47874537 237.79119875 -333.47286072 233.42492354 -327.5 229 C-320.84058446 224.0664504 -314.12530093 219.22742435 -307.34155273 214.46655273 C-299.93148283 209.2625276 -292.59847977 203.9538049 -285.26611328 198.64111328 C-281.513552 195.92351827 -277.75656581 193.21205527 -274 190.5 C-272.49997854 189.41669638 -270.99997854 188.33336304 -269.5 187.25 C-248.5 172.08333333 -227.5 156.91666667 -206.5 141.75 C-205.75717773 141.2135083 -205.01435547 140.6770166 -204.24902344 140.12426758 C-202.75231299 139.04332809 -201.25556832 137.96243599 -199.75878906 136.8815918 C-195.95817363 134.1370246 -192.15819702 131.39158034 -188.359375 128.64453125 C-181.02666167 123.34317769 -173.68638156 118.05344563 -166.31835938 112.80126953 C-159.29435105 107.7901413 -152.30621493 102.72930529 -145.31445312 97.67333984 C-140.79764229 94.40770467 -136.278495 91.14530382 -131.75976562 87.88232422 C-127.95884225 85.13748856 -124.15852668 82.39181873 -120.359375 79.64453125 C-113.02666167 74.34317769 -105.68638156 69.05344563 -98.31835938 63.80126953 C-91.29435105 58.7901413 -84.30621493 53.72930529 -77.31445312 48.67333984 C-73.54406981 45.94736861 -69.77196306 43.22378466 -66 40.5 C-64.49999141 39.41667856 -62.99999142 38.33334521 -61.5 37.25 C-58.5 35.08333333 -55.5 32.91666667 -52.5 30.75 C-51.75693604 30.2132666 -51.01387207 29.6765332 -50.24829102 29.12353516 C-48.75427963 28.04468015 -47.25997804 26.96622692 -45.76538086 25.88818359 C-41.92122767 23.11462308 -38.08298597 20.33340423 -34.25390625 17.5390625 C-8.09435394 -1.51849565 -8.09435394 -1.51849565 0 0 Z M-13.125 53.1875 C-14.56130527 54.29452059 -15.99885219 55.39993167 -17.4375 56.50390625 C-18.18515625 57.08027832 -18.9328125 57.65665039 -19.703125 58.25048828 C-23.45993219 61.11201893 -27.29001178 63.86960241 -31.125 66.625 C-31.88441895 67.1718042 -32.64383789 67.7186084 -33.42626953 68.28198242 C-38.50241447 71.93315833 -43.58964597 75.56877317 -48.68115234 79.19848633 C-55.70550852 84.2094345 -62.69364103 89.27059054 -69.68554688 94.32666016 C-74.20235771 97.59229533 -78.721505 100.85469618 -83.24023438 104.11767578 C-87.04115775 106.86251144 -90.84147332 109.60818127 -94.640625 112.35546875 C-101.97333833 117.65682231 -109.31361844 122.94655437 -116.68164062 128.19873047 C-123.70564895 133.2098587 -130.69378507 138.27069471 -137.68554688 143.32666016 C-142.20235771 146.59229533 -146.721505 149.85469618 -151.24023438 153.11767578 C-155.04115775 155.86251144 -158.84147332 158.60818127 -162.640625 161.35546875 C-169.97333833 166.65682231 -177.31361844 171.94655437 -184.68164062 177.19873047 C-191.70564895 182.2098587 -198.69378507 187.27069471 -205.68554688 192.32666016 C-210.20235771 195.59229533 -214.721505 198.85469618 -219.24023438 202.11767578 C-223.04115775 204.86251144 -226.84147332 207.60818127 -230.640625 210.35546875 C-237.97333833 215.65682231 -245.31361844 220.94655437 -252.68164062 226.19873047 C-259.70564895 231.2098587 -266.69378507 236.27069471 -273.68554688 241.32666016 C-277.45593019 244.05263139 -281.22803694 246.77621534 -285 249.5 C-286.50000859 250.58332144 -288.00000858 251.66665479 -289.5 252.75 C-298.5 259.25 -307.5 265.75 -316.5 272.25 C-317.6142334 273.05473755 -317.6142334 273.05473755 -318.75097656 273.87573242 C-320.24768701 274.95667191 -321.74443168 276.03756401 -323.24121094 277.1184082 C-327.04182637 279.8629754 -330.84180298 282.60841966 -334.640625 285.35546875 C-341.97333833 290.65682231 -349.31361844 295.94655437 -356.68164062 301.19873047 C-363.70564895 306.2098587 -370.69378507 311.27069471 -377.68554688 316.32666016 C-382.20235771 319.59229533 -386.721505 322.85469618 -391.24023438 326.11767578 C-395.04115775 328.86251144 -398.84147332 331.60818127 -402.640625 334.35546875 C-409.97036718 339.65467424 -417.30713176 344.94304209 -424.67285156 350.19213867 C-430.22911192 354.1553175 -435.75830513 358.15570199 -441.28857422 362.1550293 C-448.17278504 367.13091493 -455.08122773 372.07232136 -462 377 C-460.06322581 385.26927983 -457.687478 393.28011605 -454.9375 401.3125 C-454.130193 403.70268043 -453.32425633 406.09332405 -452.51953125 408.484375 C-452.10396973 409.71865234 -451.6884082 410.95292969 -451.26025391 412.22460938 C-449.16913979 418.48903956 -447.14547041 424.77500611 -445.125 431.0625 C-444.70690576 432.36190978 -444.28877394 433.66130747 -443.87060547 434.96069336 C-443.0163127 437.61606594 -442.16252103 440.271599 -441.30908203 442.92724609 C-439.06449874 449.91121182 -436.81650504 456.89406893 -434.5625 463.875 C-434.33636017 464.57556519 -434.11022034 465.27613037 -433.87722778 465.9979248 C-429.89980095 478.30997743 -425.82967067 490.59009453 -421.70336914 502.85302734 C-419.34711416 509.8681973 -417.08615615 516.90338447 -414.93139648 523.9831543 C-413.53216783 528.51533478 -412.01931465 533.00695463 -410.5 537.5 C-408.24541668 544.21666772 -406.05636858 550.94341169 -403.99609375 557.72265625 C-399.40591262 572.82525221 -394.43082438 587.79504315 -389.40234375 602.75610352 C-386.85709744 610.34066306 -384.366006 617.93535157 -381.99742126 625.57717896 C-379.21407316 634.5560505 -376.34691424 643.50833936 -373.48876953 652.46362305 C-372.50057421 655.56070038 -371.51393092 658.65826944 -370.52734375 661.75585938 C-367.46106571 671.37245291 -364.36614423 680.97577923 -361.15380859 690.54467773 C-359.30388193 696.08467181 -357.51414487 701.64406697 -355.72235107 707.20306396 C-354.53933213 710.87292859 -353.35376114 714.54196823 -352.16796875 718.2109375 C-351.91577576 718.9912735 -351.66358276 719.7716095 -351.40374756 720.57559204 C-348.54352855 729.42005784 -345.66192881 738.25754795 -342.78106689 747.0953064 C-337.49636472 763.30807492 -332.23842488 779.52878659 -327.03564453 795.76806641 C-325.23481315 801.38791689 -323.43022052 807.00655808 -321.625 812.625 C-321.25777832 813.76791504 -320.89055664 814.91083008 -320.51220703 816.08837891 C-317.07723333 826.77216829 -313.62317572 837.44975309 -310.16552734 848.1262207 C-307.87927635 855.18645193 -305.59650494 862.24776045 -303.32421875 869.3125 C-302.67711211 871.32371576 -302.0299561 873.33491562 -301.38275146 875.34609985 C-300.96341581 876.64926822 -300.5441844 877.95247013 -300.12506104 879.25570679 C-297.17679685 888.41895857 -294.17807989 897.56357119 -291.06738281 906.6730957 C-290.67631348 907.82878052 -290.67631348 907.82878052 -290.27734375 909.0078125 C-290.05296631 909.66410645 -289.82858887 910.32040039 -289.59741211 910.99658203 C-288.91317581 913.29116441 -288.46958605 915.65206973 -288 918 C-100.56 918 86.88 918 280 918 C281.65 912.39 283.3 906.78 285 901 C286.2959562 896.84744669 287.60124858 892.70178608 288.9375 888.5625 C289.28321045 887.48669678 289.6289209 886.41089355 289.98510742 885.30249023 C292.11813873 878.68203934 294.29519112 872.07782022 296.51074219 865.48461914 C300.38166131 853.92625703 304.08799389 842.31297249 307.83187866 830.71299744 C309.41538805 825.80743417 311.00296515 820.90320839 312.59375 816 C316.77827937 803.09759357 320.94367805 790.18934174 325.07421875 777.26953125 C325.42882675 776.16044403 325.78343475 775.05135681 326.14878845 773.90866089 C327.91095742 768.39600484 329.67165502 762.88288363 331.43041992 757.36914062 C334.51800268 747.69719977 337.62855185 738.03653758 340.859375 728.41137695 C342.88589122 722.35047988 344.84757068 716.26857839 346.8125 710.1875 C347.03666595 709.49488068 347.26083191 708.80226135 347.49179077 708.08865356 C350.7064648 698.15540668 353.89223691 688.21313209 357.0625 678.265625 C357.77237106 676.04011773 358.48225065 673.81461318 359.19213867 671.58911133 C360.57812986 667.24354688 361.96056526 662.89687235 363.34106445 658.54956055 C366.43297504 648.83843447 369.55334914 639.15074085 373.03840637 629.57225037 C374.71927955 624.92961264 376.14946767 620.24605352 377.5 615.5 C379.14493837 609.75456762 380.96503437 604.11955144 383 598.5 C385.01216541 592.94219672 386.82210905 587.37325106 388.4375 581.6875 C390.48160049 574.49974796 392.89767067 567.4842907 395.41162109 560.44873047 C397.54606576 554.42650581 399.41053291 548.36712101 401.15625 542.22265625 C402.58851824 537.24248172 404.236391 532.37195593 406 527.5 C408.00294955 521.96180015 409.81887762 516.41252268 411.4375 510.75 C413.1902886 504.63485545 415.09214738 498.59034995 417.125 492.5625 C420.25681793 483.27208202 423.29983561 473.95456652 426.3125 464.625 C426.54786469 463.89641785 426.78322937 463.16783569 427.02572632 462.41717529 C428.68548078 457.2786529 430.34307159 452.13943425 432 447 C432.42609973 445.67854591 432.85220627 444.35709401 433.27832031 443.03564453 C433.48238495 442.40275513 433.68644958 441.76986572 433.896698 441.11779785 C434.50701238 439.22513752 435.11751974 437.33253942 435.72802734 435.43994141 C436.53169381 432.9465313 437.33411119 430.45271824 438.13525391 427.95849609 C440.22048828 421.47488941 442.32596538 414.99898214 444.46910095 408.53425598 C445.60272688 405.11255702 446.72987112 401.68873689 447.85671997 398.26480103 C448.40772995 396.59687399 448.96195864 394.93000662 449.51950073 393.26425171 C450.29576115 390.94435772 451.06107974 388.62111236 451.82421875 386.296875 C452.06009705 385.60151138 452.29597534 384.90614777 452.53900146 384.18971252 C453.87426903 380.1346426 453.87426903 380.1346426 453 376 C451.31916036 374.54763649 451.31916036 374.54763649 449.203125 373.21484375 C448.41599121 372.68947021 447.62885742 372.16409668 446.81787109 371.62280273 C445.5467749 370.78857788 445.5467749 370.78857788 444.25 369.9375 C437.38773381 365.34543323 430.78366116 360.60926981 424.28515625 355.515625 C419.85082663 352.07714636 415.24026059 348.88843694 410.64575195 345.66943359 C405.42117384 342.00798224 400.2306688 338.30314679 395.0625 334.5625 C394.31653564 334.02262451 393.57057129 333.48274902 392.80200195 332.92651367 C391.28986573 331.83161956 389.77790301 330.73648578 388.26611328 329.64111328 C384.513552 326.92351827 380.75656581 324.21205527 377 321.5 C375.49997854 320.41669638 373.99997854 319.33336304 372.5 318.25 C371.7575 317.71375 371.015 317.1775 370.25 316.625 C345.5 298.75 345.5 298.75 343.24902344 297.12426758 C341.75231299 296.04332809 340.25556832 294.96243599 338.75878906 293.8815918 C334.95817363 291.1370246 331.15819702 288.39158034 327.359375 285.64453125 C320.58459258 280.74654666 313.80741898 275.85255912 307 271 C299.41340642 265.59201881 291.86409859 260.13272873 284.31445312 254.67333984 C280.54406981 251.94736861 276.77196306 249.22378466 273 246.5 C271.49999141 245.41667856 269.99999142 244.33334521 268.5 243.25 C267.7575 242.71375 267.015 242.1775 266.25 241.625 C259.49999999 236.75 259.49999999 236.75 257.24902344 235.12426758 C255.75231299 234.04332809 254.25556832 232.96243599 252.75878906 231.8815918 C248.95817363 229.1370246 245.15819702 226.39158034 241.359375 223.64453125 C234.58459258 218.74654666 227.80741898 213.85255912 221 209 C213.41340642 203.59201881 205.86409859 198.13272873 198.31445312 192.67333984 C194.54406983 189.94736863 190.77198481 187.22375451 187 184.5 C182.45224422 181.2160604 177.90490626 177.93154955 173.359375 174.64453125 C166.58459258 169.74654666 159.80741898 164.85255912 153 160 C145.41340642 154.59201881 137.86409859 149.13272873 130.31445312 143.67333984 C126.54406981 140.94736861 122.77196306 138.22378466 119 135.5 C117.49999141 134.41667856 115.99999142 133.33334521 114.5 132.25 C113.7575 131.71375 113.015 131.1775 112.25 130.625 C105.49999999 125.75 105.49999999 125.75 103.24902344 124.12426758 C101.75231299 123.04332809 100.25556832 121.96243599 98.75878906 120.8815918 C94.95817363 118.1370246 91.15819702 115.39158034 87.359375 112.64453125 C80.58459258 107.74654666 73.80741898 102.85255912 67 98 C59.41340642 92.59201881 51.86409859 87.13272873 44.31445312 81.67333984 C41.29002213 79.486689 38.26446744 77.30159654 35.23876953 75.11669922 C33.75005991 74.04164632 32.2614526 72.96645172 30.77294922 71.89111328 C26.89975054 69.09309762 23.02515948 66.29703867 19.1484375 63.50390625 C18.34921875 62.92769531 17.55 62.35148437 16.7265625 61.7578125 C15.21398684 60.66735098 13.70099941 59.57746029 12.1875 58.48828125 C11.49398438 57.988125 10.80046875 57.48796875 10.0859375 56.97265625 C9.07418457 56.2458667 9.07418457 56.2458667 8.04199219 55.50439453 C6.62214984 54.45835573 5.22288674 53.38403845 3.84082031 52.28857422 C3.14311523 51.73830566 2.44541016 51.18803711 1.7265625 50.62109375 C1.10604004 50.11892334 0.48551758 49.61675293 -0.15380859 49.09936523 C-5.45139493 45.94477237 -9.09756795 50.00194386 -13.125 53.1875 Z " fill="#A50B15" transform="translate(516,33)"/>
<path d="M0 0 C0.65926483 0.00045822 1.31852966 0.00091644 1.99777222 0.00138855 C3.38801885 0.0044046 4.7782623 0.0122716 6.16845703 0.0246582 C8.30383167 0.04296141 10.43877371 0.0451675 12.57421875 0.04492188 C23.03219754 0.08297879 23.03219754 0.08297879 24.1796875 1.23046875 C24.30501837 4.21270049 24.36580328 7.17288509 24.38500977 10.15649414 C24.39490936 11.09298294 24.40480896 12.02947174 24.41500854 12.99433899 C24.44672503 16.10557483 24.47142091 19.21682597 24.49609375 22.328125 C24.51665453 24.47904367 24.53765075 26.62995821 24.55906677 28.78086853 C24.614378 34.45424064 24.66374722 40.12764976 24.71191406 45.80108643 C24.76206317 51.58552359 24.81778356 57.36990671 24.87304688 63.15429688 C24.98073908 74.51297473 25.08215932 85.8716994 25.1796875 97.23046875 C26.14603622 97.29191574 27.11238495 97.35336273 28.10801697 97.41667175 C29.37295486 97.50113052 30.63789276 97.58558929 31.94116211 97.67260742 C33.8238102 97.79571541 33.8238102 97.79571541 35.74449158 97.92131042 C39.44566862 98.25440633 42.66234908 99.04363677 46.1796875 100.23046875 C47.60252156 100.58999661 49.02862365 100.93673472 50.45703125 101.2734375 C61.29610092 103.91015599 71.09477494 107.50176531 81.1796875 112.23046875 C82.31535156 112.6996875 83.45101563 113.16890625 84.62109375 113.65234375 C88.71344971 115.46717559 92.51733179 117.57959449 96.3671875 119.85546875 C97.1111377 120.2949585 97.85508789 120.73444824 98.62158203 121.18725586 C105.1683584 125.11687405 111.21165259 129.45941259 117.1796875 134.23046875 C118.57960938 135.32488281 118.57960938 135.32488281 120.0078125 136.44140625 C130.31982828 144.65069256 139.10162103 153.83282393 147.1796875 164.23046875 C147.81559814 165.02783447 147.81559814 165.02783447 148.46435547 165.84130859 C164.9229861 186.55741474 175.73986196 211.40561277 181.1796875 237.23046875 C181.40398437 238.26945313 181.62828125 239.3084375 181.859375 240.37890625 C182.94147426 245.78940255 183.20632658 250.72318855 183.1796875 256.23046875 C184.17971298 256.22824814 185.17973846 256.22602753 186.21006775 256.22373962 C195.61337089 256.20350807 205.01666965 256.18849655 214.41998959 256.17865658 C219.25485577 256.17342778 224.08970444 256.16633021 228.92456055 256.1550293 C233.5864587 256.14420028 238.24833996 256.13819189 242.91024971 256.13559151 C244.69293038 256.13373728 246.47561009 256.13011672 248.25828362 256.12473869 C250.7463471 256.11752806 253.23433993 256.11647782 255.72241211 256.11694336 C256.46687592 256.11334808 257.21133972 256.10975281 257.97836304 256.10604858 C263.06563534 256.11641659 263.06563534 256.11641659 264.1796875 257.23046875 C264.26759725 259.52198292 264.28662788 261.81619399 264.27734375 264.109375 C264.2759288 264.79603745 264.27451385 265.48269989 264.27305603 266.19017029 C264.26744229 268.39114676 264.25488757 270.59202284 264.2421875 272.79296875 C264.23717426 274.28189958 264.23261105 275.77083199 264.22851562 277.25976562 C264.21746843 280.9166995 264.20019463 284.57357433 264.1796875 288.23046875 C261.1520442 289.7442904 258.02067197 289.36031128 254.70068359 289.34399414 C253.92985947 289.34414017 253.15903534 289.34428619 252.36485291 289.34443665 C249.81091521 289.34373864 247.25704999 289.3359515 244.703125 289.328125 C242.93478434 289.32626042 241.16644317 289.32483671 239.39810181 289.32383728 C234.73903991 289.32001525 230.08000908 289.31018763 225.42095947 289.2991333 C220.66866476 289.28891244 215.91636503 289.28433821 211.1640625 289.27929688 C201.83592383 289.26856509 192.50780825 289.25149242 183.1796875 289.23046875 C183.11805923 290.17796494 183.05643097 291.12546112 182.99293518 292.10166931 C182.90833542 293.35194412 182.82373566 294.60221893 182.73657227 295.89038086 C182.654319 297.12662704 182.57206573 298.36287323 182.48731995 299.63658142 C182.07424954 304.46223782 181.22161283 309.08343138 180.1171875 313.79296875 C179.90167236 314.72061035 179.68615723 315.64825195 179.46411133 316.60400391 C174.55137686 336.69306327 165.89923791 356.18384998 154.1796875 373.23046875 C153.58800781 374.09671875 152.99632812 374.96296875 152.38671875 375.85546875 C133.10836449 403.20290737 107.92847456 423.9831151 77.1796875 437.23046875 C75.95765625 437.80861328 75.95765625 437.80861328 74.7109375 438.3984375 C68.41888845 441.37348243 61.85423086 443.29941839 55.1796875 445.23046875 C54.26058594 445.51019531 53.34148437 445.78992188 52.39453125 446.078125 C42.80746009 448.88788518 33.16557331 450.29345482 23.1796875 450.23046875 C23.18412872 451.36608246 23.18856995 452.50169617 23.19314575 453.67172241 C23.23362583 464.3550085 23.26364009 475.0382791 23.28331184 485.72162437 C23.29376513 491.21451378 23.30795243 496.70734145 23.33056641 502.20019531 C23.3522398 507.49752029 23.36424448 512.79478576 23.36944199 518.09215164 C23.37314766 520.11683718 23.38038354 522.14151934 23.39114761 524.16617966 C23.40558944 526.99415977 23.40766852 529.82189151 23.40673828 532.64990234 C23.41392883 533.493629 23.42111938 534.33735565 23.42852783 535.20664978 C23.40779182 541.00236443 23.40779182 541.00236443 21.1796875 543.23046875 C10.9496875 543.23046875 0.7196875 543.23046875 -9.8203125 543.23046875 C-10.1503125 512.87046875 -10.4803125 482.51046875 -10.8203125 451.23046875 C-20.2253125 449.74546875 -20.2253125 449.74546875 -29.8203125 448.23046875 C-40.86603585 446.12652144 -50.20678755 443.6232988 -60.29296875 438.875 C-63.09989256 437.5663456 -65.84672113 436.4537871 -68.7578125 435.41796875 C-86.67282301 428.32410553 -103.08196446 415.51540596 -116.8203125 402.23046875 C-117.72523438 401.37195313 -118.63015625 400.5134375 -119.5625 399.62890625 C-121.8203125 397.23046875 -121.8203125 397.23046875 -122.8203125 394.23046875 C-123.4803125 394.23046875 -124.1403125 394.23046875 -124.8203125 394.23046875 C-126.61280875 392.16336449 -128.28867098 390.09031488 -129.9453125 387.91796875 C-130.68128662 386.96434448 -130.68128662 386.96434448 -131.43212891 385.99145508 C-132.90325242 384.07736366 -134.36343193 382.15541526 -135.8203125 380.23046875 C-136.97273437 378.71453125 -136.97273437 378.71453125 -138.1484375 377.16796875 C-141.57685675 372.56184823 -144.7642964 367.96262998 -147.42578125 362.87109375 C-148.50220833 360.83281726 -149.64258989 358.8282354 -150.80859375 356.83984375 C-157.77220889 344.72054875 -161.90784079 331.8693885 -166.0234375 318.55273438 C-166.60746782 316.29687307 -166.60746782 316.29687307 -167.8203125 315.23046875 C-168.39298112 312.71132027 -168.90714921 310.20559825 -169.3828125 307.66796875 C-169.52138672 306.97638672 -169.65996094 306.28480469 -169.80273438 305.57226562 C-169.93357422 304.88068359 -170.06441406 304.18910156 -170.19921875 303.4765625 C-170.3185376 302.85450928 -170.43785645 302.23245605 -170.56079102 301.59155273 C-170.94082428 298.13407229 -170.83495643 294.70854707 -170.8203125 291.23046875 C-172.27943558 291.2404615 -172.27943558 291.2404615 -173.76803589 291.25065613 C-182.92081884 291.31138596 -192.07356109 291.35640217 -201.22649956 291.38590527 C-205.93249767 291.40158286 -210.63833355 291.42285911 -215.34423828 291.45678711 C-219.8829623 291.4893062 -224.42152998 291.50730598 -228.96036148 291.51510048 C-230.69478951 291.52065743 -232.42920867 291.53150838 -234.1635704 291.54765892 C-236.58693908 291.56933462 -239.00965597 291.57243988 -241.43310547 291.57104492 C-242.51635605 291.58722366 -242.51635605 291.58722366 -243.62149048 291.60372925 C-245.61862183 291.5912323 -245.61862183 291.5912323 -248.8203125 291.23046875 C-251.28497346 287.53347731 -251.07810649 285.63625944 -251.0859375 281.2265625 C-251.08785095 280.5474733 -251.0897644 279.86838409 -251.09173584 279.16871643 C-251.09309497 277.7356021 -251.08941746 276.30247534 -251.08105469 274.86938477 C-251.07033417 272.6724089 -251.08096703 270.47624761 -251.09375 268.27929688 C-251.09242868 266.88671694 -251.08986686 265.49413752 -251.0859375 264.1015625 C-251.08368164 262.8323999 -251.08142578 261.5632373 -251.07910156 260.25561523 C-250.8203125 257.23046875 -250.8203125 257.23046875 -248.8203125 255.23046875 C-246.28901672 254.99668884 -246.28901672 254.99668884 -243.0480957 255.01928711 C-241.83535477 255.02266586 -240.62261383 255.02604462 -239.37312317 255.02952576 C-238.03911294 255.04308004 -236.70510315 255.05667675 -235.37109375 255.0703125 C-233.99741539 255.07658991 -232.62373192 255.08182767 -231.25004578 255.08607483 C-227.61758228 255.09940912 -223.98528532 255.12381504 -220.35290527 255.15142822 C-214.58633818 255.19439132 -208.8197395 255.22464679 -203.05306053 255.24746895 C-201.05994471 255.25749142 -199.06687001 255.27485685 -197.07380676 255.29246521 C-188.27011809 255.33832567 -179.5919129 254.92571824 -170.8203125 254.23046875 C-170.63855469 252.998125 -170.45679688 251.76578125 -170.26953125 250.49609375 C-166.91505182 228.18112008 -160.51837041 208.12519454 -149.8203125 188.23046875 C-149.3550415 187.34415771 -149.3550415 187.34415771 -148.88037109 186.43994141 C-141.04377839 171.56657746 -131.08326159 159.15415843 -119.2578125 147.23046875 C-118.39583252 146.3583374 -117.53385254 145.48620605 -116.64575195 144.58764648 C-110.77887475 138.79962366 -104.57851292 133.93026661 -97.8203125 129.23046875 C-96.29764918 128.10794683 -94.7765277 126.98332652 -93.2578125 125.85546875 C-76.07162624 113.92591316 -57.41288679 105.57564274 -37.10522461 100.80541992 C-35.29958672 100.35106826 -33.51297274 99.82115984 -31.73609924 99.2648468 C-27.50031998 98.04981462 -23.25562568 97.56260946 -18.8828125 97.10546875 C-18.10357422 97.01910156 -17.32433594 96.93273437 -16.52148438 96.84375 C-14.6216788 96.63395552 -12.72107076 96.43144881 -10.8203125 96.23046875 C-10.81444626 95.05727081 -10.80858002 93.88407288 -10.80253601 92.67532349 C-10.74541356 81.6387014 -10.67270735 70.60227835 -10.58459759 59.56585884 C-10.53980022 53.89141372 -10.50056495 48.21704195 -10.47387695 42.54248047 C-10.44793719 37.06994623 -10.40760161 31.59769291 -10.35712624 26.12533188 C-10.34039417 24.03370523 -10.32891955 21.94202993 -10.32269859 19.85034561 C-10.31312618 16.92873679 -10.28515017 14.00785702 -10.25268555 11.08642578 C-10.25412064 10.21464691 -10.25555573 9.34286804 -10.2570343 8.44467163 C-10.21903992 6.0395813 -10.21903992 6.0395813 -9.8203125 2.23046875 C-6.15552141 -0.21272531 -4.36434993 -0.01452315 0 0 Z " fill="#A50C16" transform="translate(649.8203125,207.76953125)"/>
<path d="M0 0 C6.66759837 0.35875411 13.16075312 3.48575622 19.1875 6.125 C20.56723999 6.72550171 20.56723999 6.72550171 21.97485352 7.33813477 C50.24533295 19.85964972 74.76275914 40.09558046 93 65 C93.48758789 65.66499512 93.97517578 66.32999023 94.47753906 67.01513672 C103.30545291 79.23331455 109.98246029 92.20102091 116 106 C116.28987793 106.65919434 116.57975586 107.31838867 116.87841797 107.99755859 C125.43249516 127.95707204 128.39171867 151.8409561 128.26074219 173.40673828 C128.2500035 175.49931785 128.26072869 177.5910395 128.2734375 179.68359375 C128.28320714 188.95477405 127.45068978 197.82889534 126 207 C125.8752832 207.85706543 125.75056641 208.71413086 125.62207031 209.59716797 C122.24202468 231.99360213 114.09802475 253.8783866 102 273 C101.59281738 273.65742187 101.18563477 274.31484375 100.76611328 274.9921875 C94.94041163 284.34658666 88.3593026 292.810949 81 301 C80.45827148 301.60875977 79.91654297 302.21751953 79.35839844 302.84472656 C49.38473893 336.378935 6.40151282 360.90838512 -39.07675171 364.22433472 C-45.3268601 364.49009243 -51.57132431 364.48608927 -57.82568359 364.41162109 C-61.0260369 364.37469962 -64.22523499 364.37060668 -67.42578125 364.37109375 C-81.69450067 364.32334878 -95.11683323 363.36171308 -108.9375 359.5625 C-109.72189453 359.35818359 -110.50628906 359.15386719 -111.31445312 358.94335938 C-116.09954456 357.66013936 -120.47769057 356.01648756 -125 354 C-126.87322674 353.32836688 -128.74826566 352.66176858 -130.625 352 C-150.67492132 344.29916517 -167.65757081 332.73199125 -184 319 C-184.96099609 318.22462891 -184.96099609 318.22462891 -185.94140625 317.43359375 C-189.55256068 314.51856547 -191.74897463 312.5098168 -192.53515625 307.78125 C-191.78019864 302.44695097 -189.21752884 300.14598526 -185.4375 296.5 C-184.82841797 295.85546875 -184.21933594 295.2109375 -183.59179688 294.546875 C-180.3414122 291.32744637 -178.95335484 290.02777725 -174.24609375 289.890625 C-170.97308389 291.00919877 -169.77895436 291.64776072 -167.625 294.25 C-141.75737668 321.78650224 -102.72004097 334.82016529 -65.7109375 336.37890625 C-51.03906418 336.73938273 -37.206757 335.68365148 -23 332 C-21.75065674 331.68651611 -21.75065674 331.68651611 -20.47607422 331.36669922 C5.68352034 324.65975496 29.28763873 311.4153305 49 293 C50.42699219 291.69482422 50.42699219 291.69482422 51.8828125 290.36328125 C70.47590666 272.64422143 85.7183805 248.07842785 92.125 223.1875 C92.37725342 222.22900146 92.62950684 221.27050293 92.8894043 220.28295898 C93.60740271 217.52540865 94.30766872 214.76409209 95 212 C95.17837402 211.29842773 95.35674805 210.59685547 95.54052734 209.87402344 C97.77553321 200.94789637 98.71032405 192.18146809 99 183 C99.03254883 182.23333008 99.06509766 181.46666016 99.09863281 180.67675781 C100.7236649 139.49286386 86.04859258 100.00545985 58.5546875 69.390625 C45.01155405 54.76114395 28.87978214 44.43739341 11.25 35.375 C10.57026123 35.01970215 9.89052246 34.6644043 9.19018555 34.29833984 C7.49788252 33.45208099 5.75122768 32.71641132 4 32 C0.89200735 32.65546686 0.89200735 32.65546686 -0.07495117 34.99365234 C-0.39439697 35.84910645 -0.71384277 36.70456055 -1.04296875 37.5859375 C-1.39423828 38.51664063 -1.74550781 39.44734375 -2.10742188 40.40625 C-2.46384766 41.3859375 -2.82027344 42.365625 -3.1875 43.375 C-3.55552734 44.34695313 -3.92355469 45.31890625 -4.30273438 46.3203125 C-6.33854427 51.52317799 -6.33854427 51.52317799 -7 57 C-5.93523437 57.53367187 -4.87046875 58.06734375 -3.7734375 58.6171875 C11.26750378 66.28320439 23.85451035 75.3097386 36 87 C36.96486328 87.87011719 36.96486328 87.87011719 37.94921875 88.7578125 C58.2714054 107.61149615 70.09287753 139.00053926 71.12402344 166.28125 C71.76678669 195.80074764 71.76678669 195.80074764 68 208 C67.80664062 208.64050293 67.61328125 209.28100586 67.4140625 209.94091797 C60.52682714 232.30849021 49.54189862 251.57004851 34 269 C33.05060547 270.07701172 33.05060547 270.07701172 32.08203125 271.17578125 C10.11784077 294.59455388 -24.03560903 309.10829691 -55.875 310.34375 C-58.24977009 310.3892319 -60.62485424 310.42064223 -63 310.4375 C-64.64548828 310.4528479 -64.64548828 310.4528479 -66.32421875 310.46850586 C-74.21972289 310.38338394 -81.38957936 309.04478188 -89 307 C-89.86560547 306.77578369 -90.73121094 306.55156738 -91.62304688 306.32055664 C-114.31460637 300.2842544 -132.8549434 289.81846289 -151 275 C-151.78375 274.36578125 -152.5675 273.7315625 -153.375 273.078125 C-155 271 -155 271 -155.578125 268.13671875 C-154.80795843 263.95804472 -152.65043123 261.72400158 -149.75 258.8125 C-149.01330078 258.03229492 -149.01330078 258.03229492 -148.26171875 257.23632812 C-146.87618115 255.78982687 -145.43927566 254.39304195 -144 253 C-143.34515625 252.36449219 -142.6903125 251.72898437 -142.015625 251.07421875 C-140 250 -140 250 -137.04296875 250.0546875 C-133.49976318 251.15540091 -131.92091216 252.5121593 -129.3125 255.125 C-109.89168674 273.3374071 -83.55676214 280.7018231 -57.5 280.2578125 C-34.85594781 279.48157941 -12.21325848 270.66499671 5 256 C6.37865234 254.88044922 6.37865234 254.88044922 7.78515625 253.73828125 C25.21968716 238.90299124 34.99378194 218.9938552 40 197 C40.18546387 196.21665283 40.37092773 195.43330566 40.56201172 194.6262207 C46.64241663 167.14506863 38.09035591 141.48193382 24 118 C21.54464944 114.44178403 18.91217351 111.1912568 16 108 C15.484375 107.40445313 14.96875 106.80890625 14.4375 106.1953125 C6.03075101 97.07398984 -5.57540012 89.71552277 -17 85 C-17.66 85 -18.32 85 -19 85 C-19.32613281 85.85722656 -19.65226563 86.71445312 -19.98828125 87.59765625 C-20.42527344 88.74105469 -20.86226562 89.88445312 -21.3125 91.0625 C-21.99119141 92.84333984 -21.99119141 92.84333984 -22.68359375 94.66015625 C-23.6713209 97.16611089 -24.7136416 99.57465152 -25.875 102 C-27.15062628 105.40167007 -27.17673941 106.61225695 -26 110 C-23.8968633 111.74136494 -23.8968633 111.74136494 -21.1875 113.125 C-3.29162051 123.85321904 7.51852234 140.3665916 12.9375 160.3125 C14.64890536 168.80614141 14.40054714 177.38724992 14 186 C13.96519531 187.03769531 13.93039062 188.07539062 13.89453125 189.14453125 C12.3135605 205.16045231 2.42877784 220.2445455 -9 231 C-10.16738494 232.27017356 -11.33415042 233.54091704 -12.5 234.8125 C-16.78243344 239.0131686 -21.83660192 242.00236056 -27 245 C-28.2065625 245.71542969 -28.2065625 245.71542969 -29.4375 246.4453125 C-44.61817921 254.78469878 -66.35778677 256.06798666 -82.94287109 251.45996094 C-86.04076186 250.45437877 -89.00302813 249.28036313 -92 248 C-92.91394531 247.62746094 -93.82789063 247.25492188 -94.76953125 246.87109375 C-101.85964236 243.66658684 -107.99023189 238.88465171 -114 234 C-114.60972656 233.51789063 -115.21945312 233.03578125 -115.84765625 232.5390625 C-117 231 -117 231 -117.453125 228.66015625 C-116.82971896 225.00033288 -115.16070817 223.23314383 -112.75 220.4375 C-111.96109375 219.50808594 -111.1721875 218.57867188 -110.359375 217.62109375 C-109.58078125 216.75613281 -108.8021875 215.89117188 -108 215 C-107.04867187 213.84177734 -107.04867187 213.84177734 -106.078125 212.66015625 C-104 211 -104 211 -101.0546875 210.546875 C-97.52157663 211.07096817 -95.92288212 212.06673461 -93.125 214.25 C-80.923548 223.30505059 -68.95554301 225.3070122 -54 224 C-39.96022414 221.20112227 -28.18428796 212.36307353 -20.2890625 200.56640625 C-14.51828064 189.07730419 -13.4314619 174.0393609 -16.61962891 161.578125 C-19.74010232 153.08383065 -25.44658391 145.65148338 -32.625 140.1875 C-33.38039063 139.60355469 -34.13578125 139.01960937 -34.9140625 138.41796875 C-37.03707053 136.83663809 -37.03707053 136.83663809 -40 136 C-40.508783 137.55966218 -41.00663469 139.12289241 -41.5 140.6875 C-41.7784375 141.55761719 -42.056875 142.42773438 -42.34375 143.32421875 C-43.02731357 146.11136784 -43.38403006 148.15177706 -43 151 C-41.40756155 153.22768766 -41.40756155 153.22768766 -39.25 155.25 C-32.05316813 163.03380751 -30.19783177 169.53240817 -30.4765625 180.19921875 C-31.71029382 189.15758124 -36.70664961 197.0547591 -43.3125 203.125 C-50.98914599 208.48079953 -57.73376694 208.89038664 -67 208 C-75.22168876 206.26546651 -81.61599271 201.32891533 -87 195 C-88.79722664 191.76119843 -90.02087724 188.56548478 -91 185 C-91.185625 184.34644531 -91.37125 183.69289063 -91.5625 183.01953125 C-93.37630245 174.64688959 -91.87783366 168.16203181 -87.76953125 160.734375 C-83.7151455 154.46931975 -78.39290193 148.98669189 -71 147 C-66.64306619 146.69451384 -62.35873244 146.76080127 -58 147 C-57.62875 145.081875 -57.62875 145.081875 -57.25 143.125 C-56.52172824 139.87230273 -55.63372612 136.86939919 -54.35546875 133.79296875 C-52.43170427 129.08092466 -50.56564356 124.34951527 -48.72265625 119.60546875 C-48.42730988 118.84596924 -48.1319635 118.08646973 -47.82766724 117.30395508 C-47.21537681 115.72900792 -46.6033093 114.15397409 -45.99145508 112.57885742 C-45.06842302 110.2027473 -44.14462508 107.82693609 -43.22070312 105.45117188 C-42.61714051 103.89845576 -42.01362435 102.3457216 -41.41015625 100.79296875 C-41.11667297 100.0380867 -40.8231897 99.28320465 -40.52081299 98.50544739 C-39.18088348 95.05546988 -37.84596236 91.60382105 -36.52832031 88.14526367 C-36.09229492 87.00162354 -35.65626953 85.8579834 -35.20703125 84.6796875 C-34.83425049 83.69597168 -34.46146973 82.71225586 -34.07739258 81.69873047 C-33.0225819 79.05656478 -31.85782346 76.50074877 -30.625 73.9375 C-28.36881387 69.07695086 -26.60244675 64.12716267 -24.875 59.0625 C-20.36998493 45.86714078 -15.16313332 32.9484879 -10 20 C-9.62166016 19.04319336 -9.24332031 18.08638672 -8.85351562 17.10058594 C-8.50611328 16.2243457 -8.15871094 15.34810547 -7.80078125 14.4453125 C-7.50212158 13.69008301 -7.20346191 12.93485352 -6.89575195 12.15673828 C-3.15856728 3.15856728 -3.15856728 3.15856728 0 0 Z " fill="#A50D17" transform="translate(416,562)"/>
<path d="M0 0 C11.73165143 10.07186795 21.51175955 21.80045561 23.11083984 37.72338867 C24.16612577 56.94902192 20.47320757 71.15931744 8.26171875 86.38671875 C-0.83287441 96.42913551 -14.36565758 102.996219 -27.7578125 103.78515625 C-39.11931526 104.18391502 -49.02651868 104.05539574 -59.125 98.375 C-60.094375 97.84390625 -61.06375 97.3128125 -62.0625 96.765625 C-76.90790033 87.97133893 -86.02434836 74.60332575 -90.4375 58 C-93.5229768 41.80859316 -89.83147469 28.15429087 -81.3046875 14.44921875 C-72.71921452 1.88384028 -59.91357315 -6.56381226 -45.0625 -10.0625 C-29.12720409 -12.47935321 -13.00011833 -9.95927432 0 0 Z " fill="#FEFDFD" transform="translate(690.125,434.625)"/>
<path d="M0 0 C0 18.48 0 36.96 0 56 C-7.26 58.64 -14.52 61.28 -22 64 C-29.71015673 68.27023118 -29.71015673 68.27023118 -36.875 73.125 C-37.77992188 73.78757812 -38.68484375 74.45015625 -39.6171875 75.1328125 C-41.96703784 76.88830012 -41.96703784 76.88830012 -43.6953125 78.7421875 C-45 80 -45 80 -47 80 C-47.26683594 80.59167969 -47.53367187 81.18335938 -47.80859375 81.79296875 C-49.02053689 84.03804375 -50.29081898 85.49055853 -52.0625 87.3125 C-61.90920721 98.37205841 -68.91117913 112.37825394 -71 127 C-89.81 127 -108.62 127 -128 127 C-128 93.59968504 -109.5411274 62.6418192 -86.50976562 39.49755859 C-83.45885621 36.47131695 -80.39249406 33.63993376 -77 31 C-76.49984375 30.60393555 -75.9996875 30.20787109 -75.484375 29.79980469 C-55.90432725 14.4074621 -31.70464658 2.54728146 -6.5625 0.375 C-5.73878906 0.30023438 -4.91507813 0.22546875 -4.06640625 0.1484375 C-2 0 -2 0 0 0 Z " fill="#FEFCFC" transform="translate(641,337)"/>
<path d="M0 0 C1.04070145 0.00007553 2.08140289 0.00015106 3.15364075 0.00022888 C4.26527084 0.00539017 5.37690094 0.01055145 6.5222168 0.01586914 C8.24289619 0.01799156 8.24289619 0.01799156 9.99833679 0.02015686 C13.65606309 0.02574679 17.3137278 0.0382975 20.97143555 0.05102539 C23.45385654 0.05604169 25.93627849 0.06060437 28.41870117 0.06469727 C34.49880025 0.07571292 40.5788635 0.09244109 46.65893555 0.11352539 C46.89765381 1.15831055 47.13637207 2.2030957 47.38232422 3.27954102 C49.21994433 11.10691189 51.10574392 18.50084665 54.97143555 25.61352539 C55.39312012 26.39904785 55.81480469 27.18457031 56.24926758 27.99389648 C68.11952724 48.93025145 89.02626765 63.82109966 111.65893555 71.11352539 C113.63893555 71.44352539 115.61893555 71.77352539 117.65893555 72.11352539 C117.65893555 90.92352539 117.65893555 109.73352539 117.65893555 129.11352539 C100.41680652 127.78720777 86.52785826 123.19028288 71.09643555 115.80102539 C70.13286133 115.35307617 69.16928711 114.90512695 68.17651367 114.44360352 C59.70370253 110.4043065 51.94699127 105.50328207 45.03393555 99.11352539 C44.29788086 98.44063477 43.56182617 97.76774414 42.8034668 97.07446289 C42.09577148 96.42735352 41.38807617 95.78024414 40.65893555 95.11352539 C39.34861859 93.98598349 38.03616473 92.86091945 36.72143555 91.73852539 C28.23071376 84.27749353 20.99043742 76.4866311 14.65893555 67.11352539 C13.93963867 66.0887207 13.2203418 65.06391602 12.47924805 64.00805664 C5.83933175 54.33163723 1.15788898 43.92101636 -3.34106445 33.11352539 C-3.7594458 32.13851074 -3.7594458 32.13851074 -4.1862793 31.14379883 C-8.36737629 21.31003057 -9.53995609 11.65945943 -10.34106445 1.11352539 C-6.82953348 0.31449335 -3.59830339 -0.008755 0 0 Z " fill="#FEFDFD" transform="translate(522.341064453125,496.886474609375)"/>
<path d="M0 0 C18.48 0 36.96 0 56 0 C55.32625281 8.08496634 54.65895496 14.45990561 52.25 21.9375 C51.98050537 22.79867432 51.71101074 23.65984863 51.43334961 24.54711914 C47.68605079 36.35702255 43.2127079 47.2529628 37 58 C36.25169922 59.31871094 36.25169922 59.31871094 35.48828125 60.6640625 C24.04247143 79.75002244 8.33491139 94.69735383 -10 107 C-10.96550781 107.65097656 -11.93101562 108.30195312 -12.92578125 108.97265625 C-26.35998032 117.65553211 -40.47150072 122.52543653 -56 126 C-56.97042236 126.27142822 -56.97042236 126.27142822 -57.96044922 126.54833984 C-58.95262451 126.82411865 -58.95262451 126.82411865 -59.96484375 127.10546875 C-60.54741943 127.2758667 -61.12999512 127.44626465 -61.73022461 127.62182617 C-65.10922404 128.18481102 -68.57442135 128 -72 128 C-72 109.52 -72 91.04 -72 72 C-67.38 70.68 -62.76 69.36 -58 68 C-54.87188395 66.74875358 -51.98420952 65.50797821 -49 64 C-48.12859375 63.58105469 -47.2571875 63.16210938 -46.359375 62.73046875 C-39.20134389 59.10146695 -33.73082945 54.57212956 -28 49 C-27.07960938 48.1646875 -26.15921875 47.329375 -25.2109375 46.46875 C-11.93983685 34.03851799 -4.92485665 17.23699829 0 0 Z " fill="#FEFDFD" transform="translate(745,497)"/>
<path d="M0 0 C8.67579582 0.50640658 16.13161848 2.10942253 24.296875 5.01953125 C25.50730469 5.40753906 26.71773437 5.79554688 27.96484375 6.1953125 C59.93972343 16.81842538 87.10530143 41.54921588 104.296875 70.01953125 C104.72822754 70.72932129 105.15958008 71.43911133 105.60400391 72.17041016 C114.97236764 87.89469557 122.296875 106.59750044 122.296875 125.01953125 C103.816875 125.01953125 85.336875 125.01953125 66.296875 125.01953125 C64.646875 119.40953125 62.996875 113.79953125 61.296875 108.01953125 C54.76343867 93.92106338 45.79439921 81.48267715 33.296875 72.01953125 C32.64976562 71.52453125 32.00265625 71.02953125 31.3359375 70.51953125 C21.82725349 63.73266385 10.73225786 59.16692614 -0.41015625 55.84375 C-2.703125 55.01953125 -2.703125 55.01953125 -4.703125 53.01953125 C-4.86640189 50.49034766 -4.90831598 48.07744589 -4.85546875 45.55078125 C-4.84716537 44.79704224 -4.838862 44.04330322 -4.83030701 43.26672363 C-4.79968728 40.85064479 -4.75310063 38.43528195 -4.703125 36.01953125 C-4.68904602 35.24528809 -4.67496704 34.47104492 -4.66046143 33.67333984 C-4.57517643 29.06089379 -4.46280133 24.44971479 -4.33081055 19.83837891 C-4.26409995 17.46528043 -4.20524876 15.09205715 -4.14648438 12.71875 C-4.10463794 11.20441399 -4.06233876 9.6900904 -4.01953125 8.17578125 C-4.00281876 7.46869019 -3.98610626 6.76159912 -3.96888733 6.03308105 C-3.78339708 0.02733668 -3.78339708 0.02733668 0 0 Z " fill="#FEFDFD" transform="translate(677.703125,338.98046875)"/>
</svg>
