<svg xmlns="http://www.w3.org/2000/svg" width="1024" height="1024"><path fill="#fefefe" d="M516 33c7.287 3.223 13.578 8.053 19.803 12.961 4.36 3.435 8.837 6.67 13.385 9.852a1409 1409 0 0 1 17.75 12.624l2.26 1.636 4.536 3.286c3.752 2.717 7.51 5.429 11.266 8.141l4.5 3.25 2.25 1.625 27 19.5 4.498 3.248q5.647 4.077 11.287 8.162c7.27 5.264 14.556 10.497 21.903 15.653 6.902 4.846 13.697 9.828 20.474 14.849 5.859 4.331 11.782 8.56 17.746 12.746 7.41 5.204 14.744 10.513 22.076 15.826 3.752 2.717 7.51 5.429 11.266 8.141l4.5 3.25 2.25 1.625 63.001 45.5q2.245 1.623 4.49 3.243 5.7 4.117 11.4 8.237A3748 3748 0 0 0 834 261c7.587 5.408 15.136 10.867 22.686 16.327q5.656 4.089 11.314 8.173l4.5 3.25 2.25 1.625 27.001 19.5q2.245 1.623 4.49 3.243 5.7 4.117 11.4 8.237A3748 3748 0 0 0 938 336c7.587 5.408 15.136 10.867 22.686 16.327a18675 18675 0 0 0 13.543 9.784q5.788 4.183 11.587 8.35a2176 2176 0 0 1 11.308 8.185 298 298 0 0 0 4.794 3.374c6.602 4.721 11.56 10.933 13.27 19.043.12 4.326-.96 8.152-2.211 12.25l-.669 2.226c-2.857 9.418-5.953 18.76-9.035 28.105q-2.84 8.62-5.664 17.247l-1.17 3.568c-3.89 11.892-7.702 23.808-11.501 35.729a6826 6826 0 0 1-17.204 53.16 3271 3271 0 0 0-12.984 40.465 1799 1799 0 0 1-11.5 35.437c-4.778 14.209-9.387 28.467-13.937 42.75a6382 6382 0 0 1-16.813 52 6894 6894 0 0 0-17.557 54.307A6187 6187 0 0 1 880 824.5c-5.4 16.48-10.73 32.979-16 49.5a7757 7757 0 0 1-21.253 65.601 1728 1728 0 0 0-5.212 16.13c-.984 3.092-1.98 6.18-2.978 9.268a495 495 0 0 0-1.32 4.178c-2.737 8.793-5.131 15.76-13.362 20.698-3.854 1.508-7.084 2.25-11.223 2.253l-2.636.009-2.888-.006-3.086.007q-5.162.006-10.323.002l-7.443.01q-9.181.01-18.363.01-10.995.002-21.99.014c-17.716.016-35.433.022-53.149.027q-12.568.003-25.137.01a262743 262743 0 0 1-107.701.03h-2.72c-29.116.003-58.232.02-87.347.042a121461 121461 0 0 1-102.452.04h-2.52q-20.087.005-40.175.027-20.182.022-40.366.01-11.996-.007-23.99.015c-5.967.011-11.934.006-17.901-.005q-3.626-.002-7.252.01c-3.28.011-6.559.004-9.838-.008l-2.86.023c-7.778-.062-15.008-1.751-20.882-7.198-2.124-2.858-3.164-5.688-4.383-9.037l-.77-2.109c-3.506-9.733-6.668-19.585-9.855-29.426l-2.105-6.473c-5.225-16.076-10.38-32.174-15.517-48.278A6272 6272 0 0 0 150 843.5a7043 7043 0 0 1-17-52.635 6277 6277 0 0 0-15-46.365 6996 6996 0 0 1-16.996-52.623 6610 6610 0 0 0-16.267-50.219 3562 3562 0 0 1-13.855-43.216c-3.117-9.93-6.31-19.828-9.632-29.692-4.364-12.958-8.537-25.972-12.687-39a6468 6468 0 0 0-17.144-52.999l-3.662-11.168a8969 8969 0 0 0-9.53-28.956 3941 3941 0 0 1-3.147-9.551q-.69-2.096-1.392-4.189C7.162 403.402 7.162 403.402 12 393c3.777-6.128 8.351-10.173 14.25-14.187l4.828-3.387 2.479-1.72c3.849-2.687 7.644-5.448 11.443-8.206l4.5-3.25 2.25-1.625 78.75-56.875 2.25-1.625 4.498-3.248q5.647-4.077 11.287-8.162c7.27-5.264 14.556-10.497 21.903-15.652 6.083-4.272 12.09-8.638 18.062-13.063a968 968 0 0 1 20.158-14.533c7.41-5.204 14.744-10.513 22.076-15.826 3.752-2.717 7.51-5.429 11.266-8.141l4.5-3.25 63-45.5 2.251-1.626 4.49-3.242q5.7-4.117 11.4-8.237a4057 4057 0 0 1 22.04-15.844c7.025-5.01 14.013-10.072 21.005-15.128q6.776-4.897 13.554-9.79 5.702-4.118 11.4-8.238A4057 4057 0 0 1 417.683 96.8c7.024-5.01 14.012-10.072 21.004-15.128Q444.342 77.584 450 73.5l4.5-3.25 9-6.5 6.735-4.862q5.767-4.159 11.511-8.349C507.906 31.482 507.906 31.482 516 33"/><path fill="#a50b15" d="M516 33c7.287 3.223 13.578 8.053 19.803 12.961 4.36 3.435 8.837 6.67 13.385 9.852a1409 1409 0 0 1 17.75 12.624l2.26 1.636 4.536 3.286c3.752 2.717 7.51 5.429 11.266 8.141l4.5 3.25 2.25 1.625 27 19.5 4.498 3.248q5.647 4.077 11.287 8.162c7.27 5.264 14.556 10.497 21.903 15.653 6.902 4.846 13.697 9.828 20.474 14.849 5.859 4.331 11.782 8.56 17.746 12.746 7.41 5.204 14.744 10.513 22.076 15.826 3.752 2.717 7.51 5.429 11.266 8.141l4.5 3.25 2.25 1.625 63.001 45.5q2.245 1.623 4.49 3.243 5.7 4.117 11.4 8.237A3748 3748 0 0 0 834 261c7.587 5.408 15.136 10.867 22.686 16.327q5.656 4.089 11.314 8.173l4.5 3.25 2.25 1.625 27.001 19.5q2.245 1.623 4.49 3.243 5.7 4.117 11.4 8.237A3748 3748 0 0 0 938 336c7.587 5.408 15.136 10.867 22.686 16.327a18675 18675 0 0 0 13.543 9.784q5.788 4.183 11.587 8.35a2176 2176 0 0 1 11.308 8.185 298 298 0 0 0 4.794 3.374c6.602 4.721 11.56 10.933 13.27 19.043.12 4.326-.96 8.152-2.211 12.25l-.669 2.226c-2.857 9.418-5.953 18.76-9.035 28.105q-2.84 8.62-5.664 17.247l-1.17 3.568c-3.89 11.892-7.702 23.808-11.501 35.729a6826 6826 0 0 1-17.204 53.16 3271 3271 0 0 0-12.984 40.465 1799 1799 0 0 1-11.5 35.437c-4.778 14.209-9.387 28.467-13.937 42.75a6382 6382 0 0 1-16.813 52 6894 6894 0 0 0-17.557 54.307A6187 6187 0 0 1 880 824.5c-5.4 16.48-10.73 32.979-16 49.5a7757 7757 0 0 1-21.253 65.601 1728 1728 0 0 0-5.212 16.13c-.984 3.092-1.98 6.18-2.978 9.268a495 495 0 0 0-1.32 4.178c-2.737 8.793-5.131 15.76-13.362 20.698-3.854 1.508-7.084 2.25-11.223 2.253l-2.636.009-2.888-.006-3.086.007q-5.162.006-10.323.002l-7.443.01q-9.181.01-18.363.01-10.995.002-21.99.014c-17.716.016-35.433.022-53.149.027q-12.568.003-25.137.01a262743 262743 0 0 1-107.701.03h-2.72c-29.116.003-58.232.02-87.347.042a121461 121461 0 0 1-102.452.04h-2.52q-20.087.005-40.175.027-20.182.022-40.366.01-11.996-.007-23.99.015c-5.967.011-11.934.006-17.901-.005q-3.626-.002-7.252.01c-3.28.011-6.559.004-9.838-.008l-2.86.023c-7.778-.062-15.008-1.751-20.882-7.198-2.124-2.858-3.164-5.688-4.383-9.037l-.77-2.109c-3.506-9.733-6.668-19.585-9.855-29.426l-2.105-6.473c-5.225-16.076-10.38-32.174-15.517-48.278A6272 6272 0 0 0 150 843.5a7043 7043 0 0 1-17-52.635 6277 6277 0 0 0-15-46.365 6996 6996 0 0 1-16.996-52.623 6610 6610 0 0 0-16.267-50.219 3562 3562 0 0 1-13.855-43.216c-3.117-9.93-6.31-19.828-9.632-29.692-4.364-12.958-8.537-25.972-12.687-39a6468 6468 0 0 0-17.144-52.999l-3.662-11.168a8969 8969 0 0 0-9.53-28.956 3941 3941 0 0 1-3.147-9.551q-.69-2.096-1.392-4.189C7.162 403.402 7.162 403.402 12 393c3.777-6.128 8.351-10.173 14.25-14.187l4.828-3.387 2.479-1.72c3.849-2.687 7.644-5.448 11.443-8.206l4.5-3.25 2.25-1.625 78.75-56.875 2.25-1.625 4.498-3.248q5.647-4.077 11.287-8.162c7.27-5.264 14.556-10.497 21.903-15.652 6.083-4.272 12.09-8.638 18.062-13.063a968 968 0 0 1 20.158-14.533c7.41-5.204 14.744-10.513 22.076-15.826 3.752-2.717 7.51-5.429 11.266-8.141l4.5-3.25 63-45.5 2.251-1.626 4.49-3.242q5.7-4.117 11.4-8.237a4057 4057 0 0 1 22.04-15.844c7.025-5.01 14.013-10.072 21.005-15.128q6.776-4.897 13.554-9.79 5.702-4.118 11.4-8.238A4057 4057 0 0 1 417.683 96.8c7.024-5.01 14.012-10.072 21.004-15.128Q444.342 77.584 450 73.5l4.5-3.25 9-6.5 6.735-4.862q5.767-4.159 11.511-8.349C507.906 31.482 507.906 31.482 516 33m-13.125 53.188a2567 2567 0 0 1-4.312 3.316l-2.266 1.746c-3.757 2.862-7.587 5.62-11.422 8.375l-2.301 1.657a4444 4444 0 0 1-15.255 10.916c-7.025 5.011-14.013 10.073-21.005 15.129q-6.776 4.897-13.554 9.79-5.702 4.118-11.4 8.238a4057 4057 0 0 1-22.042 15.844c-7.024 5.01-14.012 10.072-21.004 15.128q-6.776 4.897-13.554 9.79-5.702 4.118-11.4 8.238a4057 4057 0 0 1-22.042 15.844c-7.024 5.01-14.012 10.072-21.004 15.128q-6.776 4.897-13.554 9.79-5.701 4.118-11.4 8.238a4057 4057 0 0 1-22.042 15.844c-7.024 5.01-14.012 10.072-21.004 15.128q-5.656 4.089-11.314 8.173l-4.5 3.25-27 19.5-2.251 1.626-4.49 3.242q-5.7 4.117-11.4 8.237a4057 4057 0 0 1-22.04 15.844c-7.025 5.01-14.013 10.072-21.005 15.128q-6.775 4.897-13.554 9.79-5.702 4.118-11.4 8.238a3978 3978 0 0 1-22.033 15.837c-5.556 3.963-11.085 7.964-16.616 11.963A3649 3649 0 0 1 54 410c1.937 8.27 4.313 16.28 7.063 24.313q1.21 3.585 2.417 7.171l1.26 3.74c2.09 6.265 4.115 12.551 6.135 18.839l1.254 3.898q1.282 3.982 2.562 7.966a16310 16310 0 0 0 7.432 23.07 3203 3203 0 0 0 12.174 36.856 776 776 0 0 1 6.772 21.13c1.399 4.532 2.912 9.024 4.431 13.517 2.255 6.717 4.444 13.443 6.504 20.223 4.59 15.102 9.565 30.072 14.594 45.033 2.545 7.585 5.036 15.18 7.405 22.821 2.783 8.98 5.65 17.931 8.508 26.887l2.962 9.292c3.066 9.616 6.16 19.22 9.373 28.789 1.85 5.54 3.64 11.1 5.432 16.658q1.775 5.505 3.554 11.008l.764 2.365c2.86 8.844 5.742 17.682 8.623 26.52a10131 10131 0 0 1 15.745 48.672 22665 22665 0 0 0 6.524 20.32c3.435 10.684 6.889 21.362 10.346 32.038a11259 11259 0 0 1 8.783 27.22l1.258 3.91c2.948 9.163 5.947 18.308 9.058 27.417.39 1.156.39 1.156.79 2.335l.68 1.989c.684 2.294 1.127 4.655 1.597 7.003h568l5-17a1337 1337 0 0 1 3.938-12.437c.345-1.076.69-2.152 1.047-3.26q3.2-9.93 6.526-19.818c3.87-11.559 7.577-23.172 11.32-34.772q2.376-7.359 4.763-14.713c4.184-12.902 8.35-25.81 12.48-38.73l1.075-3.361q2.644-8.27 5.281-16.54c3.088-9.672 6.199-19.332 9.43-28.958 2.026-6.06 3.988-12.142 5.952-18.223l.68-2.1c3.214-9.933 6.4-19.875 9.57-29.822l2.13-6.677a10830 10830 0 0 0 4.15-13.04c3.091-9.71 6.211-19.398 9.696-28.977 1.681-4.642 3.111-9.326 4.462-14.072a260 260 0 0 1 5.5-17 250 250 0 0 0 5.438-16.812c2.044-7.188 4.46-14.204 6.974-21.24 2.134-6.021 3.999-12.08 5.744-18.225 1.433-4.98 3.08-9.851 4.844-14.723a256 256 0 0 0 5.438-16.75 413 413 0 0 1 5.687-18.187c3.132-9.29 6.175-18.608 9.188-27.938l.713-2.208a29459 29459 0 0 0 6.252-19.381l.619-1.918 1.831-5.678q1.206-3.74 2.407-7.482c2.085-6.483 4.191-12.959 6.334-19.424 1.134-3.421 2.26-6.845 3.388-10.27q.825-2.5 1.663-5c.776-2.32 1.541-4.643 2.304-6.967l.715-2.107c1.335-4.055 1.335-4.055.461-8.19-1.68-1.452-1.68-1.452-3.797-2.785l-2.385-1.592-2.568-1.685c-6.862-4.593-13.466-9.329-19.965-14.422-4.434-3.439-9.045-6.628-13.64-9.847a1256 1256 0 0 1-15.582-11.106l-2.261-1.636-4.536-3.286c-3.752-2.717-7.51-5.429-11.266-8.141l-4.5-3.25-2.25-1.625-27.001-19.5q-2.245-1.623-4.49-3.243-5.7-4.117-11.4-8.237A3748 3748 0 0 0 823 304c-7.587-5.408-15.136-10.867-22.686-16.327q-5.656-4.089-11.314-8.173l-4.5-3.25-2.25-1.625-9.001-6.5q-2.245-1.623-4.49-3.243-5.7-4.117-11.4-8.237A3748 3748 0 0 0 737 242c-7.587-5.408-15.136-10.867-22.686-16.327q-5.656-4.089-11.314-8.173-6.822-4.925-13.64-9.855A3748 3748 0 0 0 669 193c-7.587-5.408-15.136-10.867-22.686-16.327q-5.656-4.089-11.314-8.173l-4.5-3.25-2.25-1.625-9.001-6.5q-2.245-1.623-4.49-3.243-5.7-4.117-11.4-8.237A3748 3748 0 0 0 583 131c-7.587-5.408-15.136-10.867-22.686-16.327a19316 19316 0 0 0-13.541-9.782 11374 11374 0 0 0-14.046-10.133l-4.54-3.27-2.101-1.515-2.044-1.469q-2.13-1.57-4.201-3.215l-2.114-1.668-1.88-1.522c-5.298-3.154-8.945.903-12.972 4.088"/><path fill="#a50c16" d="M649.82 207.77h1.998q2.085.006 4.17.024c2.136.018 4.271.02 6.407.02 10.458.039 10.458.039 11.605 1.186.125 2.982.186 5.942.205 8.926l.03 2.838q.047 4.666.081 9.334l.063 6.452q.083 8.51.153 17.02.077 8.678.161 17.354.162 17.038.307 34.076l2.928.186c1.265.085 2.53.17 3.833.256l3.804.249c3.701.333 6.918 1.122 10.435 2.309q2.135.539 4.277 1.043c10.84 2.637 20.638 6.228 30.723 10.957l3.441 1.422c4.093 1.815 7.897 3.927 11.746 6.203l2.255 1.332c6.547 3.93 12.59 8.272 18.558 13.043l2.828 2.21C780.14 352.42 788.922 361.603 797 372l1.285 1.61C814.743 394.328 825.56 419.176 831 445l.68 3.148c1.082 5.41 1.347 10.345 1.32 15.852l3.03-.007q14.106-.03 28.21-.045 7.252-.007 14.505-.023 6.993-.016 13.986-.02 2.673-.003 5.348-.01 3.732-.01 7.464-.009l2.256-.01c5.087.01 5.087.01 6.201 1.124.088 2.292.107 4.586.098 6.879l-.005 2.08a2051 2051 0 0 1-.03 6.603q-.008 2.234-.014 4.467-.017 5.486-.049 10.971c-3.028 1.514-6.159 1.13-9.479 1.114h-2.336c-2.554 0-5.108-.009-7.662-.016l-5.305-.005q-6.988-.006-13.977-.024-7.128-.014-14.257-.02-13.992-.016-27.984-.049l-.187 2.871-.256 3.789-.25 3.746c-.412 4.826-1.265 9.447-2.37 14.156l-.653 2.812C824.372 544.463 815.72 563.954 804 581l-1.793 2.625C782.929 610.972 757.749 631.753 727 645l-2.469 1.168c-6.292 2.975-12.856 4.9-19.531 6.832l-2.785.848c-9.587 2.81-19.23 4.215-29.215 4.152l.013 3.441q.06 16.026.09 32.05.015 8.24.048 16.479.032 7.945.039 15.892.005 3.037.021 6.074c.015 2.828.017 5.655.016 8.483l.022 2.557c-.02 5.796-.02 5.796-2.249 8.024h-31l-1-92-19-3c-11.046-2.104-20.386-4.607-30.473-9.355a96 96 0 0 0-8.465-3.457C563.148 636.094 546.739 623.285 533 610l-2.742-2.602C528 605 528 605 527 602h-2a128 128 0 0 1-5.125-6.312l-1.487-1.927A976 976 0 0 1 514 588l-2.328-3.062c-3.429-4.607-6.616-9.206-9.277-14.297a156 156 0 0 0-3.383-6.032c-6.964-12.119-11.1-24.97-15.215-38.287-.584-2.256-.584-2.256-1.797-3.322a201 201 0 0 1-1.562-7.562c-.14-.692-.278-1.384-.42-2.096l-.397-2.096-.361-1.885c-.38-3.457-.275-6.883-.26-10.361l-2.948.02q-13.729.09-27.458.135c-4.706.016-9.412.037-14.118.071-4.539.033-9.077.05-13.616.059q-2.601.008-5.203.032c-2.424.022-4.846.025-7.27.024l-2.188.032c-1.997-.012-1.997-.012-5.199-.373-2.465-3.697-2.258-5.594-2.266-10.004l-.005-2.058a634 634 0 0 1 .01-4.3c.011-2.196 0-4.392-.012-6.59q0-2.088.007-4.177l.007-3.846C399 465 399 465 401 463c2.531-.234 2.531-.234 5.772-.211l3.675.01 4.002.04q2.061.01 4.121.017 5.45.021 10.897.065 8.65.063 17.3.096 2.99.016 5.98.045c8.803.046 17.481-.367 26.253-1.062l.55-3.734c3.355-22.315 9.752-42.371 20.45-62.266l.94-1.79c7.837-14.874 17.797-27.286 29.623-39.21l2.612-2.643C539.04 346.57 545.242 341.7 552 337q2.284-1.684 4.563-3.375c17.186-11.93 35.844-20.28 56.152-25.05a98 98 0 0 0 5.37-1.54c4.235-1.216 8.48-1.703 12.852-2.16l2.362-.262q2.85-.313 5.701-.613l.018-3.555q.086-16.555.218-33.11.07-8.51.11-17.023.04-8.21.117-16.417.025-3.137.035-6.275c.01-2.922.037-5.843.07-8.764l-.005-2.642c.038-2.405.038-2.405.437-6.214 3.665-2.443 5.456-2.245 9.82-2.23"/><path fill="#a50d17" d="M416 562c6.668.359 13.16 3.486 19.188 6.125l2.787 1.213C466.245 581.86 490.763 602.096 509 627l1.478 2.015C519.305 641.233 525.982 654.201 532 668l.878 1.998c8.554 19.96 11.514 43.843 11.383 65.409-.011 2.092 0 4.184.012 6.277.01 9.27-.822 18.145-2.273 27.316l-.378 2.597C538.242 793.994 530.098 815.878 518 835l-1.234 1.992C510.94 846.347 504.36 854.811 497 863l-1.642 1.845c-29.973 33.534-72.956 58.063-118.435 61.38-6.25.265-12.494.261-18.749.187-3.2-.037-6.4-.041-9.6-.04-14.269-.049-27.69-1.01-41.512-4.81l-2.376-.619C299.9 919.66 295.522 918.016 291 916q-2.81-1.008-5.625-2c-20.05-7.7-37.033-19.268-53.375-33l-1.941-1.566c-3.612-2.915-5.808-4.924-6.594-9.653.755-5.334 3.317-7.635 7.097-11.281l1.846-1.953c3.25-3.22 4.639-4.52 9.346-4.656 3.273 1.118 4.467 1.757 6.621 4.359 25.868 27.537 64.905 40.57 101.914 42.129 14.672.36 28.504-.695 42.711-4.379l2.524-.633C421.684 886.66 445.288 873.415 465 855l2.883-2.637c18.593-17.719 33.835-42.285 40.242-67.176l.764-2.904A920 920 0 0 0 511 774l.54-2.126c2.236-8.926 3.17-17.693 3.46-26.874l.099-2.323c1.625-41.184-13.05-80.672-40.544-111.286-13.543-14.63-29.675-24.954-47.305-34.016l-2.06-1.077c-1.692-.846-3.439-1.582-5.19-2.298-3.108.655-3.108.655-4.075 2.994l-.968 2.592-1.064 2.82-1.08 2.969-1.116 2.945c-2.036 5.203-2.036 5.203-2.697 10.68l3.227 1.617C427.267 628.283 439.855 637.31 452 649l1.95 1.758C474.27 669.61 486.092 701 487.123 728.28c.643 29.52.643 29.52-3.124 41.719l-.586 1.94C476.527 794.309 465.542 813.57 450 831l-1.918 2.176c-21.964 23.419-56.118 37.932-87.957 39.168q-3.562.068-7.125.093l-3.324.032c-7.896-.086-15.066-1.424-22.676-3.469l-2.623-.68C301.685 862.285 283.145 851.819 265 837l-2.375-1.922C261 833 261 833 260.422 830.137c.77-4.179 2.928-6.413 5.828-9.324l1.488-1.577c1.386-1.446 2.823-2.843 4.262-4.236l1.984-1.926C276 812 276 812 278.957 812.054c3.543 1.101 5.122 2.458 7.73 5.071 19.421 18.212 45.756 25.577 71.813 25.133 22.644-.776 45.287-9.593 62.5-24.258l2.785-2.262C441.22 800.903 450.994 780.994 456 759l.562-2.374c6.08-27.48-2.472-53.144-16.562-76.626-2.455-3.558-5.088-6.809-8-10l-1.562-1.805C422.03 659.074 410.425 651.715 399 647h-2l-.988 2.598-1.325 3.465-1.37 3.597a112 112 0 0 1-3.192 7.34c-1.276 3.402-1.302 4.612-.125 8 2.103 1.741 2.103 1.741 4.813 3.125 17.895 10.728 28.706 27.242 34.125 47.188 1.71 8.493 1.463 17.074 1.062 25.687l-.105 3.145C428.314 767.16 418.429 782.245 407 793q-1.75 1.904-3.5 3.813c-4.282 4.2-9.337 7.19-14.5 10.187l-2.437 1.445c-15.181 8.34-36.92 9.623-53.506 5.015-3.098-1.006-6.06-2.18-9.057-3.46l-2.77-1.129c-7.09-3.204-13.22-7.986-19.23-12.871l-1.848-1.46C299 793 299 793 298.547 790.66c.623-3.66 2.292-5.427 4.703-8.222l2.39-2.817L308 777l1.922-2.34C312 773 312 773 314.945 772.547c3.533.524 5.132 1.52 7.93 3.703 12.201 9.055 24.17 11.057 39.125 9.75 14.04-2.799 25.816-11.637 33.71-23.434 5.772-11.489 6.859-26.527 3.67-38.988-3.12-8.494-8.827-15.927-16.005-21.39l-2.29-1.77c-2.122-1.581-2.122-1.581-5.085-2.418a499 499 0 0 0-1.5 4.688l-.844 2.636c-.683 2.787-1.04 4.828-.656 7.676 1.592 2.228 1.592 2.228 3.75 4.25 7.197 7.784 9.052 14.282 8.773 24.95-1.233 8.958-6.23 16.855-12.836 22.925-7.676 5.356-14.42 5.765-23.687 4.875-8.222-1.735-14.616-6.671-20-13-1.797-3.239-3.02-6.435-4-10l-.562-1.98c-1.814-8.373-.316-14.858 3.792-22.286 4.055-6.265 9.377-11.747 16.77-13.734 4.357-.305 8.641-.24 13 0l.75-3.875c.728-3.253 1.616-6.256 2.895-9.332a894 894 0 0 0 5.632-14.188l.895-2.301 1.837-4.725 4.58-11.786.89-2.288c1.34-3.45 2.675-6.901 3.993-10.36l1.321-3.465 1.13-2.981c1.054-2.642 2.22-5.198 3.452-7.761 2.256-4.861 4.023-9.81 5.75-14.875C395.63 607.867 400.837 594.948 406 582l1.146-2.9 1.053-2.655.905-2.288c3.737-8.998 3.737-8.998 6.896-12.157"/><path fill="#fefdfd" d="M690.125 434.625c11.732 10.072 21.512 21.8 23.11 37.723 1.056 19.226-2.637 33.436-14.848 48.664-9.095 10.042-22.628 16.61-36.02 17.398-11.361.399-21.269.27-31.367-5.41l-2.937-1.61c-14.846-8.794-23.962-22.162-28.375-38.765-3.086-16.191.606-29.846 9.132-43.55 8.586-12.566 21.391-21.014 36.242-24.512 15.936-2.417 32.063.103 45.063 10.062"/><path fill="#fefcfc" d="M641 337v56l-22 8c-7.71 4.27-7.71 4.27-14.875 9.125l-2.742 2.008c-2.35 1.755-2.35 1.755-4.078 3.61C596 417 596 417 594 417l-.809 1.793c-1.212 2.245-2.482 3.698-4.254 5.52C579.092 435.373 572.09 449.378 570 464h-57c0-33.4 18.459-64.358 41.49-87.502 3.051-3.027 6.118-5.858 9.51-8.498l1.516-1.2c19.58-15.393 43.78-27.253 68.922-29.425l2.496-.227C639 337 639 337 641 337"/><path fill="#fefdfd" d="M522.341 496.886h3.154l3.368.016 3.476.005c3.658.005 7.316.018 10.974.03q3.723.008 7.447.014 9.12.017 18.24.049l.723 3.166c1.838 7.827 3.724 15.221 7.59 22.334l1.277 2.38c11.87 20.937 32.777 35.828 55.41 43.12l6 1v57c-17.242-1.326-31.131-5.923-46.562-13.313l-2.92-1.357c-8.473-4.04-16.23-8.94-23.143-15.33l-2.23-2.04L563 592q-1.966-1.692-3.937-3.375C550.572 581.164 543.332 573.373 537 564l-2.18-3.105C528.18 551.218 523.5 540.807 519 530l-.845-1.97c-4.181-9.833-5.354-19.484-6.155-30.03 3.512-.799 6.743-1.122 10.341-1.114M745 497h56c-.674 8.085-1.341 14.46-3.75 21.938l-.817 2.61c-3.747 11.809-8.22 22.705-14.433 33.452l-1.512 2.664C769.042 576.75 753.335 591.697 735 604l-2.926 1.973C718.64 614.656 704.528 619.525 689 623l-1.96.548-2.005.557-1.765.517c-3.38.563-6.844.378-10.27.378v-56l14-4c3.128-1.251 6.016-2.492 9-4l2.64-1.27c7.159-3.629 12.63-8.158 18.36-13.73l2.79-2.531c13.27-12.43 20.285-29.232 25.21-46.469M677.703 338.98c8.676.507 16.132 2.11 24.297 5.02l3.668 1.176C737.643 355.799 764.808 380.53 782 409l1.307 2.15C792.675 426.876 800 445.579 800 464h-56l-5-17c-6.533-14.098-15.502-26.537-28-36l-1.96-1.5c-9.51-6.787-20.605-11.353-31.747-14.676C675 394 675 394 673 392a86 86 0 0 1-.152-7.469l.025-2.284c.03-2.416.077-4.831.127-7.247l.043-2.346q.129-6.919.33-13.835.097-3.56.184-7.12.062-2.27.127-4.543l.05-2.142c.186-6.006.186-6.006 3.97-6.034"/></svg>