<svg xmlns="http://www.w3.org/2000/svg" width="1024" height="1024"><path fill="#a60b13" d="M511 199h3c3.071 10.162 5.48 20.358 7.625 30.75l.906 4.324a1957 1957 0 0 1 4.026 19.703c.755 3.787 1.532 7.568 2.318 11.348l.45 2.203c1.054 5.061 2.265 10.075 3.534 15.086 2.338 9.242 4.436 18.533 6.516 27.836l.59 2.632c4.423 19.728 8.76 39.47 12.638 59.313A256 256 0 0 0 556 386.938c1.836 7.112 3.23 14.264 4.57 21.484A372 372 0 0 0 565 429l.485 2.013a1771 1771 0 0 0 1.577 6.487l.493 2.034c.899 3.62 1.963 7.042 3.445 10.466 3.196-1.065 5.702-2.434 8.375-4.437 2.387-1.778 4.61-3.086 7.375-4.188 3.137-1.068 3.137-1.068 4.535-2.75 2.454-2.326 5.378-3.57 8.403-5 4.134-1.998 8.152-4.043 12-6.562C615 425 615 425 618 425v-2h3l1-3c1.934-1.176 1.934-1.176 4.438-2.312 6.445-3.062 12.527-6.6 18.406-10.645 3.369-2.18 6.793-3.938 10.406-5.668 4.707-2.18 4.707-2.18 8.75-5.375h3l1-3c1.689-.762 3.383-1.514 5.11-2.187 2.867-1.233 5.306-3.073 7.89-4.813a135 135 0 0 1 3.605-1.809c4.668-2.302 9.22-4.79 13.77-7.316l2.441-1.34 2.332-1.293 2.1-1.16c1.91-1.087 1.91-1.087 3.752-3.082h3v-2q2.934-1.507 5.875-3l3.305-1.687C724 362 724 362 726 362v-2c2.75-1.916 5.45-3.181 8.563-4.437 3.421-1.313 3.421-1.313 5.437-3.563 2.658-2.658 5.543-3.57 9-5l3.188-2.187C755 343 755 343 759 343v-3q2.467-.29 4.938-.562l2.777-.317L769 339c1 1 1 1 1.375 3.5-.53 4.95-2.79 8.32-5.375 12.5l-1.375 2.355c-2.48 4.17-2.48 4.17-3.625 5.645h-2l-.328 2.168c-1.202 5.067-4.08 9.357-6.672 13.832l-1.437 2.492c-2.458 4.111-2.458 4.111-3.563 5.508h-2l-.312 2.125c-1.16 4.846-3.105 8.454-6.688 11.875l-1 3h-2l-.355 2.207c-.653 2.828-1.566 4.943-2.957 7.48-.41.767-.818 1.534-1.239 2.325-1.63 2.237-3.008 2.798-5.449 3.988-.39 1.99-.719 3.992-1 6-1.437 2.375-1.437 2.375-3 4h-2l-1 5-3 1v5l-3 1c-1.225 3.008-1.225 3.008-2 6h-2l-.75 2c-2.25 5.401-4.684 10.349-8.25 15l-1.312 2.688c-2.199 4.315-4.662 8.52-7.688 12.312h-2v3h-2l-.25 2.188c-.904 3.39-2.532 5.124-4.75 7.812-1.24 2.68-1.24 2.68-2 5h-2v3h-2l-2 6h-2l-.375 2.313C669 512 669 512 667 515h-2l-.412 1.77c-.908 3.442-2.31 6.69-3.65 9.98l-.854 2.113A2476 2476 0 0 1 658 534c.597.05 1.194.1 1.81.15 6.397.58 12.637 1.56 18.94 2.788l2.746.513c4.654.894 9.011 2.027 13.504 3.549 2.963.707 5.947 1.293 8.938 1.875l2.609.517c7.75 1.516 15.527 2.862 23.322 4.125 4.614.77 9.077 1.702 13.576 2.99 5.737 1.622 11.47 2.49 17.367 3.306 13.629 1.992 27.087 4.646 40.57 7.443 3.497.72 6.998 1.413 10.5 2.1q3.185.634 6.368 1.269l2.864.55c6.289 1.277 12.009 3.254 17.886 5.825-.758 3.813-.758 3.813-2.937 5.5-3.362 1.647-6.766 3.041-10.254 4.395-2.963 1.166-5.883 2.413-8.809 3.668-4.573 1.924-9.133 3.412-13.902 4.757-2.245.64-2.245.64-4.598 2.18-3.267 1.96-6.626 2.78-10.293 3.754-2.379.622-2.379.622-4.207 2.746-3.8 1.52-6.91 2.24-11 2v2l-3.105.988-4.082 1.324-2.042.647c-2.988.977-5.582 1.928-8.29 3.553-3.734 2.24-7.82 3.324-11.954 4.593-3.876 1.23-7.098 2.73-10.527 4.895-4.683 2.146-9.419 3.949-14.437 5.125-3.638.68-3.638.68-6.563 2.875-2.02.685-4.043 1.365-6.074 2.02-8.643 2.896-17.226 6.091-25.504 9.91-4.016 1.775-8.109 3.36-12.196 4.965-2.538 1.001-5.018 1.994-7.425 3.285C659 647 659 647 655 647v5l3 1c1.955 2.985 2 4.264 2 8h2l2.93 5.273c1.079 1.888 1.079 1.888 3.07 3.727l1.188 3c1.764 4.384 4.54 7.926 7.386 11.668C678 687 678 687 678 691h2q1.939 3.375 3.875 6.75l1.105 1.922C690 708.433 690 708.433 690 712h2a150 150 0 0 1 4 6l1 1c.04 2 .043 4 0 6h2c1.621 2.23 1.621 2.23 3.438 5.188l1.808 2.917q3.179 5.248 6.317 10.52A146 146 0 0 0 714 749v3l3 1a201 201 0 0 1 3 6l1.625 1.375c2.342 2.768 2.085 6.085 2.375 9.625-1.687.688-1.687.688-4 1-2.75-1.312-2.75-1.312-5-3v-2l-2-.125c-3.722-1.085-6.044-2.992-9.035-5.402-1.916-1.436-3.796-2.473-5.965-3.473v-2h-2v-2c-.717-.095-1.433-.19-2.172-.29-3.275-.822-5.331-2.136-8.078-4.085l-2.64-1.836C681 745 681 745 680 742h-3v-2l-5-1-1-3c-2.015-.733-2.015-.733-4-1v-2h-3v-2l-1.625-.187c-2.787-.954-4.478-2.556-6.664-4.481-2.436-1.897-5.097-3.106-7.875-4.426-2.18-1.076-4.042-2.262-5.836-3.906v-2l-3-1v-4h-2v-4l-3-1c-.809-1.707-.809-1.707-1.437-3.812-1.258-3.702-2.744-5.455-5.563-8.188-1.088-1.964-2.043-3.957-2.973-6-.978-2.056-.978-2.056-2.484-3.875-1.87-2.576-2.967-5.179-4.168-8.125-.425-1.031-.85-2.062-1.29-3.125-.867-2.298-1.567-4.48-2.085-6.875h-2l-1.312-2.687c-2.01-3.946-4.233-7.63-6.688-11.313v-3l-3-1c-3.858-5.952-6.978-11.827-6-19l5-1 1-3c2.063-.687 2.063-.687 4-1v-2h2v-2c2.639-1.783 4.972-2.99 8-4v-2h4l.75-1.812c1.442-2.524 2.775-3.688 5.25-5.188h3l1-3h3v-2c2.955-2.744 3.775-3 8-3v-3c4.222-3 4.222-3 7-3l1-3c2.063-.687 2.063-.687 4-1v-3c-7.63-2.506-15.293-4.128-23.187-5.562-6.714-1.23-13.25-2.55-19.813-4.438q-2.073-.367-4.156-.676l-2.16-.322a279 279 0 0 0-4.368-.594c-5.616-.868-8.893-2.84-13.316-6.408.583-3.625 1.572-6.402 3.313-9.625 2.333-4.499 4.091-9.029 5.695-13.832 1.068-2.738 2.478-5.026 3.992-7.543a307 307 0 0 0 3.25-7.375c2.405-5.578 4.865-11.123 7.438-16.625l.884-1.891a325 325 0 0 1 4.803-9.796c1.268-2.586 2.014-4.563 2.625-7.313h2l-1-4-2.812 1.5C612 493 612 493 609 493v2c-2.955 2.744-3.775 3-8 3v2l-5 1-1 3c-2.91 1.416-5.847 2.3-9 3v2h-3l-1 3c-1.96 1.168-1.96 1.168-4.375 2.188l-2.398 1.042C573 516 573 516 570 516v3h-4l-.625 1.938C564 523 564 523 560.875 523.75L558 524l-1 3h-7c-4.408-9.41-4.408-9.41-5-14h-2l-.617-1.742c-1.926-3.145-4.393-4.447-7.508-6.383A123 123 0 0 1 529 501v-2c-15.407-2.404-28.72-2.614-42 7-1.686 1.936-2.76 3.735-4 6h-2v5l-3 1-.312 2.688c-.725 3.49-1.372 5.597-3.688 8.312-3.827.801-6.317-.017-9.68-1.75l-2.128-1.094a767 767 0 0 1-12.749-6.888c-4.398-2.371-8.668-4.12-13.482-5.475-2.237-.905-3.345-2.03-4.961-3.793-1.928-1.199-1.928-1.199-4-2.187l-2.062-1.043c-2.055-.955-2.055-.955-4.938-.77-1.3 3.9-.136 6.295 1.188 10l.7 2.028a780 780 0 0 0 5.217 14.5c.829 2.29 1.59 4.59 2.332 6.91 2.078 6.325 4.468 12.795 7.708 18.62 1.541 3.499.965 7.192.855 10.942-7.81 3.122-15.489 5.11-23.75 6.625-6.515 1.224-12.888 2.491-19.25 4.375q-3.555.756-7.125 1.438c-6.068 1.171-12.07 2.523-18.07 4.011-2.686.528-5.078.656-7.805.551.248 1.955.248 1.955 1 4 1.807.954 3.625 1.892 5.484 2.738 6.497 3.259 12.475 7.701 18.266 12.074 2.653 1.786 4.56 2.775 7.5 3.813 3.56 1.305 4.305 1.859 6.75 4.375 1.86.963 3.725 1.92 5.613 2.828 6.291 3.089 12.385 6.559 18.387 10.172l3.313 1.813C431 630 431 630 431.625 632.75c-.808 4.2-2.524 7.554-4.625 11.25h-2l-.437 2.313C424 649 424 649 423 652h-2l-.312 2.063c-.835 3.566-2.183 6.6-3.688 9.937h-2l-.25 3.125c-.82 4.24-2.26 6.403-4.75 9.875-.716 1.646-1.403 3.307-2 5h-2l-.352 1.629c-.787 2.88-1.876 5.551-3.023 8.308l-1.273 3.09c-1.283 2.822-2.593 5.42-4.352 7.973h-2l-.437 2.25c-.465 2.27-.982 4.508-1.563 6.75 5.781.266 9.605-.277 15-2.625q1.95-.826 3.902-1.648l2.023-.863c3.512-1.462 7.073-2.788 10.637-4.114l1.983-.745A315 315 0 0 1 438 698l3.762-1.324 3.925-1.364 2.01-.72c4.964-1.705 4.964-1.705 8.303-.592l-4 2v2c-1.812 2.125-1.812 2.125-4 4h-3l-1 3a401 401 0 0 1-6 3 91 91 0 0 0-4 4c-3.536 3-3.536 3-7 3v2l-4 1v2c-2.117 1.727-2.117 1.727-4.875 3.625l-2.742 1.914C413 727 413 727 411 727l-1 3h-4l-1 3-6 2-1 3h-3l-1 3-5 1-1 3c-5.257 4-5.257 4-9 4v2h-3v2h-3v2c-2.561 2.296-3.48 3-7 3l-1 3-5 1-1 3c-1.89 1.281-1.89 1.281-4.25 2.5-2.622 1.38-5.163 2.755-7.687 4.313C345 773 345 773 343 773l-1 3a133 133 0 0 1-6 3l-3.25 2.188C330 783 330 783 328 783v2c-2.647 1.46-3.894 2-7 2l-1 3h-3l-1 3a252 252 0 0 1-7 3l-1 2h-3v2c-2.266 1.656-2.266 1.656-5.25 3.5l-2.953 1.844c-6.29 3.725-6.29 3.725-9.547 3.281L285 808c-.323-4.626.155-7.28 3-11h2l.25-1.625c1.012-3.204 2.878-5.596 4.75-8.375.716-1.646 1.403-3.307 2-5h2l.313-2.187c.766-3.138 2.003-5.051 3.687-7.813 1.511-2.754 2.973-5.533 4.438-8.312l1.158-2.186a406 406 0 0 0 6.506-12.832c.898-1.67.898-1.67 2.773-3.982 5.106-6.458 8.506-14.32 12.125-21.688q.999-2 2-4h2l1-6 3-1 .375-2.25c.58-2.551 1.362-4.477 2.625-6.75h2v-4h2l2-6h2l.188-2.5c.888-3.828 2.323-6.168 4.468-9.398 2.069-3.235 3.678-6.646 5.344-10.102h2l.188-2c1.14-4.211 3.426-7.384 5.812-11q1.412-2.246 2.813-4.5L372 650c-3.173-3.697-6.02-4.962-10.625-6.437-5.252-1.77-10.04-3.802-14.937-6.372-3.525-1.722-7.176-2.984-10.875-4.277-3.26-1.163-6.402-2.509-9.563-3.914v-2l-1.937-.25c-4.277-1.047-8.08-2.9-12.063-4.75-5.278-2.445-10.357-4.56-16-6v-2l-2.184.172c-3.36-.205-5.018-1.179-7.878-2.922-4.85-2.783-9.556-4.532-14.88-6.18-4.304-1.506-8.248-3.565-12.269-5.703-2.878-1.41-5.74-2.39-8.789-3.367a113 113 0 0 1-3.812-1.687c-4.393-1.994-8.844-3.813-13.313-5.625a279 279 0 0 1-16.375-7.25c-6.085-2.929-12.287-5.264-18.691-7.397-4.129-1.385-7.948-2.993-11.809-5.041.188-2.375.188-2.375 1-5 3.457-1.715 6.945-2.502 10.719-3.219l3.328-.636 3.453-.645 3.36-.645c11.382-2.157 22.788-3.843 34.286-5.25 10.765-1.32 21.436-2.736 32.045-5.03 9.455-2.007 19.017-3.383 28.57-4.825 8.026-1.203 8.026-1.203 15.993-2.738 8.098-1.686 16.359-2.532 24.558-3.574q3.889-.498 7.776-1 2.404-.308 4.808-.614c3.735-.48 7.424-1.022 11.104-1.824l1-6-3-1v-3h-2v-4l-1.812-.625c-3.015-1.895-3.718-4.178-5.188-7.375l-1.5-1.937C353 508 353 508 351.813 504.938c-1.848-4.566-4.88-8.231-7.81-12.153-3.05-4.24-6.326-8.83-7.507-13.984L336 477l-2-.875-2-1.125c-.75-3.125-.75-3.125-1-6l-3-1v-4h-2l-.883-1.687c-2.206-4.107-4.474-7.9-7.367-11.563-2.328-2.966-3.092-5.023-3.75-8.75l-1.914-.93c-2.865-1.47-3.507-3.6-4.805-6.441-1.98-4.062-4.318-7.917-6.64-11.792C298 418.326 298 418.326 298 415h-2c-2.296-2.561-3-3.48-3-7l-3-1c-1.246-2.074-1.246-2.074-2.437-4.687-1.456-3.089-2.894-5.968-4.875-8.75C281 391 281 391 281 388h-2c-1.367-1.941-1.367-1.941-2.875-4.562l-1.594-2.754L273 378l-1.281-2.152C269 371.255 269 371.255 269 369l-1.828-.691c-2.794-1.684-3.53-3.322-4.922-6.247l-1.297-2.652C260 357 260 357 260 354l-1.777-.629c-3.066-1.89-4.08-4.161-5.786-7.308-2.168-4.144-2.168-4.144-5.14-7.68C246 337 246 337 245.707 334.957L246 329c4.933-1.644 7.54-.186 12 2v2l1.75.375c2.273.631 4.175 1.514 6.25 2.625v2l2.563.188c4.205.993 7.3 2.834 10.437 5.812v2l6 1 1 3 5 1v2h4v2l5 1 1 3h3v2l2.125.25c3.554.927 5.866 2.662 8.875 4.75l3.313 1.563C321 369 321 369 322 372l5 1v2l2.813.313c3.518.758 3.792 1.28 6.187 3.687 1.684.96 3.396 1.873 5.125 2.75 4.708 2.49 8.675 5.35 12.793 8.703 2.878 2.138 5.722 3.332 9.082 4.547v2l1.758.516c5.038 1.563 9.062 3.245 13.242 6.484l1 2a134 134 0 0 0 6 3v2l2 .75c3.764 1.568 7.371 3.395 11 5.25v2l2.438.125c4.863 1.194 8.73 3.664 12.562 6.875v2l1.563.25c3.482 1.071 6.309 2.885 9.437 4.75v2l5 1v2l6 1 1 3c1.902.6 1.902.6 4 1l3 2v2l3.25.438c2.676.4 5.149.877 7.75 1.562l.314-1.879c1.527-8.778 3.582-17.416 5.654-26.078 1.742-7.297 3.397-14.565 4.62-21.969C465 397 465 397 466 395c.56-3.369 1.026-6.747 1.5-10.129C468 382 468 382 469 381c.352-1.847.656-3.703.938-5.562.656-4.113 1.43-8.105 2.5-12.133.767-3.146 1.376-6.316 2-9.493 1.678-8.525 3.621-16.974 5.687-25.414a656 656 0 0 0 7.175-33.135l.587-3.044.506-2.69C489 287 489 287 490.008 284.494c1.02-2.564 1.529-4.9 1.976-7.619.971-5.653 2.09-11.262 3.266-16.875l.648-3.096c3.378-16.04 6.765-32.09 10.852-47.966l.602-2.38c1.406-5.316 1.406-5.316 3.648-7.558"/><path fill="#a60b13" d="M509.441 555.844c15.93-.557 31.02 4.63 42.809 15.406 2.643 2.518 4.723 4.71 6.75 7.75v3l1.805.59c5.381 3.457 7.93 13.75 9.57 19.785 2.851 15.594.524 33.67-7.977 47.168-1.705 2.262-3.486 4.367-5.398 6.457l-1.945 2.152c-11.494 12.102-26.244 17.643-42.742 18.223-12.918-.24-23.975-3.493-34.313-11.375l-2.004-1.492c-1.683-1.32-1.683-1.32-3.996-3.508v-2c-.588-.235-1.176-.47-1.781-.71-7.7-4.475-12.45-16.233-14.969-24.477-1.347-5.811-1.569-11.5-1.625-17.438l-.042-2.637c.086-12.031 4.842-25.282 12.417-34.738h2v-2h2l.695-1.734c1.647-2.86 3.61-4.457 6.18-6.516l2.617-2.14C482 564 482 564 486 564l1-3c7.213-3.347 14.59-4.654 22.441-5.156"/><path fill="#b70b13" d="m456 694-4 2v2h-2v-2l-2-1c4.625-2.125 4.625-2.125 8-1"/></svg>