<?xml version="1.0" encoding="UTF-8"?>
<svg version="1.1" xmlns="http://www.w3.org/2000/svg" width="1024" height="1024">
<path d="M0 0 C0.99 0 1.98 0 3 0 C6.0711653 10.1623275 8.48076628 20.35780326 10.625 30.75 C10.92662655 32.1915019 11.22870853 33.63290859 11.53125 35.07421875 C12.90521526 41.63552131 14.25064478 48.20224554 15.55712891 54.77734375 C16.31157359 58.56370782 17.08913359 62.34504752 17.875 66.125 C18.09736328 67.21554687 18.09736328 67.21554687 18.32421875 68.328125 C19.37935238 73.3893351 20.58956487 78.40294055 21.859375 83.4140625 C24.19727823 92.6557517 26.29541509 101.94731532 28.375 111.25 C28.56975922 112.11862671 28.76451843 112.98725342 28.96517944 113.88220215 C33.38792634 133.60977022 37.72458921 153.35178171 41.6027832 173.19458008 C42.58672387 178.15333275 43.72602701 183.0458139 45 187.9375 C46.83567005 195.04982161 48.22965018 202.20212321 49.5703125 209.42236328 C50.85728139 216.33222086 52.32450926 223.17300041 54 230 C54.16000488 230.66435059 54.32000977 231.32870117 54.48486328 232.01318359 C55.00599508 234.17664044 55.53321882 236.33852348 56.0625 238.5 C56.22492188 239.17135986 56.38734375 239.84271973 56.5546875 240.53442383 C57.4538665 244.15444173 58.51838339 247.57581939 60 251 C63.19617068 249.93460977 65.70159899 248.56604207 68.375 246.5625 C70.7620121 244.78527047 72.98576056 243.47719674 75.75 242.375 C78.88728042 241.30746299 78.88728042 241.30746299 80.28515625 239.625 C82.73935405 237.29938204 85.66328776 236.05512807 88.6875 234.625 C92.82179203 232.62680322 96.84039217 230.58178143 100.6875 228.0625 C104 226 104 226 107 226 C107 225.34 107 224.68 107 224 C107.99 224 108.98 224 110 224 C110.33 223.01 110.66 222.02 111 221 C112.93359375 219.82421875 112.93359375 219.82421875 115.4375 218.6875 C121.88258523 215.62631503 127.96512923 212.08855804 133.84375 208.04296875 C137.2129751 205.86214606 140.63721241 204.10485169 144.25 202.375 C148.95667878 200.19518637 148.95667878 200.19518637 153 197 C153.99 197 154.98 197 156 197 C156.33 196.01 156.66 195.02 157 194 C158.68885287 193.23836047 160.38348602 192.48601765 162.109375 191.8125 C164.97658143 190.58031211 167.41625988 188.74006987 170 187 C171.19231117 186.37853552 172.39510103 185.77692653 173.60546875 185.19140625 C178.27259808 182.888571 182.82551898 180.40082389 187.375 177.875 C188.18066406 177.43285156 188.98632812 176.99070312 189.81640625 176.53515625 C190.58597656 176.10847656 191.35554687 175.68179688 192.1484375 175.2421875 C192.84114746 174.8591748 193.53385742 174.47616211 194.24755859 174.08154297 C196.15846389 172.99511352 196.15846389 172.99511352 198 171 C198.99 171 199.98 171 201 171 C201 170.34 201 169.68 201 169 C202.95585325 167.99515796 204.91476237 166.99626195 206.875 166 C208.51082031 165.1646875 208.51082031 165.1646875 210.1796875 164.3125 C213 163 213 163 215 163 C215 162.34 215 161.68 215 161 C217.74943306 159.08372847 220.44971307 157.81853683 223.5625 156.5625 C226.98415068 155.24993162 226.98415068 155.24993162 229 153 C231.65777049 150.34222951 234.54304827 149.43046279 238 148 C239.051875 147.278125 240.10375 146.55625 241.1875 145.8125 C244 144 244 144 248 144 C248 143.01 248 142.02 248 141 C249.64507218 140.80593522 251.29109594 140.61992065 252.9375 140.4375 C253.85402344 140.33308594 254.77054688 140.22867188 255.71484375 140.12109375 C256.46894531 140.08113281 257.22304688 140.04117188 258 140 C259 141 259 141 259.375 143.5 C258.844654 148.44989601 256.58527848 151.81999811 254 156 C253.54625 156.77730469 253.0925 157.55460938 252.625 158.35546875 C250.1453693 162.52508585 250.1453693 162.52508585 249 164 C248.34 164 247.68 164 247 164 C246.83757812 165.07314453 246.83757812 165.07314453 246.671875 166.16796875 C245.46983889 171.23469071 242.59278956 175.52494494 240 180 C239.2884375 181.23363281 239.2884375 181.23363281 238.5625 182.4921875 C236.10478757 186.60300412 236.10478757 186.60300412 235 188 C234.34 188 233.68 188 233 188 C232.8453125 189.051875 232.8453125 189.051875 232.6875 190.125 C231.52862562 194.97120194 229.58343963 198.57944399 226 202 C225.67 202.99 225.34 203.98 225 205 C224.34 205 223.68 205 223 205 C222.82404297 206.09248047 222.82404297 206.09248047 222.64453125 207.20703125 C221.99182027 210.03544552 221.07908875 212.14989699 219.6875 214.6875 C219.27886719 215.45449219 218.87023437 216.22148437 218.44921875 217.01171875 C216.81832737 219.24924897 215.44142278 219.80993408 213 221 C212.61067967 222.98985949 212.28112064 224.99199544 212 227 C210.5625 229.375 210.5625 229.375 209 231 C208.34 231 207.68 231 207 231 C206.67 232.65 206.34 234.3 206 236 C205.01 236.33 204.02 236.66 203 237 C203 238.65 203 240.3 203 242 C202.01 242.33 201.02 242.66 200 243 C198.77479736 246.00847418 198.77479736 246.00847418 198 249 C197.34 249 196.68 249 196 249 C195.7525 249.66 195.505 250.32 195.25 251 C192.99952933 256.4011296 190.56595076 261.34875987 187 266 C186.566875 266.886875 186.13375 267.77375 185.6875 268.6875 C183.48918537 273.00271019 181.02589894 277.20709047 178 281 C177.34 281 176.68 281 176 281 C176 281.99 176 282.98 176 284 C175.34 284 174.68 284 174 284 C173.9175 284.721875 173.835 285.44375 173.75 286.1875 C172.84592876 289.57776715 171.21775952 291.31180664 169 294 C167.75983331 296.6794645 167.75983331 296.6794645 167 299 C166.34 299 165.68 299 165 299 C165 299.99 165 300.98 165 302 C164.34 302 163.68 302 163 302 C162.34 303.98 161.68 305.96 161 308 C160.34 308 159.68 308 159 308 C158.87625 308.763125 158.7525 309.52625 158.625 310.3125 C158 313 158 313 156 316 C155.34 316 154.68 316 154 316 C153.79612671 316.87640137 153.79612671 316.87640137 153.58813477 317.77050781 C152.68035577 321.21170242 151.27789769 324.45965021 149.9375 327.75 C149.65583984 328.44738281 149.37417969 329.14476562 149.08398438 329.86328125 C148.39166819 331.57647045 147.69615002 333.28836509 147 335 C147.5971582 335.04970947 148.19431641 335.09941895 148.80957031 335.15063477 C155.20665657 335.73044047 161.44747582 336.7107424 167.75 337.9375 C168.65621094 338.10701172 169.56242187 338.27652344 170.49609375 338.45117188 C175.15017474 339.34461954 179.50713089 340.47831876 184 342 C186.96327834 342.70703688 189.94748816 343.29286071 192.9375 343.875 C194.22901978 344.13108032 194.22901978 344.13108032 195.54663086 344.39233398 C203.2961509 345.90837851 211.07422188 347.25448139 218.86889648 348.51708984 C223.48323183 349.28745307 227.94629261 350.21853033 232.4453125 351.5078125 C238.18181613 353.12949453 243.91510444 353.99784338 249.8125 354.8125 C263.44084809 356.80470018 276.89875297 359.45907919 290.38183594 362.25634766 C293.8786781 362.97506434 297.37950018 363.66907042 300.8828125 364.35546875 C303.00525686 364.77840237 305.12765527 365.20156667 307.25 365.625 C308.19504395 365.80667725 309.14008789 365.98835449 310.11376953 366.17553711 C316.40264121 367.45220408 322.12271179 369.42928111 328 372 C327.2421875 375.8125 327.2421875 375.8125 325.0625 377.5 C321.70073354 379.14657949 318.29744784 380.54149868 314.80859375 381.89453125 C311.84614594 383.0605573 308.92616108 384.30843097 306 385.5625 C301.42717572 387.48697045 296.86703397 388.97490959 292.09765625 390.3203125 C289.85288012 390.96070066 289.85288012 390.96070066 287.5 392.5 C284.23280447 394.46031732 280.87424747 395.28074692 277.20703125 396.25390625 C274.82798409 396.87640549 274.82798409 396.87640549 273 399 C269.19953261 400.52018696 266.09053942 401.24061997 262 401 C262 401.66 262 402.32 262 403 C260.97519531 403.32613281 259.95039062 403.65226562 258.89453125 403.98828125 C257.53374877 404.42936247 256.17307751 404.87078693 254.8125 405.3125 C254.13896484 405.52583984 253.46542969 405.73917969 252.77148438 405.95898438 C249.7825959 406.93584061 247.18888701 407.8866678 244.48046875 409.51171875 C240.74739845 411.75156093 236.66174834 412.83649308 232.52734375 414.10546875 C228.65092945 415.33495773 225.42899334 416.8346223 222 419 C217.31748255 421.14647211 212.58113643 422.94904645 207.5625 424.125 C203.92513278 424.80419343 203.92513278 424.80419343 201 427 C198.97923176 427.68500618 196.95654973 428.36476629 194.92578125 429.01953125 C186.28308055 431.9158168 177.70047956 435.11126137 169.421875 438.9296875 C165.40583348 440.70451875 161.31323096 442.29090265 157.22631836 443.89453125 C154.68779391 444.89629269 152.20780783 445.88852937 149.80078125 447.1796875 C148 448 148 448 144 448 C144 449.65 144 451.3 144 453 C144.99 453.33 145.98 453.66 147 454 C148.95542188 456.98459129 149 458.26414791 149 462 C149.66 462 150.32 462 151 462 C151.9765625 463.7578125 152.953125 465.515625 153.9296875 467.2734375 C155.00897274 469.1612614 155.00897274 469.1612614 157 471 C157.391875 471.99 157.78375 472.98 158.1875 474 C159.95205412 478.38381414 162.72822825 481.92634563 165.57421875 485.66796875 C167 488 167 488 167 492 C167.66 492 168.32 492 169 492 C170.2930106 494.24923704 171.58444977 496.49935185 172.875 498.75 C173.42220703 499.70132813 173.42220703 499.70132813 173.98046875 500.671875 C179 509.43323864 179 509.43323864 179 513 C179.66 513 180.32 513 181 513 C182.38123963 514.96722008 183.71488126 516.96868328 185 519 C185.33 519.33 185.66 519.66 186 520 C186.04080783 521.99958364 186.04254356 524.00045254 186 526 C186.66 526 187.32 526 188 526 C189.62109375 528.23046875 189.62109375 528.23046875 191.4375 531.1875 C192.03433594 532.15042969 192.63117187 533.11335937 193.24609375 534.10546875 C195.36577194 537.6036459 197.47040036 541.11027261 199.5625 544.625 C200.66372929 546.4444223 201.82029945 548.23044918 203 550 C203 550.99 203 551.98 203 553 C203.99 553.33 204.98 553.66 206 554 C207.03432904 555.98246398 208.03238392 557.98413316 209 560 C209.804375 560.680625 209.804375 560.680625 210.625 561.375 C212.96723943 564.14310114 212.70982549 567.45987093 213 571 C211.3125 571.6875 211.3125 571.6875 209 572 C206.25 570.6875 206.25 570.6875 204 569 C204 568.34 204 567.68 204 567 C203.01 566.938125 203.01 566.938125 202 566.875 C198.27844582 565.7895467 195.95571501 563.88312081 192.96484375 561.47265625 C191.0490652 560.03677451 189.16941737 559.00015455 187 558 C187 557.34 187 556.68 187 556 C186.34 556 185.68 556 185 556 C185 555.34 185 554.68 185 554 C184.28328125 553.90460937 183.5665625 553.80921875 182.828125 553.7109375 C179.55346601 552.88774974 177.4968464 551.57410957 174.75 549.625 C173.44289063 548.71621094 173.44289063 548.71621094 172.109375 547.7890625 C170 546 170 546 169 543 C168.01 543 167.02 543 166 543 C166 542.34 166 541.68 166 541 C164.35 540.67 162.7 540.34 161 540 C160.67 539.01 160.34 538.02 160 537 C157.98491642 536.26676204 157.98491642 536.26676204 156 536 C156 535.34 156 534.68 156 534 C155.01 534 154.02 534 153 534 C153 533.34 153 532.68 153 532 C152.46375 531.938125 151.9275 531.87625 151.375 531.8125 C148.58804841 530.85906919 146.89687052 529.25720576 144.7109375 527.33203125 C142.27471783 525.43533968 139.61412925 524.22615719 136.8359375 522.90625 C134.65630778 521.83034767 132.79397532 520.64447738 131 519 C131 518.34 131 517.68 131 517 C130.01 516.67 129.02 516.34 128 516 C128 514.68 128 513.36 128 512 C127.34 512 126.68 512 126 512 C126 510.68 126 509.36 126 508 C125.01 507.67 124.02 507.34 123 507 C122.19140625 505.29296875 122.19140625 505.29296875 121.5625 503.1875 C120.30454523 499.48570601 118.81854078 497.73313046 116 495 C114.91180407 493.03633818 113.95707858 491.04302245 113.02734375 489 C112.04910936 486.9438667 112.04910936 486.9438667 110.54296875 485.125 C108.67219547 482.54854262 107.57564741 479.94637401 106.375 477 C105.94960938 475.96875 105.52421875 474.9375 105.0859375 473.875 C104.218043 471.57726493 103.51807674 469.39466582 103 467 C102.34 467 101.68 467 101 467 C100.566875 466.113125 100.13375 465.22625 99.6875 464.3125 C97.6776469 460.36723279 95.45476377 456.68214565 93 453 C93 452.01 93 451.02 93 450 C92.01 449.67 91.02 449.34 90 449 C86.14173088 443.04831479 83.02189948 437.17273718 84 430 C85.65 429.67 87.3 429.34 89 429 C89.33 428.01 89.66 427.02 90 426 C92.0625 425.3125 92.0625 425.3125 94 425 C94 424.34 94 423.68 94 423 C94.66 423 95.32 423 96 423 C96 422.34 96 421.68 96 421 C98.63892176 419.21694476 100.97178863 418.00940379 104 417 C104 416.34 104 415.68 104 415 C105.32 415 106.64 415 108 415 C108.2475 414.401875 108.495 413.80375 108.75 413.1875 C110.19192497 410.66413131 111.52549626 409.49969924 114 408 C114.99 408 115.98 408 117 408 C117.33 407.01 117.66 406.02 118 405 C118.99 405 119.98 405 121 405 C121 404.34 121 403.68 121 403 C123.95481492 400.25624329 124.77471908 400 129 400 C129 399.01 129 398.02 129 397 C133.22222222 394 133.22222222 394 136 394 C136.33 393.01 136.66 392.02 137 391 C139.0625 390.3125 139.0625 390.3125 141 390 C141 389.01 141 388.02 141 387 C133.36960916 384.49399853 125.70724343 382.87167402 117.8125 381.4375 C111.09878429 380.20747721 104.56253586 378.88861371 98 377 C96.61795457 376.75490406 95.23207445 376.53080244 93.84375 376.32421875 C93.13089844 376.21787109 92.41804688 376.11152344 91.68359375 376.00195312 C90.22947256 375.79254927 88.77365581 375.59459551 87.31640625 375.40820312 C81.69972764 374.53980164 78.42281771 372.56735165 74 369 C74.58278944 365.37517775 75.57157064 362.59814475 77.3125 359.375 C79.64601948 354.87608204 81.40436035 350.34623029 83.0078125 345.54296875 C84.07625154 342.80456792 85.48578898 340.51746905 87 338 C88.11686106 335.5506463 89.19811085 333.10159215 90.25 330.625 C92.65477527 325.04721253 95.1146274 319.50242938 97.6875 314 C98.12521729 313.06377808 98.12521729 313.06377808 98.57177734 312.10864258 C100.12080728 308.81529333 101.71638685 305.55188524 103.375 302.3125 C104.6433715 299.72697348 105.38880939 297.75035775 106 295 C106.66 295 107.32 295 108 295 C107.67 293.68 107.34 292.36 107 291 C106.071875 291.495 105.14375 291.99 104.1875 292.5 C101 294 101 294 98 294 C98 294.66 98 295.32 98 296 C95.04518508 298.74375671 94.22528092 299 90 299 C90 299.66 90 300.32 90 301 C88.35 301.33 86.7 301.66 85 302 C84.67 302.99 84.34 303.98 84 305 C81.08961104 306.4158649 78.153498 307.29922267 75 308 C75 308.66 75 309.32 75 310 C74.01 310 73.02 310 72 310 C71.67 310.99 71.34 311.98 71 313 C69.0390625 314.16796875 69.0390625 314.16796875 66.625 315.1875 C65.83351563 315.53167969 65.04203125 315.87585938 64.2265625 316.23046875 C62 317 62 317 59 317 C59 317.99 59 318.98 59 320 C57.68 320 56.36 320 55 320 C54.79375 320.639375 54.5875 321.27875 54.375 321.9375 C53 324 53 324 49.875 324.75 C48.92625 324.8325 47.9775 324.915 47 325 C46.67 325.99 46.34 326.98 46 328 C43.69 328 41.38 328 39 328 C34.59225513 318.58997722 34.59225513 318.58997722 34 314 C33.34 314 32.68 314 32 314 C31.79632812 313.42507813 31.59265625 312.85015625 31.3828125 312.2578125 C29.45674051 309.11298309 26.98952403 307.81145347 23.875 305.875 C21.88432544 304.63375586 19.91607687 303.35355889 18 302 C18 301.34 18 300.68 18 300 C2.59309016 297.5964529 -10.71974257 297.38564697 -24 307 C-25.68555379 308.93575318 -26.75986308 310.73540215 -28 313 C-28.66 313 -29.32 313 -30 313 C-30 314.65 -30 316.3 -30 318 C-30.99 318.33 -31.98 318.66 -33 319 C-33.103125 319.886875 -33.20625 320.77375 -33.3125 321.6875 C-34.03702546 325.17839542 -34.68384049 327.28450264 -37 330 C-40.8267871 330.80095544 -43.3166124 329.9828855 -46.6796875 328.25 C-47.382146 327.88914307 -48.08460449 327.52828613 -48.80834961 327.15649414 C-53.08026785 324.90228041 -57.32806428 322.60206405 -61.55664062 320.26757812 C-65.95516358 317.89665712 -70.22478175 316.14848797 -75.03930664 314.79321289 C-77.27576296 313.88843807 -78.38355808 312.76281151 -80 311 C-81.92788972 309.80114894 -81.92788972 309.80114894 -84 308.8125 C-84.680625 308.46832031 -85.36125 308.12414062 -86.0625 307.76953125 C-88.11723483 306.81543592 -88.11723483 306.81543592 -91 307 C-92.30014718 310.90044155 -91.13588747 313.29543729 -89.8125 317 C-89.46566162 318.00377686 -89.46566162 318.00377686 -89.11181641 319.02783203 C-87.426348 323.88007866 -85.67553353 328.70941328 -83.89453125 333.52734375 C-83.06597807 335.81762393 -82.3051614 338.11823897 -81.5625 340.4375 C-79.48451974 346.76278059 -77.09452175 353.23272027 -73.85546875 359.05859375 C-72.31396245 362.556898 -72.88971065 366.25016223 -73 370 C-80.80927692 373.12176332 -88.48864313 375.11025182 -96.75 376.625 C-103.26502703 377.84898843 -109.63758793 379.11628832 -116 381 C-118.36984299 381.50405346 -120.74522914 381.98261939 -123.125 382.4375 C-129.19283541 383.60895256 -135.19582571 384.96079645 -141.1953125 386.44921875 C-143.88056191 386.97654489 -146.27264761 387.10489817 -149 387 C-148.7515901 388.9547043 -148.7515901 388.9547043 -148 391 C-146.19330652 391.95447957 -144.37545477 392.8919918 -142.515625 393.73828125 C-136.01880737 396.99677829 -130.04104878 401.4393968 -124.25 405.8125 C-121.5971399 407.59807891 -119.68943125 408.58661396 -116.75 409.625 C-113.1905973 410.93011432 -112.44524383 411.4839728 -110 414 C-108.13951061 414.96346772 -106.27511684 415.92057694 -104.38671875 416.828125 C-98.09569642 419.91700667 -92.00205324 423.3869219 -86 427 C-84.906875 427.598125 -83.81375 428.19625 -82.6875 428.8125 C-80 431 -80 431 -79.375 433.75 C-80.18267911 437.94993135 -81.89854527 441.30369124 -84 445 C-84.66 445 -85.32 445 -86 445 C-86.144375 445.763125 -86.28875 446.52625 -86.4375 447.3125 C-87 450 -87 450 -88 453 C-88.66 453 -89.32 453 -90 453 C-90.1546875 454.0209375 -90.1546875 454.0209375 -90.3125 455.0625 C-91.14725019 458.62915989 -92.49472754 461.66222194 -94 465 C-94.66 465 -95.32 465 -96 465 C-96.0825 466.03125 -96.165 467.0625 -96.25 468.125 C-97.07063981 472.36497233 -98.50922441 474.52800979 -101 478 C-101.71573527 479.64619113 -102.4025696 481.30728055 -103 483 C-103.66 483 -104.32 483 -105 483 C-105.11601562 483.53753906 -105.23203125 484.07507813 -105.3515625 484.62890625 C-106.13938369 487.5096741 -107.22757952 490.18021381 -108.375 492.9375 C-109.00535156 494.46697266 -109.00535156 494.46697266 -109.6484375 496.02734375 C-110.93145324 498.84923676 -112.24119022 501.44643393 -114 504 C-114.66 504 -115.32 504 -116 504 C-116.144375 504.7425 -116.28875 505.485 -116.4375 506.25 C-116.90187492 508.52027739 -117.41863569 510.75759479 -118 513 C-112.21892863 513.26623355 -108.3952155 512.72336389 -103 510.375 C-101.69997082 509.82374385 -100.39915984 509.27432853 -99.09765625 508.7265625 C-98.43008301 508.44200195 -97.76250977 508.15744141 -97.07470703 507.86425781 C-93.56342327 506.40156724 -90.00205522 505.07632681 -86.4375 503.75 C-85.78330078 503.50427246 -85.12910156 503.25854492 -84.45507812 503.00537109 C-80.66125077 501.58805815 -76.84517602 500.27010348 -73 499 C-71.75863281 498.56300781 -70.51726562 498.12601563 -69.23828125 497.67578125 C-67.92972143 497.22125647 -66.62112727 496.76683054 -65.3125 496.3125 C-64.64927734 496.07466797 -63.98605469 495.83683594 -63.30273438 495.59179688 C-58.33865792 493.88711403 -58.33865792 493.88711403 -55 495 C-56.32 495.66 -57.64 496.32 -59 497 C-59 497.66 -59 498.32 -59 499 C-60.8125 501.125 -60.8125 501.125 -63 503 C-63.99 503 -64.98 503 -66 503 C-66.33 503.99 -66.66 504.98 -67 506 C-68.99107248 507.01765927 -70.99218823 508.01577854 -73 509 C-74.37310707 510.29233607 -75.71034824 511.62437146 -77 513 C-80.53571429 516 -80.53571429 516 -84 516 C-84 516.66 -84 517.32 -84 518 C-85.32 518.33 -86.64 518.66 -88 519 C-88 519.66 -88 520.32 -88 521 C-90.1171875 522.7265625 -90.1171875 522.7265625 -92.875 524.625 C-93.77992188 525.25664063 -94.68484375 525.88828125 -95.6171875 526.5390625 C-98 528 -98 528 -100 528 C-100.33 528.99 -100.66 529.98 -101 531 C-102.32 531 -103.64 531 -105 531 C-105.33 531.99 -105.66 532.98 -106 534 C-108 534.66666667 -110 535.33333333 -112 536 C-112.33 536.99 -112.66 537.98 -113 539 C-113.99 539 -114.98 539 -116 539 C-116.33 539.99 -116.66 540.98 -117 542 C-118.65 542.33 -120.3 542.66 -122 543 C-122.33 543.99 -122.66 544.98 -123 546 C-128.25714286 550 -128.25714286 550 -132 550 C-132 550.66 -132 551.32 -132 552 C-132.99 552 -133.98 552 -135 552 C-135 552.66 -135 553.32 -135 554 C-135.99 554 -136.98 554 -138 554 C-138 554.66 -138 555.32 -138 556 C-140.5614657 558.29648649 -141.47967572 559 -145 559 C-145.33 559.99 -145.66 560.98 -146 562 C-147.65 562.33 -149.3 562.66 -151 563 C-151.33 563.99 -151.66 564.98 -152 566 C-153.890625 567.28125 -153.890625 567.28125 -156.25 568.5 C-158.87233988 569.87995946 -161.41319164 571.25494803 -163.9375 572.8125 C-166 574 -166 574 -168 574 C-168.33 574.99 -168.66 575.98 -169 577 C-170.9717304 578.05464649 -172.97762948 579.04605164 -175 580 C-176.0725 580.721875 -177.145 581.44375 -178.25 582.1875 C-181 584 -181 584 -183 584 C-183 584.66 -183 585.32 -183 586 C-185.64738916 587.4606285 -186.89448334 588 -190 588 C-190.33 588.99 -190.66 589.98 -191 591 C-191.99 591 -192.98 591 -194 591 C-194.33 591.99 -194.66 592.98 -195 594 C-197.31808364 595.03485877 -199.65175298 596.0355414 -202 597 C-202.33 597.66 -202.66 598.32 -203 599 C-203.99 599 -204.98 599 -206 599 C-206 599.66 -206 600.32 -206 601 C-208.265625 602.65625 -208.265625 602.65625 -211.25 604.5 C-212.22453125 605.1084375 -213.1990625 605.716875 -214.203125 606.34375 C-220.49390031 610.06901359 -220.49390031 610.06901359 -223.75 609.625 C-224.4925 609.41875 -225.235 609.2125 -226 609 C-226.3227506 604.37390802 -225.84450614 601.71973879 -223 598 C-222.34 598 -221.68 598 -221 598 C-220.9175 597.46375 -220.835 596.9275 -220.75 596.375 C-219.73812625 593.17073312 -217.87187568 590.77945176 -216 588 C-215.28426473 586.35380887 -214.5974304 584.69271945 -214 583 C-213.34 583 -212.68 583 -212 583 C-211.896875 582.278125 -211.79375 581.55625 -211.6875 580.8125 C-210.92058716 577.67512927 -209.68434411 575.76171736 -208 573 C-206.48885019 570.24606905 -205.02662892 567.46665622 -203.5625 564.6875 C-203.18029297 563.96626953 -202.79808594 563.24503906 -202.40429688 562.50195312 C-200.16253377 558.25820803 -197.98805331 553.99093654 -195.89770508 549.67041016 C-195 548 -195 548 -193.125 545.6875 C-188.01912505 539.23006992 -184.61892248 531.36709219 -181 524 C-180.33427114 522.66619817 -179.66783805 521.332747 -179 520 C-178.34 520 -177.68 520 -177 520 C-176.67 518.02 -176.34 516.04 -176 514 C-175.01 513.67 -174.02 513.34 -173 513 C-172.87625 512.2575 -172.7525 511.515 -172.625 510.75 C-172.04513299 508.19858515 -171.26291261 506.2732427 -170 504 C-169.34 504 -168.68 504 -168 504 C-168 502.68 -168 501.36 -168 500 C-167.34 500 -166.68 500 -166 500 C-165.34 498.02 -164.68 496.04 -164 494 C-163.34 494 -162.68 494 -162 494 C-161.938125 493.175 -161.87625 492.35 -161.8125 491.5 C-160.9238386 487.6719201 -159.48874639 485.331528 -157.34375 482.1015625 C-155.27535193 478.86668413 -153.66646096 475.45636348 -152 472 C-151.34 472 -150.68 472 -150 472 C-149.938125 471.34 -149.87625 470.68 -149.8125 470 C-148.67192468 465.78864497 -146.38644219 462.61602183 -144 459 C-143.05860469 457.50244161 -142.12093283 456.00253433 -141.1875 454.5 C-140.45833333 453.33333333 -139.72916667 452.16666667 -139 451 C-142.17319509 447.30314957 -145.02087921 446.03765622 -149.625 444.5625 C-154.87651099 442.79208368 -159.6653107 440.76081972 -164.5625 438.19140625 C-168.08655078 436.46891348 -171.73842741 435.20663616 -175.4375 433.9140625 C-178.69672853 432.75147183 -181.83882145 431.40496825 -185 430 C-185 429.34 -185 428.68 -185 428 C-185.639375 427.9175 -186.27875 427.835 -186.9375 427.75 C-191.21372617 426.70276094 -195.0163261 424.84909945 -199 423 C-204.27769564 420.55531489 -209.35660126 418.44086776 -215 417 C-215 416.34 -215 415.68 -215 415 C-215.72058594 415.05671875 -216.44117188 415.1134375 -217.18359375 415.171875 C-220.54391714 414.96680672 -222.20154968 413.99332418 -225.0625 412.25 C-229.91280162 409.46725323 -234.6175953 407.71799391 -239.94140625 406.0703125 C-244.24585705 404.56402959 -248.19022397 402.50492224 -252.2109375 400.3671875 C-255.08883346 398.95645419 -257.95136308 397.977709 -261 397 C-262.28080079 396.46058091 -263.55244906 395.89875528 -264.8125 395.3125 C-269.20484486 393.3193351 -273.65643268 391.50047015 -278.125 389.6875 C-283.67184054 387.43381159 -289.10906158 385.04079479 -294.5 382.4375 C-300.58473413 379.50932914 -306.78663262 377.17447188 -313.19140625 375.04077148 C-317.31969288 373.65590995 -321.13893213 372.04799232 -325 370 C-324.8125 367.625 -324.8125 367.625 -324 365 C-320.5432704 363.28548674 -317.05543772 362.49837048 -313.28125 361.78125 C-312.18296875 361.57113281 -311.0846875 361.36101562 -309.953125 361.14453125 C-308.24382812 360.82548828 -308.24382812 360.82548828 -306.5 360.5 C-304.83710938 360.18095703 -304.83710938 360.18095703 -303.140625 359.85546875 C-291.75815179 357.69809301 -280.35182297 356.01202527 -268.85375977 354.60571289 C-258.08900258 353.28436092 -247.41770249 351.86912812 -236.80883789 349.57519531 C-227.35433138 347.5678857 -217.79213546 346.19173103 -208.23852539 344.75024414 C-200.21294068 343.54672519 -200.21294068 343.54672519 -192.24609375 342.01171875 C-184.14817809 340.32619497 -175.88719133 339.48028432 -167.6875 338.4375 C-165.09543013 338.10592534 -162.50350194 337.7733254 -159.91181946 337.43873596 C-158.30935054 337.23203913 -156.70664835 337.02714024 -155.10368347 336.82432556 C-151.36913332 336.34439675 -147.67977244 335.80228789 -144 335 C-143.67 333.02 -143.34 331.04 -143 329 C-143.99 328.67 -144.98 328.34 -146 328 C-146 327.01 -146 326.02 -146 325 C-146.66 325 -147.32 325 -148 325 C-148 323.68 -148 322.36 -148 321 C-148.8971875 320.690625 -148.8971875 320.690625 -149.8125 320.375 C-152.82719689 318.48004767 -153.5295958 316.19653088 -155 313 C-155.495 312.360625 -155.99 311.72125 -156.5 311.0625 C-158 309 -158 309 -159.1875 305.9375 C-161.0352898 301.37179715 -164.06716879 297.70657144 -166.99609375 293.78515625 C-170.04631453 289.54576557 -173.32293541 284.95494079 -174.50390625 279.80078125 C-174.66761719 279.20652344 -174.83132813 278.61226563 -175 278 C-175.66 277.71125 -176.32 277.4225 -177 277.125 C-177.66 276.75375 -178.32 276.3825 -179 276 C-179.75 272.875 -179.75 272.875 -180 270 C-180.99 269.67 -181.98 269.34 -183 269 C-183 267.68 -183 266.36 -183 265 C-183.66 265 -184.32 265 -185 265 C-185.29132813 264.443125 -185.58265625 263.88625 -185.8828125 263.3125 C-188.08872266 259.20589996 -190.35653655 255.41225808 -193.25 251.75 C-195.5777676 248.78416412 -196.34227236 246.72712332 -197 243 C-197.94746094 242.53980469 -197.94746094 242.53980469 -198.9140625 242.0703125 C-201.77936634 240.60010042 -202.42139982 238.46947539 -203.71875 235.62890625 C-205.69848345 231.56683121 -208.03735928 227.71212921 -210.35839844 223.83691406 C-213 219.32594829 -213 219.32594829 -213 216 C-213.66 216 -214.32 216 -215 216 C-217.29648649 213.4385343 -218 212.52032428 -218 209 C-218.99 208.67 -219.98 208.34 -221 208 C-222.24609375 205.92578125 -222.24609375 205.92578125 -223.4375 203.3125 C-224.89333452 200.22436616 -226.33135365 197.3445353 -228.3125 194.5625 C-230 192 -230 192 -230 189 C-230.66 189 -231.32 189 -232 189 C-233.3671875 187.05859375 -233.3671875 187.05859375 -234.875 184.4375 C-235.66390625 183.07431641 -235.66390625 183.07431641 -236.46875 181.68359375 C-236.9740625 180.79800781 -237.479375 179.91242188 -238 179 C-238.4228125 178.28972656 -238.845625 177.57945312 -239.28125 176.84765625 C-242 172.25491071 -242 172.25491071 -242 170 C-242.60328125 169.77183594 -243.2065625 169.54367187 -243.828125 169.30859375 C-246.62169086 167.62542007 -247.35874953 165.98670238 -248.75 163.0625 C-249.17796875 162.18722656 -249.6059375 161.31195313 -250.046875 160.41015625 C-251 158 -251 158 -251 155 C-251.58652344 154.79246094 -252.17304688 154.58492187 -252.77734375 154.37109375 C-255.84285687 152.48006544 -256.85713071 150.20999365 -258.5625 147.0625 C-260.73075369 142.91878234 -260.73075369 142.91878234 -263.703125 139.3828125 C-265 138 -265 138 -265.29296875 135.95703125 C-265.1953125 133.97135417 -265.09765625 131.98567708 -265 130 C-260.06729471 128.3557649 -257.45975807 129.81384408 -253 132 C-253 132.66 -253 133.32 -253 134 C-252.13375 134.185625 -252.13375 134.185625 -251.25 134.375 C-248.97664233 135.00648824 -247.0746471 135.88858191 -245 137 C-245 137.66 -245 138.32 -245 139 C-244.154375 139.061875 -243.30875 139.12375 -242.4375 139.1875 C-238.23212309 140.18149818 -235.13611074 142.02162264 -232 145 C-232 145.66 -232 146.32 -232 147 C-230.02 147.33 -228.04 147.66 -226 148 C-225.67 148.99 -225.34 149.98 -225 151 C-223.35 151.33 -221.7 151.66 -220 152 C-220 152.66 -220 153.32 -220 154 C-218.68 154 -217.36 154 -216 154 C-216 154.66 -216 155.32 -216 156 C-214.35 156.33 -212.7 156.66 -211 157 C-210.67 157.99 -210.34 158.98 -210 160 C-209.01 160 -208.02 160 -207 160 C-207 160.66 -207 161.32 -207 162 C-206.29875 162.0825 -205.5975 162.165 -204.875 162.25 C-201.32139888 163.17702638 -199.00907526 164.91207023 -196 167 C-194.906875 167.515625 -193.81375 168.03125 -192.6875 168.5625 C-190 170 -190 170 -189 173 C-187.35 173.33 -185.7 173.66 -184 174 C-184 174.66 -184 175.32 -184 176 C-182.6078125 176.1546875 -182.6078125 176.1546875 -181.1875 176.3125 C-177.66936383 177.07131368 -177.39476605 177.59369291 -175 180 C-173.31603039 180.96069086 -171.60410014 181.8731344 -169.875 182.75 C-165.16728154 185.24049486 -161.19976436 188.0995838 -157.08203125 191.453125 C-154.20397897 193.59141525 -151.36036441 194.78454904 -148 196 C-148 196.66 -148 197.32 -148 198 C-147.41992188 198.17015625 -146.83984375 198.3403125 -146.2421875 198.515625 C-141.20382972 200.07867989 -137.17951945 201.76087243 -133 205 C-132.67 205.66 -132.34 206.32 -132 207 C-130.02477154 208.04808041 -128.02518491 209.0520411 -126 210 C-126 210.66 -126 211.32 -126 212 C-125.01 212.37125 -125.01 212.37125 -124 212.75 C-120.23639093 214.31817045 -116.6288576 216.14505046 -113 218 C-113 218.66 -113 219.32 -113 220 C-112.195625 220.04125 -111.39125 220.0825 -110.5625 220.125 C-105.69924069 221.31948474 -101.8325073 223.78921055 -98 227 C-98 227.66 -98 228.32 -98 229 C-97.484375 229.0825 -96.96875 229.165 -96.4375 229.25 C-92.95544268 230.32140225 -90.12799115 232.13523605 -87 234 C-87 234.66 -87 235.32 -87 236 C-85.35 236.33 -83.7 236.66 -82 237 C-82 237.66 -82 238.32 -82 239 C-80.02 239.33 -78.04 239.66 -76 240 C-75.67 240.99 -75.34 241.98 -75 243 C-73.09821215 243.60061233 -73.09821215 243.60061233 -71 244 C-70.01 244.66 -69.02 245.32 -68 246 C-68 246.66 -68 247.32 -68 248 C-66.9275 248.144375 -65.855 248.28875 -64.75 248.4375 C-62.07400181 248.83889973 -59.60118809 249.31517393 -57 250 C-56.8443457 249.06994141 -56.8443457 249.06994141 -56.68554688 248.12109375 C-55.15860876 239.34279682 -53.10428208 230.7048619 -51.03173828 222.04296875 C-49.28981191 214.74625305 -47.63495186 207.47767235 -46.41210938 200.07421875 C-46 198 -46 198 -45 196 C-44.43925227 192.63113276 -43.97415548 189.25315589 -43.5 185.87109375 C-43 183 -43 183 -42 182 C-41.64830582 180.15286669 -41.34404368 178.29661899 -41.0625 176.4375 C-40.40608713 172.32526642 -39.6322064 168.33280067 -38.5625 164.3046875 C-37.79481225 161.15930017 -37.18619923 157.98946794 -36.5625 154.8125 C-34.88383917 146.28708386 -32.94093857 137.83779655 -30.875 129.3984375 C-28.19859561 118.4014672 -25.80499047 107.38463093 -23.69970703 96.26269531 C-23.50618652 95.25819336 -23.31266602 94.25369141 -23.11328125 93.21875 C-22.94610596 92.33123047 -22.77893066 91.44371094 -22.60668945 90.52929688 C-22 88 -22 88 -20.99194336 85.49414062 C-19.97224461 82.9302119 -19.462966 80.59353488 -19.015625 77.875 C-18.04457092 72.22248285 -16.92579657 66.61318792 -15.75 61 C-15.53601563 59.97817627 -15.32203125 58.95635254 -15.1015625 57.90356445 C-11.72396964 41.863638 -8.33731623 25.81432286 -4.25 9.9375 C-4.05148437 9.15205811 -3.85296875 8.36661621 -3.6484375 7.55737305 C-2.24167838 2.24167838 -2.24167838 2.24167838 0 0 Z " fill="#A60B13" transform="translate(511,199)"/>
<path d="M0 0 C15.92935475 -0.55648401 31.01962682 4.63075171 42.80859375 15.40625 C45.45156807 17.92411311 47.53147159 20.11556676 49.55859375 23.15625 C49.55859375 24.14625 49.55859375 25.13625 49.55859375 26.15625 C50.45191406 26.44822266 50.45191406 26.44822266 51.36328125 26.74609375 C56.74459825 30.20277602 59.29279003 40.4954363 60.93359375 46.53125 C63.78475039 62.12533123 61.45802806 80.20129455 52.95703125 93.69921875 C51.25174567 95.96125282 49.47016975 98.06620736 47.55859375 100.15625 C46.91664063 100.86652344 46.2746875 101.57679688 45.61328125 102.30859375 C34.1198147 114.41053794 19.36999671 119.95135659 2.87109375 120.53125 C-10.04678031 120.29045629 -21.10341364 117.03786488 -31.44140625 109.15625 C-32.10269531 108.66382813 -32.76398438 108.17140625 -33.4453125 107.6640625 C-35.12890625 106.34375 -35.12890625 106.34375 -37.44140625 104.15625 C-37.44140625 103.49625 -37.44140625 102.83625 -37.44140625 102.15625 C-38.02921875 101.92164063 -38.61703125 101.68703125 -39.22265625 101.4453125 C-46.92272766 96.97167946 -51.6725927 85.2131999 -54.19140625 76.96875 C-55.53858487 71.15811694 -55.76000686 65.46937506 -55.81640625 59.53125 C-55.83026367 58.66089111 -55.84412109 57.79053223 -55.85839844 56.89379883 C-55.7721804 44.86297956 -51.01689933 31.61273286 -43.44140625 22.15625 C-42.78140625 22.15625 -42.12140625 22.15625 -41.44140625 22.15625 C-41.44140625 21.49625 -41.44140625 20.83625 -41.44140625 20.15625 C-40.78140625 20.15625 -40.12140625 20.15625 -39.44140625 20.15625 C-39.21195312 19.58390625 -38.9825 19.0115625 -38.74609375 18.421875 C-37.09952727 15.56256794 -35.13688564 13.96568453 -32.56640625 11.90625 C-31.70273437 11.19984375 -30.8390625 10.4934375 -29.94921875 9.765625 C-27.44140625 8.15625 -27.44140625 8.15625 -23.44140625 8.15625 C-23.11140625 7.16625 -22.78140625 6.17625 -22.44140625 5.15625 C-15.228149 1.80929864 -7.85222516 0.50254241 0 0 Z " fill="#A60B13" transform="translate(509.44140625,555.84375)"/>
<path d="M0 0 C-1.98 0.99 -1.98 0.99 -4 2 C-4 2.66 -4 3.32 -4 4 C-4.66 4 -5.32 4 -6 4 C-6 3.34 -6 2.68 -6 2 C-6.66 1.67 -7.32 1.34 -8 1 C-3.375 -1.125 -3.375 -1.125 0 0 Z " fill="#B70B13" transform="translate(456,694)"/>
</svg>
