<svg xmlns="http://www.w3.org/2000/svg" width="1024" height="1024"><path fill="#a60b13" d="m670.5 79.063 4.028 1.507c10 3.764 19.839 7.802 29.472 12.43l1.937.922c4.735 2.27 9.404 4.656 14.063 7.078l2.403 1.231c29.085 14.982 55.931 34.292 80.897 55.36 1.527 1.266 3.1 2.478 4.677 3.682L810 163v2l1.8.816c2.201 1.185 3.632 2.368 5.389 4.13l1.811 1.802 1.926 1.947 2.017 2.02q2.113 2.116 4.219 4.241 3.192 3.216 6.399 6.419l4.115 4.133 1.907 1.91c7.668 7.749 14.583 16.097 21.417 24.582l1.282 1.586C911.536 279.7 942.11 351.787 954.75 429l.451 2.702c4.391 26.49 5.215 53.007 5.174 79.798l-.001 2.259c-.015 22.648-.448 44.876-4.374 67.241l-.731 4.36C949.887 617.166 941.526 647.863 930 678l-1.06 2.825c-9.031 23.94-20.83 47.285-34.504 68.903a737 737 0 0 0-4.42 7.108c-11.566 18.677-24.226 35.654-38.98 51.918-4.544 5.014-8.951 10.143-13.344 15.288-15.582 18.233-15.582 18.233-22.352 23.93-2.46 2.133-4.817 4.351-7.18 6.59-6.34 5.994-12.886 11.518-19.805 16.829-3.142 2.418-6.156 4.966-9.168 7.547-7.374 6.187-15.252 11.624-23.187 17.062l-1.902 1.313C708.874 928.434 657.425 951.38 604 964l-3.203.769c-27.72 6.576-56.08 10.372-84.594 10.399l-3.856.01q-4.019.008-8.037.007c-4.008 0-8.017.02-12.025.04-16.523.036-32.84-.621-49.285-2.225l-2.462-.237c-46.826-4.586-93.637-16.42-136.227-36.672a454 454 0 0 0-6.952-3.196c-11.971-5.463-23.347-11.825-34.738-18.4a310 310 0 0 0-6.933-3.835c-15.753-8.49-30.13-19.131-44.04-30.347a290 290 0 0 0-5.09-3.946c-7.775-5.941-14.976-12.31-22.058-19.062-3.732-3.556-7.607-6.919-11.547-10.242-3.628-3.832-5.379-7.792-5.328-13.063.3-8.058 4.667-13.58 10.375-19h2l.75-1.875c1.487-2.529 2.687-2.843 5.25-4.125l.793-1.715c1.652-3.127 4.025-5.392 6.52-7.847l1.435-1.46c4.909-4.882 8.549-7.418 15.565-7.603 5.945.147 8.788 1.33 12.875 5.57L225 798q1.894 1.95 3.813 3.875l1.996 2.027c3.302 3.161 6.863 5.973 10.43 8.828 2.541 2.09 4.93 4.266 7.323 6.52 7.257 6.618 15.419 12.108 23.438 17.75l2.45 1.747c14.43 10.232 29.9 18.621 45.675 26.566l1.945.988c17.542 8.882 35.56 15.567 54.493 20.824l2.756.775c37.361 10.5 75.018 17.582 113.931 17.35l2.832-.01c14.714-.056 29.297-.461 43.918-2.24l3.389-.407c15.768-1.95 31.225-4.63 46.611-8.593l3.427-.875c15.93-4.115 31.385-8.789 46.573-15.125l2.754-1.132c28.263-11.672 54.952-26.529 79.973-44.126C726.687 830 726.687 830 730 830l.691-1.773c1.664-2.83 3.53-4.02 6.246-5.852 5.205-3.658 9.847-7.667 14.5-11.996 2.212-2.053 4.46-4.04 6.75-6.004 3.43-2.976 6.609-6.152 9.793-9.387 2.649-2.607 5.433-5.032 8.258-7.445 1.787-1.516 1.787-1.516 3.367-3.242C781 783 781 783 783 783l.746-1.719c1.466-2.667 3.226-4.569 5.317-6.781 4.156-4.534 7.84-9.27 11.48-14.223 2.755-3.719 5.671-7.304 8.582-10.902 8.745-10.881 15.93-22.29 22.875-34.375l1.476-2.564q4.579-7.974 9.116-15.97a790 790 0 0 1 3.888-6.724c30.684-52.814 42.946-119.119 42.836-179.498-.003-3.61.02-7.22.045-10.83.057-20.97-1.765-41.727-5.611-62.351l-.638-3.464C873.743 384.276 855.967 336.84 828 295l-1.201-1.808c-8.028-12.025-16.776-23.65-25.904-34.86a261 261 0 0 1-3.82-4.82c-4.697-5.97-9.773-11.391-15.138-16.762l-2.001-2.004a244 244 0 0 0-12.094-11.147c-2.475-2.148-4.875-4.374-7.28-6.599-4.688-4.265-9.496-8.197-14.562-12l-3.414-2.64C714.226 180.55 682.45 161.823 649 149c-3.134 6.037-5.755 12.157-8.223 18.492l-1.172 2.988q-1.218 3.112-2.432 6.228-1.847 4.729-3.706 9.452l-2.377 6.082-1.108 2.817c-2.293 5.905-4.256 11.846-5.982 17.941l2.32.676c23.36 8.406 45.44 22.993 65.032 38.06a409 409 0 0 0 5.023 3.776c6.651 4.973 12.852 10.278 18.91 15.957a225 225 0 0 0 6.965 6.219c4.12 3.572 7.933 7.42 11.75 11.312l2.5 2.5 2.5 2.5 1.744 1.671c4.98 4.839 9.264 9.931 13.381 15.517l1.943 2.623c37.788 51.477 62.754 114.7 63.17 179.15l.025 3.713q.02 3.885.032 7.77.018 3.883.062 7.765c.89 77.503-29.348 153.164-79.42 211.979l-1.499 1.765C735.12 729.816 731.723 733.52 728 737h-2l-.75 1.75c-1.433 2.58-3.034 4.311-5.25 6.25h-2l-.797 1.777c-4.513 8.337-14.025 14.191-21.421 19.851a396 396 0 0 0-4.942 3.876C668.448 788.14 643.456 803.345 617 814l-2.802 1.13C532.616 847.656 444.695 846.606 364 812c-19.092-8.488-37.908-17.918-55-30l-1.998-1.401C263.724 750.172 263.724 750.172 260 739c-.585-6.088.766-9.047 4-14h2l.254-1.703c.975-3.002 2.574-4.713 4.683-7.047l2.153-2.422C275 712 275 712 277 712l.707-1.691c2.734-4.882 7.258-8.502 11.293-12.309l1.688-1.762c4.753-4.32 10.564-4.068 16.722-3.843 5.591.943 7.996 3.435 11.59 7.605q2.492 2.414 5 4.813a79 79 0 0 1 4 4.187v2l1.774.35c2.383.696 3.846 1.596 5.843 3.056l2.065 1.49 2.193 1.604q2.318 1.657 4.64 3.309l2.319 1.651c53.275 37.867 122.137 51.316 186.137 41.067 49.813-8.672 95.747-30.701 132.724-65.375 2.052-1.916 4.154-3.726 6.305-5.527 47.886-41.96 71.948-107.691 77-169.625.396-6.35.286-12.647 0-19l-.129-3.14c-1.8-39.99-12.839-75.59-30.996-110.985l-1.023-1.998c-5.713-11.12-11.977-21.714-19.54-31.69l-1.544-2.041C687.07 342.764 677.938 332.288 667 323l-1.65-1.412C645.424 304.685 623.122 290.976 599 281c-3.478 2.735-4.611 6.565-6.11 10.57l-.878 2.287c-.928 2.42-1.846 4.844-2.762 7.268q-1.35 3.545-2.707 7.089-.903 2.356-1.8 4.716a355 355 0 0 1-4.757 11.866l-.985 2.33a415 415 0 0 1-1.88 4.35c-1.554 3.646-2.495 6.546-2.121 10.524l2.43 1.293c45.97 25.278 78.008 62.445 93.203 112.926 8.165 28.963 10.013 60.033 5.367 89.781l-.326 2.15c-5.426 33.583-24.12 63.93-46.686 88.64a111 111 0 0 0-4.55 5.398c-3.182 3.67-6.733 6.682-10.438 9.812l-2.95 2.574c-24.047 20.894-51.783 34.928-82.862 41.739l-2.168.483c-16.666 3.406-34.105 2.393-51.02 2.204l-2.429-.006c-39.65-.196-78.409-21.88-108.571-45.994l-2.293-1.82c-3.844-3.155-6.322-5.51-7.043-10.512-.093-5.885.73-9.905 4.336-14.668l1.625-2.16c2.075-2.658 4.214-5.251 6.375-7.84l1.426-1.72q2.309-2.773 4.637-5.53l1.46-1.752c9.922-11.646 9.922-11.646 16.235-12.271 9.36-.283 13.844 1.425 20.742 7.46C413 604 413 604 413 606l2.131.805c3.042 1.267 5.874 2.742 8.771 4.312l3.452 1.84q3.538 1.891 7.062 3.813c28.157 14.922 63.982 14.914 94.088 5.77C540.68 618.555 551.147 612.135 561 604l1.727-1.408c23.351-19.1 40.606-43.545 44.092-74.185 2.38-31.662-1.717-62.52-22.069-88.095A499 499 0 0 0 581 436l-2.312-3.062c-4.13-4.515-8.873-8.179-13.688-11.938l-1.58-1.235c-8.352-7.34-8.352-7.34-18.42-10.765l-.254 3.367c-.662 5.286-2.618 9.882-4.683 14.758a3194 3194 0 0 0-2.153 5.195l-1.011 2.439c-1.087 2.71-2.026 5.454-2.899 8.241 2.489 2.511 4.991 4.992 7.578 7.402 16.003 15.185 25.162 34.41 25.826 56.615.184 15.728-2.358 33.258-12.404 45.983h-2l-.316 1.734c-.796 2.636-1.963 4.326-3.621 6.516l-1.59 2.14L546 565h-2l-.723 1.758c-6.002 10.536-21.267 16.375-32.289 19.496-19.095 4.768-38.299.937-55.238-8.629-13.69-8.334-13.69-8.334-15.742-12.77-.5-.918-.5-.918-1.008-1.855a90 90 0 0 0-4-1c-2.372-2.378-4.135-5.215-6-8l-1.543-2.227c-11.031-16.957-13.724-40.358-9.773-60.015A62 62 0 0 1 421 483l1.25-2.973c3.737-8.228 8.93-15.191 14.75-22.027l2.527-2.984c11.255-12.253 27.396-19.148 43.974-20.17 5.176-.161 10.327-.064 15.499.154 2.38-5.305 4.234-10.653 6-16.187 3.132-9.59 6.728-18.954 10.461-28.324 3.63-9.125 7.13-18.293 10.583-27.486 4.994-13.29 10.105-26.52 15.417-39.686 3.926-9.742 7.746-19.522 11.539-29.317a2602 2602 0 0 1 12.813-32.5c5.088-12.646 10.028-25.346 14.937-38.062l1.068-2.767a5161 5161 0 0 0 10.325-26.946 1246 1246 0 0 1 10.357-26.412c5.033-12.483 9.853-25.04 14.625-37.625 9.233-24.323 9.233-24.323 13.625-35.438l1.157-2.97C634.574 84.593 637.469 78.817 643 74c9.142-3.047 18.995 1.824 27.5 5.063"/></svg>