<?xml version="1.0" encoding="UTF-8"?>
<svg version="1.1" xmlns="http://www.w3.org/2000/svg" width="1024" height="1024">
<path d="M0 0 C1.34251001 0.50262898 2.68512162 1.00498668 4.02783203 1.50708008 C14.02796393 5.2719613 23.8667682 9.30958126 33.5 13.9375 C34.4585791 14.39406982 34.4585791 14.39406982 35.43652344 14.85986328 C40.17199149 17.12939084 44.84099187 19.51560036 49.5 21.9375 C50.29293457 22.34387695 51.08586914 22.75025391 51.90283203 23.16894531 C80.988479 38.15093465 107.83426878 57.46074912 132.79980469 78.52832031 C134.32749055 79.7945183 135.89968673 81.00655207 137.4765625 82.2109375 C138.14429688 82.78070313 138.81203125 83.35046875 139.5 83.9375 C139.5 84.5975 139.5 85.2575 139.5 85.9375 C140.09423264 86.20674286 140.68846527 86.47598572 141.30070496 86.75338745 C143.50126803 87.93818272 144.93198189 89.12175438 146.6887207 90.88330078 C147.58534172 91.77530685 147.58534172 91.77530685 148.50007629 92.68533325 C149.13555893 93.3280014 149.77104156 93.97066956 150.42578125 94.6328125 C151.09159714 95.29908661 151.75741302 95.96536072 152.44340515 96.65182495 C153.85193182 98.06337061 155.25802933 99.47734381 156.66186523 100.89355469 C158.78911149 103.03891236 160.92410443 105.17630434 163.06054688 107.3125 C164.43276149 108.68963618 165.80452063 110.0672264 167.17578125 111.4453125 C167.80519119 112.07583527 168.43460114 112.70635803 169.08308411 113.35598755 C176.75104744 121.10451769 183.66627583 129.45274807 190.5 137.9375 C190.92297363 138.46085938 191.34594727 138.98421875 191.78173828 139.5234375 C241.03594361 200.63885962 271.610654 272.72446807 284.25 349.9375 C284.39897736 350.82901764 284.54795471 351.72053528 284.70144653 352.6390686 C289.09211141 379.12972847 289.91575806 405.64666936 289.875 432.4375 C289.8744203 433.55570633 289.8744203 433.55570633 289.87382889 434.69650269 C289.85909396 457.34419554 289.42627179 479.57287336 285.5 501.9375 C285.25544319 503.39082591 285.01165522 504.84428135 284.76855469 506.29785156 C279.38740918 538.10325367 271.02601397 568.800891 259.5 598.9375 C259.1503418 599.86965332 258.80068359 600.80180664 258.44042969 601.76220703 C249.40870383 625.70282527 237.60971342 649.04710087 223.93554688 670.66503906 C222.44518253 673.02427568 220.9790959 675.39743826 219.515625 677.7734375 C207.95032118 696.45066312 195.29015412 713.4270788 180.53515625 729.69140625 C175.99212237 734.70531121 171.58474872 739.83413353 167.19165039 744.97924805 C151.60992175 763.21256586 151.60992175 763.21256586 144.83984375 768.91015625 C142.3793184 771.04206386 140.02310475 773.26066557 137.66040039 775.49951172 C131.32040706 781.49359266 124.77370577 787.01702834 117.85546875 792.328125 C114.71286039 794.74620496 111.69899455 797.2948928 108.6875 799.875 C101.31324095 806.06270939 93.43540845 811.49945473 85.5 816.9375 C84.87222656 817.370625 84.24445312 817.80375 83.59765625 818.25 C38.37402496 849.37163874 -13.07539174 872.31853815 -66.5 884.9375 C-67.55703125 885.19128418 -68.6140625 885.44506836 -69.703125 885.70654297 C-97.42272064 892.28262662 -125.78256525 896.07858865 -154.296875 896.10546875 C-155.56936096 896.10879715 -156.84184692 896.11212555 -158.15289307 896.11555481 C-160.83194511 896.12058323 -163.51089549 896.12340145 -166.18994141 896.12280273 C-170.19831966 896.1226824 -174.20651049 896.14312539 -178.21484375 896.16210938 C-194.73784907 896.19875013 -211.05463435 895.54117739 -227.5 893.9375 C-228.31243164 893.85944122 -229.12486328 893.78138245 -229.96191406 893.70095825 C-276.78809011 889.11446735 -323.59887163 877.27986254 -366.18945312 857.02880859 C-368.49627188 855.93926085 -370.81578786 854.8825096 -373.140625 853.83203125 C-385.11226613 848.36998565 -396.48753263 842.00763439 -407.87890625 835.43310547 C-410.1749334 834.12298416 -412.48392012 832.84866038 -414.8125 831.59765625 C-430.56539914 823.10736864 -444.94220813 812.46606346 -458.85107422 801.25097656 C-460.53127915 799.91258412 -462.23193596 798.60544468 -463.94140625 797.3046875 C-471.71740722 791.36338773 -478.91768113 784.99379263 -486 778.2421875 C-489.73204338 774.68698931 -493.6068157 771.32358744 -497.546875 768 C-501.17533038 764.16835112 -502.92567985 760.20820456 -502.875 754.9375 C-502.5743289 746.87951443 -498.20806417 741.35672237 -492.5 735.9375 C-491.84 735.9375 -491.18 735.9375 -490.5 735.9375 C-490.2525 735.31875 -490.005 734.7 -489.75 734.0625 C-488.26259631 731.53391373 -487.06321991 731.21910996 -484.5 729.9375 C-484.10748047 729.08865234 -484.10748047 729.08865234 -483.70703125 728.22265625 C-482.05535406 725.09569458 -479.68239046 722.83013125 -477.1875 720.375 C-476.71376953 719.89353516 -476.24003906 719.41207031 -475.75195312 718.91601562 C-470.84296426 714.03388853 -467.20308873 711.49734186 -460.1875 711.3125 C-454.24216366 711.45979437 -451.3988794 712.64319387 -447.3125 716.8828125 C-446.714375 717.56085937 -446.11625 718.23890625 -445.5 718.9375 C-444.23725503 720.23707503 -442.9662117 721.5286322 -441.6875 722.8125 C-441.02878906 723.48152344 -440.37007812 724.15054688 -439.69140625 724.83984375 C-436.38931728 728.00066688 -432.82768893 730.81227367 -429.26171875 733.66796875 C-426.72004638 735.75666981 -424.33176843 737.93334367 -421.9375 740.1875 C-414.68090965 746.8055104 -406.51897112 752.2951157 -398.5 757.9375 C-397.69127441 758.51411377 -396.88254883 759.09072754 -396.04931641 759.68481445 C-381.62042268 769.91639043 -366.15001809 778.30558218 -350.375 786.25 C-349.41216095 786.73918411 -349.41216095 786.73918411 -348.42987061 787.23825073 C-330.88778536 796.12091206 -312.86956352 802.80572729 -293.9375 808.0625 C-293.02790527 808.31829834 -292.11831055 808.57409668 -291.18115234 808.83764648 C-253.81991574 819.33835399 -216.16312822 826.41991369 -177.25 826.1875 C-175.84800858 826.18284729 -175.84800858 826.18284729 -174.41769409 826.17810059 C-159.70359419 826.12109287 -145.12057703 825.71612996 -130.5 823.9375 C-129.38173828 823.80327637 -128.26347656 823.66905273 -127.11132812 823.53076172 C-111.34304299 821.58024645 -95.8858035 818.90081462 -80.5 814.9375 C-78.80375488 814.5041333 -78.80375488 814.5041333 -77.07324219 814.06201172 C-61.14206223 809.94791579 -45.68812079 805.27354282 -30.5 798.9375 C-29.13681641 798.37724121 -29.13681641 798.37724121 -27.74609375 797.80566406 C0.51709077 786.13300773 27.20636675 771.27664585 52.2265625 753.67919922 C56.18746072 750.9375 56.18746072 750.9375 59.5 750.9375 C59.84224609 750.05964844 59.84224609 750.05964844 60.19140625 749.1640625 C61.85457806 746.33418807 63.72028231 745.14477018 66.4375 743.3125 C71.64156274 739.65467056 76.28444971 735.64559367 80.9375 731.31640625 C83.14936063 729.26301734 85.39678707 727.27660738 87.6875 725.3125 C91.11767639 722.33642028 94.29578957 719.16071177 97.48046875 715.92578125 C100.12898478 713.31824806 102.9127748 710.89332517 105.73828125 708.48046875 C107.52504065 706.96450561 107.52504065 706.96450561 109.10546875 705.23828125 C110.5 703.9375 110.5 703.9375 112.5 703.9375 C112.74621094 703.3703125 112.99242187 702.803125 113.24609375 702.21875 C114.71235008 699.55116839 116.47175802 697.64992537 118.5625 695.4375 C122.71935291 690.90335312 126.40285663 686.16820122 130.04296875 681.21484375 C132.79846461 677.49566475 135.71400171 673.91029715 138.625 670.3125 C147.37019128 659.43101646 154.55429394 648.02331977 161.5 635.9375 C161.98694336 635.09123047 162.47388672 634.24496094 162.97558594 633.37304688 C166.03010797 628.05861125 169.06542624 622.73354991 172.09228516 617.40332031 C173.37603055 615.15465079 174.6746809 612.9156038 175.98046875 610.6796875 C206.66393666 557.86515956 218.92576554 491.56082769 218.81567383 431.18164062 C218.81250772 427.57130836 218.83612794 423.96179499 218.86132812 420.3515625 C218.91839008 399.38218365 217.09578355 378.62481935 213.25 358 C213.03947998 356.85708496 212.82895996 355.71416992 212.61206055 354.53662109 C203.24306952 305.21372121 185.46703784 257.77610719 157.5 215.9375 C157.10361328 215.3408252 156.70722656 214.74415039 156.29882812 214.12939453 C148.27052502 202.10433222 139.52261141 190.47978041 130.39453125 179.26953125 C129.10178513 177.67825407 127.82904484 176.07056605 126.57421875 174.44921875 C121.8781278 168.47961161 116.80207373 163.05826553 111.4375 157.6875 C110.77685547 157.0260498 110.11621094 156.36459961 109.43554688 155.68310547 C105.52566387 151.81681631 101.5024325 148.13028868 97.34155273 144.53613281 C94.86711851 142.38810214 92.46729708 140.16294387 90.0625 137.9375 C85.37430128 133.67200772 80.5656252 129.74052193 75.5 125.9375 C74.36138266 125.05806343 73.223416 124.17778407 72.0859375 123.296875 C43.72674987 101.48716176 11.94983212 82.76102847 -21.5 69.9375 C-24.63393874 75.97444177 -27.25461097 82.09429867 -29.72265625 88.4296875 C-30.10941025 89.41566925 -30.49616425 90.401651 -30.89463806 91.41751099 C-31.70741555 93.49261987 -32.51830323 95.56846985 -33.32739258 97.64501953 C-34.55691668 100.79818137 -35.79464067 103.94803542 -37.03320312 107.09765625 C-37.82601715 109.12480596 -38.61835072 111.15214366 -39.41015625 113.1796875 C-39.7758522 114.10917206 -40.14154816 115.03865662 -40.51832581 115.99630737 C-42.81109551 121.90180439 -44.77360483 127.84235093 -46.5 133.9375 C-45.73429687 134.16050781 -44.96859375 134.38351563 -44.1796875 134.61328125 C-20.82045368 143.01962973 1.25956879 157.60664753 20.8515625 172.67431641 C22.51456854 173.94866375 24.19262791 175.20058322 25.875 176.44921875 C32.52635093 181.42264621 38.72741078 186.72705037 44.78515625 192.40625 C47.0673252 194.53408523 49.38216872 196.59411157 51.75 198.625 C55.87028409 202.19705502 59.68332651 206.04631444 63.5 209.9375 C64.325 210.7625 65.15 211.5875 66 212.4375 C66.825 213.2625 67.65 214.0875 68.5 214.9375 C69.07540527 215.48897705 69.65081055 216.0404541 70.24365234 216.60864258 C75.22483918 221.44703292 79.50840574 226.53998815 83.625 232.125 C84.26606689 232.99084717 84.90713379 233.85669434 85.56762695 234.7487793 C123.35606456 286.22538915 148.32168344 349.44817137 148.73828125 413.8984375 C148.746353 415.12366119 148.75442474 416.34888489 148.76274109 417.61123657 C148.77650852 420.20142232 148.78726313 422.79162565 148.79516602 425.38183594 C148.80658014 427.97010816 148.82685943 430.55835888 148.85668945 433.14648438 C149.74644578 510.64972802 119.50876555 586.31027884 69.4375 645.125 C68.9427417 645.70757568 68.4479834 646.29015137 67.93823242 646.89038086 C64.61938092 650.75366699 61.22279879 654.45760723 57.5 657.9375 C56.84 657.9375 56.18 657.9375 55.5 657.9375 C55.2525 658.515 55.005 659.0925 54.75 659.6875 C53.31700012 662.26689979 51.71575324 663.99871592 49.5 665.9375 C48.84 665.9375 48.18 665.9375 47.5 665.9375 C47.10554687 666.81728516 47.10554687 666.81728516 46.703125 667.71484375 C42.19042915 676.05160978 32.67833601 681.90555571 25.28173828 687.56591797 C23.62236531 688.84330319 21.97870719 690.13787073 20.33984375 691.44140625 C-2.05247089 709.07783105 -27.04405398 724.28288693 -53.5 734.9375 C-54.88687012 735.49727539 -54.88687012 735.49727539 -56.30175781 736.06835938 C-137.88428575 768.59241225 -225.80536151 767.54220187 -306.5 732.9375 C-325.59227634 724.44982186 -344.40822294 715.01961827 -361.5 702.9375 C-362.15935547 702.47504883 -362.81871094 702.01259766 -363.49804688 701.53613281 C-406.77606102 671.10931694 -406.77606102 671.10931694 -410.5 659.9375 C-411.08540622 653.84927526 -409.73443375 650.89022669 -406.5 645.9375 C-405.84 645.9375 -405.18 645.9375 -404.5 645.9375 C-404.41621094 645.37546875 -404.33242188 644.8134375 -404.24609375 644.234375 C-403.27104948 641.23266805 -401.67188491 639.52193682 -399.5625 637.1875 C-398.49708984 635.98867187 -398.49708984 635.98867187 -397.41015625 634.765625 C-395.5 632.9375 -395.5 632.9375 -393.5 632.9375 C-393.26667969 632.37933594 -393.03335938 631.82117188 -392.79296875 631.24609375 C-390.05869691 626.36405551 -385.53498032 622.74489759 -381.5 618.9375 C-380.943125 618.35613281 -380.38625 617.77476562 -379.8125 617.17578125 C-375.05864328 612.85521876 -369.24826983 613.10797838 -363.08984375 613.33203125 C-357.49886695 614.27501428 -355.09371504 616.76757749 -351.5 620.9375 C-349.83828478 622.54679518 -348.17153934 624.15091128 -346.5 625.75 C-345.12231951 627.1020817 -343.77508899 628.48826691 -342.5 629.9375 C-342.5 630.5975 -342.5 631.2575 -342.5 631.9375 C-341.62190674 632.11055664 -341.62190674 632.11055664 -340.72607422 632.28710938 C-338.34275922 632.98344093 -336.87974797 633.88385497 -334.8828125 635.34375 C-334.20138184 635.83560791 -333.51995117 636.32746582 -332.81787109 636.83422852 C-332.09422363 637.36330811 -331.37057617 637.8923877 -330.625 638.4375 C-329.07939073 639.54213775 -327.53250041 640.6449851 -325.984375 641.74609375 C-325.21931641 642.29120605 -324.45425781 642.83631836 -323.66601562 643.39794922 C-270.39056298 681.26483429 -201.52878184 694.71330928 -137.52880859 684.46484375 C-87.71643479 675.79204612 -41.78232113 653.7633999 -4.8046875 619.08984375 C-2.75311844 617.17388688 -0.65142008 615.36399031 1.5 613.5625 C49.38564062 571.60185751 73.44781059 505.87113768 78.5 443.9375 C78.89645382 437.58661477 78.78553146 431.29057509 78.5 424.9375 C78.45746094 423.90141602 78.41492188 422.86533203 78.37109375 421.79785156 C76.57064862 381.80719529 65.53243238 346.20721222 47.375 310.8125 C47.0375174 310.15305389 46.70003479 309.49360779 46.35232544 308.81417847 C40.6393249 297.69419689 34.37487119 287.10081069 26.8125 277.125 C26.30267578 276.45122314 25.79285156 275.77744629 25.26757812 275.08325195 C16.57064749 263.70121068 7.43775965 253.22559755 -3.5 243.9375 C-4.04430664 243.47166504 -4.58861328 243.00583008 -5.14941406 242.52587891 C-25.07695407 225.62234023 -47.37901882 211.91306536 -71.5 201.9375 C-74.97796901 204.67279126 -76.11121749 208.50230402 -77.609375 212.5078125 C-77.89927307 213.26230682 -78.18917114 214.01680115 -78.487854 214.79415894 C-79.41614227 217.21412351 -80.33352424 219.63804015 -81.25 222.0625 C-82.15039286 224.42615267 -83.05312628 226.78889048 -83.95739746 229.15106201 C-84.5588886 230.72268046 -85.15857911 232.29498923 -85.75646973 233.86798096 C-87.27897644 237.8519113 -88.84889534 241.80658824 -90.51367188 245.73339844 C-90.8386969 246.50223358 -91.16372192 247.27106873 -91.49859619 248.0632019 C-92.11760491 249.51679777 -92.7442364 250.9671802 -93.37982178 252.41360474 C-94.93304534 256.05904572 -95.87445804 258.95960345 -95.5 262.9375 C-94.69820312 263.36417969 -93.89640625 263.79085938 -93.0703125 264.23046875 C-47.10054804 289.50862721 -15.06211609 326.67553731 0.1328125 377.15625 C8.2978462 406.11928546 10.14609389 437.18922457 5.5 466.9375 C5.39236328 467.64680664 5.28472656 468.35611328 5.17382812 469.08691406 C-0.2522373 502.67027378 -18.94662566 533.01798043 -41.51171875 557.7265625 C-43.0960382 559.48830083 -44.59390998 561.26838787 -46.0625 563.125 C-49.24388555 566.79582949 -52.79528396 569.80734412 -56.5 572.9375 C-57.47324219 573.78699219 -58.44648437 574.63648438 -59.44921875 575.51171875 C-83.49653327 596.40510568 -111.23345997 610.43902111 -142.3125 617.25 C-143.38540283 617.48928223 -143.38540283 617.48928223 -144.47998047 617.73339844 C-161.14552503 621.13944025 -178.58512746 620.12660419 -195.5 619.9375 C-196.30147461 619.93556641 -197.10294922 619.93363281 -197.92871094 619.93164062 C-237.57908017 619.73505972 -276.33752515 598.05079248 -306.5 573.9375 C-307.25667969 573.33679688 -308.01335937 572.73609375 -308.79296875 572.1171875 C-312.63702809 568.96268107 -315.11545029 566.60699041 -315.8359375 561.60546875 C-315.9286107 555.72072042 -315.10567134 551.70067378 -311.5 546.9375 C-310.96375 546.22464844 -310.4275 545.51179687 -309.875 544.77734375 C-307.80028358 542.11911334 -305.66117627 539.52600772 -303.5 536.9375 C-303.02933105 536.3698291 -302.55866211 535.8021582 -302.07373047 535.21728516 C-300.53604282 533.36740182 -298.98841831 531.52630024 -297.4375 529.6875 C-296.95539063 529.1092749 -296.47328125 528.5310498 -295.9765625 527.93530273 C-286.05451129 516.2899303 -286.05451129 516.2899303 -279.7421875 515.6640625 C-270.38194605 515.38173503 -265.89811753 517.08914716 -259 523.125 C-257.5 524.9375 -257.5 524.9375 -257.5 526.9375 C-256.79673584 527.20320801 -256.09347168 527.46891602 -255.36889648 527.74267578 C-252.32663867 529.0097007 -249.49484939 530.48442674 -246.59765625 532.0546875 C-244.88932617 532.96541016 -244.88932617 532.96541016 -243.14648438 533.89453125 C-240.78598709 535.1544503 -238.43389919 536.42717871 -236.08398438 537.70703125 C-207.9273785 552.62924366 -172.10189031 552.62193261 -141.99609375 543.4765625 C-129.81851466 539.49346294 -119.35320894 533.07376486 -109.5 524.9375 C-108.93007324 524.4729541 -108.36014648 524.0084082 -107.77294922 523.52978516 C-84.42185984 504.42893457 -67.16665897 479.98469285 -63.6809082 449.34423828 C-61.30095561 417.6821969 -65.39787278 386.82455987 -85.75 361.25 C-86.99233808 359.80587315 -88.24120848 358.36730774 -89.5 356.9375 C-90.6446875 355.4215625 -90.6446875 355.4215625 -91.8125 353.875 C-95.94247043 349.36084627 -100.6854589 345.69654555 -105.5 341.9375 C-106.02142578 341.52999512 -106.54285156 341.12249023 -107.08007812 340.70263672 C-115.4324356 333.36226738 -115.4324356 333.36226738 -125.5 329.9375 C-125.58378906 331.04867188 -125.66757812 332.15984375 -125.75390625 333.3046875 C-126.41611586 338.59072626 -128.3722046 343.18620961 -130.4375 348.0625 C-131.15645311 349.79364649 -131.87393937 351.52540301 -132.58984375 353.2578125 C-132.9235498 354.06250977 -133.25725586 354.86720703 -133.60107422 355.69628906 C-134.68824338 358.40683033 -135.62747298 361.15089537 -136.5 363.9375 C-134.01096862 366.44891476 -131.50897758 368.92913452 -128.921875 371.33984375 C-112.91852774 386.52430628 -103.76044061 405.74927586 -103.09594727 427.95458984 C-102.91187427 443.68275441 -105.45363288 461.21210165 -115.5 473.9375 C-116.16 473.9375 -116.82 473.9375 -117.5 473.9375 C-117.60441406 474.50984375 -117.70882813 475.0821875 -117.81640625 475.671875 C-118.61159499 478.30735768 -119.77901491 479.99781308 -121.4375 482.1875 C-122.22447266 483.24710938 -122.22447266 483.24710938 -123.02734375 484.328125 C-123.51332031 484.85921875 -123.99929688 485.3903125 -124.5 485.9375 C-125.16 485.9375 -125.82 485.9375 -126.5 485.9375 C-126.85771484 486.80761719 -126.85771484 486.80761719 -127.22265625 487.6953125 C-133.22508429 498.23168465 -148.49047767 504.07023222 -159.51171875 507.19140625 C-178.60718225 511.95903178 -197.81074177 508.12845167 -214.75 498.5625 C-228.4399583 490.22869249 -228.4399583 490.22869249 -230.4921875 485.79296875 C-230.99105469 484.87451172 -230.99105469 484.87451172 -231.5 483.9375 C-232.82513954 483.57295358 -234.15950832 483.24076713 -235.5 482.9375 C-237.87153084 480.55976096 -239.63535626 477.72289835 -241.5 474.9375 C-242.00917969 474.20273437 -242.51835937 473.46796875 -243.04296875 472.7109375 C-254.07410605 455.75304521 -256.76698485 432.35258642 -252.81640625 412.6953125 C-251.91282519 409.6283859 -250.84579948 406.83517451 -249.5 403.9375 C-249.0875 402.95652344 -248.675 401.97554688 -248.25 400.96484375 C-244.51288335 392.73681703 -239.32085198 385.77354262 -233.5 378.9375 C-232.66597656 377.95265625 -231.83195312 376.9678125 -230.97265625 375.953125 C-219.71815882 363.70010825 -203.57714838 356.80581522 -186.99853516 355.78320312 C-181.82301593 355.62211276 -176.67228295 355.71971967 -171.5 355.9375 C-169.12023571 350.63260878 -167.26619185 345.28488573 -165.5 339.75 C-162.3676138 330.15998767 -158.7716419 320.79668916 -155.03881836 311.42651367 C-151.40960355 302.30133451 -147.90925001 293.13322623 -144.45584106 283.94015503 C-139.46229687 270.64968183 -134.35129063 257.4211541 -129.03930664 244.25439453 C-125.11330625 234.51240977 -121.29274768 224.73206329 -117.5 214.9375 C-113.29358989 204.07723856 -109.03940539 193.24045638 -104.6875 182.4375 C-99.59901707 169.79194168 -94.65853726 157.09137042 -89.75 144.375 C-89.39755219 143.46218262 -89.04510437 142.54936523 -88.68197632 141.60888672 C-85.21870098 132.63494909 -81.7697976 123.65585936 -78.35675049 114.66268921 C-74.99885359 105.81745122 -71.55843597 97.01673928 -68 88.25 C-62.96743493 75.76716842 -58.14676283 63.20959368 -53.375 50.625 C-44.14179839 26.30207628 -44.14179839 26.30207628 -39.75 15.1875 C-39.17741455 13.7173645 -39.17741455 13.7173645 -38.59326172 12.2175293 C-35.92610949 5.53031277 -33.03094842 -0.24522235 -27.5 -5.0625 C-18.35803287 -8.10982238 -8.50484347 -3.23852892 0 0 Z " fill="#A60B13" transform="translate(670.5,79.0625)"/>
</svg>
