<?xml version="1.0" encoding="UTF-8"?>
<svg version="1.1" xmlns="http://www.w3.org/2000/svg" width="1024" height="1024">
<path d="M0 0 C2.30963702 0.00536671 4.61907969 0.00001092 6.92871094 -0.00634766 C26.30828802 -0.01665937 44.57294009 2.24502485 63.43652344 6.63037109 C64.31324707 6.83178711 65.1899707 7.03320312 66.09326172 7.24072266 C71.12105367 8.44569068 75.59611711 10.02324508 80.31152344 12.13037109 C82.17813077 12.70028762 84.05361987 13.24185194 85.93652344 13.75537109 C92.2219578 15.64319655 98.21317169 18.05910034 104.24902344 20.63037109 C105.1489502 21.01016113 106.04887695 21.38995117 106.97607422 21.78125 C110.64920941 23.37035633 113.99189386 24.91423666 117.31542969 27.16162109 C119.9496758 28.89259898 122.13231423 29.90656581 125.04980469 31.00927734 C130.57706959 33.12973527 135.46840547 35.97061899 140.49902344 39.06787109 C141.34916016 39.58027344 142.19929688 40.09267578 143.07519531 40.62060547 C147.97117067 43.59599744 152.78714223 46.61004742 157.31152344 50.13037109 C157.31152344 50.79037109 157.31152344 51.45037109 157.31152344 52.13037109 C158.19839844 52.37787109 159.08527344 52.62537109 159.99902344 52.88037109 C163.443086 54.18001734 165.64177147 55.61766336 168.31152344 58.13037109 C168.31152344 58.79037109 168.31152344 59.45037109 168.31152344 60.13037109 C168.88644531 60.23220703 169.46136719 60.33404297 170.05371094 60.43896484 C172.7229813 61.25637117 174.26985013 62.43794567 176.43652344 64.19287109 C177.62568359 65.14806641 177.62568359 65.14806641 178.83886719 66.12255859 C179.65484375 66.78513672 180.47082031 67.44771484 181.31152344 68.13037109 C182.0759375 68.73107422 182.84035156 69.33177734 183.62792969 69.95068359 C197.71732732 81.04579409 211.51510809 92.88125459 223.94433594 105.82568359 C225.48419185 107.37052258 225.48419185 107.37052258 228.31152344 109.13037109 C228.31152344 109.79037109 228.31152344 110.45037109 228.31152344 111.13037109 C229.30152344 111.46037109 230.29152344 111.79037109 231.31152344 112.13037109 C231.45589844 112.76974609 231.60027344 113.40912109 231.74902344 114.06787109 C231.93464844 114.74849609 232.12027344 115.42912109 232.31152344 116.13037109 C232.86324219 116.38689453 233.41496094 116.64341797 233.98339844 116.90771484 C237.2448475 118.62052282 239.57874893 121.14519268 242.12402344 123.75537109 C242.66099854 124.3002417 243.19797363 124.8451123 243.7512207 125.40649414 C247.77250394 129.51409971 251.59095824 133.74886717 255.31152344 138.13037109 C256.28551794 139.25386564 257.26091636 140.37614381 258.23730469 141.49755859 C270.07395829 155.093954 281.69799196 168.80609629 292.70214844 183.09130859 C294.16749676 184.94789069 295.69012281 186.72752374 297.24902344 188.50537109 C299.31152344 191.13037109 299.31152344 191.13037109 299.31152344 194.13037109 C299.91383789 194.395354 300.51615234 194.66033691 301.13671875 194.93334961 C303.40024103 196.17920162 304.5203002 197.27199632 306.10839844 199.28271484 C306.59179688 199.894375 307.07519531 200.50603516 307.57324219 201.13623047 C308.064375 201.77367187 308.55550781 202.41111328 309.06152344 203.06787109 C309.568125 203.70144531 310.07472656 204.33501953 310.59667969 204.98779297 C314.31152344 209.74900106 314.31152344 209.74900106 314.31152344 213.13037109 C314.90989014 213.39213135 315.50825684 213.6538916 316.12475586 213.92358398 C318.44663781 215.20493516 319.63766936 216.39280833 321.29980469 218.43896484 C321.83831055 219.09872314 322.37681641 219.75848145 322.93164062 220.43823242 C323.49012695 221.14101318 324.04861328 221.84379395 324.62402344 222.56787109 C325.19926758 223.28418701 325.77451172 224.00050293 326.3671875 224.73852539 C339.83875245 241.72631333 339.83875245 241.72631333 339.63574219 252.51708984 C338.37450675 262.68295138 327.75141796 269.63611644 320.30371094 275.49755859 C318.72817239 276.70191763 317.15249994 277.90612527 315.57128906 279.10302734 C303.23200384 288.46187844 291.59605892 298.53640523 280.31152344 309.13037109 C276.07153058 313.06701487 272.74851339 316.05152199 267.31152344 318.13037109 C267.00859375 318.74009766 266.70566406 319.34982422 266.39355469 319.97802734 C265.18618925 322.37968206 263.91108994 323.64557897 261.87402344 325.38037109 C261.2771875 325.90115234 260.68035156 326.42193359 260.06542969 326.95849609 C258.31152344 328.13037109 258.31152344 328.13037109 255.31152344 328.13037109 C254.98152344 329.12037109 254.65152344 330.11037109 254.31152344 331.13037109 C252.34536683 332.19537259 250.34425418 333.19870284 248.31152344 334.13037109 C247.98152344 334.46037109 247.65152344 334.79037109 247.31152344 335.13037109 C233.99022703 336.20666127 233.99022703 336.20666127 229.43652344 333.31787109 C227.31152344 331.13037109 227.31152344 331.13037109 227.31152344 328.13037109 C226.73917969 327.93314453 226.16683594 327.73591797 225.57714844 327.53271484 C222.41709471 325.57675055 220.90624859 322.81865537 219.06152344 319.69287109 C218.51625 318.81405273 218.51625 318.81405273 217.95996094 317.91748047 C216.26284581 315.10703229 215.31152344 313.47036536 215.31152344 310.13037109 C214.32152344 309.80037109 213.33152344 309.47037109 212.31152344 309.13037109 C210.99291992 307.41210938 210.99291992 307.41210938 209.68261719 305.20068359 C209.20501953 304.40533203 208.72742188 303.60998047 208.23535156 302.79052734 C207.74486328 301.95392578 207.254375 301.11732422 206.74902344 300.25537109 C205.76885639 298.61196194 204.78839924 296.96872578 203.80761719 295.32568359 C203.37634521 294.59365723 202.94507324 293.86163086 202.50073242 293.10742188 C201.48510305 291.41894586 200.40450162 289.76983837 199.31152344 288.13037109 C199.31152344 287.14037109 199.31152344 286.15037109 199.31152344 285.13037109 C198.65152344 285.13037109 197.99152344 285.13037109 197.31152344 285.13037109 C197.31152344 284.14037109 197.31152344 283.15037109 197.31152344 282.13037109 C196.32152344 281.80037109 195.33152344 281.47037109 194.31152344 281.13037109 C192.37402344 278.58349609 192.37402344 278.58349609 190.31152344 275.38037109 C189.63089844 274.33365234 188.95027344 273.28693359 188.24902344 272.20849609 C187.28996094 270.68482422 187.28996094 270.68482422 186.31152344 269.13037109 C185.44527344 267.79232422 185.44527344 267.79232422 184.56152344 266.42724609 C183.31152344 264.13037109 183.31152344 264.13037109 183.31152344 261.13037109 C182.70848389 260.87368652 182.10544434 260.61700195 181.48413086 260.35253906 C179.08082114 259.00059295 178.09412095 257.83547661 176.54980469 255.57568359 C176.07091797 254.87830078 175.59203125 254.18091797 175.09863281 253.46240234 C174.36870117 252.36992188 174.36870117 252.36992188 173.62402344 251.25537109 C172.87668945 250.17449219 172.87668945 250.17449219 172.11425781 249.07177734 C168.4153272 243.62125001 168.4153272 243.62125001 167.85131836 240.95410156 C167.67318604 240.35227051 167.49505371 239.75043945 167.31152344 239.13037109 C166.32152344 238.80037109 165.33152344 238.47037109 164.31152344 238.13037109 C162.74121094 236.42333984 162.74121094 236.42333984 161.18652344 234.31787109 C160.66832031 233.63080078 160.15011719 232.94373047 159.61621094 232.23583984 C158.32662446 230.15474071 157.87874755 228.48102958 157.31152344 226.13037109 C155.98744675 225.44550384 154.65243103 224.78166907 153.31152344 224.13037109 C149.31152344 219.79703776 149.31152344 219.79703776 149.31152344 216.13037109 C148.74820312 215.90091797 148.18488281 215.67146484 147.60449219 215.43505859 C144.69760096 213.78105234 142.85555214 211.74140473 140.62402344 209.25537109 C139.83640625 208.39169922 139.04878906 207.52802734 138.23730469 206.63818359 C136.41047857 204.25923355 135.89314099 202.97523956 135.31152344 200.13037109 C133.32774674 198.84600375 133.32774674 198.84600375 131.31152344 198.13037109 C131.31152344 197.47037109 131.31152344 196.81037109 131.31152344 196.13037109 C130.75722656 195.91509766 130.20292969 195.69982422 129.63183594 195.47802734 C126.55507857 193.6910218 124.49256087 191.22081998 122.18652344 188.56787109 C117.21820536 183.01020426 111.97938141 177.98240103 106.31152344 173.13037109 C104.94253906 171.92960937 104.94253906 171.92960937 103.54589844 170.70458984 C86.9579744 156.44518455 67.70719286 145.02546893 47.31152344 137.13037109 C46.5290625 136.82615234 45.74660156 136.52193359 44.94042969 136.20849609 C13.25201519 124.81229565 -25.30184693 127.33240036 -55.68847656 141.13037109 C-59.67799574 143.06198258 -63.60435508 145.10710131 -67.52441406 147.17529297 C-68.64203125 147.75053711 -68.64203125 147.75053711 -69.78222656 148.33740234 C-70.43900391 148.68262939 -71.09578125 149.02785645 -71.77246094 149.38354492 C-73.68847656 150.13037109 -73.68847656 150.13037109 -77.68847656 150.13037109 C-77.68847656 150.79037109 -77.68847656 151.45037109 -77.68847656 152.13037109 C-78.67847656 152.13037109 -79.66847656 152.13037109 -80.68847656 152.13037109 C-81.01847656 153.12037109 -81.34847656 154.11037109 -81.68847656 155.13037109 C-83.78848459 156.62995429 -85.86198133 157.98495587 -88.06347656 159.31787109 C-89.35527656 160.12678122 -90.64562792 160.93800905 -91.93457031 161.75146484 C-92.89532471 162.35643799 -92.89532471 162.35643799 -93.87548828 162.97363281 C-103.93361277 169.39100338 -112.81760788 177.20095836 -121.68847656 185.13037109 C-122.24293457 185.62553223 -122.79739258 186.12069336 -123.36865234 186.63085938 C-130.11973086 192.69183677 -136.63297397 198.98107371 -143.06347656 205.38037109 C-144.04465454 206.35453979 -144.04465454 206.35453979 -145.0456543 207.34838867 C-150.2441357 212.56409017 -155.07455171 218.04508274 -159.83300781 223.66162109 C-160.3834375 224.31130859 -160.93386719 224.96099609 -161.50097656 225.63037109 C-162.34595703 226.63583984 -162.34595703 226.63583984 -163.20800781 227.66162109 C-164.68847656 229.13037109 -164.68847656 229.13037109 -166.68847656 229.13037109 C-166.91277344 229.82775391 -167.13707031 230.52513672 -167.36816406 231.24365234 C-168.98523945 234.77921066 -171.26426119 237.43448084 -173.81347656 240.31787109 C-174.80673347 241.46538381 -175.79891116 242.61383151 -176.79003906 243.76318359 C-177.28020508 244.3294043 -177.77037109 244.895625 -178.27539062 245.47900391 C-182.11529751 249.96641409 -185.89475622 254.5672854 -189.28222656 259.40771484 C-189.74628906 259.97619141 -190.21035156 260.54466797 -190.68847656 261.13037109 C-191.34847656 261.13037109 -192.00847656 261.13037109 -192.68847656 261.13037109 C-192.79160156 261.76974609 -192.89472656 262.40912109 -193.00097656 263.06787109 C-193.22785156 263.74849609 -193.45472656 264.42912109 -193.68847656 265.13037109 C-194.67847656 265.46037109 -195.66847656 265.79037109 -196.68847656 266.13037109 C-197.05769392 267.45421679 -197.38446741 268.79004751 -197.68847656 270.13037109 C-199.77579635 273.50199228 -202.19748012 276.63723516 -204.56347656 279.81787109 C-205.2015625 280.69765625 -205.83964844 281.57744141 -206.49707031 282.48388672 C-207.11453125 283.31984375 -207.73199219 284.15580078 -208.36816406 285.01708984 C-208.9326123 285.78239014 -209.49706055 286.54769043 -210.07861328 287.33618164 C-211.68847656 289.13037109 -211.68847656 289.13037109 -214.68847656 290.13037109 C-214.78257812 290.85611328 -214.87667969 291.58185547 -214.97363281 292.32958984 C-215.79839027 295.5610166 -217.05505813 297.34668853 -219.12597656 299.94287109 C-219.7434375 300.73306641 -220.36089844 301.52326172 -220.99707031 302.33740234 C-221.55523437 302.92908203 -222.11339844 303.52076172 -222.68847656 304.13037109 C-223.34847656 304.13037109 -224.00847656 304.13037109 -224.68847656 304.13037109 C-224.77097656 304.74912109 -224.85347656 305.36787109 -224.93847656 306.00537109 C-225.68847656 308.13037109 -225.68847656 308.13037109 -227.37988281 309.23193359 C-232.63104185 311.27553186 -238.92671218 311.29625237 -244.12207031 309.10302734 C-249.16730517 305.85645019 -253.5374047 301.69816436 -257.93457031 297.63818359 C-261.06300703 294.78930931 -264.26706809 292.0456225 -267.50097656 289.31787109 C-268.30970215 288.63398315 -268.30970215 288.63398315 -269.13476562 287.9362793 C-271.52695213 285.92088815 -273.93503659 283.9351926 -276.38769531 281.99365234 C-278.29466707 280.44929661 -279.97945476 278.88164893 -281.68847656 277.13037109 C-282.92951148 276.01613757 -284.18018763 274.91258247 -285.43847656 273.81787109 C-286.13457031 273.20943359 -286.83066406 272.60099609 -287.54785156 271.97412109 C-288.94243772 270.77294469 -290.34827626 269.5846721 -291.76660156 268.41162109 C-292.40082031 267.88568359 -293.03503906 267.35974609 -293.68847656 266.81787109 C-294.26597656 266.34736328 -294.84347656 265.87685547 -295.43847656 265.39208984 C-296.68847656 264.13037109 -296.68847656 264.13037109 -296.68847656 262.13037109 C-297.41035156 261.89060547 -298.13222656 261.65083984 -298.87597656 261.40380859 C-302.09356377 259.94695661 -304.12051182 258.17086293 -306.68847656 255.75537109 C-309.23721972 253.37388921 -311.73489769 251.09465262 -314.50097656 248.96630859 C-315.22285156 248.36044922 -315.94472656 247.75458984 -316.68847656 247.13037109 C-316.68847656 246.47037109 -316.68847656 245.81037109 -316.68847656 245.13037109 C-317.58373047 244.73398437 -317.58373047 244.73398437 -318.49707031 244.32958984 C-324.2414582 241.18604781 -327.73578608 235.20540816 -329.68847656 229.13037109 C-330.41033947 222.39298394 -328.47343531 217.67258507 -324.62597656 212.19287109 C-323.98660156 211.51224609 -323.34722656 210.83162109 -322.68847656 210.13037109 C-322.02847656 210.13037109 -321.36847656 210.13037109 -320.68847656 210.13037109 C-320.57310547 209.53361572 -320.45773437 208.93686035 -320.33886719 208.32202148 C-319.27809877 204.74750268 -316.62914406 202.29685614 -314.18847656 199.56787109 C-313.08197753 198.30575276 -311.97651691 197.04272334 -310.87207031 195.77880859 C-310.05391846 194.84633301 -310.05391846 194.84633301 -309.21923828 193.89501953 C-307.17463392 191.53801788 -305.20938857 189.12173962 -303.25097656 186.69287109 C-299.49454548 182.08176579 -295.6768558 177.52698338 -291.81347656 173.00537109 C-291.25345947 172.34093994 -290.69344238 171.67650879 -290.11645508 170.99194336 C-289.58592529 170.37504639 -289.05539551 169.75814941 -288.50878906 169.12255859 C-288.03715332 168.56938965 -287.56551758 168.0162207 -287.07958984 167.44628906 C-285.68847656 166.13037109 -285.68847656 166.13037109 -282.68847656 165.13037109 C-282.31093122 163.80887633 -281.98189892 162.47305207 -281.68847656 161.13037109 C-279.92631889 158.94676641 -278.16767629 156.91640791 -276.25097656 154.88037109 C-275.74759766 154.32607422 -275.24421875 153.77177734 -274.72558594 153.20068359 C-273.42620231 151.79948903 -272.06148983 150.45949809 -270.68847656 149.13037109 C-270.02847656 149.13037109 -269.36847656 149.13037109 -268.68847656 149.13037109 C-268.59179688 148.54126953 -268.49511719 147.95216797 -268.39550781 147.34521484 C-267.54273163 144.67381099 -266.42037984 143.5884313 -264.37597656 141.69287109 C-262.1570339 139.58305676 -260.28157749 137.6134993 -258.37597656 135.19287109 C-257.81910156 134.51224609 -257.26222656 133.83162109 -256.68847656 133.13037109 C-256.02847656 133.13037109 -255.36847656 133.13037109 -254.68847656 133.13037109 C-254.37330078 132.33953125 -254.37330078 132.33953125 -254.05175781 131.53271484 C-252.1332022 128.15187901 -249.53479262 125.49542728 -246.87597656 122.69287109 C-246.27575684 122.05542969 -245.67553711 121.41798828 -245.05712891 120.76123047 C-239.39860153 114.79656985 -233.61612367 108.95446221 -227.81347656 103.13037109 C-226.93457764 102.24679932 -226.05567871 101.36322754 -225.15014648 100.45288086 C-220.15624856 95.47127502 -215.05346318 90.70799492 -209.68847656 86.13037109 C-208.60533875 85.18111141 -207.52325796 84.23064387 -206.44238281 83.27880859 C-170.73076306 52.13037109 -170.73076306 52.13037109 -162.68847656 52.13037109 C-162.35847656 51.14037109 -162.02847656 50.15037109 -161.68847656 49.13037109 C-159.69824219 47.65991211 -159.69824219 47.65991211 -157.09472656 46.13427734 C-156.14597656 45.57546875 -155.19722656 45.01666016 -154.21972656 44.44091797 C-153.21941406 43.8640625 -152.21910156 43.28720703 -151.18847656 42.69287109 C-150.21910156 42.11988281 -149.24972656 41.54689453 -148.25097656 40.95654297 C-143.18644801 37.99883106 -138.13477302 35.34259492 -132.74023438 33.04516602 C-130.13565483 31.88389049 -127.70063778 30.49990382 -125.2265625 29.08666992 C-87.84237918 7.95668678 -42.47644799 -0.11694067 0 0 Z " fill="#A50C14" transform="translate(503.6884765625,586.86962890625)"/>
<path d="M0 0 C1.33168415 0.31332788 2.66371635 0.62518017 3.99609375 0.93554688 C9.7392236 2.28527997 15.45411226 3.72096653 21.140625 5.29296875 C30.10342761 7.76657673 39.05210517 9.3373503 48.25 10.6875 C54.98588914 11.67625437 61.64796349 12.70801471 68.27880859 14.25878906 C71.18428746 14.89069653 74.11079524 15.21935995 77.0625 15.5625 C92.96578344 17.78516908 92.96578344 17.78516908 98.9375 23.0625 C104.56988987 34.32727974 101.23243137 49.99034944 98.25 61.6875 C97.92773438 62.61433594 97.60546875 63.54117188 97.2734375 64.49609375 C95.88442123 68.82749182 95.0905762 73.22193895 94.25 77.6875 C93.21506681 83.18558255 92.02940861 88.37729636 90.25 93.6875 C79.33803907 140.4107398 76.80541002 191.23952589 85.125 238.5 C85.24770264 239.20438202 85.37040527 239.90876404 85.49682617 240.63449097 C86.93581876 248.71356655 88.89756991 256.18072144 92.25 263.6875 C92.83797675 265.14475058 93.4201763 266.60434777 93.99609375 268.06640625 C98.09982553 278.28623409 98.09982553 278.28623409 103.40234375 287.92578125 C104.25 289.6875 104.25 289.6875 104.25 293.6875 C105.24 294.0175 106.23 294.3475 107.25 294.6875 C107.3325 295.47125 107.415 296.255 107.5 297.0625 C107.7475 297.92875 107.995 298.795 108.25 299.6875 C109.11625 300.120625 109.11625 300.120625 110 300.5625 C113.45957678 302.29228839 115.34441988 305.37616405 117.25 308.6875 C117.25 309.3475 117.25 310.0075 117.25 310.6875 C118.57 311.3475 119.89 312.0075 121.25 312.6875 C121.25 313.6775 121.25 314.6675 121.25 315.6875 C121.82234375 315.9453125 122.3946875 316.203125 122.984375 316.46875 C125.46128995 317.80115942 127.3841166 319.33806118 129.5 321.1875 C130.20640625 321.7959375 130.9128125 322.404375 131.640625 323.03125 C133.25 324.6875 133.25 324.6875 133.25 326.6875 C133.889375 326.790625 134.52875 326.89375 135.1875 327 C135.868125 327.226875 136.54875 327.45375 137.25 327.6875 C137.58 328.6775 137.91 329.6675 138.25 330.6875 C138.93707031 330.75582031 139.62414062 330.82414062 140.33203125 330.89453125 C143.44526489 331.74056395 145.5244673 333.12682714 148.10424805 335.02636719 C163.6367455 346.45285752 182.16592075 349.26089762 200.73022461 352.98193359 C203.14673952 353.46634284 205.56154847 353.95931728 207.97485352 354.45947266 C233.9088007 359.78756511 259.96064748 361.39944704 286.35180664 362.6484375 C319.18872126 364.22365359 319.18872126 364.22365359 325.25 368.6875 C325.25 369.3475 325.25 370.0075 325.25 370.6875 C325.889375 370.81125 326.52875 370.935 327.1875 371.0625 C328.2084375 371.371875 328.2084375 371.371875 329.25 371.6875 C330.760513 374.708526 330.16221144 377.71551912 329.9375 381 C329.85886719 382.31613281 329.78023437 383.63226563 329.69921875 384.98828125 C329.30854219 389.71007903 328.57151751 394.36297493 327.82739258 399.0402832 C327.20200543 402.9906674 326.61208915 406.94521917 326.03125 410.90234375 C325.87442497 411.96851677 325.87442497 411.96851677 325.71443176 413.05622864 C325.50033988 414.51263552 325.28644879 415.96907193 325.07275391 417.42553711 C324.75087186 419.61905853 324.42822108 421.81246586 324.10546875 424.00585938 C323.68320171 426.87636028 323.26369648 429.74724659 322.84594727 432.6184082 C322.47305943 435.17850838 322.08976012 437.73619439 321.69897461 440.29370117 C320.25576694 449.90665384 319.40569423 459.54039917 318.64819336 469.22583008 C316.44526563 497.0852416 316.44526563 497.0852416 310.6875 503.0625 C302.00965657 510.34069127 284.97114705 507.34166159 274.29345703 506.43701172 C265.41158981 505.37145116 256.69608335 503.39786066 247.9765625 501.4375 C243.40039609 500.51651053 238.80740809 499.84711902 234.1875 499.1875 C228.76549678 498.41221125 223.44262178 497.58844902 218.125 496.25 C212.94510079 494.96327345 207.77596828 494.15509034 202.49829102 493.40771484 C184.87625025 490.90494584 167.37886439 487.24089067 150.5324707 481.41333008 C147.94535112 480.59062107 145.34405073 479.95683212 142.703125 479.328125 C134.99903134 477.44967278 127.51211603 474.95640987 120 472.4375 C119.27143799 472.19450165 118.54287598 471.9515033 117.79223633 471.70114136 C107.34986296 468.20900981 97.19449343 464.43671718 87.25 459.6875 C85.6266971 458.99600239 84.00190958 458.30796887 82.375 457.625 C78.22537432 455.78424827 74.41893701 453.46086992 70.55859375 451.08203125 C67.85199241 449.44707917 65.10585424 448.04027306 62.25 446.6875 C62.25 446.0275 62.25 445.3675 62.25 444.6875 C61.54875 444.59082031 60.8475 444.49414062 60.125 444.39453125 C56.73363898 443.56051448 54.24791572 442.16074827 51.25 440.375 C50.239375 439.78074219 49.22875 439.18648438 48.1875 438.57421875 C45.36244373 436.75972118 42.75659899 434.92224358 40.25 432.6875 C40.25 432.0275 40.25 431.3675 40.25 430.6875 C39.53972656 430.43742187 38.82945312 430.18734375 38.09765625 429.9296875 C34.94400714 428.55402163 32.45525128 426.85270609 29.6875 424.8125 C28.29337891 423.79542969 28.29337891 423.79542969 26.87109375 422.7578125 C24.46228854 420.85517947 22.28927336 418.98108275 20.25 416.6875 C20.25 416.0275 20.25 415.3675 20.25 414.6875 C19.63125 414.625625 19.0125 414.56375 18.375 414.5 C17.67375 414.231875 16.9725 413.96375 16.25 413.6875 C15.56867549 412.02677151 14.90257873 410.359733 14.25 408.6875 C12.40028304 407.63728897 12.40028304 407.63728897 10.25 406.6875 C7.5 404.1875 7.5 404.1875 5.25 401.6875 C5.25 401.0275 5.25 400.3675 5.25 399.6875 C4.26 399.3575 3.27 399.0275 2.25 398.6875 C2.25 397.6975 2.25 396.7075 2.25 395.6875 C1.59 395.6875 0.93 395.6875 0.25 395.6875 C0.25 394.6975 0.25 393.7075 0.25 392.6875 C-0.41 392.6875 -1.07 392.6875 -1.75 392.6875 C-1.75 392.0275 -1.75 391.3675 -1.75 390.6875 C-2.306875 390.501875 -2.86375 390.31625 -3.4375 390.125 C-6.77200247 388.05220117 -8.88233857 385.1243032 -10.75 381.6875 C-10.75 380.6975 -10.75 379.7075 -10.75 378.6875 C-11.74 378.3575 -12.73 378.0275 -13.75 377.6875 C-15.1977922 374.79191559 -15.75 372.94561062 -15.75 369.6875 C-16.74 369.3575 -17.73 369.0275 -18.75 368.6875 C-22.99961257 362.7025468 -26.18421023 356.13120342 -28.734375 349.26953125 C-29.86105879 346.40515438 -31.20183619 343.69821526 -32.5625 340.9375 C-39.75942275 325.43503761 -43.69809944 308.70358976 -47.23876953 292.05517578 C-47.92446242 288.87950737 -48.68061031 285.72185548 -49.4375 282.5625 C-50.80345588 276.63824191 -51.85125285 270.69928764 -52.75 264.6875 C-52.91371094 263.64078125 -53.07742188 262.5940625 -53.24609375 261.515625 C-56.78196242 237.28533116 -57.07382132 213.03187017 -57.01074219 188.60229492 C-56.99935731 184.1475552 -57.00612022 179.69305475 -57.01762295 175.23832321 C-57.07537253 148.87568039 -55.87335127 123.04738143 -52.40625 96.8828125 C-51.75206073 91.85957349 -51.32986296 86.84328193 -50.99609375 81.7890625 C-50.68480061 77.86578066 -50.23165903 73.96807909 -49.75 70.0625 C-49.6667749 69.37414062 -49.5835498 68.68578125 -49.49780273 67.9765625 C-49.12948008 65.07352683 -48.67841601 62.47274804 -47.75 59.6875 C-47.55154832 57.85733448 -47.38817103 56.02320086 -47.25 54.1875 C-47.01621969 51.08156158 -46.73926426 48.65529278 -45.75 45.6875 C-45.48967821 43.81542512 -45.26686849 41.93802097 -45.06640625 40.05859375 C-44.94330078 38.94033203 -44.82019531 37.82207031 -44.69335938 36.66992188 C-44.44240191 34.33408704 -44.1923791 31.99815158 -43.94335938 29.66210938 C-41.58335205 8.27530724 -41.58335205 8.27530724 -36.75 1.6875 C-35.76 1.3575 -34.77 1.0275 -33.75 0.6875 C-33.42 -0.3025 -33.09 -1.2925 -32.75 -2.3125 C-23.72030533 -6.82734734 -9.19456118 -2.26175765 0 0 Z " fill="#A50C14" transform="translate(650.75,52.3125)"/>
<path d="M0 0 C9.95738563 7.46803922 10.07488853 23.87176391 11.76733398 35.41455078 C12.5381489 40.59822944 13.43906437 45.68343302 14.66015625 50.78125 C16.68836564 59.30925154 18.15555818 67.9241169 19.625 76.5625 C19.77585052 77.44490356 19.92670105 78.32730713 20.0821228 79.2364502 C24.54921256 105.50196154 28.39680546 132.09391889 30.25 158.6875 C30.38027588 160.44259888 30.38027588 160.44259888 30.51318359 162.2331543 C31.41746521 175.48112917 31.40227059 188.72808845 31.38037109 202.00170898 C31.37499566 205.87813195 31.38035473 209.75443984 31.38671875 213.63085938 C31.39729543 245.41083905 31.39729543 245.41083905 28.8125 257.8125 C27.86508139 262.48790332 27.01566821 267.14625845 26.375 271.875 C24.42692681 284.77699291 21.14993293 297.49300143 17.0625 309.875 C16.81274414 310.63514404 16.56298828 311.39528809 16.30566406 312.1784668 C14.50896648 317.42853352 14.50896648 317.42853352 12.25 319.6875 C11.72421357 321.403066 11.25579059 323.13629027 10.8125 324.875 C8.75898216 331.84285251 5.81563585 338.264065 2.6875 344.8125 C2.20418213 345.83239014 1.72086426 346.85228027 1.22290039 347.90307617 C-0.79611191 352.06761579 -2.44091586 355.44178485 -5.75 358.6875 C-6.73922921 360.44592983 -6.73922921 360.44592983 -7.5625 362.36328125 C-9.78049571 366.96415208 -12.61854005 370.85630863 -15.75 374.875 C-16.32250488 375.61476074 -16.89500977 376.35452148 -17.48486328 377.11669922 C-22.88168628 384.0028135 -28.65391874 390.41984917 -34.75 396.6875 C-35.38856934 397.35185059 -36.02713867 398.01620117 -36.68505859 398.70068359 C-38.71737386 400.81062369 -40.76233961 402.90740549 -42.8125 405 C-43.45622559 405.66531738 -44.09995117 406.33063477 -44.76318359 407.01611328 C-45.36855957 407.62567871 -45.97393555 408.23524414 -46.59765625 408.86328125 C-47.13398682 409.40895752 -47.67031738 409.95463379 -48.22290039 410.5168457 C-49.75 411.6875 -49.75 411.6875 -52.75 411.6875 C-52.976875 412.30625 -53.20375 412.925 -53.4375 413.5625 C-55.13862958 416.3167098 -56.80376154 416.50900461 -59.75 417.6875 C-61.09410262 419.70485205 -61.09410262 419.70485205 -61.75 421.6875 C-62.74 421.6875 -63.73 421.6875 -64.75 421.6875 C-64.98074219 422.27144531 -65.21148437 422.85539062 -65.44921875 423.45703125 C-67.08132004 426.25561935 -68.90457973 427.53796665 -71.5625 429.375 C-72.41457031 429.97699219 -73.26664063 430.57898438 -74.14453125 431.19921875 C-76.75225452 432.68878781 -78.79363619 433.28942588 -81.75 433.6875 C-81.75 434.3475 -81.75 435.0075 -81.75 435.6875 C-82.74 435.6875 -83.73 435.6875 -84.75 435.6875 C-84.75 436.3475 -84.75 437.0075 -84.75 437.6875 C-85.74 437.6875 -86.73 437.6875 -87.75 437.6875 C-87.75 438.3475 -87.75 439.0075 -87.75 439.6875 C-88.74 439.6875 -89.73 439.6875 -90.75 439.6875 C-91.08 440.6775 -91.41 441.6675 -91.75 442.6875 C-93.25292969 443.82250977 -93.25292969 443.82250977 -95.171875 444.87890625 C-95.86796875 445.26626953 -96.5640625 445.65363281 -97.28125 446.05273438 C-98.0134375 446.44783203 -98.745625 446.84292969 -99.5 447.25 C-100.21671875 447.64896484 -100.9334375 448.04792969 -101.671875 448.45898438 C-105.29595506 450.45422698 -108.87260582 452.22575671 -112.75 453.6875 C-116.31137262 455.4369462 -119.84999556 457.22137392 -123.37329102 459.04614258 C-130.48013925 462.68118191 -137.66257007 465.79833929 -145.125 468.625 C-146.24551758 469.05176025 -147.36603516 469.47852051 -148.52050781 469.91821289 C-162.84908745 475.31015579 -177.28625046 480.36055038 -192.36328125 483.1796875 C-194.69296812 483.44897778 -194.69296812 483.44897778 -195.75 484.6875 C-198.16459569 485.18603593 -200.57215793 485.63844579 -203 486.0625 C-207.91936766 486.94625439 -212.77611217 487.90275968 -217.625 489.125 C-228.51021341 491.71606465 -239.67790699 493.13391327 -250.75 494.6875 C-251.49088867 494.79642578 -252.23177734 494.90535156 -252.99511719 495.01757812 C-259.76673416 495.90681266 -266.57937278 495.90854689 -273.39892578 495.92773438 C-275.50982564 495.93754567 -277.61979178 495.96870898 -279.73046875 496 C-281.08593181 496.00652261 -282.44140171 496.01177599 -283.796875 496.015625 C-285.01213867 496.0249707 -286.22740234 496.03431641 -287.47949219 496.04394531 C-291.05791925 495.65394057 -292.9301311 494.89654828 -295.75 492.6875 C-296.08 491.6975 -296.41 490.7075 -296.75 489.6875 C-297.41 489.6875 -298.07 489.6875 -298.75 489.6875 C-300.78349322 483.65424325 -301.23912748 477.89474179 -301.625 471.5625 C-303.43712982 445.39405243 -306.37195777 419.29261481 -310.82421875 393.44140625 C-311.00855469 392.36157471 -311.19289063 391.28174316 -311.3828125 390.16918945 C-311.74153124 388.07924228 -312.10696495 385.99043173 -312.48046875 383.90307617 C-315.2188714 368.08906826 -315.2188714 368.08906826 -310.75 360.6875 C-300.90666541 351.36223565 -282.55031715 352.82399253 -269.8125 351.6875 C-251.28193873 351.17180209 -251.28193873 351.17180209 -233.75 346.6875 C-232.41881821 346.52470648 -231.08304369 346.3983801 -229.74609375 346.29296875 C-224.5758258 345.75932361 -219.78383411 344.47989771 -214.8125 343 C-213.89791016 342.73018311 -212.98332031 342.46036621 -212.04101562 342.18237305 C-210.16800869 341.6250464 -208.29640542 341.06297971 -206.42626953 340.49609375 C-204.74236933 339.98732916 -203.05612337 339.48620328 -201.36669922 338.99609375 C-187.08533839 334.84738793 -172.81606274 328.76853312 -160.82421875 319.84765625 C-157.75 317.6875 -157.75 317.6875 -154.75 317.6875 C-154.42 316.6975 -154.09 315.7075 -153.75 314.6875 C-152.078125 313.00390625 -152.078125 313.00390625 -150 311.25 C-149.28070313 310.6415625 -148.56140625 310.033125 -147.8203125 309.40625 C-146.79550781 308.55546875 -146.79550781 308.55546875 -145.75 307.6875 C-144.80125 306.883125 -143.8525 306.07875 -142.875 305.25 C-140.75 303.6875 -140.75 303.6875 -138.75 303.6875 C-138.75 303.0275 -138.75 302.3675 -138.75 301.6875 C-138.09 301.6875 -137.43 301.6875 -136.75 301.6875 C-136.36134766 300.59115234 -136.36134766 300.59115234 -135.96484375 299.47265625 C-134.71371992 296.60432414 -133.27468936 294.55136319 -131.3125 292.125 C-130.71566406 291.38121094 -130.11882812 290.63742187 -129.50390625 289.87109375 C-128.92511719 289.15050781 -128.34632813 288.42992187 -127.75 287.6875 C-126.95916016 286.56021484 -126.95916016 286.56021484 -126.15234375 285.41015625 C-125.45818359 284.55744141 -125.45818359 284.55744141 -124.75 283.6875 C-124.09 283.6875 -123.43 283.6875 -122.75 283.6875 C-122.62923096 283.1298999 -122.50846191 282.5722998 -122.3840332 281.99780273 C-121.67990711 279.43209413 -120.70038346 277.14764582 -119.60546875 274.72265625 C-119.17741943 273.76311035 -118.74937012 272.80356445 -118.30834961 271.81494141 C-117.85596924 270.80351074 -117.40358887 269.79208008 -116.9375 268.75 C-113.59382014 261.19464346 -110.54823772 253.79970139 -108.37109375 245.8203125 C-107.75 243.6875 -107.75 243.6875 -106.75 242.6875 C-106.20156266 239.70984292 -105.70681685 236.74192423 -105.25 233.75 C-105.05470703 232.52313477 -105.05470703 232.52313477 -104.85546875 231.27148438 C-100.12860767 200.88110983 -101.46402456 170.07682324 -104.75 139.625 C-104.83953949 138.79397766 -104.92907898 137.96295532 -105.02133179 137.10675049 C-105.27896345 134.74621536 -105.54377597 132.38663963 -105.8125 130.02734375 C-105.89168167 129.31407425 -105.97086334 128.60080475 -106.05244446 127.86592102 C-106.46264966 124.15720373 -106.46264966 124.15720373 -107.75 120.6875 C-107.853125 119.470625 -107.95625 118.25375 -108.0625 117 C-108.48354203 112.91774037 -109.36926498 109.1440101 -110.46875 105.19140625 C-112.18460413 98.91537078 -113.76852063 92.61421663 -115.29296875 86.2890625 C-115.50911331 85.39424667 -115.72525787 84.49943085 -115.94795227 83.57749939 C-116.84207426 79.87102768 -117.73352184 76.16392506 -118.62182617 72.45605469 C-119.27996027 69.71213811 -119.94241503 66.96929373 -120.60546875 64.2265625 C-120.90701118 62.95965073 -120.90701118 62.95965073 -121.21464539 61.66714478 C-121.85811377 57.8688455 -121.85811377 57.8688455 -123.75 54.6875 C-124.50522815 47.53140373 -124.09885431 42.48597241 -119.75 36.6875 C-114.77378386 32.39802282 -108.51721015 31.06918416 -102.125 30.1875 C-98.80757191 29.69602917 -96.02128768 28.69073072 -92.90454102 27.49215698 C-89.57332008 26.24804505 -86.18286176 25.22375624 -82.78125 24.19140625 C-81.23979704 23.71677282 -79.69854553 23.24148474 -78.1574707 22.765625 C-77.35701324 22.51876953 -76.55655579 22.27191406 -75.73184204 22.01757812 C-58.24065019 16.60794447 -41.10869618 10.53459134 -24.03027344 3.94750977 C-20.89092998 2.74163364 -17.74928303 1.54449986 -14.59765625 0.37109375 C-13.75082275 0.05454834 -12.90398926 -0.26199707 -12.03149414 -0.58813477 C-7.56572889 -2.00599731 -4.21251344 -2.01051778 0 0 Z " fill="#A50C14" transform="translate(359.75,79.3125)"/>
</svg>
