<svg xmlns="http://www.w3.org/2000/svg" width="1024" height="1024"><path fill="#a50c14" d="M503.688 586.87q3.465.005 6.93-.007c19.379-.01 37.643 2.252 56.507 6.637l2.657.61c5.028 1.205 9.503 2.783 14.218 4.89q2.8.855 5.625 1.625c6.285 1.888 12.277 4.304 18.313 6.875l2.727 1.15c3.673 1.59 7.015 3.134 10.339 5.381 2.634 1.731 4.817 2.745 7.734 3.848 5.528 2.12 10.419 4.961 15.45 8.058l2.576 1.553c4.896 2.976 9.712 5.99 14.236 9.51v2l2.688.75c3.444 1.3 5.642 2.737 8.312 5.25v2l1.742.309c2.67.817 4.216 1.999 6.383 3.753l2.402 1.93L685 655l2.316 1.82c14.09 11.095 27.888 22.93 40.317 35.875 1.54 1.545 1.54 1.545 4.367 3.305v2l3 1 .438 1.937L736 703l1.672.777c3.261 1.713 5.595 4.238 8.14 6.848l1.628 1.651c4.021 4.108 7.84 8.342 11.56 12.724q1.462 1.685 2.926 3.367c11.836 13.597 23.46 27.309 34.465 41.594 1.465 1.857 2.988 3.636 4.547 5.414C803 778 803 778 803 781l1.825.803c2.264 1.246 3.384 2.339 4.972 4.35l1.465 1.853 1.488 1.931 1.535 1.92C818 796.62 818 796.62 818 800l1.813.793c2.322 1.282 3.513 2.47 5.175 4.516l1.632 1.999 1.693 2.13 1.743 2.17c13.471 16.988 13.471 16.988 13.268 27.779-1.261 10.166-11.884 17.119-19.332 22.98a1259 1259 0 0 1-4.732 3.606C806.92 875.332 795.285 885.406 784 896c-4.24 3.937-7.563 6.921-13 9l-.918 1.848c-1.207 2.401-2.482 3.667-4.52 5.402l-1.808 1.578C762 915 762 915 759 915l-1 3a101 101 0 0 1-6 3l-1 1c-13.321 1.076-13.321 1.076-17.875-1.813C731 918 731 918 731 915l-1.734-.598c-3.16-1.956-4.671-4.714-6.516-7.84l-1.102-1.775C719.951 901.977 719 900.34 719 897l-3-1c-1.319-1.718-1.319-1.718-2.629-3.93l-1.447-2.41-1.486-2.535-2.942-4.93-1.307-2.218c-1.015-1.688-2.096-3.338-3.189-4.977v-3h-2v-3l-3-1c-1.937-2.547-1.937-2.547-4-5.75l-2.062-3.172L690 856l-1.75-2.703C687 851 687 851 687 848l-1.827-.778c-2.404-1.352-3.39-2.517-4.935-4.777l-1.45-2.113-1.475-2.207c-.748-1.08-.748-1.08-1.51-2.184-3.7-5.45-3.7-5.45-4.263-8.117L671 826l-3-1c-1.57-1.707-1.57-1.707-3.125-3.813l-1.57-2.082c-1.29-2.08-1.738-3.754-2.305-6.105a178 178 0 0 0-4-2c-4-4.333-4-4.333-4-8l-1.707-.695c-2.907-1.654-4.749-3.694-6.98-6.18l-2.387-2.617c-1.827-2.38-2.344-3.663-2.926-6.508-1.984-1.284-1.984-1.284-4-2v-2l-1.68-.652c-3.076-1.787-5.139-4.258-7.445-6.91C620.907 769.88 615.668 764.851 610 760l-2.766-2.426C590.646 743.314 571.396 731.895 551 724l-2.371-.922C516.94 711.682 478.387 714.202 448 728c-3.99 1.932-7.916 3.977-11.836 6.045l-2.258 1.162-1.99 1.046C430 737 430 737 426 737v2h-3l-1 3a100 100 0 0 1-6.375 4.187q-1.938 1.214-3.871 2.434l-1.941 1.222C399.755 756.261 390.871 764.071 382 772l-1.68 1.5c-6.751 6.061-13.264 12.35-19.695 18.75l-1.982 1.968c-5.199 5.216-10.03 10.697-14.788 16.313l-1.667 1.969-1.708 2.031C339 816 339 816 337 816l-.68 2.113c-1.617 3.536-3.896 6.191-6.445 9.074q-1.49 1.721-2.977 3.446l-1.485 1.716c-3.84 4.487-7.62 9.088-11.007 13.928L313 848h-2l-.312 1.937L310 852l-3 1a84 84 0 0 0-1 4c-2.087 3.372-4.509 6.507-6.875 9.687l-1.934 2.667c-.617.835-1.235 1.671-1.87 2.533l-1.711 2.319C292 876 292 876 289 877l-.285 2.2c-.825 3.23-2.082 5.016-4.152 7.612l-1.872 2.395L281 891h-2l-.25 1.875C278 895 278 895 276.309 896.102c-5.252 2.043-11.547 2.064-16.743-.13-5.045-3.246-9.415-7.404-13.812-11.464-3.129-2.85-6.333-5.593-9.566-8.32l-1.634-1.382a307 307 0 0 0-7.253-5.943c-1.907-1.544-3.592-3.112-5.301-4.863a320 320 0 0 0-3.75-3.313l-2.11-1.843q-2.091-1.803-4.218-3.563L210 853.687l-1.75-1.425C207 851 207 851 207 849l-2.187-.727c-3.218-1.456-5.245-3.233-7.813-5.648-2.549-2.381-5.046-4.66-7.812-6.79L187 834v-2l-1.809-.8c-5.744-3.144-9.238-9.125-11.191-15.2-.722-6.737 1.215-11.458 5.063-16.938L181 797h2c.115-.597.23-1.194.35-1.808 1.06-3.575 3.71-6.026 6.15-8.755q1.66-1.893 3.316-3.789l1.653-1.883c2.045-2.357 4.01-4.774 5.969-7.203a761 761 0 0 1 11.437-13.687l1.697-2.013 1.608-1.87 1.429-1.676C218 753 218 753 221 752a65 65 0 0 0 1-4 107 107 0 0 1 5.438-6.25l1.525-1.68c1.3-1.4 2.664-2.74 4.037-4.07h2l.293-1.785c.853-2.672 1.975-3.757 4.02-5.653 2.218-2.11 4.094-4.079 6-6.5L247 720h2l.637-1.598c1.918-3.38 4.517-6.037 7.176-8.84l1.818-1.931c5.659-5.965 11.441-11.807 17.244-17.631l2.663-2.677c4.994-4.982 10.097-9.745 15.462-14.323q1.625-1.424 3.246-2.852C332.958 639 332.958 639 341 639l1-3c1.99-1.47 1.99-1.47 4.594-2.996l2.875-1.693 3.031-1.749 2.938-1.736c5.064-2.958 10.116-5.614 15.51-7.911 2.605-1.161 5.04-2.545 7.514-3.959 37.384-21.13 82.75-29.203 125.226-29.086M650.75 52.313q1.998.47 3.996.935a455 455 0 0 1 17.145 4.357C680.853 60.08 689.802 61.65 699 63c6.736.989 13.398 2.02 20.029 3.571 2.905.632 5.832.96 8.784 1.304 15.903 2.223 15.903 2.223 21.875 7.5C755.32 86.64 751.982 102.303 749 114l-.977 2.809c-1.389 4.331-2.182 8.725-3.023 13.191-1.035 5.498-2.22 10.69-4 16-10.912 46.723-13.445 97.552-5.125 144.813l.372 2.134c1.439 8.08 3.4 15.546 6.753 23.053q.882 2.186 1.746 4.379c4.104 10.22 4.104 10.22 9.406 19.86C755 342 755 342 755 346l3 1 .25 2.375L759 352l1.75.875c3.46 1.73 5.344 4.814 7.25 8.125v2l4 2v3l1.734.781c2.477 1.333 4.4 2.87 6.516 4.719l2.14 1.844C784 377 784 377 784 379l1.938.313L788 380l1 3 2.082.207c3.113.846 5.192 2.232 7.772 4.132 15.533 11.426 34.062 14.234 52.626 17.955q3.625.728 7.245 1.478c25.934 5.328 51.986 6.94 78.377 8.189 32.837 1.575 32.837 1.575 38.898 6.039v2l1.938.375L980 424c1.51 3.021.912 6.028.688 9.313-.08 1.316-.158 2.632-.239 3.988-.39 4.722-1.127 9.374-1.872 14.052-.625 3.95-1.215 7.905-1.796 11.862l-.317 2.154-.641 4.369-.968 6.58q-.632 4.306-1.26 8.613-.559 3.84-1.146 7.675c-1.443 9.613-2.293 19.247-3.05 28.932-2.204 27.86-2.204 27.86-7.962 33.837-8.677 7.278-25.716 4.28-36.394 3.375-8.881-1.066-17.597-3.04-26.316-5-4.577-.921-9.17-1.59-13.79-2.25-5.422-.775-10.744-1.6-16.062-2.937-5.18-1.287-10.349-2.095-15.627-2.843-17.622-2.503-35.12-6.167-51.966-11.994-2.587-.823-5.188-1.457-7.829-2.085-7.704-1.879-15.19-4.372-22.703-6.891l-2.208-.736C758.1 520.522 747.944 516.749 738 512q-2.435-1.038-4.875-2.062c-4.15-1.841-7.956-4.165-11.816-6.543-2.707-1.635-5.453-3.042-8.309-4.395v-2l-2.125-.293c-3.391-.834-5.877-2.234-8.875-4.02l-3.062-1.8c-2.826-1.815-5.431-3.652-7.938-5.887v-2l-2.152-.758c-3.154-1.375-5.643-3.077-8.41-5.117l-2.817-2.055c-2.409-1.902-4.582-3.776-6.621-6.07v-2l-1.875-.187L667 466a312 312 0 0 1-2-5c-1.85-1.05-1.85-1.05-4-2-2.75-2.5-2.75-2.5-5-5v-2l-3-1v-3h-2v-3h-2v-2l-1.687-.562c-3.335-2.073-5.445-5.001-7.313-8.438v-3l-3-1c-1.448-2.896-2-4.742-2-8l-3-1c-4.25-5.985-7.434-12.556-9.984-19.418-1.127-2.864-2.468-5.571-3.828-8.332-7.197-15.502-11.136-32.234-14.677-48.882-.685-3.176-1.442-6.334-2.198-9.493-1.366-5.924-2.414-11.863-3.313-17.875l-.496-3.172c-3.536-24.23-3.828-48.484-3.765-72.913.012-4.455.005-8.91-.007-13.364-.057-26.363 1.145-52.191 4.612-78.356.654-5.023 1.076-10.04 1.41-15.093.311-3.924.764-7.821 1.246-11.727l.252-2.086c.369-2.903.82-5.504 1.748-8.289.198-1.83.362-3.664.5-5.5.234-3.106.51-5.532 1.5-8.5.26-1.872.483-3.75.684-5.629l.373-3.389.75-7.007c2.36-21.387 2.36-21.387 7.193-27.975l3-1 1-3c9.03-4.515 23.555.05 32.75 2.313M359.75 79.313c9.957 7.468 10.075 23.871 11.767 35.414.771 5.184 1.672 10.269 2.893 15.367 2.028 8.528 3.496 17.143 4.965 25.781l.457 2.674C384.3 184.814 388.147 211.406 390 238l.263 3.546c.904 13.248.89 26.495.867 39.768-.005 3.877 0 7.753.007 11.63.01 31.78.01 31.78-2.575 44.181-.947 4.675-1.796 9.334-2.437 14.063-1.948 12.901-5.225 25.618-9.312 38l-.757 2.303c-1.797 5.25-1.797 5.25-4.056 7.509a113 113 0 0 0-1.437 5.188c-2.054 6.967-4.997 13.389-8.125 19.937l-1.465 3.09c-2.02 4.165-3.664 7.54-6.973 10.785-.99 1.758-.99 1.758-1.812 3.676-2.218 4.6-5.057 8.493-8.188 12.512l-1.735 2.241C336.868 463.315 331.096 469.732 325 476l-1.935 2.013a1034 1034 0 0 1-6.127 6.3l-1.951 2.016-1.835 1.847-1.625 1.653C310 491 310 491 307 491l-.687 1.875c-1.702 2.754-3.367 2.947-6.313 4.125-1.344 2.017-1.344 2.017-2 4h-3l-.7 1.77c-1.631 2.798-3.455 4.08-6.113 5.918l-2.582 1.824c-2.607 1.49-4.649 2.09-7.605 2.488v2h-3v2h-3v2h-3l-1 3c-1.503 1.135-1.503 1.135-3.422 2.191l-2.11 1.174-2.218 1.197-2.172 1.21c-3.624 1.995-7.2 3.766-11.078 5.228q-5.34 2.623-10.623 5.359c-7.107 3.635-14.29 6.752-21.752 9.578l-3.396 1.294c-14.328 5.392-28.765 10.442-43.842 13.261-2.33.27-2.33.27-3.387 1.508-2.415.499-4.822.95-7.25 1.375-4.92.884-9.776 1.84-14.625 3.063-10.885 2.59-22.053 4.008-33.125 5.562l-2.245.33c-6.772.89-13.584.891-20.404.91-2.11.01-4.22.041-6.331.072q-2.033.01-4.067.016l-3.682.028c-3.579-.39-5.451-1.147-8.271-3.356l-1-3h-2c-2.033-6.033-2.49-11.793-2.875-18.125-1.812-26.168-4.747-52.27-9.2-78.121l-.558-3.272q-.538-3.136-1.097-6.266C44.53 447.402 44.53 447.402 49 440c9.843-9.325 28.2-7.864 40.938-9 18.53-.516 18.53-.516 36.062-5a94 94 0 0 1 4.004-.395c5.17-.533 9.962-1.813 14.934-3.293l2.771-.817q2.81-.836 5.615-1.686 2.526-.765 5.06-1.5c14.28-4.15 28.55-10.228 40.542-19.149C202 397 202 397 205 397l1-3c1.672-1.684 1.672-1.684 3.75-3.437l2.18-1.844L214 387l2.875-2.437C219 383 219 383 221 383v-2h2l.785-2.215c1.251-2.868 2.69-4.921 4.653-7.348l1.808-2.253L232 367l1.598-2.277L235 363h2l.366-1.69c.704-2.565 1.684-4.85 2.779-7.275l1.297-2.908 1.37-3.065c3.344-7.555 6.39-14.95 8.567-22.93C252 323 252 323 253 322a295 295 0 0 0 1.5-8.937l.395-2.479c4.726-30.39 3.391-61.195.105-91.646-.09-.832-.18-1.663-.271-2.519q-.388-3.54-.792-7.08l-.24-2.16c-.41-3.71-.41-3.71-1.697-7.179l-.312-3.687c-.422-4.083-1.307-7.856-2.407-11.81-1.716-6.275-3.3-12.576-4.824-18.901l-.655-2.712q-1.342-5.56-2.674-11.121-.988-4.116-1.983-8.23l-.61-2.56c-.643-3.798-.643-3.798-2.535-6.979-.755-7.156-.349-12.202 4-18 4.976-4.29 11.233-5.618 17.625-6.5 3.317-.491 6.104-1.497 9.22-2.695 3.332-1.244 6.722-2.269 10.124-3.301l4.624-1.426 2.425-.748c17.491-5.41 34.623-11.483 51.702-18.07a977 977 0 0 1 9.432-3.576l2.567-.96c4.465-1.417 7.818-1.422 12.031.588"/></svg>