<?xml version="1.0" encoding="UTF-8"?>
<svg version="1.1" xmlns="http://www.w3.org/2000/svg" width="1024" height="1024">
<path d="M0 0 C2.26189908 -0.00222823 4.52334032 -0.02057978 6.78515625 -0.03930664 C8.22786294 -0.04223406 9.6705719 -0.0442232 11.11328125 -0.04516602 C12.4089502 -0.0492749 13.70461914 -0.05338379 15.03955078 -0.05761719 C18.10546875 0.18530273 18.10546875 0.18530273 20.10546875 2.18530273 C20.36718178 4.15311909 20.36718178 4.15311909 20.38394165 6.61238098 C20.40068687 8.00980278 20.40068687 8.00980278 20.41777039 9.43545532 C20.41993057 10.46125702 20.42209076 11.48705872 20.42431641 12.54394531 C20.43436203 13.62241226 20.44440765 14.70087921 20.45475769 15.81202698 C20.48579837 19.40129047 20.50270264 22.99047791 20.51953125 26.57983398 C20.53825284 29.08258191 20.55782699 31.58532358 20.57821655 34.08805847 C20.62446945 40.03053199 20.66177234 45.97302023 20.69488943 51.91557759 C20.73634236 59.24839721 20.7923673 66.58109051 20.84765625 73.91381836 C21.00199355 95.00444147 21.13564489 116.09403688 21.10546875 137.18530273 C22.04164032 137.23748962 22.97781189 137.28967651 23.94235229 137.34344482 C55.61018491 139.18656927 87.54057806 149.64015365 115.10546875 165.18530273 C115.93578613 165.65049316 116.76610352 166.11568359 117.62158203 166.5949707 C128.81290336 172.93043973 139.33537361 179.8888125 149.42431641 187.86254883 C150.87918719 189.00726127 152.35572417 190.12433578 153.8359375 191.23608398 C167.64115067 201.91639619 180.70425322 215.16916582 191.10546875 229.18530273 C192.24435547 230.68577148 192.24435547 230.68577148 193.40625 232.21655273 C199.10546875 239.85488391 199.10546875 239.85488391 199.10546875 242.18530273 C200.09546875 242.51530273 201.08546875 242.84530273 202.10546875 243.18530273 C203.62628011 245.18005531 204.96947212 247.12752169 206.29296875 249.24780273 C206.68734131 249.87195068 207.08171387 250.49609863 207.48803711 251.13916016 C211.48276715 257.588493 214.86691432 264.29683843 218.12597656 271.14086914 C219.08776447 273.14834968 220.07428516 275.14188824 221.06640625 277.13452148 C233.69276894 302.79646347 244.22941844 332.21796743 244.10546875 361.18530273 C244.68084318 361.18345915 245.25621761 361.18161556 245.84902763 361.17971611 C259.83627238 361.13558577 273.82350497 361.10259749 287.81080437 361.08167839 C294.57490409 361.07135703 301.3389574 361.05728035 308.10302734 361.03442383 C314.62579297 361.01239317 321.14852841 361.00074717 327.6713295 360.99554825 C330.16491583 360.99184137 332.65849941 360.98460321 335.15206528 360.97384262 C338.63382515 360.95940977 342.11538319 360.95732135 345.59716797 360.95825195 C346.63726013 360.9510614 347.67735229 360.94387085 348.7489624 360.9364624 C350.16666428 360.9405864 350.16666428 360.9405864 351.61300659 360.9447937 C352.43708952 360.94295012 353.26117245 360.94110653 354.11022758 360.93920708 C356.10546875 361.18530273 356.10546875 361.18530273 358.10546875 363.18530273 C358.35270691 365.05152893 358.35270691 365.05152893 358.34838867 367.34375 C358.3514653 368.20126358 358.35454193 369.05877716 358.35771179 369.942276 C358.35052628 370.86938889 358.34334076 371.79650177 358.3359375 372.75170898 C358.33525017 374.17555153 358.33525017 374.17555153 358.33454895 375.62815857 C358.33152513 377.63639576 358.32363499 379.64463057 358.3112793 381.65283203 C358.29302314 384.73860922 358.29076957 387.82408656 358.29101562 390.90991211 C358.28610058 392.85718035 358.28027232 394.80444654 358.2734375 396.75170898 C358.27232468 397.6808461 358.27121185 398.60998322 358.27006531 399.567276 C358.26368546 400.42163742 358.2573056 401.27599884 358.25073242 402.15625 C358.24692062 402.91188736 358.24310883 403.66752472 358.23918152 404.44606018 C358.10546875 406.18530273 358.10546875 406.18530273 357.10546875 407.18530273 C354.35075519 407.30527622 351.6200078 407.36078166 348.86401367 407.37475586 C347.99866501 407.38304916 347.13331635 407.39134247 346.241745 407.39988708 C344.35218869 407.4173424 342.46261007 407.43249399 340.57301903 407.44566345 C337.56394775 407.46670651 334.55498309 407.4937431 331.54597473 407.52233887 C325.12834808 407.58217097 318.71066857 407.63402646 312.29296875 407.68530273 C304.91687485 407.74491458 297.5408295 407.80790512 290.16481972 407.87718201 C287.23409715 407.90328966 284.30336875 407.92440413 281.37260437 407.94519043 C269.26081001 408.04708726 257.19726236 408.48377954 245.10546875 409.18530273 C244.93869125 410.23476074 244.77191376 411.28421875 244.6000824 412.36547852 C238.91267156 448.02333626 238.91267156 448.02333626 233.10546875 465.18530273 C232.85216797 465.95052246 232.59886719 466.71574219 232.33789062 467.50415039 C225.66569421 487.41622529 217.0442941 506.86579657 205.10546875 524.18530273 C204.68378418 524.80083008 204.26209961 525.41635742 203.82763672 526.05053711 C195.45176939 538.20014686 186.29893863 549.51375185 176.10546875 560.18530273 C175.41485352 560.90991699 174.72423828 561.63453125 174.01269531 562.38110352 C163.74252883 573.0856244 153.38725282 582.84341771 141.10546875 591.18530273 C140.44933594 591.63776367 139.79320312 592.09022461 139.1171875 592.55639648 C120.35381496 605.41750426 100.58178887 615.68457585 79.10546875 623.18530273 C78.11659668 623.5357666 77.12772461 623.88623047 76.10888672 624.24731445 C57.47609586 630.74169391 38.5364344 634.14472617 19.10546875 637.18530273 C18.34320865 655.57645532 17.9971677 673.95539486 17.859375 692.36108398 C17.85107037 693.41823483 17.84276573 694.47538567 17.83420944 695.56457138 C17.75645039 705.47446794 17.68515084 715.38439174 17.62866211 725.29443359 C17.59698946 730.77670339 17.55582126 736.25883202 17.50846672 741.74098778 C17.49246707 743.81308701 17.48013611 745.88521797 17.47155952 747.95736122 C17.45948616 750.82035636 17.43539467 753.68301041 17.40844727 756.54589844 C17.40785812 757.39702713 17.40726898 758.24815582 17.40666199 759.12507629 C17.33344397 764.95732751 17.33344397 764.95732751 15.10546875 767.18530273 C12.0078125 767.42822266 12.0078125 767.42822266 8.04296875 767.41577148 C6.98408447 767.41508415 6.98408447 767.41508415 5.90380859 767.41438293 C4.40411711 767.4113577 2.90442884 767.40346329 1.40478516 767.39111328 C-0.85786476 767.37309473 -3.120099 767.3706021 -5.3828125 767.37084961 C-26.76067452 767.31915947 -26.76067452 767.31915947 -28.89453125 765.18530273 C-28.99984154 763.81383495 -29.03689606 762.43704399 -29.04602051 761.06156921 C-29.05436417 760.17195496 -29.06270782 759.2823407 -29.07130432 758.36576843 C-29.07548874 757.38155411 -29.07967316 756.39733978 -29.08398438 755.38330078 C-29.09227768 754.35214142 -29.10057098 753.32098206 -29.1091156 752.25857544 C-29.12657185 750.00724037 -29.14172317 747.75588656 -29.15489197 745.50452232 C-29.1759154 741.92417576 -29.20295121 738.3439195 -29.23156738 734.7636261 C-29.29140399 727.13338699 -29.34329621 719.5031037 -29.39453125 711.87280273 C-29.4540579 703.09241294 -29.51692405 694.31206478 -29.58641052 685.53174782 C-29.61261454 682.03596457 -29.63366908 678.54017652 -29.65441895 675.0443573 C-29.74628934 662.06563034 -30.11453996 649.14137521 -30.89453125 636.18530273 C-31.97177963 636.0185202 -33.04902802 635.85173767 -34.15892029 635.67990112 C-66.32709445 630.68210587 -94.95632531 623.48888256 -123.89453125 608.18530273 C-124.54486328 607.84418457 -125.19519531 607.50306641 -125.86523438 607.15161133 C-136.83529539 601.35044852 -146.93156243 594.57015847 -156.89453125 587.18530273 C-158.22871094 586.2049707 -158.22871094 586.2049707 -159.58984375 585.20483398 C-171.75869632 575.86163023 -182.88236934 564.7835497 -192.89453125 553.18530273 C-194.41460893 551.53877146 -195.93545974 549.89295365 -197.45703125 548.24780273 C-202.02247456 543.16805472 -205.98141732 537.77546549 -209.89453125 532.18530273 C-210.60351562 531.21077148 -211.3125 530.23624023 -212.04296875 529.23217773 C-218.44091219 520.29750584 -223.79449825 510.91200004 -228.89453125 501.18530273 C-229.45092285 500.13971191 -229.45092285 500.13971191 -230.01855469 499.07299805 C-243.0785935 474.2319359 -253.53810628 444.91933776 -255.44262695 416.84643555 C-255.52849564 415.5959845 -255.61436432 414.34553345 -255.70283508 413.05718994 C-255.79772469 411.63560577 -255.79772469 411.63560577 -255.89453125 410.18530273 C-256.74351439 410.18668542 -256.74351439 410.18668542 -257.6096487 410.18809605 C-271.3628876 410.21015238 -285.11612341 410.22665106 -298.86937618 410.23711491 C-305.52026655 410.24234448 -312.17113911 410.24944345 -318.82202148 410.26074219 C-325.23456002 410.27156845 -331.64708629 410.27757901 -338.05963326 410.28017998 C-340.51217403 410.2820347 -342.9647141 410.2856562 -345.41724968 410.29103279 C-348.83929802 410.29823975 -352.26129496 410.29929382 -355.68334961 410.29882812 C-357.22082855 410.30422104 -357.22082855 410.30422104 -358.78936768 410.3097229 C-359.71629929 410.30834824 -360.6432309 410.30697357 -361.59825134 410.30555725 C-362.40850738 410.30647904 -363.21876341 410.30740084 -364.05357265 410.30835056 C-365.89453125 410.18530273 -365.89453125 410.18530273 -366.89453125 409.18530273 C-366.98765014 407.68111534 -367.01199153 406.17258917 -367.00805664 404.66552734 C-367.00798111 403.70460678 -367.00790558 402.74368622 -367.00782776 401.75364685 C-367.00266647 400.70886673 -366.99750519 399.66408661 -366.9921875 398.58764648 C-366.99077255 397.52365128 -366.9893576 396.45965607 -366.98789978 395.36341858 C-366.98228189 391.9498519 -366.96972636 388.53634974 -366.95703125 385.12280273 C-366.95201856 382.81486097 -366.94745525 380.50691818 -366.94335938 378.19897461 C-366.93230665 372.52772847 -366.91555112 366.85652021 -366.89453125 361.18530273 C-356.26962128 361.01269564 -345.64462309 360.84630515 -335.01953125 360.68530273 C-333.84416494 360.66748686 -333.84416494 360.66748686 -332.64505386 360.64931107 C-307.06017799 360.263482 -281.48269047 360.03820533 -255.89453125 360.18530273 C-255.77625977 359.3095459 -255.65798828 358.43378906 -255.53613281 357.53149414 C-249.24791286 312.09818568 -232.95830204 269.40031021 -204.90625 232.82983398 C-203.1871035 230.56990741 -201.55850798 228.27881266 -199.95703125 225.93530273 C-199.27640625 225.02780273 -198.59578125 224.12030273 -197.89453125 223.18530273 C-197.23453125 223.18530273 -196.57453125 223.18530273 -195.89453125 223.18530273 C-195.65347656 222.61682617 -195.41242188 222.04834961 -195.1640625 221.46264648 C-193.64485037 218.73741366 -191.82034144 216.91839934 -189.58203125 214.74780273 C-188.77121094 213.9550293 -187.96039063 213.16225586 -187.125 212.34545898 C-186.38894531 211.63260742 -185.65289062 210.91975586 -184.89453125 210.18530273 C-184.06953125 209.36030273 -183.24453125 208.53530273 -182.39453125 207.68530273 C-181.56953125 206.86030273 -180.74453125 206.03530273 -179.89453125 205.18530273 C-179.3325 204.57686523 -178.77046875 203.96842773 -178.19140625 203.34155273 C-156.50470999 180.49602538 -127.18345668 165.091499 -98.89453125 152.18530273 C-98.1355957 151.83806152 -97.37666016 151.49082031 -96.59472656 151.13305664 C-75.97347639 141.94213745 -52.14719079 138.58775981 -29.89453125 136.18530273 C-29.89747696 134.84940094 -29.89747696 134.84940094 -29.90048218 133.48651123 C-29.94954647 107.26961474 -29.82382449 81.05584132 -29.57714844 54.84008789 C-29.53687547 50.50580367 -29.50247787 46.17152675 -29.47265625 41.8371582 C-29.43595425 36.50889825 -29.38974537 31.18080324 -29.33646774 25.85268402 C-29.31797659 23.84478295 -29.30284927 21.83684791 -29.29118729 19.82889557 C-29.27444337 17.06242901 -29.2454742 14.29635415 -29.21337891 11.5300293 C-29.21013863 10.29788445 -29.21013863 10.29788445 -29.20683289 9.04084778 C-29.12275586 3.41352734 -29.12275586 3.41352734 -26.89453125 1.18530273 C-18.15874935 -0.41936599 -8.86521719 -0.00098067 0 0 Z M-73.15625 191.84936523 C-89.30586431 197.25351633 -104.67234589 204.83691891 -118.89453125 214.18530273 C-119.48862793 214.57492187 -120.08272461 214.96454102 -120.69482422 215.3659668 C-126.56470105 219.24143925 -131.9727247 223.11715139 -136.89453125 228.18530273 C-138.82286847 229.98863051 -140.75723471 231.78066911 -142.70703125 233.56030273 C-143.23546631 234.0457959 -143.76390137 234.53128906 -144.30834961 235.03149414 C-147.13436655 237.61845615 -150.0032533 240.11916393 -152.95703125 242.56030273 C-163.14360732 251.46037541 -170.7234675 262.8369854 -177.89453125 274.18530273 C-178.42433594 275.0115918 -178.95414063 275.83788086 -179.5 276.68920898 C-181.03115559 279.15535594 -182.47274451 281.6542476 -183.89453125 284.18530273 C-184.25514648 284.8235498 -184.61576172 285.46179688 -184.98730469 286.11938477 C-197.06452881 307.68029536 -209.95491586 334.80015007 -205.89453125 360.18530273 C-180.19449703 361.15492072 -154.58585501 361.80913358 -128.89453125 360.18530273 C-128.70769775 359.62190186 -128.52086426 359.05850098 -128.32836914 358.47802734 C-122.57843359 341.1774166 -116.05168119 324.80436766 -104.89453125 310.18530273 C-104.23453125 309.85530273 -103.57453125 309.52530273 -102.89453125 309.18530273 C-102.50265625 308.50467773 -102.11078125 307.82405273 -101.70703125 307.12280273 C-96.74564527 299.08193579 -89.461694 291.56513356 -81.14453125 286.99780273 C-77.94993061 285.42184608 -77.94993061 285.42184608 -76.1015625 283.32983398 C-63.95796093 271.53012202 -42.91963102 265.0718898 -26.89453125 261.18530273 C-26.87104046 253.96846369 -26.8534337 246.7516333 -26.84271908 239.53476334 C-26.83756862 236.18127804 -26.83004681 232.82783943 -26.8190918 229.47436523 C-26.76989977 214.01070714 -26.88523047 198.61952565 -27.89453125 183.18530273 C-38.15179327 178.05667172 -62.8495096 188.59204286 -73.15625 191.84936523 Z M19.10546875 186.18530273 C17.93393526 210.89642407 18.31046417 235.46624878 19.10546875 260.18530273 C24.41001642 262.58503283 29.72981438 264.85077907 35.16796875 266.93530273 C56.0151261 275.19385221 75.17065446 286.21664191 90.10546875 303.18530273 C90.58564453 303.72348633 91.06582031 304.26166992 91.56054688 304.81616211 C105.06149951 320.19071634 112.25704271 337.66446242 117.50805664 357.26196289 C117.93803507 359.17304603 117.93803507 359.17304603 119.10546875 360.18530273 C123.29906296 360.57431804 127.52192181 360.61939209 131.73046875 360.74780273 C132.71407883 360.77957108 132.71407883 360.77957108 133.71755981 360.8119812 C154.83759014 361.4781397 175.97807302 361.27301307 197.10546875 361.18530273 C196.70267276 352.91910987 196.27994853 344.92344807 193.98046875 336.93530273 C193.75875 336.14140137 193.53703125 335.3475 193.30859375 334.52954102 C192.60314864 332.07162684 191.86351973 329.62747218 191.10546875 327.18530273 C190.87118164 326.42765625 190.63689453 325.67000977 190.39550781 324.8894043 C182.26805987 299.38223048 168.18610164 275.67695716 150.88671875 255.33764648 C149.10546875 253.18530273 149.10546875 253.18530273 147.04296875 249.93530273 C144.80774558 246.76272791 142.30046183 244.56111809 139.33984375 242.07592773 C137.06996507 240.15526116 134.90653216 238.14879281 132.73046875 236.12280273 C105.90075789 212.07422044 57.73639533 179.02737999 19.10546875 186.18530273 Z M-56.89453125 324.18530273 C-61.89453125 329.18530273 -61.89453125 329.18530273 -64.26953125 331.43530273 C-78.14757566 345.9742064 -85.89453125 365.01757684 -85.89453125 385.18530273 C-84.94112642 405.88372155 -78.45855804 427.63632117 -62.89453125 442.18530273 C-62.20617187 442.85561523 -61.5178125 443.52592773 -60.80859375 444.21655273 C-43.9228506 460.17330678 -24.21025218 466.81779397 -1.26953125 466.45483398 C19.92885289 465.68419072 39.66828739 456.31044331 54.29296875 440.99780273 C70.07770076 422.83283336 76.04721924 401.92644986 74.91796875 378.18530273 C74.25976526 370.55533865 72.28660826 363.50240849 70.10546875 356.18530273 C69.63947266 354.32711914 69.63947266 354.32711914 69.1640625 352.43139648 C68.12372928 349.2412972 67.5522416 348.2790586 65.10546875 346.18530273 C64.03038559 344.70906914 62.98995717 343.20714457 61.98046875 341.68530273 C61.46226562 340.91186523 60.9440625 340.13842773 60.41015625 339.34155273 C59.10546875 337.18530273 59.10546875 337.18530273 58.10546875 334.18530273 C56.48378763 332.50314308 56.48378763 332.50314308 54.48046875 330.87280273 C53.76503906 330.26436523 53.04960938 329.65592773 52.3125 329.02905273 C51.58417969 328.42061523 50.85585938 327.81217773 50.10546875 327.18530273 C48.79091522 326.08358168 47.47823879 324.97961469 46.16796875 323.87280273 C45.60207031 323.40229492 45.03617188 322.93178711 44.453125 322.44702148 C43.10546875 321.18530273 43.10546875 321.18530273 42.10546875 319.18530273 C14.46078597 302.29179294 -33.05246349 297.33533032 -56.89453125 324.18530273 Z M-179.64453125 407.56030273 C-180.89086838 407.59243362 -180.89086838 407.59243362 -182.16238403 407.62521362 C-191.10469794 407.86339949 -199.99734045 408.19316995 -208.89453125 409.18530273 C-210.38492867 437.00605466 -195.36091327 468.33626912 -180.89453125 491.18530273 C-180.52005859 491.78455566 -180.14558594 492.38380859 -179.75976562 493.0012207 C-173.85610514 502.39538421 -167.26278014 510.90252574 -159.89453125 519.18530273 C-158.68216797 520.56395508 -158.68216797 520.56395508 -157.4453125 521.97045898 C-151.41576662 528.75753694 -145.20405906 535.1967789 -138.30859375 541.10717773 C-136.43011305 542.72425173 -134.57683357 544.36032523 -132.73046875 546.01342773 C-125.25151972 552.65281668 -117.6820027 558.33743708 -108.89453125 563.18530273 C-107.83274658 563.77674072 -107.83274658 563.77674072 -106.74951172 564.38012695 C-95.77257634 570.45093472 -84.64668683 575.79299575 -72.89453125 580.18530273 C-72.26627441 580.42087891 -71.63801758 580.65645508 -70.99072266 580.89916992 C-63.67551589 583.59454966 -56.29707136 585.69347046 -48.70703125 587.43530273 C-48.00715088 587.59861084 -47.30727051 587.76191895 -46.58618164 587.93017578 C-40.40495 589.27286433 -34.1977343 589.75724592 -27.89453125 590.18530273 C-26.92461855 563.84288648 -26.0789415 537.51135415 -27.89453125 511.18530273 C-28.56806641 510.95456055 -29.24160156 510.72381836 -29.93554688 510.48608398 C-73.81092334 495.35251855 -73.81092334 495.35251855 -77.89453125 487.18530273 C-78.90515625 486.64905273 -79.91578125 486.11280273 -80.95703125 485.56030273 C-85.74548979 482.93500822 -89.1705379 479.11530423 -92.89453125 475.18530273 C-93.71953125 474.38092773 -94.54453125 473.57655273 -95.39453125 472.74780273 C-109.34614415 458.44739951 -109.34614415 458.44739951 -110.39453125 454.12280273 C-110.75358263 452.01290447 -110.75358263 452.01290447 -112.70703125 450.49780273 C-115.34658279 447.70741968 -116.83568135 444.70764602 -118.39453125 441.24780273 C-118.84735474 440.25526489 -118.84735474 440.25526489 -119.30932617 439.24267578 C-123.80853571 429.14149743 -126.18126806 419.0721004 -127.89453125 408.18530273 C-145.16878973 407.350093 -162.35472428 407.09451265 -179.64453125 407.56030273 Z M150.01171875 407.40405273 C148.76352356 407.4373468 148.76352356 407.4373468 147.4901123 407.47131348 C144.86186983 407.54164551 142.23367002 407.61344916 139.60546875 407.68530273 C137.81120054 407.73357756 136.01692973 407.78175557 134.22265625 407.82983398 C129.85022949 407.94720488 125.47784033 408.06589456 121.10546875 408.18530273 C119.03689159 413.21954063 117.04473521 418.26182991 115.28125 423.41186523 C109.57960896 440.02629185 102.83628459 453.96383074 91.10546875 467.18530273 C90.49832031 467.91233398 89.89117188 468.63936523 89.265625 469.38842773 C85.83160339 473.46876181 82.18671207 477.05022313 78.10546875 480.48217773 C76.84218721 481.55794092 75.60765038 482.66929282 74.41796875 483.82592773 C59.50886179 498.06944956 38.65623037 505.12184637 19.10546875 510.18530273 C18.00246248 536.51957737 17.9956058 562.83171523 18.10546875 589.18530273 C21.39804927 588.73734979 24.6893252 588.28040304 27.98046875 587.82202148 C28.89828125 587.6972644 29.81609375 587.57250732 30.76171875 587.44396973 C69.12897666 582.06546108 104.9996506 563.73831325 133.10546875 537.18530273 C134.43488823 536.0556804 135.76810593 534.93050961 137.10546875 533.81030273 C146.34030515 525.72518493 153.82937801 516.00617224 161.10546875 506.18530273 C161.71003906 505.37706055 162.31460938 504.56881836 162.9375 503.73608398 C172.76122687 490.18532257 180.0837345 475.75368885 186.10546875 460.18530273 C186.62004639 458.88351074 186.62004639 458.88351074 187.14501953 457.55541992 C191.1785394 447.29944647 194.62755926 437.05758869 197.10546875 426.31030273 C197.31324951 425.41335693 197.52103027 424.51641113 197.73510742 423.59228516 C198.86695006 418.34420082 199.30469517 413.55196436 199.10546875 408.18530273 C194.69471316 408.04124053 190.28390647 407.89888991 185.87304688 407.75805664 C184.37563624 407.7100131 182.87823998 407.66151935 181.38085938 407.61254883 C179.21618302 407.54183607 177.05145843 407.47279641 174.88671875 407.40405273 C173.58798828 407.3621582 172.28925781 407.32026367 170.95117188 407.27709961 C163.96238786 407.11027744 156.99783755 407.21059756 150.01171875 407.40405273 Z " fill="#A50C14" transform="translate(516.89453125,129.814697265625)"/>
</svg>
