<svg xmlns="http://www.w3.org/2000/svg" width="1024" height="1024"><path fill="#a50c14" d="M516.895 129.815c2.261-.003 4.523-.02 6.785-.04q2.163-.005 4.328-.005l3.926-.013C535 130 535 130 537 132c.262 1.968.262 1.968.278 4.427l.034 2.823.007 3.109.03 3.268c.031 3.589.048 7.178.065 10.768q.028 3.753.059 7.508.068 8.914.116 17.827c.042 7.333.098 14.666.153 21.999.155 21.09.288 42.18.258 63.271l2.837.158C572.505 269.001 604.435 279.455 632 295l2.516 1.41c11.191 6.335 21.714 13.294 31.803 21.267a247 247 0 0 0 4.411 3.374C684.536 331.73 697.6 344.984 708 359l2.3 3.031c5.7 7.639 5.7 7.639 5.7 9.969l3 1a78 78 0 0 1 4.188 6.062l1.195 1.892c3.994 6.45 7.378 13.158 10.638 20.002a440 440 0 0 0 2.94 5.993C750.587 432.611 761.124 462.033 761 491l1.744-.006q20.98-.066 41.961-.098 10.146-.014 20.293-.047 9.783-.032 19.568-.039 3.74-.004 7.48-.021c3.482-.015 6.964-.017 10.446-.016l3.151-.022 2.865.008 2.497-.005C873 491 873 491 875 493c.247 1.866.247 1.866.243 4.158l.01 2.599-.023 2.81v2.876q-.006 3.012-.024 6.025c-.018 3.085-.02 6.17-.02 9.257l-.018 5.841-.003 2.816-.02 2.589-.011 2.29C875 536 875 536 874 537c-2.755.12-5.485.175-8.241.19l-2.623.025q-2.835.026-5.668.045-4.514.033-9.027.077-9.627.088-19.254.163-11.064.09-22.128.192-4.395.038-8.792.068c-12.112.102-24.175.538-36.267 1.24l-.505 3.18c-5.688 35.658-5.688 35.658-11.495 52.82l-.768 2.319C742.56 617.23 733.94 636.68 722 654l-1.278 1.865C712.346 668.015 703.193 679.328 693 690l-2.093 2.196C680.637 702.9 670.282 712.658 658 721l-1.988 1.371C637.248 735.232 617.476 745.5 596 753l-2.997 1.062C574.371 760.556 555.431 763.959 536 767c-.762 18.391-1.108 36.77-1.246 55.176l-.025 3.203c-.078 9.91-.15 19.82-.206 29.73a5750 5750 0 0 1-.12 16.447q-.024 3.108-.037 6.216c-.012 2.863-.036 5.726-.063 8.589l-.002 2.579c-.073 5.832-.073 5.832-2.301 8.06-3.098.243-3.098.243-7.062.23h-2.14q-2.25-.006-4.499-.024c-2.262-.018-4.525-.02-6.787-.02-21.378-.052-21.378-.052-23.512-2.186a59 59 0 0 1-.151-4.124l-.026-2.696-.012-2.982-.026-3.125q-.025-3.376-.045-6.754-.032-5.37-.077-10.74-.088-11.445-.163-22.892-.089-13.17-.192-26.34-.038-5.244-.068-10.488c-.092-12.979-.46-25.903-1.24-38.859l-3.264-.505C450.567 760.497 421.938 753.304 393 738l-1.97-1.034c-10.97-5.8-21.067-12.581-31.03-19.966l-2.695-1.98c-12.17-9.344-23.293-20.422-33.305-32.02q-2.28-2.47-4.562-4.938c-4.566-5.08-8.525-10.472-12.438-16.062l-2.148-2.953C298.454 650.112 293.1 640.727 288 631l-1.124-2.112c-13.06-24.841-23.52-54.154-25.424-82.227l-.26-3.79L261 540l-1.715.003q-20.63.033-41.26.049-9.976.007-19.952.023-9.62.016-19.238.02-3.679.003-7.358.01-5.133.01-10.266.009l-3.106.01-2.809-.004-2.455.003C151 540 151 540 150 539a70 70 0 0 1-.114-4.52v-2.912l.016-3.166.005-3.224c.005-3.413.018-6.827.03-10.24q.008-3.462.014-6.924.017-8.508.049-17.014 15.938-.259 31.875-.5l2.374-.036c25.585-.386 51.163-.611 76.751-.464l.358-2.654c6.289-45.433 22.578-88.131 50.63-124.701 1.72-2.26 3.348-4.551 4.95-6.895L319 353h2l.73-1.723c1.52-2.725 3.344-4.544 5.582-6.715l2.458-2.402L332 340l2.5-2.5 2.5-2.5 1.703-1.844C360.39 310.311 389.711 294.906 418 282l2.3-1.052c20.621-9.191 44.447-12.546 66.7-14.948l-.006-2.699c-.049-26.217.077-52.43.323-78.646q.06-6.502.105-13.003.056-7.992.136-15.985.028-3.011.045-6.023c.017-2.767.046-5.533.078-8.3l.007-2.488c.084-5.628.084-5.628 2.312-7.856 8.736-1.605 18.03-1.186 26.895-1.185m-73.157 191.85C427.588 327.067 412.222 334.651 398 344c-.594.39-1.188.78-1.8 1.18-5.87 3.876-11.278 7.752-16.2 12.82a654 654 0 0 1-5.812 5.375l-1.602 1.471a226 226 0 0 1-8.649 7.529c-10.186 8.9-17.766 20.277-24.937 31.625l-1.605 2.504c-1.532 2.466-2.973 4.965-4.395 7.496l-1.093 1.934C319.83 437.495 306.94 464.614 311 490c25.7.97 51.309 1.624 77 0l.566-1.707c5.75-17.3 12.277-33.674 23.434-48.293l2-1 1.188-2.063c4.96-8.04 12.245-15.557 20.562-20.125 3.195-1.575 3.195-1.575 5.043-3.667 12.144-11.8 33.182-18.258 49.207-22.145q.035-10.826.052-21.65.007-5.03.023-10.06c.05-15.465-.066-30.856-1.075-46.29-10.257-5.129-34.955 5.407-45.262 8.664M536 316c-1.172 24.711-.795 49.28 0 74 5.305 2.4 10.624 4.665 16.063 6.75C572.91 405.009 592.065 416.031 607 433l1.455 1.63c13.501 15.375 20.697 32.85 25.948 52.447.43 1.91.43 1.91 1.597 2.923 4.194.389 8.416.434 12.625.562l1.987.065c21.12.666 42.26.46 63.388.373-.403-8.266-.826-16.262-3.125-24.25l-.672-2.406A357 357 0 0 0 708 457l-.71-2.296c-8.127-25.507-22.21-49.212-39.509-69.552C666 383 666 383 663.938 379.75c-2.236-3.173-4.743-5.374-7.704-7.86-2.27-1.92-4.433-3.927-6.609-5.953C622.795 341.89 574.631 308.842 536 316m-76 138c-5 5-5 5-7.375 7.25C438.747 475.789 431 494.832 431 515c.953 20.698 7.436 42.451 23 57l2.086 2.031c16.886 15.957 36.598 22.601 59.539 22.239 21.198-.771 40.938-10.145 55.563-25.458 15.784-18.164 21.754-39.07 20.625-62.812-.659-7.63-2.632-14.683-4.813-22l-.941-3.754c-1.04-3.19-1.612-4.152-4.059-6.246a125 125 0 0 1-3.125-4.5l-1.57-2.344C576 467 576 467 575 464c-1.622-1.682-1.622-1.682-3.625-3.313l-2.168-1.843L567 457a1327 1327 0 0 1-3.937-3.313l-1.715-1.425C560 451 560 451 559 449c-27.645-16.894-75.158-21.85-99 5m-122.75 83.375-2.518.065c-8.942.238-17.835.568-26.732 1.56-1.49 27.82 13.534 59.151 28 82l1.135 1.816C343.038 632.21 349.632 640.717 357 649l2.45 2.785c6.029 6.787 12.24 13.226 19.136 19.137a381 381 0 0 1 5.578 4.906c7.479 6.64 15.049 12.324 23.836 17.172l2.145 1.195c10.977 6.07 22.103 11.413 33.855 15.805l1.904.714c7.315 2.695 14.693 4.794 22.284 6.536l2.12.495c6.182 1.343 12.389 1.827 18.692 2.255.97-26.342 1.816-52.674 0-79-.674-.23-1.347-.461-2.041-.7-43.875-15.133-43.875-15.133-47.959-23.3l-3.062-1.625C431.149 612.75 427.724 608.93 424 605l-2.5-2.438c-13.952-14.3-13.952-14.3-15-18.625-.36-2.11-.36-2.11-2.312-3.625-2.64-2.79-4.13-5.79-5.688-9.25l-.915-2.005c-4.499-10.1-6.872-20.17-8.585-31.057-17.274-.835-34.46-1.09-51.75-.625m329.656-.156-2.521.067q-3.943.106-7.885.214l-5.383.145q-6.559.176-13.117.355c-2.069 5.034-4.06 10.077-5.824 15.227C626.474 569.84 619.73 583.779 608 597l-1.84 2.203c-3.434 4.08-7.079 7.662-11.16 11.094a76 76 0 0 0-3.687 3.344C576.403 627.884 555.55 634.937 536 640c-1.103 26.334-1.11 52.646-1 79a3147 3147 0 0 0 9.875-1.363l2.781-.378C586.024 711.88 621.894 693.553 650 667q1.995-1.695 4-3.375c9.235-8.085 16.724-17.804 24-27.625.605-.808 1.21-1.616 1.832-2.45C689.656 620 696.978 605.569 703 590l1.04-2.63c4.033-10.256 7.482-20.498 9.96-31.245l.63-2.718c1.131-5.248 1.57-10.04 1.37-15.407q-6.616-.216-13.232-.427l-4.493-.146q-3.246-.106-6.494-.208l-3.935-.127c-6.99-.167-13.954-.067-20.94.127"/></svg>